<?xml version="1.0" encoding="UTF-8"?>
<svg width="400px" height="216px" viewBox="0 0 400 216" version="1.1" xmlns="http://www.w3.org/2000/svg" xmlns:xlink="http://www.w3.org/1999/xlink">
    <!-- Generator: Sketch 47 (45396) - http://www.bohemiancoding.com/sketch -->
    <title>Group</title>
    <desc>Created with Sketch.</desc>
    <defs></defs>
    <g id="Page-1" stroke="none" stroke-width="1" fill="none" fill-rule="evenodd" opacity="0.198029891">
        <g id="Caribbean---child-selected" fill-rule="nonzero" fill="#8DC558">
            <g id="sidebar">
                <g id="sidebar-header">
                    <g id="Group-2">
                        <g id="Group" transform="translate(-14.000000, -1.000000)">
                            <path d="M6.51189312,31.2253102 C21.5590892,16.7853087 41.0094089,7.97380241 61.7998096,7.11982383 C81.4798575,6.34347966 99.9729764,13.7963837 116.81971,23.4618685 C133.589867,33.0885362 149.134808,44.7725159 166.096406,54.0498287 C174.328332,58.5526249 182.943139,62.4343457 191.979114,65.1127331 C202.738051,68.2957442 213.994732,69.4602604 225.174837,68.8391851 C235.282877,68.2569269 245.276053,66.0831633 254.694909,62.3567113 C255.230941,62.1626252 255.001213,61.2698294 254.465181,61.5027327 C232.832443,69.4990776 209.247016,69.9648841 187.384551,62.4343457 C169.044584,56.1071407 152.772171,44.9277847 136.576334,34.3695041 C120.801665,24.0829439 104.529252,13.8740181 86.2658613,8.8665982 C67.3515741,3.70390949 47.365222,5.6059527 29.5995757,13.8352009 C20.8316166,17.9110077 12.7145541,23.6171374 6.12901281,30.7595037 C5.78442054,31.0700414 6.20558888,31.4970307 6.51189312,31.2253102 L6.51189312,31.2253102 Z" id="Shape"></path>
                            <path d="M252.766983,66.526456 C233.231503,76.9561325 209.996998,75.8562757 189.344104,69.4467654 C167.034355,62.5442159 147.344749,49.3838605 127.231296,38.0439577 C107.618753,27.0074637 86.3878862,17.1846047 63.4616327,16.0847479 C42.7316757,15.0986694 22.1943763,22.7597409 7.20561558,36.8682487 C6.43498521,37.5888445 5.7799494,38.3473665 5.08638206,39.1058884 C4.81666143,39.4092972 5.24050814,39.7885581 5.51022877,39.5230754 C13.2935955,32.0516345 22.0017187,26.0213851 32.0969766,22.0012189 C42.2692975,17.9810527 53.2122487,16.3502306 64.1552,16.8811959 C87.8135524,18.0189788 109.737986,28.9416946 129.889971,40.3953757 C149.618108,51.6215002 169.037993,64.137112 191.039491,70.6604005 C210.497907,76.4251672 233.000314,77.4112457 251.302786,67.6263128 C251.842227,67.3229041 252.4202,67.0194953 252.959641,66.7160865 C253.075235,66.6781604 252.921109,66.4506038 252.766983,66.526456 L252.766983,66.526456 Z" id="Shape"></path>
                            <path d="M250.594874,72.9804 C231.132284,84.0003535 207.669477,82.8670958 186.937588,76.4583286 C164.474836,69.5415492 144.473755,56.5286254 123.703402,45.8212947 C103.47154,35.387509 81.278033,26.7122264 58.199863,28.1581068 C38.5449549,29.3695202 19.6593191,38.748204 6.23551692,53.2851639 C5.12007204,54.4965773 4.08155439,55.7470684 3.08150036,56.9975596 C2.81225504,57.3492603 3.27381844,57.8181944 3.54306376,57.4664938 C17.0053296,41.327342 36.0448198,30.8154006 56.8921001,28.9787417 C80.6626151,26.9076157 103.779249,36.3644552 124.549602,47.1108637 C144.973782,57.7009609 164.667154,70.2449505 186.706806,77.1617299 C206.323251,83.2969522 228.593685,84.5474434 247.479321,75.2859931 C248.633229,74.7389032 249.748674,74.1136576 250.864119,73.4493342 C251.171828,73.2930228 250.902582,72.7850107 250.594874,72.9804 L250.594874,72.9804 Z" id="Shape"></path>
                            <path d="M246.648067,77.1169269 C227.354129,87.5716415 204.08564,89.6625844 182.785133,84.3232123 C160.751456,78.8344872 142.229276,65.1686817 122.009229,55.684762 C101.596243,46.1261658 78.5206929,40.9361468 55.831022,43.773855 C36.4984963,46.2008423 17.2431463,54.9379967 4.58632308,69.4999206 C4.08468069,70.0973328 3.58303831,70.7320833 3.08139593,71.3294956 C2.8112808,71.66554 3.2743353,72.1509375 3.58303831,71.8148931 C17.011619,56.2821742 36.4213205,46.9476076 57.065834,44.5206203 C80.6044382,41.7202504 104.297394,47.9557408 125.212022,58.1864258 C144.930427,67.8570368 163.22108,80.776077 185.061818,85.7420664 C205.397628,90.3346732 227.469893,87.9823624 245.760546,78.1250601 C246.146425,77.9383688 246.493716,77.7143392 246.879594,77.4903096 C247.14971,77.3409565 246.918182,76.9675738 246.648067,77.1169269 L246.648067,77.1169269 Z" id="Shape"></path>
                            <path d="M227.838164,90.5475592 C216.533768,93.7430314 205.190659,95.5525157 193.421699,95.0135204 C181.497885,94.4745251 169.845066,91.5100508 158.966521,86.6590929 C148.12669,81.808135 138.022419,75.4941899 127.143874,70.6817316 C116.652466,66.0232721 105.65778,62.4428032 94.3920979,60.2098226 C61.137044,53.6263797 23.1589209,61.3648125 1.09212148,88.6610755 C0.78241201,89.0460722 1.32440357,89.6235672 1.67282672,89.2385705 C14.7967653,73.2612093 34.0374658,63.5977932 54.3234358,60.1328232 C77.2806499,56.244357 100.93471,60.9413162 122.26595,69.603741 C139.958103,76.7646788 155.675858,88.1990796 174.335854,92.9730381 C191.563443,97.4004997 211.19128,97.2080013 227.915591,90.8170568 C228.070446,90.7400575 227.993018,90.4705598 227.838164,90.5475592 L227.838164,90.5475592 Z" id="Shape"></path>
                            <path d="M177.829762,100.052602 C166.447461,99.0733682 156.191736,95.2347734 146.013706,90.1427599 C136.418388,85.3641011 127.133849,79.9979023 117.072361,76.1984769 C97.9982663,69.0304887 76.9429521,67.18953 56.8976714,70.7931087 C46.1369296,72.7515755 35.6869674,76.4334929 26.0528015,81.6821837 C16.8848049,86.6958585 7.01755434,93.4721533 3.0162677,103.617011 C2.89972537,103.930366 3.44358957,104.165382 3.5601319,103.852027 C8.18297764,94.020524 17.2732793,87.5575839 26.4801234,82.4655704 C35.64812,77.3735569 45.6319129,73.9266555 55.8876379,71.8898501 C76.5544776,67.8162393 98.3090458,69.9705527 117.965852,77.4910649 C128.338119,81.4471677 137.933438,87.2442292 147.917231,92.022888 C157.162922,96.4490228 167.3798,100.522634 177.790915,100.365956 C178.062847,100.405126 178.062847,100.091771 177.829762,100.052602 L177.829762,100.052602 Z" id="Shape"></path>
                            <path d="M160.855515,105.258232 C148.834397,104.831834 138.23886,99.9088723 127.450677,95.0634375 C116.89367,90.3342932 105.91284,86.6905262 94.5081898,84.6748254 C73.2785868,80.914768 51.0086947,83.3181036 31.8596698,93.5904254 C21.3411913,99.2111297 10.5915375,107.739095 5.04332911,118.554105 C4.85068299,118.902977 5.35156292,119.174321 5.54420904,118.864213 C17.6038565,100.10269 37.9858166,88.8225175 59.5621826,85.1399871 C83.3347145,81.0698219 107.222834,86.9231071 128.914788,96.6139767 C138.893857,101.071777 149.643511,106.34361 160.855515,105.56834 C161.048162,105.56834 161.048162,105.258232 160.855515,105.258232 L160.855515,105.258232 Z" id="Shape"></path>
                            <path d="M147.859717,110.042495 C136.315927,109.472812 125.968984,104.763434 115.506218,100.471822 C104.850412,96.0662741 93.8471338,93.331796 82.2647358,93.0279651 C61.8024993,92.4962611 40.529495,99.5603294 25.2021216,113.042825 C22.6153861,115.321557 20.1444745,117.790183 18.0596429,120.524661 C17.8279949,120.828492 18.3298988,121.170302 18.5615468,120.90445 C22.0362662,117.296458 25.5109856,113.764424 29.4490009,110.650157 C33.3870162,107.573869 37.7111115,104.953328 42.1896387,102.750554 C52.189109,97.8133018 63.3468191,94.8889294 74.4659212,94.0533944 C86.3957911,93.1798806 98.402877,95.0408448 109.599195,99.1045831 C120.061961,102.902469 130.022824,108.257489 141.141926,110.004517 C143.342581,110.346326 145.581845,110.422284 147.821109,110.346326 C148.052756,110.308347 148.052756,110.042495 147.859717,110.042495 L147.859717,110.042495 Z" id="Shape"></path>
                            <path d="M139.883658,114.644146 C134.221664,114.605459 128.559671,114.605459 123.014019,113.367498 C117.856176,112.206909 112.969798,110.040477 108.122201,108.067476 C99.512868,104.58571 90.7871931,102.341905 81.4798064,102.032415 C63.9896756,101.490807 46.3444218,107.757986 33.1589573,119.209128 C32.693588,119.595991 33.3528612,120.292344 33.8182306,119.866795 C47.3915028,108.067476 65.3470029,102.264533 83.2637222,103.038258 C92.6098896,103.463808 101.180441,106.210534 109.789774,109.653614 C114.482248,111.510556 119.174722,113.328812 124.138662,114.373342 C129.335286,115.417872 134.648253,115.22444 139.883658,114.91495 C140.038781,114.91495 140.038781,114.644146 139.883658,114.644146 L139.883658,114.644146 Z" id="Shape"></path>
                            <path d="M130.780794,123.168878 C116.122322,125.018378 103.218188,115.35054 89.1834807,112.702394 C76.5522439,110.306451 61.8547863,114.089518 52.1084616,123.294981 C51.7965792,123.589219 52.2254175,124.177696 52.5372999,123.883458 C58.034227,119.511914 63.7260806,116.191222 70.3925667,114.341723 C77.2929646,112.408155 84.5832154,112.366121 91.5225986,114.00545 C104.621659,117.073937 116.979999,125.901093 130.858765,123.631253 C131.092677,123.631253 131.014706,123.126844 130.780794,123.168878 L130.780794,123.168878 Z" id="Shape"></path>
                            <path d="M123.854072,125.380176 C119.962651,125.548001 116.07123,125.682261 112.17981,125.447306 C108.093818,125.21235 104.31914,124.272528 100.505547,123.09775 C93.9290464,121.05028 85.8738056,119.976197 79.1805619,122.359318 C78.8692483,122.460013 78.9859909,122.862794 79.3362187,122.795664 C83.0330684,122.157928 86.4964329,121.553756 90.271111,121.688016 C94.2403601,121.822277 97.9372098,122.862794 101.672974,124.037572 C108.94993,126.286433 116.265801,126.252868 123.854072,125.648696 C124.048643,125.615131 124.048643,125.380176 123.854072,125.380176 L123.854072,125.380176 Z" id="Shape"></path>
                            <path d="M100.918088,128.761967 C95.0574685,127.911849 89.1968493,127.129741 83.3745349,126.007585 C83.0680972,125.939576 82.838269,126.347632 83.1447066,126.483651 C85.404684,127.605807 88.3158412,127.639811 90.8439515,127.945854 C94.1764604,128.35391 97.5472741,128.659953 100.879783,129 C101.033002,129 101.033002,128.761967 100.918088,128.761967 L100.918088,128.761967 Z" id="Shape"></path>
                            <path d="M85.8472147,135.382794 C85.1185985,134.86866 84.3516342,134.418792 83.5846698,133.968924 C82.8177055,133.519056 82.0123929,132.940654 81.2070804,133.004921 C80.9769911,133.004921 80.9386429,133.454789 81.0920357,133.647589 C81.667259,134.354525 82.3958751,134.547325 83.086143,134.86866 C83.968152,135.318527 84.850161,135.639862 85.73217,135.961196 C86.0006075,136.153996 86.1156522,135.575595 85.8472147,135.382794 L85.8472147,135.382794 Z" id="Shape"></path>
                            <path d="M257.860562,66.0470427 C254.812378,69.8684289 252.069012,73.8828144 248.830317,77.588401 C245.591621,81.2553877 242.048107,84.6521754 238.314081,87.817364 C234.465749,91.0983521 230.3507,94.0319415 226.04514,96.6953319 C221.891989,99.2815225 217.43402,101.211516 213.12846,103.488907 C212.861744,103.643307 213.052255,104.067905 213.318971,103.990705 C217.891247,102.446711 222.273012,99.8605204 226.388061,97.3129296 C230.579314,94.7653388 234.541953,91.8317494 238.314081,88.7051608 C242.200516,85.4241726 245.858337,81.8343856 249.21134,78.0515993 C252.373831,74.4618123 255.726833,70.4860266 257.974869,66.2014421 C258.051074,66.0470427 257.936767,65.9312431 257.860562,66.0470427 L257.860562,66.0470427 Z" id="Shape"></path>
                            <path d="M76.8360132,121.00583 C74.1690206,122.544367 71.6952884,124.119535 68.7963834,125.255122 C65.8974784,126.390709 62.8439652,127.123346 59.7904519,127.672823 C52.8717321,128.845042 45.7984039,128.478723 38.879684,127.526296 C31.8063559,126.537236 24.848984,124.925436 17.891612,123.496794 C12.5576269,122.397839 5.09777808,120.163298 0.111661525,123.386899 C-0.120250873,123.533426 0.0343573923,124.00964 0.343573923,123.863113 C7.10768553,121.188989 14.4902302,123.533426 21.2929939,124.962068 C28.2890179,126.427341 35.2850419,127.929246 42.4356741,128.625251 C48.6586568,129.247992 54.9975957,129.138096 61.1432742,127.965878 C66.5932156,126.940186 72.8548503,124.852172 76.9519694,121.152357 C77.0679256,121.115725 76.9519694,120.969198 76.8360132,121.00583 L76.8360132,121.00583 Z" id="Shape"></path>
                            <path d="M77.6047056,122.086662 C72.0713152,134.637567 58.3531179,139.994661 45.3650208,140.339045 C36.9112298,140.568635 28.5342915,138.884977 20.3110584,137.277849 C15.2387838,136.28296 7.39981396,133.719208 3.09606581,137.928353 C2.82708155,138.196208 3.17291845,138.693652 3.51875536,138.464063 C6.66971382,136.244695 10.1280829,136.321225 13.8170099,136.895199 C17.8902001,137.545704 21.924964,138.425798 25.9981542,139.152832 C34.0292556,140.568635 42.2140624,141.563524 50.3604428,140.645165 C61.580929,139.344157 73.6467944,133.221764 77.9889689,122.277987 C78.0658215,122.048397 77.7199846,121.895337 77.6047056,122.086662 L77.6047056,122.086662 Z" id="Shape"></path>
                            <path d="M72.7161325,135.067293 C66.1563618,146.942343 53.1902651,152.220143 41.1064769,155.65871 C33.9712876,157.69786 26.605931,158.937344 19.2405743,159.37716 C14.4837815,159.697027 6.23611651,159.177244 5.00855707,165.654544 C4.9318346,166.014394 5.39216939,166.134344 5.54561432,165.814477 C7.00334116,161.936094 10.5709358,160.736594 14.2919753,160.376744 C17.85957,160.016894 21.4271646,159.936927 24.9947592,159.537094 C31.9381423,158.697444 38.7664417,157.138094 45.4029349,154.93901 C55.9522739,151.500443 67.7675335,146.06271 72.9846611,135.187243 C73.0613836,135.067293 72.8312162,134.907359 72.7161325,135.067293 L72.7161325,135.067293 Z" id="Shape"></path>
                            <path d="M38.823185,147.606513 C32.76866,148.157547 26.6745629,148.196907 20.620038,147.527794 C15.6735306,147.01612 10.0147262,145.992772 6.05752036,149.69257 C5.89923212,149.850008 6.09709242,150.086166 6.29495271,149.968087 C11.0831718,146.661884 16.7815483,147.88203 22.1633482,148.354345 C27.7430085,148.866019 33.3226688,148.669222 38.9023291,147.842671 C39.0606173,147.88203 39.0210452,147.606513 38.823185,147.606513 L38.823185,147.606513 Z" id="Shape"></path>
                            <path d="M56.6813348,152.046803 C49.8369802,158.943679 41.7870857,164.42983 32.9983121,168.505257 C28.6428137,170.503784 24.053985,172.071255 19.3873795,173.286046 C17.1318536,173.873848 14.8763276,174.304903 12.5819132,174.696771 C10.1319454,175.088639 7.526424,175.049452 5.11534451,175.637254 C4.92090262,175.676441 4.99867937,175.950748 5.15423289,175.950748 C7.21531697,176.146682 9.43195456,175.715627 11.4930386,175.402133 C13.9818949,175.049452 16.4707511,174.540024 18.920719,173.952222 C23.6262128,172.815805 28.2539299,171.169959 32.6872051,169.210619 C41.7481974,165.213566 49.9925337,159.374734 56.9535535,152.32111 C57.109107,152.164363 56.8368883,151.890056 56.6813348,152.046803 L56.6813348,152.046803 Z" id="Shape"></path>
                            <path d="M136.350578,123.935103 C150.118897,109.711534 170.173591,103.109082 189.919751,103.788191 C201.3355,104.165474 211.864215,107.862847 222.778596,110.654741 C232.535976,113.144809 243.141824,114.276658 252.629237,110.202002 C254.133339,109.560621 255.521741,108.730598 256.833009,107.787391 C257.218677,107.523293 256.871576,106.881911 256.447342,107.14601 C246.844229,113.446636 235.19708,112.805254 224.398398,110.277458 C213.638284,107.749662 203.379536,103.976832 192.233754,103.184538 C173.644596,101.901776 154.052702,107.296923 140.09155,119.671805 C138.664581,120.916839 137.314746,122.275058 136.042044,123.671005 C135.887777,123.859646 136.196311,124.123744 136.350578,123.935103 L136.350578,123.935103 Z" id="Shape"></path>
                            <path d="M259.757878,114.035633 C242.321382,128.05717 220.028669,120.006343 200.336135,117.194331 C190.470749,115.769065 180.222984,115.614982 170.31936,117.078769 C162.595298,118.23439 153.991764,121.007881 149.059071,127.51788 C148.829644,127.826045 149.326737,128.172732 149.556164,127.903087 C155.865423,121.123443 164.316005,118.504035 173.263681,117.502497 C184.123253,116.269834 195.174014,117.040248 205.918873,118.889242 C215.975448,120.622674 225.993786,123.087999 236.279789,122.702792 C244.653895,122.394626 253.678047,120.083384 259.949067,114.228237 C260.102019,114.112675 259.872591,113.920071 259.757878,114.035633 L259.757878,114.035633 Z" id="Shape"></path>
                            <path d="M258.805971,121.017952 C251.562235,126.216589 243.973559,130.164426 235.235084,132.040626 C225.921709,134.034088 216.570007,132.900551 207.256632,131.258876 C198.403177,129.695376 189.511395,127.701914 180.466306,127.858264 C173.720817,127.975526 163.985849,129.187239 160.038204,135.636675 C159.884897,135.8712 160.229837,136.105725 160.42147,135.949375 C163.487602,133.056901 166.70704,131.141613 170.731338,130.047164 C175.215556,128.835451 179.929733,128.600926 184.567258,128.796364 C194.033939,129.148151 203.270661,131.571576 212.584036,132.861463 C220.862592,134.034088 229.102821,134.112263 237.22807,132.157888 C245.008379,130.281689 252.903668,126.646551 258.959278,121.252477 C259.074258,121.135214 258.920951,120.939777 258.805971,121.017952 L258.805971,121.017952 Z" id="Shape"></path>
                            <path d="M258.689914,125.083228 C253.520025,139.359451 238.010357,143.857439 224.492054,143.270745 C217.292504,142.957841 210.361023,141.158646 203.238065,140.180823 C196.804425,139.320338 190.102716,139.124773 184.166918,142.214695 C183.783963,142.41026 184.128622,142.996954 184.511577,142.80139 C191.672831,139.281225 199.523404,140.14171 207.105908,141.47155 C214.573526,142.762277 221.926257,144.209455 229.547057,143.974778 C241.610132,143.583648 254.822071,137.638482 258.996278,125.200567 C259.034573,125.005002 258.766505,124.926776 258.689914,125.083228 L258.689914,125.083228 Z" id="Shape"></path>
                            <path d="M256.798233,136.040977 C252.025798,141.713595 246.392759,145.977839 239.194987,148.012158 C235.478746,149.068438 231.527795,148.911952 227.889791,150.320327 C225.660046,151.181 223.078237,153.254439 223,155.836459 C223,155.992945 223.23471,156.071188 223.312947,155.914702 C224.134431,154.154234 224.955916,152.824103 226.598886,151.728701 C228.202737,150.633299 230.197772,150.202962 232.075452,149.88999 C235.752574,149.264046 239.273223,148.833709 242.793873,147.464457 C248.387793,145.273652 253.747004,141.32238 256.993825,136.236585 C257.032943,136.080099 256.87647,135.923613 256.798233,136.040977 L256.798233,136.040977 Z" id="Shape"></path>
                            <path d="M4.15278388,186.986213 C41.3660262,176.594494 67.5616833,143.054057 105.583909,134.562317 C129.506708,129.250132 153.776214,136.656171 176.27366,144.44996 C198.308831,152.088649 220.613662,160.425289 244.343846,159.494688 C262.372621,158.796736 280.940719,153.096801 295.84913,142.705082 C296.195837,142.472431 295.887653,141.92958 295.502423,142.123456 C285.833144,148.133592 275.663065,152.86415 264.606957,155.694731 C253.589372,158.525311 242.148033,159.339587 230.822264,158.331435 C206.668327,156.160031 184.286449,145.690762 161.326726,138.71125 C149.962434,135.260268 138.289957,132.623563 126.424866,132.080712 C115.90808,131.615412 105.545386,133.166414 95.6064456,136.617396 C77.6161928,142.821407 61.9758446,154.298828 46.2969734,164.729322 C33.0450527,173.531263 19.3308558,181.945454 4.11426086,186.714787 C3.92164573,186.792337 3.99869178,187.063763 4.15278388,186.986213 L4.15278388,186.986213 Z" id="Shape"></path>
                            <path d="M299.89019,147.120498 C284.166557,161.678009 263.784071,170.63069 241.92628,171.307784 C220.029666,171.984877 199.181294,164.047836 178.915279,157.013587 C160.085744,150.468349 140.829147,144.374507 120.601955,145.051601 C100.219469,145.766311 79.6428634,152.875793 63.1039314,164.386383 C62.8709887,164.574465 63.0651076,164.950628 63.3368741,164.800162 C82.399352,152.612479 104.218319,145.16445 127.240822,145.87916 C149.215084,146.556253 169.869337,154.982306 190.368295,161.903707 C209.120183,168.260863 228.726194,173.715227 248.79809,171.495865 C267.860568,169.426968 286.728927,160.775218 299.967837,147.233347 C300.045485,147.120498 299.967837,147.045265 299.89019,147.120498 L299.89019,147.120498 Z" id="Shape"></path>
                            <path d="M297.640597,151.079509 C292.162943,159.870916 283.444986,165.629479 274.10983,169.775644 C263.540272,174.459276 252.083489,177.5689 240.66528,179.41164 C228.436997,181.369551 216.015838,181.25438 203.903279,178.759003 C192.677946,176.455578 181.876938,172.386193 171.114505,168.50876 C160.274922,164.631328 149.35819,160.907457 137.939981,159.141498 C126.676073,157.375538 115.180715,157.5291 103.916807,159.37184 C82.2376411,162.903759 63.8373528,174.382495 44.2798137,183.481025 C32.9001805,188.778903 20.9804969,192.886678 8.28931271,193.385753 C7.90356243,193.385753 7.90356243,194 8.28931271,194 C29.0812527,193.577705 47.5972661,182.674826 65.6889542,173.653077 C75.6027363,168.700712 85.7479686,164.247424 96.5489764,161.636875 C108.198635,158.795984 120.349769,158.028175 132.269452,159.179888 C155.645919,161.406532 176.553584,172.731707 199.0814,178.375099 C222.033542,184.133662 245.641459,180.985647 267.6678,172.962049 C279.433183,168.700712 291.391442,162.327903 297.987772,151.271461 C298.064922,151.079509 297.756322,150.887557 297.640597,151.079509 L297.640597,151.079509 Z" id="Shape"></path>
                            <path d="M295.629657,157.078167 C283.436031,172.851338 266.410968,183.888739 247.200254,189.121001 C237.729104,191.679845 227.874507,192.711021 218.058254,192.214529 C206.478144,191.603462 195.166446,188.471743 184.238196,184.843531 C170.702504,180.336911 157.511915,174.875498 143.63112,171.476437 C130.402186,168.191951 115.409394,166.358749 102.180459,170.598028 C101.873702,170.712603 101.988736,171.132711 102.295494,171.056328 C108.277273,169.75781 114.220707,168.955785 120.31752,168.993976 C126.452678,169.032168 132.549491,169.872385 138.53127,171.09452 C150.226415,173.462405 161.423078,177.587109 172.619741,181.597237 C183.739715,185.569173 194.936378,189.464727 206.631523,191.527078 C216.141018,193.245705 225.918925,193.474855 235.466765,192.138146 C259.010433,188.853659 281.902241,176.708699 295.97476,157.307317 C296.089794,157.078167 295.783036,156.887208 295.629657,157.078167 L295.629657,157.078167 Z" id="Shape"></path>
                            <path d="M295.641077,165.073077 C271.448329,196.193395 230.151155,212.122647 191.550624,204.35228 C169.900426,200.000875 150.36902,188.966954 129.373722,182.478698 C118.933858,179.253996 108.185806,177.42796 97.2836598,177.816478 C85.8036616,178.243848 74.5162809,181.118884 63.845276,185.198326 C54.291452,188.850399 45.3925273,193.862285 36.2624617,198.369098 C26.6701143,203.109021 16.2302502,207.033056 5.40515134,205.168168 C4.98139302,205.090465 4.82729909,205.712094 5.25105741,205.789798 C15.8064919,207.732389 25.9766916,204.080317 35.4149451,199.573504 C46.08595,194.483914 56.2176262,188.694991 67.3894365,184.732104 C78.5612467,180.769217 90.3109092,178.399255 102.214666,178.554663 C113.386476,178.71007 124.327145,181.46855 134.844056,185.042919 C155.377073,192.075101 174.869956,202.642799 196.520154,205.906353 C215.16552,208.742537 234.465785,205.945205 251.878399,198.874171 C269.13692,191.880842 284.738931,180.302995 295.987788,165.306188 C296.064835,165.111928 295.756647,164.878817 295.641077,165.073077 L295.641077,165.073077 Z" id="Shape"></path>
                            <path d="M293.766758,174.049419 C291.103646,179.345013 288.592712,184.640606 284.521956,189.001683 C280.413155,193.440637 275.239109,196.984012 270.293329,200.332696 C265.727995,203.447751 260.896349,206.212362 255.874481,208.509716 C250.434124,211.00176 244.841589,212.403534 239.096876,213.727433 C238.944698,213.766371 238.982743,214 239.134921,214 C250.358035,213.182298 261.352883,207.030064 270.597685,200.799954 C275.467375,197.529147 280.299021,194.02471 284.445867,189.819385 C288.782935,185.41937 291.56018,179.773333 293.995025,174.127296 C294.033069,174.049419 293.842847,173.932605 293.766758,174.049419 L293.766758,174.049419 Z" id="Shape"></path>
                            <path d="M284.598742,196.121665 C282.403406,200.488708 278.580495,203.76399 275.022537,206.922297 C270.745418,210.74346 265.332781,212.965972 261.055662,216.748143 C260.904259,216.865118 261.093512,217.060075 261.244915,216.982092 C263.970159,215.695374 266.468299,213.745802 269.00429,212.108161 C271.275327,210.626485 273.432811,209.183802 275.438894,207.351203 C278.996851,204.114913 282.819763,200.761648 284.977248,196.355614 C285.0908,196.082673 284.750144,195.848725 284.598742,196.121665 L284.598742,196.121665 Z" id="Shape"></path>
                            <path d="M189.842896,212.636163 C166.565311,208.264422 144.839566,198.870598 121.600778,194.390466 C100.069012,190.271636 77.6449396,191.536189 56.7339098,197.714435 C47.5004681,200.424192 38.2670263,204.073331 30.1198719,209.059284 C29.8483,209.239934 30.0810759,209.601235 30.3914437,209.456715 C40.3620089,204.398502 50.4489621,200.062891 61.4282226,197.172484 C72.2522993,194.318206 83.5031317,192.873003 94.79276,192.728482 C106.392756,192.583962 117.837568,194.101426 129.049605,196.702792 C140.533213,199.376419 151.706453,203.097819 162.996082,206.421787 C171.802768,209.023154 180.687046,211.40774 189.765304,212.997464 C189.998079,213.033594 190.114467,212.672293 189.842896,212.636163 L189.842896,212.636163 Z" id="Shape"></path>
                            <path d="M159.84387,215.370654 C128.228546,203.421929 87.8611738,194.439783 58.1350575,216.400717 C57.8266153,216.647932 58.0965023,217.183564 58.4434997,216.936349 C72.55473,207.088951 89.2491636,203.421929 105.943597,203.875156 C124.527239,204.410789 142.069889,210.426354 159.76676,215.782679 C159.998091,215.865084 160.113757,215.453059 159.84387,215.370654 L159.84387,215.370654 Z" id="Shape"></path>
                            <path d="M122.260717,17.763286 C129.608126,12.4661118 138.115652,8.9739006 146.700519,6.34493264 C156.716198,3.28434308 167.079911,1.51861833 177.482295,0.890805081 C188.078032,0.262991837 198.905793,0.851566754 209.114824,3.95139465 C220.097267,7.24741418 230.190286,13.1724017 239.664577,19.5682491 C256.950323,31.2612708 273.075952,44.6807789 293.455344,50.4488131 C312.713289,55.9029406 333.943434,55.0004591 352.776003,48.2514667 C353.162709,48.1337517 353.008026,47.5059385 352.621321,47.6236535 C330.733776,54.8042674 307.028715,55.2358891 285.373194,46.9566019 C263.562991,38.5988381 246.586609,21.4124505 226.168547,10.3864804 C217.428997,5.67788107 208.032048,2.14643157 198.209722,0.851566754 C188.890114,-0.404059735 179.377153,-0.168629769 170.057545,0.890805081 C153.545211,2.77424481 135.718076,7.32589084 122.106035,17.4101411 C121.874011,17.5670944 122.067364,17.9202393 122.260717,17.763286 L122.260717,17.763286 Z" id="Shape"></path>
                            <path d="M247.020924,88.2306565 C250.519025,92.7074976 255.688441,97.7293454 261.868419,96.9118353 C262.02389,96.8729063 262.062758,96.639332 261.868419,96.639332 C255.377498,96.7561191 251.451852,92.279278 247.215263,88.0360112 C247.098659,87.9192241 246.943188,88.1138693 247.020924,88.2306565 L247.020924,88.2306565 Z" id="Shape"></path>
                            <path d="M255.010215,82.0969857 C258.583787,85.5473119 262.667869,88.2692359 267.183922,90.4544425 C271.464354,92.4863013 277.040697,94.8248557 281.870909,93.7130839 C282.06726,93.674747 282.02799,93.3297144 281.831639,93.3680513 C276.726537,93.9814426 271.425084,91.8729099 266.909032,89.7643773 C262.628599,87.7708555 258.701597,85.0872684 255.167295,82.0586487 C255.049485,81.9436379 254.970945,82.0203118 255.010215,82.0969857 L255.010215,82.0969857 Z" id="Shape"></path>
                            <path d="M348.624432,50.6092442 C332.372981,63.5147757 309.23401,62.8315416 289.84835,58.6562226 C282.496503,57.0620099 275.647678,53.5699249 269.185791,49.9260101 C261.640475,45.6368188 254.404709,40.8162232 247.13025,36.1094999 C232.387862,26.5442237 217.026372,16.6752878 199.614103,12.5379262 C190.559723,10.3743518 181.660119,10.7918837 172.489657,11.9685646 C161.384499,13.4109475 150.47281,15.9920538 140.064143,20.015543 C135.653034,21.7236281 131.358008,23.6974152 127.217757,25.9369045 C126.714736,26.2026067 127.179063,26.9237981 127.643391,26.658096 C138.052058,21.2681387 149.041135,17.3205644 160.533232,14.8912879 C170.516266,12.7656709 181.234485,11.0196284 191.488377,12.0444795 C209.481055,13.8284794 225.809894,23.6215004 240.668364,33.0729043 C254.520791,41.8410742 268.063667,52.2034569 283.696015,57.7832014 C291.821741,60.7059247 300.953509,61.5409885 309.543561,61.9205629 C319.062268,62.3001374 329.006609,61.3891587 337.867519,57.669329 C341.891688,55.961244 345.606305,53.7597121 348.933983,50.9888186 C349.127453,50.7231165 348.856596,50.4194569 348.624432,50.6092442 L348.624432,50.6092442 Z" id="Shape"></path>
                            <path d="M345.718529,55.8298096 C337.296478,62.6403001 327.413066,67.1679446 316.60669,68.7659367 C305.10809,70.4780712 293.686404,67.9669406 283.033855,63.6675807 C272.073651,59.2540785 261.767214,53.1664893 251.42232,47.4593744 C241.26971,41.8664018 231.078643,36.3114766 220.426094,31.6316423 C196.275189,21.0164086 164.240628,14.4342027 141.166515,31.2892154 C140.781946,31.5935949 141.128058,32.2404013 141.551083,31.9740692 C159.048953,20.1793651 181.007817,20.1032702 200.851555,25.4679582 C223.156531,31.4794526 243.115639,44.1112003 263.228574,54.9547186 C276.919215,62.3359206 291.455906,69.6029803 307.377044,69.9834546 C321.259969,70.3258815 335.642833,65.3416678 345.94927,56.0961416 C346.103098,55.9059045 345.872357,55.7156673 345.718529,55.8298096 L345.718529,55.8298096 Z" id="Shape"></path>
                            <path d="M338.835707,68.2839568 C329.232115,74.0552154 318.660419,77.4025454 307.391688,77.2486451 C295.387198,77.0947449 284.466984,72.1699376 273.972737,66.7834296 C252.751896,55.8949884 231.376159,44.9295971 207.986765,39.4661389 C190.90941,35.5032081 172.321812,34.3489563 155.283181,39.1583385 C154.779767,39.3122387 155.012112,40.0047897 155.476802,39.8893646 C167.403844,37.0806854 179.36961,36.3496593 191.567721,37.5808611 C203.727107,38.812063 215.615425,41.9670177 227.077777,46.0838488 C238.656301,50.239155 249.770136,55.4717627 260.767798,60.9736959 C271.107149,66.1678286 281.252879,72.1314625 292.366713,75.5942177 C307.701481,80.3266497 325.901837,78.1335714 338.95188,68.5148071 C339.068052,68.399382 338.95188,68.2070067 338.835707,68.2839568 L338.835707,68.2839568 Z" id="Shape"></path>
                            <path d="M329.778276,73.0807765 C319.285993,78.6849229 307.884631,81.345119 295.763582,80.0327556 C289.513665,79.3588392 283.642532,77.2661517 277.885034,74.9251791 C275.157798,73.8256314 272.46844,72.6551451 269.703325,71.5910667 C267.013968,70.5624576 264.173097,69.356502 261.294347,69.0018092 C260.915565,68.9663399 260.915565,69.4629098 261.218591,69.5693177 C264.135218,70.6688654 267.203359,71.4491896 270.119986,72.5487373 C273.036614,73.6837543 275.915363,74.9251791 278.831991,76.0601961 C284.513733,78.2947608 290.233353,80.0327556 296.407512,80.7066719 C307.770996,81.9126275 320.46022,79.3943085 329.929789,73.2581229 C330.081303,73.1871843 329.967668,72.9743687 329.778276,73.0807765 L329.778276,73.0807765 Z" id="Shape"></path>
                            <path d="M351.845422,49.0495524 C349.192525,53.070985 346.880716,57.2876327 344.152022,61.3090653 C341.347532,65.447627 338.31565,69.3909735 334.904783,73.0610188 C331.721307,76.4968059 328.234644,79.5421626 324.406893,82.197089 C320.503346,84.9301014 316.334508,86.5308658 312.127773,88.5220606 C311.862483,88.6391897 312.051976,89.0686631 312.317265,88.990577 C316.524001,88.0925872 320.692838,85.5157469 324.217401,83.1341218 C328.120948,80.5182385 331.64551,77.3557526 334.866885,73.9199656 C341.612821,66.7750902 347.600787,58.0294504 351.959117,49.1276385 C352.072813,49.0495524 351.921219,48.9324233 351.845422,49.0495524 L351.845422,49.0495524 Z" id="Shape"></path>
                            <path d="M311.763065,86.1026181 C302.100258,88.8456954 292.281598,89.1934094 282.696717,86.0639832 C273.891094,83.2436361 266.332285,77.4097674 257.409773,75.0144041 C256.981181,74.8984995 256.825329,75.5166577 257.253921,75.6325624 C266.410211,78.8392584 274.553464,84.3640479 283.865605,87.1071253 C292.827079,89.7729328 303.113294,89.695663 311.918917,86.4116972 C312.074768,86.3730623 311.996843,86.0639832 311.763065,86.1026181 L311.763065,86.1026181 Z" id="Shape"></path>
                            <path d="M245.909989,61.699965 C240.393602,57.626949 233.874236,55.1443488 227.547751,52.7005393 C220.565471,50.0239859 213.428887,47.7353389 206.099422,46.1449231 C199.310023,44.6708793 192.366319,43.8950667 185.422616,44.0114386 C178.826098,44.1278105 171.188024,44.9424137 165.170147,47.8517108 C164.822962,48.0068733 165.054419,48.5499421 165.44018,48.4723608 C168.641999,47.6577576 171.728089,46.57162 175.007061,45.95097 C178.440336,45.2915293 181.950764,44.9812043 185.422616,44.8648324 C192.520624,44.6320886 199.657208,45.6018543 206.600912,47.1146888 C213.428887,48.6275233 220.102558,50.7997985 226.699076,53.1272362 C233.33417,55.4934645 239.776384,58.2475991 245.794261,61.9327088 C245.948565,62.1266619 246.10287,61.8551275 245.909989,61.699965 L245.909989,61.699965 Z" id="Shape"></path>
                            <path d="M234.909181,62.7439333 C226.268369,58.8513395 217.004797,56.0400217 207.468766,54.7064479 C198.59442,53.4810017 188.630241,53.6612144 180.222965,56.7608724 C179.833739,56.9050426 179.98943,57.4817231 180.417578,57.337553 C184.932597,56.1481493 189.36977,55.2110434 194.040479,54.8866606 C198.672265,54.5622778 203.381896,54.8506181 207.97476,55.4633412 C217.277255,56.6887874 226.112679,59.7524029 234.792413,62.9601885 C234.948103,63.1043587 235.103794,62.8160184 234.909181,62.7439333 L234.909181,62.7439333 Z" id="Shape"></path>
                            <path d="M219.87357,65.4106681 C213.649704,62.751375 206.498056,62.0379061 200.196875,64.5674776 C199.887615,64.6971992 199.96493,65.5403897 200.27419,65.4755289 C203.44411,64.9566424 206.498056,64.3080343 209.706633,64.3080343 C213.108498,64.3080343 216.433048,65.086364 219.757597,65.9944153 C219.989543,66.0592761 220.105515,65.5403897 219.87357,65.4106681 L219.87357,65.4106681 Z" id="Shape"></path>
                            <path d="M239.046634,94.2750381 C241.975056,97.1224737 246.504348,98.5793012 250.916503,97.784668 C251.03364,97.7515583 251.03364,97.5860097 250.877458,97.5860097 C246.504348,97.9502166 242.365512,96.7913765 239.319954,94.0432701 C239.163771,93.9108312 238.890452,94.1094895 239.046634,94.2750381 L239.046634,94.2750381 Z" id="Shape"></path>
                            <path d="M234.088884,99.4063899 C236.46621,101.627364 239.58645,103.441159 242.818126,103.996402 C243.003855,104.033418 243.078146,103.774305 242.892418,103.700272 C239.735032,102.515753 237.023396,101.220185 234.423196,99.0732438 C234.200322,98.8511464 233.828864,99.1842925 234.088884,99.4063899 L234.088884,99.4063899 Z" id="Shape"></path>
                            <path d="M262.116932,103.677123 C284.768696,95.6773155 309.035696,91.7162456 332.764284,96.9976721 C354.60843,101.851924 374.029722,113.812802 395.296998,120.453419 C424.102042,129.462911 457.522047,125.191169 481.904421,106.667343 C482.135169,106.473173 481.904421,106.084832 481.673673,106.240168 C463.598411,118.550552 442.677258,125.191169 420.794654,124.375655 C398.219806,123.521307 378.067812,113.11379 357.569696,104.647974 C342.647991,98.4733648 327.45708,94.2016228 311.227802,94.0074527 C294.460113,93.8132826 277.615508,97.4248463 262.040016,103.482953 C261.9631,103.560621 262.001558,103.715957 262.116932,103.677123 L262.116932,103.677123 Z" id="Shape"></path>
                            <path d="M485.809322,111.675504 C472.867074,129.194862 448.52792,133.565117 428.01349,134.293493 C415.92118,134.715184 403.790237,133.450111 392.045629,130.651614 C380.06922,127.814781 368.865483,122.831156 357.352677,118.690914 C341.51291,113.017249 324.745937,108.378644 307.863064,107.266913 C300.48405,106.806886 293.066403,106.921893 285.68739,107.765275 C279.351483,108.493651 272.745142,109.797061 267.104639,112.863907 C266.872838,112.978913 267.066006,113.285598 267.297807,113.208927 C275.449492,109.375369 284.721551,108.225302 293.645907,107.841946 C302.686164,107.420255 311.880956,107.918618 320.766679,109.528712 C332.627187,111.675504 344.371794,114.972363 355.730066,118.920928 C367.32014,122.946163 378.485243,128.006459 390.423019,130.996634 C408.696701,135.596903 427.936223,136.210272 446.48034,132.951748 C461.315634,130.344929 476.962233,124.479586 485.963856,111.828846 C486.079757,111.675504 485.886589,111.560497 485.809322,111.675504 L485.809322,111.675504 Z" id="Shape"></path>
                            <path d="M486.938618,118.633548 C473.263443,134.503689 452.460132,142.880664 431.88926,144.878841 C407.56062,147.261284 383.231981,140.920913 360.491676,132.928203 C343.446132,126.93367 326.555548,120.132181 308.347808,118.479842 C300.561093,117.788165 292.65816,117.826592 284.871445,118.710401 C278.091968,119.478931 271.19627,120.939138 265.15285,124.205389 C264.804191,124.397522 265.11411,124.935493 265.462769,124.74336 C273.636882,120.47802 283.244371,119.248372 292.348241,118.864107 C301.64581,118.441416 311.059599,119.094666 320.163469,120.939138 C332.01787,123.32158 343.407392,127.586921 354.758175,131.698555 C366.225177,135.848616 377.769659,139.652839 389.701539,142.304267 C407.909279,146.377475 426.930556,147.607122 445.215776,143.303355 C461.331563,139.499133 476.285153,131.352717 486.938618,118.671975 C487.054838,118.633548 486.977358,118.595122 486.938618,118.633548 L486.938618,118.633548 Z" id="Shape"></path>
                            <path d="M484.928534,126.01053 C471.141797,141.890162 451.347432,150.583391 430.705838,152.901586 C406.598303,155.644783 382.336728,149.656114 359.615569,141.967435 C342.09332,136.056039 324.686602,128.869637 306.124571,127.324174 C290.758906,126.049167 274.276439,128.94691 262.107141,138.953783 C261.799057,139.185602 262.222672,139.571968 262.530755,139.378785 C280.284067,125.315072 304.23756,126.049167 325.033196,131.419651 C336.740369,134.433303 348.023927,138.799236 359.423017,142.662894 C370.937638,146.565188 382.683321,149.887933 394.698578,151.974308 C426.123095,157.460702 463.824814,152.74704 484.967044,126.087803 C485.044065,126.049167 484.967044,125.971894 484.928534,126.01053 L484.928534,126.01053 Z" id="Shape"></path>
                            <path d="M483.874306,136.025039 C476.261565,143.238063 467.918308,149.160334 458.267812,153.488149 C448.54042,157.853926 438.005616,160.473392 427.393916,161.688217 C403.133109,164.4975 378.680061,159.486347 355.495802,152.69092 C346.768063,150.14738 338.232565,147.034391 329.42793,144.756594 C321.315362,142.63065 312.549175,141.150082 304.16747,142.440834 C303.898333,142.478797 303.975229,142.934356 304.244366,142.896393 C310.357628,142.478797 316.278649,142.74454 322.315015,143.845475 C328.15914,144.908447 333.88792,146.616795 339.578252,148.401069 C351.151157,152.045544 362.685614,155.690019 374.566104,158.347448 C396.712261,163.320638 419.934968,165.142876 442.119573,159.600237 C457.575745,155.727982 473.301054,148.135326 483.951203,136.138929 C484.066547,136.063003 483.951203,135.949113 483.874306,136.025039 L483.874306,136.025039 Z" id="Shape"></path>
                            <path d="M367.913409,166.764712 C356.714264,166.033026 346.477245,162.220559 336.086286,158.292561 C331.006261,156.367073 325.887752,154.480094 320.615302,153.093742 C315.727703,151.784409 310.339798,150.667626 305.259774,151.091233 C304.913409,151.129743 304.913409,151.591861 305.259774,151.63037 C310.878589,151.976958 316.189524,152.554605 321.654398,154.056486 C326.888363,155.481348 332.006872,157.445346 337.086897,159.370835 C346.90058,163.067774 357.253054,167.14981 367.913409,166.995771 C368.028864,166.957261 368.028864,166.764712 367.913409,166.764712 L367.913409,166.764712 Z" id="Shape"></path>
                            <path d="M351.94293,169.338317 C343.686855,169.595097 335.697104,169.338317 327.63126,167.504176 C320.17416,165.816767 312.983384,162.73541 305.298005,162.001753 C304.955587,161.965071 304.879494,162.515313 305.221912,162.588679 C313.059477,163.835894 320.440485,166.51374 328.16391,168.20115 C335.84929,169.88856 344.143412,170.54885 351.94293,169.485049 C352.019023,169.448366 352.019023,169.338317 351.94293,169.338317 L351.94293,169.338317 Z" id="Shape"></path>
                            <path d="M336.881333,176.50914 C330.8694,176.852777 324.781846,176.547322 318.807724,175.630959 C315.820663,175.172777 312.833602,174.523687 309.922163,173.760051 C306.972913,172.996415 304.174907,171.850961 301.263468,171.010961 C301.036603,170.934597 300.885359,171.278234 301.112224,171.392779 C306.481372,174.027323 312.833602,175.287323 318.694291,176.165504 C324.744035,177.081867 330.831589,177.196413 336.919144,176.738231 C337.032576,176.776413 337.032576,176.50914 336.881333,176.50914 L336.881333,176.50914 Z" id="Shape"></path>
                            <path d="M327.913861,182.041062 C322.975252,181.995967 318.036643,182.131252 313.05975,182.176347 C310.762723,182.221442 308.465695,182.131252 306.206952,181.950873 C303.450519,181.680303 301.000356,180.733312 298.320491,180.011794 C298.052504,179.921604 297.861085,180.372553 298.129072,180.552932 C302.072302,183.078244 307.317182,183.033149 311.681534,182.988054 C317.079548,182.942959 322.515847,182.627295 327.913861,182.266536 C328.028713,182.221442 328.028713,182.041062 327.913861,182.041062 L327.913861,182.041062 Z" id="Shape"></path>
                            <path d="M314.852417,189.739447 C311.092052,189.949741 307.36967,190.212609 303.609305,190.160036 C299.355154,190.107462 295.404871,188.845695 291.264671,188.004516 C291.03677,187.951943 290.884836,188.372532 291.112737,188.530253 C294.493267,190.528051 298.595484,190.738346 302.241899,190.948641 C306.458066,191.158935 310.674234,190.685772 314.890401,190.212609 C315.042335,190.160036 315.042335,189.739447 314.852417,189.739447 L314.852417,189.739447 Z" id="Shape"></path>
                            <path d="M305.886066,195.704136 C303.227614,195.285709 300.645117,195.983087 297.986665,196.471252 C295.290235,196.959416 292.85965,196.331776 290.239175,195.006758 C290.049286,194.93702 289.897374,195.425185 290.087264,195.634398 C294.644611,200.655519 300.986918,196.122563 305.886066,196.122563 C306.037978,196.1923 306.037978,195.773874 305.886066,195.704136 L305.886066,195.704136 Z" id="Shape"></path>
                            <path d="M300.744573,203.005145 C295.897145,204.267833 290.968248,204.068462 286.120821,205.131778 C285.917147,205.198236 285.998617,205.663437 286.161555,205.729894 C290.927514,206.660296 296.182288,204.998864 300.866777,203.603261 C301.111185,203.536803 300.988981,202.938688 300.744573,203.005145 L300.744573,203.005145 Z" id="Shape"></path>
                            <path d="M292.831137,211.002284 C287.86834,211.522863 283.10248,211.327646 278.139683,211.29511 C277.982134,211.29511 277.942747,211.522863 278.100296,211.5554 C282.866156,212.336269 288.104664,211.978371 292.870524,211.327646 C293.06746,211.29511 293.028073,210.969747 292.831137,211.002284 L292.831137,211.002284 Z" id="Shape"></path>
                            <path d="M288.853291,141 C282.319864,141 275.864681,142.595365 269.761599,144.798489 C264.636576,146.621763 259.042084,149.014811 255.051607,152.73733 C254.895118,152.88927 255.129852,153.079194 255.286341,152.965239 C259.628919,149.5466 264.71482,147.153552 269.878966,145.216322 C275.903804,142.975214 282.398109,141.379849 288.853291,141.265894 C289.048903,141.265894 289.048903,141 288.853291,141 L288.853291,141 Z" id="Shape"></path>
                            <path d="M295.385291,214.923732 C308.020187,198.906448 324.815354,186.394124 343.960303,178.743515 C365.609118,170.113026 388.875817,169.246208 411.834348,172.261226 C435.024004,175.313932 457.520283,181.98466 480.632897,185.640369 C502.435797,189.069952 525.124681,190.313647 546.734975,185.150429 C547.197228,185.037365 547.004623,184.358986 546.54237,184.472049 C523.429756,189.974457 499.16151,188.127759 475.971853,184.170548 C452.050297,180.100273 428.745078,173.20342 404.515353,170.791405 C382.789495,168.605517 361.102159,170.791405 340.955663,179.308831 C322.927823,186.959439 306.787514,199.20795 295.038602,214.659918 C294.884518,214.923732 295.231207,215.11217 295.385291,214.923732 L295.385291,214.923732 Z" id="Shape"></path>
                            <path d="M307.195282,215.967873 C324.36079,202.922624 342.914969,191.724142 363.70645,185.987375 C380.601939,181.311518 398.153189,180.879296 415.511568,182.568891 C424.615074,183.472628 433.641431,184.887173 442.667788,186.45889 C454.664357,188.541415 466.468055,191.488384 478.42605,193.806666 C488.108168,195.692726 497.558841,196.792928 507.43383,196.399999 C516.923077,196.046363 526.489473,194.788989 535.747275,192.627879 C539.141803,191.84202 542.497756,190.820404 545.776561,189.563031 C546.162303,189.405859 546.008006,188.816465 545.622265,188.934344 C536.981649,192.117071 527.723847,193.72808 518.581767,194.788989 C509.516836,195.849898 500.220459,196.28212 491.155528,195.181918 C478.811791,193.72808 466.6995,190.506061 454.548635,187.991314 C444.905091,185.987375 435.184398,184.376366 425.463706,183.040406 C408.529642,180.722124 391.32556,179.975559 374.430071,182.96182 C355.104409,186.380304 337.090268,194.788989 320.734818,205.673128 C316.028768,208.816562 311.477015,212.195753 307.040985,215.732116 C306.925263,215.849994 307.079559,216.085752 307.195282,215.967873 L307.195282,215.967873 Z" id="Shape"></path>
                            <path d="M331.29842,212.97777 C351.351767,202.651461 372.953635,195.928217 395.639468,193.588082 C406.67268,192.436587 417.860745,192.399442 428.93267,193.365212 C437.836666,194.145257 446.508384,195.928217 455.257527,197.488306 C468.381243,199.865586 481.621098,201.351386 494.977092,201.388531 C512.707657,201.462821 531.135058,199.159831 547.820372,193.290922 C548.130076,193.179487 548.013937,192.696602 547.665519,192.770892 C535.974186,196.076797 524.282852,198.751236 512.088249,199.939876 C501.945436,200.905646 491.725198,200.942791 481.582385,200.237036 C473.220371,199.679861 464.897071,198.528366 456.651196,197.079711 C448.521461,195.668202 440.469152,193.959532 432.223277,193.030907 C397.768684,189.242117 361.223588,195.928217 331.104854,212.569175 C330.872576,212.7549 331.066141,213.089205 331.29842,212.97777 L331.29842,212.97777 Z" id="Shape"></path>
                            <path d="M350.144101,211.995901 C361.766564,208.748851 373.235087,205.354209 385.126945,203.140311 C397.095773,200.926414 409.257026,199.745669 421.456764,200.15155 C434.734081,200.594329 447.703519,204.062768 460.903866,205.464903 C474.604518,206.940835 488.45911,207.346716 502.198247,206.424259 C517.784663,205.391107 533.563504,202.623735 547.879915,196.424823 C548.14931,196.314128 547.9184,195.908246 547.649006,196.018941 C529.445611,203.472396 509.548878,206.055276 489.883054,206.276666 C475.759067,206.424259 461.558111,205.391107 447.665034,203.103413 C443.431686,202.402345 439.275309,201.44299 435.041961,200.815719 C425.613142,199.413584 415.991897,199.229093 406.486108,199.856363 C397.095773,200.483634 387.820894,201.959566 378.622984,203.915175 C369.00174,205.981479 359.34201,208.490563 350.067131,211.700714 C349.951676,211.811409 349.990161,212.032799 350.144101,211.995901 L350.144101,211.995901 Z" id="Shape"></path>
                            <path d="M388.146206,211.123338 C394.042352,209.25748 400.133735,208.050161 406.342259,207.684306 C411.457459,207.355037 417.197415,207.355037 422.156425,208.635528 C425.475448,209.476993 428.677328,210.684312 431.840162,211.891632 C434.729664,212.989195 438.165828,214.123344 440.625809,215.952616 C440.821046,216.098958 441.133425,215.879445 440.938188,215.659932 C439.024869,213.75749 435.783941,212.806268 433.284913,211.818461 C429.692559,210.391629 426.02211,209.074553 422.312615,208.086746 C417.470746,206.806256 412.004121,206.916012 407.045111,207.135525 C400.563255,207.464794 394.120447,208.708699 388.068112,210.830654 C387.95097,210.940411 387.990017,211.196509 388.146206,211.123338 L388.146206,211.123338 Z" id="Shape"></path>
                            <path d="M549.802066,64.5735295 C500.697162,63.0614976 458.419885,35.6898433 413.789583,18.4759418 C370.16221,1.57220062 322.445976,-3.1577453 276.349856,4.6738045 C266.204853,6.41845668 256.098423,8.70588955 246.223439,11.7687234 C245.837697,11.8850335 245.991994,12.4665843 246.377735,12.3890442 C269.175063,5.83690596 292.551003,2.07621125 316.312685,1.68851076 C339.958644,1.30081028 363.643177,4.24733397 386.517653,10.2566915 C433.076663,22.5467969 473.733826,50.8877023 520.832873,61.4331555 C530.36069,63.5655082 540.042804,64.8449198 549.763492,65 C550.072085,65 550.072085,64.5735295 549.802066,64.5735295 L549.802066,64.5735295 Z" id="Shape"></path>
                            <path d="M552.772768,70.6741073 C503.388926,76.5019356 459.492177,47.7901682 416.13641,28.8691523 C394.844941,19.544627 372.664718,13.0174593 349.557098,10.3755105 C326.642686,7.73356163 303.303218,8.93797948 280.73658,13.6390943 C271.423977,15.5817038 262.150016,18.107096 253.223829,21.4483842 C252.837414,21.603793 252.99198,22.1865758 253.378395,22.0700193 C275.790467,14.6881034 298.743521,10.2978061 322.392121,9.94813639 C345.847514,9.59846669 369.341548,13.1340159 391.676338,20.360523 C437.080105,35.0077981 476.919496,65.3125053 525.105451,71.1403336 C534.263488,72.2670471 543.57609,72.3058993 552.734126,71.1403336 C553.0819,71.1014814 553.0819,70.6352551 552.772768,70.6741073 L552.772768,70.6741073 Z" id="Shape"></path>
                            <path d="M549.797257,78.3479755 C525.892856,80.6839697 501.872603,78.3869088 479.0495,70.6781281 C456.110544,62.891481 435.56589,49.5763144 413.630996,39.4536731 C371.769332,20.103855 323.65159,10.5652123 278.816357,24.892643 C274.182225,26.3721059 269.58671,28.1241015 265.184284,30.187563 C264.759489,30.3822292 265.145666,31.005161 265.570462,30.849428 C287.312267,21.3886518 310.791872,17.7678608 334.38733,19.0526576 C358.214495,20.3763876 381.539628,26.8393048 403.551758,35.9107487 C425.718358,45.060059 446.069924,58.0248265 468.159289,67.3298698 C489.862476,76.4791802 513.53517,80.8397026 537.053392,79.8663717 C541.301347,79.6717055 545.58792,79.3213064 549.797257,78.7762411 C550.067581,78.7373079 550.067581,78.3090423 549.797257,78.3479755 L549.797257,78.3479755 Z" id="Shape"></path>
                            <path d="M549.786017,81.5375704 C525.235625,85.3872187 500.646814,82.461486 476.941662,75.4166296 C453.735971,68.5257592 431.951821,57.823737 410.475031,46.8137429 C399.947946,41.4242353 389.382441,36.1117207 378.163796,32.3775619 C367.675131,28.874382 356.763846,26.6800825 345.775721,25.6406774 C323.72263,23.5618674 300.670619,26.5260965 280.077489,34.7643438 C279.462769,35.0338192 278.809629,35.2647981 278.194909,35.5342735 C277.849128,35.6882594 278.002809,36.2657067 278.348589,36.1117207 C299.633279,27.8349769 322.301089,24.3702935 345.08416,26.2951176 C356.494906,27.2575297 367.751971,29.6443116 378.586416,33.3014775 C390.227681,37.1896222 401.138967,42.8871017 412.050252,48.4690917 C433.142842,59.2866033 454.696472,69.4881713 477.479543,76.2635522 C499.993673,82.9619402 524.428805,86.2341413 547.749756,82.3075 C548.479736,82.1920106 549.171297,82.0380247 549.901277,81.9225352 C550.093377,81.8070458 549.978117,81.4990739 549.786017,81.5375704 L549.786017,81.5375704 Z" id="Shape"></path>
                            <path d="M551.79332,88.263726 C527.940159,93.6926427 503.854285,91.0169623 480.544122,84.4247063 C457.272746,77.8324502 435.358866,67.4399524 413.095916,58.2107939 C393.004961,49.8735288 372.487364,42.4669352 350.844984,39.4422531 C330.986742,36.6502387 309.693433,37.5033542 291.115117,45.6467294 C290.882404,45.7630633 291.037546,46.1508431 291.27026,46.0345091 C313.184139,37.5421322 336.571873,37.1543524 359.494179,41.5750418 C383.153412,46.1508431 405.493933,55.7290033 427.52417,65.1520517 C447.459982,73.6832067 467.512152,82.1755836 488.650319,87.3330545 C509.12913,92.2966356 531.314509,94.1579785 551.870891,88.6127278 C552.103605,88.5739498 551.987248,88.224948 551.79332,88.263726 L551.79332,88.263726 Z" id="Shape"></path>
                            <path d="M548.846337,91.6542541 C537.398425,95.2555929 525.681602,96.7114533 513.695868,96.1750837 C501.402808,95.6387141 489.263411,93.0334903 477.431341,89.7769605 C453.920863,83.302213 431.063455,74.5670508 408.436541,65.640328 C392.417147,59.318829 376.24409,53.0356421 359.45638,49.01287 C358.99539,48.8979337 358.803311,49.5875517 359.264301,49.7024881 C382.505868,55.6025538 404.441297,65.1805826 426.7993,73.6858721 C438.324043,78.0534533 450.002451,82.0762253 461.757689,85.8691247 C473.39768,89.623712 485.191335,93.0334903 497.292316,95.1023445 C514.195274,97.9757531 532.711695,98.0906895 548.961584,91.8841268 C549.038416,91.8075026 549,91.615942 548.846337,91.6542541 L548.846337,91.6542541 Z" id="Shape"></path>
                            <path d="M550.730139,98.3739922 C530.058228,105.416174 507.647558,105.184014 486.125587,102.978496 C468.815277,101.198603 451.891357,97.0584199 435.508385,91.1770375 C408.267829,81.3489381 382.225085,66.5294024 353.323049,62.0022857 C353.013936,61.9635924 352.85938,62.4279121 353.168493,62.5052987 C360.973588,64.2851907 368.740044,66.1424693 376.390583,68.5801475 C383.538814,70.9017458 390.532489,73.5715839 397.487524,76.4348884 C411.397595,82.1228042 425.11447,88.3524263 439.333654,93.2277827 C455.252957,98.722232 471.751847,102.320709 488.52121,103.907135 C509.23176,105.8418 531.024205,105.803107 550.846056,98.7996186 C551.116529,98.722232 551.000612,98.2966056 550.730139,98.3739922 L550.730139,98.3739922 Z" id="Shape"></path>
                            <path d="M337.915679,47.3426877 C328.846504,46.5782844 318.990334,46.9829685 310.108539,49.6808624 C309.921159,49.7258273 309.996111,50.0405816 310.18349,49.9956167 C314.905458,49.2312134 319.552473,48.1970207 324.311916,47.7923367 C328.846504,47.3876526 333.381092,47.3876526 337.915679,47.5225473 C338.028107,47.5225473 338.028107,47.3426877 337.915679,47.3426877 L337.915679,47.3426877 Z" id="Shape"></path>
                            <path d="M346.115986,72.1945301 C357.753299,73.2218921 368.424056,76.6844827 378.901504,81.6310408 C388.605707,86.1970943 398.193925,90.7631479 408.28475,94.4540411 C418.4529,98.1449344 428.891685,101.112869 439.52378,103.395896 C450.078552,105.678923 460.981283,107.467294 471.768027,108 C472.077324,108 472.077324,107.581445 471.768027,107.543395 C460.74931,106.401881 449.807917,105.108166 438.98251,102.787089 C428.389076,100.504062 417.950292,97.4600264 407.782142,93.7691331 C397.266033,89.9640885 387.329856,85.0555809 377.161706,80.375376 C367.341516,75.8473729 357.018717,72.7272363 346.115986,72.0042779 C345.961338,71.9662274 345.961338,72.1945301 346.115986,72.1945301 L346.115986,72.1945301 Z" id="Shape"></path>
                            <path d="M458.942187,113.876222 C447.572288,113.053778 436.163847,112.153007 424.986659,109.724839 C414.580311,107.453327 404.752093,103.419435 395.19367,98.7980834 C386.329003,94.4900437 377.657047,89.790364 368.638212,85.8348003 C360.004797,82.0750566 350.716168,78.6677888 341.273371,78.0020008 C340.965035,77.9628368 340.88795,78.5111328 341.196287,78.5502968 C351.063046,80.0776927 360.313133,82.8583365 369.486136,86.8922282 C378.697681,90.92612 387.562348,95.7432916 396.658267,100.090495 C405.946896,104.516027 415.50532,108.197443 425.564789,110.351463 C436.549268,112.740467 447.764998,113.56291 458.942187,113.993714 C459.019271,114.032878 459.019271,113.876222 458.942187,113.876222 L458.942187,113.876222 Z" id="Shape"></path>
                            <path d="M434.942611,120.631202 C425.951613,120.868599 416.960615,120.03771 408.160915,117.90114 C399.055139,115.725003 390.484996,111.966222 382.25919,107.416118 C366.878845,98.9094021 351.383721,87.3560951 333.286947,87 C332.904351,87 332.904351,87.5934918 333.286947,87.5934918 C352.187172,88.7804754 367.605776,100.215084 383.827832,109.038329 C399.552513,117.545045 417.151913,122.055582 434.942611,120.789467 C435.01913,120.7499 435.01913,120.631202 434.942611,120.631202 L434.942611,120.631202 Z" id="Shape"></path>
                        </g>
                    </g>
                </g>
            </g>
        </g>
    </g>
</svg>