<?xml version="1.0" encoding="utf-8"?>
<!-- Generator: Adobe Illustrator 16.0.4, SVG Export Plug-In . SVG Version: 6.00 Build 0)  -->
<svg version="1.2" baseProfile="tiny" id="Layer_1" xmlns="http://www.w3.org/2000/svg" xmlns:xlink="http://www.w3.org/1999/xlink"
	 x="0px" y="0px" width="153px" height="64px" viewBox="0 0 153 64" xml:space="preserve">
<title>US-Mainland</title>
<desc>Created with Sketch.</desc>
<rect x="-208.783" y="-680" fill="none" width="1440" height="1024"/>
<path fill-rule="evenodd" fill="#BAC9CF" d="M129.582-3.624c0.084,0,0.169,0,0.255,0c0,0.042,0,0.085,0,0.127
	C129.612-3.577,129.712-3.521,129.582-3.624z M146.936-3.624c0.104,0.13,0.046,0.035,0.128,0.255c-0.043,0-0.085,0-0.128,0
	C146.936-3.454,146.936-3.539,146.936-3.624z M149.998-3.624c0.213,0,0.426,0,0.639,0c0,0.042,0,0.085,0,0.127
	c-0.043,0-0.086,0-0.127,0C150.2-3.346,150.229-3.381,149.998-3.624z M136.6-3.241c0.82-0.033,1.63,0.147,1.914,0.638
	c-0.973,0.008-0.874,0.327-1.531,0.511c0-0.085,0-0.17,0-0.256c0.233-0.2,0.178-0.112,0.255-0.51
	C136.99-2.949,136.776-3.078,136.6-3.241z M125.37-3.114c0,0.17,0,0.34,0,0.51c0.478,0.287,1.049,0.911,1.276,1.404
	c0.043,0.383,0.085,0.766,0.127,1.148c0.17,0.085,0.34,0.17,0.51,0.255c0,0.255,0,0.51,0,0.765c0.174,0.327,0.387,0.076,0.512,0.639
	c-0.487,0.747-0.519,1.718-1.021,2.424c-0.162,0.229-0.586,0.299-0.766,0.511c-0.036,0.042,0.175,0.319,0,0.51
	c-0.863,0.944-2.092,1.6-2.936,2.553c-0.413,0.467-0.414,1.255-0.766,1.786c-0.342,0.519-1.237,1.439-0.893,2.552
	c0.063,0.205,0.468,0.688,0.511,0.894c0.059,0.284-0.22,0.371-0.255,0.51c-0.16,0.61,0.277,0.835,0.383,1.148
	c0.452,1.355-0.536,2.408-0.128,3.828c-0.992,0.692-1.047,1.984-1.531,3.19c-0.287,0.713-0.834,1.759-1.148,2.425
	c-0.042,0.425-0.086,0.851-0.128,1.276c-0.143,0.515-0.248,1.544-0.511,2.169c-0.127,0.127-0.255,0.255-0.382,0.383
	c-0.267,0.601,0.129,1.625,0,1.914c-0.232,0.518-0.889,1.068-1.149,1.914c-0.042,0-0.084,0-0.128,0c0-0.127,0-0.255,0-0.383
	c0.914-1.041,0.656-2.36,0.894-3.701c-0.479-0.28-0.571-0.345-0.509-0.893c-0.533,0.009-0.873-0.029-1.149-0.255
	c-0.103-0.131-0.045-0.035-0.128-0.256c0.896-0.77,0.47-2.124,0.383-3.317c-0.212,0-0.425,0-0.639,0
	c-0.238,0.659-2.047,4-2.552,4.211c-0.137,0.095-0.121,0.077-0.382,0.127c0.057,0.603-0.123,0.567,0.51,0.638
	c0.144,0.09,1.869,0.029,2.297-0.128c0,0.681,0,1.361,0,2.042c-0.053,0.062-0.709,1.294-0.51,1.531
	c-0.108,0.112-0.432,0.264-0.512,0.383c-0.137,0.207,0.059,1.218-0.126,1.786c-0.062,0.185-0.233,0.584-0.384,0.894
	c-0.127,0.043-0.256,0.085-0.383,0.128c-0.267,0.486,0.351,0.852,0.767,0.893c0.186-0.321,0.055-0.197,0.509-0.255
	c0.021,0.334,0.056,0.434,0.129,0.638c-0.312,0.058-0.75,0.155-1.021,0.255c-0.045,0.584-0.273,0.908-0.383,1.277
	c-0.31,1.041,0.036,1.929,0.127,2.679c0.129,0,0.256,0,0.384,0c0.012,0.511,0.175,0.894,0,1.148
	c-0.128,0.044-0.255,0.086-0.384,0.128c0.043,0.383,0.086,0.766,0.129,1.149c-0.059,0.14-0.451,0.271-0.512,0.51
	c-0.086,0.341,0.352,0.219,0.256,0.382c-0.085,0-0.17,0-0.256,0c0,0.256,0,0.512,0,0.767c-0.023,0.041-0.346,0.162-0.382,0.256
	c0,0.255,0,0.51,0,0.765c-0.255,0.214-0.511,0.426-0.766,0.638c0,0.128,0,0.256,0,0.383c-0.129,0.043-0.255,0.086-0.383,0.128
	c0.042,0.128,0.084,0.255,0.128,0.384c-0.334,0.36-0.729,0.597-1.021,1.02c-0.291-0.155-0.287-0.208-0.766-0.255
	c-0.224,0.279-0.465,0.291-0.639,0.639c-0.221,0.392,0.022,0.445,0.128,0.893c-0.042,0.043-0.084,0.086-0.128,0.128
	c-0.242-0.17-0.111-0.164-0.51-0.255c-0.351,0.728-1.217,0.902-1.404,1.785c0.208,0.231,0.27,0.563,0.511,0.767
	c0.127,0.054,0.294-0.131,0.638,0c0.595,0.228,0.965,0.85,1.659,1.021c-0.009,0.388-0.097,0.349,0,0.51
	c0.091,0.073,0.005,0.185,0.256,0.128c0-0.042,0-0.085,0-0.128c0.232-0.126,0.566-0.604,0.638-1.148
	c0.63-0.072,0.41-0.066,0.894-0.255c0.214,0.374,2.256,1.688,2.808,1.787c0.14-0.158,0.915-1.093,1.021-1.149
	c0.202-0.108,0.748,0.193,1.021-0.127c0.266-0.312-0.432-0.306,0.129-0.639c0.197,0.066,1.684-0.389,1.785-0.255
	c0.767,0.301,1.122,0.894,1.914,1.021c0.603,0.332,1.181-0.319,1.659-0.255c0.98,0.13,2.163,0.385,3.317,0.638
	c0.723,0.157,1.299-0.233,1.659-0.383c0.3-0.124,0.93,0.045,1.148,0c0.559-0.113,1.135,0.123,1.404-0.255
	c0.245,0.085,0.113,0.295,0.255,0.383c0.695,0.427,1.234-0.114,2.041-0.255c0-0.128,0-0.256,0-0.383
	c0.222-0.024,3.063-0.766,3.063-0.766c0.172-0.215,0.208-0.402,0.255-0.767c1.73,0.136,2.281,1.062,3.7,1.404
	c0.572,0.137,1.04-0.224,1.403-0.256c0.323-0.026,0.523,0.25,0.639,0.256c0.494,0.025,0.194-0.295,1.021-0.256
	c0-0.127,0-0.255,0-0.382c0.404-0.109,0.541-0.245,0.766-0.511c1.271-0.031,2.251,0.736,3.446,1.021
	c0.574,0.137,1.354,0.019,2.169,0.256c0.984,0.284,0.679,0.615,1.659,0.383c0,0.255,0,0.51,0,0.766
	c-0.346,0.57-0.119,1.661-0.511,2.169c-0.263,0.207-0.554,0.245-0.766,0.51c-0.115,0.149-0.733,0.859-0.894,1.276
	c-0.255,0.667-0.171,1.524-0.382,1.787c-0.57,0.466-1.281,0.61-1.915,1.021c-0.567,0.367-0.241,1.172-1.021,1.403
	c-0.106,0.414,0.062,0.195-0.255,0.383c-0.181-0.164-0.391-0.286-0.639-0.383c-0.702,0.956-1.659,1.507-1.659,3.19
	c-0.127,0-0.255,0-0.382,0c-0.184,0.311-0.579,1.359-0.894,1.531c-0.209,0.115-0.496,0.031-0.638,0.128
	c-0.333,0.36-0.581,0.629-0.639,1.276c-0.455,0.104-0.256,0.264-0.511,0.383c-0.382,0-0.766,0-1.147,0
	c-0.455,0.099-1.523,0.062-2.17,0.255c0.009,0.389,0.097,0.351,0,0.511c-0.15,0.102-0.215,0.098-0.511,0.127
	c-0.191-0.477-0.644-0.611-0.766-0.766c-0.364,0.328-0.691,0.527-0.766,0.894c-0.127,0-0.255,0-0.383,0c0,0.255,0,0.511,0,0.766
	c-1.341,0.53-1.032,2.284-2.935,2.297c-0.172-0.112-0.695-0.187-0.894-0.255c-0.014-0.613,0.099-0.73,0.256-1.403
	c-0.129,0-0.256,0-0.383,0c-0.048-0.266-0.031-0.246-0.129-0.383c-0.36-0.359-0.69-0.429-1.147-0.384
	c-0.086-1.281-1.183-1.565-2.042-2.041c0.274-0.491,0.372-0.498,0.255-1.148c-0.255,0-0.51,0-0.766,0
	c-0.224,0.321-0.234,0.336-0.766,0.382c-0.421-0.695-2.177-0.402-2.936-0.382c-0.037,0.297-0.057,0.315-0.127,0.51
	c-0.539-0.057-0.919,0.102-0.893,1.021c0.35,0.299,0.23,0.558,0.127,1.021c-0.224,0.081-0.124,0.024-0.256,0.128
	c-0.453-0.064-0.458-0.034-1.02,0c-0.086-0.213-0.17-0.426-0.256-0.639c-0.596-0.085-1.191-0.17-1.786-0.255
	c-0.661,0.224-0.717,0.716-1.659,0.766c-0.205-0.762-1.048-2.545-1.531-2.808c-0.799-0.433-1.339-0.263-1.786-1.021
	c-0.239,0.107-0.34,0.176-0.639,0.255c0,0.128,0,0.255,0,0.383c-0.297,0.037-0.315,0.058-0.51,0.128
	c0.027,0.305,0.039,0.283-0.129,0.638c-0.212-0.153-0.306-0.523-0.51-0.638c-0.556-0.312-0.667,0.173-0.893-0.256
	c-0.227-0.196-0.267-0.461-0.383-0.766c-0.298-0.042-0.596-0.085-0.894-0.127c-0.043,0.042-0.086,0.085-0.128,0.127
	c0.043,0.689-0.099,0.693-0.128,1.532c-0.885,0.004-1.027,0.006-1.914,0c-0.239-0.691-0.646-0.485-0.766-1.021
	c0.127-0.259,0.017-1.056-0.511-1.275c-0.378,0.201-0.854-0.159-1.403-0.256c0-0.298,0-0.595,0-0.893c-0.169,0-0.34,0-0.51,0
	c-0.036,0.73-0.078,1.365-0.256,1.913c-0.861-0.172-1.035-0.529-1.531-1.021c-0.188,0.214-0.429,0.32-0.639,0.511
	c0.2,0.357-0.077,0.669-0.254,1.021c-0.086,0-0.17,0-0.256,0c-0.289-0.47-0.729-0.435-0.894-1.021
	c-0.103-0.149-0.098-0.214-0.127-0.511c-1.149,0.141-1.224-0.079-2.425-0.127c-0.287,0.471-0.511,0.737-1.275,0.765
	c-0.496,0.276-0.68-0.154-1.021-0.254c-0.088-0.026-1.035,0.143-1.531,0.127c-0.289-0.504-0.763-0.631-1.148-1.021
	c-0.177,0.052-1.021,0.383-1.021,0.383c-0.442-0.352-0.602-0.604-1.404-0.639c-0.125,0.232-0.235,0.324-0.383,0.511
	c-0.224-0.081-0.124-0.024-0.255-0.128c-0.771-0.475-0.371-0.782-0.639-1.659c-0.603,0.176-2.33-0.481-2.552-1.148
	c0.043,0,0.085,0,0.128,0c0.189-0.525,0.526-0.47,0.765-0.893c0.113-0.166,0.115-0.315,0.128-0.638
	c0.557-0.054,0.812-0.305,1.148-0.384c0.463-0.107,1.403,0.411,1.787,0.511c0.266,0.069,0.517-0.25,1.021-0.127
	c0.85,0.205,1.523,0.523,2.553,0.766c1.164,0.273,2.273-0.464,3.189-0.384c-0.043-0.309-0.041-0.112,0-0.51
	c-0.675-0.367-1.178-1.204-1.914-1.659c-0.834-0.516-2.156-0.365-2.296-1.659c0.472-0.205,1.098-0.581,1.53-0.765
	c0.457,0.143,1.136,0.142,1.532-0.129c0.102-0.15,0.098-0.215,0.127-0.511c-0.085-0.084-0.17-0.17-0.255-0.254
	c0.298,0,0.596,0,0.894,0c1.412,0.959,4.064-1.582,4.594-2.17c0.549-0.609,1.221,0.448,1.02-0.894
	c0.582-0.155,1.006-0.169,1.532-0.383c-0.222-0.272-0.38-0.368-0.51-0.766c0.084,0,0.17,0,0.255,0
	c0.188,0.324,0.271,0.257,0.765,0.256c-0.084-0.766-0.17-1.531-0.254-2.297c0.474-0.22,0.769-0.444,1.403-0.511
	c0.074-0.532,0.239-0.588,0.382-1.021c-0.192-0.067-0.216-0.086-0.51-0.128c-0.115,0.199-0.651,0.217-1.148,0.256
	c-0.261-0.375-0.568-0.222-0.893-0.511c-0.706-0.63-0.079-1.989-1.404-1.914c-0.13-0.45-0.271-0.42-0.384-0.893
	c-0.075-0.123-0.013-0.244,0-0.638c0.748-0.302,2.079-0.58,2.298-1.404c-0.226-0.178-0.909-0.637-1.021-0.511
	c-0.395,0.249-0.438,0.368-1.148,0.383c-0.263-0.162-0.423-0.09-0.767-0.127c-0.042-0.043-0.085-0.086-0.127-0.128
	c-0.043-0.468-0.085-0.936-0.128-1.404c0.268-0.143,0.234-0.183,0.639-0.255c0-0.17,0-0.34,0-0.51
	c-0.731-0.503-1.072-0.984-1.276-2.042c1.779-1.255,0.619-2.915,1.53-3.446c0.153-0.099,0.615-0.153,0.766-0.254
	c0.104-0.151,0.1-0.215,0.129-0.511c-0.343-0.023-0.401-0.329-0.639-0.766c0.399-0.6-0.034-1.67,0.128-2.042
	c0.062-0.141,0.551-0.583,0.638-0.766c0.043-0.298,0.086-0.596,0.128-0.893c0.169-0.127,0.341-0.255,0.511-0.383
	c-0.043-0.255-0.086-0.511-0.129-0.766c0.137-0.461,0.378-1.173,0.129-1.914c-0.057-0.166-0.336-0.312-0.383-0.511
	c0.181-0.352,0.265-1.876,0.383-2.424c0.053-0.246-0.279-0.358-0.129-0.766c0.092-0.244,0.398-0.414,0.512-0.766
	c-0.266-0.048-0.246-0.031-0.383-0.127c0.719-0.521,0.733-0.9,1.021-1.659c0.315-0.029,2.093-0.282,2.169-0.255
	c0.216,0.076,0.662,0.701,0.894,0.766c0.464,0.13,1.452-0.136,2.042-0.255c0.042-0.341,0.084-0.681,0.128-1.021
	c0.33-0.065,0.564-0.118,1.021-0.128c0.042-0.297,0.084-0.595,0.128-0.893c0.084,0,0.17,0,0.255,0
	c0.151-0.103,0.215-0.099,0.511-0.127c0.035,0.33-0.06,0.226,0.51,0.255c0.205-0.293,0.274-0.192,0.384-0.638
	c-0.486-0.522,0.322-1.031,0.126-1.787c-0.338-1.308-1.662-1.464-1.658-3.317c0.043-0.042,0.085-0.085,0.128-0.127
	c0.128,0,0.255,0,0.383,0c0.043-0.255,0.085-0.511,0.128-0.766c0.559-0.256,1.454-0.627,1.53-1.404
	c-0.449-0.239-0.812-0.369-0.894-1.021c0.667-0.669,0.157-1.453,0-2.297c0.596-0.382,0.754-0.804,1.022-1.531
	c0.726,0.01,1.037-0.124,1.531-0.255c0-0.127,0-0.255,0-0.383c0.726-0.063,1.566-0.328,1.786-0.51
	c0.229-0.351,0.114-0.948,0.255-1.404c0.269-0.874,1.046-1.712,0.638-2.935c0.866-0.144,2.419-0.772,3.19,0
	c0.097,0.137,0.077,0.121,0.128,0.383c0.545-0.059,0.53-0.185,0.894-0.383c0,0.128,0,0.255,0,0.383
	c0.812,0.106,2.864,0.768,3.445-0.255c0.282-0.407-0.087-0.567,0.255-0.766C125.173-3.183,124.96-3.003,125.37-3.114z
	 M110.695-2.093c0.085,0,0.17,0,0.255,0c0,0.042,0,0.084,0,0.127C110.727-2.046,110.827-1.99,110.695-2.093z M131.112-1.838
	c0.085,0,0.171,0,0.255,0c0.013,0.509,0.047,0.511,0.256,0.766c-0.333,0.314-0.259,0.246-0.256,0.894c-0.084,0-0.17,0-0.255,0
	C131.112-0.731,131.112-1.285,131.112-1.838z M98.444,0.586c0.086,0,0.171,0,0.256,0c0,0.043,0,0.085,0,0.128
	C98.477,0.634,98.577,0.689,98.444,0.586z M96.403,1.608c0.045,0.038,0.255,0.067,0.128,0.255C96.389,1.8,96.134,1.636,96.403,1.608
	z M129.198,2.118c0.104,0.13,0.045,0.035,0.128,0.255c-0.043,0-0.085,0-0.128,0C129.198,2.288,129.198,2.203,129.198,2.118z
	 M95.638,2.501c0.261,0.292,0.181,0.316,0,0.766c-0.085,0-0.171,0-0.256,0c0-0.085,0-0.17,0-0.255
	C95.484,2.886,95.566,2.661,95.638,2.501z M95.255,3.394c0.085,0,0.17,0,0.255,0c-0.085,0.256-0.17,0.511-0.255,0.766
	c-0.042,0-0.086,0-0.128,0c0-0.127,0-0.255,0-0.383C95.223,3.64,95.203,3.656,95.255,3.394z M126.519,6.712
	c0.724,0.205,0.967-0.205,1.276,0.511c-0.667,0.441-1.476,1.377-1.915,2.042c-0.041,0-0.085,0-0.126,0
	c-0.12-0.408-0.224-0.446-0.256-1.021C125.876,7.754,126.146,7.187,126.519,6.712z M94.361,7.095c0.138,0.221,0.132,0.29,0,0.511
	C94.361,7.436,94.361,7.265,94.361,7.095z M94.105,11.561c0.086,0,0.171,0,0.256,0c-0.043,0.042-0.085,0.085-0.128,0.128
	c0,0.042,0,0.084,0,0.127C94.131,11.686,94.188,11.781,94.105,11.561z M88.363,21.132c-0.17,0-0.34,0-0.51,0
	c0-0.043,0-0.085,0-0.128c0.042,0,0.085,0,0.127,0c0.119-0.116,0.224-0.169,0.383-0.255C88.363,20.876,88.363,21.004,88.363,21.132z
	 M124.222,25.343c-0.171,0-0.34,0-0.511,0c-0.347,0.506-0.616,0.496-0.639,1.404c-0.192,0.303-0.11,0.715-0.126,1.021
	c-0.384,0-0.767,0-1.148,0c-0.25-0.428-0.533-0.95-0.895-1.276c-0.038-1.141,0.034-2.055,0.511-2.68
	c0.285-0.239,1.588-0.963,1.786-0.766C123.683,23.394,124.173,24.616,124.222,25.343z M86.194,23.173c0.214,0,0.425,0,0.638,0
	c0.084,0.16,0.139,0.264,0.255,0.383c-0.189,0.522-0.486,0.85-0.638,1.531c-0.084,0-0.17,0-0.255,0
	C86.194,24.449,86.194,23.812,86.194,23.173z M124.222,23.556c0.096,0.137,0.076,0.121,0.128,0.383c-0.043,0-0.085,0-0.128,0
	C124.222,23.812,124.222,23.684,124.222,23.556z M116.947,29.809c0.086,0,0.171,0,0.256,0c-0.042,0.127-0.085,0.255-0.128,0.383
	c-0.084,0-0.17,0-0.255,0C116.862,30.064,116.905,29.937,116.947,29.809z M116.82,31.596c0.11,0.24,0.061,0.094,0,0.382
	c-0.043,0-0.085,0-0.128,0C116.735,31.851,116.777,31.723,116.82,31.596z M124.732,33.254c0.085,0,0.169,0,0.255,0
	c0,0.086,0,0.171,0,0.256c-0.086,0-0.17,0-0.255,0C124.732,33.425,124.732,33.34,124.732,33.254z M118.606,34.53
	c0.28,0.241,0.267,0.476,0.256,1.021c-1.183,0.828-0.085,1.148-0.511,2.17c-0.126,0.304-0.689,0.817-0.894,1.148
	c-0.042,0-0.084,0-0.126,0c0-0.085,0-0.17,0-0.256c-0.291-0.305-0.37-0.678-0.385-1.275C117.632,36.472,118.07,35.528,118.606,34.53
	z M122.18,34.914c0.265,0.047,0.246,0.03,0.383,0.127c-0.099,0.136-0.19,0.472-0.256,0.638
	C121.932,35.299,121.989,35.324,122.18,34.914z M115.417,35.679c0.255,0.085,0.511,0.171,0.766,0.255c0,0.044,0,0.086,0,0.128
	c-0.128,0-0.255,0-0.384,0C115.602,35.871,115.565,35.963,115.417,35.679z M120.903,38.486c-0.169,0-0.34,0-0.51,0
	c-0.085,0.255-0.17,0.511-0.255,0.767c-0.043,0-0.086,0-0.129,0c0-0.214,0-0.426,0-0.64c0.521-0.531,0.289-2.88,1.404-2.424
	c0.097,0.137,0.077,0.12,0.128,0.383C121.103,37.019,120.903,37.588,120.903,38.486z M115.033,37.083
	c0.208,0.172,0.144,0.081,0.256,0.383c-0.086,0-0.17,0-0.256,0C115.033,37.338,115.033,37.211,115.033,37.083z M116.055,37.466
	c0.036,0.045,0.255,0.176,0.128,0.383C115.862,37.603,116.17,37.661,116.055,37.466z M114.396,46.908c0-0.17,0-0.341,0-0.511
	c-0.342-0.124-0.22-0.163-0.639-0.255c-0.085,0.255-0.17,0.511-0.256,0.766c-0.042,0-0.084,0-0.127,0c0-0.298,0-0.595,0-0.894
	c0.294-0.251,0.458-0.521,0.639-0.893c0.357,0.052,0.362,0.156,0.637,0c0.255-0.449-0.002-0.878-0.126-1.276
	c0.26-0.598,0.802-1.522,1.02-2.169c0.184-0.544-0.01-1.012,0.255-1.404c0.032,0.562,0.3,0.587,0.256,1.021
	c-0.05,0.485-0.537,1.706-0.256,2.552c0.184,0.552,0.783,0.861,1.021,1.403c-0.598,0.43-1.312,1.108-1.658,1.788
	C114.906,46.993,114.65,46.951,114.396,46.908z M118.352,41.294c0.299,0,0.595,0,0.894,0c0,0.084,0,0.171,0,0.255
	c-0.3,0.252-0.415,0.701-0.511,1.148c-0.34,0.17-0.681,0.34-1.021,0.51c0-0.042,0-0.084,0-0.127c-0.043,0-0.086,0-0.128,0
	C117.841,42.484,118.097,41.889,118.352,41.294z M122.18,42.06c0.256,0,0.511,0,0.767,0c0.042,0.256,0.085,0.512,0.126,0.766
	c-0.514-0.124-0.352-0.265-0.893-0.383C122.18,42.315,122.18,42.187,122.18,42.06z M120.394,43.335
	c0.103,0.131,0.046,0.036,0.128,0.255c-0.042,0-0.086,0-0.128,0C120.394,43.506,120.394,43.42,120.394,43.335z M102.018,44.612
	c0.086,0,0.171,0,0.256,0C102.121,44.817,102.22,44.768,102.018,44.612z M111.206,48.186c0.044,0.038,0.255,0.064,0.127,0.254
	C111.191,48.378,110.936,48.213,111.206,48.186z M113.375,49.205c0.414,0.105,0.194-0.062,0.383,0.256
	c-0.043,0.042-0.085,0.084-0.128,0.127c-0.224-0.08-0.123-0.024-0.255-0.127c-0.096-0.137-0.077-0.121-0.128-0.383
	c-0.127,0-0.255,0-0.382,0c0-0.256,0-0.511,0-0.767c0.17-0.041,0.339-0.085,0.51-0.126
	C113.375,48.525,113.375,48.865,113.375,49.205z M126.264,48.95c0.265,0.048,0.245,0.03,0.383,0.128c-0.086,0-0.17,0-0.256,0
	c-0.254,0.277-0.424,0.426-0.893,0.51c0-0.043,0-0.085,0-0.127c0.042,0,0.085,0,0.127,0
	C125.818,49.191,126.022,49.158,126.264,48.95z M150.126,54.947c0.085,0,0.17,0,0.255,0c0,0.043,0,0.086,0,0.128
	C150.157,54.995,150.258,55.051,150.126,54.947z M127.923,68.092c0.044,0.037,0.255,0.066,0.127,0.255
	C127.908,68.284,127.652,68.12,127.923,68.092z"/>
</svg>
