<?xml version="1.0" encoding="utf-8"?>
<!-- Generator: Adobe Illustrator 22.1.0, SVG Export Plug-In . SVG Version: 6.00 Build 0)  -->
<svg version="1.1" id="Layer_1" xmlns="http://www.w3.org/2000/svg" xmlns:xlink="http://www.w3.org/1999/xlink" x="0px" y="0px"
	 viewBox="0 0 153 64" style="enable-background:new 0 0 153 64;" xml:space="preserve">
<style type="text/css">
	.st0{fill:#BAC9CF;}
</style>
<title>Group</title>
<desc>Created with Sketch.</desc>
<g>
	<path class="st0" d="M85.2,65.8c0.6,0.6,1.2,1.1,1.9,1.7c0.4-0.7,0.8-1.3,1.2-2c-0.2-0.1-0.4-0.2-0.5-0.2c0.1-0.6,0.2-1.2,0.3-1.7
		c0.4-0.2,0.7-0.3,1.1-0.5c0-0.5,0-1.1,0.1-1.6c-0.3-0.6-0.7-1.1-1-1.7c0.2,0.1,0.4,0.1,0.6,0.2c0-0.3,0-0.6,0-0.9
		c-0.2,0-0.3,0.1-0.5,0.1c0-0.5,0-1.1,0.1-1.6c-0.2-0.4-0.4-0.9-0.5-1.3c0.2,0,0.3,0.1,0.5,0.1c0.4,0.9,0.7,1.8,1.1,2.6
		c0,0.2,0.1,0.5,0.1,0.7c0.7,0.6,1.4,1.2,2.2,1.7c0.2,0.4,0.4,0.7,0.5,1.1c0.4-0.3,0.8-0.6,1.2-0.9c0.4,0,0.8-0.1,1.3-0.1
		c0.1-0.2,0.2-0.5,0.3-0.7c-0.4,0.1-0.7,0.2-1.1,0.2c-0.1-0.1-0.2-0.2-0.3-0.3c0.6-0.4,1.1-0.9,1.7-1.3c-0.2-0.3-0.3-0.7-0.5-1
		c-0.4-0.1-0.8-0.1-1.2-0.2c-0.2-0.2-0.5-0.4-0.7-0.6c-0.6-0.2-1.1-0.3-1.7-0.5c-0.1-0.2-0.2-0.3-0.2-0.5c0.7,0,1.3,0,2-0.1
		c-0.4-0.4-0.9-0.7-1.3-1.1c0.5,0,1,0.1,1.5,0.1c0.1,0.2,0.3,0.5,0.4,0.7c0.4-0.1,0.8-0.3,1.1-0.4c0.1,0.4,0.3,0.9,0.4,1.3
		c0.3,0,0.7,0,1,0c0.2-0.4,0.4-0.8,0.6-1.2c0.4,0.5,0.8,1,1.2,1.5c0.7-0.4,1.4-0.8,2.1-1.2c-0.1-0.4-0.2-0.7-0.3-1.1
		c-0.6-0.3-1.2-0.6-1.8-0.9c0.2,0,0.4-0.1,0.7-0.1c0.5-0.6,0.9-1.2,1.4-1.8c0.4,0,0.7-0.1,1.1-0.1c-0.4,0.4-0.8,0.7-1.2,1.1
		c-0.2,0.4-0.4,0.8-0.6,1.1c0.2,0,0.5,0,0.7,0.1c0.3,0.4,0.5,0.7,0.8,1.1c0.4-0.2,0.8-0.4,1.2-0.6c0.7-0.1,1.5-0.2,2.2-0.3
		c-0.1-0.3-0.1-0.5-0.2-0.8c0.3,0,0.6-0.1,0.8-0.1c0.5-0.3,1-0.6,1.4-0.9c0-0.4,0-0.9,0-1.3c-0.5-0.7-1.1-1.3-1.6-2
		c0.2-0.1,0.4-0.1,0.6-0.2c0.2,0.3,0.3,0.6,0.5,0.8c0.3,0.2,0.6,0.5,0.9,0.7c0.4,0,0.7,0,1.1-0.1c0.5-0.3,1-0.5,1.5-0.8
		c0.1-0.4,0.1-0.7,0.2-1.1c0.8-0.3,1.7-0.7,2.5-1c-0.2-0.3-0.5-0.6-0.7-1c0.3-0.5,0.6-1,0.8-1.5c0.5-0.2,1-0.3,1.5-0.5
		c0.3,0.1,0.6,0.2,0.9,0.4c0.4,0,0.8,0,1.2,0c0.2-0.4,0.4-0.8,0.5-1.2c1-0.6,1.9-1.3,2.9-1.9c0-0.6,0-1.2-0.1-1.9
		c-0.5-0.3-1.1-0.7-1.6-1c0.1-0.4,0.3-0.8,0.4-1.2c0,0.3,0.1,0.5,0.1,0.8c0.4,0,0.8,0,1.2,0.1c0.2-0.2,0.5-0.3,0.7-0.5
		c0.4-1.2,0.8-2.3,1.2-3.5c1.3-1.5,2.5-3,3.8-4.6c0.9-0.7,1.7-1.5,2.6-2.2c1.3-0.6,2.6-1.2,3.9-1.8c-7-7.2-14-14.4-21.1-21.5H89
		c0.1-0.9,0.3-1.9,0.4-2.8c-0.9-1.3-1.8-2.5-2.7-3.8c-0.7,0.4-1.5,0.8-2.2,1.2c0.1-0.8,0.2-1.5,0.3-2.3c-8.4-0.3-16.9-0.6-25.3-0.8
		c-1.9,0.4-3.8,0.9-5.7,1.3c-0.4,0.5-0.9,1-1.3,1.4c-0.2-0.2-0.5-0.3-0.7-0.5c-2,0.7-4,1.3-6,2v1.3c-0.4,0.2-0.9,0.5-1.3,0.7
		c-0.9,0.9-1.8,1.8-2.7,2.7c-0.2,0.7-0.3,1.3-0.5,2c0.7,0.7,1.5,1.5,2.2,2.2H44c1,0.9,2,1.9,3,2.8c1,0.1,2,0.1,3,0.2
		c0.8,1.6,1.6,3.1,2.4,4.7c0.1,0.7,0.2,1.4,0.3,2.1c0.5,0.6,1.1,1.1,1.6,1.7c0.1,0.3,0.2,0.6,0.2,0.9c0.3,0.3,0.6,0.5,1,0.8
		c0.1,0.6,0.3,1.2,0.4,1.9c0.3,0,0.6,0.1,0.9,0.1c0.4,0.6,0.9,1.1,1.3,1.7c1.1,0.5,2.2,1.1,3.3,1.6c0.5,1.3,1,2.6,1.4,3.9
		c1.2,0.6,2.3,1.2,3.5,1.8c0.1,0.4,0.2,0.7,0.3,1.1c0.5,0.4,0.9,0.8,1.4,1.3c-0.1,0.7-0.3,1.4-0.4,2.1c0.6,0.4,1.2,0.8,1.8,1.2
		c0.2,0.7,0.4,1.3,0.6,2c0.3,0,0.6-0.1,0.9-0.1c0,0.4,0.1,0.8,0.1,1.1c1.7,1.1,3.4,2.3,5.1,3.4c-0.2,0.4-0.4,0.8-0.5,1.2
		c0.7,1.6,1.3,3.1,2,4.7c0,1,0,2.1,0,3.1c0.8,0.3,1.5,0.7,2.3,1c0.7,0.8,1.4,1.6,2,2.4c-0.2,0.2-0.4,0.4-0.5,0.7
		c0.3,0.7,0.7,1.4,1,2.2c0.2,0,0.4-0.1,0.6-0.1c0,0.3,0.1,0.7,0.1,1c0,1.5,0.1,3,0.1,4.5C83.8,66.2,84.5,66,85.2,65.8L85.2,65.8z"/>
	<polygon class="st0" points="88.8,63.4 90.1,62.4 91.3,63.4 90,65.1 89.4,65.2 89.4,63.9 89.1,63.6 	"/>
</g>
</svg>
