<?xml version="1.0" encoding="utf-8"?>
<!-- Generator: Adobe Illustrator 21.1.0, SVG Export Plug-In . SVG Version: 6.00 Build 0)  -->
<svg version="1.1" id="Layer_1" xmlns="http://www.w3.org/2000/svg" xmlns:xlink="http://www.w3.org/1999/xlink" x="0px" y="0px"
	 viewBox="0 0 153 64" style="enable-background:new 0 0 153 64;" xml:space="preserve">
<style type="text/css">
	.st0{fill:#BAC9CF;}
</style>
<title>Group</title>
<desc>Created with Sketch.</desc>
<path class="st0" d="M72.8,56.1c0.2-0.1,0.1-0.3-0.1-0.3C72.5,55.9,72.7,56.1,72.8,56.1L72.8,56.1z"/>
<path class="st0" d="M72.5,55.9c0.1-0.1,0.3-0.2,0.1-0.3C72.4,55.6,72.3,55.8,72.5,55.9L72.5,55.9z"/>
<path class="st0" d="M72.7,57c0,0.1,0.1,0.2,0.2,0.1C72.9,56.9,72.8,56.9,72.7,57L72.7,57z"/>
<path class="st0" d="M73.8,54.2c0.1,0,0.2,0,0.4-0.1C74.2,54,73.8,54,73.8,54.2C73.8,54.1,73.8,54.1,73.8,54.2L73.8,54.2z"/>
<path class="st0" d="M72.8,53.8c0.1,0,0.2,0,0.3,0c0-0.2-0.4-0.2-0.4-0.1C72.7,53.7,72.7,53.7,72.8,53.8L72.8,53.8z"/>
<g>
	<path class="st0" d="M43.8,24.5c0.1-0.3,0.5-0.5,0.6-0.8c0.2-0.3,0.5-0.5,0.7-0.8c0.2-0.2,0.1-0.1,0.3-0.3c0.1,0,0.2,0,0.2,0
		c0.1,0,0.1-0.2,0.2-0.3c0.2-0.2,0.3-0.6,0.5-0.7c0,0.2,0.1,0.3,0.1,0.5c0.2,0.1,0.5-0.1,0.7-0.1c0.1,0,0.2,0.1,0.4,0
		c0.2,0,0.4-0.1,0.5-0.2h0c0.2,0,0.4-0.3,0.6-0.4c0.2-0.2,0.5-0.2,0.7-0.3c0.6-0.1,0.6-0.7,1.1-0.9c0.4-0.2,0.9,0,1.4-0.2
		c0.5-0.2,0.9-0.5,1.4-0.7h0c0.5,0.1,1.2-0.7,1.4-1.1c0.2-0.3,0.2-0.5,0.2-0.8c0-0.3,0-0.4,0.4-0.5c-0.1-0.5,0.2-0.5,0.5-0.8
		c0.1-0.1,0.5-0.4,0.4-0.5c0-0.2-0.3-0.1-0.4-0.3c-0.1-0.1,0-0.4-0.1-0.5c0-0.2-0.1-0.3-0.1-0.5c0-0.2,0.5-1,0.7-0.6l-0.1-0.1
		c0-0.5,0.2-0.5,0.4-0.6c0.2-0.2,0.3-0.7,0.6-0.7c0,0.2-0.1,0.3,0,0.5c0,0.1,0.2,0.4,0.3,0.5c0.2,0.3,0.3,0.9,0.6,1.1
		c0.2-0.3,0.1-0.7,0.2-1c0.1,0,0.2,0.2,0.4,0.2c0.1-0.2-0.3-0.7-0.5-0.8c-0.1-0.1-0.5-0.1-0.4-0.3c0.1-0.1,0.4,0,0.5-0.1
		c-0.2-0.1-0.4-0.6,0-0.5c0.3,0,0.2,0.4,0.4,0.5c0.1-0.1,0-0.3,0-0.4c0.1,0,0.2,0.1,0.3,0.2c0,0,0.4,0.2,0.4,0.2
		c0.4,0,0.1-0.8,0.4-0.6c0.1-0.2,0.4-0.5,0.3-0.7c-0.1,0.1-0.2,0.3-0.4,0.3c-0.1-0.2-0.1-0.2-0.2-0.4c-0.1-0.3,0.1-0.3,0.3-0.4
		c0.1,0,0.1,0,0.2-0.1c0.1,0,0-0.2,0.1-0.2c0.3-0.2,0.2,0.1,0.4,0.1c0.6,0-0.1-0.3-0.1-0.5c0-0.5,0.6-0.1,0.9-0.2
		c-0.3-0.1-0.2-0.3-0.2-0.5c-0.1-0.2-0.3-0.4,0-0.5l0.1,0c0.4-0.2,0.4,0,0.5-0.4c0.1-0.1,0-0.3,0.2-0.3c0.2,0,0.2,0.1,0.1,0.3
		c0.3-0.1,0.2,0.2,0.4,0.4c0.1-0.1,0.2-0.2,0.3-0.2C62.5,7.6,63,7.7,63,7.4c0-0.3-0.5-0.1-0.4-0.4C62.7,6.5,63,7.2,63,7.3
		C63.3,7.4,63.3,7,63.6,7c0,0.2-0.2,0.5,0.2,0.4C64,7.3,64,6.9,64.3,6.9c-0.2-0.2-0.2-0.5,0.1-0.4c0.1,0,0.2,0.2,0.3,0.3
		c0.1,0.1,0.2-0.1,0.3,0c0.3,0.1,0.8,0.9,1.1,0.9l0-0.1c0,0.2,0.3,0.3,0.4,0.4c0.1,0.1,0.2,0.1,0.3,0.2c0.1,0,0.2,0.1,0.3,0.1
		c-0.2,0.1-0.4,1.1-0.2,1.3c0,0,0-0.3,0-0.3c0.1-0.1,0.2,0.1,0.3,0.1c0-0.1-0.1-0.2-0.1-0.4c0-0.1,0.1-0.4,0.2-0.2
		c0-0.1,0-0.1,0-0.2c0,0,0,0,0.1,0.1c0,0,0,0,0-0.1c0.1,0.1,0.2,0,0.1-0.1c-0.1-0.1-0.3-0.1-0.1-0.2c0.2-0.1,0.6-0.1,0.7,0.1h0
		c0.3,0,0.7,0.1,0.8,0.3c0,0.1,0.1,0.4,0.2,0.1c0-0.1,0-0.4-0.1-0.5c0.1,0,0.2,0,0.2,0.1c0,0,0.1,0.1,0.1,0.1c0,0,0.1,0,0.1,0
		c0.1,0,0.1,0.2,0.2,0.3c0,0,0.1,0.2,0.1,0.2c0,0,0,0,0-0.1c0.3,0,0-0.3,0-0.5c0-0.1,0.1-0.1,0.2-0.1c0.1,0,0.3,0,0.2-0.1
		c-0.3,0-0.4-0.1-0.5-0.3c0.1-0.1,0.2-0.1,0.3-0.2c-0.1-0.1-0.3,0.1-0.5,0c-0.1,0-0.1-0.1-0.2-0.2c-0.1-0.1-0.1,0-0.1-0.2
		c0,0,0.1-0.2,0.1-0.2c0-0.1,0.1-0.1,0.1-0.2c0-0.2,0-0.3,0.2-0.2c0.1-0.1,0.2,0,0.3-0.2c0-0.1,0-0.1,0-0.2c0-0.1,0.1-0.1,0.2-0.2
		L70,6.2c0-0.2,0-0.6,0.2-0.5c0.1,0,0.1,0.1,0.3,0.1c0,0,0.1-0.1,0.1-0.1c0,0,0.1-0.1,0.1-0.1C70.8,5.4,71,5.4,71,5.3
		c0-0.1-0.2-0.2-0.3-0.3c-0.1-0.1-0.1-0.1-0.1-0.3c0-0.1,0-0.3,0.1-0.3c0.1,0.2,0.3-0.1,0.3-0.2c0-0.1,0-0.2,0-0.2
		c0-0.1,0.1,0,0.1-0.2c0.1,0,0.3,0.2,0.3,0c0,0,0-0.1,0-0.1c0,0,0-0.1,0-0.1c0-0.1,0-0.1,0-0.2v0c0.1,0,0.2,0,0.2,0
		c0.1,0,0.2,0.2,0.2,0.3c0,0,0,0,0.1,0c0,0.1,0,0.1,0.1,0.2c0,0,0.1-0.1,0.1-0.1c0-0.1-0.1-0.1-0.1-0.1c0.1,0,0.2-0.1,0.1-0.1
		c0-0.1,0-0.1,0-0.1c0,0.1-0.1,0.1-0.1,0.1c-0.1-0.2,0.2-0.2,0.3-0.2c0-0.1-0.1-0.6,0.1-0.4c0.1-0.1,0.2,0,0.3,0.1
		C72.9,3,72.9,2.8,73,2.7c0.2,0.1,0,0.4,0.3,0.5c0.2,0,0.6,0.1,0.7-0.1l0.1,0c0.2-0.2,0.3,0.1,0.5,0.1c0.2,0,0.3-0.3,0.5-0.1
		c0.1-0.2,0.1,0,0.2,0c0.1,0,0.2-0.1,0.2-0.2c0.1-0.1,0.3-0.2,0.3-0.3c0-0.2,0-0.3-0.2-0.4c-0.1-0.1-0.2,0-0.2-0.2
		c0,0,0.1-0.2,0.1-0.2v0c-0.2-0.1-0.3-0.2-0.5-0.1c-0.2,0.1-0.3,0.2-0.5,0.2c0-0.1,0-0.1,0-0.2c-0.1,0-0.3-0.1-0.2-0.2
		C74.2,1.3,74,1.1,74,1c0,0,0.1,0,0.1,0c0,0,0,0,0-0.1C74.2,1,74.2,1,74.3,1c0-0.1,0-0.1,0-0.2C74.4,1,74.6,1,74.6,1.2c0,0,0,0,0,0
		c0,0.1,0,0.2,0.1,0.3c0,0,0-0.1,0-0.2c0-0.1,0,0,0-0.2c0-0.1-0.1-0.2-0.1-0.3c0.1,0,0.2,0.2,0.3,0.3c0-0.1,0-0.2,0.1-0.3
		c0.1,0.1,0.1,0.3,0.1,0.3c0,0,0-0.1,0-0.1c0.1,0.1,0.1,0.2,0.2,0.2c0.1-0.2,0-0.2-0.1-0.4c0.1,0,0.1-0.1,0-0.2
		c0.1,0,0.1-0.1,0.1-0.1c0.1,0.1,0.2,0.3,0.1,0.4c0.1,0.1,0,0.2,0.1,0.3c0,0.1,0,0.3,0.1,0.3c0.1,0.1,0.2,0,0.3-0.1
		c0.1,0,0.3,0,0.2-0.2c0.2-0.1,0.4,0.2,0.4,0.4v0C76.6,1.8,76.7,2,76.8,2c0.1,0,0.2-0.1,0.3,0c0,0,0,0.1-0.1,0.1c0.1,0,0.2,0,0.2,0
		c0,0.1,0.1,0.1,0.2,0c0,0,0,0.1-0.1,0.1c0.1-0.1,0.3-0.1,0.4-0.1C78,2,78.1,2,78.3,2.1c-0.1,0.1-0.3,0.2-0.1,0.3
		c0.1,0.1,0.2,0,0.3-0.1c0,0.1,0.1,0.1,0.2,0.1c0,0,0,0.1,0.1,0.2c0.2,0.2,0.1-0.2,0.3,0c0.2,0.2,0.4,0.2,0.6,0
		c0.1-0.1,0.2-0.2,0.3-0.1c0,0,0.1,0.2,0.2,0.2c0,0,0,0.1,0.1,0.1c0,0,0.1,0,0.1,0c0,0,0,0.1,0.1,0.2c0.1,0,0.1,0,0.2,0
		c0.1,0,0.2,0.1,0.3,0.1c0.3,0,0-0.1,0-0.2c0-0.1,0.2-0.2,0.3-0.2c0.1,0,0.2,0.1,0.3,0c0,0.1,0.1,0.1,0.1,0v0
		c-0.3-0.2,0.1-0.3,0.2-0.3c0.1,0,0.2,0,0.3-0.2c0,0,0.1-0.3,0.2-0.1c0.1,0.1-0.2,0.2-0.2,0.3c-0.1,0.1-0.1,0.2-0.1,0.3
		c-0.1,0.1-0.5,0.3-0.1,0.5C82,3,82.3,2.8,82.5,2.8c0,0-0.2,0.2-0.2,0.3c0,0.1,0.2-0.1,0.2,0.1c0,0.1-0.2,0.2-0.2,0.3
		c0,0.1,0.1,0.1,0.1,0.2c0.2-0.2,0.1-0.1,0.3-0.1c0.1,0,0.2,0,0.3-0.1c0,0,0.1-0.3,0.1-0.3c-0.1-0.1-0.4,0.1-0.4-0.2
		c0.1,0,0.2-0.1,0.3-0.2c0,0,0.1,0,0.1,0c0,0,0.1-0.1,0.1-0.1c0.1,0,0,0,0.1,0c-0.1,0,0.2,0.2,0.1,0.1c0,0,0.1,0,0.1,0
		c0,0,0,0.1,0.1,0.2v0c0,0.2,0.2,0.6,0.3,0.2c0,0-0.1,0-0.1,0c0,0,0,0,0,0c0.2,0,0.3,0,0.4,0.2c0.1,0.2-0.1,0.3-0.2,0.4
		C84,3.7,83.9,3.9,83.8,4c0,0-0.1,0-0.1,0c0,0,0,0.1,0,0.2c-0.1,0.1-0.1,0.1-0.2,0c0,0.1-0.1,0.1-0.1,0.1c0,0.2,0.2,0.1,0.3,0.2
		c0.1,0.2-0.1,0.2-0.2,0.1c0.2,0.1,0.2,0.2,0,0.3c0,0.1-0.1,0.1-0.1,0.2c0,0-0.1,0.1-0.1,0.1C83,5.3,83,5.2,83.1,5
		c0-0.1,0.1-0.3,0-0.3c-0.1,0.1-0.1,0.4-0.2,0.3c0,0.1-0.1,0.2-0.2,0.1c-0.1,0,0-0.1,0-0.2c-0.1,0.1-0.2,0.2-0.2,0.4
		c0,0-0.1-0.1-0.1-0.2c0,0,0,0.1-0.1,0.1c-0.1-0.1-0.2-0.1-0.2,0c0,0.1,0.1,0.2,0.1,0.2c-0.1,0-0.1,0-0.2,0.1c0,0,0,0.2,0,0.2
		c0,0,0.1,0.2,0.1,0.2c0,0.1,0,0.2,0.1,0.1C82.4,6,82.6,5.6,82.5,6c0,0.1-0.2,0.4-0.2,0.4l0,0.1c0,0.2-0.1,0.3-0.1,0.5
		c-0.2,0-0.3,0.2-0.3,0.3c-0.1,0.2-0.2,0.2-0.3,0.3c0,0.1-0.1,0.1-0.1,0.2c0,0.1-0.1,0.1-0.1,0.2c-0.1,0.1-0.1,0.3-0.1,0.5
		c0.1,0.2,0.2,0.2,0.4,0.2c0.1,0.1,0.3,0.2,0.4,0.3c0.2,0.1,0.3,0.3,0.5,0.4c0.2,0.1,0.3,0.1,0.4,0.3c0.2,0.3,0.8,0.4,0.8,0.8
		c0.1-0.1,0.2,0,0.3,0c0.1,0,0.2-0.1,0.3,0h0c0,0.1,0.1,0.1,0.2,0.2h0c0.1,0.1,0.3,0.2,0.4,0.3c0.1,0.1,0.3,0.2,0.4,0.2
		c0.4,0.1,0.6,0.4,0.8,0.7c0.2,0.2,0.5,0.5,0.9,0.5c0.1,0,0.3,0,0.4,0.1c0.2,0.1,0.3,0.2,0.5,0.2h0c0.1,0,0.3,0.2,0.4,0.3
		c0.1,0.1,0,0.3,0.1,0.4c0.1,0.2,0.2,0.3,0.4,0.4c0.2,0.1,0.3,0.2,0.5,0.3c0.3,0.1,0.7,0.4,1,0.4c0.4,0,0.8-0.1,1.1-0.4
		c0.2-0.2,0.3-0.4,0.3-0.6c0-0.3,0.1-0.4,0.3-0.6l0,0c0-0.2,0.3-0.4,0.4-0.6c0.1-0.2,0-0.3,0.1-0.5c0.1-0.2,0.3-0.3,0.3-0.6
		c0-0.1-0.1-0.2-0.1-0.3c0-0.1,0.1-0.2,0.1-0.3l0,0c0-0.6,0.6-1,0.5-1.5c0-0.2-0.1-0.5-0.1-0.8c0-0.3,0.2-0.5,0.2-0.8l0,0
		c0-0.2-0.1-0.3-0.2-0.4c-0.1-0.2-0.1-0.2,0-0.5c0-0.2,0.3-0.8,0.5-0.5c0-0.1,0-0.2,0-0.3c0-0.1,0.1-0.2,0-0.3l0,0
		c0-0.2-0.1-0.3,0-0.5c0.1-0.1,0.3-0.4,0.4-0.5c0,0.1,0.1,0.1,0.2,0.2c0-0.1,0-0.2-0.1-0.3c0,0,0.1,0,0.1,0c0,0-0.3-0.1-0.3-0.1
		c-0.2,0-0.2,0-0.4,0.1C93.6,4,93.9,3.4,94,3.3c0-0.1,0.1-0.3,0.2-0.4c0.1,0.1,0,0.2,0.1,0.3c0.1-0.1,0.1,0,0.2,0
		c-0.1-0.3-0.2-0.3,0-0.6c0.1-0.2,0.2-0.4,0.2-0.7l0,0c0-0.2,0.2-0.4,0.2-0.7c0-0.4,0.2-0.3,0.4-0.4c0.1,0,0.5-0.5,0.5-0.1
		c0,0.1-0.3,0.5-0.4,0.5c0.1-0.1,0.3-0.2,0.4-0.2c0,0,0,0.1,0,0.1c0,0,0,0,0.1,0c0,0,0,0.1,0,0.1c0,0,0.1,0,0.1-0.1
		c0.2,0.1,0.1,0.3,0.2,0.5c0,0.2,0.2,0.3,0.2,0.5c0,0-0.1,0.2-0.1,0.3c0,0.1,0,0.2,0,0.3c0,0.2-0.1,0.3,0.1,0.4
		c0.1,0.1,0.4-0.1,0.5,0.1c0.1,0.1-0.1,0.4-0.2,0.5c-0.1,0.2-0.1,0.3,0.1,0.4C96.9,4.1,97,4,97,4.3v0.1c0.3,0,0.3,0.1,0.2,0.3
		c-0.1,0.1-0.2,0.5,0,0.4c0,0,0,0,0-0.1c0.1,0,0.2,0,0.3-0.1c0.1,0.2,0,0.6,0,0.8c0,0.1,0,0.1,0,0.2c0,0.1,0.1,0.1,0.1,0.2
		c0,0.1-0.1,0.3-0.1,0.4c-0.1,0.3,0.1,0.5,0.2,0.8c0.1,0.3,0,0.6,0.3,0.9c0.3,0.3,0.6,0.1,0.7-0.2c0.1,0,0.2,0.1,0.3,0.1
		C99,8,99,7.8,99.1,7.8c0.2-0.1,0.2,0.2,0.2,0.3c0,0,0.1,0,0.1,0c-0.1,0.2-0.1,0.2,0.1,0.4c0.1,0.1,0.3,0.1,0.4,0.2
		c0.1,0.1,0.1,0.3,0.3,0.4c0.1,0.1,0.3,0,0.4,0.1l0,0.1v0.1h0c0.1,0,0.1,0.1,0.2,0c0,0.2-0.2,0.3-0.2,0.5c0.3-0.1,0.1,0.2,0.1,0.2
		c-0.1,0.2-0.1,0.2,0,0.4c0,0.1,0.1,0.3,0.1,0.4c0,0.1-0.1,0.1-0.1,0.2c0,0.1,0.1,0.1,0.1,0.2c0,0.2,0,0.3,0,0.4
		c0,0.1,0.1,0.2,0.1,0.2c0,0.1-0.1,0.1-0.1,0.1c0,0.2,0.2,0.4,0.3,0.6c0.1,0.2,0.1,0.4,0.3,0.5c0.1,0,0.3-0.1,0.4,0.1
		c0,0.1-0.1,0.1-0.1,0.2c0,0.1,0,0.1,0.1,0.2c0.1,0.3,0.2,0.6,0.2,0.8c0,0.2,0,0.5,0,0.8c-0.1,0.2-0.5,0.6-0.2,0.8l0,0
		c0,0.1,0,0.3,0.2,0.3c0.1-0.2,0-0.3-0.1-0.4c0.1,0.1,0.2,0,0.3,0c-0.1,0.2,0,0.3,0,0.5c0,0,0,0.2,0,0.2c0,0.1-0.1,0.1-0.2,0.2
		c-0.2,0.4,0.2,0.7,0.5,0.9c0.1,0.1,0.3,0.2,0.4,0.3c0.1,0.1,0.1,0.1,0.2,0.1c0.1,0,0.1-0.2,0.2-0.2c0.1,0,0.1,0.3,0.3,0.4
		c0.1,0.1,0.3,0.1,0.4,0.1c0-0.1,0-0.2,0-0.2c0.2-0.1,0.3,0.6,0.3,0.8l0,0.1c0,0.1,0.2,0.3,0.3,0.3c0.2,0,0-0.2,0.1-0.2
		c0.3-0.2,0.2,0.4,0.3,0.4c0.1,0,0.1-0.1,0.2-0.1c0.1,0,0.1,0.1,0.2,0.1c0.1,0,0.3,0,0.3,0.1c0.1,0.1-0.1,0.2,0,0.3
		c0,0.1,0.2,0.3,0.3,0.3c0-0.3,0.1-0.1,0.3-0.1c0,0.2,0.3,0.2,0.2,0.4c0.1,0,0.1,0.1,0.1,0.1c0,0,0,0.1,0,0.1c0,0,0.1,0.1,0.1,0.1
		c0.1,0.3-0.2,0-0.3,0.1c-0.3,0-0.1,0.4,0,0.5c0.1,0.2,0.4,0.2,0.5,0.4l0,0.1c0.1,0.2,0.3,0.2,0.3,0.4c0,0.1-0.1,0.1-0.1,0.2
		c0,0.1,0.1,0.1,0.1,0.2c0.1,0.1-0.1,0.3,0,0.4c0,0.1,0.2,0.1,0.2,0.1c0,0.1,0,0.1,0,0.2c0,0.3-0.1,0.6,0,0.9
		c0.1,0.3,0.2,0.5,0.2,0.9c0-0.1,0.1-0.2,0.2-0.2c0.2,0.1,0.1,0.5,0.4,0.5h0c0-0.2-0.1-0.3-0.1-0.5c0-0.2,0.2-0.4,0.3-0.3
		c0.1,0.1,0.1,0.4,0.2,0.5c0.1,0.1,0.3,0.3,0.5,0.4c0-0.1,0-0.2,0-0.3c0-0.1-0.1-0.3-0.1-0.4c0.1-0.2,0.1,0.2,0.2,0.2
		c0.1,0.1,0.3,0.2,0.3,0.3c0,0.1-0.1,0.1-0.1,0.1c0,0.1,0,0.1,0.1,0.2c0,0.1,0.1,0.2,0.1,0.4c0,0.3-0.1,0.5-0.1,0.8l0,0
		c0,0.1,0,0.2,0,0.2c0.1,0.1,0.2,0.4,0,0.4c0.2,0.1,0.2,0,0.3,0c0.1,0,0-0.1,0.2-0.1c0,0,0.2,0.1,0.2,0.1c0.1,0.1,0.4,0.8,0.1,0.7
		c0.1,0.2,0.3,0.4,0.5,0.5c0-0.5,0.5,0.3,0.6,0.5c0.1,0.4,0.2,0.9,0.6,1l0,0c0.3,0.2,0.1,0.4,0.2,0.7c0.1,0.4,0.5,0.2,0.6,0.5
		c0.1,0.2-0.1,0.2-0.1,0.4c0,0.1,0,0.3,0,0.4c0,0.2,0.2,0.5,0.4,0.6c-0.2,0.3-0.3,0.6-0.3,0.9l0,0.1c0,0.1,0,0.3,0,0.4
		c0,0.1,0,0.1,0,0.2c0,0.1-0.1,0.1-0.1,0.2c0,0.1,0,0.1,0,0.2c0,0,0,0.1,0,0.1c0,0.1-0.1,0.1-0.1,0.1c-0.1,0.2,0,0.3,0,0.4
		c0,0.2,0.1,0.3,0.2,0.5c0,0.1,0,0.3,0,0.4c0,0.3,0,0.6,0.2,0.9c0.2,0.3,0.1,0.2,0,0.5c0,0.2,0,0.3,0,0.5l0,0.1
		c0,0.3-0.1,0.3-0.2,0.4c-0.1,0.1-0.1,0.1-0.1,0.2c0,0.1,0,0.1-0.1,0.2c-0.1,0.2-0.1,0.2-0.2,0.4c0,0.2-0.1,0.4-0.2,0.5
		c-0.1,0.2-0.2,0.3-0.2,0.5c-0.1,0.1,0,0.3-0.1,0.5c-0.1,0.3-0.5,0.6-0.5,1c0,0.1,0.1,0.1,0.1,0.2c0,0.1,0,0.1-0.1,0.2
		c0,0.1,0,0.2-0.1,0.3c0,0.1-0.1,0.1-0.2,0.2l0,0.1c0,0.2-0.1,0.3-0.2,0.5c-0.1,0.2,0,0.3-0.2,0.5c-0.2,0.2-0.6,0.6-0.6,0.9
		c0,0.2,0.1,0.4-0.2,0.5c-0.1,0-0.2,0-0.3,0.1c-0.1,0.1-0.1,0.1-0.2,0.2c-0.2,0.2-0.4,0.2-0.6,0.3c-0.3,0.1-0.4,0.3-0.5,0.5
		c-0.1,0.2-0.2,0.5-0.4,0.6c-0.1,0.1-0.2,0.1-0.2,0.2c-0.1,0.1,0,0.2-0.1,0.4v0c0,0.1-0.1,0.2-0.2,0.3c-0.1,0.1-0.1,0.2-0.2,0.3
		c-0.1,0.1-0.2,0.1-0.3,0.3c-0.1,0.1-0.1,0.2-0.2,0.3c-0.1,0.2-0.1,0.4-0.2,0.7c-0.1,0.2-0.1,0.1-0.1,0.3c0,0.1,0.1,0.2,0,0.3
		c-0.1-0.1-0.1-0.3-0.2-0.1c-0.2,0.2,0.1,0.1,0.1,0.3c0,0.1-0.3,0-0.4,0.1c-0.1,0.1-0.1,0.3-0.2,0.4c-0.1,0.1-0.2,0.1-0.2,0.2
		s0,0.2-0.1,0.2c-0.1,0.1-0.2,0.1-0.2,0.3c0,0,0,0.1,0,0.2c0,0.1-0.1,0.2-0.2,0.3c-0.1,0.1,0,0.3,0,0.5c-0.1,0.2-0.2,0.4-0.3,0.6
		c0,0.2-0.1,0.2-0.2,0.3c-0.1,0.1-0.1,0.2-0.1,0.3c0,0.1-0.1,0.2-0.1,0.3c0,0.2,0.1,0.2,0.1,0.3c0.1,0.2-0.1,0.4,0.1,0.7
		c-0.2,0.1-0.4,0.1-0.6,0.3c-0.2,0.2-0.5,0.2-0.8,0.2c-0.2,0-0.5-0.1-0.7-0.1c-0.3,0-0.5,0-0.7,0l-0.1,0.1c-0.8,0-1.7,0.5-2.2,1
		c-0.2,0.2-0.3,0.2-0.5,0.2c-0.1,0-0.2,0.1-0.3,0.1c-0.1,0-0.1-0.2-0.3-0.2c-0.2,0.1,0,0.4,0.1,0.4c0.1,0,0.1-0.2,0.2,0
		c0,0.1-0.1,0.2-0.1,0.3c0,0.1-0.1,0.3-0.2,0.2c0,0-0.1-0.2-0.1-0.3c-0.1-0.1-0.3-0.5-0.4-0.2c-0.1-0.1-0.3-0.8-0.4-0.5v0
		c-0.2-0.1-0.3-0.2-0.5-0.3c-0.1,0-0.4-0.1-0.2-0.3c0,0.1,0.1,0.1,0.2,0.1c0,0,0.2-0.2,0.2-0.2c0.1-0.2-0.1-0.5-0.3-0.3
		c-0.1,0.1-0.1,0.2-0.2,0.2c-0.1,0.1-0.2,0.1-0.3,0.1c-0.2,0-0.4-0.1-0.5-0.3c0.3,0,0.3,0.1,0.5-0.1c0.1-0.1,0.2-0.2,0.2-0.3
		c0-0.1-0.2-0.1-0.2-0.3c-0.1-0.1,0.1-0.2-0.1-0.2c-0.1,0-0.2,0.1-0.3,0.2c-0.1,0.1-0.5,0.1-0.5,0.3c0.1,0,0.6-0.1,0.6,0.1
		c0,0.3-0.5,0.3-0.7,0.3c-0.3,0.1-1.3,1.2-1.5,0.8h0c-0.1,0-0.3-0.1-0.4-0.2c-0.1-0.1-0.2-0.2-0.3-0.3c-0.1-0.1-0.3-0.1-0.4-0.2
		c-0.2-0.1-0.2-0.3-0.4-0.3c-0.1,0-0.3,0-0.4,0c-0.2,0-0.2-0.2-0.4-0.2c-0.1,0-0.3-0.1-0.4,0c-0.1,0.1-0.1,0.3-0.3,0.2
		c-0.1,0-0.1-0.1-0.2-0.1c-0.1-0.1-0.1,0-0.2-0.1c-0.1-0.1,0-0.3-0.2-0.4h0c-0.2-0.2-0.6-0.1-0.9-0.3c-0.3-0.2-0.4-0.5-0.5-0.8
		c-0.1-0.1-0.1-0.3-0.2-0.4c-0.2-0.1-0.4-0.2-0.4-0.4c0-0.2,0.1-0.3,0-0.5c-0.1-0.2-0.1-0.1,0.1-0.3l0,0c0-0.3,0.1-0.6,0-0.9
		c-0.1-0.4-0.4-0.7-0.6-1.1c-0.2-0.2-0.6-0.7-0.9-0.7c-0.1,0-0.1,0.1-0.2,0.1C85.8,50,85.8,50,85.7,50c-0.1,0-0.4,0.1-0.5,0
		c-0.3-0.1-0.1-0.2,0.1-0.3c0.1-0.1,0.1-0.2,0.2-0.2c0.1-0.1,0.2-0.1,0.3-0.1h0c0-0.4,0.2-0.6,0.2-1c-0.1-0.3-0.4-0.6-0.5-0.9
		c0-0.1,0-0.3-0.2-0.4c-0.2-0.1-0.2,0-0.2,0.2c0,0.2-0.2,0.2-0.2,0.4c0,0.1,0,0.3,0,0.4c0,0.1-0.1,0.3-0.2,0.4c0,0.1,0,0.4-0.1,0.5
		c-0.1,0.1-0.3,0-0.4,0c-0.1,0-0.3,0-0.4,0.1c-0.1,0-0.1,0.1-0.2,0.1c-0.1,0-0.1,0-0.2,0c-0.1,0-0.4,0.2-0.3-0.1
		c0-0.1,0.2-0.1,0.2-0.2c0.1-0.1,0-0.1,0.1-0.2c0.1-0.2,0.2-0.2,0.4-0.1c0.1,0,0.1,0.1,0.2,0c0.1-0.1,0-0.2,0.1-0.2
		c0-0.2,0.1-0.4,0.1-0.6c0-0.1-0.1-0.2-0.1-0.3c0-0.1,0.1-0.2,0.1-0.3c0-0.1,0-0.2,0-0.2c0-0.1,0.1-0.1,0.1-0.2l0,0
		c0-0.2,0.1-0.3,0.2-0.4c0.1-0.1,0.4-0.3,0.4-0.3c0.1-0.2-0.6-0.8,0-0.8c0-0.2,0-0.4,0-0.6c-0.1-0.2-0.1-0.6-0.3-0.6
		c0,0.2,0,0.4,0.1,0.5c0.1,0.4,0,0.2-0.2,0.3c-0.1,0.1-0.3,0.3-0.3,0.4c-0.1,0.2-0.2,0.4-0.3,0.6c-0.1,0.2-0.1,0.4-0.3,0.4
		c-0.2,0.1-0.4,0.1-0.5,0.2c-0.2,0.1-0.5,0.3-0.7,0.5c-0.1,0.1-0.2,0.3-0.3,0.5c-0.1,0.1-0.1,0.1-0.2,0.2c-0.1,0.1,0,0.2-0.1,0.3
		c-0.1,0.1-0.2,0.1-0.3,0.2c-0.1,0.1-0.1,0.2-0.1,0.3c0.1,0,0.2,0,0.3,0c0,0.1,0,0.4-0.1,0.5c-0.1,0.1-0.3-0.2-0.4-0.2
		c-0.1,0.4-0.5-0.3-0.6-0.4c0-0.3-0.2-0.2-0.4-0.2c0.1-0.1,0.1-0.2,0.3-0.2c0,0.1,0.2,0.2,0.3,0.3c0.1-0.1-0.2-0.3-0.2-0.4
		c0-0.1,0-0.3,0-0.4c0-0.1-0.1-0.1-0.1-0.2c0-0.1,0-0.2,0-0.2c0-0.1-0.1-0.3-0.2-0.4c-0.1-0.1-0.3-0.1-0.5-0.2
		c-0.2-0.1,0-0.2-0.1-0.4c0-0.4-0.3-0.5-0.7-0.6l-0.1,0c-0.1-0.1-0.2-0.3-0.3-0.5c-0.1-0.1-0.1-0.1-0.1-0.2c0-0.1,0-0.2,0-0.3
		c0.2-0.1,0.2,0.2,0.3,0c0-0.1-0.1-0.3-0.2-0.4c-0.2-0.2-0.2,0-0.4,0.1c-0.2,0.1-0.3-0.1-0.1-0.3c0.1-0.2,0.4-0.2,0-0.4
		c-0.1,0-0.2,0-0.3-0.1c-0.1,0-0.2-0.1-0.2-0.1c-0.1,0-0.3,0.1-0.5,0.2c-0.2,0-0.3-0.1-0.5-0.2c-0.2,0-0.3-0.2-0.5-0.3
		c-0.2-0.1-0.3,0-0.4,0c-0.5,0.2-0.6,0.1-0.9-0.3c-0.2-0.2-0.7-0.6-1-0.6c-0.2,0-0.3,0.1-0.5,0.2c-0.1,0.1-0.3,0.1-0.4,0.1h-0.1
		c-0.6,0-1.1-0.1-1.7-0.1c-0.5,0-1.1,0.2-1.5,0.4c-0.3,0.1-0.6,0.3-0.9,0.5c-0.3,0.1-0.6,0.2-0.9,0.3c-0.5,0.2-1.1,0.5-1.7,0.5
		c-0.3,0-0.6,0-0.8,0c-0.4,0-0.5,0.2-0.8,0.5l-0.1,0c-0.4,0-0.9,0.5-1.2,0.7c-0.4,0.2-0.9,0.2-1.2,0.6c-0.1,0.2-0.2,0.5-0.3,0.7
		c0,0.1,0,0.2-0.1,0.3c-0.1,0.1-0.2,0.1-0.3,0.2c-0.2,0.2,0,0.4-0.2,0.6c-0.2,0.2-0.3,0.1-0.5,0.2c-0.1,0.1-0.1,0.2-0.3,0.2
		c-0.1,0-0.1-0.3-0.3-0.3c-0.2,0-0.5,0.2-0.7,0.2c0,0.3-0.3,0-0.4,0c-0.2,0-0.2,0.2-0.3,0.2c-0.3,0-0.3-0.7-0.7-0.2l0,0.1
		c-0.4,0-0.7,0-1.1,0c-0.5,0-0.7,0.1-1.1,0.3c-0.3,0.1-0.7,0-1,0.2c-0.4,0.2-0.4,0.5-0.4,0.9c-0.1,0-0.1,0-0.2,0
		c0,0.5-1.2-0.1-1,0.6c-0.3,0.1-0.5,0.1-0.6,0.4c-0.1,0.3,0,0.4-0.4,0.6c-0.5,0.1-1,0.1-1.6,0.1c-0.6,0-1.1-0.1-1.7-0.2
		c-0.2,0-0.2,0-0.4-0.1c-0.1-0.1-0.2-0.3-0.3-0.4c-0.2-0.1-0.5-0.3-0.8-0.3l0,0c-0.5,0.1-0.6-0.2-0.7-0.6c-0.1-0.3-0.2-0.7,0-1
		c0.3,0.3,0.5,0.3,0.7-0.1c0.2-0.3,0.3-0.6,0.3-0.9c0-0.3-0.3-0.6-0.3-0.9c0-0.3,0.3-0.5,0-0.8l0,0c0-0.5,0.1-1-0.2-1.4
		c-0.2-0.2-0.4-0.4-0.6-0.7c-0.2-0.3-0.3-0.5-0.5-0.8c-0.3-0.4-0.5-1-0.7-1.5c-0.2-0.6,0-1.1-0.4-1.6l-0.1,0c0-0.4-0.3-0.6-0.5-0.9
		c-0.2-0.5-0.5-0.7-0.8-1c-0.3-0.3-0.2-0.6-0.3-1c-0.1-0.3-0.4-0.7-0.6-0.9v0.1c-0.2-0.8-1.8-1.3-1.2-2.1c0,0.2,0.5,1.1,0.8,1
		c0.3-0.1,0.1-0.9,0.1-1.2c0.1,0.2,0.2,0.4,0.3,0.5c0.2,0.2,0.1,0.3,0.2,0c0.1-0.2,0-0.7-0.1-0.9c-0.1-0.2-0.4-0.3-0.5-0.4
		c-0.2-0.2-0.2-0.4-0.3-0.6c-0.2-0.3-0.6-0.6-0.6-1l0,0c-0.1-0.4-0.4-0.7-0.5-1.2c-0.1-0.6,0.2-0.8,0.4-1.3c0.2-0.4,0.1-0.8-0.1-1.2
		c-0.1-0.2-0.4-0.4-0.4-0.6c-0.1-0.2,0.1-0.5,0.2-0.7c0-0.5,0.2-1,0.5-1.3c0,0.2-0.1,0.5,0,0.7c0.1,0.3,0.3,0.4,0.1,0.7
		c0.2-0.1,0.3-0.1,0.5-0.3c0.1-0.2,0.1-0.5,0.2-0.7c0.3-0.5,0.8-0.8,1.3-1.1L43.8,24.5z"/>
	<path class="st0" d="M95,0.6c0.1,0,0.2-0.1,0.3-0.1c0,0-0.2-0.2-0.3-0.2C94.9,0.4,94.9,0.6,95,0.6L95,0.6z"/>
	<path class="st0" d="M88.5,12.3c0.1,0,0.2,0,0.3-0.1c0.3,0,0.2-0.1,0.3-0.3c0.1-0.2,0.2,0,0.4,0c0.1-0.4-0.5-0.2-0.7-0.2
		c-0.2,0.1-0.5,0.3-0.4,0.6C88.4,12.2,88.5,12.2,88.5,12.3L88.5,12.3z"/>
	<path class="st0" d="M88.9,13c0.1,0,0.1-0.1,0.1-0.1C89.2,12.9,89.1,13.1,88.9,13L88.9,13z"/>
	<path class="st0" d="M84.4,10.2c0-0.2-0.1-0.4-0.3-0.2C84.2,10.1,84.3,10.3,84.4,10.2L84.4,10.2z"/>
	<path class="st0" d="M83.4,10c0.1-0.1,0.2-0.3,0.1-0.3C83.3,9.6,83.2,9.9,83.4,10L83.4,10z"/>
	<path class="st0" d="M83,7.1c0.2-0.1,0.2,0,0.4,0.1c0.1,0,0.3,0,0.4,0c0.1,0,0.1,0,0.2,0c0.1,0,0.1,0.1,0.2,0
		c0.1-0.1,0.1-0.3,0-0.3c0,0-0.1,0.1-0.1,0.1C84.1,7,84,7,84,7c0,0-0.1,0-0.1,0c-0.1,0-0.2,0-0.2-0.1c0-0.1,0.2,0,0.2-0.1
		c0-0.1-0.2-0.1-0.1-0.2c0.1-0.1,0.5,0,0.3-0.3c-0.1-0.2-0.2,0.1-0.4,0.1c0-0.1-0.1-0.1,0-0.2c-0.1-0.1-0.2,0-0.3,0
		c0.3,0.4-0.3,0.1-0.4,0.3c0.1,0.1,0,0.3,0,0.4c0,0.1,0,0.1,0,0.2C83.1,7,83,7,83,7.1L83,7.1z"/>
	<path class="st0" d="M82.8,6.3c0.1-0.1,0.1,0,0.1-0.1c0-0.1,0-0.1-0.1-0.2C82.6,5.9,82.8,6.2,82.8,6.3L82.8,6.3z"/>
	<path class="st0" d="M71.3,1.9c0-0.1,0-0.1-0.1-0.1c0-0.1,0-0.1-0.1-0.1c0-0.1,0-0.1-0.1-0.2c0-0.1-0.1-0.1,0-0.2
		c-0.1-0.1-0.2-0.2,0-0.3c0.1,0,0.1,0.2,0.2,0.2c0.1,0,0.2-0.1,0.2,0.1c0,0-0.1,0.1,0,0.1c0.1,0.1,0.2-0.1,0.2-0.1
		c0,0.2,0,0.1,0.2,0.1c0.1,0,0.1,0,0.2,0c0.1,0,0.1-0.1,0.2-0.1c0.1,0,0.1,0,0.1,0c0.1,0,0,0,0.1-0.1c0,0,0.1-0.1,0.2-0.1
		c0.1,0,0.1,0.1,0.1,0.1c0-0.1,0.1-0.2,0.3-0.2c0,0,0,0.1,0,0.1c0.1,0,0.1,0.1,0.2,0.1c0.1,0.1,0.1,0,0.1,0.2c0,0.1,0,0.1,0,0.1
		c0,0.1,0,0.1,0,0.1c0,0.1-0.2,0.1-0.3,0.1C73,2,72.9,2.1,72.8,2.2c-0.1,0.1-0.2,0.2-0.3,0.2c-0.1,0.1-0.1,0.1-0.2,0.1
		c-0.1,0-0.2-0.1-0.3-0.2c-0.1-0.1-0.2-0.1-0.3-0.2C71.6,2.1,71.5,2,71.3,1.9L71.3,1.9z"/>
	<path class="st0" d="M71.3,2c0,0.1,0.4,0.2,0.2,0.3c-0.1,0.1-0.3,0-0.4,0c-0.2,0-0.3,0-0.5,0.1c-0.1,0-0.2,0-0.2,0
		c0,0,0.1-0.2,0.1-0.2c0.1,0,0.2,0.1,0.2-0.1c0,0,0-0.1,0-0.1c0,0,0.1-0.1,0.1-0.1c-0.1,0-0.1,0-0.2-0.1c0-0.1,0.1-0.1,0.1-0.2
		c0.1,0,0.1-0.1,0.2-0.2c0.1-0.1,0,0,0.1,0.1c0,0,0.1,0.1,0.1,0.1c0,0,0,0.1,0,0.2C71.2,1.8,71.3,2,71.3,2L71.3,2L71.3,2z"/>
	<path class="st0" d="M99.8,64.5c0,0.1,0,0.2,0,0.3c0,0,0,0.1,0,0.1c0,0.1-0.1,0-0.1,0.1c-0.1,0.1-0.1,0.4-0.1,0.5
		c0,0,0.1,0.7-0.1,0.4c-0.1-0.1,0-0.2-0.1-0.2c-0.1,0-0.3-0.1-0.4-0.1c0,0.1,0.1,0.2,0,0.3c-0.1,0-0.1-0.1-0.1-0.2
		c-0.2,0-0.2,0.2-0.1,0.3c0,0.1,0.2,0.4-0.1,0.3c0-0.1,0-0.3-0.1-0.2c-0.1,0.1,0,0.3-0.2,0.2c-0.1,0.2-0.3,0.6-0.4,0.6
		c-0.2,0.1-0.2,0-0.4-0.1c-0.1-0.1-0.2-0.1-0.3-0.1c-0.2,0-0.5,0-0.6-0.2c-0.2-0.4,0.3-0.1,0.4-0.2c-0.1-0.2-0.4-0.1-0.5-0.3
		c0,0.1-0.1,0.1-0.1,0.1c-0.1-0.1,0-0.2-0.1-0.3c0-0.1-0.1-0.1-0.2-0.2c0,0,0-0.1-0.1-0.1c0,0-0.1,0-0.1,0c-0.1-0.1,0-0.2-0.1-0.3
		l0,0c0-0.2-0.1-0.3-0.2-0.5c-0.1-0.2-0.1-0.2-0.1-0.4c-0.1-0.6,0.2,0.2,0.5-0.1c-0.2-0.1-0.2-0.2-0.3-0.4c-0.2,0.3-0.2-0.2-0.2-0.3
		c0-0.2-0.2-0.4-0.4-0.5l0,0c0-0.1,0-0.3-0.1-0.4c0-0.1-0.3-0.4-0.2-0.4c0-0.1-0.1-0.2-0.1-0.4c0-0.1,0-0.3,0-0.4
		c0-0.1-0.1-0.1,0-0.2c0-0.1,0.1-0.1,0.1-0.1c0-0.1,0-0.3,0-0.4l0-0.1c0.1,0.2,0.2,0.1,0.3,0c0.1-0.1,0.3-0.2,0.3,0
		c0,0.1-0.2,0.1-0.1,0.2c0,0,0.3,0.1,0.3,0.1c0-0.1,0.1-0.2,0.2-0.1c0,0,0,0.1,0,0.2c0,0,0.1,0,0.2,0c0.1,0,0.1,0,0.2,0.1
		c0,0,0,0.1,0.1,0.2c0.1,0.1,0.2,0.1,0.3,0.1c0.3,0.3,0.9,0.5,1.3,0.4h0c0.2,0,0.4-0.2,0.6-0.2c0.2,0,0.3-0.1,0.5,0
		c0.1,0,0.1,0.1,0.2,0c0.1,0,0.1-0.1,0.3-0.2c0.1,0,0.2,0.1,0.3,0c0.1,0,0.1-0.2,0.3-0.2c0.2,0,0.4,0.3,0.5,0.5c0,0.1,0,0.2,0,0.2
		c0,0.1-0.1,0.1-0.1,0.2c0,0,0.1,0.1,0.1,0.1c0,0.2-0.2,0.3-0.1,0.5c0,0.1,0.1,0.1,0,0.3c-0.1,0.1-0.2,0.2-0.1,0.3
		c0,0.1,0.2,0.6,0.1,0.6c-0.1,0.1-0.2-0.1-0.3-0.1C100,64.1,99.9,64.3,99.8,64.5L99.8,64.5z"/>
	<path class="st0" d="M98.5,66.8c0-0.1,0.1-0.1,0.1-0.2c0,0,0-0.2-0.1-0.2c-0.1,0-0.3,0.2-0.3,0.2C98.3,66.8,98.4,66.6,98.5,66.8
		L98.5,66.8z"/>
	<path class="st0" d="M41.4,33.9c0-0.1-0.1-0.2-0.2-0.3c0-0.1-0.1-0.2-0.1-0.3c-0.1-0.1-0.1-0.6-0.3-0.6
		C40.5,32.7,41.2,33.8,41.4,33.9L41.4,33.9z"/>
	<path class="st0" d="M42.3,33.8c0-0.2,0.1-0.5,0-0.6c0-0.1-0.1-0.1-0.2-0.1c0,0,0-0.1-0.1-0.1c0,0-0.1,0-0.1-0.1c0,0,0-0.1-0.1-0.2
		c0,0,0,0.1-0.1,0.1c0-0.2-0.1-0.3-0.2-0.1c0,0,0,0.2,0,0.2c0,0.1,0.1,0.1,0.1,0.1c0.1,0.1,0.1,0.3,0.2,0.4c0.1,0.1,0.1,0.4,0.3,0.4
		C42.3,33.9,42.3,33.8,42.3,33.8L42.3,33.8z"/>
	<path class="st0" d="M84.3,50.7c0-0.2,0-0.1,0.1-0.2c0.1-0.1,0.1-0.2,0.2-0.3c-0.1,0-0.3,0-0.3,0c-0.1-0.1,0.1-0.2,0.1-0.2
		c-0.1,0-0.1-0.1-0.1-0.2c-0.1,0-0.2,0-0.3,0.1c-0.1,0-0.2,0-0.3,0c-0.2,0-0.3,0.1-0.5,0.1c-0.2,0.1-0.4,0.1-0.5,0.2
		c-0.2,0-0.2,0.2-0.2,0.3c0.2,0.1,0.3,0.1,0.3,0.3c0.2-0.1,0.2-0.1,0.4-0.1c0.1,0,0.2,0,0.3,0c0.2,0,0.2-0.1,0.3,0
		C84,50.8,84.1,50.8,84.3,50.7L84.3,50.7z"/>
	<path class="st0" d="M84.7,50.3c0.1-0.1,0.1-0.2,0.2-0.1c0.1,0,0.2,0.1,0.2,0.2C85.1,50.6,84.5,50.4,84.7,50.3L84.7,50.3z"/>
	<path class="st0" d="M93.9,59.5c0.3,0,0.3-0.3,0.3-0.5c0-0.2,0-0.5-0.2-0.5c0,0,0,0.1,0,0.1c0,0-0.1,0.1-0.1,0.1
		c0,0.1-0.1,0.2-0.1,0.3c0,0.1,0,0.1,0,0.2C93.9,59.3,93.8,59.4,93.9,59.5L93.9,59.5z"/>
</g>
</svg>
