<?xml version="1.0" encoding="utf-8"?>
<!-- Generator: Adobe Illustrator 16.0.4, SVG Export Plug-In . SVG Version: 6.00 Build 0)  -->
<!DOCTYPE svg PUBLIC "-//W3C//DTD SVG 1.1//EN" "http://www.w3.org/Graphics/SVG/1.1/DTD/svg11.dtd">
<svg version="1.1" id="Layer_1" xmlns="http://www.w3.org/2000/svg" xmlns:xlink="http://www.w3.org/1999/xlink" x="0px" y="0px"
	 width="153px" height="64px" viewBox="0 0 153 64" enable-background="new 0 0 153 64" xml:space="preserve">
<title>US-Mainland</title>
<desc>Created with Sketch.</desc>
<g>
	<polygon fill="#BAC9CF" points="114.195,61.139 114.038,60.949 113.867,60.73 113.841,60.623 113.786,60.562 113.574,60.468 
		113.318,60.346 113.204,60.336 113.1,60.361 113.055,60.336 112.945,60.214 112.814,60.134 112.725,60.082 112.611,60.075 
		112.473,60.111 112.438,60.12 112.436,60.27 112.49,60.33 112.577,60.382 112.675,60.471 112.702,60.425 112.807,60.398 
		112.887,60.416 112.966,60.436 113.118,60.584 113.182,60.831 113.102,60.965 113.119,61.034 113.128,61.07 113.154,61.175 
		113.253,61.264 113.288,61.254 113.411,61.301 113.648,61.35 113.889,61.406 114.084,61.427 114.188,61.4 114.18,61.366 
		114.215,61.357 114.277,61.307 114.295,61.225 114.24,61.163 	"/>
	<polygon fill="#BAC9CF" points="113.922,64.779 113.719,64.568 113.286,64.189 113.062,64.059 113.027,63.915 112.831,63.59 
		112.672,63.406 112.617,63.343 112.54,63.324 112.471,63.342 112.396,63.359 112.416,63.434 112.434,63.503 112.548,63.51 
		112.604,63.573 112.646,63.602 112.641,63.714 112.63,63.829 112.624,63.943 112.748,64.139 112.844,64.374 113.05,64.587 
		113.501,65.036 113.538,65.025 113.604,65.01 113.729,64.902 113.764,64.895 113.846,64.912 113.934,64.964 113.958,64.92 
		113.984,64.877 113.939,64.85 	"/>
	<path fill="#BAC9CF" d="M138.829,53.202l-0.224-0.282l-0.008-0.034l-0.043-0.024l-0.957-0.66l-0.213,0.055l-0.008-0.033
		l-0.036,0.008l-0.009-0.037l-0.045-0.024l-0.012-0.036l0.037-0.158l0.035-0.16l-0.045-0.176l-0.279-0.494l-0.203-0.359l0.02-0.081
		l-0.136-0.378l-0.034,0.009l-0.098-0.09l-0.08-0.017l-0.09-0.054L136.21,50l-0.01-0.037l-0.046-0.025l-0.471-0.668l-0.045-0.177
		l0.026-0.046l-0.008-0.033l0.024-0.047l-0.01-0.033l-0.011-0.188l-0.011-0.336l-0.034-0.139l-0.035,0.008l-0.019-0.071
		l-6.181-5.532l-0.054,0.006l0.055-0.006l-12.971-11.695l-9.971-8.926l-0.037,0.009l-0.026,0.041l0.026-0.042l0.035-0.009
		l-1.816-1.679v-0.001l-0.542-0.503l-0.011-0.484l-0.021-1.835l-3.494-0.013l-0.044,0.011l0.011-0.002l0.035-0.009l3.495,0.013
		l0.03-0.911l0.009-2.034l-0.021-0.004l0.021,0.004l0.019-10.683l0.033-5.913l-7.759-0.09l0,0L85.29-2.452l0.01,0.037l-0.032,0.008
		L85.23-2.398l-0.035,0.009h-0.002l0.035-0.009l0.037-0.009l0.033-0.009L85.29-2.451l0,0l-3.683-0.152l0.107,0.424l-0.052,0.088
		l-0.11,0.593l-0.211,0.505l0.225,0.28l0.289,0.114l0.256,1.29l0.222,0.133l-0.187,0.007l0.047,0.479l0.009,0.035l0.88,0.025
		l-0.88-0.025l-0.009-0.034l0.021,0.669l-0.363,1.37l-0.123,0.407L81.75,4.28l0.087,0.201L81.785,4.87l-0.497,0.994L81.201,6.11
		l-0.069,0.17l0.019,0.07l0.01,0.037l0.156-0.119l0.222-0.319l0.042-0.124l0.016-0.079l0.037-0.009l0.149,0.001l0.09,0.052
		l0.052,0.061l0.01,0.037l-0.052,0.087L81.785,6.04l-0.027,0.042l-0.131,0.072l-0.1,0.065l-0.034,0.009l-0.062,0.051l-0.045,0.126
		l-0.076,0.131l-0.024,0.042l-0.021,0.083l-0.031,0.158l-0.045,0.125l-0.062,0.051l-0.088-0.052l-0.051-0.062l-0.02-0.07
		l0.061-0.054l0.068-0.166l0.027-0.046L81.116,6.51l-0.009-0.036l-0.037,0.01l-0.036,0.009l-0.076,0.132l0.008,0.034l-0.332,0.612
		l0.017,0.07L80.581,7.36l-0.015,0.073l0.002-0.001l0.002,0.006l-0.25,0.515l-0.256,0.78l0.254,0.836l-0.051,0.541l1.049,1.013
		l0.264,0.157l0.124,0.192l0.028,0.411l0.186-0.012L82,12.037l0.034-0.008l0.479,0.705l0.125,0.344l0.26,0.274l0.08,0.768
		l0.181,0.254l0.019,0.671l0.116,0.311L83.05,15.87l-0.161,0.98l0.243,1.103l0.267,0.459l0.137,0.678l-0.105,0.479l-0.174,0.195
		l0.012,0.185l0.683,0.916l0.293,0.265l0.034-0.009v0.002l-0.035,0.008l0.542,0.5l0.569,1.06l1.133,0.911l0.021,0.072l0.069,0.134
		l0.162,0.334l0.008,0.333l0.082,0.167l0.046,0.03l0.01,0.034l0.052-0.091l0.115,0.012l0.121,0.041l0.027-0.043h0.006l-0.028,0.042
		l0.011,0.038l0.196,0.475l0.212,0.097l0.57,1.059l-0.344-0.328l-0.562-0.869l0.195,0.625l-0.424,1.125l0.309,0.033l-0.07-0.133
		l0.184-0.159l0.08,0.015l-0.15-0.148l0.141-0.185l0.026,0.106l0.097-0.062l-0.088,0.095l0.063,0.248l0.483,0.141l0.269,0.459
		l0.437,0.378l0.129-0.073l0.002-0.148l0.08,0.167l0.75,0.598l0.011,0.036l0.071-0.017l0.008,0.034l0.037-0.01l0.078,0.016
		l0.125-0.104l-0.011-0.037l-0.161-0.335l0.104-0.027l0.083,0.167l0.033-0.008l0.07-0.018l0.035-0.01l0.027-0.043l0.023-0.046
		l-0.068-0.131l-0.09-0.054l-0.133-0.078l-0.062-0.097l0.027-0.046l0.062-0.052l-0.063-0.097l0.02-0.08l0.139-0.035l0.098-0.064
		l0.026-0.044l-0.008-0.034l-0.089-0.053l-0.18-0.106l-0.018-0.07l-0.009-0.034l0.09-0.099l0.052-0.238l-0.019-0.072l-0.073-0.133
		l-0.009-0.034l-0.009-0.034l-0.006,0.001l0.099-0.062l0.079,0.02l0.156,0.031l0.037-0.009l0.062-0.204l0.007-0.112l0.073-0.019
		l0.043,0.028l-0.011-0.037l0,0l0.011,0.036l0.079,0.016l0.043,0.026l0.188,0.14l0.229,0.168l0.142,0.113l-0.017,0.08l0.053,0.062
		l0.037-0.009l0.017-0.08l-0.162-0.334l-0.035-0.139l0,0l0.01-0.119l-0.126-0.04l-0.132-0.083l-0.01-0.034l0.086-0.097l0.074-0.018
		l0.045,0.026l0.019,0.068l0.088,0.055l0.062,0.094l0.037,0.143l0.043,0.025l0.035-0.009l0.033-0.008l0.034-0.008l0,0l-0.033,0.008
		l-0.034,0.009l-0.037,0.009l-0.043-0.025l0.02,0.071l0.025,0.257l0.072,0.131l0.045,0.176l0.081,0.018l0.104-0.026l0.211,0.095
		l0.186,0.142l0.037-0.011l0.212-0.202l0.14-0.188l0.023-0.194l0.044-0.124l0.104-0.027l0.143-0.036l0.053,0.062l0.08,0.017
		l0.055,0.062l0.02,0.071l0.008,0.035l-0.027,0.043L92.77,26.29l-0.028,0.043l0.098,0.087l0.124,0.044l0.281-0.072l0.046,0.027
		l0.019,0.068l-0.054,0.09l0.052,0.062l0.08,0.017l0.071-0.018l0.054-0.087l0.186-0.011l0.256-0.028l0.211-0.053l0.088-0.096
		l0.15-0.302l0.11-0.141l0.038-0.009l-0.011-0.037l0.062-0.052l0.036-0.009l-0.011-0.037l0.035-0.009l-0.008-0.035l0,0l0.011,0.035
		l-0.036,0.01l0.009,0.036l0.019,0.07l-0.059,0.203l-0.074,0.168l-0.104,0.178l-0.052,0.088l-0.237,0.099l-0.115-0.01l-0.025,0.046
		l0.053,0.061l0.134,0.08l0.148-0.003l0.036-0.009l0.035-0.01l0.035-0.008l0.051-0.088l0.037-0.009l0.061-0.054l-0.018-0.07
		l0.006-0.115l0.029-0.043l0.071-0.019l0.358-0.055l0.106-0.027l0.033-0.008l0.046,0.027l0.008,0.034l0.061,0.098l-0.016,0.078
		l0.09,0.055l0.088,0.053l0.035-0.009l0.125,0.042l0.139,0.114l0.064,0.098l0.036-0.01l0.062,0.098l0.035,0.144l0.008,0.032
		l-0.061,0.056l-0.097-0.09l-0.071-0.13l-0.109-0.125l-0.051-0.061l-0.062,0.051l-0.166-0.067l-0.098-0.089l-0.055-0.061
		l-0.019-0.073l0,0l-0.019-0.068l-0.156-0.036l-0.223,0.02l-0.068,0.018l-0.01,0.115l-0.009,0.113l-0.086,0.098l-0.133,0.073
		l0.088,0.051l0.052,0.062l-0.104,0.028l-0.504-0.061l-0.478-0.103l-0.44-0.115l-0.193-0.024l-0.137-0.08l-0.176,0.044l-0.201,0.091
		l-0.396,0.062l-0.125-0.042l-0.097-0.09l-0.159-0.033l-0.123-0.044l-0.229,0.133l-0.159,0.114l-0.177,0.045l-0.158-0.032
		l-0.026,0.043l-0.034,0.16l-0.104,0.176l-0.1,0.064l-0.025,0.042l0.01,0.034l0.062,0.1l0.072,0.131l0.033-0.009h0.152l0.121,0.043
		l0.053,0.062l0.006-0.002l0.01,0.036l0.055,0.06l0.037,0.142l-0.002,0.152l-0.017,0.077l-0.124,0.106l-0.042,0.124l0.046,0.176
		l0.28,0.08l0.339,0.138l0.042,0.028l-0.024,0.043l-0.15,0.002l0.01,0.034l-0.025,0.046l0.086,0.051l0.019,0.072l0.117,0.008
		l0.104,0.123l0.144,0.264l-0.016,0.231l0.045,0.325l0.145,0.266l0.115,0.309l0.08,0.019l0.033-0.009l0.1,0.087l0.07,0.131
		l0.195,0.025l0.174,0.107l-0.031,0.008l-0.03,0.043l-0.095,0.066L92.5,31.093l-0.193-0.025l-0.125-0.04l-0.143-0.116l-0.034,0.009
		l-0.071,0.018l0,0l0.105-0.027L91.91,30.72l-0.124-0.044l-0.211-0.246l-0.259-0.123l-0.115-0.158l-0.193-0.026l-0.382-0.317
		l-0.062-0.245l0.026-0.047l0.007-0.414l-0.019-0.071l0.062-0.052l-0.102-0.538L90.07,28.37l-0.035,0.157l-0.146,0.003l-0.008,0.563
		l-0.025,0.043l0.08,0.468l-0.052,0.24l-0.12,0.106l0.008,0.487l0.092,0.201h0.148l0.106,0.123l0.278,0.944l-0.164,0.83l0.17,0.372
		l0.193,0.175l0.242,0.354l0.086,0.052l-0.035-0.14l0.019,0.07l0.01,0.033l0.008,0.035l0.125,0.043l0.257,0.423l0.385,0.468
		l0.31,0.184l0.292,0.114l0.168-0.079l0.176-0.046l0.096,0.089l0.08,0.017l0.037-0.009l0.078-0.133l0.141-0.037l0.229,0.166
		l0.215,0.246l0.161,0.334l0.009,0.033l-0.005,0.006l0.16,0.336l0.019,0.068l-0.097,0.365l0.019,0.068l0.117,0.01l0.041,0.025
		l0.02,0.072l0.018,0.07l0.026,0.103l-0.033,0.011l-0.036,0.008l-0.055-0.061l-0.115-0.158l-0.154,0.717l-0.201,0.238l-0.072,0.02
		l-0.068,0.018l-0.043-0.023l-0.16-0.188l-0.047-0.025l-0.033,0.008l-0.148,0.15l-0.07,0.17l-0.019,0.08l0.019,0.073l0.268,0.155
		l0.018,0.068L93.02,37.73l-0.156,0.117l0.008,0.032l0.01,0.037l0.135,0.381l0.063,0.246l0.062,0.246l-0.043,0.124v0.152l0.01,0.186
		l0.035,0.141l0.293,0.262l0.013,0.186l0.104,0.123l0.187-0.009l0.37,0.28l0.107,0.121l0.487,0.594l0.269,0.607l0.435,0.229
		l0.226,0.882l0.655,0.512l0.008,0.032l0.037-0.009l0.091,0.012l-0.128-0.003l0.028,0.106l0.062,0.098l0.027,0.105l-0.045,0.121
		l0.037,0.144l0.054,0.21l0.158,0.188l0.346,0.174l0.353,0.062l0.197,0.326l0.204,0.359l0.185,0.293l0.304,0.299l0.38,0.166
		l0.316,0.066l0.065,0.101l0.142,0.265l0.078,0.169l0.037,0.14L99.2,46.648l-0.159,0.115l-0.148,0.151L98.84,47.15l0.1,0.391
		l0.666,0.395l0.11-0.143l0.55,0.236l0.107,0.272v0.149l0.018,0.072l-0.146,0.301l-0.097,0.361l0.01,0.037l-0.07,0.318l-0.014,0.227
		l0.191,0.178l0.158,0.185l-0.111,0.294l-0.051,0.389l0.088,0.201l0.103,0.237l-0.168,0.383l-0.104,0.327l-0.009,0.115l0.071,0.132
		l0.053,0.063l0.057,0.058l0.174-0.044l0.25,0.088l0.192,0.176l0.251,0.54l0.088,0.054l0.047,0.023l0.357-0.055l0.531-0.137
		l0.256-0.023l0.229,0.017l0.439-0.04l0.328,0.104l0.439-0.035l0.383,0.165l0.414,0.156h0.447l0.551,0.084l0.396-0.061l0.504,0.061
		l0.479,0.254l-0.01-0.04l0.033-0.009l-0.009-0.033l0.036-0.01l0.031-0.008l-0.084,0.1l0.09,0.052l0.193,0.174l0.238,0.204
		l0.107-0.025l0.086,0.051l0.082,0.168l0.135,0.08l0.148-0.004l0.125,0.047l0.051,0.062l0.012,0.185l0.061,0.099l0.012,0.187
		l0.104,0.271l0.099,0.089l0.105-0.025l0.438,0.379l0.228,0.016l-0.222-0.133l0.203,0.064l0.785,0.436l0.082,0.018l0.006-0.001
		l0.594,0.115l0.238,0.198l0.112-0.141l0.679-0.134l0.752-0.004l0.258,0.122l0.392,0.5l0.304,0.752l0.025,0.257l-0.104,0.175
		l-0.135,0.072l0.036,0.141l0.063,0.099l0.046,0.026l0.307,0.032l0.109,0.124l0.211,0.096l0.112,0.01l0.056-0.088l0.017-0.082
		l-0.01-0.186l0.016-0.08l0.028-0.042l0.062-0.055h0.15l0.071-0.019l0.041,0.024l0.028,0.106l0.045,0.026l0.131-0.071l0.337,0.142
		l0.03-0.009l0.272,0.193l0.33,0.403l0.522,0.433l0.051,0.062l0.072-0.019l0.026-0.045l-0.009-0.035l-0.126-0.043l0.062-0.053
		l0.08,0.016l0.08,0.018l0.115,0.158l0.547,0.388l0.438,0.528l0.609,0.332l0.107,0.125l1.127,1.179l0.523,0.882l0.312,0.784
		l0.208,0.964l-0.22,0.168l-0.018,0.079l0.055,0.211l0.078,0.167l0.062,0.1l0.035-0.008l0.025-0.047l0.01-0.113l0.025-0.045
		l0.088,0.051l0.045,0.029l0.018,0.07l-0.087,0.096l-0.054,0.09l-0.07,0.018l-0.018,0.08l0.002,0.15l0.062,0.097l0.044,0.026
		l0.026-0.045l0.024-0.046l0.021-0.077l0.06-0.055l0.134-0.07l0.141,0.112l0.133,0.082l0.161,0.183l0.036,0.144l0.062,0.097
		l0.046,0.176l0.035,0.141l-0.025,0.046l0.01,0.035l-0.036,0.009l-0.035,0.01l-0.104-0.123l-0.09-0.203l-0.16-0.336l-0.063-0.097
		l-0.054-0.062l-0.079-0.018l-0.034,0.01l-0.115,0.141l0.1,0.089l0.113,0.01l0.195,0.326l0.217,0.696l6.211-0.791v-0.002L136,64.906
		l0.055-0.09l0.023-0.043l0.027-0.047l0.033-0.009l0.01,0.037l0.043,0.024l0.08,0.017l0.037-0.01l0.309,0.037l0.212-0.056
		l0.263-0.143l0.062-0.055l-0.01-0.034l0.184-0.459l0.124-0.106l0.024-0.047l0.019-0.229l-0.009-0.188l-0.008-0.033l-0.041-0.441
		l-0.011-0.036l-0.317-0.368l-0.008-0.037l-0.035,0.01l-0.008-0.035l-0.037,0.01l-0.035,0.01l-0.193-0.027l-0.037,0.01l-0.033,0.01
		l0.008,0.033l-0.033,0.01l-0.027,0.046l-0.044-0.028l-0.036,0.01l-0.035,0.01l-0.078-0.018l-0.229-0.017l-0.099-0.088l-0.186-0.292
		l-0.046-0.023l0.026-0.045l-0.01-0.035l-0.008-0.035l0.025-0.045l0.02-0.078l0.016-0.08l0.024-0.047l0.036-0.008l0.045-0.125
		l-0.01-0.033l-0.001-0.15l0.024-0.044l-0.018-0.224l-0.001-0.299l-0.215-0.547l-0.089-0.353l0.279-0.224l0.045,0.027l0.07-0.02
		l0.051-0.088l0.037-0.01l-0.01-0.037l0.034-0.009l-0.009-0.034h-0.006V59.53l0.035-0.009l0.147-0.299l0.026-0.047l0.166-0.229
		l0.123-0.256l0.008-0.268l-0.021-0.369l-0.026-0.106l0.025-0.046l-0.01-0.034l0.037-0.009l-0.01-0.034l0.035-0.009l0.069-0.019
		l0.035-0.01l0.026-0.046l0.017-0.08l-0.009-0.034l-0.081-0.317l-0.045-0.178l-0.078-0.168l-0.047-0.324l-0.011-0.037l-0.008-0.035
		l0.032-0.008l0.038-0.011l0.008,0.035l0.035-0.009l0.027-0.044l0.035-0.009l-0.01-0.033l-0.062-0.248l-0.011-0.037l-0.008-0.034
		l-0.045-0.024l-0.01-0.037l-0.036,0.01l-0.009-0.034l0.051-0.239l0.195-0.123l0.156-0.269l0.07-0.317l0.025-0.195l-0.02-0.07
		l0.035-0.01l0.078-0.133l0.281-0.07l-0.009-0.033l0.036-0.01l0.229-0.135l0.413-0.295l0.121-0.104l0.037-0.011l-0.027-0.104
		l0.034-0.009l0.229-0.285l0.237-0.248L138.829,53.202z"/>
	<polygon fill="#BAC9CF" points="103.787,56.418 103.812,56.074 103.697,56.064 103.585,56.207 103.195,56.156 103.047,56.309 
		102.551,56.282 102.509,56.407 102.675,56.479 102.979,56.926 103.333,57.141 104.216,56.762 104.152,56.514 	"/>
	<polygon fill="#BAC9CF" points="101.881,56.003 101.8,55.836 101.779,55.914 101.501,55.986 101.318,56.146 101.87,56.27 
		102.199,56.225 102.162,56.08 	"/>
	<polygon fill="#BAC9CF" points="106.83,56.132 106.533,55.982 106.357,56.027 106.188,56.26 105.957,56.24 105.461,55.916 
		105.064,55.98 104.766,55.832 104.464,55.834 104.422,55.958 104.73,56.143 104.634,56.354 104.93,56.616 105.723,56.641 
		106.014,56.456 106.734,56.344 	"/>
	<polygon fill="#BAC9CF" points="107.443,61.917 107.311,61.838 106.877,61.611 106.725,61.611 106.559,61.693 106.575,61.764 
		106.621,61.939 106.711,61.99 106.923,62.086 107.285,62.186 107.357,62.166 107.497,62.13 107.525,62.085 107.516,62.048 	"/>
</g>
</svg>
