<?xml version="1.0" encoding="utf-8"?>
<!-- Generator: Adobe Illustrator 16.0.4, SVG Export Plug-In . SVG Version: 6.00 Build 0)  -->
<svg version="1.2" baseProfile="tiny" id="Layer_1" xmlns="https://www.w3.org/2000/svg" xmlns:xlink="https://www.w3.org/1999/xlink"
	 x="0px" y="0px" width="153px" height="64px" viewBox="0 0 153 64" xml:space="preserve">
<title>US-Mainland</title>
<desc>Created with Sketch.</desc>
<path fill="#BDCCD4" d="M11.938,50.062l0.408,0.18l0.551-0.11l0.368-0.278l-0.101-0.237l-0.449-0.092l-0.215-0.344l-0.539-0.152
	l-0.233,0.78 M19.828,44.178l-0.404-0.577l-0.22,0.03l-0.027,0.396l0.192,0.389l-0.071,0.398l0.251,0.663l0.245,0.036"/>
<path fill="#BDCCD4" d="M5.339,58.231l0.112-0.365l0.253-0.17l0.188-0.87l0.332-0.646l0.296-2.144l1.292-2.314l0.081-0.503
	l0.269-0.18L8.44,51.21l0.368-0.09l0.906-1.301L10.755,50l0.117,0.125l-0.305,0.467l0.332,0.134l0.574,0.637h0.323l0.152-0.395
	l0.251-0.171l0.395,0.045l0.879,0.664l0.098,0.153L13.411,52l0.672,0.897l0.162-0.297l0.431-0.045l0.332,0.476l0.296-0.134
	l0.072-0.297l-0.224-0.503l-0.099-0.018L14.442,52l-0.179-0.53l-0.036-0.798l-0.439-0.09l-0.17-0.26l0.072-0.161l0.395-0.314
	l0.135-0.386l0.673-0.062l0.242,0.484l0.323,0.027l0.753-1.096l1.094,0.565l0.673-0.018l0.305,0.448l0.377,0.197l0.664-0.682
	l0.26,0.027l0.637,1.148l0.682,1.237l0.17-0.027l0.305-0.933l0.269-0.332l-0.458-0.717l-0.099-0.69l-0.664-0.683l-0.045-0.313
	l0.152-0.458l0.664-0.637l0.045-0.404l-0.377-0.852l0.054-0.18l0.395,0.019l1.014,0.682l1.229,0.521l0.18,0.447l0.09,0.234
	l0.099,1.516l0.601-1.462l0.601,0.277l-0.493-1.139l0.207-1.086l-0.386-0.313l-0.853,0.026l-0.314-0.144l-0.081,0.583l-0.17,0.099
	l-0.207-0.17l-0.458-1.256l0.511-0.727l0.081-0.502l-0.063-0.368l-0.036-0.206l0.789-0.062l0.449-0.314l2.18,0.87l0.386,0.27
	l0.233,0.86l1.292,1.92l-0.054,1.48l0.107,0.368l0.251,0.251l0.295-0.215l0.036-1.033l-0.224-0.941l-0.305-1.292l0.314-1.111
	l-0.413-0.835l0.071-0.655l-0.099-0.556l0.117-0.252l0.744-0.843l0.583-0.125l-0.296-0.314l0.583-0.682l0.287-0.081l0.494,0.243
	l0.368-0.091l0.332-0.358l0.61,0.054l1.041-0.7l0.61-0.143l1.239-0.287l0.852,0.378l0.78-0.019l1.256-0.736l0.357,0.145l0.763,0.789
	l0.054,0.623l-0.583,0.054l-0.574,1.175l-0.365,0.242l-0.332-0.116l-0.108-0.287l0.727-0.754l0.125-0.654l-0.242-0.484l-0.35,0.044
	l-0.521,0.521l-0.413,0.045l-0.646-0.323l-0.368,0.041l-0.305,0.556l-0.986-0.152l-0.072,0.27l0.449,0.718l0.287,0.879l0.35,0.026
	l0.099-0.313L34.798,39.8l0.117-0.252l1.005-0.144l0.188,0.126l0.152,1.292l0.449,0.574l0.664,0.081l0.35,0.224l0.798-0.107
	l0.467,0.161l0.152-0.099l-0.341-0.727l0.135-0.897l0.296-0.17l0.673-0.054l0.296,0.233l0.107,1.336l1.471,1.023l-0.027,0.673
	l0.288,0.098l0.161-0.25l-0.018-0.432l-0.655-0.996l0.018-1.103l-0.116-0.458l-0.108-0.422l-1.417-2.232l-0.125-0.44l0.045-0.52
	l0.484-0.387l0.144-0.295l-0.386-0.252l0.071-0.206l0.485-0.359l0.421,0.045l0.691,0.682l0.431,0.225l1.202,0.009l1.507,0.817
	l0.099,0.331L44.72,37.61l-0.063,0.162l-0.251,0.143l-0.225-0.636l-0.395,0.018l-0.996,0.628l-1.705,0.215l0.107,0.207l2.62,0.071
	l0.458,0.467l-0.225,0.277l-0.592-0.018l-0.081,0.18l0.162,0.215l0.816,0.071l0.52,0.306l0.188,0.799l0.162,0.08l0.26-0.116
	l0.099-0.233l-0.134-0.395l-0.861-1.076l0.341-0.242l0.475,0.224l0.678,0.019l0.969-0.314h0.485l1.48,1.632l-0.125-0.43
	l-0.502-0.816l0.099-0.565l0.233-0.286l0.418,0.026l0.368,0.457l0.197,0.547l-0.266,0.835l0.323,0.341l0.368-0.538l-0.189-1.266
	l0.287-0.753l-0.062-0.512l-0.682-0.637l-0.529-0.045l-0.449,0.27l-0.188-0.251l0.413-0.422l-0.242-0.583l-0.144-0.063l-0.126,0.368
	l-0.179,0.116l-0.009,0.592l-0.287,0.449L47.605,37.1l-0.09-0.018l-0.574-0.593l-0.197,0.924l-0.278,0.126l-0.207-0.216l0.341-0.709
	l0.027-1.229l-0.107-0.358l0.341-1.14l0.287-0.054l0.933,0.646l1.265,1.346l1.045,0.78l0.359,0.592l0.197-0.08l0.099-0.386
	l0.287-0.036l1.095-0.026l0.888,0.224l1.319,0.072l0.766,0.52l2.736,0.907l0.834,0.52l0.718,0.86l0.79,0.055l0.502,0.448l0.7,0.996
	l-0.368-1.391l-0.301-0.296l-1.408-0.718l3.292-1.318l1.498-0.834l0.368-0.108l0.224,0.126l0.225-0.323l-0.027-1.794l0.107-0.565
	l-0.314-0.422l-0.421-0.071l-0.242-0.521l0.081-0.134l0.826,0.251l0.799-0.243l0.645-0.277l0.879-0.78l0.413,0.377l1.058,0.502
	l0.036,0.251l-1.274-0.467l-1.058,1.292l0.376,0.565l0.278-0.036l0.162-1.175L67.9,33.09l0.691,0.734l-0.18,0.278l-0.637,0.225
	l0.09,0.351l0.242,0.26l0.368,0.035l0.458-0.879l0.637,0.063l0.902,0.582l0.278-0.116l-0.368-1.014l0.045-0.431l-0.233-0.331
	l-0.61,0.071l-0.251-0.233l0.359-0.287l0.915-0.018l0.988,0.601l0.744,0.054l0.233,0.233l0.054,0.78l0.367,0.009l0.251,0.261
	l0.305-0.036l0.826-0.638l-0.736-0.071l-0.382-0.036l-0.386-0.232l0.207-0.259l1.049-0.135l1.095,0.126l1.041-0.162l2.279,0.036
	l2.95,0.387l2.189,0.107l0.206-0.036l3.553-0.574l1.382-0.009l2.619,0.332l1.794-0.027l0.87-0.125l1.606-0.667l0.789-0.323
	l5.616-0.207l4.072-1.659l0.86-0.808l0.557-0.529l0.709-0.359l1.543-1.426l0.96-0.727l2.135-0.933l1.031-0.619l0.906-0.996
	l1.328-2.019l2.126-0.054l0.341-0.332l0.628-0.152l0.313-0.215l0.314-0.206l0.583-0.781l0.404-0.951l0.403-0.35l0.735-0.278
	l0.314-0.48l0.52-1.453l2.234-0.081l0.367-0.17l0.484-0.619l0.565-0.068l0.592-0.628l1.202-0.221l0.225,0.089l0.511,0.197h0.431
	l0.467-0.376l1.436-0.323l-0.798,1.839l-0.638,1.184l-0.956,0.377l-1.543,1.211l-0.35-0.009l-0.081-0.332l0.429-0.375l2.27-1.13
	l0.61-0.978l-0.215-0.036l-0.152,0.288l-0.171,0.224l-0.816-0.108l-0.368,0.144l-0.313-0.413l-0.126,0.027l-0.071,0.018l0.305,0.574
	L128.373,17l-0.306,0.099l-0.116,0.313l-0.547-0.027l-0.834-0.619l-0.665-0.287l-0.448,0.089l-0.422,0.439l-0.916,1.956
	l-0.457,0.081l-0.423,0.556l-0.295-0.17l-0.136,0.072l0.062,0.511l-0.537,0.996l-0.664-0.18l-0.682,0.691l0.026,0.036l0.628,0.808
	l-0.17,0.251l-0.306,0.036l-0.564-0.368l-0.541,0.134l-0.439-0.635l-0.449-0.206l-0.415,0.036l-0.188,0.251l0.18,0.171l0.233-0.171
	l0.547,0.557l-0.166,0.942l-0.556,0.404l-0.027,0.475l-0.628-0.314l-0.135,0.476l-0.592,0.471l0.888-0.251l0.162,0.215l-0.53,0.798
	l0.306-0.137l0.358-0.233l0.438-0.288l0.888,0.35l0.835,0.081l-0.35,0.771l0.277,0.458l-0.035,0.269l-0.44-0.207l-0.116,0.511
	l-1.534-0.143l-0.512-0.162l0.252-0.305l-0.126-0.287l-0.556-0.207l-0.252,0.188l0.093,0.216l-0.152,0.117l-0.61,0.045l-0.476-0.539
	l-0.26-0.008l0.063,0.376l-0.324,0.171l0.054,0.287l0.378,0.009l0.502,0.008l0.233,0.306l-0.412,0.26l-0.181,0.458l0.441,1.489
	l-0.054,0.202l-2.027,0.34l-0.341,0.35l-0.287,0.62l-2.396,0.386l-0.933,0.618l-0.95,0.283l-0.404,0.305l-0.116,0.207l-0.808,1.399
	l-1.22,1.229l-0.314,1.085l-0.313,0.323l-0.197,0.009l-0.188-0.484l-0.287-0.009l-0.332,0.413l-0.26-0.01l-0.404-0.295l-1.086,0.26
	l-0.448-0.386l-0.278,0.35l0.476,0.386l-0.081,0.225l-1.794,0.78l1.005,0.216l0.353-0.378l0.502,0.019l-0.026,0.152l-0.735,0.539
	l-0.063,0.224l0.493-0.081l0.348,0.521l0.682-0.897l0.431-0.036l0.216,0.485l0.448,0.358l0.125-0.233l0.332-0.035l0.107,0.511
	l0.216-0.08l0.207-0.386l0.637,0.646l0.215,0.018l0.126-0.251l-0.233-0.467l0.413-0.663l0.386-0.063l1.001,0.449l1.238,0.87
	l0.691,0.351l0.242,0.124l0.565,0.063l-0.055,0.869l0.126,0.575l0.35,0.592l0.556,0.422l-0.727,1.462l-0.224,1.086l-1.167-0.763
	l-0.215,0.188l0.162,0.332l-0.1,0.251l-0.502-0.072l-0.277-0.412l0.125-0.81l-0.897-1.328l-0.197-0.018l-0.126,0.277l0.225,0.727
	l-0.08,0.718l-0.323,0.619l0.018,1.022l-1.009-0.116l-0.754-0.735l-0.242-0.09l0.296,0.727l-0.296,0.17l0.144,0.332l-0.574,1.005
	l-0.413,0.225l-0.044,0.466l-0.574,0.521l-0.521,0.184l-0.87-0.117l-0.036-0.421l0.242-1.104l-0.206-0.215l-0.727,1.615
	l-0.341,0.215l0.368,0.403l-0.145,0.297l-0.933,0.35l-1.176-0.018l-0.179-0.108l-0.359-0.744l-0.224,0.368l-0.493,0.224
	l-0.584,0.045l-0.475-1.031l-0.054-0.303l-0.188,0.215l-0.024,1.041l-0.269,0.306l-0.26,0.035l-0.517-0.322l-0.717-0.019
	l-0.162-0.152l0.422-0.395l-0.062-0.126l-0.483,0.09l-0.081-0.332l0.224-0.521l-0.098-0.152L95.47,47.75l-0.852-0.529l-0.189,0.27
	l0.171,0.287l0.673,0.547l-0.242,1.067l-1.148-0.431l-0.413-0.009l-0.045,0.278l-0.026,0.143l0.87,0.934v0.207l-0.26,0.054
	l-0.377-0.458l-0.699-0.386l-0.055,0.27l0.439,0.771l-0.583,0.269l-0.314-0.099l-0.421-1.238l-0.144-0.035l0.197,0.96l-0.153,0.313
	l-0.322,0.015l-0.242-0.144l-0.358-0.744l-0.179,0.43l-0.216-0.062l-0.404,0.26l-0.134-0.151l0.205-0.466l-0.045-0.225l-0.16,0.045
	l-0.323,0.61l-0.116-0.61l-0.252,0.152l-0.08,0.536l0.242,0.609l-0.538-0.062l-0.108-0.216l0.207-1.336l-0.181,0.067l-0.215,0.744
	l-0.125-0.197l-0.062-0.646l-0.62-0.242l-0.098,0.763l-0.982,0.529l0.143,0.22l0.709-0.35l0.708,0.305l0.494,0.96l-0.009,0.359
	l0.358,0.322l0.017,0.341l-0.206,0.323l-1.776,0.744l-0.404-0.16l-0.125,0.188l0.144,0.331l-0.162,0.278l-1.005,0.466l-0.035-0.071
	l-0.153-0.35l-0.277,0.013l-0.18,0.359l-0.448,0.287l-0.395-0.055L83.937,54.9l0.241-0.592l-0.412-1.06l0.062-0.511l-0.556-0.548
	l0.27-0.627l-0.06-0.548l-0.412,0.242l0.026,0.775l0.179,0.403l-0.161,0.637l-0.296,0.215l-1.749-0.107l-1.624,1.776l-0.7,0.009
	l-2.215-0.798l-2.386,0.215l-0.197,0.136l-0.207,0.134l-0.861,1.266l-3.687,0.968l-1.427,0.18l-0.915-0.604l-2.019-0.215
	l-0.359-0.18l-0.278-0.393l0.377-0.564l-0.269-0.126l-0.063-0.027l-0.225,0.368v0.556l0.278,0.431l1.059,0.539l0.431-0.063
	l0.161,0.171l-0.852,1.005l-0.251,0.753l-0.655,0.478l-1.633-0.484l-0.525-0.529l-0.888,0.243l-0.296-0.232l0.251-0.754
	l-0.242-0.395l-0.269,0.744l-0.251,0.216l-0.547,0.171l-0.458-0.045l-0.171-0.35l0.063-1.077l-0.763,0.87l-0.368-0.386l-1.094,1.84
	l-1.48,1.031l-0.96,0.358l-0.565,0.002l-0.242-0.44l-0.677-0.053l-0.53,0.699l-0.26,0.036l-0.063-0.08l-0.287-0.395l-0.17,0.098
	l-0.126,0.502l-0.753,0.646l-0.422-0.094l-0.224,0.35l-1.018,0.135l-0.583,0.565l-1.606,0.591l-1.014-0.26l-0.687,0.26l-0.376-0.161
	l-0.502,0.051l-0.197,0.385l-1.157-0.165l-0.718,0.484l-0.287,0.054l-0.054,0.015l-0.538-0.351l-1.014,0.188l-0.816,1.157
	l-0.395,1.203l-0.192,0.098l-0.305-0.565l0.063-0.923l-0.449-0.27l-0.529,0.206l-0.224-0.565l-0.574-0.144l-0.054,0.162l0.188,0.283
	l0.018,0.331l-0.17,0.099l-0.502-0.529l-0.395-0.098l-0.194,0.475l-0.395-0.117l-0.279,0.439l-0.376-0.717l-0.79-0.188l-0.071,0.335
	l0.116,0.197l0.529,0.197l0.099,0.215l-0.081,0.206l-0.53,0.736l-0.233,0.053l-0.225-0.188l-0.323,0.08l-0.539-0.592l-0.152,0.1
	l-0.26,0.842h-0.458l-0.879-0.439l-0.144,0.117v0.512l-0.341,0.17l-0.341,0.439l-0.413,0.135l-0.601-0.188l-0.018,0.206l0.458,0.359
	l0.125,0.377l-0.107,0.135l-0.117,0.277l-0.61-0.009l-0.35,0.35l-0.978-0.018l-0.476-0.422l0.189-0.216l0.601-0.098l0.35-0.529
	l-0.072-0.18l-0.278,0.018l-0.117-0.287l-0.044-0.915l-0.422,1.121l-0.332-0.071l-0.152-0.421l-0.26,0.152l-0.054,0.206
	l-0.188,0.682l-0.233,0.206l-0.35-0.044l-0.449-0.764l0.027-0.825l-0.44,0.422l-0.439-0.17l-0.242,0.075l-0.135,1.238l0.233,0.277
	l0.673,0.396l0.152-0.386l0.332,0.134l0.287,0.412l-0.224,0.324l-0.781,0.107l-1.803-0.287H21.79l-1.202,0.287l-0.152,0.1h-0.278
	l-1.023,0.321l-1.363,0.188l-1.391,0.477l-1.65,0.914l-0.691,0.171l-1.821,0.933l-0.87,0.341l-1.669,0.162l-0.395,0.197
	l-1.507,0.771l-0.18-0.126l0.368-0.798l0.484-0.233l0.431-0.427l1.794-0.252l1.184-0.538l1.104-0.771l0.78,0.049
	c0.225-0.125,0.547-0.296,0.79-0.377c0.458-0.161,0.951-0.161,1.408-0.368c0.521-0.233,0.709-0.565,1.115-0.905
	c0.359-0.297,1.085-0.44,1.507-0.674c0.601-0.332,1.373-0.905,2.001-1.147l0.215-1.463L20.7,64.787
	c-0.435-0.188-0.843-0.485-1.301-0.61c-0.197-0.054-0.472-0.036-0.655-0.107c-0.659-0.27-0.804-0.97-1.731-1.067
	c-0.35,0.116-1.163,0.313-1.543,0.232c-0.431-0.099-0.539-0.43-1.135-0.197l-0.403,0.395l-1.005-0.026
	c-0.61,0.564-0.404,0.996-1.39,1.256l-0.619,0.161c-0.287-0.161-0.879-0.152-1.184-0.071l-0.314,0.35l0.386,0.403
	c0.071,0.01,0.708,0.091,0.735,0.107c0.413,0.162,0.996,0.827,0.942,1.311l-0.754,0.332l0.117,0.493
	c0.26-0.086,0.708-0.09,0.96,0.021c0.098,0.548,0.287,1.103,0.493,1.605l-0.081,0.638l-2.082,0.17l-0.458-0.023l-0.718,0.081
	L8.513,70.4l-0.816,0.205"/>
<path fill="#BDCCD4" d="M14.248,67.679l-0.363-0.162l-0.374,0.038l-0.072,0.287l0.215,0.314l0.816-0.216 M14.713,67.268l0.108,0.297
	l0.413-0.35l0.161-0.404l-0.144-0.278L15,66.479 M18.66,65.797l-0.395,0.7l0.511,0.484l0.718-0.314l-0.081-0.808l-0.188-0.26
	 M17.853,66.2l0.117,0.162l0.43-0.853l-0.009-0.251l-0.61,0.538 M13.923,65.231l-0.17,0.619l0.332-0.036l0.834-0.512l-0.368-0.152
	 M12.9,66.057l0.404-0.439l0.161-0.422l-0.071-0.144l-1.104,0.593l-0.054,0.197"/>
<path fill="#BDCCD4" d="M16.969,68.094l0.312-1.53l-0.099-0.26l-0.63-0.193l-0.22-0.476l0.111-1.04l-0.117-0.26l-0.35,0.143
	l-0.601,1.57l0.215,0.207l0.404,0.089l0.305,0.377l0.144,0.628l-0.152,0.512l-0.359,0.287l-0.879,0.08l0.027,0.252l0.485,0.277
	l0.287-0.099l0.251-0.296 M33.937,69.645l-0.188,0.126l-1.086-0.107L32.089,69.6l-1.543,0.063l-0.422,0.269l-0.708,0.126
	l-1.471-0.233l-2.799,0.036L23.2,69.627l-2.118,0.126l0.027-0.242l0.341-0.313l0.206-0.189l0.565-0.036l1.166,0.314l1.579,0.135
	l1.13-0.081l1.417-0.368l3.13-0.116l0.816-0.251l0.511,0.198l1.202,0.071l0.942,0.081 M34.27,70.039l-0.135-0.385l0.099-0.162
	l0.78,0.027l0.467-0.322l0.251,0.232l1.48-0.834l1.022-0.341l0.466-0.27l0.458-0.583l0.144-0.188l0.771,0.295l0.054,0.242
	l-0.332,0.314l-0.637,0.261l0.233,0.215l0.646-0.009l1.525-0.844l1.974-0.637l2.323-0.251l0.287-0.332l0.646,0.277l0.224-0.395
	l0.61-0.098l0.17-0.145l-0.009-0.313l0.476-0.207l0.404,0.18l0.476-0.18l0.565-0.484h0.61l1.454-0.583l0.439-0.422l0.565-0.054
	l1.364,0.314l2.377,0.081l1.022-0.162l0.081,0.287l-0.251,0.197l-3.086,0.171l-0.107-0.036l-0.79-0.278L52.3,65.169l-1.148,0.126
	l-2.62,1.184l-1.848,0.494l-0.789,0.25L40.333,69l-2.063,0.152l-3.382,0.933"/>
<path fill="#BDCCD4" d="M82.657,57.147l-1.488,0.538l-1.946,0.963l-1.663,0.825l-2.055,1.417L71.52,62.46l-1.573,0.406l-1.663,0.59
	l-1.175,0.413l-1.776,0.281l-0.879,0.398l-0.825,0.149l-2.234,0.799l-2.889,0.65l-1.004,0.413l-0.736,0.081l-0.35,0.045
	l-1.121-0.216l-2,0.072l-0.099-0.278l0.027-0.287l0.458,0.027l0.422-0.359l1.328,0.539l0.718,0.08l0.69-0.099l1.059-0.565
	l1.947-0.251l0.753-0.422l0.538-0.305l1.992-0.206l0.718-0.502l2.099-0.297l3.391-1.094l1.723-0.35l0.986-0.332l0.619-0.207
	l2.817-1.328l4.028-2.332l1.202-0.385l0.44-0.53l0.511-0.34 M82.602,57.195l0.889-0.95l0.87-0.082l0.7-0.367l0.672-0.009l3.256-1.48
	l0.71-0.789l0.466-0.27l0.861-0.17l0.682,0.18l1.176-0.61l0.286,0.116l0.027,0.18l-1.337,0.906l-2.979,0.915l-5.14,2.206
	 M104.194,49.059l3.257-1.713l1.893-0.117l0.799-0.833l0.412-0.063l0.359,0.305l0.421-0.26l0.584-0.781l1.13,0.046l0.18,0.26
	l-0.825,0.251l-0.584,0.287l-2.225,1.121l-3.104,0.897l-2.925,1.184l-7.016,2.432l-2.879,0.771l1.337-1.13l1.337,0.036l0.995-0.288
	l0.565-0.582l0.556-0.271l1.606-0.269L101.001,50l1.005-0.053 M148.618,25.583l0.395-0.206l0.691,0.466l0.663,0.251l0.368-0.071
	l0.251-0.323l0.116-0.494l-0.144-0.511l-0.251-0.906l0.099-0.386l0.825-0.358l0.547-0.108l0.233,0.332l-0.071,0.565l0.135,0.242
	l0.878,0.826l0.961,0.466l0.233-0.458l-0.313-0.969l-0.297-0.395l-0.754-0.377l-0.144-0.35l0.081-0.197l1.553-0.206l0.762-0.314
	l0.063-0.026l0.502,0.61l0.467,0.296l0.896-0.09l0.575,0.207l0.367-0.081l0.332,0.126l0.135,0.287l-1.525,1.901l-2.072,0.978
	l-1.938,0.44l-1.274,0.619l-3.346,1.615l-0.019,0.063l-0.368,1.094l-0.277,0.143l-0.358,0.548l-0.637-0.135l-0.745,0.045
	l-1.014,0.368l-2.396,1.148l-0.996,0.377l-2.144,0.807l-4.997,2.565l-1.677,0.799l-0.439,0.036l-0.314,0.35l-0.413,0.081
	l0.055-0.341l0.466-0.368v-0.117l-0.008-0.17l-0.566,0.13l-0.341-0.346l0.135-0.368l-0.287-0.08l-0.305,0.099l-0.117,0.323
	l0.493,1.192l-0.116,0.405l-0.583,0.354l-1.147,0.268l-1.678,0.844l-0.458-0.099l-0.099-0.355l0.296-0.799l-0.044-0.197
	l-0.242,0.027l-0.719,1.453l0.233,0.287l0.18,0.233l-2.603,1.229l-0.457,0.216l-0.573,0.447l-2.333,1.006l-1.175,0.502l-3.409,1.731
	l-1.875,0.762l-0.61,0.108l-0.107-0.126l0.225-0.278l2.396-0.95l1.049-0.602l0.744-0.466v-0.126l-0.341-0.018l-0.224-0.296
	l0.17-0.754l-0.125-0.144l-0.188,0.08l-0.251,1.696l-0.439-0.026l-0.529-0.252l-0.036-1.121l0.358-0.395l-0.313-0.171l-1.015,0.547
	l-0.546-0.026l-0.951-0.412l-1.598,0.018l-0.26-1.176l0.188-0.17l0.879-0.081l0.278-0.027l0.744-0.476l0.565-0.618l0.934-2.027
	l0.341-1.598l2.117-0.215l0.583-0.225l1.83-3.041l0.099-0.162l0.583-1.471l0.225,0.126l0.215,0.529l0.197-0.027l0.458-0.708
	l0.395,0.027l0.341-0.153l0.888,0.305l0.924-0.529l0.242,0.188l-0.628,0.735l0.62,0.198l0.896-0.054l0.278-0.189l-0.01-0.224
	l-0.592,0.019l-0.09-0.225l0.432-0.152l-0.055-0.269l-0.332,0.036l-0.313-0.144l0.021-0.09l0.216-0.861l-1.122-2l0.331-0.395
	l1.238-0.296l0.252,0.333l0.753,2.279l-0.098,0.314l-0.521,0.081l-0.323,0.26l0.095,0.261l0.915-0.216l1.032,0.171l0.672-0.045
	l0.144-0.099l0.18-0.134l0.35-0.664l0.458,0.072l0.188,0.35l-0.071,0.43l0.205,0.215l0.171-0.134l0.467-2.296l0.305-0.862
	l-0.099-0.376l-0.287-0.17l-0.673,0.108l-0.071-0.126l0.125-0.296l0.305-0.17h0.633l1.435,0.332l0.79,0.87l0.578,0.207l0.521,0.054
	l0.853-0.395l0.071-0.198l1.327-1.453l0.368-0.108l1.552,1.265l0.171,0.466l-0.117,1.354l-0.144-0.179l0.018-0.924l-0.232-0.466
	l-0.125,0.188l-0.1,0.771l0.047,0.476l-0.467,0.126l0.072,0.144l0.358,0.062l0.333,0.207l0.224,0.323l0.054-0.431l0.583,0.296
	l0.368,0.592l0.341,1.148l0.313,0.432l0.494,0.295l0.915-0.054l0.96-0.833l0.188-0.879l0.565-0.198l0.287,0.144l0.288-0.502
	l0.305-0.036l0.206,0.421l-0.342,0.951l0.117,0.197l0.358,0.188l0.691-0.179l0.332-0.287l0.071-0.063l0.225-0.448l-0.145-0.395
	l-1.147-0.879l0.035-0.197l0.368-0.144l0.816,0.197l1.112-0.008l0.251-0.144l0.979-0.968l0.206-0.395l0.233-1.149 M48.881,64.668
	l0.395-0.1l0.225-0.376l0.271-0.152l0.933-0.108l-0.207,0.682l-1.31,0.484l-0.377-0.09 M45.978,66.346l-0.099-0.351l0.063-0.717
	l0.458-0.091l0.126-0.225l0.296-0.143l0.17,0.439 M40.641,64.91l0.735,0.376l0.009,0.18l-0.359,0.089l-0.162,0.548l-0.807,0.144
	l-0.063-0.233l0.35-0.422l0.081-0.628 M35.599,66.075l-0.242-0.161l0.44-0.798l0.457,0.376 M37.985,66.614l-0.745-0.521l0.207-0.727
	l0.341,0.317l0.521-0.026l0.296,0.162 M44.83,66.6l-0.152-0.035l-0.512-0.807l1.077-0.126l0.117,0.646 M34.064,66.803l0.53-0.296
	l-0.036-0.422l0.269-0.305l0.332,0.879l-0.162,0.278l-0.403,0.152 M43.242,66.301l0.296-0.337l0.236-0.117l0.107,0.117l0.036,0.557
	l-0.161,0.276l-0.296,0.011l-0.242-0.261 M33.61,66.053l0.027,0.306l0.358,0.484L33.87,67.12l-0.341-0.089l-0.221-0.296l0.006-0.683
	l0.116-0.116 M40.698,66.277l0.296-0.08l0.484-0.189l0.036,0.126l-0.879,0.799l-0.601,0.099l-0.287-0.121l-0.143-0.179l0.107-0.18
	l0.449-0.134 M36.49,67.377l0.054,0.243l0.368,0.403l-0.35,0.106l-0.512-0.196l-0.162-0.216l-0.215-0.367l0.207-0.565l0.485,0.243
	 M31.395,66.82l-0.26,0.368l-0.125,0.61l-0.332,0.036l-0.628,0.601l0.081-0.52l0.476-0.934 M38.285,67.799l-0.215,0.314
	l-0.215-0.171l0.09-0.377l0.421-0.646l0.539,0.019l-0.027,0.43l-0.386,0.162 M34.015,67.458l-0.081,0.251L33.36,67.79l-0.368-0.144
	l-0.224-0.261l-0.09-0.441l0.466-0.04 M35.791,67.936l-0.242,0.457l-0.233,0.054l-0.726-0.503l0.027-0.331l0.305-0.063
	 M33.521,67.909l0.125-0.1l0.377,0.09l0.314,0.296l-0.888,0.538l-0.404-0.341 M133.925,14.108l-0.068-0.691l-0.377-0.099
	l-0.188-0.376l0.227-0.458l0.853-0.117l0.484-0.439l1.86-0.126l0.141,0.242l-1.14,0.084l-0.521,0.287l-0.977,1.558"/>
<path fill="#BDCCD4" d="M141.595,24.887l-0.204-0.239l0.328-1.399l-0.493-1.104l-0.612-0.583l-0.556-0.296l-1.493-0.063
	l-0.388-0.529l0.116-0.323l0.242-0.107l0.502-0.216l0.233-0.26l0.116-0.413l-0.008-0.987l0.52,0.565l-0.242,0.682l0.117,0.215
	l1.219-0.135l1.221,0.538l0.718,0.628l-0.592,0.601l-0.18,0.583l0.287,0.933l-0.055,0.467l-0.493,1.247 M129.017,27.859
	l-0.547-0.098l-0.278-0.306l0.162-0.43l-0.198-0.502l-0.528-0.207l-1.508-1.22l-0.377-0.054l-0.295,0.951l-0.243,0.054l-0.458-0.592
	l-0.663-0.269l-0.188-0.978l-0.287,0.027l-0.081,0.161l0.09,0.619l-0.151,0.251l-0.288-0.144l-0.206-0.619l-0.055-0.78l-0.169-0.107
	l-0.413,0.036l-0.314,0.323l0.161,0.215l0.368,0.027l0.072,0.179l-0.135,0.404l0.188,0.439l0.476,0.404l0.055,0.449l-0.306,0.107
	l-1.156-0.987l-0.216-1.005l-0.431-0.43l-0.099-0.314l0.099-0.27l0.565,0.018l1.022-1.561l0.35-0.036l0.206,0.395l0.395,0.081
	l0.117-0.323l-0.225-0.745l0.072-0.314l0.583-0.332l0.045-0.565l0.232-0.081l0.458,0.431l0.457,0.144l-0.053,0.466l0.099,0.448
	l0.18,0.153l0.861,0.152l0.232,0.395l0.493,0.27l0.969,0.054l0.332,0.144l0.188,0.287l-0.054,0.27l-0.171,0.117l-0.251-0.17
	l-0.628,0.018l-0.618-0.359l-0.323,0.179l-0.126,0.081l-0.152-0.583l-1.031-0.538l-0.081,0.179l0.754,1.4l-0.233,0.081l-0.252,0.323
	l0.359,0.188l0.708-0.341l0.934,0.413l0.296-0.278l0.439-0.018l0.054,0.359l0.565,1.005l-0.556,0.44l-0.019,0.313l0.699,1.454
	 M115.059,34.354l-0.27-0.171l-0.798-1.472l0.081-0.205l1.058,0.16l0.071,1.346 M148.825,5.047l-0.738,0.691l-0.933-0.395
	l-1.076,0.727l-0.225-0.215l0.188-0.545l0.269-0.636l0.296,0.148l0.216-0.206l0.152-0.834l0.332-0.153l0.538,0.162l0.071,0.207
	L147.782,4.5l0.144,0.224l0.467-0.592l0.483-0.287l0.081-0.045l0.099-0.359l-0.116-0.395l0.171-0.295l1.04,0.152l0.78-0.494
	l1.382-0.045l0.197-0.009l0.547-0.78l0.897,0.018l0.161,0.152L153.37,2.84l-0.763,0.045l-0.708,0.403l-1.354,0.216"/>
<path fill="#BDCCD4" d="M145.547-1.313l0.561,0.11l0.564,0.404l0.401,0.096l0.424-0.378l0.055-0.599h-1.378l-0.569,0.209
	 M144.627-1.394l0.354,0.114l0.107-0.274h-1.766l0.326-0.033l0.655,0.539 M137.001-0.356l0.816,0.259l0.609-1.437l0.019-0.146
	h-1.804l-0.035,0.26l0.232,0.296l-0.026,0.533 M133.493,0.053l0.09,0.646l-0.367,0.238l0.807,0.974l0.306-0.034l0.206-0.323
	l0.099-0.831l-0.145-0.987l0.216-0.744l0.717-0.637l0.234-0.045h-0.941l-1.086,1.157 M5.346,56.736l0.099-2.207l0.637-1.237
	l1.193-1.149l0.547-1.104l0.287-1.049l0.467-0.637l0.26,0.296l-0.287,0.125l-0.152,0.233l-0.037,0.233l0.53,0.261l0.332-0.126
	l0.539-0.557l-0.215-0.215l-0.26,0.072l0.278-0.413L9.741,49.3l0.7-0.243l0.458-0.682l0.655-0.224l0.664,0.521l0.332,0.071
	l0.592-0.116l0.117-0.386l-0.179-0.458l-0.682-0.771l-0.179-0.467l0.152-0.205l0.449,0.852l0.816,0.484l0.672,0.628l0.386,0.135
	l0.027-0.466l0.233-0.136l0.565-1.318l0.144,0.216l-0.107,1.013l0.296,0.584l0.529-0.574l1.112-0.09l1.516,0.905l0.072-0.179
	l-0.825-0.602l0.206-0.188l-0.054-0.323l-0.233-0.126l-0.269-0.431L17.169,46.6l0.216-0.297l-0.099-0.323l0.09-0.968l-0.099-1.731
	l-0.242,0.054l-0.485-0.377l-0.009-0.225l0.422-0.143l0.018-0.197l-0.162-0.198l0.188-0.853l-0.135-0.744l0.17-0.116l0.161,0.144
	l-0.054,1.534l0.332,0.134l0.09,0.61l0.458,0.269l0.368,0.755l0.395-0.61l0.072-0.449l0.341-0.34l0.332-0.037l0.341-0.431
	l-0.359-0.143l0.099-0.27l-0.17-0.17l-0.727,0.699l-0.26,0.116l-0.18-0.081L18.3,42.06l0.941-0.69l0.117-0.439l1.094-1.543
	l0.215,0.009l-0.395,0.735l0.072,0.153l0.377,0.008l0.368-0.825l-0.314-1.192l0.081-0.206l0.691-0.009l0.242-0.673l0.27,0.054
	l0.197,0.521l0.323-0.306l-0.063-0.484l0.494-0.592l0.197,0.035l0.242,0.583l0.225-0.447l0.332-0.081l0.296-0.359l-0.036-0.367
	l-0.592-0.44l-0.117-0.242l0.17-0.341l0.216-0.036l0.556,0.484l0.735-0.197l0.539-0.143l0.412-0.825l0.278-0.207l0.018,0.521
	l-0.26,1.005l0.359-0.422L26.938,35l0.009-0.351l1.211-2.161l0.224,0.036l0.107,0.502l0.224,0.063l0.26-0.188l0.341-0.826
	l-0.072-0.179l-0.404,0.52l-0.287-0.063l-0.063-0.162l0.368-0.439l0.152-0.556l-0.063-0.493l0.314-0.727l0.207-0.243l0.17,0.045
	l0.107,0.269l0.224,0.019l0.484-0.341l0.171-0.619l0.798,0.475l0.484-0.036l0.188-0.269l-0.26-0.449l0.162-0.421l0.664-0.018
	l0.251-0.718l0.224,0.941l0.341-0.036l0.413-0.843l0.045-0.987l0.458,0.736l-0.089,0.699l0.296,0.117l0.969-0.619l0.242,0.098
	l0.233,0.682l0.404-0.224l0.502-0.763l0.52-0.117l0.18-0.43l-0.422-1.229l0.251-0.215l0.296,0.61l0.314,0.162l0.18-0.799
	l0.251-0.152l0.144,0.17l-0.099,1.884l0.071,0.421l0.189,0.261l0.565-0.862l-0.26-0.726l0.107-0.521l0.26-0.125l0.539,0.125
	l0.987-0.843l0.35,0.449l0.915-1.687l0.215-0.062l0.054,0.179l-0.484,1.668l0.341,0.251l0.377-0.718l-0.171-0.35l0.547-0.35
	l-0.278-0.27l0.269-0.242l0.288,0.027l0.215,0.343l0.664-0.305l0.288-0.682l-0.09-0.467l-0.099-0.17l0.179-0.134l0.305,0.628
	l-0.197,0.834l0.305,0.269l0.448-0.152l-0.125-0.28l0.332-0.673l0.404,0.045l0.17-0.125l0.063-0.852l0.171-0.207l0.816,0.494
	l-0.018-0.333l0.225-0.395l-0.449-0.179l0.197-0.458L46.8,20.25l0.251-1.561l0.161-0.099l0.036,1.543l0.009,0.134l0.197,0.126
	l0.78,1.184l0.386-0.628l0.117-0.655l0.215-0.099l0.718,0.206l0.394-0.063l0.099-0.143l-0.062-0.288l-0.754-0.493l0.027-0.296
	l0.403-0.27l0.153-0.43l0.233-0.17l0.117,0.592l0.439,0.107l0.135,0.512l0.43,0.18l0.341-0.225l0.358-1.202l0.619-0.009
	l-0.215,0.323L52.343,18.6l0.117,0.188l0.691,0.161l0.52-0.52l0.323,0.009l0.655,0.395l0.188-0.565l0.628-0.144l0.054-0.341
	l0.296-0.17l0.547-0.772l0.484-0.942l0.188,0.107l0.081,0.288l-0.125,0.499l-0.35,0.466l-0.045,0.421l0.287,0.368l0.978,0.144
	l1.184-0.915l0.134-0.386l0.439-1.22l-0.089-0.53l0.152-0.745l0.225-0.305l0.071,0.215l-0.162,0.834l0.368,0.673l0.556-0.816
	l0.202,0.126l0.224-0.054l0.61-0.575l1.875-0.771l0.161-0.251l-0.054-0.305l-0.251-0.143L63.4,11.76l0.395,0.431l0.26-0.198
	l0.144-0.188l0.081,0.242l-0.117,0.79l0.233,0.251l0.062,0.072l0.502,0.018l0.107-0.493l0.386-0.287l0.054,1.426l0.664,0.521
	l0.34-0.152l0.753,0.072l-0.045,0.314l-0.278,0.081l-0.188,0.278l0.287,0.439l1.032-0.413l1.328-0.207l-0.278-0.368l-0.108-0.825
	l-0.466-0.197l0.117-0.449l-0.215-0.233l-0.099-0.664l0.466-0.404l0.395-0.036l0.189,0.35l-0.278,0.664l0.081,0.26l0.331-0.045
	l0.691-1.112l2.125-1.758l0.417-0.426l0.475-0.906l0.314,0.206l0.494-0.718l0.305-0.081l0.054,0.288l-0.78,1.112l0.412,0.341
	l0.377,0.027l0.547-0.431l0.592,0.368l0.269,0.009l0.355-0.332l0.727-1.292l0.978-0.808l0.01-0.61l0.17-0.251l0.628-0.071
	l0.78-1.274l0.771-0.826l1.167-0.422l0.286-0.305l0.152-0.386l-0.25-0.655l-0.055-0.117l-0.484-0.915l-0.834-0.879l-0.225-0.502
	l0.197-0.413l0.197-0.027l0.386,1.014l0.709,0.458l0.7,0.682l0.34-1.274l0.378-0.448l0.556,0.045l0.207-0.278l0.09-0.745
	l0.645,0.574l0.081,0.439l-0.26,0.108l-0.502,0.52l0.071,1.984l0.816,1.489l-0.861,0.888l0.081,0.422l0.359,0.251l0.333,0.003
	l0.905-0.359l1.328-0.17l0.622-0.763l0.278,0.233l0.224,0.009l0.332-0.314l0.107-0.107L88.764,4.8l0.323,0.141l0.17-1.061
	l0.153-0.144l0.381,0.144l0.502-0.072l0.019-0.646l0.609,0.727l-0.224,0.341l-0.568,0.072l-0.1,0.251l0.189,0.368l0.448,0.242
	l0.521-0.69l1.201-0.619l1.006-0.071l0.753-0.377l0.844,0.117l0.026,0.107l0.152,0.556l0.207,0.26l0.305-0.602l0.457,0.539
	l0.385,0.179l0.896-0.627l0.135,0.152L97.5,4.337l0.117,0.264l0.691-0.344l0.269,0.125l-0.754,0.906l0.413,0.789l0.502-0.538
	l0.261,0.43l0.834-0.951l0.136-0.586l0.349-0.036l-0.044-0.359l0.138-0.341l-0.108-0.305l0.458-0.063l0.403-0.422l0.763-0.215
	l0.108,0.125l-0.046,0.422l-0.377-0.099l-0.116,0.278l0.342,0.207l0.663,0.036l2.108-0.583l1.633,0.126l1.041-0.269l0.564,0.448
	l0.583,0.215l0.744,0.951l0.226,0.43l0.16,0.314l0.745-0.125l0.251-0.189l-0.251-0.933l-0.377,0.466l-0.233-0.26l-0.224-1.202
	l0.144-0.225l0.475,0.826l1.086-0.323l0.305,0.072l0.225,0.188l0.161,0.708l0.395,0.314l0.297-0.099l0.492-0.745l0.494-0.359
	l1.202-0.269l0.116-0.359l0.055-0.17l0.296,0.278l0.107,0.511l1.148-0.897l0.502-0.045l0.565,0.355l0.386-0.17l0.565,0.448
	l0.313,0.009l0.457-0.556l0.646,0.17l0.448-0.197l0.207,0.17l0.376,1.184l0.342,0.251l1.417-0.323l1.004-0.459h0.726l0.126-0.188
	l1.391-0.373l0.889-0.35l1.381,0.036l1.176-0.359l1.031,0.09l0.377-0.413l0.396-1.22l0.744-0.727l0.26,0.063l0.439,0.556
	l1.405-2.207H6.441L6.409-1.649l0.664,1.238l0.673,0.538l0.808,1.005l0.296-0.431L9.19,0.836l0.099,0.191l0.247,0.538l0.052,0.637
	L9.24,2.462L8.989,3.35L8.688,3.144L7.666,3.871L7.378,4.427L7.235,5.243L7.48,5.701l0.65,0.036l0.168,0.736l0.359,0.359
	l1.023,0.313l2.063,2.189l0.565,0.601l0.296,0.628l0.099,0.61l-0.179,0.493l-0.44,0.018l0.377,0.906l0.574-0.682l0.054-0.853
	l0.35,0.207l0.745,3.75l0.135,1.417l-0.117,3.417l-0.197,1.014l-0.072,0.386l0.386,1.041l-1.032,7.23l-0.682,0.798l-0.421,2.198
	l-0.027,0.171l-0.771,1.643l-1.229,5.041l-0.224,0.529L9.86,40.076l-0.179,0.431l-0.018,0.53l-0.081,0.528l-0.368-0.026
	l-0.332,0.188l-2.36,5.483 M138.554-0.514l0.565,1.031l0.269,0.057l0.323-0.207l0.718-0.071l0.924,0.144l0.27-0.413l0.708-0.448
	l0.1-0.431l0.439-0.7l-0.027-0.197h-4.046l-0.26,0.79 M148.969-0.26l0.261-1.211l0.206-0.161h-1.391l0.35,1.345l0.278,0.204
	 M159.68-1.654l-0.565,0.7l-0.458,0.099l-1.246-0.313l-0.242,0.655l0.135,0.107l1.327-0.198l1.175,0.251l1.67-0.996l0.825-0.26
	v-0.117h-2.477"/>
</svg>
