<?xml version="1.0" encoding="utf-8"?>
<!-- Generator: Adobe Illustrator 21.1.0, SVG Export Plug-In . SVG Version: 6.00 Build 0)  -->
<svg version="1.1" id="Layer_1" xmlns="https://www.w3.org/2000/svg" xmlns:xlink="https://www.w3.org/1999/xlink" x="0px" y="0px"
	 viewBox="0 0 153 64" style="enable-background:new 0 0 153 64;" xml:space="preserve">
<style type="text/css">
	.st0{fill:#BAC9CF;}
</style>
<title>Group</title>
<desc>Created with Sketch.</desc>
<g>
	<polygon class="st0" points="23.5,29.9 25.4,31.1 27.2,32.1 29.5,32.5 31.1,32.9 31.8,33.5 32.7,33.1 32.7,31.9 31.8,30.5 
		30.4,29.7 28.3,29.3 26.9,28.1 25.4,27.5 23.6,26.9 21.7,26.3 20.1,26.6 19.5,27.5 20.6,29.1 21.9,29.9 	"/>
	<polygon class="st0" points="66.2,61.8 65.4,62.4 65.4,63.3 66.6,63.8 67.7,63.3 67.1,62.5 	"/>
	<polygon class="st0" points="10,49.3 8.7,48.8 8.7,49.3 9.8,50.4 11.6,50.4 12.6,50 11.6,49.3 	"/>
	<polygon class="st0" points="8.2,36.2 9,35.5 8.7,34.7 6.8,34.7 5.9,35.7 6.9,36.2 	"/>
	<polygon class="st0" points="141,48 138.4,47.3 138.1,47.5 138.4,48.4 139.4,49.4 141,49.4 142.1,49 143.1,49.4 144,49.4 143.2,48 
			"/>
	<polygon class="st0" points="29.1,-2 30.1,-1.8 31.2,-1.5 32.2,-1.4 33,-1 34.1,-0.9 35.4,-0.6 37.3,-0.6 37.1,-1 36.3,-1.7 
		35.3,-2 34.5,-2.5 33.2,-2.8 32.1,-3 30.4,-3 28.2,-2.6 28,-2.3 28.4,-2 	"/>
	<g>
		<polygon class="st0" points="54,36.1 53.3,35.4 53,34.9 52.8,34.8 53,35.3 		"/>
		<polygon class="st0" points="55.2,37.3 55.2,37.3 54.8,36.9 54.9,37.4 		"/>
		<path class="st0" d="M59.9,6.1v0.2l-0.3,0.3h-0.1c-0.1,0-0.4,0-0.6-0.2l0,0h-0.1v0.1l0.4,0.4l0.1,1.2L59.2,9l1.4,2l-0.3,0.8l0.5,1
			l-0.5,1.1V15h-0.8l-1,0.6l-0.3,0.1l0.1,0.1l0.3,0.5l1.6,1.3l1.7,0.2L62,21l-0.2,0.7L60.3,22l-0.1,0.9l-1.7,0.9L58,25.1h0.2
			l0.6,1.4l1.1,0.9l-0.1,3.8l-0.4,0.6L58.6,32l-0.5,0.5L58,32.7l-0.3,1.6l-1.8,0.1L55,33.9l-0.7,0.2l-0.7-0.4L53,34.1l0.5,0.2
			l0.4,0.8l2,1.9v1h-0.5v0.1l1.3,0.6l0.7,1l3.5,1.6l-2.3,4.3c0,0.1,0.1,0.1,0.1,0.2l0.1,0.1c0.1,0,0.2,0.1,0.2,0.2l0.1,0.1
			c0,0,0.1,0,0.1,0.1h0.1l0.4,0.4v0.9c0,0.1,0.1,0.1,0.1,0.2l0.1,0.1V48c0.1,0.1,0.1,0.2,0.1,0.3v0.3c0,0.1-0.1,0.3-0.1,0.3
			c0,0.1-0.1,0.1-0.1,0.2c0,0.1-0.1,0.1-0.1,0.2v0.1v0.1v0.1c0.2,0,0.4,0.2,0.4,0.5V50l0.3,0.2h0.5l-0.1,0.3l0.9,0.7l0.1,1.8
			l0.9,1.5l-0.8,1.3L61.5,57l1.2-0.1h2.2l1.3,1.8l1,1.9h1l1.2-1.5l1.1-2.8l1.2-1.3l0.9-1.1l1-1.5l1.8-2.5l1.6-1.3l0.8-2.4l-0.9-1.5
			l-0.2-1.5l1.3-0.8l1.3,0.4l0.9,1.3h1l1.4-1.5l1.8-1.1l1.8-0.1l0.9-1.1l0.8-0.9l1.8,0.2l0.6,1.6L90,43.5l1,0.8l0.7,1.1H93l2.2-0.8
			l1.9-0.2l2.4,0.1l1.7,0.2l1-1.7l0.9-0.6l1.1-1.7l1.2-1.3l1.5-0.3l1.8-0.8l3,0.1l1.8,0.3l0.5,0.9l1,0.4v-0.9l0.9-0.4l1.2,1l1.3,0.3
			l2.5-0.5l1.8-0.1l0.6-0.6l0.8,0.2l1.7-0.3l0.8,0.6l2.5,0.8l2.4,0.1l1.3-0.4l1.4,0.2l1.4,0.7l1,1.3l2,3.3l2.3-0.5l0.4-1.6L142,42
			l-0.4-0.8l0.7-0.5l2.6,0.9h1l0.3-1.5l0.6-1.2l2.6-3.1l0.3-1.3l-1.2-1l-2.4-2l-3.4-2.1l-2.8-3.1l-1.8-0.9l-2.2-0.9l-1.7-0.8
			l-2.3,0.3l-1,0.4h-2.3l-1.5-0.4h-1.6l-1.4-0.7l-1.7-0.3l-0.3-0.8l-1-0.6l-0.8,0.6h-4.8l-0.2-1.8l0.3-1.8l0.8,0.3h1.8l2.8,1
			l2.3-0.6l2.9,0.6l0.8-1.4l1.2-1.3v-0.8l-1.7,0.8l-1.1-0.5l1.1-1.5l-0.7-0.3L123,16v0.8l-2.4-0.8l-2.8-0.1l-1.1,0.7l-1.6,0.1
			l-1.9,0.4l-1.4-0.3l-1.4-1.2l-0.8-1.3l-0.8-1.8l0.3-1.2l-0.8-1.3l0.3-1.3l-0.8-1.3L106,6.7L104.3,7l-1.2,1.3h-1.4l-1.5-0.8H98
			l-2-1.3L94.4,4l-1.6-0.2l-0.9,0.7l-2.3-0.3l-2.2-0.9l-2.9-1.8l-2.2-0.9L80,0.2l-2.3,0.3l-2.1,1.3H74l-0.5,1h-2.4l-3.3-1.5
			l-2.4-0.7l-3.2,0.5l-2.4,2.3l0.4,1.8l-0.4,0.7C59.9,5.9,59.9,6,59.9,6.1z M64.1,37.4l1.9,0.9v0.9l-2.9,0.6l-1.6-0.6l-1.8-0.9
			l-2-0.5l-0.8-1l0.3-0.5l1.3,0.8l0.8-0.3l1-0.9l1.6,0.5L64.1,37.4z"/>
		<polygon class="st0" points="56.8,24.6 56.6,24.8 57.8,25.1 57.3,24.6 		"/>
		<polygon class="st0" points="55.9,25.2 56.2,25.1 56,25.1 		"/>
		<path class="st0" d="M58.9,48.8v-0.4h0.2v-0.2h0.1v-0.1L59,48v-0.1l-0.1-0.1v-0.4v-0.6c0,0-0.1,0-0.1-0.1h-0.1l-0.4-0.3
			c-0.1,0-0.2-0.1-0.2-0.2l-0.2-0.1V46l-0.1-0.1l-0.2-0.2l2.2-4.1l-2.9-1.4l-0.7-1l-1.5-0.7v-0.2h-0.8l0,0L53.2,37h-1.3L51,35.2
			l0.6-1.8h1.2l0.8-0.5l0.8,0.4l0.7-0.2l1,0.5l1-0.1l0.3-1.4l0.4-0.3l0.5-0.6l0.6-0.3l0.2-0.2l0.1-3.1l-1-0.8l-0.5-1.2l-0.9-0.2
			l-0.1,0.2l-1.9,0.5l0.8-1.9H56l0.4-0.5h1.2l0,0l0.3-0.6l1.5-0.9l0.1-1.1l1.7-0.3v-0.1V20v0l0.1-0.1v-1.4L60,18.3l-1.9-1.6
			l-0.3-0.5l-1.2-1l1.8-0.3l1-0.6h0.3v-0.7l0.4-0.9l-0.5-1l0.3-0.8L58.5,9l0.1-1.1l-0.1-0.8L58,6.7V5.9l-0.7-0.1l-3.6-0.6l-0.6,1h-1
			l-0.3-0.6l-1.6-0.8L48,4.7L47.1,4l-1.8,0.8v0.8h-0.7l-0.3-1l-1.1-1l-3.5-1L38,0.7h-1.4l-4.9-1.4L29,0h-3.1h-3.4l-1.3,1.2l-2.4,0.9
			L18,2.3L16.7,2l-0.3,0.4l0.5,0.8l-1.3,0.2l-0.8,1.3L15,6.6l1.5,1.1l1.9,0.1L20.6,8L21,7l1.1,0.4L23.3,8l0.6-0.5L26,8.4l2,0.8
			l2.8,1.3l1.8,1.5l1,0.4h1l0.2,1.7l-1.2,0.3L33,15l1.2,0.5l-0.3,1.2l-1.3,0.8l-0.5,1.2l1,1.3l1.6,0.7l-0.1,1.1L33.4,22L32,22.1
			L31.3,23l1.4,0.8l0.9,1l1.5,1l1.8,1.8l2.4,2.9l1.3,0.2l0.3,1.1l1.4,0.2l2.4,0.5l-0.2,0.8L44,33.8l0.2,1l-0.7,1.6H42l-1.5,0.1
			L38.8,36l-1.7,0.3l-1.9,2.8l-1.9,0.2l-2-0.3l-0.8,0.6l-1.1-0.1l-0.2-0.8l-1.1-0.2l-2.3-0.1L24.3,39l-0.8-0.8l-1.7-0.6L20.2,38
			L18,37.5L15.5,37l-2.7,0.3l-3.1,0.3l-0.9-1l1.3-0.3l1.1-0.3L11,35.1l-2.9,0.6l-1.4,1.1l-1.8-0.9H3l-1.9-1.1l-2.3-0.2l-1.2-0.9
			L-5,32.8l-1.3,0.5l-0.8-0.4l-3.2,1.3l0.2,0.7l-0.8,1l-0.1,1l-0.7,1.2V41l1.1,0.6l0.8,0.7l1.3,0.8h1.3l1.1-0.6l1.4,0.1l0.9,0.9
			l1.8,0.8l2,1.6l1.6,1.3l0.6,1.4l1.2,1.2L5,50l1.3-0.1L6,49.1L4.6,48v-0.8l1.1-1L7.9,45l1.7-0.3l1.8-0.4l1.7,0.1l2-0.5l1.6-0.1v0.7
			l0.9,0.4l1.9-0.3L22,45l2.2,0.2l2.4,1.1H30l2.3,0.5l0.8-0.5l1.4-0.4l1.5-0.3l1.9,0.7h0.8l-0.6-1.5l0.3-0.6l1.3,0.6l2.1-0.3h2
			l0.9,0.4l0.8-0.3l1.3,0.3l1.8-0.6H51l2.1,0.4l1.3,1l2.3,0.9l2.2,2.5c0-0.1,0-0.1,0.1-0.2C58.9,48.9,58.9,48.9,58.9,48.8z"/>
		<polygon class="st0" points="54.8,36.8 54,36.1 54.8,36.9 		"/>
		<polygon class="st0" points="52.8,34.8 52.8,34.7 52.8,33.4 52.7,33.4 51.4,34.2 		"/>
		<polygon class="st0" points="54.6,38.3 55.2,38.3 54.9,37.4 54.6,37.4 		"/>
	</g>
</g>
</svg>
