<?xml version="1.0" encoding="utf-8"?>
<!-- Generator: Adobe Illustrator 16.0.4, SVG Export Plug-In . SVG Version: 6.00 Build 0)  -->
<svg version="1.2" baseProfile="tiny" id="Layer_1" xmlns="https://www.w3.org/2000/svg" xmlns:xlink="https://www.w3.org/1999/xlink"
	 x="0px" y="0px" width="151px" height="64px" viewBox="0 0 151 64" xml:space="preserve">
<title>Group</title>
<desc>Created with Sketch.</desc>
<path fill="#BAC9CF" d="M104.423,0.505l0.539-0.066l0.056-1.189v-1.09l-0.078-0.76l0.1-0.826l0.198-1.266l0.892-0.441l1.146,0.121
	l1.706,0.694l0.947,0.375l0.76,0.506l0.253,0.319l0.441-0.76l0.286,0.121l-0.154,1.057v0.771l0.242,0.947l0.109,0.627l-0.309,0.253
	l-1.32-0.187l-0.694,0.187l-0.572,0.507l-0.187,0.947l0.318,0.881l-0.188,0.826l-0.253,1.079l0.122,0.947l0.572,0.628l0.154,1.134
	l0.319,0.792v0.792l-0.684,0.44l0.628,1.102l-0.197-0.892h0.329l0.375-0.517l0.066-0.881l-0.221-0.352l-0.319-0.528V6.098
	l0.11-0.627l-0.474-0.627l-0.188-0.693l0.066-1.013l0.254-0.76l-0.188-0.506l0.188-1.2l0.88-0.286l1.024-0.066h0.561l0.188,1.542
	l0.572,2.06l0.44,2.334l0.319,0.441l0.121,1.519l0.507,1.521l1.266,2.972l1.332,2.907l0.188,0.76l0.628,0.76l2.146,3.854
	l1.079,1.585l0.629,0.881l0.12,1.134l-0.187,0.572l-0.188-0.44l0.121-0.693l-0.507-0.44l-0.319,0.572l0.066,0.76l0.121,0.573
	l0.253,0.759l-0.187,1.233l-0.254-0.891h-0.253l-0.253-0.671l-0.375-0.849l-0.375-1.145l0.122-0.825l-0.44-0.507l0.187-0.44
	l-0.065-0.947l-0.76-0.44l-0.088,0.627l0.253,0.881v1.024l0.452,1.134l0.439,1.134l0.518,0.946l1.079,2.082l0.386,1.387l0.826,1.52
	l0.693,1.839l0.76,1.52l0.253,1.376l0.627,1.851l0.76,1.64l0.573,1.2l0.881,1.586l0.1,2.214l0.33,1.023v3.148l-0.484,1.784v1.63
	l-0.319,1.585l-0.286,2.202v2.632l-0.364,0.342v-0.464l-0.44-0.252l-0.297,0.572l-0.595,0.518V60.7l-0.595,0.254l0.265,2.147
	l-0.628,0.572l-0.375,0.66l-0.12,0.649h0.374l0.253-0.716l0.474-0.451l0.342-0.154v0.397l-0.44,0.572l-0.386,0.76l-0.308,0.693
	l-0.507,0.572l-0.628,0.76l-1.2,1.134l-0.506,0.375l-0.188-0.319l0.947-0.825l0.604-0.827l0.573-0.771v-1.123l-0.848,0.275h-0.705
	l-0.375,0.584l-0.792,0.274l-0.528-0.858v0.54l-0.363-0.319l-1.2-0.11v0.418c0,0-0.705,0.188-0.893,0.253
	c-0.187,0.066-0.781,0-0.781,0s-0.815-0.506-0.914-0.572s-0.66-0.572-0.66-0.572l0.286-1.387l0.319-0.309v-0.375l-0.331-0.572
	l-0.473-1.2l0.517-0.44l-0.726-0.253l-0.066-0.518v-0.495l-0.518-0.507l0.605-0.44l-0.496-0.188l-0.439,0.628l-0.254-0.914
	l-0.342-0.374h-0.538l-0.672-0.484h-0.485V56.77l-0.528-0.341l-0.484-0.221l-0.616,0.221l-0.319-0.033l-0.507-0.881l-0.44-1.2
	l-0.319-2.335l-0.572-1.959l-0.375-0.066l-0.627-0.44l-1.046-1.2l0.297,1.023v0.617l-0.737,0.374l-1.068-0.572l-0.188-1.002
	l0.386,0.539l0.396,0.529h0.495l0.066-0.749c0,0-0.254-0.616-0.572-0.738c-0.319-0.12-0.066-0.704-0.066-0.704l-0.188-0.572
	l-0.374-0.133l-0.374,0.694c0,0-0.253-0.76-0.507-0.882c-0.254-0.12,0.121-0.759,0.121-0.759l0.44,0.088l0.605,0.386h0.859
	l0.319-1.333l-0.319-0.639l0.76-1.146l-0.694,0.44l-0.672-0.318l-0.396,0.065l-0.065,0.793l0.462,0.826h-1.606l-0.628-1.091
	l-0.529-0.858l-0.507-1.277l-0.373-0.451l-0.121-1.146l-0.694-0.639l-0.121-1.134l-0.319-0.76l-0.507-0.253l0.319,1.013
	l-0.627-0.572l-0.121-0.76l-0.693-1.002l0.571,0.088h1.003l0.253-0.991l0.507-0.616l0.726-1.212l0.519-0.562v-1.398h-0.551
	l-0.066,0.573l0.066,0.616l-0.573-0.133l-0.506-0.065l0.253-0.76l-0.253-0.572l-0.573-0.627L98.113,30.3l-0.319,0.506l-0.507,0.44
	l0.507,0.253l0.572,0.253l0.375,0.331l-0.253,0.935l-0.122,0.541l-0.198,0.627h-0.946l-0.44-0.958l-0.507-0.44l-0.254-0.682
	l-0.12-1.09l0.374-0.892l0.374-0.826l-0.065-0.881l0.573-1.013l0.12-0.881l0.253-1.133l0.44-0.761l-0.065-1.134l-0.066-0.573
	l0.253-0.506l0.32-0.605l-0.144-0.98h-0.177l-0.253-0.386l-0.374-0.396l0.209-0.308h0.551l-0.254-0.407l-0.297-0.551h-0.517
	l-0.254-0.363l0.121-0.485l0.253-0.517l-0.506-0.606l-0.188-0.683h-0.639l-0.804-0.364h-1.387l-0.166-1.112l-0.374-0.33h-0.617
	l-0.374-0.671l-0.188-0.947l-0.496-0.43h-0.517l-0.793-0.627l-0.506-0.33V9.566L89.481,9.27h-0.496L88.92,8.752l-0.441-0.122
	l-0.407-0.066L87.675,8.19V7.078l-0.913-0.759l-0.761-0.76l-0.979-0.375L84.24,4.81l-0.693-0.507l-0.32-0.286l-0.495,0.055h-0.583
	l-0.298-0.297l-0.319,0.418l-0.507-0.066l-0.44-0.253l-0.253,0.375l-0.627,0.187l-0.375,0.22l0.055,0.628h-0.506l-0.319,0.297
	l0.539,0.066l0.396,0.11v0.507l-0.562,0.121l-1.211-0.187L76.4,6.958l-1.321,0.627l-0.694,0.627l-0.76,0.066l0.132-0.627
	l-0.429,0.121l-0.451,0.44l-0.573,0.066l-0.066,0.727l-0.682,0.121h-0.771l0.254,0.341l0.319,0.418l0.88-0.132l3.094-1.267
	l-0.44,0.374l-0.572,0.441l-0.507,0.286l-1.784,0.749h-0.804l-0.76-0.616l-0.44-0.529l-1.079-0.044l-0.165,0.584h-0.65l0.055-0.628
	l0.584-0.507l0.065-0.749l-0.374-0.826l-0.573-0.926l-0.661-0.462h-0.605l-0.243-0.54l-1.464-0.848l0.628-0.132l0.572,0.275
	l0.749,0.76h0.573l0.022-0.484h-0.595l-0.253-0.506l-0.474-0.342h-1.872l-0.319-0.496l0.121-0.286l0.319-0.385l0.319-0.32
	l0.375-0.319l0.573,0.066l0.187-0.661l0.166-0.484h-0.418l-0.066,0.639l-0.506,0.143l-0.441,0.122L64.2,1.771l-0.375-0.253
	l-0.693-0.132l-0.319,0.187l0.374,0.628l0.507,0.066l0.187,0.44l-0.374,0.319l-0.573-0.374l-0.628-0.254l-0.693-0.44L58.32,0.824
	L56.36,0.45l-1.387-0.121l0.628-0.253l0.627-0.121l0.947,0.253l0.573-0.187l0.572-0.188l0.694,0.188l0.572,0.374l0.375-0.187
	l-0.506-0.573l-0.627-0.374l-0.628-0.188l-0.694,0.122l-0.506,0.319l-0.627-0.066l0.066-0.319l-0.32-0.187l-0.506-0.066
	l-0.188,0.441l-0.627,0.253l-0.44-0.066l0.066,0.693L53.795,0.13l-0.881,0.066l-0.88,0.121l-0.947,0.253l-1.079,0.066l-1.013,0.319
	l-0.506-0.253l0.319-0.44l0.44-0.253l0.628-0.066l0.627-0.253l0.572-0.319l-0.374-0.187l-0.628-0.319L50.007-1.51l0.188-0.507
	L49.875-2.27l-0.188,0.627l-0.253,0.628l-0.286,0.374l-0.331-0.11v-0.716l-0.452-0.572L48.092-2.16l0.065,0.627l0.198,0.319
	l-0.121,0.694l-0.121,0.76l-0.066,0.573l-0.375,0.253l-0.506-0.099l-0.022-0.396h-0.418l-0.253,0.275l-0.165,0.44h-0.529
	l-0.947,0.264l0.066-0.473l0.44-0.485l0.242-0.506h0.484l0.253-0.462L46-0.508l-0.506-0.066l-0.319-0.639l0.033-0.639l0.341-0.473
	v-0.661L45.46-3.635l-0.672-0.363l-0.374-0.44L43.94-4.946l-0.804-0.385v-1.2C43.5-6.906,43.258-7.5,43.258-7.5h28.903l0.474,0.727
	v2.279l0.727,0.496h1.794L102.1-2.27l0.45,0.594l0.431,0.683v0.649l0.407,0.771L104.423,0.505L104.423,0.505z M125.476,61.516
	l-0.298,0.44l-0.297,0.693v0.518l0.297-0.452l0.298-0.627V61.516z M118.891,68.926l-0.496,0.737l-0.373,0.363h0.483l0.363-0.297
	v-0.309L118.891,68.926z M117.052,70.511h-0.728l-0.274,0.363h0.518L117.052,70.511z M113.319,71.59v0.363l0.396-0.176
	L113.319,71.59z M103.685,72.559v0.606h0.727v-0.606l-0.363-0.032L103.685,72.559z M107.297,72.559v0.727h0.957l0.705-0.153
	l0.572-0.298l0.947-0.298l0.44-0.571l0.693-0.364l0.672,0.364l0.539-0.177v-0.539h-0.473l-0.221-0.484h-0.495l-0.319,0.407
	l-0.375,0.044l-0.814,0.396l-0.407,0.176v0.177l-0.605,0.604h-1.212l-0.22-0.583L107.297,72.559L107.297,72.559z M109.069,71.646
	l0.396,0.132V71.48h-0.363L109.069,71.646z M108.386,57.034v0.363h0.728l-0.012-0.363H108.386z M97.276,34.792l-0.386,0.572h0.893
	L97.276,34.792z M76.004,8.29h0.848l0.264-0.727h-0.506L76.004,8.29z M67.657,6.979l-0.396,0.584l0.363,1.2h0.44l-0.396-0.892
	l0.396-0.649L67.657,6.979z"/>
</svg>
