<?xml version="1.0" encoding="utf-8"?>
<!-- Generator: Adobe Illustrator 22.1.0, SVG Export Plug-In . SVG Version: 6.00 Build 0)  -->
<svg version="1.1" id="Layer_1" xmlns="https://www.w3.org/2000/svg" xmlns:xlink="https://www.w3.org/1999/xlink" x="0px" y="0px"
	 viewBox="0 0 153 64" style="enable-background:new 0 0 153 64;" xml:space="preserve">
<style type="text/css">
	.st0{fill:#BAC9CF;}
</style>
<title>Group</title>
<desc>Created with Sketch.</desc>
<g>
	<path class="st0" d="M71.1-3.3c5.1-0.1,10.2-0.1,15.3-0.2v0.9c-0.3,0.1-0.5,0.2-0.8,0.4c-0.7,0.7-1.3,1.3-2,2
		c-0.1,0.5-0.2,0.9-0.3,1.4c0.5,0.5,1,1,1.5,1.4c0.2,0,0.4,0,0.7,0c0.5,0.5,1.1,1.1,1.6,1.6c0.8,0.1,1.5,0.2,2.3,0.3
		c0.5,1,1,2,1.5,3.1C90.9,8.1,91,8.7,91,9.2c0.4,0.4,0.9,0.7,1.3,1.1c0,0.2-0.1,0.3-0.1,0.5c0.2,0.2,0.5,0.5,0.8,0.7
		c0.1,0.4,0.1,0.8,0.2,1.2c0.2,0,0.4,0,0.7,0.1c0.3,0.3,0.6,0.7,0.9,1c0.6,0.3,1.2,0.6,1.8,0.9c0.3,0.3,0.6,0.6,0.9,0.9
		c0.2,0.7,0.4,1.3,0.5,2l1.2,0.7c0.6,0.5,1.1,1.1,1.7,1.6c0.1,0.7,0.3,1.4,0.4,2c0.4,0.2,0.7,0.4,1.1,0.5c0.1,0.5,0.3,0.9,0.4,1.4
		h0.7c0,0.3,0,0.5,0,0.8c1,0.7,2.1,1.4,3.1,2.1c0,0.4,0.1,0.9,0.1,1.3c0.2,0.5,0.4,1,0.7,1.6c0.2,0.4,0.4,0.8,0.5,1.2
		c0,0.7,0,1.4,0,2.1c0.4,0.3,0.9,0.6,1.3,0.8c0.4,0.3,0.7,0.7,1.1,1c0.1,0.4,0.1,0.7,0.2,1.1c0.2,0.4,0.4,0.8,0.5,1.2h0.5
		c0,0.9,0,1.9,0,2.8c0.3,0.3,0.5,0.6,0.8,0.9l0.6-0.2c0.5,0.3,0.9,0.7,1.4,1c0,0.1,0,0.2,0,0.3c0.2,0,0.5,0,0.7,0.1
		c-0.1,0.2-0.2,0.4-0.2,0.6c-0.3,0.2-0.5,0.4-0.8,0.5c-0.1-0.4-0.2-0.7-0.3-1.1c-0.1,0.3-0.3,0.6-0.4,1c0.1,0.2,0.3,0.4,0.4,0.6
		c-0.2,0.3-0.5,0.5-0.7,0.8c-0.3-0.2-0.6-0.3-1-0.5c-0.2-0.2-0.3-0.3-0.5-0.5c0,0.1,0,0.2,0,0.3c0,0.1,0.1,0.1,0.1,0.2
		c-0.1,0.1-0.2,0.2-0.4,0.3c-0.2-0.2-0.4-0.5-0.6-0.7c0,0.1-0.1,0.1-0.1,0.2c0.1,0.1,0.1,0.2,0.2,0.2c-0.1,0.5-0.2,1.1-0.3,1.6
		c0.2,0,0.3-0.1,0.5-0.1c0.1-0.2,0.1-0.5,0.2-0.7c0.2-0.1,0.5-0.1,0.7-0.2c0.2,0.1,0.3,0.3,0.5,0.4c-0.3,0.5-0.7,0.9-1,1.4
		c-0.3-0.1-0.5-0.2-0.8-0.2c0,0.2,0,0.5,0,0.7c-0.4,0.1-0.7,0.2-1.1,0.3v-0.4c-0.3-0.1-0.5-0.3-0.8-0.4c0.2,0.3,0.3,0.6,0.5,0.9
		c0.3,0.2,0.5,0.3,0.8,0.5c-0.1,0.4-0.2,0.7-0.2,1.1c-0.1,0.1-0.3,0.2-0.4,0.3c0-0.2,0-0.4,0-0.7c-0.2,0.2-0.3,0.3-0.5,0.5
		c0.1,0.1,0.2,0.2,0.4,0.3c0,0.3,0,0.5,0,0.8c0.3-0.2,0.6-0.5,0.9-0.7c0.2,0.1,0.5,0.1,0.7,0.2c-0.4,0.6-0.9,1.2-1.3,1.8
		c-0.1-0.2-0.2-0.4-0.3-0.7c-0.1,0-0.1,0.1-0.2,0.1c0.1,0.5,0.2,1,0.3,1.5c-0.4-0.1-0.8-0.1-1.3-0.2c0.3,0.2,0.5,0.3,0.8,0.5
		c0.2,0.4,0.3,0.8,0.5,1.2c-0.2,0.1-0.3,0.2-0.5,0.4c-0.7,0.4-1.3,0.8-2,1.3c-0.1,0.3-0.3,0.5-0.4,0.8c0.1,0.1,0.2,0.2,0.3,0.4
		c0.1,0.2,0.2,0.3,0.3,0.5c-0.2,0.1-0.4,0.1-0.7,0.2c-0.4,0-0.9,0-1.3-0.1c0.4,0.2,0.9,0.4,1.3,0.5c0.1,0.4,0.3,0.8,0.4,1.1
		c0,0.1,0,0.2,0,0.3c-0.2,0-0.5,0-0.7,0c0.2,0.4,0.3,0.7,0.5,1.1c0,0.3-0.1,0.5-0.1,0.8c-0.1,0.1-0.2,0.3-0.4,0.4
		c-1.7-0.6-3.3-1.2-5-1.8c-0.2,0.3-0.3,0.5-0.5,0.8c-0.2-0.1-0.4-0.2-0.6-0.3c-0.1,0.5-0.1,0.9-0.2,1.4c0.1,0.7,0.3,1.4,0.4,2.2
		c-0.1,0.9-0.3,1.9-0.4,2.8c-0.6,0-1.1,0.1-1.7,0.1c-0.2-0.2-0.3-0.5-0.5-0.7c0-0.8,0-1.6,0-2.4c-11.2-0.7-22.4-1.4-33.6-2.2
		c-0.2-0.2-0.4-0.4-0.6-0.6c-0.1-0.7-0.2-1.5-0.3-2.2c-0.3-0.7-0.6-1.3-1-2c-0.1-0.4-0.2-0.8-0.3-1.2c-0.3-0.4-0.6-0.7-0.9-1.1
		c0.3-2,0.6-4,0.8-6.1c-0.4-0.5-0.8-1-1.2-1.5c-0.1-0.8-0.1-1.5-0.2-2.3c0.4-0.8,0.8-1.6,1.2-2.4c0-0.6,0-1.2,0-1.8
		c0.6-0.5,1.2-0.9,1.8-1.4c-0.3-0.6-0.6-1.3-0.9-1.9c0.1-0.4,0.2-0.8,0.3-1.3c-0.5-1-1.1-2-1.6-2.9c-0.2-0.6-0.4-1.2-0.6-1.8
		c0.1-0.2,0.1-0.3,0.2-0.5c-0.2-0.2-0.3-0.5-0.5-0.7c-0.2-0.8-0.3-1.6-0.5-2.4c-0.2-0.9-0.3-1.9-0.5-2.8c-1.5-9.2-4.5-27.6-4.5-27.6
		C54.9-3.3,54.9-3.3,71.1-3.3L71.1-3.3z"/>
	<polygon class="st0" points="107,55.8 107.6,56.4 107.9,56.3 108,55.6 	"/>
	<polygon class="st0" points="110.3,47.4 111.2,48.3 111.4,46.7 110.8,47.2 	"/>
	<path class="st0" d="M107.8,57.3c-0.1,0.3-0.3,0.5-0.4,0.8c-0.1,0.3-0.2,0.5-0.3,0.8c0,0.1,0,0.3,0,0.4c0.2,0.1,0.4,0.2,0.6,0.3
		c0-0.3,0.1-0.7,0.1-1c0.1-0.3,0.1-0.6,0.2-0.9L107.8,57.3z"/>
</g>
</svg>
