<?xml version="1.0" encoding="UTF-8"?>
<svg width="125px" height="64px" viewBox="0 0 125 64" version="1.1" xmlns="http://www.w3.org/2000/svg" xmlns:xlink="http://www.w3.org/1999/xlink">
    <!-- Generator: Sketch 47 (45396) - http://www.bohemiancoding.com/sketch -->
    <title>Page 1</title>
    <desc>Created with Sketch.</desc>
    <defs></defs>
    <g id="Page-1" stroke="none" stroke-width="1" fill="none" fill-rule="evenodd">
        <g id=".old" transform="translate(-244.000000, -246.000000)">
            <g id="sidebar-body" transform="translate(30.000000, 245.000000)">
                <g id="Group">
                    <g id="bg" transform="translate(169.000000, 1.000000)">
                        <g id="Page-1" transform="translate(45.000000, -33.000000)">
                            <g id="Group-3" transform="translate(0.000000, 0.003321)" fill="#BAC9CF">
                                <path d="M129.921241,65.2124361 C129.940456,35.9852099 109.574106,9.62059307 81.2955474,2.28104927 C52.290365,-5.24732664 21.3795438,8.51179745 7.3820073,34.9388047 C-6.72607664,61.5745712 -0.0927554745,95.3171624 22.8439416,114.777308 C45.5083029,134.006159 79.737208,135.377801 103.621387,117.450611 C119.960347,105.186487 129.934763,85.7265785 129.921241,65.2124361" id="Fill-1"></path>
                            </g>
                            <polygon id="Fill-4" fill="#FFFFFF" points="33.291719 47.3808248 34.3820109 47.5371569 35.1648577 47.664073 35.5273394 47.2244927 34.3746569 46.6432883 34.8778139 46.4328686 34.2947117 46.406062 34.243708 45.9970839 32.829365 45.811573 32.3475584 48.1534708 32.414219 48.2464635"></polygon>
                            <path d="M45.7016186,118.540002 L44.7750128,118.614016 L45.0566004,119.044108 L45.7016186,119.044108 L45.5607062,119.481553 L46.4282427,119.69648 L46.2873303,119.837392 L46.0721661,119.622228 L45.9981515,119.770495 L45.1308522,119.481553 L45.7756332,119.770495 L45.420031,119.770495 L45.2717646,119.622228 L44.7750128,119.770495 L47.9405602,120.052319 L48.7411989,119.911407 L46.7914361,119.325932 L45.7016186,118.540002 Z M41.8096843,116.946078 L42.0246113,117.161243 L41.7430237,117.279856 L41.8096843,116.946078 Z M41.7354325,116.731151 L41.8096843,116.731151 L42.5953777,116.872064 L42.0912719,116.946078 L42.2395383,117.161243 L41.7354325,116.731151 Z M46.5765091,97.6491442 L49.0970383,97.945677 L46.1390639,97.8790164 L45.8572391,99.3913339 L45.7756332,99.8287792 L45.9165456,100.332885 L45.9981515,100.985257 L45.7016186,101.415111 L45.2717646,102.208396 L45.7016186,103.298214 L45.2048668,102.141735 L45.7016186,101.415111 L45.7016186,101.200184 L45.5607062,100.762739 L45.5607062,100.547812 L45.4866916,100.332885 L45.8572391,100.332885 L45.7016186,99.6062609 L45.8572391,99.3913339 L46.0721661,97.8790164 L46.5765091,97.6491442 Z M29.7407974,71.6508047 L29.9557245,71.7174653 L29.3773668,71.8657318 L29.7407974,71.6508047 Z M34.9374763,70.9241807 L36.8872391,70.9241807 L38.0437172,72.1475566 L39.3558157,72.8072828 L40.0674945,72.3698376 L38.9110164,73.2371369 L38.8443558,72.8072828 L39.1259434,72.733031 L37.6878777,72.0066442 L37.6136259,72.2215712 L37.0355055,71.2800201 L36.3162354,70.9984325 L34.9374763,70.9984325 L34.1515456,72.0066442 L33.0619653,71.9323923 L32.7801405,72.51075 L32.9950675,72.6590164 L32.4836077,73.0222099 L32.0537536,72.4364982 L30.8972755,72.2215712 L32.0537536,72.295823 L32.5578595,72.9481953 L32.9210529,72.6590164 L32.6985347,72.51075 L33.0619653,71.9323923 L34.2184434,71.8657318 L34.9374763,70.9241807 Z M50.4757974,70.123542 L49.3935712,70.8501661 L48.9561259,71.0650931 L48.0145748,71.1393449 L47.5844836,72.4364982 L47.725396,71.0650931 L48.3111077,71.0650931 L47.295542,70.8501661 L47.8736624,70.8501661 L47.3472573,70.5979945 L48.0961807,70.6352391 L48.5260347,70.7835055 L48.4520201,71.0650931 L48.8152135,71.0650931 L50.4757974,70.123542 Z M36.4571478,68.3962974 L38.6960894,68.5372099 L40.8681332,69.8419544 L42.5953777,71.8657318 L42.8919106,71.8657318 L44.2635529,71.8657318 L45.2048668,71.0650931 L46.1390639,71.2133595 L46.8580967,70.5683412 L47.2582974,70.5832865 L46.1390639,71.2800201 L45.2048668,71.0650931 L44.0483887,72.1475566 L42.8919106,71.8657318 L42.5953777,72.0066442 L40.7198668,72.733031 L40.5789544,72.6590164 L41.5947573,72.295823 L41.7354325,71.8657318 L42.5953777,71.8657318 L41.9503595,71.7174653 L40.8681332,69.908615 L38.6960894,68.6854763 L35.953042,68.6112245 L36.4571478,68.3962974 Z M34.8632245,22.7302391 L34.507385,23.1600931 L33.7067464,23.4492719 L32.2686807,24.0349836 L31.3271296,23.7458047 L32.2686807,22.9451661 L32.3426953,23.2343449 L31.9054872,23.3083595 L31.7572208,23.5308777 L32.8394471,23.1600931 L33.8550128,23.1600931 L33.6400858,23.0934325 L34.0032792,22.9451661 L34.8632245,22.7302391 Z M36.0197026,19.913177 L36.1755602,20.0538522 L35.8047755,20.0538522 L35.5155967,19.9871916 L35.8047755,19.9871916 L36.0197026,19.913177 Z M32.8394471,17.6002208 L33.6400858,17.8151478 L33.4251588,18.4675201 L34.0032792,18.5415347 L33.2768923,19.6980128 L35.1597573,20.2763704 L35.2340091,20.9213887 L35.3006697,21.1363157 L34.9374763,21.4328485 L34.7965639,21.5068631 L34.3667099,21.3512427 L34.2184434,20.7804763 L34.1515456,21.3512427 L33.2102318,22.4484142 L32.6245201,22.6633412 L32.9210529,21.796042 L32.0537536,22.010969 L32.7801405,21.5068631 L33.2768923,20.7062245 L32.6245201,20.2763704 L31.7572208,21.0696551 L31.9795018,20.7062245 L31.253115,21.1363157 L30.3189179,22.5893266 L29.5182792,23.5308777 L28.9475128,23.7458047 L29.5182792,22.2927938 L30.7563631,21.0696551 L30.3189179,21.0696551 L31.6163084,20.128104 L31.6163084,20.350385 L32.4836077,19.9871916 L33.3509069,20.128104 L33.3509069,19.7649106 L32.9950675,19.6980128 L33.2102318,19.4830858 L31.7572208,19.6239982 L31.7572208,19.2681588 L31.3271296,19.4090712 L31.5420566,18.9716259 L30.1706515,19.4830858 L29.9557245,19.4090712 L30.2449033,19.1125383 L29.5182792,19.2681588 L32.0537536,18.0300748 L32.1944288,18.1116807 L32.6245201,17.740896 L32.3426953,18.0300748 L32.6245201,17.9560602 L32.8394471,17.6002208 Z M39.4967281,16.8735967 L39.3558157,17.1701296 L38.8443558,17.311042 L39.1259434,17.096115 L39.4967281,16.8735967 Z M44.6193923,16.7326843 L44.4784799,17.311042 L44.4042281,17.525969 L44.2635529,17.311042 L44.1893011,17.1701296 L44.6193923,16.7326843 Z M33.6400858,16.6586697 L33.5660712,16.8735967 L32.9950675,17.311042 L32.9210529,17.0292172 L33.2102318,16.8735967 L33.6400858,16.6586697 Z M53.6560529,16.2285785 L52.4329142,16.9552026 L52.0621296,17.4593084 L51.8472026,17.8891624 L51.4913631,17.8891624 L51.6322755,18.2525931 L51.2690821,18.1116807 L50.4757974,18.6157865 L51.1948303,18.6157865 L50.2532792,19.1125383 L50.334885,19.3348193 L50.9799033,19.1939069 L51.995469,19.4090712 L52.8627682,19.0532318 L52.4922208,19.4830858 L53.5746843,19.3348193 L52.4922208,19.913177 L53.0779325,19.8389252 L54.0861442,19.1939069 L54.2344106,19.5497464 L53.8043193,19.9871916 L54.375323,19.6980128 L54.2344106,20.2097099 L54.59025,20.2097099 L55.1017099,19.4830858 L55.0276953,19.1939069 L54.6718558,19.4090712 L55.0276953,18.8973741 L54.4493376,19.4830858 L54.2344106,19.1939069 L54.5159982,19.0532318 L54.3010712,18.8973741 L55.0276953,18.6157865 L54.1601588,18.7566989 L54.812531,18.0300748 L54.0861442,18.0300748 L54.1601588,17.8151478 L53.4337719,18.2525931 L53.6560529,17.8151478 L52.9296661,17.8891624 L53.5746843,17.525969 L53.0036807,17.525969 L53.0779325,17.4593084 L52.9296661,17.4593084 L52.4922208,17.8151478 L52.7887536,17.4593084 L53.6560529,16.6586697 L53.4337719,16.4437427 L53.8712172,16.4437427 L53.6560529,16.2285785 Z M30.5414361,14.2048011 L30.7563631,14.2048011 L30.7563631,14.3457135 L30.8230237,14.4197281 L29.7407974,15.3612792 L30.4598303,14.6348923 L30.6007427,14.4939799 L30.3189179,14.4197281 L30.5414361,14.2048011 Z M31.682969,13.4784142 L31.3271296,13.7749471 L31.1122026,13.9898741 L30.9712901,14.3457135 L30.8972755,14.2048011 L30.7563631,13.9898741 L31.1122026,13.9156223 L31.682969,13.4784142 Z M37.6136259,9.29730109 L36.8872391,9.65314051 L36.8203412,9.72715511 L36.7463266,9.65314051 L36.3162354,10.0163339 L36.3162354,9.86806752 L36.6054142,9.72715511 L36.8056332,9.59383394 L36.8203412,9.5862427 L36.8352865,9.57888869 L37.0355055,9.43797628 L37.6136259,9.29730109 Z M38.6960894,8.27414416 L38.4811624,8.4297646 L38.34025,8.57067701 L38.2586442,8.57067701 L38.2586442,8.49666241 L38.6960894,8.27414416 Z M40.3566734,7.2732865 L40.4975858,7.2732865 L41.2982245,7.2732865 L40.6532062,7.41419891 L40.3566734,7.2732865 Z M41.2239726,6.54689964 L41.7354325,6.54689964 L42.0912719,6.54689964 L41.5131515,6.68781204 L41.4388996,6.68781204 L41.2239726,6.54689964 Z M39.5707427,5.67960036 L39.4967281,5.75361496 L39.0592828,5.89452737 L38.9852682,5.89452737 L38.9110164,5.97613321 L38.9852682,5.97613321 L39.4151223,5.82027555 L38.4811624,6.33197263 L38.34025,6.2577208 L37.9028047,6.47264781 L37.6878777,6.54689964 L37.2577865,6.68781204 L38.0437172,6.33197263 L37.3170931,6.54689964 L37.4727135,6.40598723 L38.1993376,6.19106022 L38.34025,6.03543978 L38.555177,6.03543978 L38.555177,5.89452737 L39.5707427,5.67960036 Z M59.0085894,5.17549453 L58.9269836,5.24950912 L58.852969,5.46443613 L59.4384434,5.46443613 L59.1495018,5.60534854 L59.9351953,5.46443613 L59.6536077,5.24950912 L59.5793558,5.17549453 L59.0085894,5.17549453 Z M41.8096843,4.30795803 L42.0246113,4.23394343 L42.1655237,4.16728285 L41.8096843,4.30795803 Z M32.2909799,8.7412427 L32.4095931,8.64492883 L32.1944288,8.78560401 L32.2909799,8.7412427 Z M31.5420566,9.21569526 L31.9647938,8.96352372 L31.7572208,9.07478285 L31.5420566,9.21569526 Z M30.4894836,9.83106022 L30.5414361,9.80140693 L30.3855785,9.86806752 L30.4894836,9.83106022 Z M42.4917099,117.783724 L43.032823,117.961644 L42.4544653,117.746717 L42.4917099,117.783724 Z M43.1810894,118.399089 L43.032823,118.028542 L43.1068376,118.317721 L42.9661624,118.102557 L42.817896,118.102557 L42.6769836,118.102557 L42.4544653,118.102557 L42.8919106,118.614016 L43.1810894,118.399089 Z M43.1810894,118.458396 L43.1810894,118.754929 L43.3960164,118.754929 L43.1810894,118.458396 Z M44.2635529,119.118359 L44.1152865,118.895841 L43.9001223,118.969856 L44.2635529,119.118359 Z M34.1294836,28.5866442 L34.077531,29.3799288 L34.1515456,28.5126296 L34.1294836,28.5866442 Z M48.2370931,4.01901642 L46.7914361,4.44887044 L46.8580967,4.52312226 L46.1390639,4.81206387 L45.9981515,4.87896168 L46.2130785,5.1012427 L45.9981515,5.1012427 L45.420031,5.39042153 L45.8572391,5.24950912 L45.5607062,5.46443613 L44.6193923,5.67960036 L43.9001223,6.11680839 L43.8334617,5.89452737 L44.6934069,5.53868796 L44.2635529,5.67960036 L44.6193923,5.53868796 L44.5451405,5.46443613 L44.1893011,5.46443613 L43.9001223,5.67960036 L44.1152865,5.67960036 L43.6778412,5.89452737 L43.9001223,5.60534854 L43.462677,5.75361496 L43.24775,5.75361496 L42.7362901,5.75361496 L42.9661624,5.46443613 L42.6769836,5.46443613 L43.24775,5.1012427 L42.1655237,5.31616971 L42.2395383,5.39042153 L42.9661624,5.24950912 L41.8096843,5.53868796 L41.3722391,5.89452737 L41.0090456,6.03543978 L41.0090456,5.97613321 L40.5789544,6.2577208 L41.0090456,5.89452737 L41.2982245,5.75361496 L41.7354325,5.39042153 L41.0830602,5.53868796 L40.8681332,5.39042153 L41.2239726,5.24950912 L41.5947573,5.17549453 L41.9503595,4.96033029 L41.7354325,4.87896168 L42.0912719,4.59713686 L42.3804507,4.44887044 L41.7354325,4.59713686 L42.4544653,4.30795803 L41.6614179,4.52312226 L42.3804507,4.23394343 L42.3061989,4.23394343 L41.5947573,4.44887044 L42.3061989,4.16728285 L41.6614179,4.38220985 L41.8096843,4.30795803 L41.5947573,4.38220985 L41.5131515,4.38220985 L41.0830602,4.59713686 L40.9347938,4.59713686 L40.2157609,4.96033029 L40.0674945,4.96033029 L39.3558157,5.31616971 L39.2001953,5.31616971 L38.1993376,5.82027555 L37.9768193,5.82027555 L36.6720748,6.47264781 L36.6054142,6.54689964 L36.0197026,6.83607847 L35.8790274,6.83607847 L34.292458,7.62912591 L34.1515456,7.77739234 L33.1359799,8.27414416 L33.0619653,8.35575 L32.3426953,8.71158942 L32.2909799,8.7412427 L32.1204142,8.88215511 L32.0834069,8.89686314 L32.0537536,8.92651642 L31.5420566,9.21569526 L31.2234617,9.40832299 L31.1269106,9.45292153 L31.0825493,9.48257482 L31.0751953,9.48992883 L30.8972755,9.5862427 L30.6007427,9.72715511 L30.5264909,9.79381569 L30.6154507,9.75680839 L30.6821113,9.72715511 L30.5487901,9.82346898 L30.7044106,9.72715511 L30.6007427,9.80140693 L30.5487901,9.82346898 L30.5414361,9.82346898 L30.4894836,9.83106022 L30.4598303,9.86806752 L30.0297391,10.1572464 L29.9557245,10.1572464 L29.7407974,10.3202208 L29.5182792,10.4537792 L29.3773668,10.5204398 L28.4434069,11.172812 L28.1468741,11.3950931 L27.9022938,11.580604 L28.2877865,11.3137245 L28.0059617,11.5360055 L27.7613814,11.6842719 L27.6797755,11.7362245 L27.0644106,12.1067719 L27.4795566,11.8844909 L27.3609434,11.9660967 L27.2795748,12.0401113 L26.9237354,12.2550383 L26.7085712,12.3959507 L26.5603047,12.5368631 L26.2637719,12.6924836 L25.7672573,13.1225748 L26.3453777,12.7667354 L25.9079325,13.048323 L25.2631515,13.6340347 L25.0406332,13.7749471 L24.7514544,13.9898741 L25.1815456,13.6933412 L24.395615,14.2790529 L24.2252865,14.4050201 L23.9584069,14.5679945 L24.0250675,14.6348923 L23.8101405,14.7162609 L23.8841551,14.7162609 L23.6692281,14.8571734 L23.6692281,14.9314252 L23.6025675,15.0054398 L23.7432427,14.9314252 L23.3800493,15.1463522 L23.3133887,15.2130128 L23.4543011,14.9314252 L23.1651223,15.2203668 L23.3133887,15.1463522 L22.8685894,15.435531 L22.942604,15.5021916 L22.8019288,15.5762062 L22.0086442,16.3768449 L22.297823,16.2285785 L21.8603777,16.5920091 L21.7194653,16.8735967 L22.942604,15.650458 L23.2391369,15.3612792 L23.2837354,15.2576113 L23.5283157,15.1463522 L23.3133887,15.2872646 L23.3133887,15.3612792 L23.7432427,15.0054398 L23.2391369,15.435531 L22.942604,15.650458 L23.0242099,15.650458 L23.0242099,15.7171186 L22.8019288,15.9320456 L22.2235712,16.4437427 L22.0826588,16.6586697 L20.844812,17.8151478 L21.3562719,17.311042 L20.844812,17.740896 L21.5711989,17.096115 L21.5711989,16.8735967 L20.4147208,18.0300748 L19.8439544,18.5415347 L17.0935529,21.2919361 L16.0853412,22.5150748 L15.3663084,23.3083595 L14.2840821,24.6873558 L13.6983704,25.5473011 L13.8392828,25.5473011 L13.4834434,26.0587609 L13.6241186,25.7695821 L13.2682792,26.273688 L12.1044471,28.2974653 L11.7486077,28.7942172 L11.7486077,29.0240894 L11.8152682,29.3799288 L11.5336807,30.1732135 L10.0064179,33.4274836 L9.94711131,33.7166624 L9.65057847,35.0880675 L9.29473905,35.5921734 L9.29473905,35.8813522 L9.00579745,35.7404398 L8.93154562,36.8229033 L9.14647263,36.6079763 L9.00579745,37.5419361 L8.42008577,38.8466807 L8.49410036,40.2923376 L8.35342518,41.0040164 L8.64236679,40.7221916 L8.93154562,39.7882318 L8.7092646,39.4174471 L9.50990328,37.1787427 L9.65057847,35.8073376 L10.0064179,35.1549653 L10.3772026,33.5017354 L11.3187536,31.6186332 L11.3854142,32.4119179 L10.8813084,33.568396 L10.4512172,34.6582135 L10.3029507,35.7404398 L10.4512172,35.8073376 L10.1622755,36.385458 L10.1622755,37.4679215 L9.79149088,38.1202938 L10.0064179,38.8466807 L9.8657427,39.2767719 L9.94711131,41.2262974 L9.72483029,42.7462062 L9.29473905,43.4725931 L9.36163686,43.6875201 L9.14647263,43.8284325 L9.07981204,44.2658777 L9.43565146,46.2080493 L10.0880237,46.6454945 L10.3029507,47.4387792 L10.8070566,47.9502391 L12.4752318,49.4625566 L13.9875493,48.9584507 L15.425615,51.5605858 L17.3084799,52.5687974 L17.1678047,52.427885 L18.1760164,52.2796186 L18.1760164,52.8579763 L17.820177,52.8579763 L19.1173303,55.0226661 L18.8283887,55.1782865 L19.0433157,55.3191989 L18.9024033,56.1791442 L18.9024033,56.2605128 L19.3324945,56.690604 L19.5474215,56.4014252 L19.4065091,56.1791442 L19.2582427,55.8899653 L19.6214361,56.1791442 L19.6214361,56.2605128 L20.4147208,57.3429763 L20.4147208,57.9879945 L20.6296478,58.0620091 L20.5629872,57.6988157 L20.9261807,58.4994544 L21.0670931,58.2029215 L21.8603777,58.358542 L22.0086442,58.9293084 L22.4384982,58.7143814 L22.51275,59.500312 L22.8685894,59.500312 L23.3133887,59.2184872 L22.942604,58.358542 L23.3800493,58.0620091 L24.2473485,57.4838887 L24.7514544,58.2769361 L25.1222391,58.2029215 L24.7514544,58.7886332 L25.6189909,60.3749653 L25.2631515,63.051115 L25.6930055,63.3402938 L25.6189909,63.6961332 L24.9666186,64.7785967 L24.2473485,65.0008777 L24.2473485,65.7941624 L23.8101405,65.8610602 L23.8841551,66.5134325 L22.942604,66.8023741 L22.942604,67.2398193 L23.0242099,67.5289982 L22.942604,67.6030128 L22.51275,68.0997646 L22.727677,68.4705493 L22.1569106,68.9004033 L22.2235712,70.3387062 L22.8019288,70.7835055 L23.0242099,70.4127208 L23.0984617,70.1977938 L23.2391369,70.6352391 L23.0242099,71.4951843 L22.0086442,72.51075 L22.4384982,74.1046734 L22.2235712,74.393615 L23.2391369,75.327812 L24.2473485,76.99575 L25.1222391,79.0121734 L25.7672573,80.4651843 L27.42025,82.8448011 L27.2795748,83.3489069 L27.8576953,84.2164434 L28.6583339,85.0094909 L32.3426953,87.1817719 L33.6400858,88.4122646 L34.077531,90.0728485 L34.4333704,91.5851661 L34.3667099,93.6831953 L35.0190821,95.5660602 L35.0190821,99.0281405 L35.5155967,100.043706 L35.4489361,100.117958 L35.3006697,100.688724 L36.3904872,103.513141 L36.3904872,106.619381 L36.0197026,106.760294 L37.2577865,108.561553 L37.3170931,109.866297 L37.9028047,110.370403 L37.7618923,110.51867 L38.1993376,110.296389 L38.555177,110.370403 L38.6960894,110.229728 L38.4811624,110.659582 L38.9110164,110.8821 L38.9852682,111.097027 L38.6294288,110.956115 L38.9852682,111.23794 L38.770104,111.097027 L38.9110164,111.897666 L39.3558157,112.179491 L39.1259434,112.394418 L39.7859069,112.683597 L39.4151223,113.195057 L40.0008339,113.409984 L39.5707427,113.409984 L39.6376405,113.624911 L39.8525675,113.550896 L39.9265821,114.203268 L39.5707427,113.906735 L39.2001953,113.98075 L39.4967281,113.906735 L39.2742099,113.906735 L39.2742099,113.699162 L39.2001953,113.840075 L38.9110164,113.624911 L38.6960894,113.699162 L39.1259434,113.840075 L39.0592828,114.062356 L38.770104,114.351535 L39.0592828,114.136608 L39.2742099,114.418195 L39.6376405,114.351535 L40.0674945,114.707374 L39.7859069,114.848049 L40.2157609,114.922301 L39.7859069,115.063214 L40.3566734,114.996316 L40.8681332,115.285495 L40.4975858,115.218834 L40.8681332,115.508013 L40.0008339,115.285495 L40.6532062,115.574673 L40.4382792,115.715586 L40.7198668,115.7896 L40.7941186,116.30106 L40.9347938,116.160385 L41.3722391,116.516224 L40.9347938,116.441973 L41.2982245,116.731151 L41.5947573,116.946078 L41.0090456,116.805403 L41.5131515,116.946078 L41.7133704,117.28721 L41.6614179,117.316863 L42.0912719,117.457776 L42.1655237,117.813378 L42.6769836,118.102557 L42.4544653,117.813378 L42.817896,118.102557 L42.4917099,117.783724 L42.3804507,117.746717 L42.5213631,117.524436 L42.5953777,117.746717 L43.1068376,117.961644 L43.1810894,118.399089 L43.1810894,118.458396 L44.0483887,118.458396 L44.4042281,118.829181 L44.2635529,119.118359 L44.7750128,119.325932 L44.4784799,118.614016 L45.2717646,118.243469 L45.8572391,118.399089 L45.1308522,117.88763 L44.6193923,117.524436 L44.915688,116.946078 L44.7750128,116.805403 L45.1308522,116.805403 L44.9899398,116.160385 L45.7756332,115.359746 L45.5607062,114.848049 L44.6934069,114.707374 L43.7592099,113.98075 L43.9743741,113.409984 L44.915688,113.195057 L44.6193923,112.179491 L45.1308522,111.667794 L44.5451405,111.386206 L44.915688,111.311954 L45.2717646,111.601133 L45.5607062,111.386206 L45.2717646,110.956115 L44.8343193,111.23794 L44.2635529,110.8821 L43.9001223,109.799637 L44.9899398,110.229728 L45.9981515,110.014564 L45.634958,108.717411 L45.9165456,108.784071 L45.4866916,108.205714 L46.5765091,108.420878 L47.4438084,108.279965 L48.6002865,108.131699 L49.3193193,107.701608 L49.8234252,106.686042 L49.6825128,106.181936 L49.0301405,105.892757 L49.0970383,105.321991 L47.6587354,104.447338 L47.510469,103.223962 L47.725396,104.009892 L48.3111077,104.521352 L49.8974398,104.951443 L51.7062901,104.736279 L52.8627682,103.298214 L53.0036807,102.141735 L53.9452318,100.829637 L53.7303047,100.473797 L54.5159982,100.903651 L53.2186077,102.497575 L54.375323,101.556024 L54.8867828,100.473797 L55.2426223,99.8287792 L56.1099215,99.1021551 L56.258188,97.73075 L55.8283339,96.8634507 L56.258188,96.1368266 L55.8283339,95.9218996 L56.3991004,96.0701661 L56.9772208,95.2695274 L58.2079507,94.4838339 L59.1495018,94.4095821 L60.1501223,93.5422828 L61.0916734,93.6831953 L61.5291186,93.24575 L61.6031332,93.5422828 L62.6855967,93.6089434 L62.7596113,93.1048376 L63.767823,92.5267172 L63.7011624,92.0226113 L64.7836259,90.3620274 L64.9985529,90.0728485 L65.1392281,88.768104 L65.7249398,88.0490712 L66.0807792,82.8448011 L66.2216916,82.5558595 L66.5106332,82.9930675 L66.9480785,82.6298741 L69.1201223,79.6645456 L70.4917646,77.8556953 L70.6324398,76.4842901 L70.1283339,74.6087792 L69.7651405,74.2453485 L68.030542,74.1046734 L66.5106332,72.6590164 L64.7836259,71.7174653 L64.7836259,71.6508047 L62.2481515,71.7174653 L60.9507609,71.0650931 L59.3644288,72.2215712 L59.4384434,71.4358777 L59.8685347,71.0650931 L59.1495018,71.2133595 L59.7202682,70.7835055 L59.3644288,70.0568814 L58.852969,70.5683412 L58.7787172,69.908615 L58.5637901,70.1977938 L58.6378047,69.908615 L58.3488631,70.0568814 L58.0670383,69.6270274 L57.8521113,69.908615 L57.7705055,69.4787609 L57.6295931,69.693688 L56.5400128,69.1153303 L56.473115,69.4118631 L55.6724763,69.1969361 L55.1683704,70.0568814 L55.6724763,70.1977938 L55.2426223,70.3387062 L55.0276953,69.9828668 L54.0861442,71.1393449 L54.3010712,70.4127208 L53.0036807,70.6352391 L54.7311624,70.123542 L55.3166369,68.7594909 L53.1445931,68.5372099 L52.6478412,69.5527755 L52.5738266,69.0413157 L52.1363814,69.5527755 L52.0621296,68.9746551 L51.6322755,69.5527755 L52.0621296,68.4705493 L53.6560529,67.0989069 L53.3595201,67.0175383 L53.5746843,66.4465347 L52.6478412,66.0166807 L52.0621296,63.5552208 L51.8472026,63.4069544 L51.7062901,63.7777391 L50.9799033,62.7545821 L48.9561259,61.6797099 L45.7016186,61.6797099 L44.4784799,60.5158777 L44.1152865,61.0273376 L44.3302135,60.0117719 L43.7592099,59.2851478 L42.817896,58.6403668 L42.5953777,58.4994544 L41.8763449,58.4994544 L41.9503595,57.5579033 L41.157312,57.0464434 L40.4382792,57.120458 L40.2824215,56.905531 L39.9265821,56.475677 L41.0090456,56.0382318 L38.555177,56.1198376 L39.1259434,56.3347646 L37.6878777,56.7646186 L36.5313996,56.1198376 L34.6482974,56.1791442 L34.4333704,55.4598741 L33.2768923,55.0966807 L32.9950675,54.2367354 L32.6985347,54.8817536 L33.1359799,54.8075018 L33.1359799,55.0966807 L32.7801405,54.9557682 L31.3271296,55.7490529 L31.6163084,56.690604 L31.7572208,56.9797828 L31.682969,57.4838887 L31.0379507,57.6988157 L30.6821113,56.8315164 L30.8230237,56.690604 L31.3271296,55.8899653 L31.0379507,54.8817536 L31.9054872,54.3776478 L31.468042,53.866188 L29.814812,55.1782865 L29.0141734,55.0966807 L28.7992464,55.4598741 L28.2877865,55.3191989 L27.8576953,55.6750383 L27.42025,56.4014252 L27.42025,56.5496916 L27.42025,57.1947099 L26.1230967,58.1362609 L26.1971113,58.8552938 L25.3371661,57.4838887 L24.395615,56.905531 L23.8841551,56.8315164 L23.5283157,57.0464434 L22.51275,57.6988157 L21.8603777,57.2613704 L21.9419836,57.5579033 L21.5711989,57.4169909 L21.0670931,56.2605128 L20.5629872,54.8075018 L21.6454507,51.4123193 L21.6454507,50.4041077 L20.4889726,49.5368084 L18.1091186,49.7590894 L17.6050128,49.4625566 L18.3242828,48.3803303 L18.7614909,46.8604215 L18.5392099,46.7937609 L18.9766551,46.2823011 L18.9024033,47.008688 L19.6214361,45.4963704 L19.4065091,45.4223558 L20.5629872,43.6875201 L19.703042,43.3243266 L18.035104,43.8284325 L17.2344653,45.6372828 L16.3671661,46.5788339 L15.9370748,46.2823011 L14.4247573,46.8604215 L14.1282245,46.1413887 L13.6983704,46.1413887 L13.6983704,42.4570274 L13.8392828,41.8786697 L14.5656697,39.8622464 L14.9288631,39.0616077 L15.210688,38.9209325 L14.9957609,39.3507865 L15.5812354,38.4092354 L15.9370748,37.0378303 L15.7961624,36.9638157 L16.0113266,36.9638157 L16.5227865,36.0962792 L17.0935529,35.8813522 L17.0195383,35.5921734 L17.3827318,35.6664252 L17.1678047,35.8073376 L18.035104,35.3032318 L18.3909434,34.6582135 L18.6874763,34.7991259 L18.3909434,35.0140529 L19.0433157,34.7248741 L19.1915821,34.4432865 L19.1173303,34.7248741 L19.917969,34.9398011 L20.3480602,34.6582135 L20.6296478,35.4439069 L21.0004325,35.2289799 L21.1413449,35.4439069 L21.2896113,35.0140529 L21.5045383,35.0880675 L21.5045383,35.6664252 L21.8603777,35.4439069 L21.5711989,35.0140529 L22.0086442,34.7248741 L21.7861259,34.5839617 L21.4302865,34.3690347 L22.8685894,34.2874288 L23.1651223,33.8575748 L23.1651223,34.2874288 L22.942604,34.4432865 L23.7432427,34.0725018 L23.5283157,34.2874288 L24.2473485,34.2134142 L24.0250675,34.2874288 L24.6107792,34.4432865 L24.5365274,34.7248741 L24.5365274,35.0880675 L25.1815456,34.7248741 L25.4780785,34.6582135 L25.6930055,34.7991259 L25.7672573,34.8731405 L26.1230967,35.955604 L25.6189909,36.9638157 L25.9821843,36.8969179 L25.6189909,37.3936697 L25.6930055,37.9793814 L25.9821843,37.9051296 L25.7672573,39.0616077 L26.1971113,39.4174471 L26.0488449,39.8622464 L26.4862901,39.8622464 L26.4196296,40.0774106 L27.42025,38.1202938 L27.6427682,34.8731405 L27.7910347,33.6426478 L28.8732609,32.7010967 L28.8732609,32.4119179 L28.9475128,32.6344361 L29.599885,32.1896369 L30.8972755,31.2627938 L33.1359799,30.2472281 L32.6985347,30.1063157 L33.1359799,29.8840347 L32.8394471,29.6691077 L33.4251588,29.8097828 L33.8550128,29.5208412 L33.9366186,29.2390164 L33.6400858,29.5208412 L33.7809982,29.1650018 L33.2102318,29.2390164 L33.7809982,28.868469 L34.0032792,29.09075 L34.1294836,28.5866442 L34.1515456,28.2974653 L33.5660712,28.0085237 L33.9366186,28.1491989 L33.8550128,27.7119909 L33.9366186,28.0085237 L34.2184434,27.7119909 L34.1591369,27.6377391 L34.3667099,27.4301661 L33.7809982,26.9260602 L34.0032792,26.6295274 L34.3667099,27.2818996 L34.6482974,26.1254215 L35.3006697,25.9104945 L34.6482974,26.488615 L34.8632245,27.3561515 L34.292458,28.1491989 L35.4489361,26.9260602 L35.6638631,25.7695821 L35.8047755,26.488615 L36.6720748,25.7695821 L36.8872391,25.0431953 L37.6136259,24.613104 L39.2001953,24.390823 L39.4967281,23.9607318 L39.4967281,24.3165712 L40.4382792,24.1756588 L40.4975858,23.8198193 L40.2157609,24.1016442 L39.9265821,23.5308777 L41.0090456,22.3743996 L41.3722391,22.3743996 L41.5131515,22.0778668 L41.8763449,22.2261332 L42.4544653,21.5737609 L42.3061989,21.8627026 L42.817896,21.6477755 L42.817896,21.8627026 L43.8334617,21.5068631 L43.8334617,21.1363157 L44.2635529,21.2919361 L46.0721661,20.6395639 L45.420031,21.0696551 L46.5765091,21.0696551 L45.9165456,21.3512427 L45.7756332,21.1363157 L44.3302135,21.796042 L44.0483887,22.3743996 L44.4042281,22.6633412 L45.634958,21.7220274 L46.0721661,21.8627026 L46.2130785,21.6477755 L48.0961807,21.2919361 L48.3853595,21.1363157 L47.7996478,20.7062245 L46.7914361,20.8544909 L45.9165456,20.2763704 L46.1390639,19.6980128 L45.7016186,19.6980128 L46.3539909,19.1125383 L45.7016186,19.2681588 L45.7016186,18.9716259 L45.0566004,18.8973741 L46.1390639,18.8973741 L46.9321113,18.6157865 L47.0137172,18.0300748 L45.9981515,17.9560602 L44.4042281,18.4008595 L41.6614179,19.7649106 L42.8919106,19.0532318 L43.032823,18.6157865 L45.2048668,17.8151478 L45.9165456,17.311042 L46.2130785,17.1701296 L50.4757974,17.2443814 L50.549812,17.2443814 L51.7062901,16.5177573 L52.8627682,16.3768449 L53.8712172,15.8727391 L53.6560529,15.650458 L54.0194836,15.650458 L53.4337719,15.5021916 L53.9452318,15.5021916 L53.7303047,15.3612792 L54.1601588,15.0054398 L53.8043193,14.6348923 L53.1445931,14.9314252 L53.4337719,14.5679945 L52.8627682,14.3457135 L51.4913631,14.7905128 L52.7145018,14.3457135 L51.9214544,14.4197281 L53.4337719,14.0638887 L53.0036807,13.9898741 L53.2186077,13.8489617 L52.4922208,13.9156223 L52.5738266,13.6933412 L52.2772938,13.7749471 L52.4922208,13.6340347 L52.3513084,13.6933412 L51.995469,13.6933412 L52.210396,13.5524288 L51.995469,13.6340347 L51.4913631,13.7749471 L51.995469,13.26325 L51.7062901,13.4115164 L51.8472026,13.1965894 L51.1948303,13.1225748 L51.5580237,12.9074106 L51.4173485,12.9074106 L51.1208157,12.7667354 L51.4913631,12.6924836 L51.0539179,12.5368631 L51.4913631,12.618469 L51.8472026,12.3219361 L51.2690821,12.0401113 L51.7062901,11.9660967 L51.3357427,11.7509325 L51.5580237,11.6102573 L50.9799033,11.7509325 L51.6322755,11.4543996 L50.9799033,11.5360055 L51.5580237,11.3137245 L51.5580237,11.0245456 L51.0539179,11.0985602 L51.4913631,10.957885 L51.1208157,10.4537792 L51.3357427,10.2979215 L51.1948303,10.2312609 L50.549812,10.5944544 L50.6907245,10.8096186 L50.2532792,10.8836332 L50.4091369,11.0245456 L49.8974398,11.172812 L49.6825128,11.5360055 L49.7491734,11.172812 L48.6669471,11.6769179 L48.7411989,11.3137245 L48.1554872,11.6769179 L48.6669471,11.172812 L47.6587354,11.172812 L48.0145748,10.957885 L48.0961807,11.0985602 L48.4520201,10.8096186 L48.2370931,10.8096186 L48.5260347,10.3721734 L48.6669471,10.3721734 L49.1710529,9.72715511 L48.8818741,9.86806752 L48.2370931,9.65314051 L48.5260347,9.37131569 L48.1554872,9.43797628 L48.0145748,8.85985584 L47.4438084,9.07478285 L46.4282427,8.78560401 L45.9165456,8.92651642 L45.7756332,9.37131569 L44.9899398,9.80140693 L45.3457792,9.72715511 L45.0566004,10.2312609 L43.5369288,11.0245456 L43.9743741,11.5360055 L43.24775,12.618469 L42.0912719,13.3375018 L40.5789544,13.6933412 L40.7198668,14.0638887 L39.9265821,15.435531 L39.3558157,15.7913704 L39.1259434,16.2285785 L39.1259434,15.8727391 L38.555177,16.2285785 L38.4811624,16.1545639 L38.1993376,16.0879033 L38.4811624,15.7913704 L38.2586442,14.8571734 L39.6376405,13.26325 L38.34025,13.1965894 L37.4727135,11.6769179 L36.3904872,11.8918449 L36.8203412,11.6102573 L37.6136259,10.7353668 L37.3170931,10.6687062 L36.9612536,10.8836332 L37.2577865,10.4537792 L38.4811624,9.5862427 L39.9265821,8.92651642 L40.0008339,8.78560401 L41.0830602,8.49666241 L41.0830602,8.35575 L41.3722391,8.4297646 L41.9503595,8.21483759 L42.0246113,7.91830474 L41.6614179,7.99255657 L41.8763449,7.84429015 L41.5131515,7.70337774 L41.8096843,7.56246533 L42.1655237,8.05921715 L42.9661624,7.70337774 L43.5369288,7.70337774 L44.6934069,7.1992719 L44.0483887,6.76182664 L44.4042281,6.76182664 L44.6934069,7.11766606 L45.7756332,6.76182664 L45.7756332,6.54689964 L46.4282427,6.76182664 L46.5765091,6.40598723 L46.9321113,6.40598723 L46.7171843,6.68781204 L48.2370931,6.19106022 L48.4520201,5.67960036 L49.0301405,5.60534854 L48.9561259,5.53868796 L49.3935712,5.39042153 L49.0301405,5.17549453 L49.3935712,5.1012427 L48.6669471,5.03458212 L48.0145748,5.53868796 L47.7996478,5.53868796 L46.4282427,6.19106022 L45.9981515,6.2577208 L47.1546296,5.39042153 L47.1546296,5.24950912 L46.0721661,5.67960036 L46.7171843,5.17549453 L47.0730237,5.1012427 L46.6431697,4.96033029 L46.9321113,4.87896168 L47.2286442,4.73804927 L47.3695566,4.81206387 L48.2370931,4.01901642 Z M45.219812,3.51491058 L45.0639544,3.57421715 L45.0936077,3.54456387 L45.219812,3.51491058 Z M54.2194653,6.22806752 L54.4493376,6.11680839 L54.0861442,6.2577208 L54.2194653,6.22806752 Z M53.2928595,5.31616971 L54.3010712,5.31616971 L54.4493376,5.17549453 L53.8712172,5.17549453 L53.2928595,5.31616971 Z M51.4913631,3.44065876 L50.4091369,3.65558577 L48.7411989,4.30795803 L49.3193193,4.44887044 L48.6002865,4.44887044 L48.3111077,4.73804927 L48.3111077,4.81206387 L48.9561259,4.73804927 L48.6669471,4.96033029 L49.1710529,4.96033029 L49.3193193,5.03458212 L49.6825128,5.03458212 L49.6825128,4.87896168 L49.7491734,5.03458212 L49.8974398,5.03458212 L49.8974398,4.96033029 L50.334885,5.03458212 L50.6240639,5.03458212 L50.6907245,4.87896168 L51.1208157,4.73804927 L50.9056515,5.03458212 L50.9056515,5.17549453 L51.2690821,5.1012427 L50.9799033,5.24950912 L51.2690821,5.24950912 L51.1948303,5.46443613 L50.549812,5.67960036 L51.1208157,5.53868796 L51.2690821,5.75361496 L51.5580237,5.67960036 L51.2690821,6.40598723 L50.6907245,6.62091423 L50.9799033,6.68781204 L50.6240639,6.62091423 L49.7491734,6.90273905 L49.7491734,7.2732865 L48.7411989,7.34753832 L48.2370931,7.1992719 L47.3695566,7.77739234 L48.7411989,7.84429015 L48.9561259,7.56246533 L49.0301405,7.84429015 L49.3935712,7.70337774 L49.1710529,8.13323175 L49.6825128,8.27414416 L49.1710529,8.35575 L49.2526588,8.57067701 L51.2690821,9.29730109 L50.6907245,8.21483759 L51.1208157,8.4297646 L51.1948303,8.21483759 L52.0621296,8.92651642 L52.3513084,8.21483759 L52.4922208,8.57067701 L52.7887536,8.13323175 L52.4329142,7.99255657 L52.7887536,7.91830474 L52.7145018,7.70337774 L52.2772938,7.77739234 L52.3513084,7.56246533 L52.1363814,7.70337774 L52.3513084,7.1992719 L51.8472026,7.34753832 L52.1363814,6.97675365 L52.5738266,7.05835949 L52.5738266,6.76182664 L53.0036807,6.76182664 L53.1445931,7.05835949 L53.4337719,6.90273905 L53.0779325,7.11766606 L53.8712172,6.90273905 L53.1445931,7.1992719 L53.6560529,7.70337774 L54.0861442,7.11766606 L54.3010712,7.34753832 L54.375323,7.05835949 L54.7311624,7.11766606 L54.5159982,6.90273905 L55.1017099,6.97675365 L54.8867828,6.83607847 L55.3166369,6.76182664 L55.1683704,6.62091423 L54.6718558,6.76182664 L54.812531,6.62091423 L54.3010712,6.68781204 L54.812531,6.47264781 L54.375323,6.62091423 L54.59025,6.47264781 L54.0194836,6.62091423 L54.4493376,6.47264781 L54.1601588,6.40598723 L54.4493376,6.40598723 L54.4493376,6.19106022 L54.2194653,6.22806752 L54.0194836,6.33197263 L54.0194836,6.11680839 L53.7303047,6.19106022 L53.8712172,6.03543978 L53.6560529,6.11680839 L53.7153595,5.92418066 L53.9452318,5.89452737 L53.0779325,5.67960036 L53.6560529,5.67960036 L53.7153595,5.54604197 L53.8043193,5.53868796 L53.5153777,5.46443613 L54.2344106,5.53868796 L54.2344106,5.39042153 L53.2186077,5.31616971 L53.2928595,5.31616971 L53.8043193,5.17549453 L54.0861442,5.1012427 L53.5153777,5.1012427 L54.375323,4.96033029 L54.0861442,4.81206387 L53.5746843,4.96033029 L54.0194836,4.73804927 L53.0036807,5.1012427 L53.4337719,4.87896168 L53.0779325,4.96033029 L53.8712172,4.66379745 L53.0036807,4.87896168 L53.8043193,4.59713686 L53.6560529,4.44887044 L52.8627682,4.66379745 L53.3595201,4.38220985 L52.5738266,4.59713686 L53.0036807,4.38220985 L52.7887536,4.38220985 L53.3595201,4.23394343 L52.6478412,4.30795803 L53.3595201,4.09303102 L52.8627682,3.95211861 L52.4329142,4.09303102 L52.6478412,4.23394343 L52.1363814,4.16728285 L52.1363814,4.01901642 L51.995469,4.09303102 L51.3357427,4.23394343 L52.1363814,3.95211861 L52.4922208,3.58157117 L51.4173485,3.65558577 L51.4913631,3.79649818 L51.0688631,3.73719161 L51.1948303,3.87810401 L50.9056515,3.79649818 L50.6240639,4.16728285 L50.549812,4.09303102 L50.1939726,4.16728285 L50.2532792,4.30795803 L49.6825128,4.59713686 L49.8234252,4.44887044 L49.8974398,4.44887044 L50.112604,4.16728285 L50.6240639,3.87810401 L51.0688631,3.73719161 L51.773188,3.50731934 L51.4913631,3.44065876 Z M43.9001223,5.1012427 L44.1152865,5.1012427 L44.4784799,4.87896168 L43.9001223,5.1012427 Z M47.4438084,2.7142719 L47.0730237,2.79564051 L46.5022573,2.93655292 L44.4784799,3.50731934 L44.4784799,3.58157117 L43.6109434,3.95211861 L44.7750128,3.65558577 L44.915688,3.58157117 L45.0343011,3.58157117 L44.6193923,3.73719161 L44.6193923,3.79649818 L44.2635529,3.87810401 L44.6934069,3.87810401 L43.9001223,4.01901642 L43.5369288,4.16728285 L43.9743741,4.23394343 L43.8334617,4.38220985 L42.8919106,4.44887044 L42.3061989,4.66379745 L42.2395383,4.87896168 L41.7354325,5.17549453 L42.5953777,5.1012427 L43.6778412,4.81206387 L43.3960164,5.1012427 L43.9001223,5.1012427 L44.4042281,4.81206387 L44.4042281,4.87896168 L44.9899398,4.73804927 L44.8343193,4.87896168 L45.1308522,4.73804927 L45.3457792,4.66379745 L45.4866916,4.23394343 L47.1546296,3.58157117 L47.4438084,3.36664416 L47.0730237,3.36664416 L45.634958,3.95211861 L46.7171843,3.44065876 L46.5765091,3.44065876 L46.1390639,3.65558577 L46.2130785,3.58157117 L45.8572391,3.65558577 L45.7756332,3.65558577 L46.2873303,3.50731934 L46.4282427,3.36664416 L45.8572391,3.50731934 L46.6431697,3.22573175 L45.9091916,3.35905292 L46.7914361,3.15147993 L47.3695566,2.93655292 L47.0137172,2.93655292 L47.1546296,2.86253832 L47.4438084,2.7142719 Z M58.7787172,1.34262956 L58.1336989,1.48354197 L58.4971296,1.48354197 L57.7705055,1.5577938 L57.6964909,1.5577938 L57.9114179,1.48354197 L57.9410712,1.47618796 L58.7787172,1.34262956 Z M60.3059799,6.2577208 L59.07525,6.11680839 L59.5793558,6.19106022 L59.07525,6.19106022 L58.7787172,6.40598723 L59.4384434,6.2577208 L60.3059799,6.2577208 Z M61.1732792,1.34262956 L60.8100858,1.5577938 L60.6618193,1.48354197 L60.5209069,1.63916241 L60.5209069,1.48354197 L59.5793558,1.69846898 L59.5053412,1.78007482 L60.0908157,1.69846898 L59.2235164,1.99500182 L58.5637901,1.99500182 L57.3406515,2.21016606 L57.6964909,2.42509307 L58.4228777,2.42509307 L58.2819653,2.49910766 L57.6295931,2.49910766 L58.2079507,2.57335949 L57.0514726,2.57335949 L57.6295931,2.64002007 L57.0514726,2.7142719 L57.1254872,2.86253832 L57.5555785,2.93655292 L57.5555785,2.79564051 L57.8521113,2.93655292 L58.5637901,2.79564051 L59.07525,2.86253832 L59.2235164,3.01080474 L59.7942828,3.44065876 L59.3644288,3.58157117 L59.7202682,3.50731934 L59.5053412,4.01901642 L59.7942828,4.23394343 L59.3644288,4.23394343 L59.6536077,4.30795803 L59.5053412,4.37485584 L59.07525,4.52312226 L59.6536077,4.66379745 L60.0094471,4.30795803 L59.9351953,4.52312226 L60.5209069,4.52312226 L60.0094471,4.66379745 L60.5875675,4.66379745 L60.0908157,4.73804927 L60.4466551,4.73804927 L60.1501223,4.81206387 L60.2317281,4.81206387 L60.6618193,5.1012427 L59.8685347,4.96033029 L59.2235164,4.96033029 L59.8685347,5.24950912 L60.6618193,5.24950912 L60.1501223,5.60534854 L60.6618193,5.67960036 L60.4466551,5.75361496 L60.1501223,5.67960036 L60.2317281,5.97613321 L59.6536077,5.89452737 L59.07525,6.03543978 L60.1501223,5.97613321 L59.8685347,6.11680839 L60.3059799,6.2577208 L58.7120566,6.47264781 L59.6536077,6.54689964 L58.5637901,6.62091423 L59.2235164,6.76182664 L58.6378047,6.83607847 L59.07525,6.90273905 L58.5637901,6.90273905 L58.7787172,6.97675365 L58.4228777,7.11766606 L59.7942828,6.68781204 L60.0908157,6.76182664 L58.4971296,7.11766606 L59.290177,7.11766606 L58.5637901,7.2732865 L58.7787172,7.48845073 L59.5053412,7.2732865 L59.7942828,7.34753832 L58.7787172,7.56246533 L59.0085894,7.56246533 L58.7787172,7.77739234 L59.290177,7.70337774 L58.7787172,7.84429015 L58.7787172,8.13323175 L59.5053412,7.84429015 L59.4384434,7.56246533 L59.9351953,8.05921715 L59.7202682,7.99255657 L59.7129142,7.99255657 L58.9269836,8.13323175 L59.7202682,8.21483759 L58.9269836,8.21483759 L59.290177,8.27414416 L58.9269836,8.4297646 L59.4384434,8.4297646 L59.0085894,8.57067701 L59.5053412,8.57067701 L59.07525,8.64492883 L59.5793558,8.71158942 L59.290177,8.92651642 L59.7202682,8.78560401 L59.290177,9.07478285 L59.7942828,9.21569526 L59.5053412,9.37131569 L60.0094471,9.37131569 L59.7202682,9.5862427 L60.0908157,9.5862427 L59.6536077,9.65314051 L60.2317281,9.65314051 L59.7942828,9.72715511 L60.3726405,9.80140693 L60.4466551,10.0829945 L61.8182974,9.86806752 L61.2472938,10.1572464 L61.7440456,10.0163339 L61.3882062,10.2312609 L61.8182974,10.1572464 L61.7440456,10.3721734 L62.1072391,10.1572464 L61.7440456,10.5204398 L62.1741369,10.2312609 L62.0332245,10.5944544 L62.3890639,10.3721734 L62.9005237,10.5204398 L62.3297573,10.2312609 L63.1154507,10.2312609 L62.7596113,10.0829945 L63.1897026,9.94208212 L63.2713084,9.94208212 L62.9005237,9.80140693 L63.4119836,9.72715511 L63.0487901,9.65314051 L63.4862354,9.5862427 L63.1154507,9.5122281 L63.552896,9.37131569 L63.1154507,9.07478285 L63.552896,9.15638869 L63.0487901,8.92651642 L63.767823,8.92651642 L63.6271478,8.71158942 L63.9829872,8.78560401 L63.7011624,8.57067701 L64.0570018,8.64492883 L63.8420748,8.57067701 L64.2719288,8.49666241 L63.9160894,8.35575 L64.4277865,8.4297646 L64.3461807,8.21483759 L63.9160894,8.13323175 L64.4870931,8.05921715 L64.1312536,7.62912591 L64.5684617,7.70337774 L64.6427135,7.48845073 L64.7093741,7.41419891 L65.5100128,7.41419891 L65.650688,6.97675365 L65.9398668,7.05835949 L65.650688,7.2732865 L65.9398668,7.34753832 L65.9398668,7.11766606 L66.0807792,7.2732865 L66.6664909,7.11766606 L66.5106332,6.97675365 L67.0223303,7.05835949 L67.5930967,6.33197263 L68.030542,6.2577208 L67.6671113,5.89452737 L68.1788084,6.19106022 L68.8311807,6.11680839 L68.8311807,5.97613321 L69.1201223,6.11680839 L70.2025858,5.89452737 L71.3590639,5.24950912 L69.5502135,5.24950912 L69.4759617,5.31616971 L69.3352865,5.24950912 L69.0461077,5.24950912 L69.6911259,5.03458212 L68.6829142,5.1012427 L69.0461077,4.81206387 L69.4759617,4.87896168 L69.9060529,4.73804927 L68.7495748,4.59713686 L69.1201223,4.52312226 L68.6829142,4.44887044 L70.1283339,4.66379745 L70.847604,5.03458212 L71.069885,4.87896168 L71.2107974,5.03458212 L71.4999763,5.03458212 L71.069885,4.81206387 L71.069885,4.59713686 L70.847604,4.59713686 L70.9882792,4.52312226 L70.5584252,4.52312226 L70.7066916,4.44887044 L69.8318011,4.23394343 L69.6168741,4.38220985 L69.6168741,4.23394343 L69.8318011,4.23394343 L69.5502135,4.09303102 L69.1201223,4.23394343 L68.8311807,4.09303102 L69.4759617,4.01901642 L68.6829142,4.01901642 L69.0461077,3.95211861 L68.6829142,3.87810401 L69.1870201,3.95211861 L69.4759617,3.79649818 L69.0461077,3.65558577 L69.5502135,3.79649818 L69.5502135,3.73719161 L70.2025858,3.79649818 L69.6168741,3.79649818 L70.2766004,3.95211861 L70.847604,3.79649818 L70.7066916,3.65558577 L70.2025858,3.58157117 L70.3434982,3.79649818 L69.9876588,3.58157117 L69.9060529,3.44065876 L70.6324398,3.50731934 L70.5584252,3.44065876 L70.2025858,3.36664416 L70.2025858,3.22573175 L70.1283339,3.22573175 L69.4759617,3.07746533 L70.3434982,3.22573175 L70.2025858,3.15147993 L70.0616734,3.01080474 L69.5502135,2.93655292 L69.9060529,2.86253832 L69.4759617,2.86253832 L69.0461077,2.7142719 L69.6911259,2.7142719 L69.4759617,2.49910766 L69.1870201,2.42509307 L69.3352865,2.42509307 L69.2610347,2.35843248 L69.0461077,2.35843248 L68.9051953,2.42509307 L68.7495748,2.28418066 L68.9051953,2.06925365 L68.7495748,1.99500182 L68.6829142,1.92834124 L68.6086624,1.92834124 L68.5346478,1.85432664 L68.46775,1.85432664 L68.3194836,1.78007482 L68.3937354,1.78007482 L68.252823,1.63916241 L68.1045566,1.5577938 L68.030542,1.5577938 L67.8896296,1.41688139 L67.6671113,1.41688139 L67.3781697,1.63916241 L67.2372573,1.34262956 L66.6664909,1.48354197 L66.7331515,1.34262956 L65.5100128,1.41688139 L65.7249398,1.34262956 L66.8071661,1.26861496 L67.1630055,1.20195438 L66.4439726,1.20195438 L66.4439726,1.12770255 L65.0725675,1.20195438 L65.2874945,1.12770255 L66.2957062,1.05368796 L64.7093741,1.05368796 L64.6427135,1.20195438 L64.5684617,1.20195438 L64.0570018,1.12770255 L63.767823,1.12770255 L64.4277865,1.20195438 L64.4870931,1.26861496 L63.7011624,1.20195438 L64.1312536,1.26861496 L63.767823,1.26861496 L63.767823,1.41688139 L62.9005237,1.26861496 L62.9005237,1.41688139 L62.4706697,1.34262956 L62.1741369,1.41688139 L62.3297573,1.26861496 L61.5291186,1.34262956 L61.677385,1.48354197 L61.462458,1.34262956 L61.1732792,1.34262956 Z M59.4384434,1.05368796 L59.0085894,1.12770255 L58.8826223,1.20195438 L58.852969,1.20195438 L58.7343558,1.23896168 L58.5637901,1.12770255 L58.1336989,1.20195438 L58.1336989,1.26861496 L57.9930237,1.20195438 L57.1997391,1.26861496 L57.4146661,1.26861496 L57.0514726,1.34262956 L57.5555785,1.34262956 L57.0884799,1.39458212 L56.7549398,1.41688139 L56.7549398,1.48354197 L57.8521113,1.41688139 L57.1997391,1.48354197 L56.9105602,1.5577938 L57.4813266,1.48354197 L57.6964909,1.48354197 L57.2663996,1.5577938 L57.1254872,1.5577938 L56.9105602,1.78007482 L56.9772208,1.63916241 L56.6140274,1.5577938 L56.1099215,1.92834124 L55.9690091,1.92834124 L55.8949945,2.06925365 L55.7540821,1.92834124 L55.5688084,1.92834124 L56.0432609,1.85432664 L56.1841734,1.78007482 L55.8949945,1.78007482 L56.6140274,1.5577938 L56.258188,1.63916241 L56.7549398,1.26861496 L56.0432609,1.41688139 L55.9690091,1.48354197 L55.4575493,1.48354197 L55.3835347,1.5577938 L55.0276953,1.5577938 L55.1683704,1.63916241 L54.6718558,1.78007482 L55.2426223,1.78007482 L54.5159982,1.85432664 L54.5159982,1.99500182 L54.2344106,1.99500182 L54.0861442,2.06925365 L54.4493376,2.06925365 L54.7311624,1.99500182 L54.5159982,2.06925365 L55.3166369,1.85432664 L55.1833157,1.97293978 L54.7311624,2.14326825 L55.2426223,2.06925365 L55.0276953,2.14326825 L55.6131697,1.99500182 L54.7311624,2.28418066 L55.5318011,2.14326825 L54.59025,2.35843248 L54.375323,2.21016606 L54.0861442,2.35843248 L53.0779325,2.49910766 L53.1445931,2.57335949 L53.4337719,2.49910766 L53.2928595,2.64002007 L53.5153777,2.57335949 L53.4337719,2.64002007 L53.6560529,2.57335949 L53.6560529,2.64002007 L54.0861442,2.57335949 L54.1601588,2.64002007 L54.375323,2.57335949 L54.3010712,2.64002007 L54.5159982,2.49910766 L54.375323,2.7142719 L54.6718558,2.7142719 L55.1683704,2.64002007 L55.6131697,2.49910766 L55.2426223,2.49910766 L54.9534434,2.42509307 L55.3166369,2.28418066 L55.5318011,2.35843248 L55.6724763,2.42509307 L56.258188,2.21016606 L56.6882792,2.28418066 L56.6140274,2.14326825 L57.0514726,2.14326825 L56.9105602,2.06925365 L57.2663996,2.06925365 L56.8289544,1.92834124 L57.6295931,1.99500182 L57.1997391,1.85432664 L58.1336989,1.85432664 L58.2079507,1.78007482 L58.5637901,1.78007482 L58.9269836,1.69846898 L59.07525,1.69846898 L59.1495018,1.63916241 L59.2235164,1.63916241 L60.5209069,1.41688139 L59.5793558,1.48354197 L60.3059799,1.41688139 L60.0094471,1.34262956 L60.4466551,1.41688139 L61.1732792,1.34262956 L61.462458,1.26861496 L61.3141916,1.12770255 L60.5875675,1.20195438 L61.0250128,1.12770255 L59.9351953,1.05368796 L59.4384434,1.05368796 Z" id="Fill-6" fill="#FFFFFF"></path>
                            <path d="M45.7016186,118.540002 L44.7750128,118.614016 L45.0566004,119.044108 L45.7016186,119.044108 L45.5607062,119.481553 L46.4282427,119.69648 L46.2873303,119.837392 L46.0721661,119.622228 L45.9981515,119.770495 L45.1308522,119.481553 L45.7756332,119.770495 L45.420031,119.770495 L45.2717646,119.622228 L44.7750128,119.770495 L47.9405602,120.052319 L48.7411989,119.911407 L46.7914361,119.325932 L45.7016186,118.540002 Z M41.8096843,116.946078 L42.0246113,117.161243 L41.7430237,117.279856 L41.8096843,116.946078 Z M41.7354325,116.731151 L41.8096843,116.731151 L42.5953777,116.872064 L42.0912719,116.946078 L42.2395383,117.161243 L41.7354325,116.731151 Z M46.5765091,97.6491442 L49.0970383,97.945677 L46.1390639,97.8790164 L45.8572391,99.3913339 L45.7756332,99.8287792 L45.9165456,100.332885 L45.9981515,100.985257 L45.7016186,101.415111 L45.2717646,102.208396 L45.7016186,103.298214 L45.2048668,102.141735 L45.7016186,101.415111 L45.7016186,101.200184 L45.5607062,100.762739 L45.5607062,100.547812 L45.4866916,100.332885 L45.8572391,100.332885 L45.7016186,99.6062609 L45.8572391,99.3913339 L46.0721661,97.8790164 L46.5765091,97.6491442 Z M29.7407974,71.6508047 L29.9557245,71.7174653 L29.3773668,71.8657318 L29.7407974,71.6508047 Z M34.9374763,70.9241807 L36.8872391,70.9241807 L38.0437172,72.1475566 L39.3558157,72.8072828 L40.0674945,72.3698376 L38.9110164,73.2371369 L38.8443558,72.8072828 L39.1259434,72.733031 L37.6878777,72.0066442 L37.6136259,72.2215712 L37.0355055,71.2800201 L36.3162354,70.9984325 L34.9374763,70.9984325 L34.1515456,72.0066442 L33.0619653,71.9323923 L32.7801405,72.51075 L32.9950675,72.6590164 L32.4836077,73.0222099 L32.0537536,72.4364982 L30.8972755,72.2215712 L32.0537536,72.295823 L32.5578595,72.9481953 L32.9210529,72.6590164 L32.6985347,72.51075 L33.0619653,71.9323923 L34.2184434,71.8657318 L34.9374763,70.9241807 Z M50.4757974,70.123542 L49.3935712,70.8501661 L48.9561259,71.0650931 L48.0145748,71.1393449 L47.5844836,72.4364982 L47.725396,71.0650931 L48.3111077,71.0650931 L47.295542,70.8501661 L47.8736624,70.8501661 L47.3472573,70.5979945 L48.0961807,70.6352391 L48.5260347,70.7835055 L48.4520201,71.0650931 L48.8152135,71.0650931 L50.4757974,70.123542 Z M36.4571478,68.3962974 L38.6960894,68.5372099 L40.8681332,69.8419544 L42.5953777,71.8657318 L42.8919106,71.8657318 L44.2635529,71.8657318 L45.2048668,71.0650931 L46.1390639,71.2133595 L46.8580967,70.5683412 L47.2582974,70.5832865 L46.1390639,71.2800201 L45.2048668,71.0650931 L44.0483887,72.1475566 L42.8919106,71.8657318 L42.5953777,72.0066442 L40.7198668,72.733031 L40.5789544,72.6590164 L41.5947573,72.295823 L41.7354325,71.8657318 L42.5953777,71.8657318 L41.9503595,71.7174653 L40.8681332,69.908615 L38.6960894,68.6854763 L35.953042,68.6112245 L36.4571478,68.3962974 Z M42.4917099,117.783724 L43.032823,117.961644 L42.4544653,117.746717 L42.4917099,117.783724 Z M43.1810894,118.399089 L43.032823,118.028542 L43.1068376,118.317721 L42.9661624,118.102557 L42.817896,118.102557 L42.6769836,118.102557 L42.4544653,118.102557 L42.8919106,118.614016 L43.1810894,118.399089 Z M43.1810894,118.458396 L43.1810894,118.754929 L43.3960164,118.754929 L43.1810894,118.458396 Z M44.2635529,119.118359 L44.1152865,118.895841 L43.9001223,118.969856 L44.2635529,119.118359 Z M11.1752318,30.8993631 L10.0064179,33.4274836 L9.94711131,33.7166624 L9.65057847,35.0880675 L9.29473905,35.5921734 L9.29473905,35.8813522 L9.00579745,35.7404398 L8.93154562,36.8229033 L9.14647263,36.6079763 L9.00579745,37.5419361 L8.42008577,38.8466807 L8.49410036,40.2923376 L8.35342518,41.0040164 L8.64236679,40.7221916 L8.93154562,39.7882318 L8.7092646,39.4174471 L9.50990328,37.1787427 L9.65057847,35.8073376 L10.0064179,35.1549653 L10.3772026,33.5017354 L11.3187536,31.6186332 L11.3854142,32.4119179 L10.8813084,33.568396 L10.5624763,34.398688 L10.5551223,34.406042 L10.3772026,34.5839617 L10.3772026,34.8731405 L10.4438631,34.7175201 L10.3029507,35.7404398 L10.4512172,35.8073376 L10.1622755,36.385458 L10.1622755,37.4679215 L9.79149088,38.1202938 L10.0064179,38.8466807 L9.8657427,39.2767719 L9.94711131,41.2262974 L9.72483029,42.7462062 L9.29473905,43.4725931 L9.36163686,43.6875201 L9.14647263,43.8284325 L9.07981204,44.2658777 L9.43565146,46.2080493 L10.0880237,46.6454945 L10.3029507,47.4387792 L10.8070566,47.9502391 L12.4752318,49.4625566 L13.9875493,48.9584507 L15.425615,51.5605858 L17.3084799,52.5687974 L17.1678047,52.427885 L18.1760164,52.2796186 L18.1760164,52.8579763 L17.820177,52.8579763 L19.1173303,55.0226661 L18.8283887,55.1782865 L19.0433157,55.3191989 L18.9024033,56.1791442 L18.9024033,56.2605128 L19.3324945,56.690604 L19.5474215,56.4014252 L19.4065091,56.1791442 L19.2582427,55.8899653 L19.6214361,56.1791442 L19.6214361,56.2605128 L20.4147208,57.3429763 L20.4147208,57.9879945 L20.6296478,58.0620091 L20.5629872,57.6988157 L20.9261807,58.4994544 L21.0670931,58.2029215 L21.8603777,58.358542 L22.0086442,58.9293084 L22.4384982,58.7143814 L22.51275,59.500312 L22.8685894,59.500312 L23.3133887,59.2184872 L22.942604,58.358542 L23.3800493,58.0620091 L24.2473485,57.4838887 L24.7514544,58.2769361 L25.1222391,58.2029215 L24.7514544,58.7886332 L25.6189909,60.3749653 L25.2631515,63.051115 L25.6930055,63.3402938 L25.6189909,63.6961332 L24.9666186,64.7785967 L24.2473485,65.0008777 L24.2473485,65.7941624 L23.8101405,65.8610602 L23.8841551,66.5134325 L22.942604,66.8023741 L22.942604,67.2398193 L23.0242099,67.5289982 L22.942604,67.6030128 L22.51275,68.0997646 L22.727677,68.4705493 L22.1569106,68.9004033 L22.2235712,70.3387062 L22.8019288,70.7835055 L23.0242099,70.4127208 L23.0984617,70.1977938 L23.2391369,70.6352391 L23.0242099,71.4951843 L22.0086442,72.51075 L22.4384982,74.1046734 L22.2235712,74.393615 L23.2391369,75.327812 L24.2473485,76.99575 L25.1222391,79.0121734 L25.7672573,80.4651843 L27.42025,82.8448011 L27.2795748,83.3489069 L27.8576953,84.2164434 L28.6583339,85.0094909 L32.3426953,87.1817719 L33.6400858,88.4122646 L34.077531,90.0728485 L34.4333704,91.5851661 L34.3667099,93.6831953 L35.0190821,95.5660602 L35.0190821,99.0281405 L35.5155967,100.043706 L35.4489361,100.117958 L35.3006697,100.688724 L36.3904872,103.513141 L36.3904872,106.619381 L36.0197026,106.760294 L37.2577865,108.561553 L37.3170931,109.866297 L37.9028047,110.370403 L37.7618923,110.51867 L38.1993376,110.296389 L38.555177,110.370403 L38.6960894,110.229728 L38.4811624,110.659582 L38.9110164,110.8821 L38.9852682,111.097027 L38.6294288,110.956115 L38.9852682,111.23794 L38.770104,111.097027 L38.9110164,111.897666 L39.3558157,112.179491 L39.1259434,112.394418 L39.7859069,112.683597 L39.4151223,113.195057 L40.0008339,113.409984 L39.5707427,113.409984 L39.6376405,113.624911 L39.8525675,113.550896 L39.9265821,114.203268 L39.5707427,113.906735 L39.2001953,113.98075 L39.4967281,113.906735 L39.2742099,113.906735 L39.2742099,113.699162 L39.2001953,113.840075 L38.9110164,113.624911 L38.6960894,113.699162 L39.1259434,113.840075 L39.0592828,114.062356 L38.770104,114.351535 L39.0592828,114.136608 L39.2742099,114.418195 L39.6376405,114.351535 L40.0674945,114.707374 L39.7859069,114.848049 L40.2157609,114.922301 L39.7859069,115.063214 L40.3566734,114.996316 L40.8681332,115.285495 L40.4975858,115.218834 L40.8681332,115.508013 L40.0008339,115.285495 L40.6532062,115.574673 L40.4382792,115.715586 L40.7198668,115.7896 L40.7941186,116.30106 L40.9347938,116.160385 L41.3722391,116.516224 L40.9347938,116.441973 L41.2982245,116.731151 L41.5947573,116.946078 L41.0090456,116.805403 L41.5131515,116.946078 L41.7133704,117.28721 L41.6614179,117.316863 L42.0912719,117.457776 L42.1655237,117.813378 L42.6769836,118.102557 L42.4544653,117.813378 L42.817896,118.102557 L42.4917099,117.783724 L42.3804507,117.746717 L42.5213631,117.524436 L42.5953777,117.746717 L43.1068376,117.961644 L43.1810894,118.399089 L43.1810894,118.458396 L44.0483887,118.458396 L44.4042281,118.829181 L44.2635529,119.118359 L44.7750128,119.325932 L44.4784799,118.614016 L45.2717646,118.243469 L45.8572391,118.399089 L45.1308522,117.88763 L44.6193923,117.524436 L44.915688,116.946078 L44.7750128,116.805403 L45.1308522,116.805403 L44.9899398,116.160385 L45.7756332,115.359746 L45.5607062,114.848049 L44.6934069,114.707374 L43.7592099,113.98075 L43.9743741,113.409984 L44.915688,113.195057 L44.6193923,112.179491 L45.1308522,111.667794 L44.5451405,111.386206 L44.915688,111.311954 L45.2717646,111.601133 L45.5607062,111.386206 L45.2717646,110.956115 L44.8343193,111.23794 L44.2635529,110.8821 L43.9001223,109.799637 L44.9899398,110.229728 L45.9981515,110.014564 L45.634958,108.717411 L45.9165456,108.784071 L45.4866916,108.205714 L46.5765091,108.420878 L47.4438084,108.279965 L48.6002865,108.131699 L49.3193193,107.701608 L49.8234252,106.686042 L49.6825128,106.181936 L49.0301405,105.892757 L49.0970383,105.321991 L47.6587354,104.447338 L47.510469,103.223962 L47.725396,104.009892 L48.3111077,104.521352 L49.8974398,104.951443 L51.7062901,104.736279 L52.8627682,103.298214 L53.0036807,102.141735 L53.9452318,100.829637 L53.7303047,100.473797 L54.5159982,100.903651 L53.2186077,102.497575 L54.375323,101.556024 L54.8867828,100.473797 L55.2426223,99.8287792 L56.1099215,99.1021551 L56.258188,97.73075 L55.8283339,96.8634507 L56.258188,96.1368266 L55.8283339,95.9218996 L56.3991004,96.0701661 L56.9772208,95.2695274 L58.2079507,94.4838339 L59.1495018,94.4095821 L60.1501223,93.5422828 L61.0916734,93.6831953 L61.5291186,93.24575 L61.6031332,93.5422828 L62.6855967,93.6089434 L62.7596113,93.1048376 L63.767823,92.5267172 L63.7011624,92.0226113 L64.7836259,90.3620274 L64.9985529,90.0728485 L65.1392281,88.768104 L65.7249398,88.0490712 L66.0807792,82.8448011 L66.2216916,82.5558595 L66.5106332,82.9930675 L66.9480785,82.6298741 L69.1201223,79.6645456 L70.4917646,77.8556953 L70.6324398,76.4842901 L70.1283339,74.6087792 L69.7651405,74.2453485 L68.030542,74.1046734 L66.5106332,72.6590164 L64.7836259,71.7174653 L64.7836259,71.6508047 L62.2481515,71.7174653 L60.9507609,71.0650931 L59.3644288,72.2215712 L59.4384434,71.4358777 L59.8685347,71.0650931 L59.1495018,71.2133595 L59.7202682,70.7835055 L59.3644288,70.0568814 L58.852969,70.5683412 L58.7787172,69.908615 L58.5637901,70.1977938 L58.6378047,69.908615 L58.3488631,70.0568814 L58.0670383,69.6270274 L57.8521113,69.908615 L57.7705055,69.4787609 L57.6295931,69.693688 L56.5400128,69.1153303 L56.473115,69.4118631 L55.6724763,69.1969361 L55.1683704,70.0568814 L55.6724763,70.1977938 L55.2426223,70.3387062 L55.0276953,69.9828668 L54.0861442,71.1393449 L54.3010712,70.4127208 L53.0036807,70.6352391 L54.7311624,70.123542 L55.3166369,68.7594909 L53.1445931,68.5372099 L52.6478412,69.5527755 L52.5738266,69.0413157 L52.1363814,69.5527755 L52.0621296,68.9746551 L51.6322755,69.5527755 L52.0621296,68.4705493 L53.6560529,67.0989069 L53.3595201,67.0175383 L53.5746843,66.4465347 L52.6478412,66.0166807 L52.0621296,63.5737245 L51.8884799,63.9335967 L50.5507609,65.9502573 L49.7292464,65.6549106 L49.2614361,65.898542 L48.348115,65.3197099 L47.2322026,65.5097281 L47.2789361,66.2102573 L45.7412354,66.0192901 L44.1050858,66.9098376 L43.107312,66.1383777 L42.8968923,65.0691989 L43.3858157,63.7960055 L42.7607245,63.1149288 L42.8202682,62.3211697 L42.1871113,62.3017172 L41.5601223,61.5411697 L41.7762354,60.6741077 L42.6475675,60.3090164 L42.3161624,59.720458 L43.2653047,58.9471004 L42.817896,58.6403668 L42.5953777,58.4994544 L41.8763449,58.4994544 L41.9503595,57.5579033 L41.157312,57.0464434 L40.4382792,57.120458 L40.2824215,56.905531 L39.9265821,56.475677 L41.0090456,56.0382318 L38.555177,56.1198376 L39.1259434,56.3347646 L37.6878777,56.7646186 L36.5313996,56.1198376 L34.6482974,56.1791442 L34.4333704,55.4598741 L33.2768923,55.0966807 L32.9950675,54.2367354 L32.6985347,54.8817536 L33.1359799,54.8075018 L33.1359799,55.0966807 L32.7801405,54.9557682 L31.3271296,55.7490529 L31.6163084,56.690604 L31.7572208,56.9797828 L31.682969,57.4838887 L31.0379507,57.6988157 L30.6821113,56.8315164 L30.8230237,56.690604 L31.3271296,55.8899653 L31.0379507,54.8817536 L31.9054872,54.3776478 L31.468042,53.866188 L29.814812,55.1782865 L29.0141734,55.0966807 L28.7992464,55.4598741 L28.2877865,55.3191989 L27.8576953,55.6750383 L27.42025,56.4014252 L27.42025,56.5496916 L27.42025,57.1947099 L26.1230967,58.1362609 L26.1971113,58.8552938 L25.3371661,57.4838887 L24.395615,56.905531 L23.8841551,56.8315164 L23.5283157,57.0464434 L22.51275,57.6988157 L21.8603777,57.2613704 L21.9419836,57.5579033 L21.5711989,57.4169909 L21.0670931,56.2605128 L20.5629872,54.8075018 L21.6454507,51.4123193 L21.6454507,50.4041077 L20.4889726,49.5368084 L18.1091186,49.7590894 L17.6050128,49.4625566 L18.3242828,48.3803303 L18.7614909,46.8604215 L18.5392099,46.7937609 L18.9766551,46.2823011 L18.9024033,47.008688 L19.6214361,45.4963704 L19.4065091,45.4223558 L20.5629872,43.6875201 L19.703042,43.3243266 L18.035104,43.8284325 L17.2344653,45.6372828 L16.3671661,46.5788339 L15.9370748,46.2823011 L14.4247573,46.8604215 L14.1282245,46.1413887 L13.6983704,46.1413887 L13.6983704,42.4570274 L13.8392828,41.8786697 L14.5656697,39.8622464 L14.9288631,39.0616077 L15.210688,38.9209325 L14.9957609,39.3507865 L15.5812354,38.4092354 L15.6246478,38.1869544 L15.0443923,37.8128485 L15.3091369,36.5500931 L15.4194471,34.278177 L15.0467646,34.1246916 L14.1609617,34.9855858 L13.8845931,34.315896 L14.0349945,33.9685967 L13.9329872,32.1791989 L13.3553412,32.0717354 L13.0329507,32.4617354 L12.1186807,32.310385 L11.6439909,31.0749106 L11.7611807,30.7892901 L11.1752318,30.8993631 Z" id="Fill-8" fill="#FFFFFF"></path>
                            <path d="M127.202865,82.4111989 L127.137153,82.7689361 L126.986515,83.2766004 L127.061715,82.9945383 L126.770164,83.6435894 L126.271515,85.0833157 L125.396624,87.6890091 L124.747336,89.1284982 L124.314635,90.2197391 L123.232883,92.9575675 L123.091734,93.3902682 L123.449234,92.8161807 L125.547263,87.830396 L126.337464,85.4498303 L126.704215,84.4340274 L126.845365,84.0013266 L127.155894,82.8156697 L127.137153,82.8438996 L127.202865,82.4111989 Z M127.231095,82.5808157 L127.202865,82.6275493 L127.165383,82.778188 L127.202865,82.7029872 L127.231095,82.5808157 Z M127.551113,81.3859069 L127.353504,82.0159799 L127.278066,82.3362354 L127.231095,82.5808157 L127.278066,82.4866369 L127.551113,81.3859069 Z M127.861405,79.0905055 L127.786204,79.4477682 L127.861405,79.2314179 L127.861405,79.0905055 Z M127.711004,80.7458704 L127.711004,80.6051953 L127.579343,81.2634982 L127.711004,80.7458704 Z M127.739234,80.642677 L127.711004,80.7458704 L127.711004,80.8215456 L127.739234,80.642677 Z M127.983814,79.5699398 L127.786204,80.3131697 L127.739234,80.642677 L127.927354,79.880469 L127.983814,79.5699398 Z M128.143704,78.7235164 L128.077755,79.0905055 L127.983814,79.5699398 L128.077755,79.2314179 L128.143704,78.7984799 L128.143704,78.7235164 Z M126.271515,76.7761259 L126.337464,77.2840274 L126.337464,77.3497391 L126.196314,78.9398668 L125.904526,80.0311077 L125.547263,82.1948485 L125.396624,81.9032974 L125.688175,79.880469 L125.979964,79.1562172 L126.196314,77.3497391 L126.196314,77.067677 L126.271515,76.7761259 Z M120.052865,65.9946661 L120.128303,66.9542464 L118.754763,69.4095383 L118.679325,70.4915274 L118.679325,69.5509252 L118.754763,69.4095383 L119.695602,67.452896 L119.695602,67.3869471 L120.052865,65.9946661 Z M120.391624,65.4208157 L120.081095,65.8909982 L120.128303,65.7218558 L120.391624,65.4208157 Z M122.169635,64.3013449 L120.993704,64.9973668 L120.636204,65.1197755 L120.993704,64.7058157 L121.069142,64.5646661 L122.169635,64.3013449 Z M122.292044,64.273115 L123.373796,65.7970566 L122.226095,64.2918558 L122.292044,64.273115 Z M105.028613,57.4146661 L106.185803,58.7882062 L106.251989,58.9293558 L106.251989,57.5558157 L106.402153,60.7355967 L106.326953,60.3783339 L106.251989,60.302896 L105.602464,59.945396 L106.251989,60.1617464 L106.251989,59.5784069 L106.185803,59.4374945 L106.185803,59.2211442 L105.960201,59.2211442 L106.185803,59.1457062 L105.602464,59.2211442 L106.110602,58.9293558 L105.461551,58.5718558 L105.244964,57.9228047 L104.595912,57.9885164 L105.169763,57.9228047 L105.028613,57.4146661 Z M125.039124,54.9593741 L125.114325,54.9593741 L124.963923,55.0250858 L124.822774,55.0250858 L125.039124,54.9593741 Z M125.979964,54.8087354 L126.120876,54.8087354 L125.904526,54.8839361 L125.829325,54.8839361 L125.979964,54.8087354 Z M109.139982,54.6675858 L109.723084,55.1757245 L109.723084,56.1822755 L109.723084,56.3986259 L109.647883,56.1822755 L109.431533,55.8247755 L109.647883,55.2414361 L109.139982,54.6675858 Z M127.137153,54.592385 L127.202865,54.592385 L127.061715,54.6675858 L126.986515,54.6675858 L127.137153,54.592385 Z M100.616679,34.8736624 L100.691642,34.8736624 L100.541241,34.9396113 L100.400328,34.9396113 L100.616679,34.8736624 Z M122.000255,34.7232609 L122.132153,34.9113814 L122.075693,34.7982245 L122.000255,34.7232609 Z M117.164872,33.7164726 L117.240073,33.7164726 L117.089434,33.7824215 L116.948285,33.7824215 L117.164872,33.7164726 Z M117.738485,33.6412719 L117.813923,33.6412719 L117.672774,33.7164726 L117.522135,33.7164726 L117.738485,33.6412719 Z M119.046314,33.4246843 L119.112263,33.4246843 L118.971113,33.5001223 L118.895675,33.5001223 L119.046314,33.4246843 Z M119.977901,33.2083339 L120.052865,33.2083339 L119.977901,33.2837719 L119.911953,33.2837719 L119.977901,33.2083339 Z M100.324891,16.5189909 L100.400328,16.5189909 L100.183741,16.5941916 L100.10854,16.5941916 L100.324891,16.5189909 Z M105.894252,15.2866004 L106.110602,15.4372391 L106.185803,15.5781515 L105.894252,15.2866004 Z M84.5763869,13.3392099 L84.6515876,13.6307609 L84.3597993,13.4144106 L84.1434489,13.8473485 L84.5763869,13.8473485 L84.5763869,14.1294106 L83.6355474,14.1294106 L84.1434489,14.4211989 L84.0025365,14.7879507 L84.7927372,14.8538996 L84.5102007,15.3618011 L85.1594891,15.2866004 L84.3597993,15.5781515 L84.7927372,15.6535894 L84.5102007,15.8699398 L85.0090876,15.8699398 L84.7927372,16.0862901 L85.1594891,15.9356515 L85.0842883,16.1520018 L85.949927,15.8699398 L86.7496168,15.5029507 L85.8085401,14.2800493 L86.0908394,13.9130602 L85.3758394,13.4144106 L84.7927372,13.5555602 L84.9429015,13.4144106 L84.5763869,13.3392099 Z M85.0090876,11.100031 L84.0682482,11.175469 L84.5102007,11.6738814 L84.1434489,11.6738814 L84.7265511,12.1068193 L84.5102007,12.3983704 L85.1594891,12.3983704 L85.5169891,13.3392099 L85.4417883,12.9817099 L85.5169891,12.6901588 L85.8744891,12.9065091 L85.5921898,12.9065091 L86.0908394,13.6307609 L86.3166788,13.7719106 L86.2412409,13.6307609 L87.1066423,13.4803595 L87.0316788,13.8473485 L87.5398175,14.1294106 L87.6807299,13.9882609 L87.8973175,14.4963996 L88.1888686,14.6375493 L87.4643796,14.7879507 L87.3986679,15.07025 L87.6807299,15.0043011 L87.9725182,15.2208887 L87.5398175,15.7947391 L88.9133577,16.0862901 L89.2708577,15.7947391 L89.2046715,16.2274398 L88.4806569,16.2274398 L88.1888686,17.1682792 L89.3460584,16.9516916 L89.2046715,16.5941916 L91.0770985,16.4437901 L91.660438,16.1520018 L91.5097993,16.0110894 L90.8607482,15.9356515 L91.152062,15.8699398 L91.0770985,15.1454507 L90.5784489,14.8538996 L89.9293978,14.9291004 L89.5624088,14.4963996 L89.487208,14.4211989 L89.3460584,14.3457609 L88.9883212,14.3457609 L89.4210219,14.2800493 L89.129708,14.0636989 L88.2640693,13.7719106 L87.0316788,12.8310712 L86.0908394,12.7653595 L86.5989781,12.6147208 L86.1662774,12.5395201 L86.4575912,12.3983704 L86.1662774,11.7493193 L85.0090876,11.890469 L85.0090876,11.100031 Z M88.1888686,4.66526825 L87.9820073,4.57108942 L87.8313686,4.52411861 L88.1888686,4.66526825 Z M108.086223,18.9932609 L108.810712,19.5858522 L108.876661,19.6048303 L108.895401,19.6048303 L108.086223,18.9932609 Z M89.1861679,41.5814726 L89.2046715,41.5155237 L89.0542701,41.7318741 L89.1861679,41.5814726 Z M123.016533,36.7176223 L123.016533,36.6799033 L122.659033,35.9554142 L122.630803,35.8991916 L122.150894,35.0900128 L122.875383,36.4635529 L122.950584,36.5859617 L123.016533,36.7176223 Z M121.454872,33.7447026 L121.897062,34.5161624 L121.567555,33.8576223 L121.454872,33.7447026 Z M121.370182,33.6035529 L121.426405,33.7164726 L121.454872,33.7447026 L121.370182,33.6035529 Z M121.247774,33.3872026 L121.370182,33.6035529 L121.285493,33.4246843 L121.247774,33.3872026 Z M121.097372,33.1238814 L121.210055,33.3497208 L121.247774,33.3872026 L121.097372,33.1238814 Z M88.2640693,4.66526825 L88.1888686,4.59931934 L87.9912591,4.53337044 L88.2640693,4.66526825 Z M88.1136679,4.61806022 L88.1888686,4.66526825 L88.5556204,4.81566971 L88.2640693,4.74046898 L89.3460584,5.17316971 L89.3460584,5.24837044 L90.0703102,5.54015876 L90.1457482,5.60587044 L89.0542701,5.17316971 L88.7719708,5.03202007 L88.047719,4.88161861 L88.5556204,5.03202007 L90.9357117,6.03880839 L90.2114599,5.8222208 L90.7193613,6.11400912 L91.0111496,6.25515876 L91.2277372,6.40556022 L91.3686496,6.47150912 L91.585,6.54670985 L91.9612409,6.73506752 L91.7354015,6.68785949 L91.8767883,6.83849818 L91.660438,6.68785949 L91.2277372,6.62214781 L91.585,6.83849818 L92.1681022,6.97941058 L92.6010401,7.27119891 L91.585,6.97941058 L90.6443978,6.54670985 L90.2866606,6.25515876 L89.6373723,6.18920985 L89.5624088,6.03880839 L88.6215693,5.75650912 L90.4278102,6.11400912 L90.1457482,5.89765876 L89.9951095,5.8222208 L89.9293978,5.75650912 L89.7787591,5.75650912 L89.7035584,5.68130839 L89.5624088,5.60587044 L89.4210219,5.60587044 L89.3460584,5.54015876 L89.2046715,5.46495803 L89.129708,5.46495803 L88.9883212,5.38952007 L88.9133577,5.31431934 L88.7719708,5.31431934 L88.6970073,5.24837044 L88.5556204,5.17316971 L88.405219,5.17316971 L86.890292,4.74046898 L86.655438,4.79692883 L86.5332664,4.74046898 L86.3826277,4.74046898 L86.0248905,4.59931934 L86.1662774,4.59931934 L85.8085401,4.52411861 L86.0908394,4.74046898 L85.6581387,4.59931934 L85.7333394,4.74046898 L85.3758394,4.59931934 L84.9429015,4.59931934 L84.867938,4.66526825 L84.2845985,4.66526825 L84.2188869,4.74046898 L84.5102007,4.81566971 L84.0682482,4.74046898 L84.2845985,4.88161861 L84.5102007,5.03202007 L84.3597993,4.95681934 L84.2845985,4.88161861 L84.1714416,4.88161861 L84.0025365,4.81566971 L84.0025365,4.88161861 L84.5102007,5.09796898 L84.0025365,5.03202007 L84.5763869,5.31431934 L84.5102007,5.46495803 L84.867938,5.46495803 L84.5763869,5.54015876 L84.5763869,5.68130839 L84.867938,5.75650912 L84.6515876,5.75650912 L85.1594891,5.89765876 L85.0090876,6.03880839 L85.4417883,6.11400912 L85.0842883,6.18920985 L85.3758394,6.25515876 L85.5921898,6.62214781 L85.949927,6.76306022 L85.7333394,6.68785949 L86.0908394,7.05484854 L86.3166788,7.05484854 L86.1662774,7.27119891 L86.3826277,7.19576095 L86.3826277,7.34639964 L86.6739416,7.48754927 L86.5989781,7.56275 L86.3166788,7.41234854 L86.5989781,7.92025 L86.9659672,7.99568796 L86.8153285,7.70389964 L87.1823175,8.06139964 L86.9659672,8.13660036 L86.6739416,7.99568796 L86.4575912,8.13660036 L86.9659672,8.42838869 L86.5332664,8.35295073 L87.0316788,8.49410036 L86.2412409,8.35295073 L86.890292,8.49410036 L86.2412409,8.56953832 L86.5989781,8.71993978 L86.7496168,8.86108942 L86.3826277,8.78588869 L86.6739416,8.86108942 L86.1662774,8.86108942 L86.3826277,9.00223905 L86.5332664,9.21858942 L86.9659672,9.21858942 L86.5989781,9.29379015 L86.9659672,9.29379015 L86.9659672,9.43493978 L87.3986679,9.3692281 L87.3234672,9.21858942 L87.6807299,9.3692281 L87.5398175,9.21858942 L87.8313686,9.3692281 L87.8313686,9.58557847 L87.4643796,9.3692281 L86.890292,9.51014051 L87.2480292,9.58557847 L87.0316788,9.65129015 L87.3986679,9.80192883 L87.4643796,9.65129015 L87.4643796,9.86764051 L87.7561679,10.0182792 L87.6807299,9.86764051 L87.9725182,10.1594288 L88.1229197,9.80192883 L88.047719,10.3757792 L88.405219,10.5169288 L88.5556204,10.3757792 L88.6215693,10.6673303 L88.9883212,10.6673303 L88.9883212,10.8084799 L88.5556204,10.6673303 L88.9133577,11.0248303 L89.9293978,11.3166186 L90.2866606,11.2411807 L89.9951095,10.5169288 L90.4278102,10.5921296 L89.9293978,10.0182792 L91.2277372,11.0248303 L91.3686496,10.9591186 L91.660438,11.2411807 L91.5097993,10.9591186 L91.9517518,11.3918193 L93.2500912,12.1068193 L93.2500912,12.2572208 L94.1157299,12.9065091 L94.6238686,12.8310712 L94.1911679,12.3231697 L94.6895803,12.3231697 L93.8993796,11.457531 L92.9585401,10.8084799 L93.0996898,10.8084799 L92.7421898,10.6673303 L93.0337409,10.5921296 L92.7421898,10.3003412 L93.1751277,10.5169288 L93.0337409,10.2346296 L92.7421898,10.1594288 L92.7421898,9.94307847 L91.660438,9.43493978 L91.3686496,9.43493978 L89.5624088,8.13660036 L89.9293978,8.27775 L89.7035584,7.77910036 L89.6373723,7.62869891 L89.2708577,7.27119891 L88.405219,6.83849818 L88.6215693,6.90420985 L88.1229197,6.62214781 L88.4806569,6.68785949 L88.1888686,6.54670985 L88.6215693,6.54670985 L89.5624088,6.90420985 L90.6443978,8.13660036 L91.9517518,8.86108942 L92.6669891,9.3692281 L93.2500912,9.58557847 L93.3160401,9.51014051 L93.7584672,9.80192883 L94.1911679,9.15287774 L94.5486679,9.3692281 L95.2729197,9.51014051 L94.9813686,9.72649088 L95.2729197,9.94307847 L94.5486679,9.80192883 L94.4075182,10.1594288 L95.197719,10.6673303 L95.4892701,10.6673303 L96.3549088,11.3918193 L96.3549088,11.532969 L95.4140693,11.100031 L95.3481204,11.2411807 L95.9971715,11.890469 L96.7498905,12.4453412 L97.3707117,12.9065091 L97.1543613,12.9817099 L96.7498905,12.4453412 L97.0793978,12.9065091 L97.0039599,12.9817099 L97.2203102,13.1980602 L97.2957482,13.1228595 L97.3707117,13.2640091 L97.3707117,13.28275 L97.3707117,13.4803595 L97.1543613,13.1980602 L97.0793978,13.4144106 L96.3549088,13.1228595 L95.8467701,13.7719106 L96.0631204,14.0636989 L94.840219,13.4803595 L94.3323175,13.9130602 L94.1157299,13.6307609 L93.7584672,13.6967099 L93.0996898,13.3392099 L92.5258394,12.7653595 L92.6010401,12.2572208 L92.017938,12.0408704 L91.5097993,11.3918193 L91.152062,11.8245201 L92.6669891,13.4144106 L92.7421898,13.3392099 L93.1751277,13.5555602 L93.0996898,13.6967099 L94.1911679,14.2046113 L93.4664416,13.9882609 L93.7582299,14.3457609 L93.2500912,14.1294106 L92.9585401,14.2800493 L93.3160401,14.4963996 L92.5258394,14.4211989 L92.4506387,14.6375493 L93.0337409,15.0043011 L92.8833394,15.2208887 L92.2342883,14.7879507 L92.5258394,15.5029507 L92.9585401,15.6535894 L92.4506387,15.7947391 L93.0337409,15.9356515 L91.9517518,16.3780785 L92.3846898,16.8764909 L92.3094891,17.0271296 L91.9517518,17.6009799 L90.5784489,17.3091916 L91.5097993,18.1840821 L90.7947993,18.250031 L90.3620985,17.9584799 L89.5624088,18.325469 L90.0703102,18.5418193 L89.7787591,18.4663814 L90.1457482,18.8990821 L91.5097993,19.0497208 L92.3846898,19.8399215 L92.8833394,19.9905602 L93.0996898,20.4892099 L93.3160401,20.6396113 L94.0405292,22.4458522 L90.3620985,22.5118011 L89.7787591,22.2295018 L88.9883212,22.9445018 L89.7787591,23.5278412 L90.5030109,25.4752318 L90.4278102,26.7076223 L90.7947993,26.4912719 L90.7947993,27.0651223 L91.0770985,27.0651223 L91.4440876,28.2975128 L93.0337409,28.0059617 L94.4732299,29.2383522 L95.0565693,28.5138631 L96.7124088,28.4386624 L96.8628102,27.7144106 L97.3709489,27.5732609 L97.1543613,26.9242099 L97.3709489,26.6324215 L97.2957482,26.5572208 L97.2957482,26.4160712 L97.2203102,26.3408704 L97.0039599,26.1242828 L96.7124088,25.6256332 L96.7876095,25.4092828 L96.8628102,24.3934799 L97.8695985,23.603042 L97.2203102,22.8033522 L97.1545985,22.3706515 L97.5120985,22.1543011 L98.9606022,22.5118011 L99.6098905,21.2888996 L100.616679,21.6463996 L102.06542,22.9445018 L105.819051,24.8261807 L106.759891,25.8422208 L106.976241,26.6324215 L107.267792,26.7076223 L106.976241,25.9079325 L107.117391,25.6915821 L106.32719,25.042531 L106.110839,24.4686807 L106.68469,24.5343923 L107.192591,24.9673303 L107.051442,24.6098303 L105.028613,23.603042 L104.878449,23.1608522 L104.15396,23.0951405 L102.63927,21.86275 L101.632719,21.3546113 L100.766843,20.3480602 L101.12458,19.9905602 L101.990219,20.8559617 L101.914781,20.3480602 L103.721259,21.7968011 L104.229161,21.86275 L104.95365,22.2954507 L104.520712,22.2295018 L105.678139,22.5870018 L106.468339,23.1608522 L107.192591,24.3934799 L107.992281,24.9673303 L108.782482,25.6256332 L108.857682,25.5506697 L108.857682,25.7670201 L109.290383,26.1242828 L110.297172,26.2749215 L110.297172,26.4160712 L109.506734,26.2749215 L109.57292,26.5572208 L110.513522,27.4980602 L110.513522,27.2814726 L111.096624,27.864812 L110.880274,27.4980602 L111.379161,27.7896113 L110.447573,26.7735712 L110.880274,26.8487719 L110.372609,26.4912719 L110.513522,26.3408704 L110.94646,26.6324215 L110.663923,26.1997208 L109.57292,25.6256332 L109.723084,25.4752318 L109.43177,25.1836807 L109.723084,25.3340821 L108.565894,24.1771296 L108.565894,24.0357427 L109.43177,24.6098303 L109.074033,24.2520931 L109.43177,24.3934799 L108.857682,23.8853412 L109.139982,23.603042 L110.014872,23.8853412 L110.156259,24.4686807 L110.014872,23.5278412 L110.447573,23.4526405 L109.074033,22.2954507 L108.923631,22.3706515 L108.565894,21.3546113 L107.550091,20.1317099 L107.766442,20.3480602 L107.84188,20.2069106 L107.117391,19.4072208 L107.333741,19.6235712 L107.192591,19.3320201 L107.117391,19.1908704 L106.835091,18.8333704 L106.90104,18.4663814 L107.333741,18.7581697 L106.976241,18.7581697 L107.267792,18.8333704 L107.333741,18.9745201 L107.84188,18.9745201 L108.05823,19.2660712 L108.133193,19.6990091 L108.27458,19.6235712 L108.999069,20.2728595 L109.290383,20.4232609 L109.074033,19.4824215 L108.895401,19.6048303 L108.923631,19.6235712 L108.876661,19.6048303 L108.857682,19.6235712 L108.810712,19.5858522 L108.707281,19.5483704 L108.208631,19.1908704 L108.086223,18.9932609 L108.076971,18.9932609 L107.84188,18.6170201 L108.208631,19.0497208 L107.916843,18.5418193 L107.992281,17.892531 L108.349544,18.4006697 L108.208631,18.4006697 L108.857682,18.8990821 L108.641332,18.7581697 L109.215182,19.4824215 L109.215182,19.6235712 L110.91823,20.7995018 L110.94646,20.8559617 L111.096624,20.9219106 L111.821113,21.50525 L112.53635,22.2295018 L112.827664,22.6624398 L113.044015,23.0951405 L112.969051,23.0951405 L112.752701,23.1608522 L112.10365,22.9445018 L111.238011,22.2954507 L110.880274,22.4460894 L111.021661,23.3114909 L110.372609,23.3114909 L110.663923,23.6689909 L110.94646,23.6689909 L110.663923,23.8193923 L110.880274,24.0357427 L110.156259,24.1016916 L110.231223,24.5343923 L110.513522,24.9673303 L110.730109,24.8261807 L111.313212,25.6256332 L111.604763,25.8422208 L111.529562,25.9833704 L111.16281,25.6256332 L111.379161,25.9833704 L111.887062,26.1997208 L112.037464,26.5572208 L112.53635,26.8487719 L112.53635,27.1405602 L112.903102,26.9899215 L112.827664,27.4321113 L113.044015,27.2157609 L113.909891,27.7896113 L114.060292,27.7144106 L113.69354,27.1405602 L113.909891,27.0651223 L114.85073,27.7896113 L115.06708,27.5732609 L114.85073,26.9899215 L115.142044,27.2157609 L115.142044,26.9242099 L115.866533,28.0811624 L116.58177,29.0220018 L118.105474,32.192531 L117.672774,32.5592828 L117.305785,32.1265821 L117.023723,32.0513814 L116.79812,32.9167828 L115.716131,32.4088814 L114.991642,32.4088814 L114.63438,31.9759434 L113.843942,31.9102318 L113.47719,31.4023303 L112.686752,31.1857427 L112.394964,31.9759434 L113.044015,33.2837719 L113.044015,33.3497208 L112.827664,33.932823 L111.887062,33.2837719 L110.58896,32.9167828 L109.798522,31.9759434 L108.490931,31.5432427 L107.916843,31.6938814 L106.251989,30.8282427 L105.894489,30.4614909 L106.035401,29.4547026 L105.17,28.579812 L105.028613,27.6484617 L104.878449,28.0811624 L104.15396,27.4980602 L103.288321,28.0059617 L102.28177,27.864812 L101.849069,28.2975128 L100.766843,28.0811624 L99.1019891,28.579812 L98.5938504,29.1631515 L98.02,29.3043011 L97.5120985,29.9533522 L96.8628102,29.9533522 L96.6464599,29.6710529 L95.4140693,29.9533522 L94.5486679,29.3043011 L94.2568796,29.3795018 L94.2568796,31.110542 L92.7421898,32.6344836 L92.6010401,33.7824215 L93.1751277,35.0900128 L93.1751277,35.1559617 L92.8833394,35.8802135 L92.017938,36.9622026 L90.9359489,37.3289544 L90.5784489,38.7024945 L89.9293978,39.2013814 L89.8539599,40.7912719 L89.1861679,41.5814726 L88.405219,43.905104 L88.405219,44.9116551 L88.5556204,44.5541551 L89.4210219,45.5609434 L89.2046715,46.5015456 L89.9293978,48.232823 L89.6373723,50.4717646 L88.8379197,51.5630055 L89.9293978,52.5038449 L89.9951095,53.0776953 L90.9359489,52.9365456 L90.1457482,53.2188449 L89.7787591,53.0024945 L89.8539599,54.0185347 L90.3620985,53.9433339 L89.8539599,54.1596843 L90.5784489,54.234885 L90.2866606,54.5266734 L90.7947993,54.592385 L90.7195985,54.8839361 L91.7354015,54.592385 L91.1522993,54.8087354 L91.660438,54.9593741 L91.2277372,55.3920748 L91.5097993,55.7495748 L91.7354015,55.5332245 L91.660438,55.8247755 L92.0931387,55.6084252 L92.3846898,56.6149763 L92.8833394,56.8313266 L93.3160401,57.047677 L93.1751277,57.3394653 L93.6078285,57.5558157 L93.8241788,58.4214544 L94.1157299,58.4214544 L93.6830292,58.5718558 L94.5486679,59.2868558 L94.5486679,59.7290456 L95.8467701,60.3783339 L98.452938,62.5420748 L99.6098905,62.9747755 L100.90823,62.2502865 L102.789672,61.8927865 L104.661861,62.4009252 L106.32719,61.384885 L107.484142,60.660396 L109.43177,60.0113449 L109.139982,60.302896 L110.014872,60.302896 L110.513522,60.9521843 L110.730109,60.7355967 L110.58896,61.027385 L110.94646,61.0930967 L110.663923,61.1685347 L110.80531,61.384885 L111.021661,61.1685347 L110.80531,61.6012354 L111.379161,62.5420748 L111.962263,62.5420748 L111.887062,62.1845748 L112.037464,62.4666369 L111.962263,62.1091369 L112.178613,62.4666369 L112.178613,62.0339361 L112.394964,62.4009252 L113.119453,62.2502865 L113.044015,61.7518741 L113.335803,62.2502865 L113.47719,61.9682245 L113.843942,62.8336259 L114.201204,62.6829872 L114.276642,62.9747755 L114.126241,62.9747755 L114.417792,63.7744653 L114.060292,66.0134069 L114.276642,66.0791186 L114.276642,66.8038449 L114.060292,66.7284069 L114.558942,67.0951588 L114.201204,67.2365456 L114.060292,66.9544836 L113.909891,68.1771478 L113.552153,68.1021843 L114.201204,70.0588266 L115.650182,72.2225675 L115.791332,73.6713084 L116.148832,73.9633339 L115.866533,74.1040091 L116.365182,76.6347391 L116.007682,77.425177 L116.148832,78.3657792 L116.224033,79.5232062 L115.866533,80.8215456 L114.925693,82.1948485 L113.843942,84.8669653 L113.335803,87.1811077 L113.627354,91.8755785 L112.394964,95.7046478 L112.037464,99.1759799 L111.670712,100.765633 L111.313212,101.556071 L110.94646,101.848097 L110.447573,103.2214 L110.730109,103.005049 L110.880274,103.6541 L112.53635,102.713498 L113.335803,102.863662 L114.492993,102.139411 L116.873084,99.9002318 L117.813923,98.5926405 L118.246624,98.0190274 L119.046314,97.0779507 L120.485803,94.622896 L120.344653,94.8392464 L120.410602,94.4815091 L122.075693,92.4586807 L122.941332,90.4268376 L123.374033,88.8464361 L123.665584,87.830396 L123.665584,88.0467464 L124.390073,86.9647573 L124.897974,85.8830055 L125.979964,84.1422391 L126.120876,83.8599398 L126.629015,82.3362354 L127.061715,80.247458 L127.203102,80.0311077 L127.494416,78.5071661 L127.635803,77.7824398 L127.635803,77.2840274 L127.635803,77.067677 L127.861405,75.1859982 L127.927354,74.612385 L127.861405,74.6780967 L128.077755,73.7372573 L128.077755,72.6552682 L128.294343,71.1405785 L128.576405,69.2591369 L128.576405,68.8261989 L128.792755,68.2525858 L128.727044,67.8858339 L128.868193,67.8858339 L129.225456,64.7810164 L129.376095,62.6829872 L129.376095,60.2276953 L128.868193,55.7495748 L128.727044,54.5266734 L128.576405,53.8681332 L128.510693,53.510396 L128.510693,53.3694836 L128.218905,51.7793558 L128.143704,51.7041551 L128.218905,51.9205055 L128.294343,52.5038449 L128.294343,52.7861442 L128.360055,53.3694836 L128.294343,53.2188449 L128.294343,53.8021843 L127.861405,52.5038449 L127.786204,52.6449945 L127.786204,52.0616551 L127.635803,51.5630055 L126.770164,49.3240639 L126.487865,48.9570748 L126.487865,48.8913631 L126.337464,48.5995748 L126.412664,48.8913631 L125.180274,45.7113449 L124.681624,44.8364544 L123.769015,42.4563631 L123.308084,41.5155237 L122.659033,40.649885 L122.150894,39.5681332 L122.216843,39.6340821 L121.784142,38.9847938 L119.761551,35.6638631 L118.895912,34.5818741 L118.388011,33.6412719 L119.32885,35.014812 L120.052865,35.8050128 L119.262664,33.932823 L119.911953,35.372312 L120.128303,35.372312 L122.000493,38.1945931 L122.442682,39.0602318 L122.941332,39.6340821 L123.665584,41.0076223 L124.173485,42.3811624 L124.606423,43.1056515 L125.039124,43.7547026 L126.337464,46.8592828 L126.845365,48.5243741 L127.635803,51.3466551 L127.786204,51.1303047 L127.635803,50.4717646 L127.635803,49.5404142 L127.494416,48.8159252 L127.353504,48.3080237 L127.137153,47.5835347 L126.920803,46.6429325 L126.629015,45.9276953 L126.337464,44.9870931 L126.271515,44.7707427 L125.979964,43.8299033 L125.829325,43.4724033 L125.396624,42.164812 L125.180274,41.7318741 L125.255474,41.9484617 L124.465274,39.8596843 L123.881934,38.6272938 L123.806971,38.3357427 L123.562153,37.8935529 L123.524434,37.827604 L123.439982,37.6397208 L123.355055,37.4421113 L123.016533,36.7176223 L123.016533,36.7458522 L122.659033,36.0968011 L122.150894,35.1559617 L121.210055,33.5001223 L121.134854,33.2837719 L120.852555,32.8508339 L120.777354,32.7758704 L120.852555,32.7758704 L120.777354,32.5592828 L120.852555,32.7004325 L121.097372,33.1238814 L120.852555,32.6439726 L120.852555,32.6344836 L120.843303,32.6252318 L120.777354,32.4935712 L120.777354,32.4840821 L120.768102,32.4745931 L120.702153,32.3429325 L120.636204,32.2674945 L120.561004,32.1265821 L120.410602,31.9759434 L120.052865,31.2609434 L119.911953,31.110542 L119.620164,30.5366916 L119.479015,30.3860529 L119.32885,30.1037536 L119.1125,29.8874033 L118.895912,29.4547026 L118.754763,29.3043011 L118.538412,28.8713631 L118.388011,28.7302135 L118.321825,28.579812 L118.105474,28.3634617 L117.95531,28.0811624 L117.813923,27.9307609 L117.672774,27.6484617 L117.456423,27.4321113 L117.381223,27.2814726 L117.240073,27.140323 L117.089434,26.8487719 L116.873084,26.6324215 L116.79812,26.4912719 L116.656734,26.3408704 L116.515584,26.0585712 L116.148832,25.6915821 L116.007682,25.4092828 L115.650182,25.0422938 L115.499781,24.7507427 L115.142044,24.3932427 L114.991642,24.1016916 L114.63438,23.7441916 L114.558942,23.603042 L114.201442,23.2362901 L114.126241,23.0949033 L113.768504,22.7281515 L113.69354,22.5870018 L113.552153,22.5118011 L113.47719,22.3706515 L113.335803,22.2295018 L113.260839,22.0791004 L113.119453,22.0131515 L113.044015,21.86275 L112.686752,21.5050128 L112.611314,21.3546113 L112.470164,21.2886624 L112.394964,21.1382609 L111.670712,20.4232609 L111.604763,20.2728595 L111.454361,20.2069106 L111.379161,20.0562719 L111.313212,19.9905602 L111.238011,19.9151223 L111.16281,19.8399215 L111.021661,19.6987719 L110.297172,18.9745201 L109.43177,18.1840821 L108.999069,17.7421296 L109.139982,17.8173303 L108.923631,17.6761807 L108.641332,17.3846296 L108.490931,17.3091916 L108.424982,17.1682792 L108.27458,17.0928412 L108.208631,16.9516916 L108.05823,16.8764909 L107.766442,16.5941916 L107.625529,16.5189909 L107.409179,16.3026405 L107.267792,16.2274398 L107.192591,16.0862901 L107.051442,16.0110894 L106.759891,15.7193011 L106.618504,15.6533522 L106.402153,15.4370018 L106.32719,15.5029507 L106.32719,15.4370018 L106.402153,15.4370018 L106.32719,15.3995201 L106.32719,15.3618011 L106.251989,15.3618011 L106.251989,15.2866004 L106.214033,15.2866004 L106.185803,15.2206515 L106.035401,15.1454507 L105.819051,14.9291004 L105.678139,14.8538996 L105.461788,14.6375493 L105.31115,14.5716004 L105.17,14.4211989 L105.028613,14.3457609 L104.95365,14.2046113 L104.661861,14.0634617 L104.520949,13.9130602 L104.379562,13.8471113 L104.304599,13.6967099 L104.01281,13.5555602 L103.871423,13.4144106 L103.721259,13.3392099 L103.655073,13.1980602 L103.363759,13.0474215 L103.222372,12.9065091 L103.071971,12.8310712 L102.85562,12.6147208 L102.573321,12.4735712 L102.42292,12.3231697 L102.131131,12.1820201 L102.06542,12.0408704 L101.632719,11.8245201 L101.48208,11.6738814 L101.388139,11.6269106 L101.200018,11.457531 L101.228011,11.5234799 L101.321953,11.5986807 L101.2375,11.5517099 L101.228011,11.5234799 L101.171788,11.4857609 L101.12458,11.3915821 L100.69188,11.1752318 L100.541241,11.0248303 L100.10854,10.8084799 L99.8921898,10.5921296 L99.6098905,10.4509799 L99.4594891,10.3003412 L98.8856387,10.018042 L98.735,9.86764051 L98.3022993,9.65129015 L98.2365876,9.58534124 L98.0859489,9.51014051 L97.9447993,9.36899088 L97.0793978,8.92680109 L96.9287591,8.78588869 L95.7808212,8.21180109 L95.6304197,8.06139964 L91.4440876,5.97285949 L91.2277372,5.89765876 L90.9359489,5.75650912 L90.7947993,5.75650912 L89.6373723,5.17316971 L89.487208,5.17316971 L89.2708577,5.09796898 L88.5556204,4.74046898 L88.4806569,4.74046898 L88.4709307,4.74046898 L88.405219,4.74046898 L88.2640693,4.67452007 L88.4709307,4.74046898 L88.2640693,4.66526825 L88.1136679,4.61806022 Z M87.5398175,4.38296898 L87.9820073,4.57108942 L88.1136679,4.61806022 L87.9442883,4.51462956 L87.9347993,4.51462956 L87.8313686,4.44868066 L87.7559307,4.44868066 L87.5395803,4.38296898 L87.5398175,4.38296898 Z" id="Fill-10" fill="#FFFFFF"></path>
                            <polygon id="Fill-238" fill="#FFFFFF" points="19.0455219 54.6669453 19.1899927 53.7998832 19.7681131 55.0282409"></polygon>
                            <polygon id="Fill-242" fill="#FFFFFF" points="19.0455219 54.6669453 19.1899927 53.7998832 19.7681131 55.0282409"></polygon>
                            <polygon id="Fill-244" fill="#FFFFFF" points="41.2268668 56.1119617 41.3713376 56.6177281 40.8658084 56.8345529 41.877104 56.7621989 41.949458 55.9674909"></polygon>
                            <polygon id="Fill-246" fill="#FFFFFF" points="41.2268668 56.1119617 41.3713376 56.6177281 40.8658084 56.8345529 41.877104 56.7621989 41.949458 55.9674909"></polygon>
                            <polygon id="Fill-250" fill="#FFFFFF" points="25.4039453 41.8787409 23.0167372 42.3085949 22.6608978 43.035219 22.0827774 43.1761314 22.8018102 43.1761314 24.0325401 42.3828467 24.6849124 42.3828467 24.8255876 42.5977737 24.3957336 42.6720255 24.6106606 42.9609672 25.9823029 43.3243978 26.9236168 43.6133394 27.2127956 44.6217883 27.9318285 44.6958029 27.9318285 45.0589964 27.2794562 45.5631022 29.6666642 45.637354 30.5339635 45.2741606 29.236573 44.7700547 29.3774854 44.2659489 28.3692737 44.0434307 26.4121569 42.2419343 26.2712445 42.1679197"></polygon>
                        </g>
                    </g>
                </g>
            </g>
        </g>
    </g>
</svg>