<?xml version="1.0" encoding="utf-8"?>
<!-- Generator: Adobe Illustrator 16.0.4, SVG Export Plug-In . SVG Version: 6.00 Build 0)  -->
<svg version="1.2" baseProfile="tiny" id="Layer_1" xmlns="https://www.w3.org/2000/svg" xmlns:xlink="https://www.w3.org/1999/xlink"
	 x="0px" y="0px" width="153px" height="64px" viewBox="0 0 153 64" xml:space="preserve">
<title>US-Mainland</title>
<desc>Created with Sketch.</desc>
<path fill="#BAC9CF" d="M136.187-2.919l0.041,0.02c0.033-0.011,0.056-0.053,0.067-0.083l-0.01-0.028
	c-0.027-0.007-0.08-0.019-0.106-0.006C136.169-2.989,136.166-2.942,136.187-2.919z M136.355-4.234
	c0.033-0.003,0.063-0.016,0.085-0.035l-0.006-0.021c0.007-0.012,0.015-0.026,0.02-0.039c-0.007-0.015-0.015-0.029-0.021-0.044
	c-0.026-0.011-0.054-0.024-0.078-0.038c0.016,0.019,0.027,0.049,0.022,0.072c-0.023,0.037-0.061,0.045-0.038,0.093L136.355-4.234z
	 M136.012-3.526c-0.021,0.003-0.07,0.043-0.084,0.062c-0.021,0.097-0.038,0.222,0.04,0.3c0.022,0.022,0.062,0.033,0.087,0.053
	c0.024,0.019,0.031,0.051,0.069,0.05l0.013-0.015c-0.008-0.054,0.033-0.102,0.048-0.148c0.026-0.077-0.021-0.139-0.021-0.208v-0.012
	c-0.023-0.022-0.061-0.022-0.09-0.036C136.049-3.491,136.037-3.52,136.012-3.526z M137.119-5.075
	c0.006,0.056,0.017,0.058,0.031,0.106c0.006,0.021,0,0.047,0.011,0.07c0.005,0.012,0.018,0.02,0.023,0.032
	c0.015,0.03,0.016,0.068,0.03,0.098c0.029,0.059,0.111,0.113,0.166,0.148c0.02,0.013,0.069,0.02,0.078,0.032
	c-0.003,0.02,0.002,0.046,0.009,0.064l0.024,0.017l0.019-0.006c0.012-0.012,0.022-0.033,0.024-0.049l0.023-0.017
	c0.032-0.004,0.066,0.004,0.094,0.018c0.105,0.05,0.077,0.156,0.116,0.247c0.021,0.046,0.086,0.09,0.112,0.135
	c0.022,0.037,0.029,0.083,0.046,0.122c0.031,0.071,0.106,0.184,0.178,0.219c0.101,0.002,0.176-0.045,0.271-0.059
	c0.053-0.008,0.323,0.078,0.34,0.125l-0.004,0.024l0.01,0.023c0.019,0.01,0.046,0.042,0.062,0.058
	c0.014-0.005,0.035-0.019,0.043-0.033l0.024,0.006l0.027-0.009l0.005-0.024c0.009-0.013,0.022-0.017,0.031-0.027
	c0.094-0.108,0.123-0.1,0.255-0.133c0.033-0.008,0.04-0.019,0.076,0c0.035-0.009,0.073-0.008,0.111-0.016
	c0.066,0.023,0.036,0.092,0.082,0.117l0.015-0.009c0.002-0.021-0.009-0.041-0.009-0.06c0-0.015,0.013-0.032,0.009-0.049
	c-0.007-0.039-0.039-0.069,0.001-0.107l0.031-0.012c0.02,0.002,0.038,0.01,0.054,0.02l0.016-0.017l-0.01-0.02l0.016-0.023
	c-0.005-0.024,0.008-0.054,0.015-0.077c-0.009-0.023-0.036-0.099-0.034-0.123c0.003-0.033,0.031-0.058,0.033-0.09
	c0.001-0.029-0.013-0.071,0.012-0.094c-0.009-0.052-0.027-0.105,0.027-0.141c0.004-0.027,0.015-0.06,0.038-0.075l0.005-0.025
	c-0.007-0.024-0.036-0.038-0.052-0.057c0-0.025,0.009-0.048,0.013-0.074c0.003-0.04-0.011-0.083-0.008-0.125
	c0.006-0.069,0.07-0.137,0.002-0.2c-0.004-0.03,0.004-0.067-0.012-0.094c-0.038-0.024-0.091-0.047-0.119-0.085
	c-0.034-0.044-0.013-0.08-0.019-0.128c-0.001-0.031-0.021-0.05-0.021-0.086c0-0.021,0.015-0.028,0.011-0.056
	c-0.007-0.055-0.08-0.07-0.103-0.117c-0.011-0.022,0.006-0.062,0-0.088c-0.011-0.054-0.073-0.07-0.101-0.113
	c-0.021-0.034,0.01-0.078-0.037-0.132c-0.01-0.011-0.013-0.018-0.026-0.023l-0.018-0.007c-0.037,0.027-0.158,0.011-0.187-0.023
	c-0.064,0.016-0.073-0.05-0.113-0.065c-0.021-0.008-0.057-0.013-0.08-0.016c-0.095-0.017-0.145,0.045-0.232,0.059
	c-0.021,0.033-0.061,0.017-0.088,0.014c-0.021-0.002-0.043-0.001-0.06,0.009c-0.027,0.015-0.042,0.039-0.063,0.059
	c-0.043,0.041-0.097,0.073-0.142,0.111c-0.047,0.04-0.084,0.091-0.126,0.135c-0.043,0.043-0.128,0.12-0.173,0.157
	c-0.05,0.042-0.122,0.037-0.171,0.085c-0.029,0.03-0.03,0.067-0.052,0.104c-0.036,0.061-0.099,0.118-0.142,0.172
	c-0.055,0.066-0.036,0.136-0.125,0.217l-0.03,0.007c-0.038-0.015-0.075-0.033-0.112-0.053l-0.039,0.005
	c-0.023-0.02-0.073,0.001-0.1,0.008L137.119-5.075z M121.863,13.999l0.03,0.017l0.018-0.03l-0.014-0.017l-0.023,0.01L121.863,13.999
	z M114.259,26.341l0.021,0.014h0.026l-0.002-0.026l-0.02-0.016l-0.033,0.002L114.259,26.341z M112.912,25.827l-0.012,0.028
	l0.012,0.021l0.027,0.003l0.01-0.023l-0.013-0.021L112.912,25.827z M121.98,14.045l0.026-0.007l0.009-0.017
	c-0.014-0.013-0.046-0.023-0.064-0.018l0.004,0.022L121.98,14.045z M114.398,26.391c0.017-0.005,0.033-0.02,0.042-0.035
	l-0.004-0.031h-0.022c-0.016,0.006-0.031,0.023-0.037,0.038L114.398,26.391z M122.502,14.032l0.033,0.002l0.004-0.023l-0.039-0.054
	h-0.022C122.471,13.978,122.488,14.016,122.502,14.032z M113.737,26.947l-0.027,0.035c0.006,0.015,0.011,0.029,0.015,0.044
	l0.036,0.012c0.002-0.022,0.002-0.045,0.002-0.068L113.737,26.947z M79.992,76.2l-0.007,0.06l0.093-0.009l-0.02-0.051H79.992z
	 M79.98,76.039c-0.01,0.028-0.012,0.077,0,0.105l0.051-0.021l0.013-0.039L79.98,76.039z M105.586,29.004l0.02-0.023
	c0.002-0.015,0.003-0.03,0.002-0.044c-0.056-0.022-0.072,0.028-0.109,0.054l-0.008,0.021l0.015,0.017
	C105.535,29.03,105.555,29.002,105.586,29.004z M105.491,28.958l0.017-0.003l0.014-0.023c0.02-0.007,0.039-0.011,0.059-0.019
	l0.021-0.047l-0.012-0.027l-0.021-0.004c-0.013,0.003-0.026,0.013-0.03,0.025l0.004,0.014c-0.008,0.019-0.034,0.038-0.056,0.036
	l-0.009,0.024L105.491,28.958z M122.271,7.509c0.044-0.029,0.053-0.054,0.05-0.097l-0.017-0.019l-0.028-0.008l-0.021,0.006
	c-0.005,0.014-0.017,0.03-0.028,0.042c-0.005,0.02-0.002,0.052,0.012,0.07L122.271,7.509z M126.098,7.874l0.016,0.046
	c0.018,0.02,0.047,0.035,0.069,0.036l0.039-0.023l-0.019-0.042C126.18,7.86,126.124,7.85,126.098,7.874z M126.314,8.001
	c0.008,0.042,0.043,0.083,0.079,0.095l0.028-0.007l0.016-0.036c-0.006-0.036-0.049-0.071-0.08-0.08l-0.035,0.006L126.314,8.001z
	 M104.296,29.253c0.005-0.022,0.026-0.074,0.022-0.093l0.007-0.016l-0.018-0.006l-0.012,0.006c-0.011-0.007-0.023-0.012-0.035-0.015
	c-0.007,0.005-0.017,0.018-0.017,0.031l-0.012-0.014c-0.012,0.002-0.024,0.017-0.031,0.03c0.016,0.008,0.032,0.015,0.048,0.016
	C104.266,29.21,104.28,29.232,104.296,29.253z M102.469,64.98l0.026,0.021l0.026-0.037l-0.012-0.038l-0.02-0.021
	c-0.028-0.003-0.072,0.019-0.092,0.047v0.051l0.019,0.021L102.469,64.98z M91.882,73.544l-0.007-0.026l0.023-0.036l0.038-0.003
	l0.013-0.031l-0.041-0.027l-0.06,0.019l-0.023,0.04l0.017,0.048L91.882,73.544z M107.069,56.304l0.003,0.029l0.031-0.032
	l-0.008-0.019l0.03-0.006l0.019-0.025l-0.02-0.041l-0.065,0.003l-0.037,0.035v0.028L107.069,56.304z M108.182,48.573l0.025-0.01
	l0.009,0.017h0.038l0.041-0.024l-0.036-0.01c-0.013-0.022-0.05-0.052-0.04-0.075l0.061-0.006l-0.021-0.013l0.021-0.022l-0.029-0.02
	l-0.039,0.009C108.158,48.446,108.17,48.538,108.182,48.573z M105.478,28.959c0.007-0.008,0.013-0.019,0.016-0.029
	c-0.011-0.016-0.01-0.035-0.019-0.051l-0.017-0.012l-0.004-0.018l-0.016-0.007c-0.017,0.004-0.042,0.004-0.055,0.014l0.004,0.013
	c-0.001,0.019-0.016,0.033-0.018,0.052c0.004,0.013,0.007,0.027,0.018,0.036C105.417,28.952,105.451,28.976,105.478,28.959z
	 M97.609,71.914l0.019-0.035L97.6,71.846l0.014-0.04l-0.022-0.033l-0.046-0.02l-0.019-0.046l-0.021,0.014
	c0.009,0.009,0.015,0.031,0.015,0.044l0.024,0.024l-0.013,0.016c0.021,0.018,0.021,0.041,0.021,0.064
	C97.569,71.885,97.59,71.899,97.609,71.914z M88.172,75.146l-0.016,0.003l-0.013,0.009c-0.003,0.02-0.008,0.039-0.004,0.06
	c0.009,0.005,0.015,0.017,0.015,0.025c0.002,0.001,0.05,0.064,0.058,0.074l0.018,0.003C88.302,75.287,88.243,75.158,88.172,75.146z
	 M126.124-1.173l0.017-0.105l0.066-0.015v-0.039h-0.083l-0.077,0.078L126.124-1.173z M121.59,14.893
	c0.015-0.007,0.031-0.023,0.038-0.038c-0.007-0.061,0.041-0.099,0.038-0.141l-0.019-0.002l-0.01,0.034l-0.026,0.017l-0.025-0.026
	l-0.03,0.002l-0.012,0.024c0.016,0.005,0.035,0.026,0.042,0.041l-0.014,0.03c-0.024-0.006-0.038,0.02-0.062,0.016l-0.01,0.012
	C121.52,14.866,121.579,14.896,121.59,14.893z M106.862,35.854l0.064-0.035c0.108,0.047,0.16-0.046,0.229-0.022l0.026-0.058
	c-0.061-0.02-0.188,0-0.231,0.061l-0.073-0.006L106.862,35.854z M88.01,76.2c0.004-0.009,0.013-0.022,0.021-0.027l0.004-0.015
	c-0.021-0.014-0.025-0.068-0.047-0.095l-0.037-0.015l-0.013,0.003l-0.019-0.014l-0.026,0.004l-0.004,0.016l0.016,0.043l0.01,0.006
	l0.003,0.026l0.013,0.01c0.005,0.01,0.011,0.025,0.01,0.037c0.011,0.013,0.03,0.012,0.043,0.023L88.01,76.2z M106.956,56.274
	l0.014-0.035c0.049-0.011,0.071-0.058,0.113-0.08l-0.002-0.032l-0.022-0.002l-0.01-0.035l-0.034-0.002
	c-0.044,0.016-0.078,0.067-0.081,0.113L106.956,56.274z M121.363,14.955l-0.021,0.014c-0.013,0.023-0.021,0.057-0.043,0.074
	c0.005,0.006,0.09,0.074,0.099,0.079l0.013-0.031c0.027,0.004,0.054,0.007,0.081,0.005l0.005-0.021
	c-0.018-0.009-0.038-0.016-0.057-0.017l-0.029-0.028l-0.004-0.024l0.012-0.025l-0.021-0.021L121.363,14.955z M122.154,8.689
	c0.022-0.005,0.045-0.013,0.066-0.023c0.01-0.016,0.017-0.045,0.013-0.064c-0.021-0.054-0.104-0.076-0.15-0.041
	c-0.013,0.015-0.022,0.047-0.019,0.066C122.092,8.653,122.118,8.677,122.154,8.689z M113.426,27.301
	c0.013-0.006,0.028-0.026,0.032-0.041l-0.008-0.026c0.012-0.001,0.03-0.016,0.036-0.024c0.001-0.01,0.001-0.021-0.002-0.031
	l-0.01-0.004c0.007-0.019,0.023-0.037,0.027-0.057l-0.02-0.013c-0.014,0.005-0.027,0.023-0.033,0.036
	c-0.014-0.001-0.035-0.009-0.046-0.018l-0.017-0.037c0.01-0.003,0.021-0.01,0.026-0.018v-0.011c-0.022-0.014-0.05-0.015-0.077-0.017
	l-0.015-0.014h-0.018c0,0.021-0.01,0.041-0.013,0.06l0.013,0.017l0.024,0.009l0.024-0.005l0.03,0.026l-0.009,0.012
	c0.025,0.021,0.019,0.046,0.03,0.071c-0.009,0.015-0.02,0.031-0.03,0.045l0.009,0.019L113.426,27.301z M104.39,29.214
	c-0.005-0.014-0.005-0.033,0-0.048c-0.005-0.008-0.007-0.018-0.009-0.027c0.012,0,0.027,0.007,0.036,0.014l0.011-0.006h0.009
	l0.008,0.01v0.011l0.015,0.001c0.007-0.008,0.02-0.018,0.03-0.019c0,0.02,0.009,0.04,0.014,0.059h0.012
	c0.019-0.014,0.043-0.017,0.059-0.033l-0.001-0.013l0.01-0.003c0.002-0.008,0.012-0.021,0.021-0.024
	c0.003-0.007,0.001-0.045,0.002-0.057c-0.021-0.008-0.037-0.002-0.061-0.014c-0.02,0.003-0.021,0.034-0.041,0.038l-0.015-0.001
	l-0.008-0.014l-0.018,0.003v0.01l-0.016,0.015c-0.013,0.001-0.025-0.003-0.038,0.001l0.002-0.015
	c-0.008-0.012-0.012-0.025-0.015-0.04l-0.016-0.003c-0.001,0.009-0.004,0.019-0.009,0.026c-0.01,0-0.02-0.002-0.027-0.006
	l-0.015,0.006c-0.002,0.007,0.002,0.016,0.005,0.021C104.33,29.144,104.323,29.228,104.39,29.214z M122.333,14.347l0.011-0.008
	c-0.006-0.013-0.009-0.029-0.011-0.043c0.005-0.014,0.021-0.035,0.035-0.04c-0.007-0.055,0.076-0.07,0.06-0.176l-0.023,0.02
	c0.004,0.024-0.025,0.063-0.047,0.074c-0.03,0.001-0.077-0.053-0.085-0.081l-0.027-0.01l-0.029,0.01l-0.02,0.025l-0.004,0.03
	c0.011,0.005,0.023,0.008,0.036,0.009c0.073,0.067,0.041,0.129,0.076,0.176L122.333,14.347z M106.223,51.94
	c0.037-0.016,0.06-0.059,0.101-0.078v-0.026l-0.032-0.028c0.001-0.042-0.077-0.1-0.119-0.095l-0.025,0.014l-0.016,0.04l0.011,0.027
	l0.036,0.021c-0.009,0.035-0.01,0.083,0.018,0.112L106.223,51.94z M113.035,26.001l-0.048-0.073
	c-0.039,0.001-0.098-0.023-0.131-0.043c-0.046,0.027-0.087,0.108-0.09,0.159l0.013,0.023l0.038-0.029l0.062,0.024
	C112.929,26.047,112.991,26.03,113.035,26.001z M124.721,12.487c0.005-0.036-0.015-0.062,0.005-0.099
	c-0.021-0.085-0.223-0.127-0.263-0.069c-0.008,0.016-0.009,0.044-0.007,0.061c0.031,0.007,0.067,0.013,0.093,0.032
	c0.003,0.014,0.013,0.033,0.023,0.044c0.025,0.003,0.055,0.013,0.074,0.031C124.663,12.487,124.707,12.497,124.721,12.487z
	 M113.416,43.447c0.018,0.012,0.053,0.044,0.056,0.066l0.032,0.017l0.003,0.017l0.037,0.01l0.076-0.252l-0.075-0.057l-0.041,0.033
	l-0.027-0.012l-0.049,0.017C113.443,43.317,113.403,43.394,113.416,43.447z M103.762,60.477c-0.016-0.02-0.037-0.05-0.056-0.064
	c-0.038-0.03-0.099-0.045-0.142-0.069c-0.048-0.027-0.102-0.059-0.146-0.092c-0.027-0.018-0.057-0.055-0.085-0.068
	c-0.052-0.027-0.124-0.045-0.18-0.065c-0.018,0.021-0.065,0.027-0.091,0.022c-0.032-0.035-0.112-0.076-0.161-0.066l-0.018,0.044
	c0.003,0.003,0.023,0.021,0.025,0.021c0.08,0.025,0.183,0.036,0.26,0.075c0.008,0.004,0.022,0.025,0.031,0.029
	c0.031,0.018,0.081,0.038,0.116,0.049c0.008,0.003,0.035-0.001,0.044,0.001c0.048,0.01,0.133,0.038,0.149,0.093l0.046,0.002
	l0.021-0.014C103.628,60.413,103.698,60.458,103.762,60.477z M124.244,0.211c-0.012-0.087-0.207-0.084-0.265-0.075
	c-0.054,0.008-0.099,0.043-0.152,0.05c-0.063,0.009-0.117-0.067-0.19,0.046c0.001,0.045-0.061,0.112-0.106,0.086
	c-0.017,0.022-0.054,0.068-0.079,0.078l-0.006,0.019c0.006,0.017,0.021,0.044,0.038,0.053l0.023-0.003V0.439
	c0.016-0.022,0.036-0.025,0.057-0.04c0.017-0.013,0.029-0.035,0.048-0.048c0.107-0.073,0.123-0.05,0.24-0.051
	c0.019-0.014,0.083-0.058,0.103-0.063c0.002,0,0.18-0.008,0.194-0.006c0.018,0.001,0.034,0.013,0.054,0.012
	C124.217,0.241,124.238,0.225,124.244,0.211z M77.414,78.014l0.021,0.004c0.033-0.041,0.077-0.103,0.12-0.134
	c0.109-0.081,0.163,0.041,0.197-0.197l-0.01-0.032l0.016-0.063l-0.025-0.032L77.69,77.55l-0.026-0.03v-0.032l-0.133,0.076
	c-0.021,0.075-0.033,0.157-0.039,0.235C77.429,77.863,77.381,77.925,77.414,78.014z M124.103,8.458
	c0.051-0.003,0.104-0.072,0.065-0.119l-0.03-0.017c0.005-0.024,0.018-0.087,0.002-0.108c-0.027-0.012-0.057,0.006-0.085-0.007
	c-0.075-0.067,0.05-0.23,0.062-0.307c-0.004-0.021-0.015-0.043-0.026-0.06c-0.041-0.032-0.1-0.022-0.135,0.014
	c-0.048,0.068,0.033,0.164,0.008,0.248c-0.013,0.044-0.047,0.083-0.069,0.123c-0.004-0.009-0.017-0.02-0.026-0.021l-0.014,0.004
	c-0.029,0.1,0.113,0.116,0.165,0.149C124.029,8.417,124.026,8.445,124.103,8.458z M114.077,26.756
	c0.007,0.017,0.048,0.043,0.064,0.035c0.007-0.009,0.007-0.022,0.007-0.032c0.021-0.015,0.052-0.029,0.066-0.047l0.012,0.001
	c0.024-0.012,0.037-0.039,0.054-0.059l0.016-0.003l0.008-0.01c0.018,0.001,0.032-0.026,0.032-0.042
	c0.025-0.003,0.081-0.031,0.097-0.05l0.015,0.019c0.007,0.003,0.018,0.003,0.026,0l0.009-0.019h-0.014
	c-0.002-0.008-0.004-0.016-0.008-0.024c-0.012,0-0.021-0.013-0.031-0.017c0.005-0.032,0.05-0.068,0.039-0.094l-0.01-0.007
	c-0.008,0.001-0.018-0.001-0.025-0.002l0.007-0.012c-0.021-0.013-0.034-0.01-0.056-0.01c-0.049,0-0.11-0.037-0.157-0.045
	c-0.012-0.002-0.034,0.003-0.046,0.005c-0.006,0.014-0.016,0.029-0.027,0.04l-0.015,0.004c-0.011-0.007-0.023-0.014-0.036-0.017
	c-0.012,0.003-0.023,0.009-0.034,0.014c-0.007,0.014-0.02,0.024-0.027,0.038c0,0.018,0.004,0.063-0.006,0.077
	c-0.012,0.017-0.035,0.027-0.036,0.051c-0.009,0-0.018,0.009-0.022,0.015c0.008,0.034,0.001,0.055-0.02,0.083
	c-0.011,0.001-0.112,0.024-0.112,0.024l-0.003,0.011c0.006,0.012,0.011,0.023,0.018,0.035h0.01l0.013,0.008
	c0.079-0.012,0.117,0.036,0.152,0.032C114.048,26.757,114.064,26.747,114.077,26.756z M104.994,40.238
	c0.054,0.026,0.112,0.023,0.158-0.019c0.038-0.22,0.092-0.245,0.01-0.458l-0.07-0.055l-0.089,0.016
	c-0.05,0.051-0.113,0.094-0.171,0.134c-0.001,0.045-0.009,0.104-0.003,0.148c0.003,0.023,0.037,0.051,0.034,0.105
	C104.911,40.131,104.973,40.189,104.994,40.238z M108.167,41.502l0.091-0.03l0.029-0.074c-0.028-0.079-0.028-0.228-0.024-0.31
	c-0.007-0.008-0.05-0.058-0.056-0.062c-0.023-0.018-0.06-0.023-0.083-0.04c-0.068-0.05-0.129-0.119-0.199-0.165
	c-0.003-0.002-0.07-0.017-0.077-0.018l-0.051,0.018c0.016,0.032,0.06,0.074,0.095,0.082l0.017,0.042
	c-0.002,0.025-0.043,0.061-0.062,0.071l-0.01,0.058l0.037,0.086c0.204,0.114,0.068,0.132,0.203,0.31
	C108.101,41.486,108.138,41.5,108.167,41.502z M122.434,0.071l-0.019-0.028V0.02c-0.013-0.017-0.035-0.024-0.047-0.042
	c-0.008-0.037,0.023-0.062,0.042-0.091v-0.023l0.034-0.01l0.013-0.025c-0.018-0.016-0.04-0.023-0.057-0.041l-0.018,0.001
	c-0.034,0.038-0.126,0.059-0.171,0.031c-0.011,0.002-0.116,0.095-0.121,0.107c-0.033,0.005-0.059,0.007-0.084,0.034
	c-0.009,0.017-0.015,0.036-0.021,0.054c0.006,0.02,0.023,0.044,0.038,0.057c0.016,0.065-0.104,0.094-0.103,0.161l0.013,0.022
	c0.018,0.001,0.045-0.007,0.06-0.005c0.011,0.001,0.199,0.046,0.208,0.05c0.047,0.015,0.076,0.051,0.132,0.041l0.011-0.014
	c-0.012-0.07,0.057-0.11,0.077-0.168C122.43,0.133,122.432,0.097,122.434,0.071z M106.728,40.46l0.083-0.016l0.039-0.046l0.018,0.01
	l0.029-0.014l-0.008-0.03c0.07-0.078,0.055-0.213,0.232-0.265c0.009-0.027-0.015-0.075-0.03-0.096
	c-0.047-0.026-0.14,0.013-0.179-0.016l-0.014-0.031l0.019-0.055l-0.011-0.017l-0.078-0.005l-0.066,0.051l-0.063-0.021
	c-0.041,0.035-0.107,0.058-0.158,0.027l-0.012-0.022l0.011-0.076l0.03-0.03c-0.002-0.022-0.004-0.076,0.008-0.097l-0.03-0.014
	c-0.008-0.021,0.076-0.126,0.096-0.15l0.062-0.021l0.004-0.011l-0.015-0.051h-0.108l-0.001,0.027l-0.035,0.048l0.017,0.056
	c-0.015,0.021-0.041,0.041-0.063,0.051c-0.01-0.012-0.033-0.021-0.048-0.02l-0.011,0.02l-0.035-0.02l-0.008,0.015l0.02,0.024
	c-0.002,0.015-0.027,0.044-0.038,0.054l-0.013,0.083l0.094,0.156c0.073,0.124,0.11,0.139,0.081,0.279
	C106.565,40.316,106.654,40.428,106.728,40.46z M108.428,25.173l0.014-0.024l0.025,0.013c0.042-0.009,0.088-0.004,0.127-0.029
	l0.029,0.007c0.024-0.008,0.049-0.017,0.071-0.028l0.015-0.021c0.034-0.007,0.069-0.063,0.08-0.095l0.025-0.012
	c0.053-0.082,0.035-0.082,0.047-0.166c-0.011,0.003-0.026,0-0.035-0.005l-0.002-0.034c0.014-0.023,0.031-0.039,0.031-0.068
	l-0.016-0.017l-0.003-0.025l-0.026-0.015l0.031-0.025l-0.015-0.022l0.002-0.023c-0.013-0.004-0.05-0.009-0.063,0l-0.011-0.014
	l-0.014-0.003l-0.005,0.023l-0.02-0.015l-0.007-0.034l-0.025-0.003l-0.021,0.031l-0.014-0.033c-0.024-0.012-0.062-0.016-0.088-0.012
	l-0.014-0.047l0.038-0.022c-0.008-0.03-0.027-0.046-0.05-0.064c-0.118-0.103-0.13,0-0.238-0.006l-0.006,0.023l-0.045,0.021
	l-0.008,0.017l-0.019,0.004l-0.021,0.021c-0.012,0.025-0.003,0.068,0.019,0.087l0.002,0.03c-0.1,0.041-0.008,0.183-0.071,0.233
	c0.008,0.031,0.053,0.122,0.072,0.142l-0.018,0.021l0.028,0.011c0.034,0.051,0.057,0.14,0.091,0.179
	C108.349,25.193,108.404,25.194,108.428,25.173z M112.84,26.961l0.012-0.023l0.02-0.009l0.035,0.007
	c0.013,0.021,0.027,0.05,0.053,0.059l0.014-0.037l-0.005-0.023c0.038-0.006,0.064-0.04,0.093-0.063
	c0.137,0.012,0.14,0.101,0.238,0.095l0.031-0.039c0.049-0.016,0.085,0.016,0.132,0.002c0.027-0.027,0.06-0.05,0.083-0.081
	l0.037,0.002c0.017-0.029,0.029-0.062,0.04-0.093l-0.029-0.027l0.002-0.032c-0.055-0.045-0.208,0.008-0.261,0.03l-0.058-0.043
	l0.008-0.042l-0.054,0.017c-0.017-0.033-0.058-0.076-0.092-0.092c0.041-0.072,0.026-0.149,0.016-0.227l0.023-0.046
	c0.025-0.019,0.06-0.032,0.088-0.044l-0.028-0.045l-0.096,0.033l-0.005,0.042l-0.04,0.005l-0.01-0.028
	c-0.038,0.012-0.075,0.026-0.112,0.042l-0.015-0.022l-0.048-0.018c-0.016-0.026-0.033-0.051-0.053-0.073
	c-0.028,0.028-0.057,0.056-0.084,0.085l0.013,0.045c-0.011,0.019-0.04,0.045-0.063,0.048c-0.004,0.024-0.011,0.049-0.021,0.073
	l-0.037,0.01l0.009,0.052l-0.043,0.039c-0.016,0.054-0.022,0.121-0.019,0.176l0.024,0.026c-0.006,0.038-0.047,0.062-0.072,0.086
	l0.007,0.048c0.032,0.023,0.038,0.06,0.065,0.083c0.019,0.015,0.043,0.027,0.062,0.042C112.736,27,112.806,26.978,112.84,26.961z
	 M125.375,9.09c0.024-0.009,0.037-0.042,0.046-0.065c0.032,0.017,0.073,0.016,0.108,0.01c0.163-0.029,0.097-0.085,0.159-0.17
	c0.029-0.041,0.082-0.073,0.104-0.119c-0.01-0.041,0.033-0.067,0.021-0.121c-0.038-0.184-0.172-0.183-0.303-0.272
	c-0.044-0.031-0.092-0.094-0.155-0.059c-0.034,0.043-0.054,0.09-0.006,0.135c0.002,0.021-0.045,0.062-0.061,0.072
	c-0.162,0.047-0.323-0.142-0.428-0.118c-0.054,0.012-0.073,0.057-0.093,0.102c-0.015,0.032-0.043,0.062-0.034,0.099
	c0.012,0.05,0.076,0.138,0.114,0.172c0.021,0.02,0.375,0.268,0.39,0.274c0.031,0.013,0.063,0.006,0.092,0.018
	C125.348,9.055,125.356,9.08,125.375,9.09z M87.201,77.229c0.012-0.008,0.025-0.016,0.039-0.02c0.002-0.014,0.008-0.029,0.01-0.045
	l0.013-0.015v-0.013c-0.006-0.008-0.021-0.013-0.029-0.012c-0.039-0.025-0.045-0.1-0.037-0.142l0.018-0.022l0.018,0.001l0.011-0.006
	l-0.002-0.02l0.012-0.017l0.022,0.003l0.019,0.021l0.024-0.007c-0.012-0.041-0.037-0.046-0.035-0.096l0.011-0.008l0.026,0.005
	l0.002-0.017c-0.021-0.019-0.04-0.04-0.061-0.059c-0.007-0.015,0.009-0.031,0.013-0.046c0.004-0.021,0-0.069,0.001-0.096
	l-0.012-0.014c-0.044-0.012-0.089,0.054-0.146,0.047c-0.05-0.006-0.05-0.103-0.126-0.078c-0.041-0.024-0.086-0.059-0.12-0.092
	c-0.007-0.044-0.003-0.089-0.005-0.133c-0.002-0.028-0.018-0.054-0.018-0.086c-0.002-0.074,0.064-0.157,0.138-0.173
	c0.009-0.008,0.055-0.088,0.06-0.104l0.026-0.007l0.01-0.013c0.011-0.084-0.119-0.145-0.122-0.287
	c-0.008-0.007-0.02-0.015-0.03-0.016c-0.01,0.002-0.021,0.005-0.03,0.01c-0.004,0.011-0.004,0.025-0.003,0.037
	c-0.023,0.016-0.077-0.025-0.101-0.019c-0.016,0.019-0.027,0.013-0.046,0.018c-0.017,0.004-0.037,0.043-0.073,0.057l-0.016-0.036
	l0.004,0.028c-0.021,0.017-0.033,0.05-0.047,0.072c-0.015-0.003-0.041-0.004-0.055,0.005c-0.026,0.021-0.025,0.068-0.018,0.097
	c-0.011,0.005-0.023,0.009-0.036,0.012v0.012l0.013,0.005c0.008-0.005,0.021-0.006,0.029-0.003c0.016,0.038,0.021,0.088,0.039,0.124
	c0.009,0.019,0.024,0.035,0.034,0.054c0.026,0.053-0.042,0.193-0.063,0.237c-0.028,0.005-0.061,0.013-0.082,0.034v0.018
	c0.018,0.01,0.035,0.027,0.047,0.045c0.028-0.011,0.052,0.008,0.079,0.006c0.007,0.008,0.02,0.02,0.031,0.022l0.01,0.029
	l-0.003,0.011c0.016,0.011,0.024,0.027,0.025,0.046l-0.01,0.008l0.003,0.015c0.057,0.039,0.067,0.037,0.044,0.123
	c0.027,0.05,0.041,0.079,0.03,0.141c0.013,0.01,0.023,0.021,0.032,0.034c-0.009,0.018-0.007,0.031-0.002,0.05l0.012,0.012
	c0.008,0.002,0.025-0.005,0.031-0.011l0.012,0.001v-0.016l0.014,0.005l0.003,0.015l0.019,0.013l0.006,0.013L86.874,77
	c0.017,0,0.033,0.006,0.048,0.013l0.002-0.015l0.017-0.004l0.015,0.017L86.967,77h0.018l0.01-0.008l0.017,0.007l0.015,0.023
	l0.011-0.017c0.011-0.006,0.024-0.009,0.035-0.008c0.022,0.01,0.038,0.027,0.054,0.044c0.006,0.03,0.004,0.063,0.005,0.094
	c0.01,0.005,0.02,0.016,0.027,0.024l0.003,0.029C87.176,77.2,87.188,77.215,87.201,77.229z M84.709,75.103
	c0.036,0.038,0.09,0.083,0.118,0.128c0.036,0.057,0.021,0.118,0.073,0.17l-0.002,0.043c-0.062,0.055-0.094,0.021-0.149,0.049
	l-0.003,0.02l-0.018,0.021c-0.024-0.007-0.073-0.005-0.09,0.019c0.008,0.029-0.01,0.059-0.028,0.079
	c-0.021,0.003-0.052,0.022-0.063,0.04l-0.041,0.001L84.479,75.7c-0.004,0.024,0.008,0.067,0.019,0.089
	c-0.023,0.019-0.071,0.068-0.075,0.1c0.006,0.028,0.021,0.059,0.034,0.083l0.028,0.011c0.106-0.026,0.189-0.019,0.256,0.074
	c0.041,0.02,0.092,0.003,0.133,0.011c0.07,0.011,0.127,0.107,0.184,0.146c0.019,0.001,0.043-0.004,0.059-0.001
	c0.014,0.002,0.021,0.012,0.036,0.013h0.014c0.046-0.031,0.037-0.077,0.106-0.125l0.014-0.192l-0.031-0.044
	c0.017-0.05,0.123-0.125,0.178-0.122l0.03,0.016l0.026-0.032l-0.01-0.02l0.04-0.042c0.024-0.003,0.062-0.016,0.081-0.033v-0.032
	l-0.019-0.026c-0.019-0.003-0.046-0.017-0.06-0.031l-0.018,0.004l-0.013,0.026c-0.021,0.01-0.044-0.015-0.065-0.005
	c-0.02,0.009-0.091,0.059-0.104,0.061c-0.025-0.025-0.065-0.018-0.098-0.009c-0.018-0.014-0.033-0.036-0.045-0.056
	c-0.033-0.001-0.062-0.017-0.093-0.026c-0.009-0.008-0.013-0.026-0.011-0.036l0.013-0.02c0.043-0.009,0.154-0.104,0.173-0.15
	l0.025-0.013l0.048-0.095c-0.013-0.114-0.106-0.195-0.206-0.236l-0.057,0.008l-0.039-0.064c-0.033,0.011-0.069,0.058-0.078,0.09
	l-0.082,0.043c-0.045-0.019-0.126-0.019-0.164,0.019V75.103z M125.055,11.709l0.007-0.015c0.019-0.006,0.042-0.009,0.062-0.006
	c0.013-0.006,0.026-0.027,0.029-0.042l-0.024-0.012l-0.02,0.012l-0.028-0.003c-0.014-0.024-0.104-0.149-0.104-0.151
	c-0.023-0.095,0.032-0.136-0.047-0.232c-0.002-0.013,0.005-0.033,0.015-0.042l-0.019-0.015l-0.007-0.023
	c0.005-0.039,0.073-0.093,0.104-0.116c0.004-0.02-0.016-0.053-0.017-0.078l-0.038-0.013l-0.018-0.023
	c0-0.017,0.009-0.041,0.02-0.051l-0.015-0.015c0.001-0.014,0.009-0.033,0.019-0.044c-0.021-0.018-0.052-0.005-0.075-0.017
	c-0.047-0.023-0.104-0.058-0.161-0.03c0.003,0.032,0.04,0.048,0.046,0.079c0.015,0.082-0.027,0.275-0.147,0.241
	c-0.035-0.031-0.085-0.046-0.117-0.074c-0.025-0.022-0.041-0.065-0.071-0.083c-0.045-0.03-0.055-0.011-0.119-0.066
	c-0.018-0.041,0.025-0.234,0.066-0.249c0.006-0.013,0.005-0.035,0-0.047l-0.018-0.011h-0.027c-0.039-0.037-0.016-0.05-0.031-0.084
	l-0.02-0.01c-0.012-0.026-0.005-0.061,0.002-0.087c-0.007,0.003-0.122,0.071-0.122,0.073c-0.015,0.042-0.003,0.09-0.011,0.136
	c0.008,0.029,0.04,0.045,0.043,0.067c0.011,0.056-0.018,0.111-0.023,0.165c-0.005,0.05,0.019,0.095-0.001,0.147
	c-0.012,0.033-0.044,0.059-0.06,0.09c0.021,0.089,0.066,0.186,0.045,0.281c-0.037,0.171-0.28,0.138-0.189,0.347l0.029,0.024
	c0.074,0,0.161-0.002,0.21,0.064l0.025-0.003l0.017-0.015c0.028,0.003,0.058,0.046,0.105,0.032c0.01-0.01,0.019-0.029,0.021-0.043
	c0.026-0.015,0.046-0.039,0.071-0.054c0.053-0.007,0.069,0.023,0.109,0.036c0.035,0.011,0.073,0.001,0.108,0.004
	c0.049,0.006,0.092,0.036,0.142,0.034l0.033-0.005c0.009-0.001,0.012-0.002,0.014-0.002c0.031-0.013,0.042-0.025,0.06-0.034
	C124.966,11.725,125.013,11.724,125.055,11.709z M123.15,13.257c0.034-0.037,0.083-0.051,0.117-0.085l0.004-0.022
	c0.013-0.018,0.033-0.035,0.054-0.046l0.009-0.026c-0.017-0.002-0.037-0.01-0.051-0.02c0.008-0.048,0.062-0.118,0.091-0.155
	l-0.002-0.036c0.025-0.02,0.061-0.016,0.076-0.055c0.012-0.003,0.03-0.014,0.037-0.025l-0.013-0.013
	c-0.029-0.002-0.079,0.01-0.106,0.015c-0.021-0.012-0.039-0.028-0.058-0.044c-0.043-0.073,0.101-0.118,0.151-0.113l-0.003-0.022
	l-0.029-0.021h-0.031c-0.039-0.049-0.038-0.097-0.066-0.146c-0.02-0.034-0.102-0.141-0.133-0.162
	c-0.019-0.013-0.043-0.021-0.062-0.035c-0.03-0.022-0.049-0.054-0.088-0.066c-0.018-0.032-0.016-0.071-0.038-0.1l-0.036-0.017
	c-0.015-0.026-0.023-0.057-0.021-0.087l-0.024-0.024c-0.009-0.149-0.146-0.207-0.28-0.214l-0.031,0.021
	c-0.026-0.002-0.053-0.006-0.079-0.01c0.01,0.038,0.039,0.066,0.049,0.104c-0.009,0.021-0.026,0.047-0.045,0.062
	c-0.008,0.019,0.025,0.189-0.064,0.238c-0.027,0.015-0.106,0.002-0.145,0.017c-0.054,0.021-0.104,0.07-0.16,0.083
	c-0.023-0.007-0.052-0.014-0.076-0.013c-0.013,0.029-0.007,0.064-0.017,0.094c-0.007,0.02-0.023,0.035-0.027,0.058l-0.03,0.003
	l-0.015,0.022c0.025,0.035,0.094,0.008,0.18,0.143c0.014,0.021,0.037,0.045,0.034,0.071c0.017,0.006,0.033,0.016,0.046,0.028
	l0.025-0.01c0.108,0.006,0.098,0.152,0.132,0.217c0.021,0.038,0.045,0.067,0.043,0.113c0.021-0.001,0.051,0.03,0.068,0.04
	c0.029,0.016,0.067,0.012,0.099,0.024c0.078,0.031,0.145,0.09,0.22,0.124C122.9,13.189,123.102,13.267,123.15,13.257z
	 M108.566,31.812l0.032-0.013c0.016,0.005,0.021,0.019,0.036,0.026c0.008-0.008,0.013-0.018,0.018-0.028
	c0.017-0.009,0.047-0.015,0.062,0.002c0.021-0.006,0.043-0.036,0.04-0.059c0.016,0.001,0.032-0.001,0.047-0.009l0.001-0.013
	l-0.013-0.016c0.053-0.015,0.066-0.077,0.149-0.088l0.014-0.013c0.008,0,0.017,0.003,0.022,0.009l0.015-0.002
	c0.003-0.01,0.012-0.024,0.021-0.03c0.006-0.002,0.056,0.003,0.069,0.003l0.012-0.015c-0.029-0.007-0.055-0.013-0.081-0.023
	c0.015-0.001,0.031-0.003,0.047-0.002c0.005-0.006,0.011-0.016,0.013-0.023c-0.011-0.004-0.025-0.005-0.036-0.004l-0.011-0.016
	l-0.02-0.003l-0.008,0.019c-0.005-0.006-0.015-0.012-0.021-0.016c0.007-0.024-0.006-0.047,0.004-0.07l0.011-0.014
	c0.012-0.111-0.038-0.159,0.047-0.277c0.013-0.018,0.027-0.041,0.05-0.047c0.076,0.009,0.072,0.077,0.177,0.024
	c0.013-0.006,0.026-0.004,0.039-0.013l0.038,0.007c0.002,0.009,0.021,0.022,0.028,0.026l0.006,0.048
	c0.016,0.024,0.041,0.056,0.071,0.058c0.022-0.015,0.047-0.043,0.07-0.054l-0.005-0.013l0.013-0.017l-0.002-0.018
	c0.012-0.008,0.037-0.005,0.05,0.001l0.012-0.01l-0.003-0.013l0.018-0.007l-0.016-0.016c0.01-0.003,0.025-0.014,0.027-0.023
	c-0.018-0.019-0.017-0.047-0.03-0.059c-0.012,0-0.023,0-0.036-0.001c0.011-0.004,0.034-0.008,0.045-0.004
	c-0.006-0.006-0.006-0.022-0.004-0.029l0.021-0.012c0.001-0.024-0.005-0.039-0.013-0.051c-0.02-0.01-0.053-0.013-0.074-0.012
	l0.001-0.022c-0.017-0.01-0.033-0.024-0.046-0.041c0.002-0.009,0.011-0.021,0.02-0.024l0.019,0.004
	c0.008-0.005,0.02-0.016,0.022-0.024l-0.008-0.019c0.007-0.005,0.016-0.01,0.022-0.012l0.006-0.026
	c-0.006-0.009-0.015-0.018-0.022-0.023l-0.02,0.005c-0.003-0.007-0.007-0.014-0.01-0.022l0.01-0.026
	c-0.012-0.011-0.022-0.033-0.037-0.041l-0.002-0.012l0.007-0.012c0.022-0.004,0.033-0.038,0.044-0.055l-0.006-0.023l-0.03,0.002
	l0.018-0.023c-0.011-0.007-0.025-0.011-0.038-0.011c-0.016-0.027-0.062-0.018-0.088-0.036c-0.041,0.009-0.032,0.041-0.045,0.072
	c-0.031,0.026-0.055,0.02-0.091,0.007c-0.012,0.011-0.036,0.014-0.051,0.012l-0.021-0.013l0.003,0.015
	c-0.012,0.002-0.024,0.007-0.034,0.014c-0.014-0.009-0.03-0.016-0.046-0.021l0.001,0.014l-0.011,0.012
	c-0.03,0.015-0.064-0.002-0.085-0.024l0.019,0.024c-0.025,0.024-0.082,0.029-0.111,0.01c-0.084,0.016-0.198,0.193-0.252,0.238
	c-0.045-0.004-0.095-0.006-0.139-0.014c-0.011-0.002-0.023-0.011-0.034-0.012c-0.091-0.009-0.225,0.049-0.307,0.003
	c-0.008-0.007-0.013-0.023-0.013-0.033l-0.007-0.023l-0.017-0.007l-0.014,0.005l-0.014-0.017v-0.018
	c-0.009,0-0.02-0.004-0.026-0.009c-0.014,0.02,0.003,0.038-0.019,0.062l-0.016-0.029l-0.019-0.002l0.002,0.022
	c-0.03,0.01-0.019,0.03-0.036,0.043c-0.007-0.01-0.02-0.018-0.03-0.023l-0.004,0.016l-0.022-0.005l-0.006,0.023
	c-0.007,0.007-0.029,0.052-0.033,0.064l-0.021-0.008c-0.002,0.009-0.003,0.02,0,0.029c0.011,0.009,0.013,0.024,0.024,0.032
	l-0.021,0.003c-0.001,0.008,0,0.021,0.006,0.026c-0.002,0.009-0.001,0.019,0.002,0.028l0.02,0.003L107.918,31
	c-0.014,0.006-0.029,0.01-0.044,0.012c0.002,0.009,0.006,0.018,0.011,0.026c-0.012,0.005-0.029,0.007-0.043,0.005l0.011,0.024
	c0.015,0.011,0.08,0.013,0.099,0.009l0.006-0.013l0.019,0.003c-0.008,0.028,0.004,0.033,0.007,0.058l-0.019,0.009l-0.005,0.015
	l0.013,0.04c-0.01,0.007-0.021,0.021-0.022,0.032l0.01,0.012l-0.008,0.014c-0.025,0.001-0.057,0.029-0.05,0.058
	c0.008,0.003,0.062,0.056,0.07,0.067c0.011-0.001,0.021,0,0.032,0.001c-0.002,0.014-0.006,0.035-0.002,0.048l0.017,0.014
	c-0.002,0.036-0.018,0.062-0.021,0.094l0.016,0.021h0.015c0.009,0.004,0.018,0.017,0.02,0.026l0.016,0.007
	c0.014-0.002,0.027-0.003,0.041,0l0.008,0.015c0.019,0.01,0.034,0.008,0.051,0.022l0.016-0.011c0.021,0.002,0.042-0.003,0.059-0.016
	l0.005-0.015c0.017-0.013,0.058-0.014,0.081-0.024c0.016-0.031,0.036-0.039,0.062-0.06l0.019-0.002
	c0.007,0.017,0.022,0.031,0.032,0.046c-0.002,0.022-0.019,0.042-0.019,0.065c0,0.064,0.042,0.091,0.057,0.142l0.014,0.004
	l0.007,0.017C108.517,31.781,108.543,31.812,108.566,31.812z M108.288,30.284c0.013-0.008,0.026-0.03,0.026-0.045l0.023,0.004
	l0.019-0.006l-0.021-0.017c0.025-0.015,0.045-0.068,0.057-0.094c-0.027-0.125,0.061-0.178,0.079-0.246
	c0.011-0.044,0.008-0.112,0.049-0.141l0.005-0.035l0.018-0.02l0.008-0.087l-0.013-0.015c0.016-0.173,0.072-0.341,0.211-0.455
	l0.001-0.016c0.039-0.04,0.085-0.079,0.122-0.123c0.019-0.02,0.028-0.048,0.045-0.068c0.034-0.041,0.081-0.076,0.111-0.12
	c0.021-0.027,0.028-0.07,0.049-0.097c0.017-0.023,0.051-0.039,0.068-0.062c0.044-0.061,0.007-0.129,0.027-0.19
	c-0.042,0.001-0.055-0.032-0.083-0.049c-0.049-0.028-0.106-0.036-0.141-0.083l0.001-0.063l0.024-0.038
	c0.002-0.079,0.027-0.191-0.068-0.226c-0.094,0.032-0.158-0.073-0.197-0.084c-0.004-0.033-0.038-0.051-0.054-0.077
	c-0.004-0.007-0.021-0.073-0.022-0.085l0.021-0.059c-0.002-0.02-0.018-0.055-0.037-0.065l0.002-0.028l0.023-0.013
	c0.003-0.026-0.002-0.061-0.01-0.086c0.013-0.044,0.137-0.215,0.175-0.238c0.018-0.011,0.116-0.04,0.137-0.039
	c0.003,0,0.107,0.036,0.122,0.041c0.004,0.03,0.007,0.06,0.008,0.09l0.02,0.004l-0.01-0.018c0.021-0.034,0.063-0.05,0.094-0.074
	c0.229-0.17,0.304-0.123,0.257-0.439l-0.021-0.023c0.002-0.018,0.019-0.046,0.027-0.061l-0.017-0.013
	c0.004-0.061,0.045-0.118-0.023-0.167l-0.002-0.023l-0.021,0.008c-0.025-0.016-0.033-0.045-0.057-0.057l-0.011,0.017l-0.036,0.005
	l-0.005,0.036l0.008,0.015l-0.008,0.077l0.014,0.018c-0.004,0.059-0.064,0.094-0.061,0.133c-0.029,0.006-0.065,0.029-0.089,0.046
	l-0.013,0.026c-0.068,0.033-0.152,0.046-0.229,0.046c-0.069,0-0.423-0.106-0.467-0.164c0.001-0.03-0.004-0.063-0.01-0.092
	l-0.021-0.008l-0.022,0.094l-0.027,0.011l-0.045-0.042l-0.015,0.005l-0.021-0.012l0.002-0.022c-0.029-0.021-0.057-0.06-0.052-0.097
	c0.023-0.029,0.022-0.089,0.003-0.119l-0.026-0.003l0.003-0.026l0.023-0.01v-0.062l-0.024-0.039l0.01-0.018l-0.026-0.005
	l0.002-0.051c-0.011,0.004-0.022,0.017-0.026,0.027l-0.021-0.016l-0.021,0.002l-0.044,0.065l-0.147,0.065l-0.056-0.021
	c-0.028,0.022-0.09,0.012-0.127,0.021l-0.014-0.007c-0.123,0.089,0.155,0.434,0.226,0.502c0.021,0.021,0.054,0.039,0.072,0.061
	c0.046,0.058,0.038,0.212-0.003,0.271l-0.029,0.018c-0.033,0.055-0.062,0.132-0.063,0.195c0,0.025,0.007,0.052,0.004,0.078
	c-0.003,0.035-0.025,0.057-0.037,0.089c-0.017,0.004-0.039,0.021-0.048,0.038l-0.001,0.026c-0.036,0.031-0.092,0.056-0.118,0.093
	c-0.028,0.04-0.128,0.184-0.149,0.205c-0.029,0.03-0.079,0.042-0.103,0.082l-0.004,0.023c-0.024,0.015-0.098,0.06-0.116,0.082
	c-0.02,0.022-0.026,0.051-0.053,0.071c-0.009,0.007-0.042,0.022-0.048,0.029c-0.028,0.028-0.032,0.062-0.047,0.093
	c-0.026,0.051-0.075,0.085-0.111,0.13c-0.031,0.04-0.052,0.099-0.084,0.136c-0.007,0.008-0.021,0.014-0.028,0.021
	c-0.022,0.022-0.058,0.101-0.065,0.13c-0.016,0.009-0.082,0.109-0.09,0.13l-0.065,0.036l-0.021-0.02l-0.005,0.027l-0.029-0.007
	l0.014,0.021c-0.027,0.02-0.053,0.048-0.071,0.075l-0.031,0.001l-0.017-0.017l-0.021,0.015l0.018,0.016l-0.021,0.009
	c-0.028,0.029-0.044,0.125-0.035,0.165l0.041,0.026l0.015-0.004c0.015,0.008,0.016,0.017,0.024,0.029
	c0.063,0.078,0.114,0.093,0.187,0.156c0.035-0.002,0.069-0.004,0.104-0.005c0.024,0.013,0.047,0.035,0.07,0.046
	c0.034,0.016,0.172,0.049,0.212,0.051c0.009,0,0.021-0.006,0.03-0.005c0.046,0.004,0.21,0.066,0.254,0.087
	c0.105,0.052,0.16,0.244,0.257,0.304c0.066,0.042,0.209,0.031,0.237,0.093c0.148,0.028,0.063,0.251,0.237,0.243
	C108.213,30.257,108.258,30.288,108.288,30.284z M84.605,74.912c-0.003-0.026-0.01-0.045-0.008-0.064
	c0.033-0.04,0.248-0.183,0.303-0.195l0.033-0.091l0.021-0.009l0.003-0.037l0.015-0.001c0.013-0.022,0.023-0.057,0.021-0.083
	l-0.009-0.013l0.012-0.034c-0.036-0.066-0.07-0.152-0.115-0.213c-0.004-0.005-0.068-0.049-0.08-0.059
	c-0.054-0.047-0.125-0.122-0.152-0.188c0.011-0.035,0.017-0.108-0.016-0.136l0.006-0.021l-0.015-0.041l0.015-0.012l0.023-0.122
	l-0.07-0.161c0.002-0.079,0.035-0.164,0.098-0.216l0.101-0.002l-0.017,0.077c0.021,0.056,0.108,0.266,0.107,0.314l0.033,0.008
	l-0.027,0.033l0.067,0.094c0.017-0.013,0.039-0.041,0.042-0.062l0.02-0.015c0.027-0.009,0.1,0.011,0.121,0.032l-0.012,0.026
	l0.016,0.016l0.018-0.003l0.008,0.026c0.011,0.006,0.022,0.033,0.025,0.045c0.052,0.015,0.104,0.048,0.148,0.076
	c0.004,0.082,0.143,0.114,0.203,0.138c0,0.013,0.012,0.034,0.023,0.042c0.014,0.001,0.033-0.008,0.041-0.019
	c0.045,0.011,0.105,0.066,0.131,0.104l-0.037,0.035l-0.031-0.006L85.654,74.2l0.049,0.051l0.027-0.015
	c0.011,0.014,0.121,0.225,0.127,0.242c0.039,0.024,0.136,0.03,0.172-0.006l-0.002-0.041l0.023-0.013v-0.024
	c0.018-0.019,0.033-0.043,0.043-0.065l-0.001-0.031c0.021-0.003,0.059-0.025,0.075-0.036c0.037-0.003,0.078,0.003,0.114,0.013
	c0.019,0.024,0.099,0.138,0.122,0.145l0.026-0.008l0.087,0.084l-0.002,0.038l-0.028,0.02c-0.021,0.085-0.099,0.241-0.099,0.312
	l0.025,0.02l-0.008,0.06c0.053,0.026,0.113,0.109,0.136,0.162l-0.013,0.034l0.026,0.025l0.028-0.005l0.065,0.097l0.038,0.005
	l0.026,0.034l0.038,0.007c0.012,0.023,0.041,0.078,0.064,0.092l0.037-0.003c0.014-0.039,0.09-0.22,0.07-0.252
	c0.008-0.035,0.104-0.099,0.134-0.106c0.034-0.011,0.111,0.005,0.142,0.026c0.014,0.018,0.034,0.056,0.034,0.08
	c0.013,0.009,0.043,0.03,0.06,0.03l0.023,0.041c0.059,0.012,0.076,0.1,0.156,0.103c0.025,0.053,0.088,0.054,0.107,0.104l0.051,0.02
	c0.041,0.049,0.054,0.107,0.086,0.157c0.027,0.043,0.085,0.074,0.091,0.133l0.043,0.036l0.05-0.015l-0.004-0.027l-0.035-0.048
	c0.041-0.105,0.069-0.223,0.04-0.336l-0.084-0.104l0.003-0.04c0.021-0.021,0.071-0.077,0.07-0.11
	c0.033-0.024,0.098-0.046,0.141-0.041c0.026,0.016,0.055,0.032,0.079,0.052c-0.003-0.016-0.003-0.037-0.009-0.054
	c-0.025-0.1-0.047-0.213-0.081-0.309c-0.028-0.078-0.105-0.104-0.069-0.226c-0.067-0.087-0.027-0.223-0.101-0.304
	c-0.004-0.004-0.096-0.063-0.108-0.071c-0.197-0.131-0.237,0.002-0.402,0.093c-0.04,0.021-0.088,0.037-0.132,0.054l-0.062-0.021
	c-0.051-0.058-0.13-0.179-0.151-0.252c-0.035-0.122,0.002-0.113-0.084-0.225l-0.027-0.034c0.043-0.079,0-0.314-0.041-0.393
	c-0.023-0.045-0.062-0.072-0.086-0.136c0.1-0.012,0.541,0.331,0.665,0.409c0.007,0.032,0.03,0.081,0.058,0.102
	c-0.033,0.03-0.029,0.091-0.004,0.124l-0.017,0.039l0.015,0.045c0.035,0.008,0.06-0.008,0.099,0.01
	c0.081-0.153,0.224-0.205,0.374-0.265c0.045,0.005,0.237,0.073,0.279,0.1l0.014,0.038l-0.008,0.046
	c0.035,0.04,0.065,0.087,0.093,0.132c-0.013,0.034-0.023,0.11-0.005,0.145c0.098,0.073,0.238,0.255,0.179,0.387
	c0.011,0.045,0.052,0.128,0.098,0.149l-0.009,0.065c0.078,0.092,0.088,0.217,0.158,0.288c0.059,0.017,0.161,0.063,0.201,0.114
	l0.026,0.153l-0.06,0.162c0.087,0.185,0.328,0.493,0.254,0.698c0.026,0.031,0.054,0.063,0.076,0.098
	c-0.007,0.052-0.067,0.191-0.106,0.224c0.006,0.076,0.052,0.14,0.095,0.199l0.039-0.014l0.047,0.017
	c0.026-0.014,0.074-0.021,0.104-0.014l0.041-0.021l-0.009-0.068c-0.063-0.038-0.12-0.104-0.106-0.185l0.046-0.041l0.052,0.015
	l-0.002-0.036l0.054-0.102l0.045-0.007v-0.04l-0.03-0.025l0.004-0.029l-0.035-0.02l-0.02-0.043c0.019-0.089,0.097-0.161,0.156-0.223
	c0.023-0.01,0.066-0.014,0.09-0.002v-0.036l0.033,0.002l0.031-0.022c0.048,0.018,0.153,0.072,0.179,0.118
	c-0.017-0.052-0.054-0.097-0.073-0.147l0.018-0.045l-0.027,0.02l-0.044-0.01l0.009-0.053l0.018-0.019l-0.013-0.032l-0.045,0.006
	l-0.038-0.022l-0.019-0.05l0.022-0.046c-0.034-0.037-0.058-0.122-0.042-0.171c0.018-0.059,0.1-0.188,0.168-0.202l0.026,0.009
	l0.023-0.059l-0.029-0.034c-0.04-0.021-0.124-0.025-0.162,0.002c-0.099-0.009-0.139-0.14-0.245-0.165
	c-0.024-0.042-0.068-0.146-0.056-0.197c-0.086-0.048-0.176-0.179-0.209-0.27L89.17,74.39c-0.033-0.056-0.19-0.314-0.205-0.373
	c-0.02-0.079-0.024-0.176-0.036-0.257l-0.02-0.03c-0.015-0.021-0.03-0.083-0.034-0.11c-0.062-0.035-0.09-0.118-0.147-0.164h-0.045
	c-0.062,0.075-0.331,0.057-0.444,0.087c-0.066-0.08-0.112-0.121-0.134-0.23c0.042,0.013,0.093,0.065,0.11,0.103
	c0.098,0.043,0.193,0.014,0.294,0.028l0.091-0.055l-0.005-0.071c0.009-0.033,0.053-0.082,0.077-0.104
	c0.056,0.06,0.16,0.091,0.237,0.1l0.045-0.042l0.002-0.021l0.024,0.003c0.024-0.002,0.066-0.039,0.081-0.057
	c0-0.131,0.011-0.161,0.088-0.268l0.039-0.018c0.037,0.069,0.03,0.141,0.012,0.217l0.027,0.046l0.056,0.019
	c0.016,0.046,0.029,0.097,0.035,0.145l-0.043,0.077l0.002,0.053l0.103,0.099l-0.009,0.183l-0.021,0.02
	c-0.049,0.003-0.168-0.079-0.217-0.098c-0.013,0.013-0.019,0.041-0.015,0.058c0.081,0.015,0.159,0.073,0.22,0.127l0.062,0.007
	l0.021,0.033l0.026,0.006c0.017,0.017,0.029,0.042,0.037,0.064l0.05,0.009c0.017,0.044,0.072,0.051,0.102,0.081
	c0.045,0.046,0.044,0.11,0.113,0.144c0.089,0.012,0.239-0.031,0.297,0.057c0.09-0.024,0.18-0.031,0.268-0.053l0.022,0.021
	l0.069-0.004c0.12,0.144,0.17,0.22,0.222,0.404l0.071,0.047l0.016-0.025c0.067,0.032,0.127-0.015,0.188,0.007
	c0.029-0.037,0.07-0.066,0.07-0.12l-0.023-0.012c-0.006-0.025,0.102-0.163,0.139-0.178l0.036,0.011l0.036-0.044l-0.02-0.058h-0.027
	l-0.059-0.046l-0.021-0.098l-0.066,0.015L90.919,74.1l-0.033,0.026l-0.039,0.004c-0.037-0.045-0.055-0.156-0.056-0.212
	c-0.039-0.017-0.081-0.05-0.109-0.081l-0.068,0.004l-0.028-0.016l-0.121,0.027c-0.018-0.011-0.061-0.029-0.081-0.024l-0.02-0.032
	c-0.064-0.011-0.131-0.021-0.192-0.04l-0.016,0.026l0.005,0.035l0.064-0.012l0.033,0.023l0.039-0.007
	c0.015,0.026,0.029,0.065,0.029,0.097c-0.027,0.013-0.054,0.026-0.079,0.041c-0.042-0.007-0.071-0.033-0.116-0.037l-0.256-0.021
	c-0.019-0.002-0.047-0.015-0.064-0.021c-0.084-0.03-0.055-0.029-0.093-0.098c-0.01-0.018-0.027-0.033-0.036-0.051
	c-0.004-0.01-0.01-0.053-0.014-0.06c-0.042-0.066-0.098-0.182-0.153-0.231c-0.011-0.064-0.001-0.118,0.006-0.182l0.021-0.007
	l0.021-0.114l0.019-0.021l0.03,0.005l0.034-0.071l0.018-0.01l0.02,0.005l0.031-0.019c0.02,0.011,0.047,0.032,0.066,0.038
	c0.021,0.005,0.05,0,0.071,0.004c0.104,0.02,0.176,0.073,0.238,0.16c0.029-0.018,0.193,0.021,0.206,0.049l0.031-0.016
	c0.022,0.015,0.067,0.021,0.093,0.016l0.016-0.017l0.029-0.003l0.034-0.027l0.029,0.008c0.032-0.021,0.073-0.051,0.113-0.061
	c0.021,0.007,0.045,0.019,0.063,0.032c0.024-0.003,0.057-0.003,0.08,0.006l0.008-0.025l0.018-0.009
	c0.026,0.001,0.077,0.052,0.11,0.065l0.051-0.005c0.022,0.051,0.076,0.082,0.108,0.126l0.005,0.046l0.022,0.026
	c0.041,0.021,0.114,0.016,0.161,0.012c0.036,0.058,0.172,0.058,0.225,0.031c0.026-0.013,0.117-0.103,0.139-0.131l0.094-0.013
	l0.039-0.078l-0.017-0.114c0.026-0.058,0.091-0.131,0.161-0.13c0.021,0.018,0.064,0.039,0.093,0.037
	c0.035,0.057,0.09,0.11,0.139,0.156l0.104,0.021c0.016,0.033,0.081,0.057,0.113,0.06c0.049-0.028,0.177-0.075,0.231-0.075
	c0.089,0,0.29,0.096,0.34,0.171c0.065,0.097,0.049,0.214,0.098,0.318c0.003,0.008,0.009,0.011,0.015,0.019
	c0.023,0.029,0.05,0.046,0.074,0.072c0.026,0.029,0.045,0.065,0.072,0.095v0.049l0.033-0.023c0.043,0.019,0.097,0.057,0.125,0.097
	l0.046,0.009c-0.031-0.051-0.053-0.115-0.067-0.173c-0.003-0.014-0.01-0.076-0.014-0.083c-0.035-0.086-0.123-0.163-0.128-0.26
	c0.015-0.028,0.049-0.106,0.04-0.14l-0.021-0.016l-0.035,0.011c-0.105-0.091-0.095-0.3-0.051-0.415l-0.037-0.113
	c0.081-0.159,0.341-0.163,0.491-0.133l0.084,0.147l0.023-0.054l-0.066-0.14c0.051-0.074,0.121-0.31,0.097-0.394l0.054-0.063
	c0.036-0.011,0.2-0.077,0.234-0.062l-0.009,0.045l0.072,0.015l0.004-0.016c0.035,0.021,0.051,0.093,0.044,0.13L94.09,72.32
	c0.008,0.07,0.065,0.092,0.092,0.143c0.025,0.046,0.021,0.104,0.055,0.149l-0.003,0.053l-0.029,0.013l0.021,0.009
	c0.047,0.046,0.077,0.218,0.09,0.286c0.024,0.13-0.004,0.083-0.029,0.201c-0.015,0.066,0.043,0.22,0.079,0.273l0.032,0.021
	c0.016,0.064,0.056,0.107,0.086,0.163l0.026-0.014l0.008-0.02l-0.031-0.004l-0.008-0.03l0.023-0.038l0.027-0.014
	c0.015,0.013,0.044,0.022,0.062,0.021c-0.021-0.018-0.041-0.039-0.059-0.061l-0.042-0.005c-0.086-0.059-0.062-0.108-0.107-0.175
	c0.013-0.036,0.003-0.075,0.02-0.111c0.049-0.038,0.098-0.083,0.137-0.131c-0.019-0.099,0.09-0.221,0.161-0.274
	c0.042-0.012,0.102-0.023,0.145-0.019c0.021,0.056,0.055,0.12,0.095,0.166l0.032,0.011c0.025-0.011,0.055-0.035,0.07-0.059
	c0.006-0.037,0.022-0.08,0.023-0.115c0.002-0.056-0.068-0.085-0.092-0.127c-0.002-0.003-0.024-0.094-0.026-0.105
	c-0.009-0.031-0.06-0.042-0.087-0.032l-0.047-0.019l-0.032,0.015l-0.023-0.008c-0.008-0.01-0.026-0.055-0.024-0.065
	c0.02-0.09,0.035-0.167,0.07-0.252c0.057-0.14,0.098-0.144,0.236-0.192c0.065-0.022,0.215-0.013,0.271,0.028
	c0.089,0.089-0.016,0.197,0.089,0.324c0.016,0.021,0.045,0.044,0.071,0.052l0.018,0.047c0.022,0.011,0.048,0.017,0.07,0.021
	c0.016,0.054,0.058,0.119,0.101,0.155l-0.016,0.062l0.025,0.049h0.022l-0.001-0.061c0.028-0.016,0.09-0.056,0.106-0.088l0.028,0.029
	l0.042-0.015c-0.022-0.115,0.003-0.186,0.114-0.234h0.07l-0.007,0.026l0.012,0.025l0.045-0.039l0.026,0.005l0.022,0.056l0.023-0.035
	l0.034-0.012l0.042,0.009l0.021,0.028v0.023c0.026,0.011,0.061,0.029,0.08,0.051l0.021-0.014l-0.015-0.025
	c-0.007-0.026,0.035-0.089,0.05-0.107l-0.016-0.045c0.017-0.03,0.057-0.079,0.089-0.096l0.044,0.013l0.021-0.021l-0.009-0.032
	c-0.021-0.089-0.07-0.138-0.111-0.217c-0.031-0.059-0.002-0.115-0.018-0.17l-0.013-0.039l-0.232-0.227
	c0.04-0.098,0.162-0.114,0.254-0.087c0.035,0.011,0.037,0.037,0.099,0.029c0.052-0.008,0.073-0.031,0.137-0.012l0.027,0.038
	c-0.006,0.181,0.052,0.148,0.14,0.244c0.024,0.025,0.077,0.117,0.103,0.156l0.025-0.005l-0.019-0.03l0.009-0.016l0.025,0.008
	l-0.003-0.059l-0.022-0.033c-0.005-0.041,0.023-0.089,0.032-0.13l0.033-0.034c0.044-0.017,0.104-0.024,0.152-0.018
	c0.011,0.025,0.054,0.055,0.079,0.064c0.032,0.002,0.078-0.003,0.107-0.018l0.029,0.008l0.018,0.024l0.081,0.014l0.022-0.029
	l-0.013-0.045l0.026-0.063l0.059-0.035l0.042,0.015l0.017,0.026l0.03,0.017c0.002,0.012,0,0.037-0.009,0.047l0.029,0.02l0.005-0.04
	l0.038-0.019c0.054-0.007,0.105,0.064,0.103,0.112l0.035,0.019l-0.002-0.05l0.051,0.021c0.011-0.041-0.036-0.117-0.042-0.164
	l-0.044-0.038c-0.002-0.018-0.011-0.052-0.027-0.063l-0.002-0.04c-0.021-0.025-0.076-0.068-0.112-0.066
	c-0.038-0.032,0-0.109-0.078-0.203c-0.047-0.019-0.073-0.055-0.127-0.07c-0.027-0.142,0.12-0.246,0.241-0.277
	c0.061,0.043,0.205,0.149,0.217,0.22l0.073-0.02l0.063-0.069l0.028,0.007l0.029,0.035c0.032-0.05,0.072-0.075,0.105-0.119
	l0.011,0.032l0.042,0.029c-0.012-0.026-0.029-0.058-0.034-0.087l0.02-0.02l0.024,0.003c0.029,0.04,0.085,0.051,0.121,0.1
	l0.058,0.005c-0.011-0.058-0.103-0.172-0.073-0.217l0.032-0.002l0.02-0.033l0.04,0.046l0.028-0.03l-0.008-0.042
	c0.012-0.017,0.044-0.044,0.067-0.043c0.02,0.021,0.05,0.069,0.05,0.101c-0.015,0.015-0.015,0.057-0.011,0.073l0.045-0.035
	c0.028,0.046,0.065,0.091,0.102,0.13l0.006-0.051c-0.021-0.018-0.043-0.038-0.058-0.061c0-0.02,0.012-0.047,0.021-0.062
	c0.034-0.021,0.125-0.071,0.164-0.061c0-0.045,0-0.109,0.032-0.145h0.034c0.018-0.104-0.088-0.188-0.104-0.286
	c-0.008-0.045,0.008-0.09-0.005-0.139l-0.047,0.003l-0.057,0.047c-0.119,0.026-0.149-0.035-0.22-0.05
	c-0.038-0.009-0.087,0.002-0.125-0.005c-0.072-0.015-0.181-0.084-0.258-0.04c-0.051-0.013-0.085-0.021-0.118-0.067
	c-0.015-0.033,0-0.096,0.019-0.125c0.025-0.01,0.058-0.043,0.065-0.069l0.028-0.007c0.019,0.016,0.064,0.054,0.089,0.059
	c0.087-0.024,0.167-0.03,0.25,0.014l0.065-0.021l0.049-0.086c-0.012-0.095-0.072-0.172-0.117-0.253l0.01-0.059
	c0.022-0.035,0.1-0.057,0.137-0.058c0.172,0.058,0.204,0.202,0.323,0.258c0.017,0.007,0.041,0.005,0.058,0.014
	c0.039,0.018,0.099,0.049,0.134,0.075c0.015,0.011,0.033,0.048,0.049,0.061c0.055,0.043,0.13,0.076,0.188,0.116l0.035-0.058
	c0.001-0.063-0.086-0.102-0.121-0.142c-0.035-0.042-0.066-0.101-0.099-0.147l0.018-0.041c0.031-0.029,0.08-0.057,0.121-0.067
	c0.032,0.044,0.117,0.089,0.166,0.105l-0.017-0.059c0.054-0.069,0.165-0.115,0.247-0.139c0.035,0.028,0.097,0.067,0.143,0.074
	c0.006,0.038,0.011,0.075,0.019,0.113c0.075,0.002,0.154,0.017,0.229,0.033c-0.02-0.024-0.102-0.052-0.13-0.06
	c-0.028-0.105-0.023-0.284,0.03-0.381c0.065-0.115,0.203-0.227,0.343-0.222c0.028-0.043,0.085-0.062,0.134-0.061l0.085,0.07
	l0.028-0.002l0.034,0.036l0.04-0.017c-0.029-0.051-0.065-0.103-0.111-0.139c-0.07-0.005-0.106-0.068-0.15-0.116l0.002-0.02
	c-0.022-0.008-0.062-0.027-0.076-0.047l-0.017,0.001c-0.003-0.014-0.027-0.031-0.038-0.035c-0.004-0.036,0.01-0.153,0.038-0.182
	l-0.021-0.017l0.005-0.021c-0.028-0.032-0.019-0.073-0.041-0.108c0.022-0.054,0.116-0.18,0.179-0.19l0.027,0.008l0.018,0.02
	c0.062-0.027,0.233,0.162,0.341,0.107l0.024,0.016c0.025-0.002,0.105,0.002,0.124-0.012l0.026,0.012
	c0.006-0.01,0.018-0.018,0.028-0.021l0.006-0.015l-0.021-0.008l0.015-0.011l0.027,0.004l0.005-0.015l-0.005-0.037l-0.019-0.02
	c-0.083-0.022-0.176,0.018-0.237-0.072c-0.037,0.004-0.094-0.016-0.117-0.049c-0.003-0.019-0.004-0.061,0.008-0.076l0.027-0.021
	c0.022,0.006,0.052,0.006,0.075,0.003c-0.021-0.013-0.054-0.027-0.079-0.031l-0.001-0.021l-0.026,0.002l-0.014-0.016l-0.007-0.03
	c-0.089-0.11-0.189-0.055-0.272-0.076c-0.047-0.027-0.07-0.083-0.11-0.119c-0.005-0.106-0.01-0.222,0.102-0.28
	c0.105-0.006,0.2-0.021,0.304,0.016c0.036,0.013,0.099,0.049,0.138,0.029l0.017-0.021c-0.011-0.017-0.037-0.042-0.057-0.047
	c-0.01-0.06,0.072-0.184,0.135-0.193c0.016,0.011,0.028,0.03,0.045,0.04c0.023,0.014,0.053,0.011,0.075,0.026l0.021,0.016
	c0.076-0.004,0.142,0.066,0.199,0.111l0.028-0.01l0.009-0.019c-0.076-0.023-0.041-0.067-0.062-0.095
	c0.003-0.042,0.045-0.086,0.016-0.133c-0.029-0.046-0.118-0.059-0.096-0.125l-0.102-0.098c-0.018-0.006-0.045-0.01-0.063-0.004
	c-0.02-0.031-0.052-0.045-0.068-0.079c-0.015-0.032-0.011-0.197,0.037-0.211l0.003-0.057c-0.013-0.016-0.021-0.043-0.021-0.062
	c0.011-0.028,0.062-0.096,0.084-0.111c0.072-0.057,0.244-0.09,0.308-0.001l-0.032,0.042l-0.004,0.037
	c0.085,0.029,0.101,0.137,0.218,0.183c0.021,0.039,0.039,0.079,0.057,0.12l0.005-0.063c0.045-0.054,0.116-0.089,0.188-0.081
	l0.046-0.032l-0.073-0.065l-0.054,0.012l-0.054-0.026c-0.051-0.109,0.011-0.181,0.063-0.269l0.051-0.022l0.038,0.022l0.029-0.024
	c0.026,0,0.061,0.013,0.084,0.026l0.028,0.045c0.05,0.022,0.118,0.048,0.174,0.052l0.024-0.043c-0.025-0.002-0.068-0.019-0.083-0.04
	l-0.011-0.041l-0.053-0.022c0.007-0.166,0.126-0.168,0.25-0.11l0.021-0.037c-0.027-0.044-0.094-0.068-0.142-0.074
	c-0.009-0.001-0.031,0.009-0.04,0.009c-0.054-0.001-0.142-0.071-0.177-0.112l-0.031,0.009c-0.028-0.012-0.047-0.073-0.057-0.098
	c-0.088-0.204,0.027-0.315,0.164-0.467l-0.09-0.053c-0.011-0.075-0.033-0.151-0.054-0.224c0.027-0.047,0.089-0.165,0.094-0.22
	c0.009-0.134-0.071-0.204-0.089-0.309l0.014-0.11c0.021-0.161,0.167-0.244,0.292-0.324c0.031-0.019,0.045-0.034,0.078-0.049
	c0.034-0.016,0.188-0.029,0.233-0.019c0.026,0.034,0.039,0.077,0.064,0.11c0.033,0.047,0.075,0.092,0.111,0.136l0.193-0.027
	l0.037,0.016c0.013,0.034,0.06,0.089,0.098,0.096c0.009-0.063,0.013-0.131,0.009-0.194l0.035-0.012l0.006-0.084
	c0.034-0.045,0.122-0.083,0.178-0.08c0.053,0.022,0.115,0.047,0.171,0.052l-0.018-0.039l0.009-0.036l0.054-0.027l-0.104-0.049
	l-0.016-0.084c-0.194-0.146-0.389-0.17-0.423-0.443l0.033-0.052c-0.143-0.018-0.159-0.184-0.26-0.249
	c-0.038-0.09-0.034-0.261-0.024-0.354l0.14-0.047l-0.071-0.12c-0.031-0.011-0.144-0.061-0.151-0.099l0.024-0.054l-0.03-0.058
	c0.053-0.095,0.062-0.203,0.138-0.288c-0.078-0.065-0.136-0.065-0.229-0.076c-0.062-0.097-0.128-0.272-0.118-0.391l-0.113-0.02
	c-0.083-0.062-0.131-0.167-0.155-0.263l-0.039-0.16c-0.001-0.021,0.009-0.033,0.015-0.054l0.03-0.108
	c0.028-0.065,0.123-0.191,0.163-0.258l-0.018-0.141c-0.016-0.134,0.002-0.189,0.09-0.293l0.072-0.088
	c0.005-0.004,0.086-0.037,0.099-0.044c0.049-0.025,0.081-0.051,0.141-0.059l-0.039-0.068l-0.071-0.033l-0.054,0.021
	c-0.021-0.016-0.085-0.037-0.097-0.048c-0.048-0.042-0.074-0.109-0.117-0.152c-0.013-0.012-0.178-0.146-0.19-0.149
	c-0.087,0.049-0.188-0.033-0.216-0.113c0.004-0.078-0.018-0.172-0.008-0.247c0.004-0.024,0.021-0.054,0.027-0.078
	c0.025-0.101,0.062-0.237,0.063-0.339c0-0.035-0.026-0.078-0.026-0.113l0.023-0.188c0.002-0.007,0.063-0.162,0.067-0.169
	c0.006-0.011,0.013-0.015,0.021-0.024c0.038-0.046,0.067-0.105,0.106-0.147c0.056-0.06,0.088-0.038,0.122-0.157
	c0.036-0.131,0.022-0.265,0.044-0.394c0.018-0.107,0.082-0.214,0.119-0.315c0.004-0.001,0.015-0.001,0.018-0.002
	c0.145-0.069,0.136-0.144,0.148-0.312l0.023,0.006c0.01-0.028,0.035-0.066,0.061-0.085h0.032c0.017-0.042,0.087-0.159,0.118-0.19
	c0.056-0.053,0.301-0.203,0.377-0.2c0.073,0.003,0.146,0.039,0.222,0.025c0.13-0.023,0.209-0.09,0.344-0.041
	c0.126,0.046,0.179,0.14,0.289,0.203l0.104-0.058l0.034,0.035c0.096-0.127,0.229-0.198,0.385-0.218
	c0.023-0.004,0.05,0.008,0.071,0.005c0.065-0.008,0.111-0.034,0.181-0.025l0.04,0.025c0.014,0.038,0.016,0.07,0.017,0.109
	c0.033,0.073,0.139,0.095,0.202,0.127c0.06,0.031,0.132,0.145,0.205,0.2c0.05,0.002,0.111-0.017,0.155-0.035l0.019-0.034
	l-0.007-0.029l0.01-0.029c-0.024-0.051,0.009-0.106-0.016-0.167c0.07-0.171,0.107-0.067,0.117-0.311
	c-0.02-0.022-0.086-0.088-0.119-0.091c-0.059,0.046-0.147,0.024-0.212,0.06l-0.053-0.014l-0.026,0.026
	c-0.043,0.011-0.214,0.048-0.252,0.019c-0.047-0.049-0.082-0.122-0.113-0.18l-0.104-0.194c-0.025-0.066-0.051-0.188-0.062-0.261
	c-0.002-0.011,0.013-0.069,0.011-0.083c-0.004-0.055-0.023-0.11-0.03-0.165c-0.012-0.09-0.013-0.183-0.025-0.272
	c-0.013-0.086-0.049-0.189-0.051-0.274c-0.002-0.103,0.06-0.339,0.077-0.457c0.022-0.151,0.008-0.26-0.009-0.412
	c-0.005-0.045,0-0.091-0.003-0.137c-0.004-0.047-0.015-0.109-0.011-0.156c0.004-0.063,0.03-0.13,0.037-0.193
	c0.004-0.032-0.009-0.069-0.005-0.102c0.005-0.042,0.028-0.089,0.031-0.131c0.003-0.044-0.018-0.094-0.018-0.139
	c0-0.096,0.057-0.533,0.092-0.646c0.045-0.142,0.161-0.309,0.179-0.454c0.013-0.119-0.011-0.257,0.011-0.372
	c0.028-0.153,0.104-0.308,0.141-0.461l0.037-0.228c0.007-0.045,0.016-0.068,0.018-0.113c0.005-0.069-0.025-0.15-0.02-0.219
	c0.011-0.105,0.054-0.22,0.074-0.324c0.033-0.174,0.034-0.489,0.205-0.602c0.045-0.007,0.146-0.009,0.188,0.014l0.122-0.046
	l0.028-0.049c0.002-0.039-0.022-0.097-0.046-0.126l0.011-0.049c-0.021-0.023-0.084-0.116-0.09-0.142c-0.002-0.009,0-0.086,0-0.102
	c-0.006-0.083-0.019-0.166-0.022-0.249c-0.001-0.052,0.011-0.107,0.006-0.158c-0.011-0.119-0.036-0.243-0.053-0.362
	c-0.003-0.016-0.012-0.061-0.01-0.07c0.035-0.308,0.057-0.205-0.043-0.456l-0.06-0.154c-0.029-0.132-0.063-0.41-0.072-0.547
	c-0.005-0.075,0.017-0.164,0.018-0.24c0.002-0.025-0.009-0.054-0.008-0.079c0.005-0.074,0.062-0.15,0.045-0.225l-0.012-0.018
	c0.009-0.057,0.099-0.332,0.135-0.359c0.065-0.011,0.169-0.106,0.19-0.163l-0.05-0.08c-0.329-0.181-0.237-0.028-0.481-0.387
	l-0.011-0.014l-0.066-0.712l0.03-0.038l-0.01-0.023l-0.024-0.002l-0.038-0.133l-0.018-0.015c0.001-0.054,0.007-0.16,0.052-0.192
	l-0.026-0.031l0.02-0.021l-0.01-0.023l0.01-0.024L105,44.268l0.002-0.025l-0.03-0.019c-0.012-0.02-0.014-0.061-0.01-0.083
	c-0.074-0.051-0.198-0.1-0.208-0.202c-0.014-0.01-0.136-0.104-0.139-0.107c-0.004-0.006-0.16-0.247-0.16-0.249
	c-0.038-0.091-0.066-0.74-0.062-0.825c0.005-0.077,0.056-0.179,0.071-0.257c0.021-0.104,0.018-0.227,0.048-0.327
	c0.02-0.068,0.08-0.141,0.106-0.209c0.021-0.049,0.021-0.107,0.038-0.157c0.039-0.109,0.09-0.25,0.144-0.353
	c0.021-0.038,0.1-0.074,0.146-0.073l0.051,0.035l0.05-0.01c0.025-0.046,0.046-0.098,0.062-0.148l0.034-0.003l-0.005-0.084
	l-0.055-0.063c0.029-0.03,0.076-0.07,0.115-0.085l0.02-0.032c-0.014-0.037-0.045-0.032-0.057-0.045
	c-0.049-0.05-0.08-0.123-0.145-0.157l-0.036,0.003l-0.032-0.019l-0.042,0.03c-0.035-0.027-0.11,0.015-0.165-0.005
	c-0.046-0.026-0.128-0.236-0.145-0.289c-0.008-0.027,0.014-0.052-0.021-0.093c-0.194,0.002-0.425-0.036-0.594-0.137l-0.048-0.084
	c-0.039-0.023-0.16-0.078-0.207-0.06c-0.044-0.049-0.174-0.1-0.233-0.129c-0.009-0.004-0.201-0.037-0.209-0.036
	c-0.013-0.017-0.032-0.033-0.05-0.043l-0.019,0.01l-0.017-0.003l-0.069,0.036c-0.04-0.021-0.163-0.002-0.21-0.001
	c-0.049,0-0.123-0.02-0.163,0.024c-0.044-0.004-0.097,0-0.14,0.013l-0.062-0.022c-0.045,0.011-0.114,0.036-0.148,0.069l-0.086-0.018
	l-0.035-0.049l-0.137,0.001l-0.114,0.082l-0.045,0.101c-0.11,0.048-0.238,0.044-0.354,0.075c-0.07,0.018-0.168,0.055-0.233,0.085
	c-0.002,0.001-0.098,0.088-0.098,0.088l-0.079,0.07c-0.055,0.033-0.24,0.065-0.304,0.071l-0.047-0.036
	c-0.063,0.026-0.114,0.102-0.118,0.169l-0.036-0.008l0.038,0.084l-0.047,0.025c-0.024-0.013-0.053-0.076-0.062-0.101
	c-0.021,0.021-0.173,0.004-0.205,0.002l-0.1-0.064c-0.011,0.001-0.114,0.014-0.118,0.013c-0.09-0.017-0.304-0.112-0.4-0.15
	l-0.063,0.019c-0.034,0.056-0.006,0.095-0.013,0.15c-0.062,0.059-0.167,0.097-0.251,0.097c-0.004,0-0.065-0.009-0.069-0.01
	c-0.064-0.021-0.385-0.169-0.437-0.205c-0.009-0.007-0.348-0.3-0.372-0.328c-0.054-0.067-0.098-0.158-0.155-0.219
	c-0.048-0.05-0.129-0.09-0.183-0.133c-0.038-0.03-0.068-0.067-0.105-0.099c-0.072-0.06-0.271-0.188-0.322-0.24
	c-0.065-0.066-0.139-0.187-0.166-0.277l-0.047-0.01l-0.049,0.029l-0.1-0.014c-0.041,0.014-0.09,0.063-0.102,0.105l-0.028-0.005
	l-0.057,0.037l-0.045-0.006l-0.013,0.013l-0.021-0.049l-0.047-0.014l-0.062,0.019l-0.107-0.038l-0.022-0.049l-0.041,0.017
	c-0.053,0.004-0.178-0.069-0.218-0.097l-0.042,0.065c-0.08,0.021-0.229,0.09-0.279,0.161c-0.042-0.014-0.085-0.047-0.118-0.074
	L96.25,39.35l-0.033,0.063c0.007,0.046,0.015,0.102-0.026,0.134c0.003,0.015,0.023,0.073,0.039,0.079
	c-0.028,0.158-0.208,0.162-0.353,0.201c-0.024,0.006-0.049,0.035-0.08,0.042L95.781,39.9l-0.024-0.005l-0.017,0.023l-0.035-0.014
	c-0.015,0.003-0.043,0.013-0.052,0.025l-0.01,0.043c-0.019,0.03-0.107,0.025-0.116,0.09l0.007,0.037l-0.017,0.002l-0.005,0.019
	h-0.029l0.036,0.032c-0.048,0.076-0.312,0.122-0.387,0.096L95.1,40.273l-0.01,0.027l0.01,0.031l-0.013,0.021l0.014,0.022
	c0,0.044-0.009,0.081-0.033,0.118c-0.083,0.07-0.214,0.059-0.313,0.079c-0.111,0.023-0.16,0.134-0.316,0.147l-0.062,0.116
	l0.025,0.024c-0.022,0.015-0.071,0.019-0.096,0.015l-0.032,0.031c0.006,0.05-0.181,0.152-0.214,0.178
	c-0.002,0.065-0.013,0.136-0.027,0.199c-0.062,0.052-0.132,0.097-0.192,0.147c-0.072,0.059-0.22,0.229-0.333,0.195l-0.022-0.033
	l-0.125-0.032c-0.039,0.062-0.104,0.044-0.161,0.055c-0.056,0.01-0.071,0.065-0.126,0.076l-0.017,0.022
	c-0.041,0-0.108,0.031-0.131,0.068l-0.033,0.001c-0.019,0.027-0.058,0.062-0.089,0.072c-0.027-0.011-0.072-0.023-0.099-0.005
	c-0.01-0.01-0.038-0.02-0.051-0.022c-0.082,0.021-0.203,0.151-0.248,0.216l0.005,0.052c-0.007,0.009-0.047,0.054-0.048,0.058
	c-0.019,0.05-0.049,0.173-0.036,0.228c-0.092,0.046-0.122,0.188-0.156,0.275c0,0.002,0.006,0.045,0.007,0.049
	c-0.031,0.044-0.066,0.093-0.087,0.144c-0.154,0.11-0.202,0.072-0.359,0.112L91.612,43c-0.022,0.008-0.039,0.008-0.06,0.02
	c-0.044,0.024-0.08,0.085-0.124,0.109c-0.063,0.034-0.159,0.058-0.228,0.083c-0.022,0.037-0.054,0.081-0.072,0.12
	c-0.001,0.006,0.002,0.039,0,0.048c-0.016,0.065-0.059,0.119-0.066,0.191l0.026,0.058l-0.017,0.096
	c-0.039,0.049-0.115,0.12-0.173,0.145l-0.019,0.044l0.012,0.052c-0.019,0.024-0.042,0.077-0.036,0.108
	c-0.068,0.046-0.087,0.166-0.135,0.235l-0.032,0.009c-0.075,0.129-0.193,0.278-0.329,0.35l0.009,0.084
	c-0.018,0.022-0.042,0.045-0.064,0.062c-0.088,0.066-0.094,0.146-0.12,0.256c-0.177,0.111-0.375,0.179-0.569,0.251
	c-0.046,0.017-0.142,0.13-0.164,0.179c-0.171,0.1-0.403,0.114-0.594,0.148c-0.002,0.001-0.016,0.015-0.019,0.017
	c-0.026-0.008-0.09-0.011-0.115,0.006c-0.081,0.055-0.17,0.107-0.247,0.166c-0.048,0.037-0.086,0.092-0.134,0.128
	c-0.076,0.057-0.175,0.026-0.248,0.118c-0.028,0.037-0.092,0.135-0.108,0.173l-0.017,0.074c-0.033,0.148-0.048,0.208-0.153,0.326
	l-0.072,0.082c-0.092,0.071-0.214,0.155-0.314,0.213c-0.047,0.026-0.111,0.014-0.199,0.085l-0.007,0.036
	c-0.021,0.011-0.042,0.045-0.052,0.065c-0.03,0.006-0.076,0.027-0.097,0.052c0.034,0.062,0.034,0.215,0.025,0.282
	c-0.004,0.027-0.029,0.06-0.034,0.088c-0.002,0.007-0.006,0.136-0.004,0.146c0.002,0.01,0.02,0.039,0.021,0.048
	c0.013,0.125-0.01,0.192,0.045,0.323l-0.024,0.067l-0.024,0.013l-0.005,0.028l-0.047,0.048c0.005,0.019,0.009,0.037,0.011,0.056
	h-0.028c-0.004,0.007-0.006,0.015-0.01,0.022c-0.007,0.013-0.063,0.115-0.067,0.12c-0.008,0.027-0.008,0.043-0.012,0.071
	l-0.026,0.142c-0.015,0.063-0.047,0.115-0.043,0.183c-0.13,0.05-0.112,0.404-0.254,0.496l0.002,0.05
	c-0.167,0.159-0.251,0.217-0.494,0.251c-0.027,0.064-0.073,0.102-0.11,0.156c-0.059,0.091-0.098,0.208-0.113,0.315
	c-0.029,0.21,0.131,0.425,0.065,0.637c-0.019,0.062-0.073,0.12-0.097,0.183c-0.029,0.077-0.014,0.161-0.04,0.236
	c-0.028,0.076-0.173,0.215-0.187,0.261c-0.021,0.067-0.017,0.147-0.035,0.216c-0.031,0.113-0.097,0.213-0.116,0.33
	c-0.009,0.057,0.028,0.112,0.013,0.174c-0.035,0.146-0.104,0.172-0.182,0.269c-0.102,0.125-0.07,0.216-0.139,0.301
	c-0.232,0.284-0.346,0.335-0.674,0.498l-0.043-0.02c-0.063-0.005-0.157,0.072-0.191,0.117l-0.007,0.077
	c-0.047,0.056-0.09,0.123-0.122,0.187c-0.047,0.089-0.119,0.195,0.002,0.265c0.049,0.078-0.1,0.225,0.012,0.435
	c-0.016,0.033-0.035,0.085-0.057,0.113c-0.038,0.05-0.104,0.112-0.149,0.157c-0.009,0.008-0.04,0.018-0.051,0.025
	c-0.056,0.05-0.09,0.164-0.182,0.169l-0.034,0.043l-0.009,0.091c0.047,0.038,0.019,0.151-0.003,0.191
	c-0.025,0.045-0.082,0.1-0.115,0.141c-0.002,0.002-0.156,0.091-0.225,0.182l-0.023,0.003l-0.033,0.091l-0.023,0.011v0.096
	c0.035,0.067,0.094,0.056,0.127,0.162l-0.014,0.033c-0.018,0.046-0.148,0.12-0.189,0.181c-0.056,0.085-0.11,0.182-0.147,0.275
	c-0.051,0.128-0.085,0.162,0.009,0.277l-0.002,0.064c-0.028,0.055-0.12,0.177-0.188,0.18c-0.004-0.012-0.023-0.026-0.034-0.031
	l-0.036,0.01c-0.014,0.022-0.08,0.227-0.082,0.26h0.021c0.025,0.015,0.037,0.054,0.064,0.073c0.026,0.02,0.062,0.033,0.088,0.055
	c0.02,0.018,0.102,0.111,0.115,0.12c0.062,0.039,0.152,0.035,0.229,0.098c0.006,0.029,0.029,0.085,0.056,0.102l0.013,0.065
	l-0.024,0.053l0.06,0.103h0.062c0.08,0.099-0.014,0.146,0.031,0.229c-0.003,0.024-0.023,0.079-0.048,0.09l0.026,0.063l0.059,0.021
	c0.027,0.025,0.059,0.08,0.062,0.118l-0.013,0.045l-0.019,0.007c-0.016-0.011-0.051-0.027-0.07-0.022l-0.015,0.03l0.019,0.025
	l0.029,0.007l0.041-0.024h0.043c0.038,0.041,0.131,0.081,0.189,0.069c0.025,0.032,0.03,0.102,0.019,0.139l-0.019,0.005l-0.021,0.05
	l0.037,0.149l0.083,0.073l0.013,0.041l-0.015,0.047l-0.062,0.056l-0.127-0.008l-0.021-0.026l-0.004-0.102l-0.077-0.053l-0.264,0.03
	l-0.036,0.051l0.029,0.058l-0.003,0.056c-0.054,0.075-0.312,0.457-0.411,0.441c-0.021,0.027-0.011,0.105-0.004,0.134
	c-0.01,0.032-0.04,0.078-0.068,0.097l0.007,0.052l-0.042,0.07l0.014,0.065c-0.016,0.038-0.059,0.044-0.074,0.092v0.034l-0.029,0.034
	l-0.002,0.026c0.039,0.021,0.051,0.12,0.039,0.16l0.062,0.046c0.01,0.041,0.048,0.114,0.085,0.137
	c0.006,0.024,0.014,0.053,0.015,0.076c0.009,0.1-0.133,0.394-0.188,0.478c-0.012,0.019-0.056,0.046-0.077,0.054l-0.129-0.031
	l-0.021,0.013l-0.101-0.016l-0.011-0.024l-0.034-0.008l-0.047,0.036c0.036,0.027,0.063,0.102,0.065,0.146l-0.041,0.033l-0.046,0.006
	l-0.013,0.121l0.138,0.095c0.058,0.099-0.104,0.317-0.181,0.366c-0.07,0.045-0.266,0.052-0.328-0.019l-0.031,0.006
	c0.005,0.04-0.054,0.096-0.059,0.15c-0.053,0.02-0.127,0.028-0.175,0.055c-0.04,0.022-0.151,0.115-0.179,0.16l-0.006,0.134
	l-0.035,0.024l0.016,0.056l0.025,0.001c0.047,0.077,0.115,0.08,0.172,0.175c0.01,0.028,0.006,0.089-0.016,0.113
	c-0.045,0.048-0.199,0.159-0.262,0.182l-0.047-0.012l-0.022-0.046l-0.044-0.021l-0.025,0.006l0.007,0.05l0.048,0.019
	c0.035,0.081,0.11,0.127,0.129,0.222l-0.01,0.024c-0.023-0.008-0.069,0.006-0.09,0.017l-0.01,0.02c0.021,0.001,0.143,0.002,0.147,0
	c0.052-0.015,0.099-0.077,0.159-0.069c0.042,0.011,0.147,0.089,0.171,0.118c0.034,0.045,0.14,0.215,0.118,0.276
	c0.038,0.079,0.184,0.147,0.18,0.246l0.057,0.029l0.109,0.059c0.085,0.026,0.212-0.044,0.291,0.007
	c0.07,0.046,0.053,0.13,0.09,0.188c0.049,0.075,0.127,0.143,0.182,0.217c0.115,0.148,0.19,0.367,0.045,0.525
	c-0.013,0.047,0.011,0.125,0.041,0.161l-0.009,0.032c-0.073,0.045-0.158,0.16-0.181,0.244c-0.002,0.007-0.002,0.05-0.004,0.054
	c-0.096,0.149-0.186,0.308-0.293,0.448l-0.073,0.01l-0.012,0.023l0.005,0.084c-0.061,0.069-0.172,0.194-0.158,0.299
	c0.031,0.026,0.053,0.091,0.049,0.131l0.055,0.06c0.064,0.01,0.159,0.063,0.213,0.101c0.057,0.059,0.085,0.271,0.102,0.351
	c0.003,0.017-0.008,0.042-0.004,0.058c0.013,0.053,0.034,0.118,0.03,0.172c-0.005,0.084-0.026,0.14-0.017,0.233l-0.02,0.017
	c-0.004,0.019,0,0.059,0.013,0.074l-0.011,0.082l-0.049-0.004l-0.021,0.13l0.053,0.009l-0.031,0.167l0.031,0.07l-0.008,0.025
	c0.047,0.078,0.088,0.167,0.117,0.255c-0.036,0.026-0.094,0.061-0.124,0.093c-0.04,0.043-0.045,0.12-0.112,0.139
	c-0.025,0.027-0.018,0.12-0.01,0.151l0.051,0.063l0.148,0.031l0.015-0.032l0.106-0.002c0.037-0.088,0.088-0.112,0.131-0.176
	c0.025-0.039,0.02-0.081,0.062-0.117c0.08-0.068,0.119-0.088,0.188-0.184c0.028-0.041,0.017-0.131,0.028-0.182
	c0.038-0.062,0.294-0.044,0.291,0.05c0,0.02-0.035,0.074-0.043,0.094c-0.014,0.031-0.021,0.104-0.053,0.121l-0.048,0.116
	l-0.103,0.044l0.158,0.446l0.121-0.013c-0.002-0.012-0.003-0.035,0.004-0.046l0.003,0.021c0.028,0.007,0.1-0.002,0.126-0.014
	c0.055,0.016,0.076,0.041,0.119,0.068c0.143,0.007,0.182,0.043,0.216,0.188l0.03,0.008c-0.047,0.11-0.045,0.24-0.146,0.325
	c-0.045,0.037-0.108,0.062-0.156,0.097c-0.123-0.043-0.248-0.068-0.377-0.033c-0.016-0.069,0.025-0.185,0.068-0.238l0.092-0.003
	l-0.039-0.076c-0.068-0.005-0.152-0.036-0.209-0.075c-0.088,0.009-0.21,0.033-0.285,0.086c-0.045,0.16-0.138,0.538-0.213,0.681
	c-0.002,0.003-0.041,0.036-0.045,0.04l-0.057-0.02c0.104,0.202,0.045,0.262-0.025,0.463l-0.047,0.036
	c-0.029,0.395-0.206,0.349,0.137,0.546c0.052,0.081-0.031,0.222-0.062,0.295c-0.067,0.154-0.16,0.451-0.287,0.57
	c-0.104,0.096-0.366,0.292-0.484,0.36c-0.045,0.025-0.104,0.039-0.151,0.062c-0.251,0.119-0.487,0.271-0.74,0.382
	c-0.071,0.031-0.149,0.054-0.222,0.081c-0.072,0.029-0.15,0.071-0.232,0.073c-0.047,0-0.133-0.041-0.172-0.062
	c-0.107,0.068-0.413-0.104-0.5-0.171l0.003-0.036l-0.024-0.05l-0.029-0.018l-0.027,0.033l-0.02-0.008l-0.019,0.034
	c-0.057,0.004-0.177-0.052-0.226-0.08l-0.021-0.033c-0.013-0.001-0.034-0.008-0.044-0.017l-0.011-0.021h-0.018l-0.014,0.026
	l0.004,0.021l0.039,0.043c0.003,0.043,0.02,0.119,0.053,0.151c0.014,0.014,0.037,0.021,0.051,0.033
	c0.012,0.012,0.018,0.033,0.03,0.045c0.085,0.084,0.283-0.032,0.393,0.143c-0.04,0.199-0.103,0.444-0.313,0.524
	c-0.134-0.038-0.138-0.134-0.248-0.179l-0.065,0.023c-0.01,0.049-0.082,0.098-0.086,0.133l-0.026,0.008
	c0.024,0.018,0.057,0.064,0.055,0.097c-0.072,0.062-0.271,0.28-0.369,0.277c-0.021-0.013-0.062-0.02-0.087-0.014
	c-0.021,0.028-0.034,0.087-0.026,0.122c-0.024,0.086-0.197,0.168-0.271,0.206l-0.031-0.006l-0.018,0.076
	c-0.061,0.037-0.131,0.075-0.199,0.097c-0.012,0.034-0.112,0.118-0.14,0.132c-0.042,0.023-0.105,0.027-0.146,0.053
	c-0.036,0.022-0.062,0.076-0.1,0.101c-0.086,0.057-0.211,0.08-0.312,0.094c-0.008,0.002-0.046,0-0.052,0.002
	c-0.035,0.015-0.067,0.044-0.104,0.062c-0.135,0.062-0.28,0.094-0.422,0.134c-0.03,0.008-0.06,0.027-0.091,0.034
	c-0.078,0.018-0.16,0.003-0.238,0.009c-0.036,0.003-0.064,0.023-0.13,0.019l-0.025,0.037l-0.049,0.076
	c-0.06,0.056-0.139,0.05-0.182,0.148l-0.026-0.005l-0.006,0.017l-0.022,0.014c-0.039-0.002-0.133-0.005-0.159-0.039l0.021-0.062
	l-0.022-0.055l-0.034-0.001c-0.004,0.004-0.037,0.03-0.038,0.032c-0.01,0.019-0.113,0.242-0.106,0.266
	c-0.029,0.071-0.162,0.14-0.228,0.164c-0.035,0.013-0.087,0.009-0.126,0.017l-0.036-0.019c-0.065,0.107-0.091,0.226-0.163,0.33
	l0.097,0.048l0.081-0.037l0.063-0.1c0.085-0.022,0.208-0.014,0.291,0.015l0.021,0.066l-0.056,0.164l0.028,0.061
	c0.013-0.022,0.034-0.072,0.029-0.1c0.066-0.096,0.273-0.025,0.359-0.02c0.091,0.005,0.175-0.027,0.265,0.011
	c0,0.014,0.003,0.04,0.011,0.053l0.024,0.018l0.027-0.036c0.02,0.001,0.049-0.026,0.059-0.041c0.079,0,0.194-0.013,0.27,0.002
	c0.09,0.017,0.321,0.087,0.408,0.12c0.048,0.02,0.185,0.112,0.204,0.168l-0.01,0.071l-0.062,0.05l0.046-0.009
	c0.027,0.036,0.069,0.066,0.078,0.114c0-0.026,0.013-0.085,0.037-0.102c0.111,0.025,0.201-0.032,0.314,0.004l0.011,0.051
	l0.031-0.047l0.039,0.05l-0.011-0.098l-0.035-0.039l-0.028-0.003l-0.01-0.033c0.027-0.096,0.095-0.136,0.099-0.258
	c0.003-0.082-0.033-0.111,0.01-0.221c0.038-0.005,0.082-0.017,0.12-0.019c0.009,0,0.042,0.011,0.054,0.012
	c0.146,0.011,0.295-0.008,0.441,0.003l0.036,0.028c-0.016,0.02-0.056,0.036-0.081,0.038l0.096,0.01l0.062,0.051l0.071,0.003
	c0.037,0.028,0.095,0.075,0.081,0.13l0.031,0.015l0.028-0.032c-0.001-0.044,0.032-0.084,0.036-0.13l0.064-0.007l0.025,0.029
	l0.018-0.029c0.07-0.019,0.201,0.029,0.258,0.065c0.018,0.049-0.012,0.074-0.022,0.115c-0.007,0.028,0.008,0.048-0.017,0.081
	l0.019,0.058c-0.007,0.035-0.036,0.097-0.066,0.12l-0.005,0.033c0.039-0.03,0.127-0.008,0.17,0.009
	c0.013,0.026,0.029,0.052,0.045,0.076l0.11,0.053l-0.017,0.126l0.045,0.042c0.002,0.021,0.008,0.068,0.019,0.088l0.028-0.009
	l-0.012,0.034l0.023,0.023l-0.002,0.017l0.027,0.027l0.021-0.017c0.016-0.024-0.004-0.075-0.016-0.099l0.029-0.046l-0.019-0.029
	l0.001-0.03l0.039-0.034c0.001-0.024,0.006-0.05,0.013-0.073c0.054-0.066,0.227-0.132,0.282-0.038
	c0.006,0.021,0.008,0.05,0.002,0.071l0.02,0.029l0.024-0.012l0.019-0.031c-0.008-0.046-0.023-0.188,0.006-0.229
	c-0.02-0.064-0.049-0.154-0.02-0.222c0.064-0.067,0.217-0.065,0.293-0.024l0.007,0.035l-0.02,0.055
	c0.025,0.02,0.042,0.073,0.04,0.104l0.057-0.025l0.017,0.019l0.002,0.063l-0.016,0.021c0.003,0.017,0.011,0.043,0.011,0.06
	c0,0.015-0.012,0.032-0.013,0.048c-0.005,0.058,0.007,0.127,0.013,0.185c0.012-0.022,0.045-0.06,0.071-0.066
	c0.118,0.075,0.177,0.124,0.144,0.261c-0.007,0.032-0.025,0.062-0.027,0.096l-0.014,0.005c-0.021,0.031-0.021,0.07-0.036,0.104
	c-0.021,0.047-0.085,0.082-0.126,0.111l-0.014,0.064l0.031-0.028l0.039,0.006c0.018,0.015,0.035,0.047,0.039,0.069
	c0.002-0.002,0.017-0.013,0.017-0.015c0.019-0.036,0.05-0.117,0.085-0.14c0.029-0.018,0.053-0.007,0.08-0.052l-0.025-0.084
	c0.014-0.049,0.035-0.098,0.021-0.147l0.117-0.06l0.007-0.076l-0.072-0.082c0.031-0.094,0.082-0.201,0.093-0.299
	c-0.019-0.01-0.036-0.05-0.04-0.069c0.013-0.021,0.024-0.062,0.02-0.089l-0.063-0.087l0.057-0.134
	c-0.001-0.04-0.048-0.106-0.073-0.133l0.045-0.09l-0.027-0.087c0.026-0.027,0.043-0.086,0.04-0.123l0.034-0.017
	c0.004-0.049,0.01-0.106,0.002-0.156l0.02-0.006l0.025-0.062c0.076,0.006,0.072-0.076,0.242-0.025
	c0.059,0.089,0.055,0.167-0.002,0.253c0.008,0.029-0.006,0.077-0.025,0.1l0.078,0.066l-0.018,0.017
	c0.026,0.027,0.043,0.075,0.062,0.109l-0.011,0.061l0.025,0.047l-0.021,0.054l0.025,0.075c0.039,0.009,0.077,0.013,0.114-0.003
	l-0.001,0.014c0.011,0.01,0.053,0.008,0.065,0.006l0.14-0.109c0.146,0.024,0.393,0.094,0.43,0.27
	c-0.006,0.09-0.059,0.17-0.137,0.214l0.044,0.104l-0.063,0.082c0.009,0.018-0.004,0.059-0.012,0.074l0.032,0.033
	c-0.03,0.05-0.068,0.096-0.099,0.146c-0.01,0.02-0.014,0.05-0.026,0.068c-0.015,0.021-0.044,0.044-0.063,0.062
	c0.023,0.06,0.057,0.126,0.074,0.188c0.008,0.026-0.008,0.07-0.002,0.102c-0.035,0.05-0.084,0.104-0.115,0.158
	c-0.041,0.073-0.027,0.124-0.111,0.218c-0.031,0.145,0.113,0.242-0.039,0.468l-0.062,0.043l-0.014,0.044l0.006,0.026l0.054,0.051
	l0.022-0.007l-0.012-0.024l0.021-0.013l0.013-0.039c0.047-0.002,0.134-0.009,0.17,0.024l0.05-0.017l-0.031-0.03l0.02-0.04
	l-0.016-0.047l0.041-0.034v-0.029c0.012,0.006,0.033,0.011,0.043,0.006l0.035,0.02l0.026-0.008l-0.026-0.034l0.016-0.053l0.045,0.01
	l0.034-0.014l0.042,0.025l0.028-0.013l0.038,0.017c0.057-0.031,0.043-0.114,0.102-0.156c-0.017-0.039-0.045-0.078-0.071-0.11
	l-0.085-0.012c0.002-0.069,0.012-0.136,0.066-0.186c0.042-0.023,0.107-0.004,0.142,0.026c0.019,0.054,0.075,0.121,0.12,0.153
	c0.01-0.04,0.036-0.09,0.066-0.118h0.083l0.035,0.044l0.005,0.043c0.017,0.008,0.033,0.036,0.035,0.053
	c-0.003,0.036-0.02,0.076-0.035,0.107l0.019,0.046l-0.015,0.061l0.02,0.029c0.047-0.009,0.154-0.013,0.195,0.018
	c-0.021-0.021-0.07-0.062-0.07-0.094c0.009-0.039,0.021-0.08,0.04-0.115l0.024-0.012c-0.005-0.052,0.023-0.114,0.074-0.132
	l-0.044-0.062c0.032-0.101,0.03-0.217,0.072-0.312l-0.051-0.055c-0.007-0.029-0.009-0.066-0.005-0.095l0.057-0.057
	c-0.029-0.09-0.129-0.159-0.14-0.224c0.028-0.028,0.035-0.11,0.031-0.146l-0.071-0.135c0.033-0.059,0.075-0.116,0.117-0.169
	l0.076-0.01l0.047-0.195l-0.092-0.082l-0.004-0.106c0.049-0.054,0.092-0.13,0.059-0.204l-0.055-0.039l-0.004-0.052l0.035-0.015
	l-0.018-0.06l-0.039-0.015l-0.002-0.095c0.044-0.072,0.109-0.135,0.19-0.163c0.056,0.005,0.12,0.029,0.17,0.057
	c0.017,0.067,0.067,0.195,0.149,0.207c0.055-0.048,0.072-0.125,0.142-0.153c0.075,0.001,0.185,0.015,0.247,0.057
	c0.019,0.046,0.029,0.142,0.023,0.188c-0.005,0.025-0.023,0.057-0.032,0.081c-0.009,0.031-0.011,0.066-0.021,0.097
	c-0.025,0.071-0.069,0.139-0.091,0.213c-0.004,0.013-0.008,0.061-0.012,0.069c-0.016,0.037-0.049,0.078-0.069,0.112
	c-0.003,0.101,0.058,0.257,0.142,0.317c-0.013,0.04-0.021,0.132,0.002,0.172l0.026,0.018c0.157-0.129,0.075-0.32,0.327-0.346
	c0.018-0.044,0.04-0.091,0.053-0.137c0.03-0.104-0.015-0.162,0.133-0.21l-0.008-0.024c0.055-0.103,0.111-0.244,0.184-0.331
	l0.133-0.03l0.021-0.038c0.118-0.066,0.112,0.001,0.199-0.008l0.021-0.012c0.001-0.027-0.021-0.045-0.017-0.073l-0.017-0.011
	L84.605,74.912z M133.305-2.131l-0.017,0.113l-0.037,0.091l-0.135,0.058l-0.081,0.003l-0.072-0.014l-0.082,0.083l-0.023,0.034
	l-0.135,0.205l-0.068,0.309l-0.098,0.227L132.5-0.655l0.034,0.121l0.039,0.015l0.04-0.015l-0.017,0.107l0.015,0.214l0.081,0.082
	l0.035,0.004l0.041,0.076l0.056-0.002l0.057,0.087l0.009,0.036l-0.085-0.032l-0.061,0.026l-0.037,0.091l-0.17-0.098l-0.397,0.098
	l-0.088,0.01l-0.175,0.191l-0.065,0.148l-0.054-0.018l-0.066,0.04l-0.133,0.346l-0.069,0.271l-0.021,0.081l-0.05,0.215l-0.021,0.253
	l0.015,0.076l0.021,0.069l-0.037,0.088l0.007,0.376l0.097,0.106l-0.056,0.179l-0.013,0.13l-0.016,0.128l0.039,0.129l-0.049,0.112
	l0.022,0.085l0.017,0.264l0.07,0.089l0.049,0.001l0.103,0.101l0.086,0.003l0.014,0.047l-0.017,0.152l0.056,0.154l0.003,0.139
	l-0.035,0.111l0.018,0.137l-0.044,0.14l-0.131-0.026l-0.092,0.076l-0.181-0.051l-0.136,0.052l-0.152-0.05l-0.104,0.058l-0.12,0.081
	l-0.129-0.053l-0.088,0.109l-0.129,0.085l-0.075,0.115l0.018,0.031l-0.113-0.082l-0.077-0.088l-0.128,0.052l-0.09-0.187l-0.08-0.048
	l-0.066-0.072l-0.13,0.048l-0.213,0.018l-0.288,0.139l-0.168,0.171l-0.439-0.043l-0.147-0.082l-0.071-0.171l-0.111-0.101
	l-0.131-0.01l-0.227,0.031l-0.19,0.123l-0.155,0.157l-0.334,0.18l-0.209,0.016l-0.215,0.071l-0.281,0.217l-0.066,0.132l-0.062,0.056
	l-0.031,0.069l-0.075,0.078l-0.152,0.185l-0.167,0.11l0.009,0.077l-0.034,0.029l-0.076,0.111l-0.084,0.079l-0.109,0.103l0.005,0.114
	l-0.037,0.031l-0.169,0.006l-0.057-0.016l-0.064,0.004l-0.062,0.051l-0.052-0.008l-0.055-0.042l-0.062-0.054l-0.075-0.007
	l-0.139,0.059l-0.05-0.066l-0.047-0.079l-0.122-0.028l-0.062-0.047l-0.203-0.031l-0.091-0.021L124.32,6.11l-0.05-0.068l-0.14-0.061
	l-0.11-0.01l-0.118,0.02l-0.145,0.118h-0.208l-0.208-0.118l-0.183,0.034l-0.117-0.025l-0.115,0.05l-0.085,0.092l-0.106,0.152
	l-0.15,0.076l-0.081,0.01l-0.1,0.066l-0.054,0.093l-0.092,0.08l-0.133,0.091l-0.173,0.07l-0.126,0.193l-0.137,0.364l-0.041,0.091
	l-0.01,0.084l0.053,0.077l0.085,0.155l-0.01,0.065l0.049,0.07l-0.036,0.04l-0.099-0.066l-0.068-0.043l-0.211,0.126l-0.188,0.072
	l-0.053-0.02l0.005-0.052l0.088-0.028l0.203-0.272l0.039-0.084l-0.043-0.043l-0.077-0.08h-0.06l0.093-0.157l0.104-0.056l0.072-0.165
	l0.041-0.161l-0.066-0.185l-0.097-0.17l0.008-0.217l0.07-0.211l0.128-0.101l0.203-0.097l0.194-0.173l0.167-0.184l0.133-0.245
	l0.128-0.098l0.088-0.039l0.093,0.003l0.086,0.056l0.129-0.058l0.025,0.048l0.122,0.071l0.094,0.037l0.093-0.003l0.186-0.118
	l0.183-0.208l0.115-0.342l0.024-0.309l-0.066-0.239l-0.124-0.111l-0.021-0.056l0.018-0.112l-0.147-0.126l-0.14-0.12l-0.06-0.141
	l0.076-0.126l-0.064-0.097l-0.077-0.014h-0.279l-0.101,0.029l-0.07-0.012l-0.066,0.042l-0.045,0.01l-0.054,0.067l-0.115,0.033
	l-0.192,0.004l-0.085,0.049l-0.159-0.015l0.071,0.034l0.005,0.036l0.041,0.05l0.14,0.097l0.048,0.007l0.092-0.103l0.068-0.046
	L122.49,3.5l0.06,0.033l0.05-0.004l0.036-0.041l0.025-0.109l0.041-0.085l0.1-0.017l0.324,0.03l0.067,0.021l-0.024,0.062
	l-0.075,0.055l-0.072,0.026l-0.079,0.058l0.013,0.044L123,3.607l0.071-0.033l0.085,0.058l0.073,0.006l-0.07,0.021l-0.065,0.096
	h-0.025l-0.044-0.045L122.955,3.7l-0.213-0.021l-0.136-0.02l-0.116,0.104l-0.083,0.026l-0.223-0.066l-0.147-0.149l-0.181-0.123
	l-0.058-0.093l-0.143-0.15l-0.104-0.098l-0.102-0.058l-0.032-0.112l0.115-0.447l0.03-0.229l-0.066-0.084l-0.101-0.068l-0.068-0.264
	l0.22-0.12l-0.098-0.281l0.08,0.001l0.04-0.12l0.119-0.041l0.06,0.12l-0.062,0.342l-0.08-0.021l0.119,0.322l0.274,0.137l0.12,0.05
	l0.133-0.003l0.267,0.042l0.12-0.06l0.05,0.064l0.07,0.077l0.143,0.049l0.158-0.095l0.184-0.069l0.079,0.044l0.106-0.029
	l0.111,0.074l0.193,0.021l0.139-0.006l0.243-0.147l0.101-0.089l0.177-0.124l0.118-0.193l0.035-0.11l-0.012-0.094l-0.067-0.191
	l-0.045-0.046l0.062-0.015l-0.026-0.025l0.109-0.046l0.131-0.026l0.247-0.072l0.073,0.089l0.148,0.073l0.182-0.027l0.226-0.006
	l0.214-0.038l0.173,0.02l0.204-0.028l0.568-0.204l0.374-0.184l0.128-0.076l0.152-0.146l0.198-0.202l0.122-0.154l0.295-0.301
	l0.111-0.162l-0.031-0.205l0.029-0.182l-0.018-0.054l-0.044,0.022l-0.078-0.081l0.089-0.165l0.033-0.121l-0.078-0.166l0.073-0.208
	l-0.014-0.139l-0.079-0.002L128.08-1.6l0.16-0.121l0.027-0.042l0.052-0.039l0.064-0.041l0.071-0.081l0.068-0.07l0.037-0.046
	l0.08-0.06l0.057-0.072l0.023-0.028l0.184-0.458L128.9-3.083l-0.117-0.205l-0.117-0.075l-0.021-0.085l0.092-0.142l0.043-0.196
	l0.046-0.038l0.005-0.06l0.047-0.026l0.013-0.131l-0.132-0.246l0.004-0.156l-0.068-0.205l0.144-0.012l0.177-0.106l0.113-0.135
	l0.021-0.113l-0.032-0.032l-0.078-0.077l-0.021-0.083h0.079l0.056-0.042l0.091-0.079l0.091-0.1l0.265-0.207l0.258-0.026l0.138-0.036
	l0.144-0.106l0.082-0.117l0.01-0.163l0.022-0.045l0.076-0.099l0.051-0.095l0.059-0.054l0.051-0.103l0.021-0.114l0.056-0.095
	l0.04,0.046l-0.027,0.08l0.015,0.052l0.016,0.097l-0.046,0.06l0.037,0.06l0.153,0.136l0.237,0.164l0.153,0.069l0.188,0.029
	l0.181-0.041l0.08-0.103l0.158,0.127l0.08,0.078l0.076,0.101l0.057,0.217l-0.044,0.07l-0.083,0.079l-0.058-0.014l-0.04,0.188
	l-0.028,0.263l0.017,0.186l-0.04,0.192l-0.006,0.117l0.036,0.076l0.045-0.021l0.025,0.035l-0.038,0.127l-0.001,0.162l0.035,0.278
	l0.096,0.331l0.101,0.237l0.13,0.165l0.045,0.018l0.088,0.094l0.063-0.021l0.105,0.025l0.043,0.087l0.054,0.02l0.063,0.112
	l0.199,0.112l0.079,0.089l0.068,0.002l0.146,0.076l0.065,0.162l0.062-0.002L133.305-2.131z"/>
</svg>
