<?xml version="1.0" encoding="utf-8"?>
<!-- Generator: Adobe Illustrator 16.0.4, SVG Export Plug-In . SVG Version: 6.00 Build 0)  -->
<svg version="1.2" baseProfile="tiny" id="Layer_1" xmlns="http://www.w3.org/2000/svg" xmlns:xlink="http://www.w3.org/1999/xlink"
	 x="0px" y="0px" width="153px" height="64px" viewBox="0 0 153 64" xml:space="preserve">
<title>US-Mainland</title>
<desc>Created with Sketch.</desc>
<rect x="-208.783" y="-680" fill="none" width="1440" height="1024"/>
<path id="path106" fill="#BAC9CF" d="M122.191-11.166v0.04l-0.161,0.159l-0.077,0.12l-0.082,0.08l-0.039,0.08l-0.279,0.837
	l-0.159-0.239l-0.041-0.12v-0.12l0.041-0.12v-0.239l-0.079,0.119l-0.041,0.12l-0.08,0.12l-0.038,0.12l0.079,0.239l0.039,0.08
	l0.12,0.359l-0.32,0.319l-0.118,0.08l-0.08,0.04l-0.079,0.08l-0.121,0.08l-0.079,0.04l-0.12,0.08l-0.118,0.04h-0.12l-0.121,0.04
	l-0.159,0.04l-0.238,0.079l-0.159,0.479L119.4-7.976l-0.121,0.08l-0.079,0.04l-0.12,0.08l-0.079,0.08l-0.119,0.08l-0.081,0.04
	l-0.118,0.08l-0.121-0.039h-0.12l-0.118-0.041h-0.121l-0.118-0.04l0.039,0.119l0.041,0.08l0.038,0.12l0.041,0.08l-0.079,0.119
	l-0.041,0.12l-0.08,0.08l-0.118,0.08l-0.081,0.04l-0.08,0.08l-0.118,0.079h-0.12l-0.359,0.12h-0.279l-0.08,0.04l-0.118,0.041
	l-0.2,0.199l-0.238,0.08l-0.08,0.08l-0.12,0.04l-0.12-0.04h-0.121l-0.238-0.08h-0.118l-0.12-0.04h-0.28l-0.118,0.04l-0.159,0.04
	l0.118,0.08l0.359,0.121l0.28,0.279l-0.042,0.12v0.12l-0.038,0.12l-0.041,0.08l-0.079,0.08l-0.08,0.04l-0.121,0.08l-0.117,0.04
	h-0.121l-0.038-0.12l-0.041-0.08l-0.12-0.358l-0.119,0.08l-0.04,0.16l-0.121,0.08l-0.077-0.08l-0.082-0.12l-0.079-0.08l-0.038-0.12
	l-0.162-0.159v0.319l0.041,0.12l0.041,0.08l0.08,0.239l0.158,0.16l0.16,0.119l0.04,0.16l-0.159,0.159l-0.082,0.12l-0.079,0.08
	l-0.159,0.08l-0.118,0.04l-0.161,0.04l-0.039,0.12l-0.079,0.119v0.08l0.038,0.119l-0.08,0.081l-0.038,0.12l-0.081,0.12l-0.039,0.08
	l-0.12,0.08l-0.119,0.04l-0.12,0.08l-0.238,0.08h-0.159l-0.159,0.08l0.038,0.08l0.039,0.119l0.082,0.08l0.079,0.04v0.16l-0.161,0.16
	l-0.159,0.04h-0.159l-0.08,0.12l-0.079,0.08l0.039,0.12l0.04,0.08l0.08,0.12v0.199l-0.12,0.04l-0.119,0.08l-0.119,0.041l-0.039,0.08
	l-0.041,0.119l0.159,0.041l0.159-0.041l0.082,0.041l-0.082,0.08l-0.039,0.119l-0.279,0.279l-0.039,0.12l-0.08,0.12l-0.04,0.08
	l-0.159,0.04l-0.239,0.08v0.08l0.119,0.081l0.12,0.039l0.041,0.081l0.158,0.159l-0.081,0.12l-0.159,0.16l-0.079,0.12l-0.039,0.08
	h-0.12l-0.121-0.04l-0.159-0.12v0.16l-0.079,0.239l0.041,0.08v0.2l-0.041,0.12v0.08l-0.159,0.479v0.119l-0.08,0.12l-0.04,0.08v0.121
	l0.04,0.159v0.239l0.039,0.12v0.119l0.08,0.12l0.04,0.12l0.041,0.08l0.08,0.119v0.12l0.038,0.12v0.12l0.041,0.12v0.119l0.039,0.12
	v0.12l0.041,0.119v0.12l0.038,0.12v0.119l0.08,0.24v0.119l0.041,0.12v0.12l0.079,0.239l0.041,0.08l0.118,0.359v0.12l0.041,0.08
	l0.041,0.12v0.12l0.077,0.239V6.86l0.08,0.238v0.12l0.041,0.119l0.04,0.08v0.12l0.08,0.239v0.08l0.118,0.358l0.04,0.081l0.08,0.12
	l0.039,0.12l0.04,0.08l0.121,0.358l0.038,0.08l0.08,0.239l0.041,0.081l0.079,0.239l0.08,0.12l0.041,0.08l0.079,0.239l0.08,0.12
	l0.038,0.08l0.082,0.24l0.077,0.119l0.041,0.081l0.041,0.119l0.079,0.12l0.039,0.119l0.041,0.08l0.039,0.12l0.079,0.12l0.08,0.239
	l0.04,0.08l0.079,0.121l0.08,0.08l0.041,0.12l0.08,0.08l0.038,0.119l0.082,0.12l0.077,0.08l0.041,0.119l0.08,0.08l0.041,0.12
	l0.079,0.08l0.079,0.121l0.041,0.079l0.077,0.12l0.042,0.08l0.079,0.12l0.04,0.12l0.08,0.08l0.079,0.12l0.041,0.08l0.08,0.12
	l0.038,0.08l0.08,0.12l0.079,0.08l0.041,0.12l0.08,0.119l0.038,0.12l0.082,0.12l-0.082,0.08l-0.08,0.12l-0.038,0.12l-0.041,0.08
	v0.12l-0.038,0.12v0.678l0.038,0.12v0.12l0.159,0.479l0.041,0.08l0.118,0.358l0.041,0.08l0.041,0.12l0.08,0.119l0.038,0.12
	l0.041,0.08l-0.121-0.08l-0.079-0.08l-0.041-0.12l-0.077-0.119l-0.041-0.12l-0.041-0.079l-0.08-0.239l-0.079-0.12l-0.118-0.359
	l-0.041-0.08l-0.038-0.12v-0.399l-0.041-0.119v-0.239l0.041-0.12v-0.438l0.038-0.12v-0.239l-0.118,0.04l-0.041,0.119l-0.04,0.08
	v0.12l-0.039,0.16v0.119l-0.041,0.12l-0.039,0.08l-0.079,0.08l-0.2-0.599v-0.16l0.08-0.239l0.08-0.08l0.04-0.12l-0.04-0.12
	l-0.119-0.04l-0.082-0.08l-0.117-0.04l-0.041-0.12V13.44l0.041-0.12l-0.121-0.08l-0.08-0.04h-0.12v0.12l0.041,0.12v0.12l0.041,0.159
	v0.12l0.038,0.12l0.08,0.119l0.041,0.12v0.12l0.039,0.12v0.119l0.079,0.24v0.12l0.041,0.119v0.08l0.079,0.12l0.041,0.12l0.077,0.119
	l0.042,0.12l0.079,0.08l0.24,0.719l0.039,0.079l0.079,0.239l0.08,0.12l0.041,0.08l0.079,0.239l0.038,0.08l0.121,0.359l0.041,0.08
	l0.077,0.239l0.082,0.12l0.038,0.08l0.08,0.24l0.041,0.08l0.12,0.359l0.039,0.08l0.08,0.24l0.079,0.119l0.041,0.08l0.079,0.239
	l0.039,0.08l0.12,0.359l0.041,0.08l0.118,0.359l0.08,0.08l0.079,0.239l0.041,0.08l0.12,0.359l0.078,0.08l0.04,0.08l0.08,0.08
	l0.079,0.12l0.08,0.08l0.041,0.08l0.079,0.12l0.041,0.08l0.159,0.479v0.12l0.079,0.239v0.12l0.039,0.119v0.12l0.041,0.12v0.758
	l0.04,0.119v0.359l-0.04,0.12v0.24l-0.041,0.12v0.12l-0.039,0.12v0.12l-0.04,0.119v0.2l-0.039,0.119v0.12l-0.041,0.12v0.119
	l-0.039,0.12v0.239l-0.04,0.12v0.239l-0.039,0.12v0.717l-0.041,0.12v0.479l-0.039-0.08l-0.04-0.16h-0.08l-0.079,0.24l-0.08,0.119
	l-0.041,0.08l-0.079,0.24l-0.08,0.119l-0.038,0.12l-0.082,0.081l-0.079,0.119l-0.039,0.12l-0.08,0.079v0.12l-0.04,0.12v0.279
	l-0.039,0.12v0.12l-0.041,0.119v0.12l-0.12,0.359l-0.079,0.12l-0.08,0.08l-0.079,0.119l-0.119,0.081l-0.241,0.239h-0.359
	l-0.117,0.041l-0.082,0.039l-0.118,0.08l-0.12,0.041l-0.08,0.039l-0.118,0.041l-0.12,0.08l-0.08,0.039l-0.12-0.039h-0.118
	l-0.121-0.04h-0.12l-0.118-0.04l-0.718,0.239h-0.121l-0.118-0.04h-0.2l-0.079-0.081l-0.041-0.119l-0.039-0.08l-0.079-0.081
	l-0.041-0.119v-0.08l0.041-0.119l0.038-0.081l0.08-0.12l0.082-0.04h0.077l0.082,0.08l0.118,0.04l0.238,0.24l0.121,0.04l0.079,0.081
	l0.041-0.121l0.079-0.079l-0.079-0.08l-0.041-0.081l-0.079-0.08l-0.121-0.04l-0.117-0.08l-0.121-0.04l-0.08-0.04l-0.12-0.04
	l-0.077-0.04l-0.082-0.239l-0.08-0.12l-0.038-0.12l-0.041-0.08l-0.08-0.12l-0.079-0.24l-0.08-0.08l-0.04-0.12l-0.079-0.12
	l-0.08-0.08l-0.039-0.079l-0.081-0.12l-0.08-0.08l-0.079-0.12l-0.039-0.08l-0.08-0.081l-0.04-0.159v-0.119l-0.039-0.121v-0.119
	l-0.959-0.319l-0.118-0.08l-0.08-0.04l-0.12-0.08l-0.079-0.08l-0.121-0.04l-0.079-0.08l-0.118-0.08l-0.041-0.08l-0.08-0.12
	l-0.038-0.12l-0.082-0.081l-0.039-0.119l-0.04-0.08l-0.08-0.12l-0.079-0.239v-0.08l-0.039-0.12v-0.12l-0.041-0.119v-0.12
	l-0.039-0.12v-0.12l-0.041-0.08v-0.12l-0.04-0.119v-0.12l-0.039-0.12l-0.08-0.04l-0.119-0.08l-0.08-0.04l-0.159-0.119l0.08-0.12
	l0.04-0.12l0.079-0.081l0.04-0.12l0.079-0.119l0.04-0.08l0.08-0.08l0.079-0.12l0.041-0.08l0.08-0.079l-0.24,0.079l-0.278,0.28
	l-0.04,0.119l-0.04,0.08l-0.081,0.12l-0.159,0.081l-0.159-0.081l-0.038-0.12v-0.119l-0.041-0.08l-0.041-0.12v-0.119l-0.08-0.239
	v-0.12l0.041-0.12v-0.598l0.039-0.12l0.041-0.08l0.079-0.08l0.041-0.08l0.08-0.12h-0.4l-0.08,0.04l-0.118,0.04l-0.081,0.04h-0.119
	l0.04,0.12v0.119l0.04,0.08l-0.04,0.119l-0.04,0.08l-0.119-0.04h-0.159l-0.121-0.08l-0.118-0.04l-0.159-0.16l-0.041-0.08
	l-0.079-0.08l-0.159-0.239l-0.041-0.08l-0.159-0.24l-0.08-0.08l-0.079-0.239l-0.08-0.12l-0.04-0.08l-0.039-0.119l-0.082-0.12
	l-0.038-0.12l-0.039-0.08l-0.041-0.12l-0.079-0.119l-0.041-0.12l-0.038-0.08l-0.08-0.119l-0.082-0.239l-0.08-0.08l-0.079-0.12
	l-0.079-0.16l-0.08-0.08l-0.12-0.08l-0.079-0.08l0.119-0.08l0.121-0.04h0.118l0.079-0.119l0.08-0.08l0.082-0.12l0.039-0.08
	l0.079-0.12l0.079-0.08l0.041-0.119l0.16-0.16l0.079-0.12l0.279-0.279l0.079-0.239l0.041-0.08v-0.159l-0.12-0.08l-0.08-0.12
	l-0.079,0.08l-0.08,0.04l-0.079,0.08l-0.12-0.08l-0.08-0.08l-0.041-0.12l-0.079-0.12l-0.079-0.08l-0.121-0.08l-0.159-0.04
	l-0.159,0.08l0.041,0.12l0.159,0.24l0.079,0.04l0.08,0.08v0.12l-0.041,0.12v0.119l-0.039,0.12l-0.041,0.16l-0.079,0.08l-0.118,0.079
	l-0.24-0.079l-0.119,0.119l-0.079-0.08l-0.08-0.04l-0.161-0.24l-0.039-0.12l-0.078-0.119l-0.042-0.12l0.042-0.12v-0.119l0.04-0.12
	l0.038-0.08v-0.12l0.08-0.239v-0.119l0.041-0.12v-0.12l0.079-0.239v-0.12l0.08-0.239v-0.12l0.238-0.717l0.039-0.081l0.2-0.598V13.36
	l0.041-0.12v-0.718l-0.08-0.08l-0.161-0.239l-0.039-0.08l-0.159-0.239l-0.079-0.08l-0.041-0.121l-0.118-0.08l-0.159-0.159
	l-0.121-0.08l-0.159-0.16l-0.119-0.08l-0.08-0.08l-0.121-0.08l-0.158-0.16l-0.121-0.08l-0.159-0.16l-0.118-0.079l-0.081-0.08
	l-0.119-0.08l-0.159-0.16l-0.12-0.08l-0.159-0.16l-0.12-0.08l-0.08-0.08l-0.12-0.08l-0.08-0.04l-0.079-0.12l-0.08-0.08l-0.038-0.121
	l-0.161-0.159l-0.079-0.12l-0.159-0.16l-0.04-0.119l-0.158-0.159l-0.082-0.12l-0.159-0.159l-0.038-0.121l-0.159-0.159l-0.082-0.12
	l-0.159-0.159l-0.039-0.12l-0.081-0.08l-0.078-0.119l-0.16-0.16l-0.08-0.12l-0.079-0.04l-0.119-0.081l-0.12-0.039l-0.12-0.08
	l-0.08-0.041L99.7,6.819l-0.12-0.04L99.459,6.7L99.38,6.66l-0.12-0.08l-0.119-0.04l-0.119-0.08l-0.08-0.04l-0.121-0.08l-0.117-0.04
	h-0.121l-0.118,0.04h-0.12l-0.118,0.04h-0.162l-0.118,0.04h-0.12l-0.121,0.04h-0.118L97.467,6.5l-0.24,0.16l-0.078,0.239
	l0.038,0.159l0.04,0.12l-0.119,0.12h-0.239l-0.079-0.04l-0.121,0.04H96.55l-0.12,0.04h-0.121l-0.079,0.08l-0.239,0.08l-0.078,0.08
	l-0.121,0.04l-0.119,0.08l-0.081,0.04l-0.118,0.08l-0.121,0.04l-0.117,0.08l-0.08,0.04h-0.438l-0.241,0.08l-0.118,0.08l-0.12,0.04
	l-0.159,0.081h-0.241l-0.159,0.04h-0.239l-0.119,0.04h-0.119l-0.238,0.08h-0.12l-0.121,0.04l-0.159-0.04l-0.12-0.04l-0.08-0.119
	l-0.038-0.12l-0.08-0.12V7.617l0.08,0.12l0.038,0.08l0.041,0.119l0.08,0.08l0.079,0.04l0.039,0.08l0.12-0.08v-0.08l0.041-0.12
	l-0.041-0.12l-0.079-0.08L92.6,7.538l-0.159-0.16l-0.118-0.08l-0.08-0.08l-0.12-0.04l-0.08-0.08L91.923,7.02l-0.08-0.08l-0.119-0.08
	l-0.24-0.24l-0.119-0.08l-0.078-0.12l-0.159-0.16l-0.121-0.08l0.121,0.04h0.159l0.038-0.159l-0.159-0.16l-0.079-0.04l0.041-0.16
	l0.038-0.12l0.08-0.08l0.041-0.08l0.078-0.08h-0.119l-0.118,0.041h-0.121l-0.079,0.04l-0.121,0.08l-0.079,0.041v0.119l-0.039,0.119
	v0.081l-0.041,0.08h-0.159l-0.119-0.08l-0.081-0.081l-0.118-0.079l-0.36-0.12l-0.077-0.039l-0.121-0.08l-0.598-0.2l-0.121-0.08
	l-0.358-0.119h-0.121l-0.477-0.16h-0.121l-0.358-0.12h-0.119l0.159-0.04h0.121l0.118-0.04h0.12l0.118-0.041h0.121l0.159-0.04h0.24
	l0.159,0.04l0.238,0.08v-0.12l-0.04-0.08l-0.119-0.12l-0.358-0.12l-0.079-0.04l-0.159,0.04h-0.28l-0.12,0.04l-0.118-0.04h-0.121
	l-0.12-0.04l-0.118,0.04l-0.12,0.08l-0.121,0.04l-0.079,0.04l-0.118,0.041l-0.079,0.08l-0.08,0.04l-0.359,0.12H86.18l-0.119,0.04
	h-0.28l-0.118,0.04h-0.12l-0.118,0.04h-0.241l-0.118,0.04h-0.24l-0.119,0.04h-0.121l-0.117,0.04h-0.161l-0.118,0.04h-0.121
	l-0.12,0.04h-0.118l0.079-0.08l0.121-0.08l0.077-0.08l0.082-0.04l0.159-0.04l0.358-0.12l0.159-0.04v-0.12l0.079-0.239l-0.079-0.239
	l-0.079-0.12l-0.08,0.08l-0.08,0.041l-0.081,0.08l-0.038,0.079l-0.081,0.08l-0.078-0.08l-0.121-0.079h-0.238l-0.039,0.079v0.239
	l-0.041,0.08l-0.318,0.32l-0.041,0.08l-0.038,0.12l-0.041,0.08l-0.239,0.08H83.11l-0.24,0.08l-0.078,0.04h-0.121l-0.12,0.04
	l-0.118-0.08l0.079-0.08l0.08-0.12l0.118-0.08l-0.039-0.16l-0.12,0.04l-0.08,0.04l-0.118,0.08l-0.32,0.318l-0.08,0.12l-0.118,0.08
	h-0.24l-0.119,0.04h-0.238l-0.12,0.041h-0.359l-0.12,0.039h-0.239l-0.119,0.04h-0.239l0.12-0.12h0.359l0.238-0.08l0.08-0.04
	l0.238-0.08l-0.079-0.159l-0.039-0.12l-0.079-0.08l-0.082-0.12l-0.039-0.119h-0.2l-0.079-0.12l-0.04-0.08V3.948L80.318,3.59
	l-0.239-0.24l-0.04-0.08l-0.12,0.04l-0.278,0.837v0.08l-0.08,0.239v0.12l-0.039,0.08l-0.041,0.16l-0.04,0.12h-0.677l-0.12-0.04
	h-0.599l-0.119,0.04h-0.599l-0.159,0.04h-0.359l-0.24-0.08l-0.121-0.08l-0.478-0.16h-0.16l-0.718,0.24l-0.079,0.04l-0.121,0.04
	h-0.119l-0.239,0.08h-0.121l-0.119,0.04l-0.08-0.04h-0.24l-0.12-0.04l-0.08,0.12l-0.24,0.239l-0.08,0.119l-0.12,0.08l-0.081,0.08
	l-0.079,0.04l-0.12,0.079l-0.359,0.121l-0.119,0.08l-0.958-0.32l-0.16-0.04l-0.598-0.199l-0.239-0.239l-0.12-0.08l-0.08-0.08
	l-0.359-0.12H69.83l-0.12-0.04h-0.12l-0.159,0.16l-0.082,0.12l-0.159,0.159l-0.119,0.08l-0.041,0.119l-0.039,0.08l-0.081,0.12
	l-0.039,0.079l-0.04,0.121l-0.081,0.08l-0.04,0.119l0.08,0.04l0.119,0.08l0.081,0.08l0.12,0.04l0.079,0.08l0.121,0.08l0.239,0.08
	l0.16,0.04l0.12,0.04h0.119l0.12-0.04h0.121l0.239-0.08h0.119l0.24-0.08l0.159-0.16l0.12-0.08l0.081-0.04h0.398l0.159-0.08
	l0.12-0.08l0.079-0.08l0.08,0.041l0.241,0.08v0.159l-0.081,0.08l-0.08,0.04l-0.081,0.08l-0.08,0.04l-0.12,0.08l-0.08,0.04
	l-0.08,0.12l-0.119,0.08l0.119,0.081l0.08,0.119l0.08,0.08l0.08,0.12l0.12,0.04l0.16,0.04h0.119l0.121,0.04h0.119l0.081-0.04
	l0.079-0.239v-0.12l0.041-0.08L73.02,6.5l0.121,0.04h0.118l0.121,0.04h0.08v0.08l-0.04,0.12l0.04,0.081v0.08l0.08,0.08l0.081,0.12
	l0.039,0.08v0.438l0.04,0.08l-0.239,0.08l-0.12,0.08l-0.12,0.04H73.1l-0.119,0.04h-0.12l-0.08,0.08l-0.12,0.08l-0.079,0.079
	l0.159,0.16l-0.12,0.04l-0.08,0.04l-0.121,0.04l-0.08-0.04h-0.08l-0.119,0.04l-0.04,0.16l-0.08,0.04l-0.041,0.08l0.041,0.119
	l0.04,0.08l0.08,0.12l0.04,0.08l0.239,0.159l0.08,0.041l0.12,0.08l0.239,0.239l0.08,0.12l0.479,0.16l0.08,0.04l0.719,0.239h0.159
	l0.119-0.041l0.081,0.12l0.04,0.08l0.08,0.08l0.04,0.079l0.081,0.12l0.238,0.159l0.24,0.08v0.08l-0.04,0.119v0.08l-0.08,0.08
	l-0.121,0.04l-0.119,0.08l-0.08,0.04l-0.079,0.12l-0.041,0.159l-0.04,0.081l-0.08,0.08l-0.079-0.121l-0.081-0.08l-0.12-0.08
	l-0.079-0.08l-0.438,0.439l-0.24,0.08l0.08-0.239v-0.081l0.04-0.12l-0.079-0.12l-0.081-0.08l-0.08-0.12l-0.04-0.12l-0.08-0.08
	l-0.081-0.12l-0.159-0.16l-0.119-0.08l-0.08-0.04l-0.121-0.081l-0.12-0.04l-0.119-0.079l-0.08-0.08l-0.16-0.041l-0.12-0.04h-0.319
	l-0.239-0.08V10.01l-0.08-0.12l-0.039-0.08l-0.082-0.08l-0.119-0.04l-0.08-0.08l-1.197-0.399H69.91v0.16l0.08,0.119l0.08,0.04
	l0.121,0.04l0.118,0.08l0.081,0.08v0.478l-0.04,0.12l-0.041,0.08v0.119l-0.039,0.08v0.12l-0.04,0.08l-0.04,0.12v0.08l-0.161,0.239
	l-0.119,0.08l-0.239,0.08l-0.08-0.04l-0.08-0.08l-0.08-0.12l-0.041-0.12l-0.041-0.08l-0.078-0.239l-0.041-0.08l-0.239-0.159
	l-0.12-0.041h-0.12l-0.119-0.04h-0.359l-0.12,0.04l-0.119,0.08l-0.159,0.04l-0.041,0.08l-0.159,0.239l-0.08,0.08l-0.081,0.12
	l-0.039,0.08l-0.359,0.12l-0.359-0.12h-0.12l-0.479-0.159h-0.119l-0.239-0.08l-0.081-0.041l-0.597-0.199l-0.081-0.041l-0.479-0.159
	l0.04-0.2h0.12l0.08-0.04l0.16,0.04h0.12l0.159,0.04l-0.04-0.16l-0.079-0.12l-0.041-0.08l-0.08-0.08l-0.08-0.12l-0.08-0.08
	l-0.041-0.08l-0.08-0.239V9.252l0.04-0.08v-0.12h-0.119l-0.279,0.279l-0.479-0.159h-0.119l-0.239-0.08l-0.24-0.239l-0.081-0.12
	l-0.079-0.08l-0.081-0.12l-0.04-0.12l-0.08-0.08l-0.08-0.121l-0.08-0.079h-0.119l-0.121-0.04h-0.479l-0.04-0.08l-0.08-0.08
	l-0.079-0.119l-0.041-0.08l-0.079-0.08l-0.599,0.199l-0.08,0.04l-0.12,0.08l-0.158,0.16l-0.081,0.12l-0.119,0.119l0.08,0.08
	l0.04,0.08l0.239,0.239l-0.08,0.119l-0.239,0.08h-0.119l-0.24,0.08H60.14l-0.12,0.04h-0.12l-0.119-0.04h-0.24l-0.159-0.04h-0.239
	l-0.121-0.04h-0.239l-0.119-0.04h-0.24l-0.119-0.041h-0.24l-0.239-0.08l-0.08-0.04l-0.359-0.12l-0.081-0.08l-0.119-0.04l-0.12-0.08
	l-0.119-0.04l-0.081-0.08l-0.957-0.319l-0.08-0.04l-0.119-0.04h-0.28l-0.12-0.04h-0.239l-0.12,0.04h-0.119l-0.159,0.04h-1.317
	l-0.12,0.04H53.12l-0.08,0.04l-0.24,0.08l-0.159,0.079l-0.119-0.079l-0.081-0.08l-0.04-0.12l-0.04-0.159l0.16-0.04l0.08-0.08
	l0.119-0.08l0.041-0.12l0.079-0.08l0.04-0.12v-0.2l-0.08-0.119h-0.238l-0.08,0.08l-0.041,0.12l-0.08,0.08l-0.039,0.119l-0.081,0.12
	l-0.04,0.08l-0.08,0.119l-0.04,0.12l0.04,0.08l0.04,0.12l0.08,0.08l0.04,0.08l0.08,0.12l-0.039,0.159h-0.121l-0.119,0.04h-0.359
	l-0.12,0.04h-0.279l-0.08,0.08l-0.478,0.16l-0.081,0.08l-0.478,0.16l-0.08,0.08l-0.479,0.16l-0.08,0.08l-0.478,0.16l-0.081,0.08
	l-0.119,0.08l-0.12,0.04l-0.12,0.08l-0.081,0.04L48.334,9.93l-0.12,0.04l0.08-0.16l0.08-0.08l0.12-0.04l0.121-0.08l0.08-0.08
	l0.119-0.04l0.081-0.08l0.239-0.16l0.08-0.04l0.12-0.08l-0.239-0.08h-0.24l-0.479,0.16l-0.238-0.08l0.079-0.119l0.04-0.08
	l0.08-0.239l0.081-0.12l-0.042-0.12V8.335l-0.04-0.121V8.096h-0.438l-0.08,0.08l-0.04,0.12l-0.08,0.08l-0.08,0.12l-0.08-0.04h-0.12
	l-0.239-0.159l-0.081,0.04h-0.12l0.04,0.119v0.12l0.04,0.12v0.08l0.04,0.119v0.12l0.041,0.119v0.08l0.08,0.119l0.04,0.081
	l0.159,0.16l0.081,0.239l0.079,0.12l0.04,0.12l-0.318,0.319l-0.12,0.08l-0.24,0.24l-0.12,0.08l-0.079,0.08l-0.12,0.08l-0.159,0.159
	l-0.04,0.12v0.239l-0.041,0.12l-0.557,0.558l-0.24,0.16l-0.08,0.04l-0.24,0.16l-0.079,0.04l-0.239,0.159l-0.08,0.04l-0.24,0.159
	l-0.08,0.041l-0.119,0.079l-0.08,0.08l-0.12,0.041l-0.119,0.08l-0.08,0.08l-0.239,0.08l-0.12,0.08l-0.119,0.04l-0.08,0.08
	l-0.12,0.04l-0.159,0.159l-0.24,0.08l-0.079,0.04l-0.479,0.16l-0.08,0.04l-0.119,0.04l-0.239,0.16l-0.08,0.04l-0.12,0.08
	l-0.119,0.04l-0.081,0.08l-0.159,0.04l-0.12,0.04l0.12-0.08l0.081-0.08l0.119-0.08l0.159-0.16l0.12-0.04l0.08-0.08l0.12-0.04
	l0.08-0.08l0.079-0.041l0.12-0.08h-0.12l-0.119,0.04h-0.399l-0.239-0.08h-0.121l-0.119-0.041l-0.16-0.04h-0.438v0.12l-0.119,0.08
	l-0.121,0.041l-0.119,0.08l-0.081-0.08l-0.118-0.08L40,13.838l-0.159-0.16l-0.08-0.119l-0.08-0.16l-0.16-0.04l-0.159,0.08
	l0.079,0.12l0.04,0.08l0.08,0.239l0.08,0.08l0.04,0.119l0.04,0.08l0.04,0.12l0.08,0.08l0.079,0.239h0.12l0.24,0.08l0.119,0.08
	l-0.079,0.08l-0.36,0.239l-0.08,0.08l-0.359,0.121h-0.08l-0.239,0.08l-0.08-0.12l-0.081-0.08l-0.12-0.08l-0.159-0.159l-0.04,0.119
	l-0.04,0.16v0.12l-0.04,0.12v0.12l-0.04,0.159v0.239l-0.08,0.08l-0.08,0.04l-0.16,0.159l-0.08,0.04l-0.08-0.08l-0.08-0.04v-0.12
	l-0.04-0.08l-0.16,0.159l-0.12,0.08l-0.239,0.08h-0.239l-0.319,0.08v0.12l0.04,0.08v0.12l0.04,0.119l0.12-0.04l0.159-0.04l0.12-0.08
	l0.119-0.04l-0.159,0.478l-0.04,0.08l-0.08,0.12l-0.159,0.16l-0.04,0.08l-0.08,0.12l-0.08,0.08l-0.16,0.04l-0.24,0.08h-0.12
	l-0.119-0.04h-0.2l-0.119-0.041l-0.16,0.08l-0.12,0.08l0.08,0.12l0.079,0.08l0.08,0.12l0.041,0.08l0.08,0.08l0.079,0.12l0.081,0.08
	l0.08,0.12l0.08,0.08l-0.041,0.12l-0.039,0.08l-0.08,0.239l-0.041,0.08l-0.08,0.239v0.12l-0.039,0.08l-0.08,0.24l-0.041,0.08
	l-0.04,0.12l-0.079,0.08l-0.04,0.08l-0.08,0.12l-0.041,0.08l-0.079,0.041l-0.12,0.039h-0.199l-0.12-0.08l-0.08-0.04l-0.12-0.08
	l-0.119-0.04l-0.081-0.08l-0.119-0.04l-0.121-0.08l-0.079-0.08l-0.12-0.08l-0.08-0.08l-0.12-0.08l0.12,0.359l0.08,0.08l0.12,0.359
	l0.039,0.08l0.479,0.16h0.12l0.119,0.04l0.16,0.04l0.12,0.04v0.2l0.04,0.12v0.279l-0.159,0.239l-0.04,0.08l-0.081,0.239l-0.079,0.12
	l-0.04,0.12l0.04,0.08l0.079,0.119l0.041,0.08v0.12l0.04,0.12v0.08l0.04,0.12v0.12l0.04,0.12l0.04,0.08l0.121,0.359v0.119l0.04,0.12
	v0.239l0.039,0.119v0.12l0.04,0.121v0.239l0.041,0.08l0.12,0.359l0.079,0.12l0.04,0.08l0.08,0.119l0.04,0.12l0.039,0.08l0.08,0.12
	l0.041,0.12l0.08,0.08l0.039,0.12l0.041,0.08l0.08,0.12l0.04,0.12l0.04,0.08l0.08,0.12l0.041,0.12l0.08,0.08l0.119,0.039h0.16
	l0.039,0.081v0.438l-0.039,0.12v0.359l-0.04,0.12v0.358l-0.04,0.12v0.08l-0.121,0.359l-0.039,0.08l-0.08,0.239l-0.04,0.08
	L36.53,29.71l-0.079,0.08l-0.04,0.121l-0.08,0.119l-0.041,0.08l-0.039,0.12l-0.08,0.12l-0.041,0.12l-0.08,0.08l-0.079,0.239
	l-0.08,0.08l-0.08,0.24l-0.079,0.08l-0.08,0.239l-0.041,0.08l-0.199,0.599l-0.04,0.079l-0.119,0.36v0.119l-0.081,0.239v0.079
	l-0.079,0.24v0.119l-0.08,0.239v0.12l-0.04,0.079l-0.08,0.238v0.121l-0.079,0.238v0.12l-0.04,0.12l-0.04,0.078v0.121l-0.08,0.239
	v0.12l-0.079,0.238v0.119l-0.04,0.08v0.12l-0.04,0.121v0.238l-0.041,0.119v0.239l-0.04,0.12v0.239l-0.039,0.118v0.24l-0.04,0.081
	v0.357l-0.041,0.12v0.52l-0.04,0.118v0.359l-0.08,0.159l0.08,0.119v0.121l-0.041,0.119v0.438l-0.04,0.12v0.358l-0.04,0.119v0.359
	l-0.04,0.08v0.358l-0.041,0.121l0.041,0.117v0.72l0.04,0.079v0.599l0.04,0.119v0.239l-0.04,0.079v0.121l-0.04,0.079l-0.081,0.239
	l-0.08,0.119l-0.04,0.08l-0.08,0.12v0.118l-0.08,0.24v0.081l-0.079,0.238v0.239l0.039,0.119v0.359l0.04,0.119l0.04,0.081
	l0.041,0.118v0.121l0.08,0.238v0.119l0.079,0.24v0.12l0.04,0.119v0.238l0.04,0.081v0.358l0.041,0.119l0.04,0.08l0.079,0.12
	l0.04,0.08l0.04,0.119l0.081,0.08l0.039,0.12l0.08,0.078l0.08,0.241l0.079,0.079l0.04,0.119l0.08,0.079l0.04,0.12l0.04,0.079
	l0.079,0.121l0.16,0.159l0.079,0.119l0.32,0.319l0.118,0.079l0.161,0.159l0.119,0.079l0.319,0.321l-0.04,0.118v0.121l-0.041,0.118
	v0.199l-0.04,0.12l-0.079,0.08l-0.16,0.238v0.121l-0.04,0.079v0.121l-0.04,0.079v0.119l-0.04-0.119l-0.04-0.079l-0.04-0.121v-0.438
	l0.04-0.119v-0.12l0.04-0.079l0.079-0.12l0.04-0.079l0.04-0.121V50.13l-0.119-0.041l-0.08-0.079l-0.081-0.04l-0.159-0.161
	l-0.08-0.117l-0.159-0.16l-0.08-0.12l-0.079-0.079l-0.08-0.12l-0.08-0.08l-0.04-0.119l-0.08-0.08l-0.04-0.118l-0.08-0.121
	l-0.039-0.08l-0.08-0.119l-0.04-0.081l-0.08-0.117l-0.039-0.121l-0.081-0.08l-0.04-0.118l-0.08-0.12l-0.04-0.08l0.04,0.119v0.12
	l0.04,0.079l0.04,0.12v0.119l0.121,0.359v0.121l0.039,0.118l0.04,0.08l0.04,0.119v0.12l0.081,0.239v0.12l0.04,0.118l0.039,0.079
	l0.08,0.241l0.08,0.118l0.04,0.121l0.16,0.159l0.119,0.079l0.12,0.041l0.08,0.238v0.2l0.04,0.08l0.08,0.238l0.081,0.121l0.039,0.079
	l0.081,0.239l0.04,0.079l0.08,0.12l0.079,0.239l0.04,0.079l0.04,0.12l0.08,0.119l0.039,0.08l0.04,0.119l0.081,0.08l0.08,0.239
	l0.039,0.081l0.08,0.118l0.04,0.121l0.04,0.079l0.04,0.12l0.08,0.079l0.08,0.239l0.08,0.079l0.039,0.121v0.198l0.041,0.12v0.12
	l0.04,0.08l0.08,0.119l0.04,0.079l0.16,0.239l0.04,0.08l0.239,0.238l0.08,0.121l0.319,0.318l0.079,0.12l0.319,0.318l0.08,0.12
	l0.319,0.318l0.08,0.12l0.08,0.08l0.04,0.079l0.16,0.159l0.08,0.12l0.16,0.16l0.08,0.119l0.04,0.079l0.08,0.121l0.16,0.158
	l0.04,0.12l0.079,0.079l0.08,0.121l0.081,0.079l0.039,0.12l0.16,0.16l0.08,0.117l0.04,0.08l0.08,0.121l0.041,0.079l0.04,0.12v0.118
	l0.079,0.24l0.04,0.08v0.119l0.081,0.239l0.04,0.081v0.118l0.079,0.239v0.12l0.08,0.08l0.04,0.078l0.04,0.121l0.04,0.08l0.08,0.119
	v0.12l0.04,0.079v0.119l0.04,0.121v0.119l0.04,0.078l0.079,0.082l0.08,0.118l0.159,0.16l0.121,0.079l0.398,0.399l0.041,0.119
	l0.04,0.081l0.04,0.118l0.04,0.081l0.121,0.079l0.119,0.04l0.081,0.079l0.119,0.08l0.041,0.119l0.04,0.081l0.041,0.119l0.079,0.119
	l0.12,0.358l0.12,0.08l0.08,0.041l0.16,0.159l0.12,0.04l0.159,0.159H43.27l-0.08-0.04l-0.119-0.039l-0.12-0.08l-0.24-0.079
	l0.041,0.159l0.12,0.079l0.079,0.039l0.08,0.08l0.12,0.079l0.08,0.041l0.479,0.159l0.08,0.041l0.479,0.158h0.119l-0.119-0.079
	l-0.12-0.04l-0.239-0.159l-0.08-0.08l-0.12-0.079h0.12l0.08,0.038l0.239,0.081l0.08,0.04l0.12,0.079l0.119,0.041h0.439l0.118,0.039
	h0.679l0.08,0.04h0.479l0.318,0.318l0.12,0.04l0.318,0.319l0.24,0.079h0.12l0.239,0.08l0.08,0.041l0.12,0.039h0.119l0.12,0.04
	l0.04,0.118l0.16,0.16l0.04,0.12l0.08,0.079l0.04,0.08l0.08,0.12l0.04,0.08l0.081,0.12l0.04,0.079l0.08,0.12l0.16,0.159l0.08,0.119
	l0.039,0.08l0.081,0.119l0.079,0.08l0.08,0.119h0.199l0.081,0.04h0.558l0.08-0.04h0.12l0.119-0.039h0.2l0.121-0.041h0.08
	l0.239-0.079l0.08-0.04l0.24-0.079l0.08-0.04l0.239-0.08l0.08-0.04l0.239-0.079l0.081-0.041l0.24-0.079l0.079-0.039l0.119-0.041
	l0.081-0.079l0.119-0.04l0.08-0.039l0.12-0.081l0.24-0.079l0.079-0.04l0.48-0.159l0.079-0.041l0.12-0.038h0.358l0.121-0.041h0.837
	l0.08-0.039h0.12l0.239,0.08h0.121l0.119,0.038l0.12-0.038h0.12l0.119-0.041h0.12l0.12-0.039l0.08-0.041h0.119l0.12-0.04h0.12
	l0.239-0.079l0.08-0.081l0.12-0.038l0.12-0.08l0.119-0.04l0.04-0.08l0.081-0.08l0.039-0.118l0.041-0.082l0.08-0.079l0.08-0.039
	l0.119-0.041h0.12l0.081-0.039l0.119-0.04h0.08l0.24-0.08l0.08-0.039h0.119l0.12-0.04l0.081-0.04h0.836l0.12-0.04h0.24l0.079-0.04
	h0.12l0.12-0.039h0.08l0.119-0.04h0.359l0.159-0.039l0.321,0.317l0.118,0.08v0.2l-0.118,0.079l-0.081,0.041l-0.12,0.079l0.24,0.239
	l0.12,0.039l0.079,0.079l0.12,0.041l0.12,0.08h0.119l0.12,0.039h0.24l0.118,0.04h0.24l0.12,0.041l0.079-0.041h0.2l0.359-0.358
	l0.119-0.08l0.08-0.08l0.081-0.039l0.119-0.04l0.08-0.08l0.12-0.041l0.08-0.038l0.12-0.08l0.08-0.041v-0.477l-0.08-0.12l-0.08-0.159
	h-0.12l-0.12-0.041l-0.04-0.119l0.04-0.12l0.08-0.118l0.04-0.12l-0.04-0.16l-0.08,0.079l-0.119,0.081l-0.08,0.079l-0.12,0.041
	l-0.08,0.079h-0.12l0.04-0.161l0.119-0.119l0.12-0.079l0.08-0.04l0.12-0.039l0.08-0.081l0.119-0.039l0.081-0.04l0.119-0.08
	l0.08-0.04l0.12-0.039l0.081-0.08l0.12-0.04l0.08-0.039l0.119-0.08l0.08-0.041l0.12-0.079l0.159-0.159l0.12-0.08l0.081-0.039
	l0.08-0.081l0.119-0.04l0.08-0.078l0.119-0.041l0.24-0.239l0.08-0.119l0.08-0.08l0.12-0.079l0.318-0.318l0.08-0.121l0.081-0.079
	l0.04-0.12v-0.198l0.04-0.121v-0.239l0.04-0.119v-0.199l0.04-0.121v-0.239l0.04-0.118V59.7l0.081-0.239l0.159-0.239l0.159-0.159
	l0.08-0.041l0.159-0.158l0.12-0.08l0.159-0.159l0.081-0.16v-0.278l0.04-0.121v-0.357l-0.04-0.121v-0.797l0.04-0.12v-1.236
	l-0.04-0.119l0.04-0.12v-0.119l0.039-0.08v-0.12l0.04-0.118v-0.121l0.28-0.837l0.041-0.08l0.04-0.119v-0.12l0.159-0.478l0.08-0.08
	l0.119-0.079l0.082-0.081l0.118-0.04l0.121-0.079l0.08-0.08l0.12-0.079l0.08-0.08l0.12-0.04l0.08-0.04l0.119-0.04l0.121-0.079
	l0.079-0.04l0.121-0.04l0.119-0.079l0.121-0.04l0.08-0.04l0.119-0.08l0.12-0.04l0.08-0.04l0.24-0.08l0.079-0.039l0.24-0.079h0.12
	l0.08-0.041h0.12l0.12-0.039h0.119l0.12-0.041h0.119l0.121-0.039h0.199l0.12-0.04h0.12l0.119-0.04h0.12l0.12-0.04h0.08l0.12-0.038
	h0.119l0.121-0.041h0.12l0.119-0.041h0.2l0.119-0.039h0.12l0.12-0.041h0.12l0.12-0.038h0.079l0.121-0.04h0.119l0.12-0.04h0.24
	l0.12-0.041h0.08l0.119-0.039h0.121l0.118-0.04l0.081-0.04h0.12l0.08-0.04l0.239-0.079l0.08-0.041l0.08-0.079l0.121-0.039
	l0.08-0.041l0.119-0.079l0.079-0.04l0.08-0.08l0.238-0.08l0.082-0.038l0.118-0.042h0.121l0.119-0.038h1.116l0.08-0.041l0.119-0.039
	l0.08-0.04v-0.08h0.079l0.08-0.039h0.24L79.8,49.93h0.239l0.239,0.08h0.079l0.24,0.079h0.118l0.08,0.041l0.241,0.08h0.118
	l0.12,0.038h0.12l0.159,0.041l0.079,0.039l0.359,0.12l0.08,0.039h0.118l0.241,0.081l0.079,0.039l0.121,0.04h0.237l0.119,0.039h0.24
	l0.118,0.041h0.241l0.159-0.041l0.159-0.079l0.039-0.12l0.082-0.079l-0.082-0.08l-0.039-0.08h-0.12l-0.159,0.08H83.27l-0.081-0.039
	l-0.237-0.079l0.078-0.121h0.599l0.359-0.119l0.079-0.079l0.121-0.04l0.118,0.04l0.079,0.039l0.24,0.08l0.16,0.158l0.039,0.08
	l0.32,0.32l0.038,0.079l0.12,0.08l0.121,0.04l0.077,0.039l0.12,0.08v0.837l0.041,0.12v0.08l0.08,0.159l0.079,0.12l0.041,0.079
	l-0.041,0.08l-0.041,0.12v0.119l-0.038,0.081l-0.041,0.118v0.12l-0.039,0.08l-0.079,0.238l-0.041,0.081l-0.041,0.119l-0.039,0.08
	l-0.038,0.119l-0.041,0.079l-0.08,0.12l-0.041,0.079l-0.079,0.12l-0.038,0.119l-0.239,0.24l-0.041,0.079l-0.079,0.121l-0.16,0.159
	l-0.041,0.079l-0.078,0.12l-0.081,0.039l-0.159,0.159l-0.119,0.081l-0.08,0.039l-0.397,0.399l-0.041,0.079l-0.08,0.119l-0.038,0.08
	l-0.081,0.08l-0.081,0.12L83.31,56.23l-0.08,0.08l-0.041,0.119l-0.078,0.08l-0.04,0.12l-0.16,0.159l-0.04,0.118l-0.078,0.082
	l-0.082,0.238v0.08l-0.118,0.359v0.519l0.041,0.117l0.038,0.082v0.119l0.039,0.079l0.041,0.121l-0.041,0.079v0.119l-0.077,0.079
	l-0.041,0.081h-0.2l-0.08,0.08l-0.12,0.038l-0.077,0.08l-0.082,0.041l-0.08,0.119l-0.079,0.08l-0.039,0.119l-0.081,0.12
	l-0.078,0.079l-0.081,0.121l-0.039,0.118v0.079l-0.04,0.121l0.16,0.159l0.078,0.041l0.081-0.041h0.08l0.118-0.041h0.359l0.079-0.039
	l0.121-0.04h0.079l0.121,0.04v0.08l-0.041,0.12v0.199l-0.08,0.119l-0.159,0.16l-0.159,0.119h-0.12l-0.118,0.041l-0.082,0.078
	l-0.118,0.04l-0.08,0.041l-0.159,0.159v0.359l0.039,0.118l0.159,0.041l0.241-0.241l0.077-0.118l0.082,0.041h0.118l0.041,0.159
	l-0.041,0.079l-0.2,0.598l-0.039,0.079l-0.2,0.599v0.08l-0.079,0.239v0.119l-0.08,0.239v0.119l-0.079,0.241v0.118l-0.08,0.08
	l-0.079,0.239l-0.08,0.081l-0.04,0.118l-0.039,0.08l-0.081,0.119v0.239l-0.039,0.12v0.12l-0.039,0.119v0.238l-0.04,0.121v0.12
	l-0.08,0.239l-0.079,0.119l-0.041,0.079l-0.039,0.12l-0.082,0.119l-0.038,0.12l-0.08,0.119l-0.12-0.039l-0.039-0.12l-0.041-0.08
	l-0.079-0.119l-0.04-0.12l-0.04-0.079l-0.079-0.24l-0.04-0.079l-0.119-0.08l-0.08-0.04L80,66.001l-0.121-0.04l-0.039-0.079
	l-0.04-0.12l0.04-0.119v-0.12l0.079-0.239v-0.12l0.04-0.08v-0.119l0.08-0.239L80,64.605v-0.119l-0.041-0.121v-0.118l-0.04-0.12
	l-0.079,0.04h-0.12l-0.079,0.119l-0.08,0.079l-0.08,0.121l-0.08,0.079l-0.079,0.04l-0.159,0.16v0.397l-0.08,0.079l-0.04,0.08
	l-0.04,0.12l-0.079,0.08l-0.04,0.079l-0.04,0.121l-0.079,0.079l-0.12,0.359l-0.08,0.08L78.444,66.6l0.239,0.08l0.119-0.041h0.638
	l0.081,0.24l0.039,0.079l0.08,0.24l0.04,0.079v0.119l-0.04,0.12v0.2l-0.04,0.118l-0.04,0.08l-0.12,0.359l-0.04,0.079l-0.119,0.358
	l-0.039,0.08l-0.12,0.359l-0.04,0.079v0.24l-0.04,0.119v0.119l-0.08,0.24l-0.039,0.08l-0.04,0.119l-0.04,0.079v0.121l-0.04,0.118
	l0.04,0.08l0.08,0.079l0.079,0.121l0.04,0.079l0.08,0.119l-0.04,0.08l-0.08,0.119l-0.04,0.121l-0.039,0.079l-0.04,0.119l-0.08,0.12
	v0.08l-0.039,0.119l-0.041,0.08v0.359l-0.039,0.118v0.24l0.039,0.119v0.24l0.041,0.119v0.239l0.039,0.12v0.119l0.04,0.12v0.239
	l-0.04,0.119v0.079l-0.039,0.12v0.239l-0.041,0.119v0.12l-0.039,0.12v0.078l-0.04,0.121v0.239l-0.039,0.119v0.119l-0.081,0.082
	l-0.04,0.118l-0.079,0.08l-0.041,0.12l-0.078,0.118l-0.04,0.08l-0.081,0.12l-0.079,0.08l-0.08,0.119l-0.119,0.079l-0.04,0.08
	l-0.079,0.12l-0.04,0.08l-0.08,0.079l-0.04,0.121l-0.079,0.077l-0.041,0.082l-0.08,0.119l-0.079,0.04h-0.118l-0.082,0.039
	l-0.238,0.08l-0.08,0.041l-0.081,0.079l-0.08,0.119l-0.039,0.08l-0.08,0.079l-0.082,0.12l-0.039,0.08l-0.16,0.159l-0.04,0.119
	l-0.159,0.16l-0.041,0.119l-0.079,0.08l-0.04,0.079l-0.081,0.121l-0.04,0.118l0.04,0.08l0.04,0.12v0.118l0.12,0.041l0.159,0.08
	h0.081l0.119,0.039l0.08,0.081l0.12,0.039l0.119,0.079l0.08,0.08l0.121,0.041l0.08,0.039l0.119,0.04l0.079,0.04l0.121,0.04
	l0.04-0.08l0.08-0.079l0.038-0.08l0.08-0.08l0.08-0.12l-0.08-0.079l-0.039-0.08l-0.079-0.08l-0.041-0.079l-0.079-0.08l0.04-0.12
	l0.08,0.08l0.118,0.08l0.08,0.04l0.079,0.079l0.121,0.039l0.079,0.082l0.119,0.039l0.159,0.159l0.121,0.04l0.079,0.08l0.12,0.039
	l0.16,0.16l0.118,0.04l0.08,0.079l0.12,0.041l0.079,0.078l0.358,0.121l0.08,0.039l0.359-0.358l0.239-0.08l0.08-0.079l0.119-0.08
	l0.159-0.159l0.121-0.081l0.159-0.078l0.118-0.041l0.082-0.041h0.118l0.12-0.039h0.12l0.119-0.04h0.518l0.079,0.079l0.041,0.082
	l0.239,0.238l0.079,0.039l0.159,0.16l0.239-0.08l0.082-0.039l0.118-0.041l0.079-0.039h0.358l0.081-0.04l0.119,0.04h0.121
	l0.118,0.039l0.079,0.041h0.121l0.118,0.039h0.12l0.121,0.041l0.078,0.039h0.119l0.121,0.04h0.12l0.12,0.04h0.079l0.239,0.079
	l0.238-0.079h0.121l0.238-0.08h0.12l0.08-0.039h1.315l0.119,0.039h0.24l0.118,0.04l0.08-0.079l0.12-0.041l0.08-0.039l0.079-0.08
	l0.08-0.04l0.12-0.08l0.08-0.04l0.079-0.078l0.12-0.041l0.079-0.041h0.119l0.12-0.039h0.079l0.24-0.079l0.078-0.04l0.121-0.04
	l0.079-0.04l0.239-0.08l-0.077-0.239l-0.082-0.079l-0.08-0.04h0.08l0.12,0.04h0.318l0.121,0.04h0.199l0.119,0.039l0.081,0.04
	l0.356,0.12l0.08,0.04l0.241,0.08l0.078,0.039l0.359,0.12l0.08,0.039l0.119,0.04h0.24l0.118-0.04h0.438l0.121-0.039h0.597
	l0.121-0.08l0.079-0.04l0.121-0.08l0.118-0.039l0.121-0.079h0.079l0.238-0.081l0.12,0.04l0.08,0.041l0.238,0.079l0.08,0.039
	l0.12,0.041l0.079,0.039l0.239,0.08h0.079l0.121,0.04l0.08,0.039l0.119,0.04l0.08,0.039l0.118,0.041l0.32,0.318l0.08,0.121h0.238
	l0.08,0.039l0.12-0.08l0.121-0.039l0.076-0.08l-0.117-0.04l-0.08-0.039h-0.12l-0.039-0.081l-0.082-0.078l0.121,0.039l0.079,0.039
	h0.121l0.117,0.04h0.121l0.121,0.041l0.078,0.039h0.119l0.121,0.04h0.119l0.08,0.039l0.12,0.08l0.239,0.239l0.079,0.04l0.121,0.081
	l0.238,0.238l0.118,0.08l0.32,0.319l0.119,0.079l0.079,0.04l0.24,0.239l0.118,0.08l0.321,0.319l0.118,0.078l0.079,0.081l0.041,0.159
	l-0.079-0.08l-0.121-0.04l-0.079-0.079l-0.118-0.041l-0.082-0.078l-0.118-0.04l-0.08-0.081l-0.12-0.039l-0.08-0.08l-0.079-0.04
	h-0.239l-0.079,0.04h-0.199l-0.159,0.08v0.12l0.038,0.118v0.081l0.041,0.159h0.118l0.121,0.039l0.079-0.039l0.08-0.08l0.079,0.04
	l0.12,0.04h0.079l0.119,0.039l0.161,0.159l0.118,0.04l0.161,0.16l0.08,0.12l0.079,0.08l0.039,0.119l0.079,0.079l0.081,0.12
	l0.08,0.039h0.119l0.079-0.079l0.04-0.08l0.08-0.079h0.397l0.241,0.238l0.08-0.039h0.118l-0.159-0.159l-0.039-0.12l-0.161-0.159
	l-0.118-0.04l-0.08-0.079l-0.12-0.04l-0.08-0.081l-0.079-0.04l0.12-0.038l0.118,0.078l0.08,0.041l0.12,0.04l0.08,0.04l0.12,0.079
	l0.08,0.04l0.118,0.04l0.079,0.08l0.121,0.039l0.079,0.04l0.12,0.04l0.079,0.079l0.119,0.041l0.04,0.079l0.08,0.238l0.041,0.081
	l0.079,0.12l0.039,0.079l0.079,0.239l0.121,0.04l0.079,0.079l0.121,0.04l0.159,0.16l0.079,0.039l0.08,0.08l-0.08,0.079l-0.039,0.08
	l-0.161,0.161l-0.038,0.079l-0.08,0.119l-0.041,0.079l-0.038,0.12l-0.041,0.08l-0.08,0.119l-0.079,0.04v-0.119l-0.041-0.08v-0.239
	l-0.159-0.08l-0.239,0.159l-0.079,0.24l0.039,0.119l0.08,0.08l0.04,0.119h0.159l0.12,0.041l0.08,0.039l0.079,0.238v0.121l0.08,0.238
	v0.12l0.079,0.239l0.041,0.08v0.119l0.118,0.359v0.119l0.121,0.359v0.119l-0.159,0.479l-0.041,0.08l-0.08,0.12l-0.079,0.16
	l-0.08,0.118l-0.041,0.08l-0.079,0.12l-0.039,0.079l-0.079,0.119l-0.08,0.08l-0.041,0.08l-0.238,0.24l-0.08,0.239l-0.04,0.079v0.12
	l-0.079,0.238l-0.039,0.08l-0.041,0.119v0.121l-0.041,0.119l-0.038,0.079l-0.041,0.12v0.12l-0.039,0.119v0.119l-0.041,0.12v0.08
	l-0.038,0.118v0.121l-0.041,0.118v0.241l-0.039,0.079H73.1l-0.08-0.04H72.9l-0.12-0.039H72.66l-0.078-0.041h-0.121l-0.12-0.039
	h-0.12l-0.079-0.04l-0.121-0.039h-0.119l-0.121-0.042h-0.08l-0.12-0.04l-0.079-0.079l-0.12-0.039l-0.239-0.239l-0.08-0.04
	l-0.08-0.08l-0.121-0.08l-0.079-0.079l-0.081-0.04l-0.119-0.041l-0.08-0.038l-0.121-0.04l-0.08-0.04l-0.12-0.041l-0.08-0.079
	l-0.119-0.04l-0.08-0.04l-0.12-0.039l-0.08-0.04l-0.12-0.081l-0.081-0.038l-0.119-0.04l-0.08-0.039l-0.12-0.042l-0.079-0.04
	l-0.121-0.079l-0.08-0.04l-0.119-0.04l-0.08-0.039l-0.121-0.041l-0.08-0.039l-0.12-0.079h-0.08l-0.12-0.04h-0.08l-0.239-0.081
	h-2.632l-0.081-0.039h-0.118l-0.24-0.079l-0.08-0.041l-0.24-0.08h-0.119l-0.08-0.04l-0.24-0.078l-0.08-0.081l-0.119-0.039
	l-0.081-0.041l-0.12-0.079l-0.119-0.039l-0.08-0.081l-0.12-0.04l-0.08-0.038l-0.12-0.081l-0.119-0.04l-0.081-0.039l-0.08-0.08
	l-0.118-0.04l-0.081-0.08l-0.119-0.079l-0.08-0.039l-0.081-0.08l-0.12-0.08l-0.08-0.04l-0.159-0.16l-0.121-0.079l-0.08-0.041
	l-0.159-0.159l-0.121-0.079l-0.239-0.239l-0.119-0.04l-0.319-0.319l-0.119-0.078l-0.08-0.08l-0.081-0.041l-0.08-0.079l-0.119-0.08
	l-0.24-0.239l-0.08-0.04l-0.478-0.479l-0.08-0.119l-0.24-0.24l-0.04-0.079l-0.079-0.119l-0.319-0.319l-0.08-0.12l-0.318-0.319
	l-0.04-0.079l-0.081-0.08l-0.08-0.12l-0.239-0.239l-0.04-0.079l-0.24-0.239l-0.08-0.119l-0.041-0.08l-0.318-0.318l-0.12-0.082
	l-0.08-0.077l-0.08-0.121l-0.08-0.079l-0.08-0.041l-0.08-0.079l-0.081-0.04l-0.159-0.159l-0.119-0.04l-0.08-0.08l-0.081-0.119
	l-0.318-0.319l-0.081-0.119l-0.159-0.159l-0.12-0.08l-0.08-0.041l-0.478-0.479l-0.081-0.039l-0.12-0.079l-0.399-0.399l-0.08-0.04
	l-0.239-0.238l-0.12-0.081l-0.08-0.079l-0.08-0.04l-0.081-0.08l-0.119-0.079l-0.16-0.16l-0.12-0.039l-0.239-0.241L52.96,79.2
	l-0.398-0.398l-0.08-0.119l-0.12-0.08l-0.159-0.159l-0.081-0.04l-0.12-0.08l-0.08-0.04l-0.08-0.08l-0.12-0.039l-0.08-0.08
	l-0.119-0.04l-0.081-0.079l-0.239-0.081l-0.08-0.039l-0.24-0.079l-0.079-0.04l-0.12-0.04l-0.119-0.079l-0.121-0.041l-0.119-0.079
	l-0.08-0.08l-0.119-0.08l-0.081-0.079h-0.159l-0.04,0.119v0.081l-0.04,0.118l0.08,0.041l0.08,0.079l0.08,0.04l0.24,0.079l0.081,0.04
	h0.279l0.238,0.12l0.121,0.079l0.08,0.04l0.119,0.04l0.081,0.079l0.118,0.04l0.081,0.04l0.08,0.081l0.12,0.039l0.04,0.12l0.08,0.119
	l-0.119-0.04l-0.08-0.04l-0.12-0.079l-0.081-0.04l-0.238-0.079l-0.08-0.041l-0.24-0.08l-0.08-0.04l-0.239-0.079l-0.081-0.04
	l-0.238-0.079l-0.08-0.04l-0.121-0.04l-0.078-0.041l-0.24-0.079l-0.081-0.039h-0.12l-0.119-0.04h-0.438l-0.12-0.04h-0.121
	l-0.08-0.12l0.08-0.079l0.04-0.08l0.319-0.318l-0.159-0.16h-0.16l-0.08,0.041l-0.08,0.077l-0.12,0.042l-0.079,0.079l-0.119,0.08
	h-0.16l-0.04-0.119v-0.2l0.04-0.08l-0.08-0.079l-0.079-0.04l-0.16-0.16h-0.199l-0.08,0.12l-0.319,0.318l-0.12,0.081l-0.081,0.079
	l0.041,0.12l0.119,0.039h0.12l0.08,0.04l0.121,0.04h0.119l0.12,0.041h0.119l0.12,0.039l0.159,0.079l-0.04,0.08h-0.718l-0.12,0.04
	h-0.08l-0.119,0.04h-0.12l-0.12,0.04h-0.08l-0.119,0.039h-0.121l-0.079,0.079l-0.12,0.041l-0.08,0.08l-0.12,0.079l-0.08,0.04
	l-0.079,0.079l-0.12,0.08l-0.08,0.04l-0.121,0.08l-0.08,0.08l-0.121,0.04l-0.078,0.079l-0.08,0.04l-0.121,0.079l-0.08,0.08
	l-0.239,0.08l-0.081,0.04l-0.358,0.119h-0.12l-0.08,0.04L43.788,79.2l-0.08,0.04l-0.12,0.039h-0.12l-0.119,0.082L43.27,79.4
	l-0.12,0.039l-0.08,0.04l-0.119,0.08l-0.12,0.04l-0.08,0.039l-0.12,0.041l-0.119,0.08l-0.08,0.039l-0.119,0.04l-0.08,0.08
	l-0.239,0.079l-0.08,0.041l-0.12,0.078l-0.081,0.04l-0.239,0.081l-0.08,0.079h-0.599l-0.119,0.04h-0.2l-0.12,0.04h-0.08l-0.12,0.039
	L40,80.518l-0.239-0.081h-0.08l-0.358-0.119h-0.081l-0.239-0.079l-0.08-0.041h-0.12l-0.12-0.04l-0.079-0.04l-0.121-0.038
	l-0.079-0.04l-0.121-0.081l-0.08-0.039l-0.119-0.04l-0.08-0.08l-0.119-0.039l-0.08-0.041l-0.119-0.08l-0.08-0.039l-0.12-0.04
	l-0.08-0.039l-0.12-0.081l-0.08-0.039l-0.12-0.039l-0.08-0.082l-0.08-0.039l-0.239-0.079h-0.2l-0.12-0.04h-0.358l-0.08-0.04h-0.24
	l-0.12-0.04h-0.199l-0.12-0.039h-0.239l-0.12-0.041h-0.319l-0.12-0.039h-0.199l-0.239-0.079l-0.16-0.16l-0.12-0.04l-0.08-0.08
	l-0.119-0.039l-0.159-0.159l-0.121-0.041l-0.08-0.08l-0.119-0.079l-0.08-0.04l-0.079-0.08l-0.12-0.039l-0.159-0.16l-0.12-0.04
	l-0.079-0.08l-0.121-0.079h-0.079l-0.24-0.08l-0.08-0.039h-0.12l-0.119-0.041l-0.08-0.038l-0.119-0.041h-0.08l-0.24-0.08
	l-0.079-0.039h-0.121l-0.12-0.04l-0.08-0.04h-0.12l-0.12-0.04l-0.159-0.16l-0.08-0.12l-0.559-0.558l-0.08-0.119l-0.239-0.24h-0.359
	l-0.119-0.039h-0.2l-0.239-0.08l-0.119-0.079l-0.12-0.039l-0.08-0.041h-0.12l-0.119-0.041l-0.08-0.039h-0.12l-0.239-0.079
	l-0.08-0.041h-0.121l-0.239-0.079h-0.079l-0.239-0.08l-0.08-0.039h-0.119l-0.121-0.04h-0.199l-0.12-0.039h-0.12l-0.08-0.041h-0.119
	l-0.12-0.04h-0.079l-0.121-0.04h-0.119l-0.121-0.039h-0.08l-0.12-0.04l-0.08-0.04l-0.119-0.081l-0.08-0.078l-0.119-0.04l-0.08-0.08
	l-0.119-0.04l-0.08-0.08l-0.12-0.079l-0.08-0.04l-0.12-0.079l-0.079-0.04l-0.081-0.081l-0.12-0.079l-0.08-0.039l-0.12-0.08
	l-0.08-0.08h-0.12l-0.12-0.04l-0.08-0.039l-0.119-0.04l-0.081-0.039h-0.119l-0.08-0.041l-0.24-0.08l-0.08-0.039l-0.12-0.04
	l-0.08-0.04l-0.12-0.04l-0.08-0.041l-0.12-0.039l-0.08-0.079l-0.12-0.039l-0.16-0.081l-0.359-0.119l-0.08-0.04l-0.358-0.119
	l-0.081-0.04l-0.239-0.081l-0.079-0.039l-0.359-0.12l-0.08-0.039l-0.359-0.121L19.46,72.5l-0.118-0.038l-0.081-0.081l-0.119-0.04
	l-0.121-0.078l-0.079-0.04l-0.12-0.041l-0.319-0.318l-0.119-0.08l-0.159-0.16l-0.081-0.039l-0.12-0.08l-0.08-0.04l-0.12-0.079
	l-0.08-0.04l-0.12-0.04l-0.08-0.08l-0.12-0.04l-0.08-0.08l-0.12-0.038l-0.12-0.081l-0.08-0.04l-0.16-0.159l-0.08-0.119l-0.239-0.239
	l-0.12-0.04l-0.08-0.039l-0.239-0.081l-0.08-0.04l-0.24-0.238l-0.04-0.119l-0.239-0.24l-0.04-0.119l-0.558-0.558l-0.08-0.121
	l-0.081-0.04l-0.119-0.08l-0.239-0.079h-0.12l-0.12-0.039h-0.239l-0.12,0.039h-0.439l-0.119,0.04h-0.12l-0.239-0.079h-0.119
	l-0.08-0.041l-0.239-0.08h-0.12l-0.119-0.039l-0.08-0.04l-0.239-0.08h-0.119l-0.08-0.039l-0.12-0.04h-0.119l-0.12-0.04h-0.12
	l-0.119-0.04h-0.12l-0.358-0.119l-0.08-0.04l-0.239-0.08l-0.08-0.08L9.85,67.717l-0.08-0.041l-0.239-0.08l-0.08-0.04l-0.12-0.08
	l-0.12-0.039l-0.08-0.04H9.013l-0.08-0.04l-0.24-0.079l-0.08-0.04l-0.239-0.08l-0.08-0.04l-0.239-0.079l-0.08-0.041l-0.12-0.039
	l-0.08-0.04l-0.24-0.08l-0.08-0.04h-0.12l-0.08-0.118l-0.08-0.08l-0.04-0.08L7.059,66.4l-0.239-0.239l-0.04-0.12L6.62,65.882
	l-0.08-0.12l-0.08-0.08l-0.04-0.119l-0.16-0.161l-0.08-0.118l-0.04-0.08l-0.08-0.079l-0.12-0.08l-0.159-0.16l-0.08-0.118
	l-0.479-0.479l-0.119-0.08l-0.08-0.079l-0.08-0.039l-0.08-0.082l-0.12-0.038l-0.08-0.081l-0.08-0.04l-0.08-0.079l-0.12-0.039
	l-0.12-0.081l-0.08-0.039l-0.239-0.08l-0.12-0.08l-0.08-0.039l-0.239-0.08L3.39,63.25l-0.08-0.041l-0.119-0.08l-0.08-0.079
	l-0.12-0.08l-0.08-0.039l-0.12-0.08l-0.08-0.04l-0.239-0.079l-0.08-0.041l-0.12-0.04h-0.08l-0.239-0.078l-0.079-0.041l-0.12-0.04
	l-0.081-0.079l-0.239-0.08l-0.08-0.08l-0.239-0.079l-0.08-0.08l-0.239-0.079l-0.08-0.08l-0.119-0.04l-0.081-0.08l-0.239-0.08
	l-0.08-0.118l-0.04-0.082l-0.08-0.118L0,61.336v-72.502H122.191"/>
</svg>
