<?xml version="1.0" encoding="utf-8"?>
<!-- Generator: Adobe Illustrator 16.0.4, SVG Export Plug-In . SVG Version: 6.00 Build 0)  -->
<svg version="1.2" baseProfile="tiny" id="Layer_1" xmlns="https://www.w3.org/2000/svg" xmlns:xlink="https://www.w3.org/1999/xlink"
	 x="0px" y="0px" width="153px" height="64px" viewBox="0 0 153 64" xml:space="preserve">
<title>US-Mainland</title>
<desc>Created with Sketch.</desc>
<rect x="-208.783" y="-680" fill="none" width="1440" height="1024"/>
<g>
	<polygon id="polygon9" fill="#BAC9CF" points="33.336,-0.167 33.194,-0.163 33.133,-0.227 33.177,-0.418 33.278,-0.333 
		33.343,-0.346 33.4,-0.44 33.445,-0.43 33.468,-0.365 33.437,-0.283 	"/>
	<polygon id="polygon11" fill="#BAC9CF" points="49.064,-5.059 49.087,-5.005 49.362,-4.896 49.751,-4.866 49.866,-4.824 
		50.11,-4.644 50.207,-4.461 50.572,-4.223 50.606,-4.142 50.594,-3.957 50.729,-3.78 50.704,-3.654 50.766,-3.552 50.781,-3.377 
		50.842,-3.287 50.961,-3.327 51.017,-3.312 51.052,-3.16 51.046,-2.866 50.974,-2.69 50.953,-2.402 50.763,-2.082 50.695,-1.912 
		50.545,-1.729 50.354,-1.192 50.092,-0.91 49.994,-0.636 49.97,-0.439 50.051,0.07 49.953,0.312 49.97,0.355 50.188,0.323 
		50.142,0.449 50.1,0.565 50.17,0.787 50.148,1.065 50.095,1.175 50.045,1.143 49.85,1.18 49.709,1.142 49.639,1.249 49.524,1.273 
		49.439,1.362 49.221,1.344 49.059,1.423 49.104,1.472 49.609,1.401 49.756,1.41 49.783,1.622 49.658,1.651 49.562,1.794 
		49.378,1.847 49.369,1.857 49.303,1.93 49.092,2.016 48.987,2.187 48.852,2.228 48.903,2.384 48.877,2.461 48.622,2.494 
		48.517,2.653 48.419,2.688 48.323,2.799 48.22,2.823 48.124,2.938 47.972,2.986 47.876,3.075 47.767,3.093 47.644,3.199 
		47.541,3.201 47.107,3.046 46.781,2.884 46.493,2.912 46.35,2.828 45.997,2.878 45.91,2.924 45.75,2.851 45.581,2.854 
		45.309,2.849 44.831,2.69 44.77,2.637 44.633,2.624 44.517,2.528 44.397,2.542 44.274,2.686 44.133,2.688 43.987,2.506 
		43.727,2.327 43.634,2.301 43.298,1.884 43.089,1.6 42.896,1.501 42.816,1.361 42.841,1.268 41.911,1.087 41.695,0.972 
		41.355,0.886 41.305,0.838 41.244,0.791 40.97,0.748 40.678,0.618 40.555,0.474 40.449,0.149 40.162,-0.22 40.104,-0.381 
		40.177,-1.26 40.227,-1.473 40.432,-1.608 40.666,-1.858 40.854,-1.982 41.046,-2.199 41.087,-2.292 41.172,-2.637 41.341,-3.158 
		41.549,-3.375 41.975,-3.655 42.1,-3.674 42.345,-3.686 42.448,-3.753 42.644,-3.768 42.8,-3.885 42.985,-3.934 43.07,-4.022 
		43.134,-4.105 43.146,-4.111 43.296,-4.196 43.532,-4.402 43.742,-4.515 44.282,-4.831 44.571,-5.082 44.686,-5.139 44.757,-5.119 
		44.96,-5.058 45.132,-5.159 45.286,-5.173 45.39,-5.137 45.451,-5.073 45.488,-4.889 45.576,-4.853 45.684,-4.942 45.77,-4.977 
		45.859,-4.907 46.012,-4.916 46.131,-4.728 46.236,-4.681 46.389,-4.689 46.469,-4.757 46.487,-4.915 46.518,-5.035 46.582,-5.107 
		46.761,-5.198 46.995,-5.208 47.248,-5.137 47.537,-5.165 47.898,-5.118 48.054,-5.001 48.145,-5.101 48.215,-5.157 48.417,-5.177 
		48.518,-5.293 48.649,-5.307 48.821,-5.152 49.051,-5.157 	"/>
	<polygon id="polygon13" fill="#BAC9CF" points="31.445,1.921 31.629,1.851 31.725,1.767 31.836,1.639 32.318,1.475 32.565,1.333 
		32.902,0.824 32.943,0.519 33.021,0.31 33.386,0.072 33.612,0.213 33.711,0.2 33.79,0.158 33.878,0.109 34.177,0.266 34.244,0.373 
		34.27,0.519 34.22,0.717 34.032,0.84 33.847,1.09 33.709,1.474 33.618,1.999 33.661,2.188 33.812,2.544 33.812,2.565 33.814,2.664 
		33.601,2.843 33.416,2.864 33.357,2.914 33.204,2.891 33.065,3.019 32.863,3.008 32.75,3.06 32.646,3.062 32.548,3.075 
		32.437,3.154 32.169,3.177 32.014,3.268 31.827,3.452 31.434,4.147 31.175,4.606 31.143,4.862 31.026,4.991 30.931,5.331 
		30.854,5.305 30.681,5.337 30.546,5.193 30.464,5.163 30.317,5.183 30.255,5.102 30.269,4.987 30.188,4.848 30.089,4.774 
		29.966,4.462 29.992,4.31 30.019,4.155 29.998,3.977 29.947,3.913 30.214,3.475 30.261,3.197 30.406,2.878 30.822,2.497 
		31.278,1.979 	"/>
	<polygon id="polygon15" fill="#BAC9CF" points="23.429,8.25 23.438,8.497 23.382,8.508 23.304,8.454 23.308,8.312 	"/>
	<polygon id="polygon17" fill="#BAC9CF" points="80.478,15.434 80.416,15.391 80.426,15.331 80.565,15.117 80.68,15.143 
		80.746,15.224 80.58,15.41 	"/>
	<polygon id="polygon19" fill="#BAC9CF" points="87.282,16.191 87.194,16.11 87.215,16.017 87.291,16.005 87.356,16.108 
		87.336,16.174 	"/>
	<polygon id="polygon21" fill="#BAC9CF" points="81.783,16.595 81.739,16.558 81.782,16.508 81.821,16.535 	"/>
	<polygon id="polygon23" fill="#BAC9CF" points="82.53,16.811 82.214,16.792 82.229,16.699 82.158,16.548 82.173,16.488 
		82.287,16.465 82.424,16.55 82.551,16.679 82.558,16.794 	"/>
	<polygon id="polygon25" fill="#BAC9CF" points="80.766,7.417 80.904,7.693 81.064,7.903 81.07,7.969 81.258,8.255 81.326,8.396 
		81.474,8.481 81.541,8.731 81.458,8.944 81.596,9.193 81.746,9.442 81.899,9.598 82.314,10.192 82.424,10.268 82.475,10.387 
		82.429,10.599 82.455,10.697 82.598,10.718 82.678,10.581 82.842,10.633 83.082,10.772 83.139,10.854 83.123,10.924 83.178,10.94 
		83.357,11.493 83.295,11.696 83.075,11.954 83.009,11.943 82.987,12.031 83.087,12.226 83.051,12.275 83.085,12.351 83.193,12.432 
		83.222,12.551 83.175,12.77 83.209,12.899 83.287,13.002 83.38,12.974 83.39,13.001 83.531,13.038 83.609,13.108 83.739,13.123 
		83.912,13.431 83.854,13.502 84.018,13.719 84.178,13.842 84.252,13.765 84.302,13.792 84.355,13.89 84.38,14.025 84.473,14.155 
		84.609,14.191 84.756,14.168 84.87,14.113 84.96,13.502 84.727,13.412 84.621,13.271 84.637,13.179 84.729,13.162 84.854,13.013 
		84.955,13.018 85.3,13.162 85.441,13.138 85.701,13 85.81,13.02 85.837,13.085 85.731,13.26 85.562,13.371 85.533,13.736 
		85.385,13.939 85.378,13.993 85.369,14.048 85.513,14.324 85.64,14.448 85.863,14.522 85.978,14.603 86.148,14.813 86.178,14.879 
		86.109,15.162 86.212,15.618 86.334,15.868 86.519,16.057 86.65,16.153 86.907,16.211 87.241,16.49 87.437,16.467 87.52,16.553 
		87.52,16.624 87.358,16.821 86.955,17.201 86.733,17.411 86.621,17.477 86.491,17.488 86.418,17.723 86.189,17.737 86.119,17.694 
		86.09,17.563 86.11,17.443 86.071,17.34 85.999,17.265 85.858,17.228 85.202,17.338 84.824,17.434 84.655,17.529 84.329,17.837 
		84.219,17.86 84.104,17.812 83.731,17.833 83.626,17.735 83.569,17.442 83.448,17.329 83.273,17.254 83.197,17.125 83.102,17.017 
		82.874,16.97 82.753,16.89 82.692,16.77 82.656,16.526 82.586,16.473 82.46,16.458 82.33,16.372 82.15,16.39 82.062,16.298 
		82.056,16.216 82.104,16.124 82.043,16.064 81.591,16.358 81.37,16.556 81.282,16.541 81.163,16.438 80.869,16.42 80.619,16.353 
		80.519,16.25 80.43,16.033 80.435,16.008 80.465,15.842 80.421,15.712 80.468,15.597 80.641,15.508 80.957,15.564 80.983,15.51 
		80.928,15.417 80.975,15.314 81.109,15.04 81.086,14.964 81.004,14.976 80.654,14.779 80.518,14.726 80.404,14.76 80.382,14.819 
		80.438,14.933 80.375,15.092 80.282,15.061 80.095,14.801 80.033,14.737 79.975,14.726 79.901,14.978 79.963,15.102 80.121,15.252 
		80.231,15.257 80.318,15.414 80.307,15.675 80.247,15.708 79.95,15.51 79.967,15.423 79.929,15.385 79.748,15.442 79.685,15.426 
		79.611,15.291 79.636,15.144 79.609,15.057 79.517,15.069 79.444,14.939 79.246,15.088 79.246,15.14 79.247,15.241 79.194,15.35 
		79.271,15.437 79.729,15.557 80.122,15.765 80.254,15.883 80.321,16.067 80.253,16.296 80.114,16.445 79.887,16.546 79.227,16.635 
		78.749,16.771 77.519,16.928 77.321,16.875 77.201,16.773 77.106,16.633 76.959,16.068 76.921,16.053 76.859,15.901 76.83,15.749 
		76.665,15.179 76.499,14.947 76.312,14.726 75.807,14.384 75.719,14.265 75.682,13.939 75.619,13.755 75.362,13.306 75.099,13.054 
		74.947,13.018 74.872,12.822 74.708,12.612 74.609,12.57 74.558,12.44 74.603,12.107 74.596,11.542 74.543,11.346 74.42,11.091 
		74.244,10.882 73.909,10.579 73.858,10.533 73.484,10.287 73.517,10.232 73.857,10.196 74.283,10.152 74.778,10.125 74.852,10.121 
		74.947,10.116 75.104,10.116 75.337,10.118 75.925,10.119 75.942,10.12 76.344,10.098 76.616,10.035 76.763,10.093 76.861,10.081 
		77.028,9.948 77.352,9.71 77.382,9.542 78.002,9 78.253,8.627 78.276,8.344 78.89,7.749 79.072,7.545 79.331,7.335 79.559,7.251 
		79.673,7.173 79.96,7.121 80.085,7.016 80.416,7.072 	"/>
	<polygon id="polygon27" fill="#BAC9CF" points="98.455,19.162 98.661,19.242 98.775,19.188 99.09,19.185 99.259,19.239 
		99.644,19.242 99.878,19.246 100.628,19.486 101.083,19.435 101.773,19.61 102.1,19.608 102.207,19.478 102.254,19.32 
		102.347,18.997 102.502,18.774 102.622,18.784 102.812,18.924 103.015,19.38 103.06,19.581 103.158,19.734 103.388,19.863 
		103.506,19.83 103.572,19.89 103.658,19.906 103.794,19.85 103.876,19.926 104,19.931 104.072,20.007 104.256,20.012 
		104.299,19.853 104.549,20.042 104.69,19.95 104.876,20.063 105.151,20.066 105.309,19.952 105.661,19.978 105.785,19.977 
		106.057,19.791 106.236,19.751 106.258,19.746 106.508,19.837 106.539,19.854 106.691,19.745 107.294,19.753 107.571,19.724 
		107.707,19.779 107.766,19.865 107.676,20.045 107.985,20.196 108.305,20.086 108.376,20.157 108.307,20.391 107.729,21.171 
		107.275,21.599 107.048,21.741 106.854,21.916 106.647,22.021 106.534,22.119 106.285,22.256 106.192,22.306 105.976,22.279 
		105.906,22.334 105.824,22.34 105.706,22.465 105.608,22.482 105.56,22.542 105.522,22.582 105.431,22.575 105.241,22.685 
		105.263,22.572 105.116,22.545 104.959,22.589 104.888,22.661 104.78,22.703 104.553,22.7 104.384,22.69 104.254,22.57 
		103.829,22.491 102.961,22.332 102.439,22.161 102.43,22.183 102,22.033 101.722,21.892 101.342,21.774 101.136,21.623 
		100.885,21.56 100.629,21.463 100.068,21.43 100.044,21.428 100,21.445 99.794,21.375 99.696,21.446 99.117,21.531 98.7,21.676 
		98.478,21.656 98.325,21.695 98.249,21.679 98.054,21.636 97.946,21.675 97.578,21.7 96.678,21.771 95.923,21.717 95.346,21.652 
		95.234,21.64 95.135,21.591 95.036,21.5 95.047,21.413 95.171,21.232 95.229,21.139 95.275,20.833 95.313,20.73 95.427,20.647 
		95.463,20.533 95.512,20.413 95.764,20.068 95.904,20.045 96.012,19.957 96.261,19.749 96.363,19.579 96.399,19.508 96.414,19.333 
		96.408,19.069 96.407,19.034 96.314,18.882 96.183,18.791 96.166,18.704 96.22,18.605 96.301,18.594 96.502,18.685 97.002,18.769 
		97.215,18.713 97.485,18.776 97.672,18.994 97.771,19.052 98.438,19.135 	"/>
	<polygon id="polygon29" fill="#BAC9CF" points="112.791,24.957 112.742,24.957 112.524,24.69 112.524,24.604 112.627,24.685 	"/>
	<polygon id="polygon31" fill="#BAC9CF" points="101.992,25.539 102.291,25.521 102.449,25.558 102.655,25.595 102.937,25.631 
		103.078,25.643 103.229,25.604 103.82,25.774 104.195,25.893 104.545,26.136 104.81,26.396 105.212,26.742 105.387,26.889 
		105.714,27.268 106.096,27.8 106.243,28.126 106.275,28.317 106.229,28.476 105.868,28.994 105.665,29.435 105.558,29.567 
		105.161,29.585 104.709,29.859 104.524,29.876 104.384,29.964 104.244,29.993 104.185,29.971 104.006,30.076 103.709,30.072 
		103.363,30.122 103.103,30.123 102.94,30.162 102.838,30.146 102.767,30.088 102.568,29.92 102.42,29.773 102.348,29.647 
		102.193,29.197 102.184,28.92 102.173,28.609 102.215,28.347 102.203,28.135 102.114,27.896 101.732,27.371 101.564,27.251 
		100.902,26.906 100.688,26.641 100.6,26.413 100.632,26.135 100.695,25.939 100.803,25.856 100.961,25.828 101.004,25.85 
		101.166,25.685 101.344,25.608 101.565,25.585 	"/>
	<polygon id="polygon33" fill="#BAC9CF" points="113.041,32.639 113.041,32.536 113.181,32.59 113.159,32.634 	"/>
	<polygon id="polygon35" fill="#BAC9CF" points="109.945,23.435 109.873,23.342 109.961,23.25 110.086,23.237 110.265,23.303 
		110.437,23.22 110.606,23.307 110.729,23.192 111.018,23.164 111.203,23.359 111.409,23.435 111.55,23.555 111.703,23.609 
		111.817,23.783 111.975,23.896 112.264,24.196 112.415,24.261 112.459,24.38 112.459,24.384 112.454,24.674 112.649,24.979 
		112.742,25.028 112.774,25.104 112.916,25.342 113.145,25.587 113.243,25.854 113.524,26.229 113.617,26.293 113.705,26.298 
		114.135,26.269 114.193,26.266 114.415,26.167 114.685,25.981 114.976,25.991 115.156,25.91 115.356,25.893 115.524,25.875 
		115.659,25.811 115.925,25.521 116.146,25.401 116.39,25.324 116.585,25.362 116.747,25.188 116.941,25.123 117.148,25.139 
		117.289,25.263 117.49,25.247 117.739,25.148 117.842,25.153 118.015,25.323 118.312,25.273 118.335,25.288 118.428,25.354 
		118.459,25.344 118.611,25.322 118.84,25.425 119.018,25.501 119.159,25.724 119.289,25.801 119.479,26.1 119.582,26.155 
		119.896,26.42 120.12,26.731 120.374,26.916 120.493,27.134 120.596,27.156 120.895,27.084 121.003,27.194 121.181,27.216 
		121.283,27.346 121.387,27.695 121.474,27.744 121.642,27.95 121.708,27.978 121.734,27.989 121.859,27.989 122.042,27.923 
		122.205,27.928 122.308,27.999 122.568,28.091 122.882,28.38 122.978,28.398 123.462,28.489 123.722,28.572 124.084,28.778 
		124.566,29.372 124.527,29.563 124.512,29.656 124.545,29.857 124.458,30.233 124.479,30.335 124.398,30.554 124.425,30.668 
		124.316,30.827 124.052,31.212 123.923,31.322 123.835,31.354 123.641,31.424 123.511,31.512 123.246,31.866 123.127,32.06 
		123.115,32.078 123.013,32.148 122.666,32.252 122.559,32.252 122.439,32.16 122.375,32.16 122.239,32.252 122.013,32.405 
		121.84,32.421 121.559,32.617 121.429,32.65 121.305,32.78 121.271,32.784 121.19,32.791 121.132,32.878 121.057,32.9 
		120.926,32.775 120.812,32.754 120.601,32.78 120.51,32.847 120.353,32.824 120.256,32.847 120.062,32.721 119.807,32.732 
		119.536,32.798 119.271,32.907 118.941,33.119 118.596,33.256 118.554,33.281 118.352,33.397 118.148,33.426 118.018,33.519 
		117.85,33.562 117.656,33.709 117.52,33.752 117.267,33.759 117.007,33.716 116.812,33.731 116.688,33.798 116.607,33.842 
		116.45,33.809 116.326,33.874 116.152,33.886 115.91,33.973 115.781,33.984 115.622,33.881 115.19,33.877 115.083,33.811 
		114.969,33.8 114.915,33.725 114.931,33.609 114.85,33.452 114.601,33.485 114.476,33.415 114.303,33.16 114.317,33.087 
		114.34,32.975 114.312,32.854 114.188,32.604 114.068,32.479 114.225,32.266 114.273,32.146 114.293,31.831 114.218,31.455 
		114.249,31.172 114.228,31.112 114.145,30.622 113.932,30.094 113.855,29.729 113.865,29.638 113.871,29.397 113.821,29.19 
		113.686,29 113.451,28.849 113.171,28.74 113.045,28.724 112.839,28.79 112.743,28.833 112.381,29.161 112.273,29.2 
		112.191,29.184 111.638,28.825 111.248,28.762 111.059,28.685 110.727,28.43 110.549,28.366 110.256,28.394 110.186,28.263 
		109.983,27.922 109.858,27.807 109.707,27.738 109.657,27.645 109.516,27.428 109.168,27.118 109.049,26.928 108.981,26.563 
		108.9,26.384 108.91,26.188 108.795,25.916 108.725,25.857 108.654,25.709 108.637,25.563 108.695,25.427 108.769,25.067 
		108.77,25.056 108.937,24.587 109.115,24.358 109.189,24.244 109.323,23.791 109.426,23.681 109.529,23.659 109.666,23.731 	"/>
	<polygon id="polygon37" fill="#BAC9CF" points="111.032,33.392 111.312,33.313 111.588,33.308 111.849,33.453 111.912,33.535 
		111.984,33.666 112.125,33.779 112.19,33.883 112.147,34.123 111.971,34.549 111.906,34.739 111.907,34.874 111.863,34.951 
		111.979,34.962 112.117,34.874 112.171,34.881 112.248,34.979 112.356,34.945 112.361,35.021 112.318,35.119 112.156,35.271 
		112.082,35.397 112.005,35.437 111.866,35.441 111.681,35.388 111.617,35.432 111.503,35.427 111.293,35.536 111.082,35.563 
		110.974,35.481 110.902,35.313 110.789,35.249 110.666,35.412 110.515,35.358 110.38,35.369 109.926,35.617 109.851,35.584 
		109.779,35.394 109.488,35.678 109.37,35.722 109.219,35.695 108.985,35.582 108.946,35.407 108.702,35.245 108.589,35.055 
		108.601,34.989 108.804,34.781 108.944,34.7 109.138,34.465 109.322,34.41 109.456,34.366 109.646,34.376 109.812,34.245 
		109.959,34.107 110.093,34.053 110.465,33.779 110.616,33.594 110.778,33.577 	"/>
	<polygon id="polygon39" fill="#BAC9CF" points="127.871,47.649 127.859,47.533 127.866,47.502 127.962,47.103 127.957,46.886 
		127.93,46.809 127.825,46.677 127.581,46.372 127.365,46.041 127.042,45.652 126.991,45.598 126.778,45.375 126.692,45.238 
		126.654,45.043 126.611,44.857 126.493,44.64 126.472,44.416 126.433,44.293 126.273,43.805 126.241,43.229 126.176,43.005 
		126.207,42.929 126.252,42.814 126.252,42.602 126.376,42.068 126.386,42.053 126.766,41.415 126.778,41.409 127.067,41.269 
		127.628,41.298 127.704,41.303 128.045,41.434 128.189,41.461 128.557,41.706 128.767,41.734 128.987,41.844 129.167,41.8 
		129.564,42.068 129.802,42.259 129.855,42.4 129.915,42.444 130.022,42.455 130.017,42.669 130.06,42.777 130.896,43.297 
		130.977,43.308 131.115,43.324 131.859,43.827 131.951,43.887 132.128,44.133 132.257,44.237 132.408,44.242 132.56,44.336 
		132.698,44.363 132.785,44.424 132.983,44.724 133.129,44.789 133.733,44.589 133.91,44.591 134.277,44.738 134.456,44.75 
		134.794,44.936 134.918,44.926 135.145,44.948 135.511,45.107 135.877,45.19 136.135,45.316 136.357,45.361 136.571,45.487 
		136.696,45.574 136.873,45.62 137.228,45.812 137.422,45.915 137.566,46.042 137.669,46.031 137.776,46.081 138.169,46.382 
		138.401,46.404 138.45,46.41 138.83,46.705 138.928,46.744 139.001,46.779 139.644,47.085 139.889,47.201 140.164,47.278 
		140.32,47.382 140.55,47.515 140.66,47.649 140.723,47.723 141.028,47.953 141.255,48.024 141.47,48.184 141.618,48.299 
		141.833,48.601 142.038,48.694 142.262,48.891 142.456,48.984 142.655,49.165 143.275,49.773 143.332,49.843 143.394,49.921 
		143.606,50.315 143.703,50.386 143.837,50.572 143.977,50.627 144.181,50.818 144.35,51.082 144.397,51.316 144.223,51.821 
		144.189,52.028 144.274,52.258 144.235,52.497 144.305,52.611 144.276,52.775 144.199,53.248 144.201,53.82 144.27,53.989 
		144.335,54.051 144.545,54.105 144.604,54.003 144.663,53.975 144.75,54.021 144.83,54.026 144.889,54.031 144.976,53.936 
		144.996,53.913 145.016,53.91 145.163,53.896 145.294,53.772 145.379,53.773 145.523,53.916 145.594,53.916 145.6,53.835 
		145.769,53.84 145.82,53.841 145.923,53.766 146.079,53.832 146.181,53.816 146.236,53.866 146.261,53.889 146.531,54.418 
		146.749,54.991 146.738,55.155 146.661,55.361 146.67,55.666 146.7,56.026 146.768,56.179 146.807,56.267 146.945,56.425 
		147.16,56.443 147.411,56.521 147.465,56.604 147.452,56.87 147.505,56.984 147.763,57.16 148.307,57.725 148.745,57.979 
		148.816,58.04 148.868,58.084 149.055,58.15 149.265,58.282 149.543,58.34 149.827,58.516 150.094,58.556 150.352,58.759 
		150.445,59.011 150.375,59.276 150.229,59.526 150.128,59.923 150.123,59.944 149.794,60.264 149.462,60.675 149.128,60.962 
		148.886,61.106 148.567,61.432 147.911,61.858 147.823,61.917 147.357,62.43 146.842,62.809 146.56,63.101 146.34,63.262 
		146.236,63.306 145.56,63.596 145.464,63.638 144.523,63.971 144.21,64.218 143.716,64.461 143.301,64.807 142.95,64.909 
		142.555,65.026 142.34,65.041 141.953,65.191 141.47,65.227 141.154,65.166 140.903,65.045 140.608,65.021 140.421,64.938 
		140.201,64.948 140.107,64.993 140.002,65.045 139.599,65.152 139.201,65.505 138.755,65.719 138.687,65.785 138.465,66.23 
		138.318,66.365 137.799,66.614 137.765,66.622 137.566,66.663 136.918,66.986 136.718,67.27 136.562,67.409 136.412,67.61 
		136.251,67.741 135.972,67.865 135.607,67.913 135.28,68.026 134.975,68.156 134.909,68.221 134.904,68.346 134.829,68.585 
		134.668,68.634 134.594,68.656 134.184,69.166 133.974,69.35 133.91,69.471 133.941,69.961 133.865,70.26 133.716,70.554 
		133.36,70.912 133.312,71.104 133.291,71.188 133.123,71.487 132.944,72 132.854,72.064 132.593,72.021 132.398,72.395 
		131.835,73.054 131.557,73.242 131.396,73.353 131.214,73.396 131.134,73.373 131.091,73.252 131.14,72.872 131.092,72.769 
		130.596,72.451 130.318,72.145 130.099,72.015 129.745,71.96 129.503,71.868 129.424,71.839 129.179,71.669 128.633,71.188 
		128.483,71.118 128.076,71.035 127.687,70.855 126.897,70.586 126.819,70.56 126.669,70.418 126.493,69.917 126.316,69.595 
		126.05,69.264 125.936,68.963 125.852,68.396 125.861,68.091 125.957,67.948 126.007,67.874 125.889,67.656 125.884,67.563 
		125.996,67.389 126.056,67.21 126.04,67.008 126.174,66.648 126.156,66.562 126.237,66.398 126.217,66.05 126.286,65.549 
		126.281,65.353 126.331,65.103 126.491,64.285 126.464,63.763 126.566,63.354 126.315,62.319 126.223,62.202 126.091,62.035 
		126.052,61.871 126.118,61.578 125.999,61.388 125.957,61.24 125.827,61.065 125.769,60.902 125.684,60.4 125.85,60.118 
		125.834,60.021 125.742,59.928 125.646,59.917 125.527,59.954 125.415,59.855 125.32,59.834 125.275,59.822 125.195,59.677 
		125.21,59.474 125.174,59.295 125.008,58.93 125.056,58.604 125.035,58.499 124.798,58.058 124.874,57.905 124.856,57.856 
		124.754,57.78 124.766,57.523 124.69,57.176 124.637,57.105 124.572,57.018 124.519,56.832 124.379,56.647 124.32,56.406 
		124.336,56.331 124.213,56.222 123.981,56.174 123.798,56.004 123.514,55.896 123.449,55.83 123.408,55.681 123.406,55.671 
		123.508,55.438 123.481,55.296 123.374,55.176 123.325,55.007 123.072,54.816 123.019,54.68 122.981,54.348 122.933,54.244 
		122.832,54.18 122.695,54.092 122.669,54.026 122.879,53.754 122.863,53.629 122.992,53.362 122.954,53.134 122.986,52.965 
		123.098,52.801 123.39,52.583 123.788,52.192 124.025,51.87 124.066,51.828 124.418,51.479 124.579,51.244 124.739,51.119 
		124.944,51.032 125.105,51.022 125.22,51.017 125.418,51.07 125.516,51.059 125.655,50.957 125.79,50.924 125.801,50.859 
		125.741,50.651 125.796,50.548 125.925,50.411 125.968,50.309 126.105,50.194 126.124,50.178 126.162,49.971 126.242,49.89 
		126.264,49.764 126.566,49.58 126.425,49.421 126.458,49.269 126.54,49.121 126.541,49.121 126.674,49.083 126.749,49.024 
		126.738,48.899 126.969,48.932 126.969,48.823 127.097,48.654 127.31,48.371 127.386,48.316 127.806,48.101 127.881,47.74 	"/>
</g>
</svg>
