<?xml version="1.0" encoding="utf-8"?>
<!-- Generator: Adobe Illustrator 21.1.0, SVG Export Plug-In . SVG Version: 6.00 Build 0)  -->
<svg version="1.1" id="Layer_1" xmlns="http://www.w3.org/2000/svg" xmlns:xlink="http://www.w3.org/1999/xlink" x="0px" y="0px"
	 viewBox="0 0 153 64" style="enable-background:new 0 0 153 64;" xml:space="preserve">
<style type="text/css">
	.st0{fill:#BAC9CF;}
</style>
<title>Group</title>
<desc>Created with Sketch.</desc>
<g>
	<polygon class="st0" points="-19.6,-2.2 -21.3,-1.4 -22.1,-0.3 -22.5,0.9 -24.2,2.3 -24.2,3.7 -25.5,5.3 -24.9,6.5 -24.9,7.4 
		-26.1,8.2 -25.2,10.1 -25.1,11.9 -24.7,12.6 -23.4,13.4 -23.2,14 -23,14.5 -23.3,15.2 -24.2,17 -22.8,19.5 -21.3,20.1 -20.4,21.1 
		-20.7,21.5 -21.5,21.1 -22.4,21 -22.6,21.9 -21.2,22.3 -20.8,22.6 -19.9,22.9 -19.9,23.6 -20.8,23.6 -21.1,25.6 -19.6,25.2 
		-18.6,24.7 -18.6,24.1 -18.8,23.7 -18.8,23 -18.3,23.2 -15.9,26 -15.9,28.3 -16.9,30.2 -15.3,31.9 -15.3,33.1 -14.9,34.6 
		-14.7,35.6 -14.9,36.9 -14.1,38.5 -14.3,39.1 -14,39.9 -13.6,39.9 -12.1,38.6 -11.1,39.2 -11,40.2 -9.8,40.2 -9.4,40 -8.4,40.7 
		-6.6,39.9 -5.8,39.4 -4.4,39.5 -3.8,40 -2.8,39.9 -2.1,39 -1.7,39 -1,40.7 -1,44.8 -0.5,44.6 1.1,43.7 2.6,42.9 3.2,42.5 4.8,43.4 
		5.1,43.5 5.8,43.5 8.7,41.5 8.8,39.9 9.5,40 11.8,42.2 12.7,41.7 14,41.4 14.2,44 15.6,44 16.9,43.1 18.7,43.1 21.1,44.4 
		21.2,43.7 21.6,43.8 21.8,44.6 22.5,45.6 22.7,49 23.6,49.7 27.8,47.5 31,46.2 33.3,45.2 33.9,44.7 34.5,42.9 35.4,42 35.1,40.4 
		34.9,39.6 35.5,39.2 35.9,39.6 36.5,39.8 36.8,39.2 37.1,37.3 37.2,36.1 38,35.8 38.7,34.4 38.7,33.6 38.1,33 37.4,32.9 37.4,31.9 
		37.7,31.3 37.7,30.6 37.3,29.9 36.5,30.1 36,30.3 35.6,30 36.1,29.5 36.5,29 37.4,28.6 38.3,28.3 38.3,27.4 39.3,26.7 40.2,26.3 
		40.2,25.6 39.9,25 39.7,24.3 39.9,23.9 40.3,23.4 40.6,23.6 40.5,24.5 40.8,25.4 41.5,25.2 42.5,24.9 44.9,22 45.3,22 45.5,22.3 
		46,22.3 46,21.4 46.4,21.4 46.5,21.7 47,21.8 47,21.4 46.8,21.3 46.4,21 46.4,20.5 46.6,20.2 46.9,20.4 47.3,20.1 47.3,19.5 
		46.1,19.5 46,18.9 46.4,18.4 46.4,17.6 45.8,17.1 45.8,16.5 46.7,13.4 46.7,12.6 47,11.8 47.6,11 49,8.3 50.8,8.3 50.8,7.7 
		50.5,7.4 50.5,6.7 51.1,6.7 52.6,7.6 53.6,7.9 54.7,7.9 56.2,7.6 56.7,7.6 57.4,8.2 58.4,7.2 58.5,6.6 58.8,6.2 57.7,5.9 55.5,3.6 
		54.5,3.5 52.1,1.4 49.6,-1.4 48.7,-1.6 48.6,-2.2 49.5,-2.3 49.8,-3 50.5,-3.8 50.8,-3.8 51.5,-4.3 49,-7.1 48.9,-7.9 48.3,-8.4 
		48.2,-9.1 47.9,-9.8 46.6,-11.1 46,-11.4 44.8,-11.8 44.8,-12.1 45.9,-12.8 46.7,-13 47.2,-12.7 47.5,-12.5 47.7,-12.6 47.7,-13.7 
		47.1,-13.7 46.5,-13.6 46.1,-13.3 45.7,-13.4 44.6,-14.1 44.5,-14.7 45.2,-14.7 45.5,-14.4 47.2,-14.4 47,-14.9 46.4,-15.6 
		46.5,-15.9 46.9,-16.1 47.8,-15.7 48.3,-15.7 49,-16.2 49,-16.9 48.2,-17.4 46.2,-19.4 46.1,-19.8 47.5,-20.2 46.2,-20.2 
		44.5,-21.8 38.7,-22.1 37.7,-21 35.5,-22 34.3,-20.9 33.2,-21.9 30.3,-18.2 31,-13.9 29.7,-10.3 28.1,-10.7 26.8,-9.1 26.4,-6.8 
		27.4,-6.2 23.8,-3.9 24.6,-1 23.3,-0.7 21.9,3 16.9,2.7 14.7,4.7 11.5,4 8.6,3.1 9,1.7 4.5,1.7 2.3,2.8 1.9,5 0.9,5.6 -2.5,6.3 
		-3.5,7.1 -6.1,5.6 -11.4,7.9 -14,6.6 -19.1,1.4 -20.3,-1.2 	"/>
	<path class="st0" d="M110.6,2.7h0.8V2l-0.7-1.1l-1.4-0.3l-0.7,1l-0.2,0.7l-0.6,0.3l-1.3,0.6l-0.3,0.5L105.9,5l-1.6,0.3L104,5.7
		l-0.3,0.9L102.6,7l-1.1,0.5L100.9,8h-2l-0.8-0.5L96,7.5l-1.6-0.3L94,7.6l-1.2-0.5l-0.3-0.2l-1.3,1.4l-1.9-1.4l-4.2-0.7l-1.4-0.3
		l-1.1,0l-1.9,0.5l-1.2-1.1l-0.1-1.1l-1.6,0.6l-1.6-1l-0.8,0l-1.3,1.7l-1.4,2.9l-0.6,0.2l-2.3-0.9l-0.4,0.7l-1.2,0.6L68,10.8
		l-1.1,0.3l-1,1.7v0.7l0.4,1.3l0.3,0.2l0,0.7l-0.7,0.6l-0.2,1.3v1l0.7,2l0.2,0.6l0,1l-0.3,0.3h-0.5l-0.1-0.7l-0.3-0.8l-1.7,1.9
		l-0.6,0.8l-0.6,1.3l-0.7,0.6V29l0.2,1.2v1.2l-1.2,0.8l-0.3,1.1v0.8L60.2,35v0.3l-0.9,1.3v0.3l-0.4,0.3L58,37.5v2l-0.3,0.8l-0.2,1.1
		l0.2,0.9l0.3,1.1l0.6,0.7l0.5,0.4h0.3l1.5-0.3l0.6-0.3l1.2,0l1,1.3l0,2.3l0.8,1.2l0.2,0.4l0,3l-0.3,0.4l-0.3,1.1l-0.6,0.8L63.4,57
		l-0.6,1.1v0.5l-0.3,0.5l0,1.1l0.4,1.3l0.9,0.6l0.8,0.2l1,0.4l0.7-0.3l0.3-0.5l2.8-0.2l0.6-0.4l0.3-0.2l0.6,0.6l0.4,0.5l0.1-1.7
		L71,59.9l-0.9-0.8L70,56.6l0.2-0.5l0.3-1.1l0.4-0.7l0-0.9l-0.3-1.3l-0.1-3.4l-0.2-1.2l0.2-0.6l0.6-0.6l0-0.5l-0.3-1.8L70.6,42
		L70,41.5L69.3,40l0.1-0.6l1.3-0.6l1.5-0.9l1.4-0.9l0.6-0.3l0.6,0.3l1.2,0.5l0.9,2.2l0,0.8l-0.3,0.9L76.6,42l-1.2,1.5L75,44.2
		l0.3,0.7l1.6,1.3l0.8,0.6l0.7,0.5l0.5,1l1.6,0.3l0.6,0.3l0.1,0.9l-0.1,0.9c-0.1,0.3-0.3,0.5-0.4,0.8c-0.2,0.2-0.3,0.4-0.5,0.5
		c-0.1,0.4-0.2,0.8-0.2,1.2c0,0.4,0.1,0.8,0.1,1.2c0.2,0.2,0.3,0.4,0.5,0.6l1.2,0.4l1.7,0.5l0.9,0c0.1-0.3,0.2-0.6,0.2-0.8l0.4-1.1
		l1.3-1.3l1.6-0.5l1.1-0.3l1,0.3l0.7,0.6l0.5,0.1l0-0.2l-0.5-0.4L90.3,52v-0.6l0.3,0.2l0.5,0.4l0.7,0.2l0.1-0.4l0.1-0.8l-0.1-0.7
		l-0.1-1l-0.6,0.4l-1,0l-0.5-0.8l-0.2-0.4l0.4-0.7l-1.3-0.2l-2.5-2.2L86,44.9l0.3-0.7l0.3-1.1l0.3-0.8l1.1-0.7l-1.2-0.9l-0.1-0.5
		l0.3-0.6l-0.6-0.4l-1.8-1.3l-0.3-1.5l-1.9-2.4l-0.8-0.8l-1-0.3l-0.8-1.4l-1-1.2L78.6,30l0.2-0.4l0.6,0.2l1,0.6l0.7,0.6l0.5,0.1
		l0.4-0.2l0.5-0.8l0.3-0.8l0.3-0.6l0.6,0.1l0.6-0.2l0.7-0.6l1.3-0.6l1.6-0.6l0.6-0.8l1.4-1.9l1.2-1.5l0.5-0.5l1.1-0.2l0.7-0.2
		l0.6,0.2l0.9,1l0.4,0.4l0.4-0.3l1-1.3l-0.3-1.4l-1.3-0.7h-0.8l-2.5,0.4l-0.4,0.3v0.4l0.4,0.5l-0.4,0.3l-3.6-0.2l-0.6,0l-1.6,1.4
		L83.5,23L82,22.8l-0.3-1.1l-0.6,0L80,22.5l-0.9,1.2l-1.3,1.5l-0.3,0.6l-0.2,0.8l-2.2,0.3L73,26.5l-0.2-1.1l-0.4-1.1L71.4,23
		L70.7,23L70,22.8l-1.5-1.9l0-2.2l-0.6-0.8l0-1.4l0.2-0.7l0.3-1.3l0.3-0.9l2-2.8l1-0.2l0.6-0.3l0.9,0.1l0.8,0.2l0.6,0.3l0.8,0.3
		l1.2-0.1l1.4-0.2l2.1-0.3l0.8-0.3l1.1,0.1l0.7,0.3l2.1,0l1.3-0.2l0.6,0.2l0.6,0l0.6-0.3l2.5,0l0.6,0.3l2.4,0l1.2,0.6l1.7,0.9l1-0.1
		l1,0.3l1.1-0.1l0.8-0.4l1.8-0.3l1.1-0.3l1.6-0.4l1.5-1l0.5-1.1l0.7-0.9l0.4-0.7l0.9-0.6l1.3-1.2l0.6-1l0.4-0.9l0.3-0.6L110.6,2.7z"
		/>
	<polygon class="st0" points="82.8,58.6 83.2,58 84.3,58.1 84.9,58.8 84.7,60.8 83.8,60.8 83.7,60.2 83.4,59.6 	"/>
	<polygon class="st0" points="34.7,43.6 35.6,42.4 36.1,42.2 36.2,44.5 36.7,44.7 37.3,44 37.5,44.7 37.1,45.6 36.6,45.2 36.3,46 
		36.5,46.8 36.5,47.4 35.1,48.8 34.7,47.5 34.7,46.6 34.4,45.2 34.4,44.5 34.7,44 	"/>
	<polygon class="st0" points="71.4,64 71.4,65.7 71.1,66.4 71.4,66.9 71.8,67.3 72.2,66.7 72.3,65.7 72.1,65.1 71.6,64 	"/>
	<polygon class="st0" points="91.1,27.1 92.2,28.2 93.7,26.4 94.2,26.4 94,27 94,28.4 94.7,27.9 95.1,27.1 95.5,26.7 96.1,27.1 
		96.8,27.2 97.1,26.8 97.1,26.2 96.1,25.7 95.6,25.7 95.3,26.3 95,26.6 94.6,26.3 94.3,25.9 94.6,25.5 94.4,25.2 92.3,25 91.1,26.5 
			"/>
	<polygon class="st0" points="81.8,19.1 83.2,18.2 83.9,18 84.6,18.5 83.8,19.1 82.7,19.2 	"/>
	<polygon class="st0" points="93.1,48.4 92.7,49 92.5,49.9 93.3,50.6 94.1,50.6 94.8,49.7 94.5,49.2 93.9,49.1 	"/>
	<polygon class="st0" points="89.9,54.1 89,54.3 88,55 87.4,56 87.7,57.3 87.4,58.5 87.1,59.5 87.1,60.3 88.4,60.5 89.5,60.8 
		89.6,61.9 89.9,62.8 91,62.6 91.4,61.3 91.8,60.4 93.6,60.2 94.4,59.4 93.5,58.6 92.8,58.6 92.4,58.7 92.3,58.4 92.5,57.1 93,55.2 
		94.2,55.1 94.4,54.2 94.1,53.2 93.7,52.8 92.6,52.7 91.8,52.8 91.5,53.7 91.7,54.6 91.5,55.6 91.3,57 90.9,58.4 90.7,59.1 
		89.9,59.7 89.5,58.8 89.5,57.8 90.5,56.7 90.5,55.9 90.1,55.2 	"/>
	<polygon class="st0" points="104.3,29.2 104.6,31.9 107.8,31.2 110.1,30.7 110.7,30.4 111.3,30.5 112,30.8 112,30.2 111.6,29.7 
		108.5,29.4 108,29.2 105.8,29 	"/>
	<polygon class="st0" points="112.9,30.4 113.3,31.1 117.7,31.1 119.5,30.4 118.9,30.2 113.2,30.2 	"/>
	<polygon class="st0" points="117,32 117.5,32.4 117.6,33.7 118.1,35.3 117,33.7 	"/>
	<polygon class="st0" points="118.2,42.1 118.2,42.7 119.2,44.9 120.5,45.5 121.8,46.3 123.6,47 124.8,47 126.5,46.1 128.2,45.3 
		128.2,43.4 127.3,43.4 126.7,43 126.9,42.3 126.6,41.8 125.9,41.4 125.6,41.6 124,40.6 123.5,40.9 121.8,41 119.9,41.4 	"/>
	<polygon class="st0" points="133.7,41.6 133.9,44.2 134.3,44.6 134.6,43.4 134.9,42.7 135.3,41.6 135.6,41.1 136.3,41.3 
		137.1,41.9 138.1,43.4 138.4,43.8 139.6,43.8 140.3,42.9 140.9,42.6 141.6,42 141.9,41.8 142.4,42.3 142.9,43 143.9,43.2 
		145.8,43.7 147.7,43.7 147.8,42.5 149.2,42.5 150.8,43 152,44.2 153.1,44.6 154,44.8 154.7,45.3 155.6,45.8 156.6,46.3 157.5,46.9 
		158.2,47.2 158.5,46.9 158.7,45.3 158.5,44.5 158.1,43.8 157.1,43.7 156.8,42.7 156.5,41.8 155,40.3 152.4,40.3 151.7,40.5 
		151.2,40.1 150.3,39.7 148.3,38.7 146.6,38.5 146,38.7 144.8,39.7 144.1,40 143.8,39.5 143.6,38.8 143.2,38.8 140.8,39 136.8,39.2 
		135.6,40.4 135,41 	"/>
	<polygon class="st0" points="134.5,45.7 134.9,46.5 136.1,45.8 137.5,45.2 137.2,44.6 136.7,44.7 136,45.3 135.1,45.4 	"/>
	<polygon class="st0" points="138.3,44.8 138.3,45.4 140.5,45.3 140.3,44.8 139.4,44.6 	"/>
	<polygon class="st0" points="129.8,27.9 130.4,29.3 131.3,29.3 132.3,29 133.2,29.1 134.1,29.3 135.2,29.3 135.8,28.6 134.8,27.9 
		133.3,27.1 132.6,26.4 131.3,26.4 130.6,27 	"/>
	<polygon class="st0" points="132.4,22.2 133.4,21.6 132.7,21 131.8,20.7 131.5,19.8 131.5,18.4 130.7,17.8 129.5,17.8 128.9,18.7 
		129.5,19.9 130.1,21 130.5,21.6 131,21.4 131.5,21.1 131.9,21.2 132.2,21.9 	"/>
	<polygon class="st0" points="129,21.3 128.4,21.4 127.8,20.9 128.2,20.3 128.6,20.6 	"/>
	<polygon class="st0" points="128,19.3 128.5,18.7 128.5,18 128.2,17.4 127.6,17.3 127.5,18 127.7,18.4 127.7,19.2 	"/>
	<polygon class="st0" points="137.7,22.2 136.2,20.3 134.9,18.1 133.9,15.5 133.6,14 133.6,11.8 133.8,10.9 134.8,10.9 135.2,10.7 
		135.5,10.9 136.9,11.2 138.4,11.4 139.4,11.7 140,12.1 141.2,12.4 140.7,11.6 140.1,10.7 139.4,10.3 138.3,9.6 136.7,8.8 
		136.7,8.3 137.1,7.6 138,7 139.3,6.3 140.4,5.7 140.7,4.5 140.7,3.4 139.7,1.8 138.3,2.1 135.8,4.2 135.8,5.5 134.6,5.9 134.2,6.8 
		133.9,7.6 133.4,8.1 132.3,8 132.1,7.3 131.6,6.7 132.1,6 134.7,3.8 134.7,0.6 133.7,-0.2 133.4,-0.5 133.4,-1 134.3,-2 
		134.6,-2.5 134.7,-3.2 134.2,-3.4 132.3,-1.4 132.2,-0.8 131.6,-0.2 131.3,0.5 131,1.1 130.7,2.1 130.4,3 130,3.7 130,4.8 130.7,6 
		130.5,7.2 130.7,7.7 131.4,8 131.6,8.4 131,9.4 130.8,9.8 131.3,11.5 131.8,11.8 132.5,12.3 132.5,13.2 132.2,14.6 132.2,16.9 
		132.4,17.3 133.6,17.8 134.2,19.1 134.9,20.5 135.8,21 136.7,21.7 	"/>
	<polygon class="st0" points="137.2,-2.5 137.2,-4.9 138.4,-6.7 139.4,-6.3 140.2,-5.9 139.7,-4 139.3,-2.9 138.5,-2.5 137.5,-2.3 	
		"/>
	<polygon class="st0" points="155,31.5 154.6,30.9 155,30.4 154.4,29.5 154,29.2 153.4,29.5 151.7,29.5 150.8,30.1 149.8,30.5 
		150.2,31.3 151.1,31.7 152.1,31.9 153,32.2 153.7,31.8 	"/>
	<polygon class="st0" points="153.6,16.6 154.3,16 154.7,16.7 155.1,16.9 155.2,16.6 154.9,16 155.6,15.7 156.4,15.5 160.4,15.4 
		162,16.4 161.9,17.8 159.3,17.8 158.5,18.5 157.6,18.1 157,17.3 156.2,18 155.8,17.6 155,17.4 154.3,17 	"/>
	<polygon class="st0" points="155.3,22.2 155.9,22.7 157.1,22.3 158.6,22 158.6,21.4 157.3,21.8 156.5,21.8 156.2,21.6 155.8,21.9 	
		"/>
	<polygon class="st0" points="157.2,23.5 158.1,22.8 158.9,22.7 160.5,23.8 160.2,25.3 160.3,25.5 161.6,25 162,23.7 162.3,22.1 
		164.1,21.4 167.3,20.9 169,19.3 171.3,18.1 173,18.1 174.6,18.3 176.1,19 177.4,19.6 178.5,20 180,21.2 185,21.3 185.6,22.2 
		185.7,24.2 186.7,25.3 187,26.6 186,28.4 185.7,29.4 185.9,30 186.1,31.5 186,33.1 187,35.2 188,37.4 188.7,38.6 189.5,38.6 
		189.5,37.3 189.3,36.2 189.5,35.7 190.2,35.8 190.5,36.3 190.7,38.7 190.9,39.8 191.7,40 192,40.5 192.4,41.6 192.7,42.5 
		193.6,43.1 195.7,43.3 197.9,43.3 199.3,41.3 200,40.6 201.1,40.3 201.5,39.4 201.8,38.5 202.2,37.7 202.8,38.4 203.8,39.5 
		204.5,40.3 205.1,40.3 204.8,39.6 204.1,38.8 203.4,38.1 202.7,37.5 203,37.3 203.7,37.2 204.1,35.9 204.7,34.3 206,33.8 
		206.8,33.8 207.9,34.1 208.8,34 209.9,33.4 211,33 211.9,32.3 211.9,31.1 211.2,30.2 211.6,29.7 212.7,29.5 215.3,28.3 216.8,27.4 
		218.7,28.2 220.6,29.2 222.5,29.8 224.4,30.4 225.9,31.7 228.1,32.4 229.6,33 231.3,33.7 232.9,34.7 233.9,35.1 235.3,34.9 
		237,34.9 239.3,35.5 241.5,36.1 241.7,36.9 243.8,37.1 243.8,68.1 242.5,71.2 244,72.9 244,92 242.9,91.1 242,90.2 240.2,88.7 
		239.8,87.8 235.3,83.7 235,83.1 233.4,83.2 231.9,83.8 231.1,84 230.1,83.6 228.9,82.9 227.7,83.5 227,84.3 226.8,85.2 226.4,84.8 
		226,84.1 225.6,84.1 225.9,84.6 226.2,85.3 225.8,85.7 223.7,85.4 223.2,84.9 222.7,85.1 221.3,85.9 218.7,85.4 216.1,85.8 
		215.9,85.3 216.5,83.5 217.4,81.5 218,80.3 220.3,78 221.6,77.5 225.6,77.5 226.7,78.8 227.9,78.8 227.7,78 226.7,78 226.4,77.2 
		226,76.6 225.1,76.2 225.2,75.7 226.8,75.8 228.1,76 228.3,75.5 227.5,75.2 226.7,75.2 225.6,74.9 223.8,73.6 223.8,73.1 
		224.3,72.9 224.5,72.3 224.8,71.5 224.5,70.5 222.5,68.6 221.9,67.1 221.7,65.9 221.2,65 221,64.2 220.3,63.6 219.9,63.4 
		219.7,62.9 219.4,61.5 219,61 215.2,57.9 213.4,57.2 212.6,56.8 210.8,56.5 210.2,55.9 208.2,55.7 206.9,55 205.7,54.4 203.4,53.8 
		201.4,52.5 197.9,52 195.7,52.3 194.7,52.2 193.8,51.6 193,50.9 192.7,50.4 191.8,50.1 191,49.7 190.9,48 190.3,48.1 189.4,48.8 
		189,48.6 188.9,47.9 188,47.9 187.7,48.3 186.6,47.5 186.2,47.2 185.9,46.6 185.5,47.1 184.6,47.3 184.3,46.1 184,45.2 183.7,44.8 
		183.4,45.6 183,45.8 182.8,44.9 182.4,44.3 182.4,43.8 182.7,41.9 183.2,41.7 183.9,40.7 183.9,39.7 183.6,39.5 183.3,39.9 
		182.2,41.2 182,42.7 181.8,43.7 181.4,44.7 180.1,46.1 180.2,46.7 180.4,47.1 178.9,49 177,49.4 176.5,49.3 175.4,48.2 174.7,46.2 
		174.8,45.8 175.8,45.6 175.5,43.9 174.8,42 174.5,42.4 173.8,42.3 173.4,42 173.2,41.3 172,40.2 171.1,39.8 170.5,39.2 169.6,39.3 
		169.4,39.6 168.7,39.5 168.6,38.2 169.7,37.6 171.6,37.8 173.7,38.4 174.7,38.4 177.5,35.6 179.3,35.6 179.6,35.9 179.7,36.5 
		180,36.5 180.1,36.1 180.5,36.1 181,36.6 182.2,36.7 182.4,37 182.7,36.4 183.2,36.6 183.4,36 184.1,35.1 184,34.1 183.5,33.3 
		182.1,33.4 181.5,33.4 181.3,32.7 180.7,32.5 180.4,32.7 180.8,33.3 181.2,33.7 180.4,33.7 179.1,33.4 177.4,33.4 175.6,34 
		174.4,34.3 173.4,33.4 173,33.2 171.3,34.2 170.2,33.4 169.5,33.2 168.6,32.1 167.8,30.9 168,30.1 168.6,29.5 168,28.9 166.8,28.3 
		164.1,27.1 163.3,27.3 162.8,26.9 162.3,27.3 159.7,26.9 160,26.1 158.8,26.1 158.4,25.6 157.8,24.6 	"/>
	<polygon class="st0" points="186.2,65.6 187.2,66.2 187.8,65.9 187.8,63.7 187.4,63.3 188,62.7 189.3,61.3 190.4,61 190.6,61.5 
		190.6,62.3 191.2,62.3 191.4,62.7 191.1,63.4 191.4,64 191.4,66.7 190.5,68.6 189.7,69.8 189.2,69.8 188.8,71.1 187.5,72.7 
		186.9,72.6 185.6,71.9 186,69.9 186.1,69.2 	"/>
	<polygon class="st0" points="196.8,20.6 197.7,21.9 198.8,21.5 199.7,21.7 200.6,24.4 202.5,25 203.4,25 204.7,24.2 204.1,23.9 
		203.2,23.7 200.7,21 200.1,21 199,20.8 197.1,20.4 	"/>
	<polygon class="st0" points="197.8,29 200.7,29.9 202.9,30.3 204.7,30.7 205.7,30.7 206.6,30.2 208.3,29.9 207.6,29.6 205,29.4 
		203.8,29 201.6,29 199.9,28.9 198,28.7 	"/>
	<polygon class="st0" points="173.7,62.1 173.7,63 174.4,64.6 175,63.6 174.6,62.7 174.1,62.1 	"/>
	<polyline class="st0" points="176.2,63 176.2,62.6 177,61.6 177.3,60.7 177.6,60.1 177.9,61 177.4,61.9 176.2,63.1 	"/>
	<polygon class="st0" points="161,81.6 162.1,82.5 164.9,79.1 165.2,79 165.5,77.4 165.8,75.8 165.8,75.2 164.9,75 161.6,78.8 
		161.6,79.8 161,79.9 	"/>
	<polygon class="st0" points="149.6,82.7 150.2,81.5 149,80.9 148.5,81.2 148.5,82 149,82.5 	"/>
	<polygon class="st0" points="116.8,80.6 117,82 118.2,81.3 119.5,81.6 120.8,81.5 121.9,82 122.4,81.3 122.9,80.4 123.5,80.4 
		123.8,80.1 124.6,80.3 124.6,79.9 123.1,78.8 122.3,79.3 120.7,79.7 118.7,80.2 117.2,80.3 	"/>
	<polygon class="st0" points="105.2,83.6 104.9,84.8 104.9,86.1 105.7,85.9 107.5,85.7 109.8,85.4 110.1,84.5 110.1,84 107.3,83.9 
		105.7,83.6 	"/>
	<polygon class="st0" points="102.6,86.3 103.7,85 103.4,83.9 102.3,85 101.1,85.6 100.8,86.1 101.8,86.3 	"/>
	<polygon class="st0" points="98.7,84.5 98.6,85.7 97.9,86 97.4,86.3 97.4,87 94.7,87 95,86.4 95.6,85.9 96.4,85.7 97.3,85.6 
		98.4,84.5 	"/>
	<polygon class="st0" points="95,85.7 95.3,84.8 94.1,84.5 93.3,84.8 92.5,84.5 92,83.7 91.5,83.1 90.8,83.8 91,83.9 91.7,83.9 
		91.8,84.7 91.5,85.2 90.2,85.4 89.2,85.7 88.6,86.5 88.6,87.4 87.3,87.7 86.1,87.7 84.3,86.4 81.4,86.7 80.7,87.4 80.5,87.7 
		79.9,87.7 79.4,87.1 78.2,86.4 76.6,85.9 74.6,85.4 72.7,84.5 69.5,85 68.1,86.2 66.7,86.8 66.3,87.6 66.3,88.9 67,89.6 67.3,89.3 
		68.3,89.3 69.1,89.6 69.9,89.3 71,89.4 72.2,89.6 73.7,89.4 74.8,89.4 75.3,90.2 77,90.2 78.7,89.9 79.1,89.2 80.2,89 81.3,89.3 
		82.3,89.8 83.2,89.5 84.2,89.2 85.2,88.6 86,88.4 86.8,88.6 87.4,88.8 88.1,88.3 89.1,88 90.4,87.7 90.9,87.3 91.1,86.5 91.9,85.7 
		92.5,85.2 93.1,85.7 94,85.8 	"/>
	<polygon class="st0" points="101.5,93.7 104.2,95 105.1,92.4 106.3,92.2 108,91.1 109,90.5 109.5,91.4 111,91.3 111,92.4 
		109.8,92.3 110.3,94.8 109.2,95.9 107.9,97.6 106.3,99.2 104.3,100.7 103.1,100.7 101.7,100.8 99.1,102.3 98.1,102.3 97.1,101.8 
		97.3,101.2 97.9,100.5 98.9,100.4 99.1,99.9 98.7,99.5 98.1,98.7 98.5,97.1 99.1,95.8 99.6,95 	"/>
	<polygon class="st0" points="91.8,106 91.4,107 92.6,106.8 93.8,106.5 94.8,106 95.4,105 96,103.8 94.9,104.4 93.7,105.1 	"/>
	<polygon class="st0" points="74.2,100.4 74.5,100 74,99.1 73.2,98.6 72.8,97.4 72,97 71.1,96.4 70.2,96.6 69.2,95.7 68,94.6 
		67.3,94.1 66,94.1 65.7,94.5 65.1,94.2 60.8,94.1 59.1,95.4 58.9,95.8 59.6,96.6 60.3,96.8 61.8,97.2 63.6,97.1 64,97.4 64.9,97.8 
		65.6,98.5 66.6,99.1 67.3,99.4 68.3,100.4 69.1,101.3 70.2,101.6 70.9,101.6 71.8,101.2 73.1,100.9 	"/>
	<polygon class="st0" points="58.9,85.1 59.6,88.4 59.2,88.6 58.8,88.1 57.8,88.4 54.9,89.9 53.9,88.4 53.4,88.4 52.3,89.5 
		49.8,90.4 49.2,90 47.3,90.8 46.5,90.8 45.7,91.2 44.9,91.1 44.3,90.8 43.8,91 43,91.8 42.1,91.4 40.7,91 40.4,90.4 40.5,88.7 
		40.8,87.5 42.4,86.5 43.7,85.7 44.6,86.2 45.3,86.3 45.9,86.1 47.6,86.2 47.9,87.2 48.9,88.5 51.3,88.5 52.6,88.1 53.2,87.6 53,87 
		52.3,86.9 51,86 50.4,85.9 49.7,85.5 48.7,84.4 48.8,83.7 49.7,83.2 51.1,83.2 52.8,85 53.7,85.5 54.1,85.2 55.2,84.6 55.9,84.9 
		56.7,85.5 57.3,85.2 58.3,85 	"/>
	<polygon class="st0" points="46.9,85.2 47.3,84.8 47.7,84 47.6,83.6 46.5,84 46.8,84.3 	"/>
	<polygon class="st0" points="33.3,89.2 35.5,89.7 37.3,90.4 38.3,88.6 39.7,86.6 40,86 40,85.2 38.7,84.6 36.3,84.6 35,85.8 
		34.7,88 34.5,88.7 33.5,88.8 	"/>
	<polygon class="st0" points="27,88.2 27.9,88.2 28.5,87.3 30.1,86.5 30.8,86.2 30.8,85.4 30.4,84.6 29.1,83.6 26.5,83.1 25.8,83.5 
		24.6,84.1 23.8,84 21.4,83.3 21.7,84.7 22.2,85.5 23.3,86.1 24.4,86.3 25.5,86.8 26.4,87.5 	"/>
	<polygon class="st0" points="21.4,88.8 21.9,88.7 21.9,88.1 20.8,87.1 20.2,85.8 19.9,85.1 20.2,84.6 20.5,83.2 20.9,81.9 
		20.8,80.9 19.5,80.6 18.1,79.9 17.6,79.2 16,79.9 12.6,80.1 11.9,80.7 10.9,80.2 8.9,79.6 7.9,79.3 7.4,76.5 6.8,76 5.9,75.7 
		5.8,74.3 5.2,73.8 3.9,73.1 1.2,73.1 0.4,72.5 -1.1,72.2 -2.2,71.9 -3,71.2 -4.2,71.3 -6,71.4 -7.6,69.3 -8.7,69.3 -8.9,69 
		-9.6,69 -10.7,70.1 -11,71.6 -11.9,72.7 -12.5,73.5 -13.1,73.6 -13.4,73.8 -13.6,73.5 -14.3,73.1 -16.8,73.2 -17.2,73.3 
		-17.5,73.1 -18.8,72.7 -19.6,72.5 -21.8,72.9 -22.5,73.1 -22.9,72.9 -24.2,72.1 -25,72.2 -26.4,72.5 -27.4,72.3 -28.5,71.5 
		-28.7,70.4 -28.9,69.5 -29.9,68.7 -30.5,68.4 -31.1,67.7 -31.6,67.7 -32.4,68.2 -33.3,67.7 -34.4,67.2 -35.7,67.7 -36.3,67.5 
		-36.8,67 -37.9,66.2 -38.6,65.3 -39.1,65.3 -39.4,65.4 -40.4,65.4 -40.7,65 -41.4,65.5 -41.6,66.1 -42.7,66.4 -43.9,66.2 
		-45.1,65.8 -46.4,65.5 -47.5,65.3 -48,65.6 -48.7,65.6 -49.6,64.7 -50.1,65 -50.7,66.2 -51.1,67 -51.3,68.4 -52,69.1 -52.9,70 
		-53.3,70.7 -53.9,71.9 -53.8,72.4 -49.2,72.4 -47.5,73.5 -45.4,73.6 -45.4,74.9 -46.5,76.7 -45.6,77.3 -41.6,77.6 -37.3,78.1 
		-35.7,79.2 -34.4,79.8 -32.5,80.4 -29.7,80.7 -28.9,80.3 -27.9,79.6 -26.2,79.6 -24.9,80.1 -24.3,80 -24,79.5 -22.4,79.5 -21,80.1 
		-19.7,80.4 -18.4,80.7 -17.1,81 -15.4,81.6 -13.4,82.6 -11.9,83.2 -11.1,83.6 -9.2,84 -7.5,84.3 -6.6,84.5 -5.5,84.3 -4.4,84.6 
		-2.2,85.1 -1.5,84.5 -0.8,84.3 1,84.8 4.1,85.5 6.1,86 7.4,85.7 9.2,85 10.1,84.5 10.8,84.5 11.9,85 13.3,86 14.7,86.4 16,86.8 
		17.2,87.4 20.1,87.6 	"/>
	<polygon class="st0" points="17.3,73 11.1,73 10.5,73.2 8,73.1 6.4,74.1 6.6,74.7 7.6,75.4 9.3,75.7 12.8,75.7 13.9,75.2 
		14.5,74.8 15.5,75 16.3,75.1 16.6,74.2 17.3,73.5 	"/>
	<polygon class="st0" points="-52.3,64 -51.9,63.2 -51.5,62.3 -51.1,59.5 -51.1,54.2 -50.9,53.3 -51.2,52.3 -51.3,51 -51.6,50.2 
		-51.2,49.1 -50.6,47.7 -50.9,46.8 -51.5,45.4 -51,44.3 -49.7,42.3 -49.3,42.1 -49.3,41.3 -49.6,40.6 -50.3,40.3 -51.7,39.7 
		-51.9,38.1 -52.3,37.9 -53.1,37.1 -53.4,35.4 -53.7,35.1 -56.5,34.9 -58.6,34.6 -59.5,35.1 -60.4,35.2 -60.8,35 -60.8,34.4 
		-59.6,33.4 -59.6,32.2 -61.1,32.2 -62.6,31 -63,29.3 -63.3,26.5 -63.6,25.5 -63.4,25 -63.4,24.6 -64.6,24.1 -65,23.9 -66,23.7 
		-68.6,23.5 -70.3,22.1 -70.9,21.9 -71.3,20.7 -71.6,20 -71.6,19.2 -70.3,18.1 -69.9,17.9 -69,17.8 -69.2,17.3 -71.5,17.1 
		-71.8,16.8 -70.3,15.2 -68.8,15 -68.6,14.5 -68.9,13.7 -69.1,12.8 -69.6,12.1 -70.6,11.7 -71.7,10.9 -72.4,10.4 -73,11 -74.1,11.8 
		-75.2,12.3 -76.4,13 -76.7,12.8 -76.4,12.3 -75.8,11.8 -75.2,11.6 -74.7,11.1 -74.8,10.2 -75.7,9.7 -76.8,9 -79,8.8 -80.5,7.5 
		-81.6,6.6 -82.1,5.2 -82.2,3.7 -83.7,2.4 -85.2,1.2 -86.8,1.3 -87.7,0.9 -88.6,0.8 -88.9,-0.8 -89.3,-1.8 -90.8,-3.3 -92.1,-4.4 
		-93.4,-4.1 -93.4,-2.6 -92.8,-2 -92.8,-1.5 -93.4,-1.8 -94,-2.5 -95.3,-3.3 -96.6,-3.9 -97.5,-5.8 -98.5,-7.6 -99,-7.1 -99.3,-6.8 
		-99.7,-7.4 -100.4,-9.4 -101.1,-10.4 -102.7,-11.7 -103.6,-12.1 -105.1,-13.4 -106.4,-14.1 -107.4,-15.1 -108.4,-15.5 -109.3,-16 
		-110.5,-16.6 -111.2,-17 -113.2,-19 -114.8,-19.5 -115.4,-19.4 -115.4,-19.8 -115.1,-21.1 -114.8,-22.1 -115.7,-23.1 -117,-23.1 
		-117.3,-24.3 -117.9,-25.9 -118.9,-26.6 -120.4,-28.2 -121.2,-29.1 -122.7,-28.5 -123.8,-28.3 -125.6,-29.1 -127.6,-29.2 
		-129.5,-28.8 -130.7,-28.7 -131.4,-29.2 -133,-29.7 -133.9,-30 -134.9,-30.9 -135.4,-31.6 -136.4,-31.8 -137.7,-32.2 -138.8,-32.2 
		-139.5,-32 -140.1,-31.5 -140.3,-30.3 -140,-29.1 -139.3,-27.5 -138.7,-25.7 -137.5,-24.4 -134.9,-21.9 -133.8,-20.8 -133,-20.4 
		-131.9,-19.1 -130.7,-17.7 -129.4,-16.7 -128.4,-16.7 -127.7,-16.9 -126.8,-16.3 -125.4,-15 -124.9,-14.1 -124.3,-13 -123.4,-12.1 
		-122.4,-10.5 -121.9,-9.9 -121.1,-9.6 -120.3,-9 -120,-7.7 -119.8,-5.2 -119.3,-4.8 -119,-6 -118.5,-7.1 -118.3,-8.2 -117.9,-8.7 
		-117.7,-8.3 -117.9,-7.3 -118.1,-5 -118.7,-4.7 -118.5,-4.2 -117.8,-4.4 -116.9,-4.1 -115.7,-3.2 -114.5,-2.6 -113.3,-1.9 
		-112.2,-0.8 -111.2,0.3 -110.3,0.6 -110.6,2.1 -110.4,3.3 -109.7,5 -109,6.6 -108,9 -107.4,10.9 -107.2,12.7 -105.4,13 -104,14 
		-102.8,15 -102.1,16 -102,17 -101,18.1 -99.8,19.5 -97.9,21.4 -97.5,22.2 -97.2,23.1 -96.9,24.5 -96.2,25.4 -95.4,26.2 -95.3,27.5 
		-94.9,28.4 -93.8,29.9 -93,31.2 -92.7,34 -91.5,35.9 -90.3,37.3 -89.4,37.6 -88.6,39.1 -87.3,41.1 -86.1,42.5 -85.4,43.2 
		-84.6,43.5 -83.5,44.5 -81.5,46.2 -81.3,46.8 -80.7,47.8 -79.6,49 -77.5,51.1 -76,52.4 -75.1,53 -74.2,53.4 -73.4,54 -72.3,54.8 
		-71.4,55.9 -70.2,56.4 -69,57.1 -68.1,57.5 -67.2,58.6 -66,60.1 -64.6,61.4 -63.4,62.7 -62.4,63.7 -61.8,64.4 -61.1,64.5 
		-61.1,63.4 -61.5,62.6 -62.1,62.1 -61.8,61.5 -61.2,61.2 -60.5,61.7 -59.3,62.5 -58.4,63 -57.8,63.1 -57.2,62.6 -56.6,62 
		-56.2,61.4 -55.6,61.6 -54.4,62.2 -53.4,62.8 -52.9,63.6 	"/>
	<polygon class="st0" points="-57.1,32 -56.8,31.4 -55.4,30.4 -55,28.8 -53.9,28.1 -53.1,28.8 -52.2,29.2 -52,29 -52,28.4 
		-50.7,28.1 -49.7,29.1 -49,30.1 -48.6,31.5 -48.4,32.9 -48,34.1 -47.2,35.6 -45.1,36.1 -43.8,36.8 -44.3,37.9 -44.9,38.9 
		-44.8,39.9 -44,40.3 -44.3,40.9 -44.9,40.7 -45.3,40.9 -45.8,40.6 -46.3,39.9 -46.9,39.6 -48.5,38.9 -49.9,38.3 -50.4,37.8 
		-50.8,36.5 -50.4,35.9 -50.7,35.1 -51.4,33.9 -52.9,32.4 -53.6,32.2 -54.7,32.5 -55.4,32.8 -56.5,32.6 	"/>
	<polygon class="st0" points="-36.8,39.2 -36.2,38.4 -36,37.1 -34.7,36.8 -33.7,36.6 -32.6,37.2 -31.5,37.9 -30.9,39.2 -31.3,40.4 
		-31.7,41.3 -33.5,41.6 -34,41.1 -34.5,40.9 -34.8,41.4 -36,41.8 -36.3,40.4 -36.5,39.6 	"/>
	<polygon class="st0" points="-100.5,36.4 -100.1,38.6 -98.7,39 -98.5,40.2 -97.8,41.1 -97.2,41.9 -96.8,41.6 -96.4,40.7 
		-96.8,40.1 -97.8,39 -99.1,37.6 -100.1,36.5 	"/>
	<polygon class="st0" points="-104,32.5 -104,33.4 -103.3,33.8 -102.3,34.6 -102.1,34.4 -102.6,33.3 -103.1,32.4 	"/>
	<polygon class="st0" points="-107.8,30.2 -107.3,29.8 -106.7,29.8 -107.1,27.9 -107.4,27 -108.1,25.9 -109,24.2 -109.4,23.6 
		-110.6,23.2 -111.3,23.2 -111.6,23.8 -112,25 -111.6,26 -110.9,27 -110.1,28 -109.4,28.9 -108.6,29.4 	"/>
	<polygon class="st0" points="-114,19.5 -112.8,19.2 -112.4,17.8 -112.5,17 -113.2,16 -113.8,15.2 -114.2,15.5 -113.6,16.4 
		-113.3,17.1 -113.6,17.7 -113.9,18.6 	"/>
	<polygon class="st0" points="-119.2,10.2 -118.1,9.9 -118.1,7.9 -118,6.2 -119.2,5 -120.2,4 -121.7,2.7 -122.3,2.1 -123.3,3 
		-124.4,2.9 -124.2,3.5 -123.3,4.4 -122.6,5.4 -122.1,6.6 -121.2,7.4 -120.4,7.8 -119.8,8.8 -119.4,9.6 	"/>
	<polygon class="st0" points="-131,-4.8 -130,-5.5 -131.1,-6.5 -132.3,-7.4 -132.8,-7.2 -133.9,-8.3 -135.5,-9.3 -136.2,-8.5 
		-135.8,-7.7 -134.7,-7.1 -134.3,-6.7 -133.2,-6.4 -132.3,-6.1 -131.7,-5.5 	"/>
	<polygon class="st0" points="-88.1,0 -88.4,-0.7 -88.4,-2 -86.8,-2.7 -85.6,-1.5 -85.6,-0.1 -86.6,0.6 -87.7,0.2 	"/>
	<polygon class="st0" points="-83.1,1.6 -82.3,1 -80.6,1.8 -79.6,2.7 -78.8,3.8 -79,5.1 -79.1,6 -78.2,6.6 -77.5,6.1 -76.9,5.4 
		-75.4,5.9 -74.1,6.8 -74.1,8 -75.2,8.8 -76.3,8.4 -77.7,8.3 -78.9,8.3 -79.5,7.7 -80.6,6.7 -81.3,5.9 -81.6,4.9 -81.6,4 -81.9,3.1 
		-83.1,2.4 	"/>
</g>
</svg>
