<?xml version="1.0" encoding="utf-8"?>
<!-- Generator: Adobe Illustrator 21.1.0, SVG Export Plug-In . SVG Version: 6.00 Build 0)  -->
<svg version="1.1" id="Layer_1" xmlns="https://www.w3.org/2000/svg" xmlns:xlink="https://www.w3.org/1999/xlink" x="0px" y="0px"
	 viewBox="0 0 153 64" style="enable-background:new 0 0 153 64;" xml:space="preserve">
<style type="text/css">
	.st0{fill-rule:evenodd;clip-rule:evenodd;fill:#BAC9CF;}
</style>
<title>Group</title>
<desc>Created with Sketch.</desc>
<path class="st0" d="M-111-138.8l-0.7,1.3l0.7,3.9l3.2,7.1l1.9,0.7l5.2,5.8l1.9,0l3.2,3.9l1.9,1.3l1.9-0.7l3.9,3.2l4.5,7.1l4.5,4.5
	h1.3v3.2l1.3,1.3l0.7,3.2l1.3,1.3h2.6l3.2,4.5l1.9,1.3h1.3l0.7,1.3l-1.3,1.9l1.3,1.9l1.3,3.2v0.7l2.6,6.5l1.3,3.9L-56-65l3.9,2.6
	v1.9l3.2,5.2l3.2,1.9l0.7,6.5l4.5,9.1v3.2l1.3,3.2l4.5,3.2l4.5,5.8l1.3,3.2l3.2,0.7l1.3,1.3l3.2,1.9l0.7,3.9l2.6,1.9l3.2,3.9
	l5.8,3.2l1.3,2.6l3.9,1.3l7.8,6.5l0.7,2.6l1.9,0.7l1.9,3.2l0.7-1.3v-2.6L8.7,9.5V8.2l2.6,0.7l5.2,4.5l1.3-0.7V9.5l1.3-1.9L21,8.2
	l2.6,3.2l1.3,0.7l1.9-1.9V4.3l1.3-7.1l-1.3-4.5l1.9-5.2l-1.3-1.9v-3.9l2.6-1.3l1.3-1.9l-3.8-2.6l-1.9-0.7L23-26.8L21.7-30l-0.7-0.6
	l-0.7-1.9l-2.6-0.6l-3.9,0.7l-2.6-0.7v-3.9l-1.9-2.6l-1.9,1.3L8.7-41l-0.6-2.6l-0.7-6.5l-2.6,1.3l-1.3-1.3h-5.2l-4.5-3.2v-1.9
	l2.6-1.3l3.2-1.9l-1.9-1.3l-2.6,0.7l-1.3-0.7l-2.6,1.3l1.9-1.9l3.2-1.9l3.9-0.7l-0.7-2.6l-4.6-3.9h-1.9l-3.2,1.9l-2.6,1.3h-3.2
	l1.9-0.7l1.3-1.3h1.3l1.3-1.9l-0.7-1.3l-2.6-1.3h-4.5l-3.2-2.6v-1.9l-0.7-3.2l-5.8-5.2l-1.9-0.7l-1.9,0.7l-1.9-1.3l-0.7-4.5
	l-3.2-3.9l-4.5-2.6H-45l-0.7,1.3l-1.3-1.3l-0.7-3.2l-1.9,1.9l-1.3-1.9v-3.9l-2.6-3.2H-56l-1.3-1.9l-6.5-4.5h-2.6l-3.2-3.2l-3.2-1.3
	l-0.7-1.9l-0.7-3.9l-2.6-1.3l-1.3-3.2h-1.3l-1.9-3.2l-2.6-1.3h-2.6l-1.9,0.7l-1.3-0.7h-3.2l-3.9,1.3l-1.9-1.3l-5.8-3.9l-5.2-0.7
	L-111-138.8z M-103.9-103.2l-1.3,1.3l-0.7,1.3l2.6,1.3l3.2-0.7l-1.9-1.9L-103.9-103.2z M-86.4-92.2l3.2,0.7l-1.3-1.3L-86.4-92.2z
	 M-86.4-82.5h2.6l1.3-1.3l1.9,0.7l1.9,3.9l3.2,2.6l-0.7,1.9l-0.7,3.2l-1.3,0.7l-3.2-5.2l-1.9-0.7l-0.7-2.6L-86.4-82.5z M-68.3-65.6
	h3.2l1.3,0.7v-1.9l-3.2-1.3L-68.3-65.6z M-70.2-58.5l-1.3,2.6l1.3,1.9l1.9-1.9v-1.9L-70.2-58.5z M-68.3-48.8v1.9l2.6,1.3l3.2,5.2
	l3.2,1.3v-4.5l-3.9-6.5l-2.6-0.7L-68.3-48.8z M-54.7-37.8l-1.3,1.3l1.3,1.9l2.6,0.7L-54.7-37.8z M-50.2-29.4l2.6,1.3l-1.9,1.9
	L-50.2-29.4z M-46.3-27.4l-1.9,2.6l4.5,4.5l-0.7-2.6v-1.9L-46.3-27.4z M-23,4.9l3.2,2.6V5.6L-21,4.3L-23,4.9z M-32-90.2l1.3,3.9
	l2.6-0.7l2.6-2.6l-1.9-2.6l-1.3,1.3L-32-90.2z M-23-83.8h1.3l3.2,1.3l1.3,1.9l-1.3,2.6l-1.3-1.3L-23-83.8z M-15.8-79.9l-1.9,3.2
	l0.7,2.6l4.5,0.7l3.2,1.3l0.7-0.7l-0.7-3.9l-2.6-2.6L-15.8-79.9z M9.4-63l-1.3,2.6l1.3,1.3l1.9-0.7l3.2,1.3l1.3-0.7l-4.5-3.2L9.4-63
	z M7.4-57.9l-1.3,1.9L8.1-54l1.9-1.3l-0.7-2.6L7.4-57.9z M19.8-42.3v1.9l-2.6,1.9l1.3,1.9H23l1.3,1.3v2.6l1.3,0.7l0.7,3.2l2.6,1.9
	h2.6l0.7,2.6l1.3,1.3l1.3-1.9L34-27.4l1.3-3.2l-3.9-0.7l-2.6-3.2l-1.3-5.8L26.2-41V-43l-1.3-0.6h-1.3v1.9l0.7,1.9l-2.6-0.7
	L19.8-42.3L19.8-42.3z M37.9-26.1l-0.7,2.6l1.3-1.3L37.9-26.1z M45.7-30.7l0.7,1.9v1.3l-2.6,0.7l-0.7,1.3H45v-0.7l1.9-0.7v3.9
	l1.9,1.9l1.9-3.2l1.3,1.9l1.9,0.7l0.7-1.9l1.9-0.7l-1.3-2.6l-4.5-2.6l-3.9-1.3H45.7z M62.5-42.3v1.3l1.9,0.7l0.7-1.3L63.8-43
	L62.5-42.3z M6.2-80.5l-1.3,2.6l2.6,0.7L8.1-74l1.9-0.7l0.7-3.9l-1.3-1.3l1.3-1.9H9.4l-1.3,1.3L6.2-80.5z M0.3-77.9l2.6,0.7l1.3-2.6
	l-0.7-1.9L0.3-77.9z M21.7-105.8v1.9l1.3,0.7l2.6-2.6l-1.9-0.7L21.7-105.8z M30.1-108.4l-0.7,1.3h1.9L30.1-108.4z M29.5-109l1.3-1.3
	l-1.3-0.7V-109z M29.5-103.8v1.9l1.3-0.7L29.5-103.8z M50.8-119.4l2.6,2.6h1.3l-0.6,1.9H56l1.3-3.9l-2.6-3.9l-2.6,1.3L50.8-119.4z
	 M17.8,23.1l1.3,1.3l1.9-0.7v-2.6l2.6-0.7l1.3-2.6v-2.6l2.6-3.2l1.3,1.3H32l3.9,0.7l1.9,1.3l1.3-0.7l1.3-1.3h3.9l2.6,1.9l4.5,1.3
	l5.8,0.7l1.3,2.6l-1.9,2.6l1.3,1.3l4.5,1.9h7.8l6.5,1.3l5.8-0.7l1.3-1.9l0.7-5.2h2.6l3.2,3.2h1.9l2.6-0.7l1.9,1.3l2.6,2.6h1.9
	l1.9,1.9l1.9-0.7h3.2v3.2l2.6,3.2v1.9l1.9,1.9l2.6,1.3l2.6-1.3l1.9,1.3h1.9l1.9-1.3h1.9l0.7,0.7l1.9,0.7l1.3,1.3l-0.7,5.8l-1.3,0.1
	l1.3,0.7l0.7,3.9l-1.3,0.7l-1.9-1.9H124l-3.9-2l-2.6-0.7l-2.6-2.6H113l-3.9,1.9h-3.9l-3.2-1.9l-3.2-0.7l-3.2,2.6l-3.2-2.6h-4.5
	l-2.6,1.3l-6.5-2.6l-5.8-3.9H69L65.7,36h-1.9l-0.7,2l-2.6-0.7l-1.9-1.9h-1.9l-2.6,2.6l-5.8-1.3l-3.9-3.2h-3.9l-1.9-0.7l-1.3,1.3
	L34,32.8l-3.2-0.7l-1.3-1.3l1.9-3.2l1.3-1.3h-1.9l-1.3,1.3l-1.9-1.3l-1.3-1.9l-2.6,1.3h-5.2L16.5,25v-1.3L17.8,23.1z M15.9,21.1v1.3
	h0.7v-1.3H15.9z M111,25l-1.9,2.6l2.6,2.6h1.9l1.3-0.7h4.5l2.6-1.3l2.6-0.7l1.3-1.3l-1.3-0.7l-3.2,1.3l-1.9-0.7h-7.1L111,25z
	 M425,44.4h4.5l1.9-0.7l3.2,0.7l1.9-1.3l1.9-2.6l1.9-0.7l0.7-1.3v-1.3l0.7-0.7l0.7-1.9l0.7-0.7l-1.9-1.3l-0.7-0.7h-4.5l-2.6,1.3
	l-1.3,3.9l-1.3,2.6L425,44.4z M437.3,43.8h1.3l2.6,0.7l0.7-0.7l-0.7-2.6h-0.7l-1.9,0.6L437.3,43.8z M130.5,41.8v1.9l1.3,1.9l3.2,0.7
	l3.2,2.6l0.7,1.3l1.3-1.3l1.9-1.3l0.7-0.7l2.6-0.7l0.7-1.3l-2.6-3.2l-3.9-1.3l-3.2,1.3l-2.6-0.7L130.5,41.8z M142.8,49.6l1.3-1.3
	l0.7,1.3l-1.3,0.7L142.8,49.6z M150.5,45.7l2.6-1.9l3.9,1.3l-0.7,3.2l-1.3,1.9v1.9l-1.9-0.7l-2.6,0.7l-3.9-1.3l-0.7-1.3l1.3-0.7h1.9
	L150.5,45.7z M158.3,49l-0.7,1.3l0.7,0.7l-0.7,1.3l1.3,1.3l2.6,1.3l3.2-0.7l1.9,0.7l2.6-0.7l1.3-1.3l2.6,0.7l2.6-1.3l2.6,0.7
	l2.6-2.6l0.7,1.9l2.6-0.7l3.2,0.7l-1.9-1.3h3.2v-2.6l-0.7,1.3l-0.6-2.6v-1.9l-2.6-0.7l0.7,1.9l-1.3,0.7v-1.9l-2.6-1.3l-2.6,0.7
	l-2.6-1.3l-1.9-0.7l-3.2,1.9v1.3l5.2,1.9l1.9,1.9l-3.2,0.7l-2,0l-3.2-1.9l-0.7-1.9l-1.9-0.7l-1.9,0.7l-2.6-0.7l-3.2,1.3
	C159.6,47,157.7,49,158.3,49L158.3,49z M193.9,47l-1.9-0.7l-0.7,2.6l1.3,1.9l0.7-3.2L193.9,47z M195.2,49l-0.7,2.6h1.9v-1.3
	L195.2,49z M197.1,49l0.7-2.6l3.9-1.9l6.5-1.3l3.2,1.3l1.9-0.7l3.2,0.7l3.2,1.9l2.6-1.3h3.9l1.9,1.3h2.6l1.3-1.9l2.6-0.7l1.3-1.9
	l-1.3-0.7l1.9-1.3l2.6,1.3v2.6l-1.3,2.6l-1.3,0.7l-1.9,2.6l-2.6,0.7l-1.3,1.3l-1.9-0.7H225l-3.2,1.9l-3.9-0.7l-2.6,1.3l-0.7,0.7
	h-1.9l-1.3-0.7l-2.6,0.7l-1.3-1.3h-3.9l-1.9-0.7h-1.9l-1.9-0.7L197.1,49z M241.8,43.8l-1.9,1.3l1.3,0.7l0.7-1.3V43.8z M240.5,47
	l-2.6,0.7l-0.7,1.9l1.3-1.3L240.5,47z M242.5,47.7l2.6-1.9l-0.6-0.7l1.3-0.7h1.9l1.9-1.3l0.7,0.7l-2.6,3.2l-1.3,1.3l-2.6,0.7
	L242.5,47.7z M250.9,47.7h1.9l1.3,1.3l1.9-2.6v-1.3l-1.3,1.3h-2.6L250.9,47.7z M259.9,42.5l-2.6,1.3l1.3,0.7l-1.3,0.6v0.7l1.9,0.7
	l4.5-1.3l1.3-1.9l-1.3-0.7l-3.2,0.7L259.9,42.5z M271,43.1l-0.7,0.7l0.7,0.7l0.7-0.7L271,43.1z M275.5,39.3l2.6-1.3l3.9,0.7l1.3,1.3
	l0.7-1.3l3.9-2.6l-0.7-1.3l-1.9-0.7l-1.9,1.3l-4.5,0.7l-1.3-1.3l-1.9,0.7l-0.7,2.6L275.5,39.3z M139.5,26.9l1.9,1.9l1.9-1.9h1.9
	l-0.7-0.7l-1.3-0.7h-2.6l-1.3,0.7L139.5,26.9z M146.6,30.2h2.6v0.7L146.6,30.2z M186.1,59.3l5.2-2.6l3.2,2.6h2.6l2.6-1.3l3.2,1.3
	l0.7,2.6l1.9,0l1.9,3.2l1.9,1.9V69l-3.2,1.9l-3.2,0.7l-3.2-1.3l-1.9-3.9l-1.9-0.7l-1.9-2.6l-2.6,0.7l-3.2-0.7l-1.9-1.9V59.3z
	 M222.4,72.9l1.3,0.7v1.3l-1.9,0.7h-2.6l1.3-1.9L222.4,72.9z M241.2,73.6l-2.6,1.3l0.7,0.7l-3.9,1.9l-1.9,1.9l1.9,0.7l5.8-2.6
	l0.7-1.9L241.2,73.6z M241.2,71.6l0.7-2.6h-0.7l-1.3,1.9L241.2,71.6z M243.8,69l-0.7,2.6l1.3,1.3h3.9l3.9-2.6l1.9-0.7h1.9l2.6-1.9
	l1.3-2.6l4.5-3.9l1.3-1.3l1.3-0.7l-3.2-2.6l-2.6-3.2l-1.3,0.7l-1.9,0.7V58l-2.6,0.7l-2,1.3l-1.9-1.9l-0.7,0.7l-2.6,1.3l-0.7,2.6
	l-2.6,3.9l-0.7,1.3l1.3,0.7l0.7,1.3h-1.9L243.8,69z M291,42.5l1.3-0.7l1.3,1.3l-1.3,0.7L291,42.5z M296.2,43.1l1.9-0.7v1.3
	L296.2,43.1z M300.1,41.8h3.9l1.9-0.7v1.3l-3.3,2l-2.6-1.3L300.1,41.8z M293.6,34.7l2.6-1.9l-1.3-0.7l-1.3,0.7V34.7z M313,43.8h2.6
	l1.3,0.7H315L313,43.8z M309.8,28.9l1.3-0.7l1.3,0.7l-0.7,1.3h-1.3L309.8,28.9z M323.4,37.3l1.3-0.7l1.9,0.7l0.7,1.9l-1.9,0.7
	l-1.3-1.3L323.4,37.3z M327.9,41.2l-2.6,1.3h1.3L327.9,41.2z M323.4,22.4l-1.3,0.7h1.9L323.4,22.4z M329.2,18.5l1.9-1.3l-1.3-0.7
	L329.2,18.5z M348,30.8l-3.2,3.2v1.3l0.7,0.7l-1.3,1.3v1.9l1.9,1.3l1.3-0.7l2.6-3.9l0.7-3.2l-0.7-1.9l0.7-1.3v-0.7l-1.3-0.7
	l-1.3,1.3V30.8z M344.1,41.2h-1.3l-2.6,1.3l-0.7,1.3l1.9-0.7l1.9-1.3L344.1,41.2z M344.1,32.1h-3.2l1.3,0.7L344.1,32.1z M340.9,33.4
	l-1.9,0.7h1.3L340.9,33.4L340.9,33.4z M351.2,28.2l3.2,1.9l-0.7-1.3L351.2,28.2z M353.8,26.9l1.9-1.3l-0.7-0.7L353.8,26.9z
	 M386.8,6.9h-1.3l-1.3,1.9H383l1.3,0.7v1.3h1.3l-1.9,1.3l0.7,1.3h0.7l1.9-1.3h1.3l0.7-1.3V8.8h-1.3L386.8,6.9z M387.5,6.2l1.3,1.3
	h0.7l-1.3-1.3H387.5z M383.6,10.1h-0.7v0.7h1.3l0-0.7H383.6z M388.1,12.7l-1.9,0.7l-1.9,1.3l0.7,0.7l2.6,1.3l1.3,0.7l1.3-1.3v-1.3
	h-0.7V14l-0.7-1.3L388.1,12.7z M383.6,14.6l-1.3-0.7v1.3l1.9,1.9l1.3,0.7l0.7-0.7l-1.9-1.9L383.6,14.6z M386.8,18.5l-0.7,0.7v1.3
	l1.3,0.7h1.3l-0.7-1.3L386.8,18.5z M382.3,17.2l-1.3-0.7v3.9l1.3,0.7l0.7,1.3l-0.7-0.7h-0.7v2.6l1.3,1.3h1.3l2.6-1.9l0.7-1.3
	l-1.9-1.2l-0.7-1.9L382.3,17.2z M390.1,21.8l-0.7,1.3l0.7,0.7l0.7-0.7L390.1,21.8z M370,4.9l-2.6,1.3l-1.3,5.2l-0.7,1.3l1.9-0.7
	l1.9-5.2L370,4.9z M362.9,7.5l0.7,2.6V12l0.7,0.7V9.5L362.9,7.5z M399.8-55.9l1.9,1.9v-1.3h1.3L405-52l-0.7,1.9l1.9,0.7h0.7l1.3,0.7
	l3.2-0.7l-1.3-1.3l-1.9-0.7l-1.9-2.6l-1.9-1.3h-1.9l-3.2-1.3L399.8-55.9z M399.8-43.6l0.7,1.3l3.9,1.9l5.8,0.7l5.2-0.7l1.3-0.7
	l-3.9-1.9l-1.9,0.7l-3.9-1.3l-2.6,1.3L399.8-43.6z M397.8-44.3h-3.2l1.9,0.7L397.8-44.3z M392.7-52.7l-1.3,0.7l1.3,1.3l1.9-0.7
	L392.7-52.7z M65.1-79.9l1.9-3.2l3.2-3.9l1.3-1.9l1.9-0.7l2.6,4.5l3.9,2.6l0.7,1.3l2.6,2.6l1.3,1.9h1.9l3.9-1.3l0.7-1.3h3.2l1.9-0.7
	l7.1,0.7l7.1-2.6l1.9-1.9h5.8l3.2,1.3l1.3,1.3h3.2l5.2-2.6l5.8-0.7l-0.7-1.9l5.2-7.8l1.9-5.2l3.9-5.8l2.6-9.7v-1.9l1.3-1.9v-1.9
	l2.6-3.2l1.9,0.7l3.9-0.7h5.8l1.3,1.3h3.2l2.6,0.7v0.7h-1.3v1.3l-0.7,1.3l2.6,1.3l2.6,3.2l-2.6,0.7l-2.6-0.7l-1.3,0.7l1.9,2.6
	l1.3,0.7v1.3h-1.3l-0.7,1.9l1.9,1.9l0.7,2.6l3.9,4.5l1.9,1.9l-1.3,2.6l-3.2,0.7l-1.3,1.4l1.3,0.7l0.7,1.9l1.9,1.3l5.2,5.2h1.9
	l1.9,2.6l0.7,1.3l1.9,0.7l-0.7,2.6l-1.3,0.7l-1.9-0.7l-1.9,1.3l-3.2-0.7l-3.9-3.9l0.7,3.2l-0.7,1.3l-1.3-1.3l-2.6,2.6v1.9l-0.7,1.3
	l-0.7,4.5l-1.3,1.9l-0.7,4.5l-3.2,2.6l1.3,3.2l-1.9,2.6l-1.9,2.6l-1.3-2.6l-1.3-0.7l0.7,1.9v2.6l-1.9,2.6l-0.7,1.9l-1.9,0.7h-1.9
	l0.7,1.3l-1.3,1.3h3.2l0.7,0.7l-0.7,1.9l-1.3,1.3l0.7,0.7h1.3v1.9L157-30l-1.9-0.7l-0.7-0.7v1.3l1.9,1.9l-1.9,3.9h-1.3l-0.7-1.3
	l-0.7,3.2v1.9l-2.6,4.5l-4.5,3.2l-3.9,0.7l-5.2,2.6l-1.3-0.7l-0.7-3.2l0.7-1.9l-1.9-2.6l-0.7-0.7l-0.6,0.7l-1.3-1.9l-1.3,0.7
	l-1.9-0.7l-1.3-1.9l-0.7,1.9l0.7,1.9l-2.6-0.7l-1.3-1.3v-1.9l-1.3-1.3l-1.3,0.7l-2.6-1.3H115l-1.9,1.9l-3.2,0.7l-0.7,1.3h-1.9
	l-1.3-1.3l-1.3,0.7l-3.2,3.9h-1.9v-1.9l-0.7-4.5l-1.3-3.2l0.7-1.9L97.5-30v1.3l-1.3,2.6l-1.3,1.3l-1.3-1.3l-0.7,1.9h-3.2l-1.9-0.7
	h-2.6l-0.7-1.9l-1.9,1.9h-1.3L80-28.1v-3.2l-1.3-5.8l-1.9-1.3l-0.6-1.3l1.3-1.9l1.9-2.6v-1.9L78-48.2L74.1-52L70.9-54l-3.2-0.7v-1.3
	h2.6l1.9-1.9l4.5-1.3l3.2-2.6h2.6L80-62.4l-3.9,2.6l-3.9,0.7l-1.9,0.7l-2.6-0.7l-1.3-3.2L67-63l1.3,0.7L67-64.3l-3.9-4.5V-74
	l1.9-1.3v-1.3l-0.7-1.9L65.1-79.9z M70.9-49.4h3.2l1.9,1.3l-2.6,2.6l-1.3,0.7l-1.3-1.3l0.7-1.9C70.9-48.2,70.9-49.4,70.9-49.4
	L70.9-49.4z M68.3-53.3l3.2,0.7l1.3,1.3h1.3v0.7h-4.5l-1.9-1.9L68.3-53.3z M67-59.2l3.2,0.7l0.7,0.7l-1.3,1.3l-1.9-0.7L67-59.2z
	 M154.4-19v4.5l-0.7,2.6l-1.9,1.3l-1.3-1.3l0.7-3.9l1.3-3.9l1.3-0.7L154.4-19z M155.7-19l0.7,0.7v3.2h-0.7V-19z M171.2-110.3
	l1.3,0.7v1.9h-0.7L171.2-110.3z M174.5-112.9l-2.6,0.7l1.9,0.7L174.5-112.9z M172.5-120l0.7,1.9h1.9v-0.7L172.5-120z M172.5-118.7
	l0.7,1.3l-1.3-0.7L172.5-118.7z M199.1-132.3l3.9-3.2l1.9-0.7v1.9l-3.2,1.9l-2.6,0.7L199.1-132.3z M194.6-129.7l-0.7,1.3l1.3,2.6
	v-1.9L194.6-129.7z M213.3-142.7h1.9l1.3-0.7l1.3,0.7l1.9-0.7v-1.3l-2.6-0.7l-3.2,0.7l-0.7,1.3V-142.7z M210.1-151.1l-1.3,1.9
	l1.3,0.7l0.7-1.3L210.1-151.1z M208.1-69.5l3.2-1.3l3.2,1.9h3.9l4.5-2.6l3.2,0.7l1.3,1.3h2.6l1.3-0.7l5.2,0.7h2.6l0.7-0.7h3.2
	l1.9,1.3l0.7,1.3l2.6,0.7l9.7-1.9l3.9-2.6l1.3-1.9h1.9l1.3-1.9l1.9-1.3l0.7-1.9l1.3-1.9l1.3-0.7l-1.3-1.3v-1.3l-3.2-0.7l-2.6,0.7
	l-3.9,2.6v1.3l-2.6,1.9h-1.9l-1.3,1.9l-3.2,0.7l-5.8-0.7l-5.2-0.7l-0.7,1.3h-1.3l-2.6-1.9h-3.9l-2.6-0.7l-3.2-0.7l-1.9,1.3l-1.9-1.3
	l-2.6-2.6l-3.9-0.7h-2.6v2.6l-1.3,2l-1.3,2.6l-1.9,1.3l-3.2-1.3l-3.2,0.7l-1.3,1.3v0.7l-1.9,3.9v3.9l0.7,1.9v3.9l-0.7,1.3l1.3,3.2
	l0.7,2.6l-1.3-1.3l-0.7-1.9l-1.9,0.7l-1.9,1.9l-1.9,1.3l-0.7,2.6l0.7,3.2l-0.6,0.6l0.7,5.2l-0.7,1.3l-0.7,1.9l-1.9,0.7v3.2l-3.2,2.6
	l-0.7,3.2l0.7,1.3l-0.6,1.3l1.3,4.5l1.3,1.9l0.7-0.7h1.9l1.3-1.3l1.3,0.7l0.7,3.2l1.9,5.8L195.9-8l-0.7,3.2l-1.9,2.6V3l0.7,4.5h1.3
	l1.9,1.3h2.6l1.3-1.3l2.6,0.7h2l1.3,1.3l0.7-1.9V4.9l-1.9-1.3l-0.7-3.2l1.3-2.6l0.7-3.9l-0.7-3.9l-0.6-1.3l2.6-3.9l0.7-3.2l-0.7-3.9
	l-1.9-1.3v-1.3l2.6-1.9l1.3-1.9l2.6-0.7l2.6,0.7v1.3l1.3,1.9v2.6l-1.9,2.6l-0.6,2.6l1.3,2.6h1.9l1.3,1.9l3.2,1.9l0.7,2.6h-1.3
	l-0.7,4.5l0.7,2.6l1.9,0.7l1.3-0.7l2.6,1.3l1.9-0.7v-0.7l-0.7-1.9l1.9-1.9l1.9-0.7l3.2-1.9h3.9l1.3-1.3l1.3,0.7h1.9l1.3-1.9
	l-0.7-0.6h-7.8v-1.9h-1.3v-1.3h-1.3l-1.3,0.7v-1.3l-1.9-0.7l-0.7-1.9l1.3-1.3l0.7-1.3l0.7,0.7l-0.7-1.3h1.3l0.7-1.3l-1.3-2h-1.9
	l0.7-1.3v-1.3l-1.9-1.3h-1.3l-1.3-2.6l-3.2-3.9l-1.9-1.3l-1.3-2.6v-1.3h1.3l0.7,1.3h2.6l1.9-1.3l0.7-1.3l5.2-1.9l3.9-2.6l1.9-3.2
	l2.6-1.3V-52l2.6-0.7l2.6,1.3h1.3l1.9-3.2v-1.9l-2.6-1.3l-6.5,1.3l-2.6,1.9H234l-1.9,0.7l-1.9,2.6h-2.6l-1.9,0.7L223-52l-2.6-0.7
	l-2.6,3.2l-1.9,3.9l-2.6,1.3l-1.3-1.3l-0.7-1.3l-3.2-3.2l-3.2-2.6l-1.9-4.5l0.7-5.2l1.9-4.5L208.1-69.5z M223.7-58.5h1.3l1.9,1.3
	H225L223.7-58.5z M225.6-59.2l1.9,0.7v-1.3C227.6-59.8,225.6-59.2,225.6-59.2L225.6-59.2z M238.6-46.9l2.6-1.9h3.2v3.2l1.9-0.7
	l0.7-1.3l1.9,1.3l-0.7,1.9l-1.9,0.7l-0.7-0.7l-1.3,1.3l-1.9-1.3l-1.9,1.3l-1.9-1.3L238.6-46.9z M249.6-43.6l-1.3,1.3l1.9,0.7
	L249.6-43.6z M246.4-41l-1.3,1.3h1.9L246.4-41z M243.7-39.7l-1.9,0.7l1.3,0.7C243.1-37.8,243.7-39.7,243.7-39.7L243.7-39.7z
	 M225,1.7V3l-0.7,0.7l0.7,2.6l1.3,0.7l1.9-1.3L227.6,3l-1.3-1.3H225z M230.8,3.6v1.3l1.3,0.7h1.9V4.3h0.7V2.4l1.3-1.9v-1.3l-1.3-1.9
	l-1.9,1.3l-1.9,1.9l0.7,1.3L230.8,3.6z M236.6,6.2l1.9-3.9l1.3-3.9v-3.9l1.3-0.7h1.9v1.9l0.7,1.9v1.3l-0.7-1.3l-0.7,1.3L240.5,1
	l0.7,1.9l1.9,0.7l0.7,1.3l-0.7,1.3l-1.3,0.7l-2.6,1.3l-1.3,0.7L236,8.2L236.6,6.2z M258.6-40.4l1.9-1.9h1.3l1.3-0.7l2.6,0.7l1.3,0.7
	l1.3-1.3l1.9,0.7v1.9h-1.9l-1.9,1.3l-1.9-0.7l-2.6,2.6l-2.6-0.7l-0.7-1.3L258.6-40.4z M271-40.4l1.3-0.7l1.9,0.7l1.9-0.7l4.5,0.7
	l2.6,0.7l-3.2,0.7l-5.8,1.3l-2.6-0.7v-0.7L271-40.4z M278.1-37.8v1.9l1.9,2.6v1.3l-1.3-0.7l-1.3-3.2v-1.3L278.1-37.8z M208.1,11.4
	l1.9,3.9l-1.3,1.9l-0.7,2.6l-0.7-1.9l-1.3-1.9l0.7-1.3v-1.9L208.1,11.4z M210.7,28.9l-1.9-1.3l-1.3,0.7l1.3,1.3L210.7,28.9z
	 M280.7-23.5l2.6,1.3l1.9-1.9h4.5l3.2,1.3v1.3l1.9,2.6v1.9H293l-2.6,2.6h-6.5l-1.3-1.3l-3.9-0.7l-1.9-2.6l0.7-3.2L280.7-23.5z
	 M305.3-19l2.6-3.9l1.9,1.9l1.3,1.9h2.6l2.6-2.6h1.3l1.3,2.6l5.2,0.7l1.3-1.9h2.6l5.2,3.2l2.6,0.7l2.6,3.2h2.6l1.3-2.6l-1.3-4.5
	l-6.5-3.2l-5.7-2l-2.6-1.9h-2.6l-2.6,1.9h-2.6l-1.9-0.7h-9.1l-1.3,1.3v1.3l-1.9,0.7l-0.7,1.9L304-19L305.3-19z M304.6-26.2h-1.9
	l0.7,1.3h1.3V-26.2z M302-23.5l-1.3,1.3h1.3V-23.5z M303.3-16.4l3.2-0.7l1.3-0.7l1.3,0.7l-1.3,2.6l-0.7-1.3l-1.9,1.3L303.3-16.4z
	 M309.8-17.1h1.3v1.3h-1.3V-17.1z M311.7-17.7h1.3v0.7h-0.7L311.7-17.7z M333.8-42.3l-4.5,1.3l-1.9,1.3l1.3,1.3l3.9,1.3l3.2-1.3
	l-0.7-0.6V-41L333.8-42.3z M297.5-43.6l3.2-2.6h3.2l3.2,3.2l-0.7,1.3h-5.8l-1.9-0.7L297.5-43.6z M297.5-57.9l-0.7,0.7v1.3l1.3,1.9
	h1.9l1.3,1.3l1.3-1.3l0-0.7l-1.9-0.7v-1.9l-1.3-1.3L297.5-57.9z M295.5-59.8h-1.3l-0.7,2.6l1.3,0.7l0.7-1.9V-59.8z M295.5-54.6
	l0.7,1.9l-2.6-0.7l0.7-1.9L295.5-54.6z M305.9-60.5l1.3,3.2l3.2,3.2l0.7,1.3l-1.3,0.7v1.3l-0.7-1.9l-1.9-0.7l-1.9-3.9l-2.6-1.9
	l-1.9-2.6l1.3-2.6l-0.7-1.3l0.7-1.3l-3.2-2.6l0.7-2.6l1.3-1.9l-1.3-2.6l-1.3-1.9l0.7-3.2l1.3-1.3v-3.2l0.7-3.9l3.9-3.9l1.3-0.7v1.9
	l-1.9,1.9l0.7,1.3l1.9,0.7v3.9l-1.3,3.2h-1.9l-1.9,1.9l1.3,3.9h1.3l0.7-1.9l1.9-1.3l1.3-1.3h-1.3v-1.9l3.9-1.9l3.9-1.3l1.3,1.3v1.9
	l-1.9,4.5l-4.5,1.3l-1.9,1.9l1.3,1.9h1.9l3.2,2.6l0.7,1.9l1.3,1.3h-2.6l-1.9-1.3h-3.2l-2.6-1.3l-1.9,0.7v4.5L305.9-60.5z
	 M307.9-94.1l0.7,3.9l1.3-1.3h1.9l1.9-1.9l-0.7-1.9l-1.9-1.3l-1.3,1.3L307.9-94.1z M287.8-117.4l1.3,0.7l0.7,1.9h-0.7L287.8-117.4z
	 M287.8-123.3l0.7,3.2v2.6l1.3-0.7l1.3-1.9l-0.7-2.6l-1.9-1.3L287.8-123.3z M272.3-114.2l2.6,3.2l0.7,2.6l-1.3,1.3l-2.6-1.9
	l-0.7-3.2L272.3-114.2z M342.8-52.7l-2.6,1.9v3.2l2.6,0.7l1.3-0.7l0.7-4.5L342.8-52.7z M343.5-54.6l-0.7,1.3l-1.3-0.7L343.5-54.6z
	 M341.5-52.7l-2.6-0.7l-2.6,0.7l1.9,1.3L341.5-52.7z M345.4-60.5l1.3,0.7l1.9-0.7l-0.7-1.9l-3.2-1.9l-3.2,0l-1.9,1.3H337l-0.7,0.7
	l0.7,0.7l-1.9,0.7l3.9,0.7l2.6,1.3h1.9v-1.3l-1.9-0.7v-0.7l0.7-0.7L345.4-60.5z M320.1-65.6l4.5,2.6l0.7,1.3l-3.2-1.9L320.1-65.6z
	 M471-30l-1.3,47.3l-0.7,3.9v1.9l0.7,1.3l-1.3,30.4h-0.7l-3.2-1.3l-3.2-3.9l-0.7-1.9V47l-2.6-2.6l-1.3-0.7l-0.7-1.9l1.3-1.9v-2.6
	l-0.7,2.6l-1.9,1.3h-3.9l-1.9,1.3H447l-1.3-1.3l-3.2,1.3l-1.3-1.9l1.3-0.7l0.7-1.9v-1.3l0.7-0.7l0.7-3.2l-1.3-0.7l-1.3-1.9h1.3
	l1.3,0.7l2.6-1.3h1.3l-1.9-0.7l-2.6,0.7l-2.6-1.9l-1.9-1.3l0.7-1.9h3.2l-1.3-1.3l-3.2-1.9l-1.9-1.3l-0.7-1.3l0.7-2.6l-2.6-3.2v-1.3
	l2.6-1.9h-2.6l-1.9-1.3l0.7-0.7l-1.3-1.3l1.9-1.3l-3.2,0.7l-0.7-1.3L428.3,5L427,4.3l1.9-2.6L427,3h-2.6l-2.6-1.3l-0.7-2.6l-3.2-1.3
	l-1.9,0.7l-15.5-5.2h-3.9L393.3-8l-0.7-1.3v-1.3l-2.6-0.7v-1.9h3.2v-0.7h-1.9l-1.9,0.7h-2.6l-0.7-1.3h-0.7l-1.3,1.3l-0.7-2.6
	l-1.3-0.7l-0.7,0.7l-0.7,1.3l-1.3-1.3L379-19l-1.3-2.6l1.3-1.9v-3.2l-2.6,5.2l-0.7,1.9l-1.3,0.7l-0.6,2.6v1.9l-2.6,3.2l-2.6,0.7
	l-2-0.7l-1.9-4.5v-1.3l1.3-0.7v-1.9l-0.7-1.9l-1.3,0.7l-0.7-0.7l-1.3-2.6l-2.6-1.3l-3.2-0.7l-0.7-1.3l1.3-1.9h3.2l1.3,1.3h2.6
	l1.9,1.3l2.6-1.3l0.7-3.2l1.9-0.7l3.9,1.9l1.3,2.6l1.3-2.6L379-32l1.3,0.7l0.7-2.6l-0.6-2.6l-6.5-0.7l0.7,1.3l-1.3,0.7l-1.3-0.7
	l-3.9,0.7l-1.3-0.7l-1.3,0.7l-1.3-0.7l-3.3,0.7l-2.6-0.7l-2.6-1.9l-0.7-3.2l0.7-0.7l-1.3-1.9l-3.2-1.9l-1.3-1.3l-0.7,1.3l-1.9,1.3
	l-3.2-0.7l0.7-1.3l3.2-1.9v-1.9l-0.7-1.9l1.9-1.9h3.2l1.9-1.9l1.9-0.7l3.2-2.6l1.3-0.7l3.9-0.7l6.5,2.6l3.9,2.6h3.9l3.9,0.7l1.3,1.3
	l-0.7,1.3v3.2l1.9,1.9l0.7,2.6l-1.3,0.7l-1.3,2.6l0.7,3.2v5.8l1.9,2.6l1.3,1.9h1.3v-3.2l1.3-1.3l1.3,0.7v2.6l0.7,2.6l0.7-0.7
	l0.6,2.6l3.9,3.9l2.6,0l2.6-1.3l0.7-2.6l1.3-1.3l1.3-0.7v-3.2l1.3-2.6h2.6l2.6-1.3v-2.6l0.7-1.3l1.3,0.7h1.3l2.6-0.7l3.9-0.7
	l0.7-1.9l-1.3-1.9l0.7-1.3l6.5-3.9h3.2l1.9,1.9l3.9,1.9l4.5,1.3l2.6,1.9h2.6l3.2,0.7l7.1,3.2l1.9-0.7h1.9l3.2,0.7h2.6l1.9,1.3
	l-0.7,1.3v1.3l1.3,0.7L471-30z"/>
</svg>
