<?xml version="1.0" encoding="utf-8"?>
<!-- Generator: Adobe Illustrator 16.0.4, SVG Export Plug-In . SVG Version: 6.00 Build 0)  -->
<svg version="1.2" baseProfile="tiny" id="Layer_1" xmlns="http://www.w3.org/2000/svg" xmlns:xlink="http://www.w3.org/1999/xlink"
	 x="0px" y="0px" width="153px" height="64px" viewBox="0 0 153 64" xml:space="preserve">
<title>US-Mainland</title>
<desc>Created with Sketch.</desc>
<rect x="-208.783" y="-680" fill="none" width="1440" height="1024"/>
<path id="Background" fill="#BAC9CF" d="M91.428-46.5c-5.071,7.457-10.144,14.914-15.213,22.372
	c-0.354,2.433-0.709,4.869-1.061,7.301c-0.086,0.278-0.015,0.672-0.187,0.886c-0.196,0.089-0.436,0.161-0.627,0.116
	c-0.203-0.005,0.006,0.142-0.179,0.142c0.059,0.05-0.008,0.032,0.016,0.116c-0.011,0.108-0.236,0.288-0.166,0.393
	c-0.116-0.054-0.04,0.043-0.13,0.079c-0.069-0.184-0.02,0.026-0.146,0.063c-0.279,0.031,0.023,0.489-0.293,0.389
	c-0.097,0.105-0.179,0.408-0.391,0.26c-0.089,0.057-0.127-0.043-0.206,0.083c-0.145-0.105-0.27,0.053-0.344,0.173
	c-0.214,0.012-0.222,0.184-0.306,0.363c-0.185,0.154-0.237,0.321-0.188,0.548c0.118,0.157-0.018,0.32,0.029,0.501
	c0,0.168-0.184,0.162-0.271,0.283c-0.323-0.037-0.208,0.287-0.412,0.408c0.022,0.196-0.161,0.252-0.205,0.438
	c-0.02,0.121-0.172,0.289-0.038,0.391c-0.037,0.155-0.162,0.28-0.149,0.467c-0.06,0.204-0.174,0.301-0.22,0.519
	c-0.179,0,0,0.149-0.043,0.206c-0.13,0.133-0.184,0.324-0.313,0.436c-0.075,0.068-0.139,0.248-0.003,0.306
	c0.061,0.085,0.141,0.261,0.241,0.328c0.154,0.061,0.182,0.228,0.31,0.303c0.051,0.136,0.241,0.191,0.241,0.33
	c0.123,0.042,0.167,0.024,0.233,0.193c-0.107,0.073-0.044,0.169-0.092,0.255c-0.05,0.107-0.046,0.208-0.1,0.303
	c-0.046,0.059-0.103,0.176-0.122,0.266c-0.029,0.092-0.123,0.196-0.021,0.294c0.082,0.303-0.217,0.175-0.396,0.156
	c-0.035,0.042-0.296,0.008-0.251,0.081c-0.162,0.122-0.078,0.416-0.338,0.459c0.023,0.108-0.015,0.15-0.025,0.264
	c-0.099,0.065,0.046,0.094-0.054,0.138c-0.244,0.2,0.034,0.254,0.205,0.25c0.129-0.075,0.216-0.029,0.309-0.001
	c0.037,0.104,0.007,0.278-0.115,0.36c-0.12,0.149-0.293,0.237-0.329,0.435c0.119,0.116-0.076,0.236-0.214,0.308
	c-0.242,0.136,0.065,0.144,0.021,0.303c0.133,0.068,0.133,0.252,0.16,0.373c0.194,0.024,0.252,0.206,0.378,0.118
	c-0.066,0.148-0.243,0.306-0.437,0.36c-0.062,0.13-0.095,0.217-0.123,0.371c0.082,0.124-0.171,0.191-0.022,0.233
	c0.161-0.142,0.326,0.034,0.502-0.042c0.113,0.053,0.22-0.149,0.292-0.035c-0.044,0.086,0.033,0.164,0.14,0.054
	c0.094,0.006,0.234,0.178,0.136,0.31c0.13,0.039,0.163-0.172,0.234,0.024c0.079,0.167,0.301,0.261,0.102,0.428
	c-0.169,0.115-0.367,0.26-0.377,0.468c0.14,0.041,0.078,0.213,0.071,0.332c0.283,0.106-0.042,0.331-0.138,0.461
	c0.241,0.054,0.045,0.201-0.095,0.272c-0.11,0.185-0.266,0.344-0.448,0.488c-0.21,0.142-0.378,0.316-0.635,0.356
	c-0.212,0.042-0.462,0.085-0.547,0.307c-0.061,0.168-0.216,0.331-0.415,0.275c0.094,0.179-0.209,0.282-0.319,0.448
	c0.029,0.195-0.301,0.31-0.203,0.489c0.058,0.222-0.168,0.185-0.291,0.175c-0.263,0.021-0.016,0.188-0.102,0.331
	c0.184,0.034,0.168,0.284,0.19,0.425c-0.089,0.242,0.092,0.378,0.253,0.493c0.285,0.157-0.174,0.323,0.066,0.496
	c0.195-0.014,0.061,0.311-0.085,0.218c-0.099,0.119-0.108,0.375-0.339,0.385c-0.051,0.1-0.494,0.124-0.311,0.24
	c-0.126,0.048-0.314,0.148-0.484,0.105c-0.163-0.144-0.396-0.037-0.462,0.127c-0.176,0.195-0.436,0.306-0.614,0.502
	c-0.199,0.078-0.301,0.345-0.478,0.461C65.345,5.542,65.191,5.892,65,5.806c-0.257-0.083-0.274,0.226-0.334,0.361
	c-0.176,0.195-0.361,0.336-0.448,0.561c-0.033,0.222-0.342,0.14-0.398,0.333c-0.196,0.1-0.188,0.368-0.415,0.381
	c-0.253-0.015-0.462,0.176-0.481,0.41c-0.139,0.245-0.363,0.41-0.493,0.646c0,0.169-0.331,0.067-0.229,0.188
	c-0.098,0.142-0.003,0.311,0.165,0.422c-0.187,0.066-0.357,0.319-0.446,0.54c0.034,0.173-0.234,0.162-0.225,0.385
	c-0.143,0.06-0.415,0.293-0.193,0.458c0.373,0.074-0.051,0.374,0.079,0.56c0.11,0.224,0.494,0.181,0.484,0.454
	c-0.125,0.233,0.187,0.159,0.209,0.311c-0.102,0.303,0.253,0.206,0.373,0.4c0.244-0.045,0.27,0.144,0.396,0.288
	c0,0.272,0.491,0.292,0.247,0.583c-0.288,0.146,0.214,0.282,0.187,0.438c-0.17,0.055-0.332,0.13-0.338,0.35
	c0.199,0.198-0.13,0.275-0.27,0.357c-0.307,0.051-0.098-0.325-0.364-0.385c-0.184-0.257-0.422,0.01-0.636-0.125
	c-0.206,0.163-0.408,0.034-0.591-0.136c0.009-0.223-0.261-0.271-0.312-0.472c0.089-0.203-0.127-0.235-0.193-0.385
	c-0.196,0.076-0.359-0.028-0.564-0.084c-0.061,0.242-0.266-0.032-0.341,0.146c0.017,0.266-0.297,0.207-0.31,0.426
	c-0.124,0.188-0.336,0.345-0.216,0.577c0.255,0.022,0.301,0.369,0.384,0.577c0.142,0.191-0.114,0.191-0.104,0.366
	c-0.188,0.065,0.013,0.175-0.01,0.3c-0.225,0.097-0.253,0.388-0.091,0.559c0.145,0.012,0.176,0.172,0.134,0.32
	c0.064,0.155-0.157,0.24-0.109,0.333c0.079,0.31-0.275,0.218-0.45,0.362c0.106,0.106,0.13,0.391-0.034,0.527
	c0.019,0.241-0.301,0.295-0.257,0.507c0.035,0.168-0.076,0.374,0.092,0.517c0.168,0.084,0.175,0.245-0.049,0.198
	c-0.194,0.191-0.396,0.101-0.607,0.003c-0.179,0.034-0.293-0.15-0.433-0.235c-0.063-0.171,0.112-0.478-0.167-0.552
	c0.003-0.199-0.168-0.393-0.33-0.54c-0.021-0.208,0.239-0.371,0.168-0.587C57.251,16.326,57.512,16,57.2,15.997
	c-0.066-0.173-0.371-0.146-0.364-0.394c-0.146-0.068-0.035-0.435-0.273-0.274c-0.141,0.198-0.318,0.101-0.518,0.148
	c-0.133-0.08-0.212-0.222-0.352-0.32c-0.12-0.207-0.32-0.085-0.21,0.119c-0.095,0.2,0.315,0.225,0.109,0.428
	c-0.049,0.316-0.409,0.19-0.534,0.383c-0.136,0.009-0.305-0.119-0.462-0.028c-0.217-0.151-0.381,0.177-0.614,0.177
	c0.03,0.537,0.084,1.07,0.112,1.606c0.042,1.442,0.13,2.881,0.187,4.322c0.063,1.22,0.092,2.44,0.146,3.661
	c0.085,1.412,0.153,2.822,0.231,4.23c0.121,2.564,0.231,5.125,0.268,7.692c0.043,1.788,0.144,3.58,0.176,5.37
	c0.046,1.019,0.057,2.04,0.092,3.059c0.011,0.931,0.057,1.863,0.065,2.797c0.025,1.274,0.046,2.553,0.096,3.828
	c0.019,1.624,0.092,3.248,0.092,4.875c0.033,0.877,0.033,1.754,0.035,2.631l0.022-0.017c0.052,0.89,0.121,1.776,0.124,2.667
	c0.079,1.262,0.116,2.528,0.152,3.791c0.165,0.008,0.146,0.189,0.297,0.243c0.078,0.168,0.192,0.313,0.114,0.496
	c0.044,0.242-0.275-0.013-0.218,0.255c0.129,0.134,0.125,0.316,0.196,0.465c-0.079,0.12,0,0.277-0.071,0.332
	c-0.01,0.238-0.15,0.346-0.236,0.548c-0.073,0.147,0.063,0.257-0.066,0.309c-0.174,0.005-0.051,0.141,0.063,0.178
	c0.181,0.001,0.155,0.302,0.087,0.447c-0.208,0.209,0.123,0.399,0.023,0.602c-0.263,0.035-0.06,0.45-0.372,0.454
	c-0.244,0.176-0.16,0.505-0.073,0.729c-0.19,0.082-0.035,0.272-0.083,0.444c0.103,0.143,0.107,0.339,0.24,0.496
	c-0.18,0.175,0.131,0.228,0.025,0.438c0.03-0.036,0.206-0.024,0.098,0.089c0.088,0.15,0.237,0.141,0.269,0.349
	c0.152-0.007,0.307-0.062,0.5-0.082c-0.005,0.05-0.008,0.116,0.04,0.228c0.144,0.013,0.065,0.117,0.136,0.102
	c-0.03,0.041,0.019,0.079,0.109,0.057c-0.061,0.127,0.044,0.003,0.038,0.109c0.18,0,0.035,0.049,0.104,0.122
	c-0.143-0.01-0.02,0.087,0,0.15c-0.095,0.059,0.089,0.232,0.169,0.136c-0.025,0.109,0.214,0.223,0.104,0.269
	c-0.249-0.039-0.173,0.28,0.029,0.132c-0.079,0.102-0.003,0.253,0.163,0.26c0.203-0.013,0.003,0.074,0.14,0.136
	c-0.137,0.26,0.234,0.124,0.237,0.323c0.125,0.082,0.277,0.133,0.272,0.332c0.095,0.035,0.478,0.003,0.373,0.234
	c0.106,0.015-0.016,0.217,0.12,0.168c0.196-0.054,0.5,0.174,0.38,0.386c0.247,0.028,0.125,0.331,0.005,0.446
	c-0.016,0.209-0.118,0.42-0.056,0.632c-0.266,0.047-0.156,0.269-0.1,0.444c-0.051,0.178-0.107,0.362-0.118,0.571
	c-0.175,0.268-0.016,0.54,0.013,0.821c0.118,0.267,0.462,0.315,0.61,0.563c0.198,0.124,0.323,0.342,0.517,0.45
	c0.347-0.017,0.246,0.538,0.612,0.478c0.169,0.155,0.359,0.163,0.595,0.12c0.288-0.107,0.293,0.132,0.303,0.358
	c0.066,0.09,0.345-0.07,0.446-0.157c0.193,0.008,0.271-0.166,0.377-0.28c-0.076-0.225,0.202-0.243,0.199-0.467
	c0.03-0.263,0.263-0.436,0.396-0.623c0.133-0.16-0.003-0.584,0.309-0.542c0.077-0.213-0.145-0.359,0.005-0.592
	c0.022-0.296,0.298-0.539,0.544-0.283c0.301,0.035,0.045-0.181-0.014-0.307c-0.188-0.203,0.043-0.356,0.135-0.507
	c0.177-0.168-0.035-0.411,0.195-0.573c0.196-0.153,0.154-0.319,0.048-0.487c-0.163-0.153-0.104-0.422-0.263-0.602
	c0.079-0.325,0.179-0.651,0.356-0.944c0.276-0.17,0.141-0.551,0.309-0.829c0.146-0.287,0.36-0.575,0.592-0.771
	c0.196-0.13,0.487-0.332,0.702-0.101c0.063-0.078,0.2-0.178,0.33-0.117c0.229-0.024,0.544,0.275,0.623-0.054
	c0.174,0.039,0.133-0.143,0.25-0.213c0.236-0.011,0.428-0.047,0.614-0.205c0.04-0.221-0.114-0.372-0.169-0.583
	c-0.101-0.25,0.1-0.62,0.398-0.459c0.248,0.216,0.277-0.225,0.428-0.321c0.192-0.151,0.12-0.444,0.248-0.644
	c0.104-0.225,0.339-0.303,0.561-0.354c0.164,0.151,0.138-0.154,0.307-0.15c-0.181-0.229-0.345,0.09-0.533-0.076
	c-0.303-0.033-0.397-0.337-0.51-0.568c-0.013-0.278-0.109-0.548-0.021-0.823c0.015-0.177,0.244-0.468,0.231-0.51
	c0.182-0.3,0.371-0.699,0.763-0.746c0.199-0.083,0.538,0.141,0.316,0.307c-0.025,0.186,0.462,0.066,0.186-0.09
	c0-0.272,0.266-0.489,0.505-0.604c0.161-0.231,0.414-0.181,0.525,0.032c0.23-0.038,0.484,0.129,0.633-0.137
	c0.074-0.235,0.386-0.209,0.39,0.03c0.208,0.036,0.434-0.135,0.396-0.332c-0.066,0.016-0.058-0.101-0.096-0.163
	c-0.095-0.03-0.154-0.133-0.047-0.239c0.139-0.232-0.107-0.147-0.24-0.291c0.096-0.137-0.035-0.091-0.013-0.196
	c0.115-0.097-0.035-0.283,0.05-0.3c0.104-0.139,0.065-0.242,0.14-0.404c-0.207-0.079-0.008-0.33,0.14-0.402
	c0.158-0.111,0.248-0.313,0.378-0.44c0.09-0.088,0.215-0.31,0.059-0.36c0.127-0.133,0.244-0.434,0.416-0.421
	c0.112-0.094,0.183-0.078,0.127-0.227c0.223-0.056,0.275-0.535,0.502-0.391c0.103,0.112,0.464,0.242,0.284,0.388
	c0.022,0.054-0.047,0.039,0.054,0.141c0.152,0.057,0.275,0.237,0.388,0.237c0.163-0.148,0.157-0.335,0.197-0.505
	c-0.315,0.057,0.011-0.212,0.045-0.332c0.157-0.328,0.565-0.076,0.82-0.249c0.247-0.143,0.535-0.084,0.798-0.034
	c0.26-0.017,0.24-0.434,0.544-0.456c0.342-0.066,0.283-0.38,0.171-0.632c0.013-0.229,0.265-0.401,0.497-0.464
	c0.209,0.125,0.12-0.23,0.287-0.24c0.215-0.01,0.437,0,0.636,0.016c0.211,0.045,0.532-0.258,0.725,0.013
	c-0.062,0.174,0.086,0.301,0.104,0.477c-0.035,0.201-0.024,0.444-0.037,0.635c-0.126,0.234,0.379,0.206,0.3,0.418
	c0.218,0,0.025,0.189,0.085,0.286c-0.136,0.148-0.03,0.229,0.109,0.103c0.198-0.07,0.16,0.334,0.28,0.089
	c0.125-0.181-0.092-0.272-0.063-0.443c0.102-0.196,0.425-0.256,0.614-0.392c0.209-0.048,0.418-0.096,0.628-0.143
	c0.186-0.032,0.372-0.175,0.512-0.257c0.112-0.26,0.089-0.625,0.354-0.785c0.066-0.11,0.332-0.234,0.283-0.354
	c0.182-0.209,0.043-0.535,0.155-0.773c-0.012-0.257,0.403-0.078,0.582-0.143c0.018,0.1,0.083,0.312,0.287,0.329
	c0.164,0.035,0.066,0.235,0.158,0.268c0.021,0.144,0.11,0.256,0.189,0.393c0.237,0.251,0.086-0.14,0.073-0.287
	c-0.038-0.238,0.261-0.327,0.465-0.35c0.171-0.113,0.382-0.217,0.594-0.294c0.15,0.044,0.115-0.069,0.229-0.028
	c0.104-0.155,0.311-0.323,0.544-0.26c0.17-0.174,0.481-0.266,0.369-0.562c0.008-0.188-0.015-0.397,0.069-0.545
	c0.204,0.036,0.543-0.112,0.597,0.16c0.104,0.199,0.03,0.411,0.048,0.587c-0.038,0.187,0.063,0.066,0.146,0.003
	c0.203-0.143,0.16-0.388,0.26-0.577c0.095-0.206,0.188-0.433,0.239-0.645c-0.009-0.141,0.144-0.217,0.229-0.309
	c0.066-0.127,0.192-0.263,0.225-0.402c0.218-0.196,0.535-0.228,0.778-0.384c0.146-0.186-0.155-0.517,0.082-0.649
	c-0.033-0.186-0.18-0.081-0.202-0.288c-0.087-0.255,0.143-0.423,0.209-0.653c-0.082-0.301,0.329-0.214,0.459-0.035
	c0.151,0.102-0.035,0.365,0.133,0.367c0.033-0.189,0.158-0.24,0.352-0.21c0.215-0.086,0.354,0.22,0.389,0.371
	c0.013,0.14-0.284,0.181-0.08,0.336c0.011,0.189-0.217,0.245-0.3,0.431c0.2-0.048,0.548,0.212,0.672-0.041
	c-0.01-0.234,0.148-0.301,0.37-0.361c0.188-0.092,0.443-0.225,0.521,0.071c0.059,0.115,0.115,0.309,0.245,0.362
	c0.249,0.027,0.209,0.375,0.418,0.219c0.212-0.025,0.362-0.152,0.541-0.265c-0.105-0.266,0.206-0.169,0.38-0.258
	c0.186-0.177,0.158,0.22,0.308,0.022c-0.162-0.107,0.102-0.206,0.196-0.326c0.181-0.136,0.087-0.497,0.342-0.491
	c-0.083-0.192,0.076-0.266,0.016-0.416c0.181-0.011,0.168-0.146,0.13-0.306c0.125-0.281,0.452-0.069,0.648,0.013
	c-0.016,0.142,0.275,0.303,0.364,0.196c0.274-0.044,0.633-0.118,0.912,0.027c0.253,0.229,0.275-0.224,0.375-0.378
	c0.156-0.121,0.368-0.154,0.4-0.372c0.215-0.073-0.058-0.227,0.021-0.318c-0.115-0.016-0.388-0.013-0.471-0.15
	c-0.05-0.173-0.161-0.469,0.017-0.612c-0.079-0.109-0.143-0.298-0.239-0.434c0.003-0.196,0.232-0.117,0.35-0.206
	c0.127-0.106,0.412,0.094,0.323-0.117c0.021-0.146,0.443-0.348,0.234-0.519c-0.086-0.181-0.237-0.38-0.453-0.33
	c-0.191,0.149-0.475,0.073-0.655,0.275c-0.171-0.066-0.354-0.263-0.263-0.429c-0.008-0.272,0.321-0.372,0.451-0.535
	c0.028-0.207,0.103-0.457-0.005-0.679c-0.155-0.109,0.087-0.207-0.025-0.354c-0.11-0.255,0.127-0.398,0.364-0.342
	c0.057-0.066,0.286-0.256,0.114-0.367c-0.117-0.243,0.199-0.462,0.016-0.661c0.11-0.193,0.289-0.349,0.229-0.583
	c-0.03-0.294,0.207-0.497,0.268-0.743c0.191-0.186,0.331-0.44,0.46-0.678c0.154-0.203-0.103-0.438,0.129-0.597
	c-0.117-0.207,0.123-0.232,0.293-0.253c0.118-0.109,0.118,0.131,0.182,0.066c0.11-0.163,0.164-0.219,0.269-0.352
	c0.16-0.117,0.158-0.359,0.247-0.55c0.022-0.271,0.07-0.475,0.089-0.743c0.03-0.229-0.181-0.456-0.255-0.624
	c-0.109-0.302-0.479-0.293-0.59-0.579c0.174-0.095,0.121-0.281,0.034-0.424c-0.112-0.186-0.291-0.551,0.081-0.517
	c0.232-0.021,0.457-0.069,0.663-0.161c0.156,0.202,0.177-0.14,0.36-0.193c0.035-0.261,0.222-0.388,0.481-0.414
	c0.328-0.143,0.377,0.266,0.44,0.492c0.08,0.306,0.335,0.138,0.401-0.056c0.193-0.066,0.184-0.201,0.304-0.326
	c0.262-0.135,0.451-0.322,0.655-0.519c0.247-0.051,0.352,0.269,0.526,0.398c-0.116,0.206,0.066,0.565-0.282,0.599
	c-0.133,0.191-0.11,0.475-0.196,0.699c-0.003,0.347,0.031,0.678,0.146,1c0.058,0.225,0.025,0.475-0.104,0.647
	c0.028,0.207-0.202,0.492,0.056,0.647c-0.128,0.095-0.224,0.288-0.163,0.439c0.189,0.05,0.411,0.092,0.63,0.126
	c0.147-0.134,0.353-0.17,0.497-0.349c0.105-0.255,0.36-0.386,0.627-0.329c0.326-0.018,0.168,0.276,0.126,0.473
	c-0.028,0.188-0.269,0.517,0.03,0.535c0.266,0.045,0.1,0.44,0.359,0.425c0.062,0.208,0.424,0.185,0.472,0.427
	c0.152,0.237,0.095,0.44,0,0.681c0.035,0.326-0.449,0.345-0.632,0.541c-0.238,0.152,0.122,0.124,0.068,0.272
	c0.27,0.011,0.123,0.352-0.095,0.359c-0.007,0.16,0.284,0.112,0.37,0.193c0.117,0.188-0.128,0.199-0.119,0.378
	c0.048,0.173-0.062,0.306-0.021,0.487c0.175,0.082,0.229,0.362,0.44,0.196c0.01,0.186,0.411,0.127,0.298,0.303
	c0.066,0.075,0.092,0.242,0.104,0.309c0.278-0.083,0.394,0.281,0.587,0.301c0.151,0.041,0.318,0.117,0.498,0.164
	c0.292,0.209,0.376-0.248,0.634-0.296c0.143-0.156,0.617-0.283,0.401-0.521c-0.196,0-0.435,0.181-0.658,0.013
	c0.035-0.27-0.313-0.298-0.354-0.551c0.044-0.133,0.405-0.247,0.576-0.209c0.136-0.107,0.364-0.472,0.566-0.228
	c0.296,0.138,0.155-0.244,0.13-0.418c0.102-0.203,0.206-0.404,0.323-0.596c0.112-0.237,0.421-0.121,0.535-0.367
	c0.075-0.229-0.26-0.442-0.071-0.684c0.31-0.256-0.002-0.514-0.07-0.786c-0.125-0.163,0.015-0.354-0.062-0.505
	c-0.087-0.227-0.612,0.013-0.696-0.341c-0.095-0.226,0-0.464,0.013-0.689c0.063-0.366,0.424-0.199,0.671-0.1
	c-0.072,0.146,0.102,0.422,0.304,0.335c0.227-0.156,0.393,0.104,0.518,0.241c0.012,0.185,0.1-0.025,0.201-0.048
	c0.234-0.224-0.298-0.383-0.102-0.671c-0.028-0.312-0.188-0.589-0.275-0.887c0.054-0.204,0.446-0.301,0.64-0.235
	c-0.021-0.008,0.261-0.206,0.127-0.246c-0.138-0.246,0.044-0.506,0.062-0.759c0.169-0.048,0.578-0.18,0.604,0.101
	c-0.21,0.196,0.059,0.472,0.273,0.308c0.099,0.146,0.44,0.386,0.267,0.536c-0.301,0.097-0.611,0.173-0.739,0.486
	c-0.157,0.098-0.272,0.294-0.247,0.484c-0.179,0.042,0.033,0.136-0.011,0.188c0.005,0.188,0.291,0.469,0.054,0.688
	c-0.184,0.143,0.021,0.303-0.066,0.488c0.24,0.085,0.443,0.24,0.554,0.475c0.177,0.205,0.332,0.432,0.516,0.61
	c-0.092,0.206,0.094,0.288,0.241,0.349c0.098,0.25,0.302-0.057,0.437,0.133c0.296,0.102,0.003,0.375,0.196,0.522
	c0.275-0.082,0.563,0.269,0.794,0.03c0.203,0.105,0.176-0.191,0.311-0.097c-0.057-0.097,0.102-0.104,0.066-0.239
	c0.149-0.033,0.211-0.179,0.413-0.133c0.232-0.1,0.272,0.128,0.449,0.176c0.125-0.196,0.389,0.104,0.468-0.166
	c0.161-0.037-0.013-0.03-0.007-0.127c0.073-0.239,0.26-0.411,0.535-0.41c0.172,0.125,0.153-0.034,0.079-0.155
	c-0.066,0.042-0.119-0.024-0.212-0.034c-0.152-0.051-0.44-0.1-0.472-0.354c0.103-0.281,0.368-0.338,0.522-0.547
	c0.028-0.242,0.12,0.009,0.209-0.097c0.146-0.07,0.332-0.26,0.468-0.326c-0.117-0.236,0.022-0.507,0.278-0.545
	c-0.062-0.123,0.04-0.288-0.072-0.421c0.161-0.117-0.155-0.222-0.13-0.421c-0.006-0.22-0.015-0.41-0.196-0.576
	c0.018-0.258-0.369-0.397-0.206-0.635c0.165,0.012,0.27-0.176,0.425-0.163c0.288-0.037,0.449,0.145,0.715,0.279
	c-0.095,0.189,0.028,0.25,0.104,0.396c0.052,0.199,0.115-0.152,0.146,0.001c0.078-0.276,0.274-0.153,0.395,0.022
	c0.215,0.15,0.209,0.459,0.369,0.638c0.199,0.166,0.544,0.184,0.677,0.448c-0.034,0.245,0.242,0.214,0.405,0.255
	c0.066-0.262,0.203-0.489,0.37-0.706c0.241-0.127-0.074-0.472,0.114-0.678c0.104-0.299,0.326-0.371,0.627-0.389
	c0.212-0.07,0.117,0.11,0.225,0.177c0.107-0.066,0.266-0.23,0.439-0.156c-0.031-0.211,0.17-0.236,0.326-0.326
	c0.298,0.008,0.13-0.451,0.453-0.318c0.263-0.023,0.414,0.076,0.431,0.342c0.098,0.301,0.139-0.06,0.174-0.156
	c0.202-0.128-0.066-0.198,0.039-0.347c0.239-0.038,0.494-0.054,0.736-0.104c0.057-0.133,0.15-0.212,0.063-0.398
	c-0.124-0.022-0.206-0.247-0.106-0.372c0.254-0.004,0.436-0.109,0.545-0.306c-0.074-0.161-0.209-0.326-0.1-0.535
	c-0.01-0.306,0.232-0.247,0.459-0.291c0.24-0.127,0.292,0.206,0.446,0.182c0.047,0.17,0.13,0.1,0.189,0.024
	c0.016-0.137-0.155-0.43-0.272-0.538c-0.218-0.004-0.158-0.19-0.212-0.349c-0.044-0.345,0.459-0.171,0.64-0.298
	c0.201-0.069,0.731-0.301,0.666,0.066c0.135,0.225-0.182,0.193-0.302,0.288c0.072,0.143-0.063,0.155-0.048,0.222
	c0.19,0.035,0.418-0.06,0.616-0.034c0.253-0.147,0.444,0.196,0.638,0.304c0.199,0.057,0.398,0.151,0.538,0.271
	c0.043-0.126,0.136-0.205,0.199-0.302c-0.111-0.227,0.136-0.212,0.288-0.173c0.237,0.127,0.492,0.112,0.747,0.117
	c0.141,0.003,0.269-0.038,0.289,0.171c0.088,0.168,0.122,0.308,0.124,0.525c-0.122,0.127-0.492,0.313-0.318,0.438
	c-0.028,0.144,0.102,0.146,0.244,0.158c0.005-0.033,0.21-0.124,0.269-0.188c0.117-0.042,0.163-0.123,0.247-0.129
	c0.073-0.046,0.209-0.14,0.339-0.206c0.24-0.107,0.447-0.329,0.554-0.554c-0.03-0.188,0.076-0.162,0.216-0.32
	c0.162-0.126,0.208-0.284,0.074-0.401c0.019-0.149-0.173-0.272-0.306-0.306c-0.206-0.122-0.522-0.027-0.681-0.036
	c-0.013-0.242-0.15-0.505-0.019-0.73c-0.081-0.044,0.001-0.196-0.073-0.321c-0.219-0.057-0.035-0.259,0.123-0.253
	c0.233-0.057,0.535-0.273,0.726-0.006c0.098,0.054,0.049,0.13,0.196,0.131c0.151,0.049,0.309-0.059,0.424-0.077
	c0.147-0.111,0.063-0.477,0.222-0.64c-0.092-0.14-0.181-0.362-0.133-0.584c0.101-0.09,0.506-0.106,0.618,0.033
	c0.142-0.206,0.363-0.081,0.565-0.031c0.169,0.092,0.49-0.089,0.602,0.194c0.235,0.1,0.066,0.444,0.231,0.505
	c0.177,0.013,0.47,0.197,0.585,0.044c0.02-0.125,0.26-0.212,0.196-0.301c0.152-0.103,0.025-0.156-0.051-0.235
	c-0.151-0.16-0.193-0.492-0.475-0.399c-0.196,0.051-0.375-0.378-0.136-0.426c0.146-0.103,0.309-0.161,0.365-0.321
	c0.146-0.128-0.059-0.266,0.084-0.365c0.209-0.177,0.606-0.109,0.711-0.386c-0.018-0.312,0.33-0.28,0.497-0.13
	c0.179,0.021-0.053,0.304,0.175,0.189c0.083,0.132-0.031,0.374-0.062,0.551c-0.032,0.26-0.206,0.41-0.438,0.52
	c-0.123,0.098,0.04,0.169,0.046,0.253c0.163-0.15,0.046,0.203,0.112,0.187c0.076-0.062,0.206,0.083,0.306-0.05
	c0.124,0.039,0.122-0.073,0.147-0.063c0.034-0.149,0.206-0.084,0.323-0.073c0.237,0.054,0.33-0.057,0.351-0.275
	c0.095-0.127,0.127-0.438,0.236-0.431c0.118-0.213,0.269-0.354,0.505-0.347c0.079-0.071,0.18-0.011,0.251-0.066
	c0.138-0.008,0.217-0.12,0.306-0.139c0.16,0.077,0.032-0.15,0.081-0.262c-0.04-0.205,0.197-0.297,0.344-0.275
	c0.12,0.041,0.156-0.066,0.243-0.092c0.13-0.041,0.166-0.169,0.171-0.297c0.102-0.051,0.041-0.158,0.089-0.267
	c0.066-0.062,0.092-0.15,0.188-0.146c0.09-0.104,0.223-0.188,0.268-0.282c0.041-0.131,0.158-0.09,0.204-0.256
	c0.115-0.132,0.15-0.263,0.229-0.372c-0.025-0.076-0.016-0.272,0.092-0.287c0.12-0.128,0.268-0.394,0.472-0.367
	c0.062-0.071,0.08-0.21,0.201-0.314c0.121-0.135,0.258-0.274,0.4-0.354c0.041-0.089,0.196-0.102,0.281-0.146
	c0.104,0.016,0.272-0.079,0.231-0.237c0.199-0.035,0.046-0.121,0.177-0.203c-0.047-0.159,0.032-0.209,0.143-0.193
	c0.107,0.119,0.161-0.167,0.271-0.23c-0.036-0.117,0.111-0.216,0.266-0.26c0.176-0.084,0.326-0.019,0.43-0.198
	c0.164-0.042,0.042-0.225,0.1-0.309c0.299-0.202-0.087-0.159-0.268-0.189c-0.26-0.133-0.255-0.5-0.334-0.747
	c-0.169-0.26-0.115-0.576-0.036-0.854c0.06-0.256,0.205-0.6,0.085-0.824c-0.196-0.188-0.446-0.321-0.602-0.551
	c-0.126-0.231-0.278-0.446-0.477-0.62c-0.438-0.918-0.87-1.834-1.306-2.753c-0.279-0.543-0.5-1.112-0.709-1.684
	c-0.146-0.303-0.326-0.598-0.557-0.85c-0.242-0.192-0.323-0.544-0.583-0.704c-0.263-0.099-0.588,0.043-0.804-0.19
	c-0.21-0.028-0.485,0.435-0.643,0.097c-0.266-0.012-0.158-0.36-0.405-0.382c-0.212-0.169-0.548-0.391-0.776-0.169
	c-0.024,0.149-0.119,0.328-0.017,0.477c-0.184,0.056-0.35,0.427-0.08,0.515c0.196,0.331-0.451,0.268-0.461,0.441
	c0.112,0.251-0.166,0.246-0.302,0.32c-0.114,0.241-0.264,0.015-0.43,0.003c-0.079-0.188-0.309-0.262-0.411-0.442
	c-0.079-0.235-0.336-0.167-0.492-0.316c-0.367-0.104,0.016-0.334-0.057-0.54c-0.18-0.078-0.288-0.248-0.418-0.397
	c-0.323,0.001-0.152-0.345-0.267-0.537c-0.133-0.24-0.129-0.523-0.357-0.701c-0.028-0.265-0.332-0.2-0.396-0.416
	c-0.158-0.262-0.196-0.499-0.266-0.788c-0.143,0.034-0.089-0.161-0.236-0.149c-0.013-0.107,0.048-0.46,0.204-0.242
	c0.032-0.119,0.358-0.136,0.195-0.297c0.2-0.006,0.163-0.208,0.226-0.363c0.219-0.161-0.062-0.329,0.017-0.482
	c0.213-0.056,0.266-0.205,0.38-0.367c0.259-0.101-0.01-0.371,0.197-0.519c-0.227-0.073-0.214-0.294-0.081-0.454
	c0.295,0,0.099-0.24,0.032-0.415c-0.051-0.218-0.286-0.349-0.411-0.533c-0.168-0.126-0.303-0.291-0.356-0.475
	c-0.312,0.08-0.303-0.305-0.382-0.49c0.127-0.119-0.023-0.222-0.1-0.342c0.053-0.226-0.021-0.477-0.242-0.625
	c-0.102-0.104-0.329-0.527-0.051-0.49c0.19,0.198,0.143-0.28,0.29-0.125c0.09-0.167,0.275-0.005,0.372-0.104
	c-0.07-0.045-0.19-0.081-0.143-0.225c0.152-0.188,0.242,0.011,0.369,0.138c0.235,0.047-0.134-0.264,0.042-0.303
	c0.149,0.101,0.339,0.203,0.479,0.24c0.041-0.161,0.117-0.108,0.199-0.009c0.09-0.177-0.193-0.323-0.215-0.492
	c-0.196-0.054-0.184-0.43-0.13-0.619c0.143,0.021,0.189-0.065,0.176-0.218c0.197-0.221-0.309-0.52-0.03-0.701
	c0-0.312-0.316-0.468-0.462-0.717c-0.063-0.21-0.352-0.305-0.514-0.101c-0.121-0.134-0.389-0.034-0.479,0.043
	c0.285,0.107-0.09,0.478-0.312,0.37c-0.323,0.046-0.531-0.333-0.864-0.271c-0.196,0.155-0.418-0.008-0.641-0.119
	c-0.198-0.253-0.565,0.037-0.741-0.275c-0.146-0.081-0.394-0.478-0.521-0.263c0.168,0.119-0.014,0.36-0.133,0.17
	c-0.171-0.245-0.456-0.224-0.573-0.511c-0.138-0.226-0.304-0.417-0.386-0.648c-0.084-0.241-0.25-0.454-0.326-0.692
	c-0.25,0.198-0.263-0.3-0.505-0.209c-0.015,0.298,0.291,0.486,0.349,0.71c-0.084,0.078-0.306,0.042-0.399-0.089
	c-0.112-0.177-0.163-0.118-0.306-0.005c-0.182-0.07-0.329-0.361-0.595-0.256c-0.261,0.028-0.523,0.048-0.62-0.25
	c-0.183-0.176-0.096-0.249,0.133-0.267c0.057-0.208-0.079-0.542-0.099-0.797c-0.138-0.28,0.231-0.176,0.395-0.229
	c0.289,0.011-0.059-0.36-0.087-0.526c-0.149-0.137-0.375-0.175-0.346-0.441c0.106-0.254,0.076-0.594,0.025-0.891
	c0.022-0.274,0.282-0.412,0.459-0.585c0.035-0.224,0.274-0.068,0.399-0.18c0.299-0.097-0.073-0.195-0.063-0.371
	c-0.041-0.206-0.27-0.293-0.424-0.441c-0.111-0.127-0.284-0.342-0.239-0.452c-0.09-0.091-0.214-0.173-0.157-0.352
	c-0.05-0.214,0.14-0.253,0.229-0.418c0.051-0.167,0.234-0.071,0.298-0.191c0.171,0.075,0.161-0.132,0.205-0.248
	c0.01-0.183,0.094-0.099,0.171-0.203c0.084,0.015,0.137-0.131,0.117-0.186c-0.12-0.088-0.112-0.269-0.285-0.269
	c0.017-0.122-0.12-0.079-0.151-0.164c-0.111,0-0.168-0.116-0.174-0.255c-0.046-1.103-0.063-2.21-0.104-3.314
	c-0.135-4.42-0.282-8.841-0.494-13.259c-0.135-2.516-0.201-5.032-0.298-7.55c-0.087-2.662-0.158-5.323-0.256-7.986
	c-0.027-0.309,0.09-0.73-0.333-0.795c-0.185-0.19-0.38-0.333-0.644-0.39c-0.166-0.15-0.382-0.223-0.571-0.337
	c-0.229-0.022-0.462-0.157-0.487-0.412c0.082-0.36-0.257-0.53-0.371-0.82c-0.118-0.26-0.478-0.286-0.566-0.585
	c-0.052-0.28-0.375-0.457-0.345-0.742c-0.022-0.361-0.453-0.517-0.757-0.57c-0.25-0.19-0.342-0.52-0.582-0.722
	c-0.285-0.23-0.604-0.418-0.923-0.6c-0.309-0.011-0.272-0.337-0.484-0.481c-0.194-0.135-0.413-0.242-0.625-0.35
	c-0.162-0.231-0.459-0.263-0.584-0.527c-0.306-0.144,0.019-0.598-0.336-0.662c-0.35,0.026-0.587-0.28-0.91-0.333
	c-0.312,0.105-0.296-0.295-0.465-0.407c-0.272-0.049-0.617,0.218-0.867-0.039c-0.206-0.271-0.431,0.024-0.654,0.03
	c-0.266-0.108-0.538-0.146-0.813-0.05c-0.348,0.048-0.641,0.368-0.638,0.721c-0.182,0.289,0.13,0.609-0.051,0.883
	c0.137,0.149,0.35,0.516-0.034,0.507c-0.283-0.034-0.586-0.098-0.798,0.145c-0.206-0.073-0.399,0.041-0.596-0.054
	c-0.092-0.23-0.278-0.501-0.551-0.303c-0.246,0.101-0.488-0.138-0.734,0.006c-0.256,0.119-0.421,0.535-0.766,0.337
	c-0.277-0.229-0.599-0.003-0.628,0.315c-0.252,0.139,0.115,0.342-0.05,0.507c-0.167,0.322-0.513,0.429-0.845,0.455
	c-0.232,0.017-0.465,0.278-0.65,0.024c-0.227-0.136-0.457-0.088-0.641,0.092c-0.203-0.156-0.393,0.027-0.596,0.08
	c-0.206,0.157-0.396,0.36-0.653,0.425c-0.219-0.004-0.423,0.062-0.619,0.15c-0.261,0.023-0.427,0.203-0.62,0.366
	c-0.237,0.105-0.399,0.308-0.602,0.455c-0.282-0.041-0.424,0.269-0.696,0.226c-0.061,0.21-0.206,0.036-0.227-0.105
	c-0.169-0.042-0.263-0.162-0.306-0.323c-0.169,0.083-0.266-0.337-0.454-0.213c-0.16,0.225-0.09-0.196-0.263-0.018
	c-0.105-0.166-0.271-0.291-0.429-0.418c-0.186-0.131-0.391-0.23-0.591-0.339c-0.194-0.13-0.404-0.214-0.59-0.339
	c-0.22-0.221-0.271-0.493-0.178-0.774c-0.1-0.204-0.006-0.433-0.092-0.628c-0.071-0.214,0.117-0.454-0.072-0.678
	c0.021-0.407,0.019-0.817,0.005-1.225c0.059-0.178-0.15-0.566,0.063-0.616c-0.04-0.173,0.141-0.105,0.202-0.176
	c-0.097-0.089-0.163-0.218-0.087-0.357c0.054,0.015,0.181,0.024,0.035-0.05c-0.063-0.2,0.047,0.022,0.121-0.083
	c-0.1,0.031-0.172-0.228-0.055-0.067c0.188,0.091,0.075-0.048,0.154-0.148c-0.258,0.147,0.055-0.255-0.218-0.188
	c0.034-0.111,0.042-0.214-0.035-0.319c-0.161-0.151,0.015,0.157-0.179,0.115c0.1-0.045,0.033-0.108-0.018-0.198
	c-0.025,0.003-0.059-0.079-0.144-0.096c-0.137-0.11,0.019,0.106-0.109,0.05c-0.041,0.159-0.193,0.068-0.274,0.195
	c-0.1-0.018-0.226,0.025-0.235-0.066c-0.174,0.056-0.079-0.17-0.237-0.117c-0.07,0.212-0.086,0-0.086-0.101
	c-0.079-0.068-0.207-0.164-0.31-0.225c-0.017,0.025-0.211-0.099-0.306-0.112c-0.043,0.071-0.051,0.063-0.114-0.039
	c-0.072,0.002-0.242-0.158-0.266-0.055c-0.145,0.187-0.082-0.12-0.249-0.1c-0.142-0.219-0.354,0.036-0.519-0.059
	C91.816-46.184,91.617-46.434,91.428-46.5L91.428-46.5z M133.907,34.701c-0.018,0.007-0.037,0.018-0.007,0.032
	C133.936,34.708,133.92,34.701,133.907,34.701z M130.317,36.631c-0.022-0.005-0.092,0.043-0.041,0.079
	C130.327,36.658,130.33,36.636,130.317,36.631z M129.188,36.648c-0.033,0.025-0.162,0.126-0.116,0.163
	c0.046-0.058,0.053-0.008,0.097-0.015C129.206,36.761,129.338,36.702,129.188,36.648L129.188,36.648L129.188,36.648z
	 M130.254,36.769C130.215,36.812,130.282,36.84,130.254,36.769z M128.908,36.83c-0.028,0.012-0.069,0.15,0.017,0.046
	C128.925,36.838,128.915,36.827,128.908,36.83z M128.76,36.963C128.64,36.987,128.772,37.136,128.76,36.963z M128.716,37.066
	C128.589,37.079,128.792,37.159,128.716,37.066z M129.723,37.107C129.489,37.185,129.811,37.189,129.723,37.107L129.723,37.107z
	 M129.542,37.215c-0.02-0.003-0.086,0.023-0.01,0.013C129.545,37.218,129.547,37.215,129.542,37.215z M129.025,37.281
	c-0.004,0-0.031,0.022-0.001,0.01l0,0C129.027,37.284,129.027,37.281,129.025,37.281L129.025,37.281z M127.699,37.946
	c-0.066,0.003-0.189,0.043-0.025,0.093l0,0c0.05,0.008-0.008-0.029,0.017-0.047C127.763,37.959,127.742,37.946,127.699,37.946
	L127.699,37.946z M127.65,38.321C127.576,38.405,127.836,38.431,127.65,38.321z M123.116,38.72
	C123.195,38.839,123.272,38.771,123.116,38.72z M122.913,39.193c-0.009,0-0.019,0.005-0.009,0.016l0,0
	C122.923,39.199,122.918,39.193,122.913,39.193z M124.093,39.38c-0.012,0-0.024,0.008-0.012,0.03l0,0
	C124.11,39.393,124.104,39.382,124.093,39.38z M123.43,39.47c-0.013,0.007-0.02,0.024,0.009,0.034l0,0
	C123.451,39.47,123.438,39.466,123.43,39.47L123.43,39.47z M123.17,39.62c-0.01,0,0.01,0.025,0.013,0.01l0,0
	C123.173,39.62,123.17,39.62,123.17,39.62L123.17,39.62z M124.819,39.763c-0.032-0.006-0.155,0.12-0.017,0.066l0,0
	C124.827,39.785,124.83,39.767,124.819,39.763z M122.12,39.801c-0.046-0.016,0.024,0.14,0.03,0.02l0,0
	C122.138,39.809,122.129,39.803,122.12,39.801L122.12,39.801z M124.815,39.88c-0.004-0.005-0.074,0.013-0.021,0.013
	C124.812,39.885,124.819,39.88,124.815,39.88z M123.458,39.908c-0.053-0.003-0.092,0.025-0.035,0.127l0,0
	c0.01,0.007,0.046,0.095,0.043,0.025C123.67,40.025,123.545,39.918,123.458,39.908L123.458,39.908z M125.889,39.979
	c-0.01-0.007-0.019,0-0.025,0.031C125.927,40.129,125.913,39.999,125.889,39.979z M125.753,39.979c-0.043,0,0.028,0.077,0.025,0.006
	C125.767,39.979,125.758,39.979,125.753,39.979z M123.306,40.048c-0.034,0.005-0.069,0.027,0,0.063
	C123.379,40.065,123.344,40.045,123.306,40.048z M124.814,40.053c-0.033,0.005-0.048,0.022,0.011,0.062l0,0
	C124.968,40.079,124.869,40.045,124.814,40.053L124.814,40.053z M124.101,40.14c-0.023,0.007-0.033,0.031,0.016,0.084v0.005
	C124.218,40.171,124.14,40.13,124.101,40.14L124.101,40.14z M124.92,40.231c-0.006,0-0.016,0.01-0.009,0.019l0,0
	C124.927,40.234,124.924,40.231,124.92,40.231L124.92,40.231z M121.739,40.637c-0.005-0.003-0.008,0-0.013,0.003
	c-0.038,0.022-0.102,0.137-0.018,0.137l0.015-0.022C121.752,40.675,121.752,40.643,121.739,40.637L121.739,40.637z M126.225,40.646
	c0,0-0.003,0-0.003,0.003C126.24,40.716,126.235,40.646,126.225,40.646z M126.1,40.662c-0.005,0.001-0.012,0.005,0.001,0.01
	C126.11,40.663,126.105,40.662,126.1,40.662z M124.024,40.818C123.983,40.818,124.043,40.839,124.024,40.818L124.024,40.818z
	 M125.728,40.839c-0.003-0.003-0.01,0-0.018,0.013C125.74,40.887,125.74,40.843,125.728,40.839z M120.776,41.795l0.002,0.021
	C120.793,41.861,120.812,41.795,120.776,41.795z M114.291,42.514c-0.054-0.002-0.12,0.025-0.038,0.092
	C114.383,42.545,114.343,42.516,114.291,42.514z M99.66,42.715c-0.082,0.021-0.233,0.253-0.332,0.302
	c-0.181,0.04-0.014,0.254-0.169,0.239c-0.109,0.181-0.075,0.359-0.119,0.553c0.119,0.113,0.086,0.378-0.051,0.468
	c-0.072,0.025-0.139,0.2-0.033,0.323c-0.046,0.211,0.104,0.518-0.172,0.655c-0.146,0.13-0.007,0.323-0.2,0.418
	c-0.075-0.086-0.112,0.087-0.072,0.068c0.003,0.169-0.203,0.296-0.266,0.467c-0.055,0.141-0.23,0.322-0.27,0.462
	c-0.117,0.189,0.073,0.232,0.182,0.336c0.063,0.229,0.29,0.485,0.122,0.7c0.003,0.173,0.241-0.134,0.265-0.221
	c0.199-0.062,0.235-0.157,0.357-0.3c0.247-0.169,0.062-0.419,0.283-0.607c-0.031-0.187,0.01-0.329,0.022-0.469
	c0.06-0.171,0.127-0.266,0.187-0.414c-0.069-0.193,0.219-0.254,0.174-0.44c-0.044-0.201-0.269-0.487-0.174-0.669
	c0.171,0.058-0.028-0.097,0.063-0.214c0.158-0.14,0.454-0.173,0.5-0.453l0,0c0.03-0.034,0.057-0.08,0.074-0.125
	c-0.13-0.158,0.233-0.306-0.036-0.378c0.066-0.255-0.086-0.426-0.272-0.554C99.724,42.741,99.698,42.707,99.66,42.715L99.66,42.715z
	 M108.401,42.892C108.408,42.957,108.451,42.871,108.401,42.892z M114.393,43.229c-0.017,0-0.035,0.011-0.004,0.033l0,0
	C114.424,43.24,114.41,43.229,114.393,43.229L114.393,43.229z M115.209,43.45c-0.013,0.01-0.038,0.048-0.053,0.13
	C115.242,43.505,115.235,43.438,115.209,43.45z M100.11,43.771C100.088,43.791,100.139,43.781,100.11,43.771z M117.431,43.972
	c-0.042,0.008-0.082,0.245,0.017,0.297c0.047-0.064-0.029-0.146,0.025-0.213C117.463,43.99,117.448,43.967,117.431,43.972z
	 M98.803,44.329c-0.013,0-0.033,0.033-0.01,0.094l0,0C98.826,44.359,98.815,44.329,98.803,44.329L98.803,44.329z M114.36,44.432
	c-0.009-0.003-0.021,0-0.013,0.022C114.376,44.448,114.37,44.436,114.36,44.432z M98.733,44.541l-0.02,0.021
	C98.654,44.783,98.847,44.559,98.733,44.541z M102.26,44.732c-0.013-0.001-0.022,0.003-0.005,0.025
	C102.28,44.745,102.271,44.734,102.26,44.732z M102.031,44.752c-0.01,0-0.021,0.003,0,0.021
	C102.047,44.765,102.038,44.755,102.031,44.752z M102.234,44.877c-0.01-0.002-0.021,0.003-0.007,0.023
	C102.247,44.888,102.24,44.878,102.234,44.877z M98.647,44.885c-0.01,0-0.022,0.003-0.036,0.006l0,0
	C98.594,45.011,98.708,44.891,98.647,44.885L98.647,44.885z M102.604,45.059c-0.013-0.005-0.035,0-0.022,0.032
	C102.623,45.081,102.615,45.066,102.604,45.059z M101.728,45.103c-0.035,0.007-0.038,0.034,0.092,0.07
	C101.826,45.115,101.763,45.1,101.728,45.103z M102.462,45.303C102.427,45.416,102.582,45.339,102.462,45.303z M101.184,45.521
	c-0.045,0.018,0.12,0.133,0.205,0.163l0,0c-0.047-0.033-0.038-0.1-0.085-0.138C101.233,45.522,101.195,45.518,101.184,45.521
	L101.184,45.521z M100.932,45.571c0-0.003-0.005-0.003-0.015,0.003c-0.122,0.168,0.234-0.033,0.045,0.024l0,0
	C100.932,45.619,100.942,45.581,100.932,45.571z M100.819,45.645c-0.017-0.004-0.032,0-0.01,0.018v0.001
	C100.841,45.653,100.828,45.645,100.819,45.645L100.819,45.645z M113.493,45.645c-0.001,0,0,0.006,0.007,0.013l0,0
	C113.533,45.66,113.503,45.641,113.493,45.645L113.493,45.645z M113.47,45.695c-0.002,0-0.002,0.006,0.008,0.016
	C113.521,45.711,113.479,45.69,113.47,45.695z M101.73,45.745c-0.013,0.007-0.025,0.022,0.007,0.032
	C101.763,45.744,101.745,45.741,101.73,45.745z M107.865,45.745c-0.035,0.263,0.189,0.51,0.459,0.535
	c0.027-0.003,0.023-0.038,0.022-0.052C108.321,46.027,108.052,45.844,107.865,45.745z M101.2,45.754
	C101.187,45.768,101.228,45.768,101.2,45.754z M102.758,45.76c-0.036,0.002-0.066,0.018,0.018,0.036
	C102.836,45.765,102.791,45.755,102.758,45.76z M101.487,45.765c-0.035,0.016,0.093,0.076,0.026,0.164l0,0
	c0.059-0.034,0.318-0.142,0.073-0.161C101.526,45.762,101.496,45.762,101.487,45.765L101.487,45.765z M102.646,45.812
	c-0.027-0.004-0.073,0.031-0.01,0.062C102.669,45.834,102.661,45.816,102.646,45.812z M102.193,45.828
	c-0.014-0.002-0.025,0.003-0.009,0.021C102.214,45.837,102.204,45.829,102.193,45.828z M102.975,45.948
	c-0.018,0.006-0.025,0.022,0.022,0.031C103.01,45.948,102.987,45.941,102.975,45.948z M109.457,46.163
	c-0.009-0.001-0.021,0.004,0.004,0.02C109.479,46.173,109.467,46.165,109.457,46.163z M102.845,46.183
	c-0.076,0.006-0.189,0.11-0.278,0.13l0,0c-0.036-0.045-0.097-0.058-0.152-0.066c-0.253-0.116,0.058,0.093-0.034,0.169
	c0.187,0.006,0.472,0.156,0.544-0.1C102.924,46.206,102.893,46.176,102.845,46.183L102.845,46.183z M103.189,46.239
	c-0.012,0.003-0.021,0.016,0.022,0.022C103.227,46.236,103.204,46.233,103.189,46.239z M103.253,46.239
	c-0.016,0-0.029,0.007,0.01,0.025C103.29,46.249,103.271,46.242,103.253,46.239z M100.779,46.318c-0.003-0.003-0.008-0.003-0.011,0
	c-0.003,0.007-0.003,0.018,0.005,0.035C100.803,46.344,100.791,46.325,100.779,46.318L100.779,46.318z M100.71,46.344
	c-0.033,0.005-0.063,0.02-0.008,0.031C100.766,46.347,100.74,46.341,100.71,46.344z M108.557,46.413
	c-0.039-0.006-0.06,0.048-0.005,0.142c0.035-0.005,0.081-0.024,0.089-0.061C108.612,46.442,108.58,46.417,108.557,46.413z
	 M109.554,46.455c-0.011-0.004-0.021,0.003-0.006,0.017l0,0C109.569,46.464,109.562,46.458,109.554,46.455L109.554,46.455z
	 M100.873,46.476c-0.061,0.011-0.086,0.096,0.051,0.141l0,0c0.088,0.059,0.225-0.089,0.057-0.058
	C100.952,46.488,100.908,46.471,100.873,46.476L100.873,46.476z M100.547,46.502c-0.013,0-0.018,0.013,0,0.049l0,0
	C100.601,46.54,100.565,46.504,100.547,46.502z M107.476,46.504c-0.009,0-0.014,0.005,0.008,0.014
	C107.498,46.509,107.485,46.504,107.476,46.504z M107.571,46.521c-0.01,0.003-0.021,0.016,0.009,0.021
	C107.6,46.521,107.584,46.518,107.571,46.521z M102.709,46.524c-0.013,0.006-0.02,0.022,0.019,0.033
	C102.739,46.524,102.719,46.521,102.709,46.524z M113.788,46.527c-0.02,0.003-0.037,0.016,0.006,0.027
	C113.832,46.527,113.812,46.524,113.788,46.527z M100.151,46.527c-0.03,0.003-0.063,0.057-0.027,0.158
	C100.198,46.575,100.178,46.524,100.151,46.527z M107.526,46.559c-0.013,0.002-0.028,0.007-0.044,0.017
	C107.608,46.676,107.618,46.54,107.526,46.559z M107.805,46.584c-0.008,0-0.013,0.01,0.007,0.017
	C107.824,46.588,107.814,46.584,107.805,46.584z M113.807,46.604c-0.013-0.001-0.025,0.009-0.005,0.025l0,0
	C113.827,46.614,113.817,46.604,113.807,46.604z M114.047,46.676c-0.1-0.013-0.238,0.26-0.003,0.265
	c0.049-0.023,0.136-0.077,0.073-0.138C114.107,46.718,114.08,46.681,114.047,46.676z M107.735,46.721
	c-0.011,0-0.022,0.006,0.002,0.026C107.758,46.727,107.746,46.721,107.735,46.721z M113.17,46.738
	c-0.014,0.001-0.023,0.013,0.02,0.031C113.205,46.747,113.183,46.738,113.17,46.738z M100.404,46.839
	c-0.023-0.001-0.063,0.027-0.051,0.087C100.433,46.869,100.427,46.839,100.404,46.839z M108.89,46.854
	c-0.024-0.007-0.034,0.016,0.029,0.095C108.943,46.901,108.913,46.859,108.89,46.854z M108.919,46.947L108.919,46.947
	L108.919,46.947L108.919,46.947z M102.255,46.869c-0.1,0.025-0.133,0.203,0.036,0.214l0,0c0.102-0.043,0.327-0.123,0.079-0.178
	C102.327,46.869,102.288,46.859,102.255,46.869L102.255,46.869z M102.648,46.892c-0.034-0.005-0.057,0.01,0.033,0.041l0,0
	C102.728,46.909,102.682,46.893,102.648,46.892L102.648,46.892z M103.489,46.914c-0.02-0.007-0.046,0-0.024,0.036
	C103.52,46.936,103.507,46.92,103.489,46.914z M100.952,47.04c-0.054,0-0.103,0.04-0.091,0.143l0,0c0,0.041-0.021,0.079-0.062,0.089
	c-0.062,0.179,0.146,0.199,0.146,0.047c0.035,0.119,0.143,0.109,0.063-0.062C101.146,47.149,101.042,47.04,100.952,47.04
	L100.952,47.04z M108.956,47.116c-0.033,0.003-0.073,0.027-0.012,0.057C109.021,47.129,108.989,47.111,108.956,47.116z
	 M101.325,47.152c-0.019,0.005-0.034,0.022-0.025,0.063C101.391,47.18,101.357,47.147,101.325,47.152z M108.773,47.178
	c-0.014,0.002-0.028,0.008-0.006,0.021C108.793,47.183,108.783,47.178,108.773,47.178z M108.202,47.195
	c-0.011-0.003-0.026,0-0.005,0.018C108.225,47.201,108.213,47.195,108.202,47.195z M111.729,47.205c-0.01-0.004-0.019,0-0.005,0.014
	C111.746,47.216,111.739,47.208,111.729,47.205z M101.613,47.213c-0.322-0.035-0.054,0.229-0.11,0.362
	c0.044-0.023,0.072-0.089,0.133-0.063C101.932,47.626,101.753,47.284,101.613,47.213z M101.363,47.213
	c-0.01,0.003-0.019,0.021-0.016,0.059C101.391,47.241,101.378,47.208,101.363,47.213z M108.956,47.214
	c-0.012-0.001-0.024,0.004-0.009,0.022C108.972,47.227,108.965,47.216,108.956,47.214z M100.391,47.235
	c-0.043,0.009-0.104,0.296,0.041,0.172c0.036-0.013,0.013-0.059-0.012-0.066C100.417,47.259,100.407,47.23,100.391,47.235z
	 M111.756,47.285c0,0.002,0,0.007,0.009,0.012C111.793,47.293,111.762,47.281,111.756,47.285z M101.212,47.29
	c-0.015-0.006-0.035,0.007-0.028,0.048C101.228,47.314,101.225,47.293,101.212,47.29z M108.223,47.3
	c-0.071-0.005-0.139,0.025-0.146,0.114c0.169,0.187-0.216,0.459,0.019,0.462c-0.109,0.13-0.013,0.26,0.177,0.193l0,0
	c0.145,0.041,0.268,0.235,0.43,0.069c0.019-0.306-0.287-0.423-0.396-0.628C108.457,47.417,108.339,47.308,108.223,47.3L108.223,47.3
	z M101.291,47.318c-0.029,0.007-0.061,0.033-0.061,0.096C101.37,47.354,101.338,47.306,101.291,47.318z M98.122,47.328
	c-0.013-0.01-0.085,0.076-0.013,0.046C98.125,47.344,98.129,47.331,98.122,47.328z M109.145,47.346
	c-0.014-0.002-0.025,0.002-0.007,0.018C109.165,47.356,109.155,47.348,109.145,47.346z M98.05,47.373
	c-0.013-0.002-0.043,0.021-0.043,0.085C98.066,47.404,98.066,47.376,98.05,47.373z M101.031,47.45
	c-0.01,0.002-0.013,0.021,0.013,0.049C101.055,47.465,101.042,47.45,101.031,47.45z M101.044,47.499
	C101.044,47.501,101.044,47.501,101.044,47.499L101.044,47.499C101.044,47.501,101.044,47.501,101.044,47.499z M101.2,47.477
	c-0.011,0-0.028,0.007-0.021,0.035C101.218,47.496,101.215,47.481,101.2,47.477z M102.413,47.524
	c-0.02-0.003-0.046,0.007-0.03,0.044C102.439,47.55,102.431,47.531,102.413,47.524z M107.259,47.54c-0.021,0-0.03,0.008,0.016,0.022
	C107.299,47.548,107.274,47.54,107.259,47.54z M100.924,47.544c-0.007-0.004-0.015,0.004,0.006,0.024
	C100.945,47.553,100.933,47.544,100.924,47.544z M101.185,47.567c-0.015,0-0.023,0.008,0.003,0.03
	C101.212,47.575,101.197,47.567,101.185,47.567z M100.718,47.598c-0.008,0.003-0.011,0.016-0.01,0.031
	c0.045-0.008,0.041-0.025,0.028-0.031C100.732,47.594,100.723,47.594,100.718,47.598z M101.184,47.613
	c-0.014-0.003-0.022,0-0.005,0.025C101.2,47.627,101.194,47.616,101.184,47.613z M100.909,47.613
	c-0.023,0.013,0.022,0.107-0.048,0.114C100.725,47.939,101.142,47.598,100.909,47.613z M107.47,47.649
	c-0.025,0-0.041,0.015,0.019,0.041C107.523,47.664,107.492,47.649,107.47,47.649z M102.011,47.711
	c-0.026,0.002-0.056,0.017-0.074,0.045h-0.003c-0.035,0.038-0.089,0.057-0.122,0.1c-0.198,0.102,0.138,0.229-0.025,0.326
	c0.155,0.169,0.109-0.236,0.261-0.287C102.184,47.8,102.098,47.705,102.011,47.711L102.011,47.711z M100.411,47.733
	c-0.01-0.003-0.025,0.007-0.004,0.027C100.433,47.746,100.42,47.736,100.411,47.733z M100.093,47.851
	c-0.015,0-0.03,0.016-0.03,0.064l0,0C100.132,47.904,100.113,47.855,100.093,47.851L100.093,47.851z M111.284,47.876
	c-0.239,0.072-0.501,0.237-0.729,0.319c-0.085,0.106-0.339,0.323-0.194,0.438c0.176-0.03,0.302,0.049,0.451,0.173l0,0h0.029
	l0.017-0.01c0.011,0.158,0.097,0.199,0.22,0.143c0.202-0.196,0.01-0.628,0.336-0.762c0.042-0.185,0.215,0.122,0.191-0.082
	C111.456,48.095,111.464,47.86,111.284,47.876L111.284,47.876z M101.187,47.892c-0.008-0.002-0.02,0.002-0.002,0.02
	C101.202,47.902,101.195,47.894,101.187,47.892z M107.988,47.899c-0.009-0.005-0.021,0-0.006,0.024
	C108.008,47.915,107.998,47.904,107.988,47.899z M101.455,47.968c-0.021,0.002-0.041,0.021-0.034,0.072
	C101.526,48.016,101.493,47.966,101.455,47.968z M98.279,47.983c-0.005,0-0.01,0.007-0.002,0.02
	C98.283,47.993,98.282,47.985,98.279,47.983z M107.976,47.996c-0.013,0-0.024,0.007,0,0.016l0,0
	C107.998,47.999,107.988,47.996,107.976,47.996z M101.151,48.062c-0.018,0-0.028,0.01,0.016,0.04
	C101.189,48.078,101.167,48.065,101.151,48.062z M98.195,48.09c-0.02,0.005-0.025,0.034-0.013,0.109
	c0.118,0.012,0.072-0.094,0.03-0.108C98.206,48.088,98.198,48.088,98.195,48.09L98.195,48.09z M108.018,48.091
	c-0.061,0-0.206,0.135,0.016,0.058l0,0C108.046,48.105,108.039,48.091,108.018,48.091z M102.019,48.145
	c-0.019,0-0.034,0.018-0.031,0.07C102.069,48.195,102.041,48.145,102.019,48.145z M108.163,48.145
	c-0.002,0.004,0.003,0.01,0.013,0.018C108.212,48.159,108.169,48.142,108.163,48.145z M102.054,48.235
	c-0.013,0-0.032,0.013-0.04,0.052C102.085,48.271,102.076,48.235,102.054,48.235z M106.661,48.248
	c-0.03,0.008-0.062,0.033,0.014,0.036h0.003c0.017-0.023,0.017-0.035,0.01-0.036C106.682,48.245,106.67,48.246,106.661,48.248z
	 M100.876,48.248C100.832,48.243,100.886,48.274,100.876,48.248z M98.155,48.261L98.155,48.261c0.003-0.021-0.056,0.074-0.097,0.06
	c-0.13,0.068,0.013,0.16-0.047,0.217C98.155,48.728,98.112,48.383,98.155,48.261L98.155,48.261z M96.187,48.269
	C96.217,48.395,96.309,48.257,96.187,48.269L96.187,48.269z M98.483,48.317c-0.012-0.002-0.038,0.041-0.01,0.062l0,0
	C98.494,48.335,98.491,48.317,98.483,48.317L98.483,48.317z M101.075,48.384c-0.013,0.003-0.025,0.021-0.031,0.063l-0.013,0.01
	l-0.013,0.021C101.142,48.509,101.108,48.379,101.075,48.384L101.075,48.384z M101.566,48.401c-0.013-0.007-0.033,0-0.03,0.031
	C101.575,48.42,101.575,48.404,101.566,48.401z M108.539,48.411c-0.013-0.007-0.025,0-0.001,0.023
	C108.566,48.424,108.552,48.411,108.539,48.411z M108.748,48.411c-0.101,0.075-0.271-0.01-0.246,0.179l0,0
	c-0.076,0.09-0.181,0.047-0.272,0.107c-0.021,0.217-0.3,0.321-0.349,0.503c-0.168,0.111-0.281,0.438-0.019,0.499
	c0.143-0.166,0.133,0.077,0.222,0.13c0.082-0.043,0.196,0.021,0.288,0.019c0.136,0.022,0.284,0.018,0.371,0.147
	c0.2,0.033,0.079,0.227,0.149,0.332c0.057,0.306,0.444,0.274,0.485-0.008c0.07-0.261,0.384-0.215,0.504-0.438
	c0.177-0.039,0.123-0.131,0.077-0.261c-0.066-0.199,0.229-0.147,0.212-0.25c-0.205-0.051-0.148-0.393-0.393-0.451
	c-0.188-0.128-0.142-0.464-0.388-0.466C109.227,48.32,108.932,48.59,108.748,48.411L108.748,48.411z M108.238,48.45
	c-0.011-0.001-0.023,0.003-0.006,0.018C108.255,48.46,108.245,48.453,108.238,48.45z M109.85,48.468
	c-0.008,0-0.019,0.003,0.004,0.016C109.869,48.471,109.859,48.465,109.85,48.468z M108.497,48.478
	c-0.007-0.003-0.018,0.003-0.007,0.025C108.514,48.49,108.508,48.48,108.497,48.478z M106.741,48.478
	c-0.014,0.003-0.025,0.009,0.01,0.021C106.773,48.483,106.758,48.478,106.741,48.478z M109.82,48.498
	c-0.009,0.001-0.018,0.006,0.008,0.014l0,0C109.841,48.499,109.828,48.495,109.82,48.498L109.82,48.498z M101.796,48.557
	c-0.027-0.003-0.065,0.016-0.033,0.069C101.835,48.59,101.822,48.562,101.796,48.557z M99.66,48.58c0,0-0.003-0.002-0.011,0
	C99.644,48.595,99.66,48.583,99.66,48.58z M108.441,48.59c-0.007-0.002-0.018,0-0.003,0.014
	C108.454,48.601,108.447,48.591,108.441,48.59z M101.072,48.598c-0.054,0,0.146,0.127,0.073,0.019l0,0l-0.035-0.006
	C101.088,48.601,101.078,48.601,101.072,48.598L101.072,48.598z M107.531,48.601c-0.002,0-0.002,0.003,0.005,0.013
	C107.564,48.613,107.539,48.598,107.531,48.601z M108.163,48.692c-0.01,0-0.017,0.008,0.006,0.022
	C108.185,48.702,108.176,48.692,108.163,48.692z M100.901,48.699c-0.112,0.016-0.247,0.148-0.342,0.041
	c-0.127,0.039-0.364,0.218-0.44,0.329c-0.24,0.095-0.393,0.339-0.605,0.462c-0.081,0.174-0.352,0.062-0.338,0.252
	c-0.199,0.003-0.271,0.235-0.338,0.414c-0.311,0.07-0.041,0.438-0.311,0.561c-0.169,0.252,0.26,0.178,0.42,0.17
	c0.245-0.086,0.317,0.085,0.289,0.288c-0.107,0.064-0.022,0.24-0.11,0.325c-0.027,0.196,0.182,0.326,0.31,0.404l0,0
	c0.035,0.06,0.025,0.112,0.038,0.172c-0.114,0.02-0.085,0.285-0.161,0.196c-0.01,0.102,0.179,0.152,0.189,0.349
	c0.137,0.227,0.111,0.299,0.081,0.492c0.051,0.188,0.041-0.053,0.144,0.046c0.149,0.136,0.389,0.263,0.588,0.143
	c0.21-0.091,0.48-0.108,0.664-0.206c0.129,0.038,0.272-0.006,0.321-0.1c0.193-0.023,0.301-0.315,0.387-0.479
	c0.278-0.017,0.294-0.332,0.459-0.531c-0.074-0.169-0.073-0.288-0.225-0.388c-0.14-0.173-0.149-0.428-0.382-0.502
	c-0.161,0-0.087-0.356-0.207-0.452c-0.162,0.107-0.128-0.027-0.217-0.089c-0.04-0.191-0.122-0.522,0.144-0.53
	c0.186,0.006,0.44,0.098,0.579-0.102c0.117-0.172-0.175-0.023-0.263-0.169c-0.243-0.058-0.205-0.505-0.46-0.366
	c-0.094-0.136-0.033-0.288-0.129-0.414c-0.192-0.087,0.121-0.109,0.062-0.196c-0.027-0.076-0.063-0.111-0.1-0.122
	C100.933,48.697,100.917,48.697,100.901,48.699L100.901,48.699z M113.129,48.713c-0.013-0.001-0.021-0.001-0.034,0.002
	c-0.073,0.013-0.14,0.11-0.012,0.189c0.046-0.019,0.091-0.051,0.109-0.101C113.189,48.75,113.164,48.721,113.129,48.713
	L113.129,48.713z M98.3,48.75c-0.005,0.003-0.005,0.009,0,0.026l0,0C98.328,48.776,98.306,48.743,98.3,48.75z M101.383,48.771
	L101.383,48.771C101.294,48.766,101.378,48.829,101.383,48.771z M97.711,48.792c-0.004-0.003-0.004-0.003-0.007,0
	c-0.006,0.005-0.014,0.018,0,0.024C97.711,48.804,97.711,48.794,97.711,48.792L97.711,48.792z M101.593,48.8
	c-0.021,0.004-0.039,0.01-0.071,0.025C101.59,48.958,101.715,48.776,101.593,48.8z M101.12,48.863
	c-0.002,0.002-0.007,0.02-0.012,0.059C101.123,48.958,101.128,48.853,101.12,48.863z M98.018,48.879
	C98,48.892,97.989,48.99,98.05,48.968l0,0c-0.007-0.054-0.013-0.079-0.024-0.085C98.024,48.879,98.022,48.879,98.018,48.879
	L98.018,48.879z M101.128,48.942C101.105,48.955,101.167,48.968,101.128,48.942z M110.895,48.987
	c-0.016,0.001-0.022,0.014,0.016,0.034C110.93,48.996,110.909,48.985,110.895,48.987z M105.833,49.019
	c-0.01-0.003-0.022,0.003-0.003,0.021C105.854,49.028,105.844,49.019,105.833,49.019z M97.683,49.034
	c-0.042-0.013-0.137,0.058-0.035,0.124l0,0C97.714,49.079,97.707,49.042,97.683,49.034L97.683,49.034z M106.055,49.092
	c-0.022,0.003-0.022,0.017,0.038,0.047C106.169,49.115,106.086,49.088,106.055,49.092z M101.088,49.126c0,0,0,0.005,0,0.008
	C101.101,49.134,101.092,49.123,101.088,49.126z M106.529,49.136c-0.021-0.002-0.041,0.006-0.003,0.031v0.002
	C106.567,49.151,106.552,49.138,106.529,49.136L106.529,49.136z M111.331,49.215c-0.011-0.003-0.021,0-0.008,0.022
	C111.351,49.225,111.341,49.218,111.331,49.215z M113.057,49.266c-0.028,0.003-0.059,0.022-0.082,0.06
	c-0.117,0.092,0.082,0.234,0.037,0.349c0.178,0.209,0.116-0.163,0.056-0.253c0.097-0.063,0.068-0.14,0.013-0.154
	C113.074,49.266,113.064,49.264,113.057,49.266L113.057,49.266z M111.239,49.271c-0.019,0-0.031,0.008,0.01,0.026l0,0
	C111.277,49.278,111.255,49.271,111.239,49.271L111.239,49.271z M111.208,49.291c-0.01,0-0.018,0.006,0.003,0.018
	C111.227,49.297,111.218,49.291,111.208,49.291z M105.754,49.309c-0.01,0-0.016,0.003,0.006,0.014
	C105.777,49.312,105.767,49.309,105.754,49.309z M101.322,49.324c-0.003,0.001-0.006,0.008-0.003,0.021
	C101.36,49.351,101.333,49.321,101.322,49.324z M111.084,49.334c-0.009,0.003-0.006,0.014,0.01,0.029
	C111.18,49.36,111.101,49.322,111.084,49.334z M106.062,49.396c-0.021-0.007-0.056,0.034-0.005,0.079
	C106.08,49.421,106.073,49.398,106.062,49.396z M96.021,49.411c-0.003,0.003-0.007,0.01,0.003,0.013h0.003
	C96.026,49.411,96.023,49.411,96.021,49.411z M97.742,49.476c-0.011-0.001-0.028,0.005-0.019,0.027
	C97.76,49.49,97.757,49.478,97.742,49.476z M106.065,49.5c-0.011,0-0.026,0.006-0.005,0.028
	C106.09,49.514,106.08,49.503,106.065,49.5z M110.138,49.516c-0.019,0.01-0.031,0.069,0.021,0.018l0,0
	C110.15,49.519,110.145,49.514,110.138,49.516z M103.347,49.533c-0.007,0.003-0.01,0.011-0.005,0.026l0,0
	C103.421,49.563,103.367,49.525,103.347,49.533L103.347,49.533z M105.484,49.588c-0.009-0.001-0.019,0.004,0,0.02
	C105.507,49.598,105.496,49.59,105.484,49.588z M103.356,49.689c-0.008-0.003-0.018-0.003-0.021,0
	c-0.01,0.003-0.01,0.016,0.003,0.038C103.402,49.722,103.38,49.696,103.356,49.689L103.356,49.689z M110.477,49.72
	c-0.021,0.003-0.039,0.097-0.003,0.173l0,0c0.025-0.007,0.051-0.029,0.034-0.063C110.507,49.747,110.489,49.715,110.477,49.72
	L110.477,49.72z M110.287,49.73c-0.046,0.002-0.109,0.05-0.045,0.133C110.369,49.769,110.338,49.728,110.287,49.73z M107.691,49.759
	c-0.038,0.027,0.059,0.2,0.088,0.042v-0.002C107.729,49.759,107.704,49.75,107.691,49.759L107.691,49.759z M103.535,49.813
	c-0.035,0-0.102,0.033-0.022,0.049C103.561,49.826,103.556,49.813,103.535,49.813z M110.755,50.01c-0.025,0-0.075,0.024-0.066,0.069
	C110.788,50.031,110.783,50.008,110.755,50.01z M101.832,50.059L101.832,50.059L101.832,50.059z M110.581,50.068
	c-0.011,0-0.025,0.006,0.003,0.017l0,0C110.609,50.074,110.597,50.068,110.581,50.068z M107.251,50.077
	c-0.019,0.002-0.036,0.021,0.003,0.051C107.292,50.092,107.271,50.077,107.251,50.077z M108.584,50.102
	c-0.022-0.007-0.043-0.004-0.004,0.041l0,0C108.623,50.135,108.604,50.11,108.584,50.102L108.584,50.102z M108.429,50.125
	c-0.002,0.003,0,0.008,0.01,0.018C108.47,50.136,108.435,50.12,108.429,50.125z M103.532,50.139
	c-0.029-0.003-0.054,0.007-0.007,0.032C103.582,50.155,103.559,50.141,103.532,50.139z M108.526,50.164
	c-0.009,0-0.021,0.004-0.003,0.018C108.546,50.168,108.538,50.164,108.526,50.164z M110.508,50.164
	c-0.008,0-0.016,0.004-0.004,0.013C110.52,50.174,110.513,50.168,110.508,50.164z M110.872,50.168
	c-0.139-0.013-0.335,0.066-0.304,0.22c-0.066,0.089-0.228,0.133-0.187,0.272c0.199,0.059,0.161,0.232,0.197,0.418
	c0.024-0.186,0.227-0.206,0.404-0.206c0.161,0.109,0.321,0.057,0.363-0.141c-0.082-0.168-0.229-0.338-0.357-0.438
	C111.015,50.218,110.955,50.177,110.872,50.168z M95.764,50.171c-0.003-0.007-0.039,0.035-0.009,0.023l0,0
	C95.764,50.177,95.764,50.171,95.764,50.171L95.764,50.171z M101.483,50.185C101.455,50.212,101.503,50.197,101.483,50.185z
	 M104.203,50.201c-0.004-0.002-0.013,0-0.02,0.001c-0.008,0.005-0.018,0.012-0.019,0.028
	C104.225,50.225,104.222,50.207,104.203,50.201L104.203,50.201z M107.644,50.298c-0.048,0.003-0.09,0.037-0.112,0.126
	c-0.141,0.174-0.235,0.574,0.086,0.624c0.128,0.271,0.11-0.149,0.251-0.237l0,0c0.045,0.025,0.107-0.017,0.104-0.068
	C107.982,50.585,107.783,50.291,107.644,50.298L107.644,50.298z M103.39,50.38c-0.073-0.007,0.105,0.107,0.047,0.011
	C103.416,50.386,103.402,50.383,103.39,50.38z M107.963,50.386c-0.026-0.006-0.085,0.035-0.016,0.071l0,0
	C107.985,50.408,107.979,50.39,107.963,50.386z M103.883,50.408l-0.028,0.005C103.785,50.53,104.079,50.443,103.883,50.408z
	 M104.532,50.431c-0.016-0.007-0.027,0,0.006,0.019C104.558,50.439,104.542,50.431,104.532,50.431z M107.368,50.437
	c-0.018,0.003-0.028,0.02,0.007,0.03C107.398,50.437,107.381,50.434,107.368,50.437z M103.373,50.456
	c-0.003,0.001-0.006,0.008-0.003,0.019C103.408,50.477,103.383,50.452,103.373,50.456z M106.273,50.484L106.273,50.484
	C106.197,50.585,106.349,50.484,106.273,50.484z M105.542,50.51c-0.03,0-0.063,0.014-0.016,0.041
	C105.593,50.523,105.568,50.51,105.542,50.51z M108.961,50.607c-0.007,0.002-0.017,0.008,0.001,0.022
	C108.979,50.612,108.97,50.607,108.961,50.607z M108.883,50.615c-0.018,0.004-0.023,0.018,0.016,0.046
	C108.972,50.633,108.913,50.609,108.883,50.615z M103.712,50.64C103.589,50.663,103.722,50.702,103.712,50.64L103.712,50.64z
	 M103.719,50.686c-0.01,0.001-0.018,0.011,0,0.017C103.731,50.687,103.725,50.684,103.719,50.686z M109.757,50.696
	c-0.04,0.01-0.066,0.038-0.012,0.104C109.929,50.739,109.824,50.686,109.757,50.696z M106.98,50.706c-0.011-0.007-0.023,0,0,0.034
	C107.004,50.731,106.993,50.715,106.98,50.706z M103.668,50.715C103.633,50.745,103.744,50.727,103.668,50.715z M104.346,50.734
	C104.275,50.74,104.383,50.778,104.346,50.734L104.346,50.734z M106.97,50.763c-0.007,0-0.017,0.003,0,0.019
	C106.985,50.772,106.98,50.766,106.97,50.763z M104.76,50.766C104.63,50.807,104.854,50.819,104.76,50.766L104.76,50.766z
	 M108.473,50.772c-0.013,0-0.025,0.006,0.01,0.03C108.505,50.781,108.488,50.772,108.473,50.772z M104.545,50.804
	c-0.033,0.003-0.063,0.022-0.076,0.051c-0.006,0.199,0.367-0.003,0.143,0.199c0.054,0.003,0.354,0.168,0.298,0
	c-0.099-0.059-0.075-0.209-0.208-0.177c-0.159-0.015-0.023-0.035-0.087-0.051v-0.003c-0.01-0.009-0.022-0.015-0.035-0.018
	C104.568,50.804,104.558,50.804,104.545,50.804L104.545,50.804z M104.3,50.852c-0.03,0.003-0.05,0.025,0.014,0.063l0,0
	C104.359,50.87,104.326,50.852,104.3,50.852L104.3,50.852z M103.329,50.859c-0.003-0.008-0.022,0.013-0.006,0.014
	C103.329,50.864,103.329,50.86,103.329,50.859z M103.729,50.86c-0.004,0.002-0.007,0.007-0.004,0.018l0,0
	C103.768,50.875,103.739,50.852,103.729,50.86L103.729,50.86z M106.532,50.872C106.507,50.898,106.57,50.895,106.532,50.872z
	 M103.752,50.886c-0.005,0.032,0.049-0.003,0.003,0H103.752z M105.104,50.898c-0.023-0.003-0.046,0.007-0.003,0.035
	C105.146,50.915,105.127,50.902,105.104,50.898z M98.458,50.943c0,0.009,0.016,0.041,0.006,0.001
	C98.458,50.94,98.458,50.94,98.458,50.943z M109.587,50.959c-0.008-0.003-0.013,0.002-0.003,0.016
	C109.597,50.965,109.594,50.961,109.587,50.959z M108.357,50.978c-0.077,0-0.204,0.091,0.003,0.13l0,0
	C108.431,51.01,108.403,50.978,108.357,50.978L108.357,50.978z M104.178,50.981c-0.018,0.006-0.033,0.036,0.01,0.039
	c0.009-0.023,0.009-0.033,0.006-0.039C104.19,50.978,104.184,50.981,104.178,50.981L104.178,50.981z M103.766,51.038
	c0,0.003,0.02,0.027,0.01,0.003C103.768,51.038,103.766,51.035,103.766,51.038z M106.33,51.038
	C106.292,51.048,106.346,51.051,106.33,51.038L106.33,51.038z M106.266,51.044C105.985,51.145,106.355,51.365,106.266,51.044z
	 M99.195,51.054c-0.007-0.003-0.016,0-0.007,0.02C99.201,51.065,99.201,51.054,99.195,51.054z M105.162,51.066
	c-0.016-0.005-0.038,0.01-0.063,0.062C105.206,51.27,105.209,51.082,105.162,51.066z M107.504,51.069
	c-0.016-0.004-0.029,0.004-0.016,0.025C107.521,51.082,107.514,51.071,107.504,51.069z M107.467,51.092
	c-0.007-0.003-0.013,0.002,0,0.013C107.48,51.097,107.475,51.092,107.467,51.092z M99.162,51.097
	c-0.002-0.003-0.018,0.008-0.003,0.011l0,0C99.162,51.104,99.162,51.099,99.162,51.097L99.162,51.097z M99.201,51.111
	c-0.009,0.006-0.006,0.039,0.013,0.009C99.208,51.111,99.205,51.107,99.201,51.111z M106.422,51.114c-0.003,0-0.003,0,0,0.006
	C106.435,51.117,106.422,51.111,106.422,51.114z M107.458,51.114c-0.011-0.003-0.017,0,0.002,0.014
	C107.476,51.12,107.467,51.114,107.458,51.114z M108.074,51.114c-0.013-0.007-0.038,0-0.048,0.036
	C108.082,51.138,108.085,51.117,108.074,51.114z M105.376,51.124C105.27,51.141,105.393,51.194,105.376,51.124L105.376,51.124z
	 M105.591,51.143c-0.002-0.002-0.003,0.002-0.006,0.01C105.596,51.171,105.599,51.145,105.591,51.143z M105.542,51.145
	c-0.01,0,0.013,0.049,0.016,0.021C105.545,51.15,105.542,51.145,105.542,51.145z M105.565,51.153
	c-0.001-0.001-0.003,0.002-0.003,0.015l0,0C105.588,51.193,105.575,51.153,105.565,51.153L105.565,51.153z M106.376,51.153
	C106.353,51.163,106.406,51.165,106.376,51.153L106.376,51.153z M98.293,51.155c-0.003-0.005-0.038,0.019-0.01,0.016
	C98.291,51.161,98.295,51.155,98.293,51.155z M105.311,51.155c-0.006-0.003-0.041,0.016-0.008,0.016
	C105.312,51.161,105.313,51.158,105.311,51.155z M98.584,51.171c-0.009,0.003-0.016,0.016-0.003,0.028l0,0
	C98.594,51.174,98.591,51.168,98.584,51.171z M105.114,51.181c0-0.003-0.001,0-0.001,0.003l0,0
	C105.117,51.196,105.117,51.181,105.114,51.181L105.114,51.181z M108.286,51.187c-0.015,0-0.025,0.012,0.013,0.022
	C108.318,51.194,108.302,51.187,108.286,51.187z M105.134,51.19L105.134,51.19L105.134,51.19z M105.058,51.198
	C105.014,51.187,105.061,51.234,105.058,51.198L105.058,51.198z M104.959,51.211C104.871,51.244,105.045,51.25,104.959,51.211z
	 M105.313,51.231c-0.041-0.004-0.08,0.013-0.107,0.072c-0.079,0.209-0.202,0.505-0.497,0.402c-0.167,0.176-0.452-0.1-0.473,0.184
	c0.185,0.015,0.286,0.222,0.334,0.405c0.088,0.168-0.222,0.318-0.035,0.434c0.24,0.146,0.003,0.285,0.035,0.465
	c-0.008,0.162-0.184,0.321-0.022,0.438c-0.006,0.079,0.005,0.426,0.089,0.258c0.028-0.108,0.063-0.218,0.181-0.291
	c0.066-0.126,0.305-0.044,0.476,0.03c0.106,0.214,0.325-0.03,0.186-0.169c0.027-0.184-0.036-0.227,0.103-0.377
	c0.005-0.242,0.146-0.367,0.1-0.607c-0.072-0.244,0.3-0.102,0.279-0.272c-0.022-0.053,0.226-0.445-0.092-0.396
	c-0.054-0.01-0.111,0.003-0.163-0.02c-0.008-0.215-0.073-0.329-0.203-0.495C105.46,51.296,105.384,51.237,105.313,51.231z
	 M105.213,51.244c-0.004-0.004-0.01,0-0.02,0.006C105.222,51.291,105.229,51.25,105.213,51.244z M106.45,51.272
	C106.361,51.298,106.473,51.331,106.45,51.272z M107.309,51.383c-0.013,0.004-0.017,0.017,0.016,0.027l0,0
	C107.337,51.383,107.319,51.38,107.309,51.383L107.309,51.383z M105.007,51.482c-0.01-0.001-0.019,0.004,0,0.024
	C105.022,51.495,105.014,51.484,105.007,51.482z M106.519,51.503c0,0.004-0.002,0.004,0,0.01
	C106.537,51.51,106.523,51.499,106.519,51.503z M107.32,51.51c-0.012,0-0.028,0.003-0.012,0.016
	C107.342,51.516,107.333,51.51,107.32,51.51z M104.966,51.513C104.874,51.559,104.981,51.563,104.966,51.513z M107.93,51.573
	c-0.011-0.003-0.026,0.006-0.014,0.039C107.947,51.592,107.941,51.576,107.93,51.573z M98.933,51.592
	C98.882,51.586,98.983,51.62,98.933,51.592L98.933,51.592z M105.868,51.609c0-0.002-0.005,0-0.013,0.01
	C105.863,51.649,105.874,51.616,105.868,51.609z M105.887,51.617C105.861,51.625,105.938,51.643,105.887,51.617z M98.93,51.652
	C98.893,51.655,98.971,51.709,98.93,51.652L98.93,51.652z M105.917,51.655c-0.01,0.003-0.018,0.015,0.005,0.02v0.001
	C105.94,51.658,105.928,51.652,105.917,51.655L105.917,51.655z M104.614,51.662c0,0-0.003,0.003-0.006,0.008
	C104.627,51.681,104.624,51.662,104.614,51.662z M104.621,51.683c-0.007,0.001-0.007,0.004,0.003,0.016l0,0
	C104.668,51.712,104.632,51.681,104.621,51.683z M98.92,51.691C98.897,51.69,98.933,51.716,98.92,51.691L98.92,51.691z
	 M106.874,51.744L106.874,51.744L106.874,51.744L106.874,51.744L106.874,51.744z M99.244,51.938
	c-0.001,0.002,0.003,0.008,0.018,0.02C99.303,51.956,99.247,51.931,99.244,51.938z M99.262,51.958L99.262,51.958L99.262,51.958
	L99.262,51.958z M104.342,51.981C104.288,52,104.377,52,104.342,51.981z M99.102,51.984c-0.013-0.003-0.026-0.003-0.009,0.022h0.001
	C99.126,52,99.116,51.987,99.102,51.984L99.102,51.984z M98.667,52.07l-0.01,0.014L98.667,52.07z M98.971,52.19
	c-0.003,0-0.01,0.003-0.02,0.013l0,0C98.968,52.231,98.983,52.193,98.971,52.19L98.971,52.19z M99.017,52.203
	c-0.015,0-0.027,0.005-0.008,0.013l0,0C99.039,52.203,99.03,52.2,99.017,52.203L99.017,52.203z M106.099,52.25
	C106.011,52.309,106.116,52.326,106.099,52.25L106.099,52.25z M106.198,52.272C106.134,52.301,106.216,52.339,106.198,52.272
	L106.198,52.272z M106.05,52.272c-0.01,0.008-0.008,0.051,0.011,0.015C106.057,52.275,106.052,52.272,106.05,52.272z M98.742,52.295
	c-0.003,0-0.003,0.006,0,0.018C98.768,52.317,98.749,52.29,98.742,52.295z M99.256,52.361
	C99.218,52.363,99.265,52.417,99.256,52.361z M99.262,52.434c-0.025-0.006,0.038,0.081,0.021,0.009
	C99.271,52.438,99.265,52.434,99.262,52.434z M102.006,52.492c-0.011,0-0.025,0.005-0.011,0.024l0,0
	C102.021,52.504,102.019,52.494,102.006,52.492L102.006,52.492z M105.726,52.496c-0.007-0.002-0.015,0.009-0.002,0.039
	C105.741,52.512,105.735,52.496,105.726,52.496z M99.306,52.529C99.265,52.52,99.328,52.57,99.306,52.529z M99.306,52.562
	c-0.003,0.001,0,0.008,0.013,0.018C99.359,52.58,99.314,52.558,99.306,52.562z M106.667,52.578c-0.003,0-0.008,0.015-0.014,0.051
	C106.674,52.69,106.678,52.575,106.667,52.578z M106.776,52.586c-0.007-0.005-0.016,0-0.007,0.016
	C106.787,52.596,106.784,52.586,106.776,52.586z M99.18,52.596c-0.041-0.013-0.063,0.146-0.028,0.225l0,0v0.014
	c0.077,0.113,0.187-0.072,0.074-0.162C99.208,52.619,99.192,52.599,99.18,52.596L99.18,52.596z M106.634,52.678l-0.048,0.015
	C106.534,52.935,106.797,52.792,106.634,52.678z M101.972,52.708c-0.004,0.005-0.004,0.01,0.003,0.021
	C102.016,52.722,101.98,52.701,101.972,52.708z M102.041,52.755c0,0,0,0.005-0.003,0.022h-0.004
	C102.038,52.801,102.047,52.752,102.041,52.755L102.041,52.755z M99.078,52.764c-0.01-0.005-0.041,0.059,0,0.008l0,0
	C99.078,52.768,99.078,52.767,99.078,52.764L99.078,52.764z M106.346,52.77c-0.003-0.008-0.016,0.016-0.025,0.089
	c-0.102,0.1,0.045,0.13,0.025,0.01C106.353,52.813,106.353,52.777,106.346,52.77L106.346,52.77z M101.898,52.795
	C101.883,52.817,101.941,52.801,101.898,52.795z M96.541,52.917c-0.003,0.001-0.015,0.008-0.03,0.021
	C96.454,53.035,96.585,52.901,96.541,52.917z M101.705,52.935c-0.009,0-0.025,0.003-0.042,0.016l0,0l0.003,0.044
	C101.643,53.2,101.775,52.938,101.705,52.935L101.705,52.935z M99.372,53.063c-0.004-0.003-0.014,0-0.006,0.017
	C99.382,53.07,99.381,53.067,99.372,53.063z M99.468,53.073c0,0.003,0.003,0.007,0.009,0.018
	C99.494,53.088,99.471,53.067,99.468,53.073z M101.46,53.08C101.43,53.093,101.478,53.099,101.46,53.08z M106.409,53.088
	C106.386,53.106,106.419,53.113,106.409,53.088z M101.493,53.106c-0.003,0.003-0.003,0.008,0.003,0.018
	C101.529,53.122,101.496,53.101,101.493,53.106z M106.404,53.113l-0.008,0.008l0,0L106.404,53.113z M99.401,53.131
	c-0.007,0-0.013,0.003-0.025,0.009v0.003C99.395,53.264,99.443,53.124,99.401,53.131L99.401,53.131z M100.93,53.173
	c-0.006,0.004-0.01,0.007,0.002,0.012C100.942,53.173,100.935,53.172,100.93,53.173z M106.261,53.2c0-0.007-0.004,0-0.01,0.01
	h-0.002C106.235,53.26,106.261,53.206,106.261,53.2L106.261,53.2z M101.278,53.203c-0.003-0.003-0.007,0.003-0.015,0.022
	C101.278,53.27,101.287,53.206,101.278,53.203z M104.472,53.251C104.469,53.276,104.494,53.26,104.472,53.251z M100.945,53.267
	c-0.003,0.003-0.003,0.006-0.006,0.016C100.968,53.295,100.952,53.267,100.945,53.267z M99.749,53.356
	C99.716,53.349,99.769,53.384,99.749,53.356z M101.587,53.377c-0.027,0.004-0.063,0.022-0.036,0.05
	C101.623,53.389,101.613,53.372,101.587,53.377z M99.776,53.427C99.76,53.473,99.815,53.428,99.776,53.427L99.776,53.427z
	 M99.936,53.448c0,0.005,0.007,0.021,0.007,0.005C99.939,53.448,99.939,53.448,99.936,53.448z M101.677,53.456
	C101.648,53.473,101.689,53.473,101.677,53.456z M99.794,53.466c-0.012,0-0.022,0.003,0,0.016
	C99.815,53.473,99.807,53.466,99.794,53.466z M100.243,53.493L100.243,53.493L100.243,53.493z M100.803,53.504
	c-0.004,0-0.004,0.006-0.003,0.018C100.832,53.527,100.81,53.501,100.803,53.504z M101.763,53.527c0,0-0.004,0.005-0.01,0.012
	C101.753,53.552,101.766,53.527,101.763,53.527z M102.34,53.539C102.324,53.564,102.363,53.532,102.34,53.539z M95.867,53.552
	L95.867,53.552L95.867,53.552z M105.631,53.599c-0.048,0.003-0.099,0.02-0.004,0.045l0,0l0.013-0.002
	C105.729,53.608,105.678,53.594,105.631,53.599L105.631,53.599z M101.684,53.621c-0.01,0-0.027,0.01-0.051,0.044
	C101.679,53.659,101.692,53.626,101.684,53.621z M103.076,53.632C103.015,53.637,103.201,53.66,103.076,53.632L103.076,53.632z
	 M105.611,53.678c0,0-0.003,0-0.003,0.01C105.627,53.708,105.618,53.678,105.611,53.678z M102.184,53.682
	c-0.043-0.007-0.143,0.037-0.07,0.1l0.051-0.018C102.222,53.711,102.214,53.688,102.184,53.682z M101.197,53.688
	c-0.003,0-0.008,0.003-0.011,0.018l0,0C101.208,53.741,101.208,53.69,101.197,53.688z M101.118,53.705v0.003V53.705z
	 M101.434,53.721c-0.226-0.011-0.045,0.382,0.142,0.214c0.033,0.01,0.143-0.19,0.051-0.17v-0.003
	c-0.051-0.011-0.097-0.021-0.143-0.031C101.467,53.724,101.45,53.721,101.434,53.721L101.434,53.721z M102.204,53.765
	C102.184,53.792,102.237,53.767,102.204,53.765L102.204,53.765z M102.184,53.805C102.148,53.82,102.214,53.82,102.184,53.805z
	 M102.26,53.814C102.228,53.814,102.288,53.836,102.26,53.814L102.26,53.814z M104.469,53.814c0,0.006,0.039,0.034,0.021,0.003
	C104.475,53.811,104.469,53.811,104.469,53.814z M102.126,53.833L102.126,53.833L102.126,53.833L102.126,53.833z M102.126,53.835
	C102.047,53.881,102.141,53.904,102.126,53.835z M105.823,53.835C105.787,53.858,105.848,53.843,105.823,53.835z M102.161,53.849
	C102.113,53.858,102.174,53.899,102.161,53.849z M102.26,53.89c-0.002,0.004-0.002,0.009-0.002,0.013
	C102.271,53.902,102.263,53.887,102.26,53.89z M101.993,53.969C101.98,53.986,102.01,53.976,101.993,53.969L101.993,53.969z
	 M101.715,53.969c-0.006,0.002-0.006,0.024,0.002,0.01C101.715,53.971,101.715,53.969,101.715,53.969z M94.004,54.621
	C93.948,54.646,94.045,54.67,94.004,54.621z M95.636,55.044L95.636,55.044C95.439,55.075,95.843,55.125,95.636,55.044z
	 M95.84,55.175l-0.006,0.004C95.729,55.229,95.894,55.246,95.84,55.175z M88.911,55.454C88.857,55.521,88.937,55.511,88.911,55.454z
	 M88.585,56c-0.02-0.005-0.044,0.033,0.01,0.025C88.595,56.01,88.588,56.003,88.585,56z M88.779,56.222
	c-0.003,0.001-0.009,0.018-0.008,0.055l0,0C88.825,56.339,88.797,56.218,88.779,56.222L88.779,56.222z M89.202,56.276
	c-0.007,0.005-0.013,0.02,0.01,0.029C89.223,56.275,89.212,56.272,89.202,56.276z M89.212,56.306L89.212,56.306L89.212,56.306
	L89.212,56.306z M88.648,56.288c-0.03-0.022-0.061,0.223,0.009,0.03C88.654,56.299,88.651,56.293,88.648,56.288z M91.022,56.294
	c-0.013,0.002-0.041,0.037-0.003,0.015h0.003C91.025,56.299,91.025,56.294,91.022,56.294L91.022,56.294z M91.063,56.348
	c-0.038,0-0.087,0.027-0.025,0.084C91.135,56.378,91.102,56.35,91.063,56.348z M92.785,56.391c-0.113-0.016-0.239,0.25-0.089,0.266
	v-0.003c0.055,0.115,0.282-0.168,0.165-0.202C92.843,56.413,92.813,56.394,92.785,56.391L92.785,56.391z M90.982,56.416
	c-0.011-0.006-0.051,0.031-0.006,0.025C90.986,56.426,90.986,56.418,90.982,56.416z M91.01,56.457
	c-0.023,0.005-0.066,0.084-0.005,0.102C91.028,56.479,91.022,56.451,91.01,56.457z M90.845,56.584c-0.019,0-0.038,0.01-0.054,0.025
	c-0.15,0.161,0.061,0.256,0.141,0.104l0,0C90.959,56.656,90.902,56.587,90.845,56.584L90.845,56.584z M91.143,56.604
	c-0.02,0.003-0.03,0.021-0.008,0.056l0,0C91.212,56.628,91.171,56.597,91.143,56.604L91.143,56.604z M96.618,56.609
	C96.516,56.862,96.894,56.577,96.618,56.609z M90.717,56.619C90.652,56.628,90.714,56.717,90.717,56.619z M89.554,56.748
	C89.367,56.939,89.633,56.902,89.554,56.748z M92.323,56.755c-0.01-0.003-0.053,0.069-0.007,0.035
	C92.323,56.766,92.326,56.758,92.323,56.755z M89.421,56.771c-0.04-0.006-0.206,0.168-0.073,0.215
	c-0.069,0.196,0.13,0.124,0.079-0.031h-0.001c0.004-0.059-0.03-0.104,0.001-0.168C89.43,56.777,89.426,56.773,89.421,56.771
	L89.421,56.771z M90.877,56.783c-0.012-0.003-0.025,0.003-0.045,0.035l0,0c0.007,0.031-0.033,0.038-0.021,0.071
	C90.91,57.049,90.924,56.799,90.877,56.783L90.877,56.783z M92.147,56.793c-0.006,0-0.016,0.011-0.026,0.033h0.003
	C92.158,56.856,92.165,56.786,92.147,56.793L92.147,56.793z M92.339,56.806c0,0.009,0.074,0.057,0.025,0.005
	C92.346,56.803,92.338,56.803,92.339,56.806z M97.109,56.831c0.036,0.067-0.03,0.317,0.143,0.188l0,0
	C97.331,56.872,97.194,56.891,97.109,56.831L97.109,56.831z M88.955,56.836c-0.057-0.004,0.012,0.156,0.035,0.014l0,0
	C88.976,56.84,88.965,56.836,88.955,56.836z M92.469,56.85c-0.005,0-0.01,0.003-0.016,0.013
	C92.504,56.954,92.504,56.837,92.469,56.85z M92.096,56.862c-0.012,0-0.029,0.015-0.021,0.04
	C92.108,56.877,92.104,56.862,92.096,56.862z M88.123,56.951C88.057,57.025,88.162,57.062,88.123,56.951z M91.808,56.974
	c-0.035-0.009-0.102,0.029,0,0.064l0,0C91.842,56.995,91.829,56.977,91.808,56.974L91.808,56.974z M90.687,57.062
	c-0.018,0.007-0.034,0.012-0.057,0.022c-0.099,0.146,0.166,0.135,0.173,0.209l0,0l0.036-0.035
	C90.775,57.204,90.791,57.043,90.687,57.062L90.687,57.062z M94.853,57.161c-0.092-0.029-0.206,0.203-0.165,0.331l0,0
	c-0.016,0.065,0,0.133-0.046,0.188c0.071,0.092-0.03,0.215-0.005,0.318c0.171-0.032,0.032-0.26,0.146-0.356
	c0.141-0.112-0.042-0.36,0.107-0.454C94.878,57.174,94.865,57.165,94.853,57.161L94.853,57.161z M88.266,57.161
	c-0.137,0.1,0.006,0.224,0.006,0.054l0,0C88.292,57.201,88.289,57.168,88.266,57.161L88.266,57.161z M89.351,57.165
	c-0.019-0.007-0.049,0.021-0.046,0.1C89.37,57.212,89.368,57.173,89.351,57.165z M103.027,57.169
	c-0.04,0.102-0.18,0.205-0.298,0.246c-0.245-0.024,0.095,0.153,0.122,0.003C102.877,57.29,103.114,57.356,103.027,57.169z
	 M90.862,57.234C90.723,57.395,90.946,57.328,90.862,57.234L90.862,57.234z M90.811,57.356L90.811,57.356
	C90.74,57.428,90.88,57.352,90.811,57.356z M89.521,57.364c-0.021,0-0.051,0.03-0.011,0.087
	C89.562,57.395,89.544,57.367,89.521,57.364z M90.877,57.372c-0.012-0.005-0.03,0.003-0.032,0.044
	C90.886,57.397,90.886,57.378,90.877,57.372z M100.126,57.429c-0.041-0.001-0.079,0.132,0.006,0.102l0,0
	c-0.008-0.019,0.01-0.057,0.035-0.044C100.154,57.444,100.142,57.429,100.126,57.429L100.126,57.429z M90.982,57.434
	c-0.041,0.008-0.18,0.258-0.014,0.141l0.003-0.006l0.005-0.018l-0.005-0.026C90.998,57.454,90.995,57.429,90.982,57.434
	L90.982,57.434z M88.161,57.461c-0.029,0.023-0.102,0.189,0.006,0.042C88.174,57.461,88.17,57.457,88.161,57.461z M91.307,57.503
	C91.268,57.548,91.354,57.54,91.307,57.503z M91.248,57.559c-0.004,0.002-0.004,0.008,0.005,0.02
	C91.288,57.574,91.253,57.551,91.248,57.559z M99.849,57.657c-0.055,0.003,0.053,0.069,0.033,0.003
	C99.869,57.657,99.856,57.657,99.849,57.657z M90.753,57.66c-0.021,0.006-0.039,0.033-0.057,0.089l0,0
	c-0.01,0.044,0.026,0.066,0.051,0.093C90.869,57.8,90.813,57.641,90.753,57.66L90.753,57.66z M99.974,57.742
	C99.936,57.778,100.012,57.771,99.974,57.742z M99.71,57.758c-0.079,0-0.16,0.127-0.249,0.171c0.104,0.099,0.04,0.16,0.045,0.259
	l-0.002,0.001c-0.013,0.102-0.119,0.191-0.153,0.298c0.092,0.11,0.24,0.006,0.319-0.048c-0.025-0.174,0.13-0.071,0.193-0.161
	c0.222-0.127-0.073-0.312-0.073-0.466C99.765,57.774,99.736,57.76,99.71,57.758L99.71,57.758z M88.639,57.771
	c-0.028-0.005-0.062,0.002-0.025,0.043l0,0C88.683,57.796,88.664,57.777,88.639,57.771L88.639,57.771z M90.844,57.793
	c-0.178,0.13-0.097,0.354-0.247,0.499c-0.024,0.254,0.368,0.059,0.239-0.101l0,0c0.104-0.062,0.062-0.205,0.088-0.294
	C91.007,57.736,90.905,57.833,90.844,57.793L90.844,57.793z M89.896,57.813c-0.007,0.011,0.016,0.046,0.01,0.002
	C89.898,57.806,89.896,57.809,89.896,57.813z M91.193,57.859C91.063,57.958,91.329,57.885,91.193,57.859L91.193,57.859z
	 M94.799,57.91c-0.02,0.006-0.027,0.122,0.021,0.038C94.812,57.915,94.805,57.905,94.799,57.91z M91.387,57.938
	c-0.048,0-0.114,0.028-0.181,0.02c-0.199,0.212,0.059,0.307,0.237,0.223l0,0c0.019-0.033,0.008-0.068,0.008-0.1
	C91.461,57.966,91.434,57.938,91.387,57.938L91.387,57.938z M87.226,58.024C87.176,58.065,87.243,58.068,87.226,58.024z
	 M99.468,58.104c-0.01-0.002-0.021,0-0.004,0.013v0.001C99.488,58.112,99.477,58.106,99.468,58.104L99.468,58.104z M101.333,58.154
	c-0.071,0.003-0.138,0.156-0.185,0.233h0.003c-0.033,0.017-0.019,0.056-0.051,0.07c-0.039,0.243,0.091-0.094,0.124-0.033
	c0.072-0.157,0.12-0.16,0.182-0.214C101.383,58.17,101.357,58.154,101.333,58.154L101.333,58.154z M87.249,58.167
	C87.21,58.191,87.274,58.201,87.249,58.167z M100.302,58.173c-0.002,0.003-0.005,0.008-0.007,0.022
	C100.319,58.201,100.311,58.168,100.302,58.173z M94.603,58.201c-0.024-0.003-0.063,0.028-0.007,0.049
	C94.621,58.214,94.611,58.201,94.603,58.201z M94.596,58.25v0.004H94.6C94.596,58.254,94.596,58.25,94.596,58.25z M89.368,58.268
	c-0.023-0.006-0.068,0.035-0.013,0.076C89.388,58.292,89.381,58.271,89.368,58.268z M90.242,58.451
	c-0.012-0.003-0.027,0.01-0.01,0.043C90.263,58.474,90.253,58.454,90.242,58.451z M99.787,58.524
	c-0.028,0.019,0.086,0.176,0.082,0.06l0,0v-0.017C99.818,58.527,99.794,58.518,99.787,58.524L99.787,58.524z M89.913,58.733
	L89.913,58.733C89.857,58.782,89.979,58.768,89.913,58.733z M99.882,58.755C99.823,58.793,99.933,58.768,99.882,58.755z
	 M99.879,58.821c-0.044,0-0.082,0.104-0.136,0.076c-0.149,0.081-0.046,0.313-0.193,0.418c0.15,0.065,0.344-0.038,0.235-0.214
	c0.066,0.002,0.04-0.169,0.147-0.153c0.089,0.027,0.103-0.187-0.011-0.079C99.909,58.836,99.894,58.821,99.879,58.821z
	 M99.89,59.094C99.823,59.088,99.933,59.167,99.89,59.094L99.89,59.094z M99.993,59.113C99.945,59.186,100.078,59.139,99.993,59.113
	z M99.879,59.254C99.854,59.29,99.92,59.287,99.879,59.254z M85.834,59.257C85.818,59.33,85.857,59.3,85.834,59.257L85.834,59.257z
	 M85.856,59.404C85.755,59.598,85.934,59.502,85.856,59.404z M99.971,59.404C99.927,59.42,100.002,59.452,99.971,59.404
	L99.971,59.404z M85.799,59.562c-0.009,0.003-0.014,0.018-0.011,0.044C85.888,59.629,85.828,59.553,85.799,59.562z M84.911,59.739
	c-0.003,0-0.009,0.007-0.009,0.022v0.003C84.948,59.777,84.926,59.735,84.911,59.739L84.911,59.739z M82.971,59.906
	c-0.003-0.005-0.009,0.005-0.014,0.029l0,0C82.982,59.996,82.982,59.909,82.971,59.906L82.971,59.906z M84.832,59.998
	c-0.008,0-0.018,0.003-0.029,0.009C84.775,60.085,84.885,59.994,84.832,59.998z M84.898,60.015c0-0.009-0.023,0.007-0.077,0.07
	c-0.035,0.036-0.165,0.352-0.025,0.266C84.732,60.327,84.903,60.047,84.898,60.015z M85.043,60.053c0,0.002-0.003,0.008-0.007,0.015
	C85.057,60.161,85.056,60.04,85.043,60.053z M85.011,60.207c-0.028,0.011,0.02,0.128,0.013,0.003l0,0
	C85.018,60.207,85.015,60.205,85.011,60.207L85.011,60.207z M85.334,60.257c-0.021-0.006-0.066,0.119,0.003,0.065h0.003
	C85.347,60.278,85.34,60.261,85.334,60.257L85.334,60.257z M100.547,60.29c-0.028,0.01-0.133,0.238-0.016,0.097h0.003l0.003-0.003
	v-0.008C100.553,60.31,100.553,60.287,100.547,60.29L100.547,60.29z M83.172,60.297L83.172,60.297
	C83.128,60.417,83.276,60.31,83.172,60.297z M85.331,60.424c-0.12,0.072,0.161,0.093,0,0.003V60.424z M82.284,60.604
	c-0.003,0-0.008,0.007-0.008,0.029C82.314,60.662,82.295,60.601,82.284,60.604z M85.087,60.699
	c-0.023,0.003-0.039,0.023-0.034,0.066c-0.102,0.209,0.123,0.177,0.092,0.023C85.166,60.732,85.122,60.692,85.087,60.699z
	 M90.99,60.794c-0.034-0.008-0.069,0.001-0.101,0.034c-0.091,0.076-0.176,0.18-0.224,0.292l0,0l-0.022,0.038
	c-0.059,0.136,0.009,0.237,0.152,0.169c0.062-0.119,0.181-0.187,0.22-0.318C91.155,60.962,91.092,60.81,90.99,60.794L90.99,60.794z
	 M78.538,60.937c-0.016-0.005-0.038,0.069,0.006,0.047l0.004-0.013C78.548,60.945,78.544,60.938,78.538,60.937L78.538,60.937z
	 M78.014,61.034c-0.011,0-0.046,0.04-0.008,0.022C78.016,61.041,78.016,61.037,78.014,61.034z M84.543,61.05
	c-0.07,0.108-0.176,0.364-0.107,0.379c0.062-0.056,0.059-0.16,0.062,0.09l0,0c0.058,0.011,0.058-0.13,0.045-0.177
	C84.592,61.207,84.559,61.153,84.543,61.05L84.543,61.05z M90.569,61.05c-0.066-0.003-0.025,0.283,0.038,0.025v-0.001
	C90.592,61.06,90.581,61.054,90.569,61.05L90.569,61.05z M78.289,61.128c-0.017,0.001-0.052,0.1,0,0.036l0,0
	C78.294,61.138,78.293,61.126,78.289,61.128L78.289,61.128z M78.478,61.329c0-0.004-0.006,0-0.019,0.021
	C78.437,61.427,78.478,61.342,78.478,61.329z M77.791,61.376c-0.013-0.003-0.057,0.084-0.007,0.038
	C77.794,61.386,77.794,61.376,77.791,61.376z M85.19,61.392C85.176,61.442,85.211,61.409,85.19,61.392z M77.753,61.396
	c-0.003,0-0.008,0-0.019,0v0.001C77.687,61.465,77.775,61.403,77.753,61.396z M78.447,61.422c-0.009,0-0.033,0.081,0,0.037l0,0
	C78.452,61.434,78.452,61.422,78.447,61.422L78.447,61.422z M85.15,61.437C85.115,61.555,85.211,61.442,85.15,61.437L85.15,61.437z
	 M78.65,61.459c-0.025-0.007-0.064,0.189-0.005,0.172l0.016-0.039l0.01-0.048C78.668,61.483,78.661,61.46,78.65,61.459L78.65,61.459
	z M77.705,61.5c-0.003,0-0.008,0-0.011,0.006C77.671,61.585,77.718,61.496,77.705,61.5z M77.449,61.528
	c-0.007-0.002-0.01,0.005-0.022,0.033h0.002C77.442,61.63,77.459,61.533,77.449,61.528L77.449,61.528z M77.113,61.648
	c-0.003-0.006-0.009,0-0.031,0.027C77.06,61.771,77.117,61.664,77.113,61.648z M80.767,62.097c-0.022,0.014-0.063,0.1,0.009,0.021
	l0,0C80.782,62.095,80.772,62.092,80.767,62.097L80.767,62.097z M77.612,62.161c-0.043,0.028-0.015,0.231,0.059,0.158
	c0.212,0.086,0.054-0.038,0-0.117c-0.016-0.021-0.025-0.033-0.037-0.038C77.625,62.158,77.617,62.158,77.612,62.161L77.612,62.161z
	 M80.709,62.184c-0.009,0-0.034,0.069,0,0.033C80.716,62.193,80.716,62.184,80.709,62.184z M80.455,62.332
	c-0.002,0.005-0.002,0.016,0.003,0.035C80.494,62.372,80.463,62.322,80.455,62.332z M80.472,62.373
	c-0.006,0-0.013,0.007-0.016,0.022l0,0C80.512,62.419,80.491,62.373,80.472,62.373L80.472,62.373z M78.506,62.401
	c-0.001,0-0.004,0-0.011,0.004c-0.026,0.009-0.071,0.063,0.005,0.054C78.519,62.423,78.519,62.406,78.506,62.401L78.506,62.401z
	 M80.466,62.405L80.466,62.405C80.44,62.475,80.555,62.401,80.466,62.405z M77.968,62.465c-0.008-0.009-0.087,0.073-0.028,0.045
	C77.964,62.48,77.97,62.469,77.968,62.465z M81.44,62.658c-0.066,0.048-0.01,0.209,0.027,0.257
	C81.593,62.781,81.491,62.794,81.44,62.658z M78.647,62.804c-0.008,0-0.015,0-0.02,0.003c-0.003,0.005,0,0.015,0.018,0.029
	C78.694,62.829,78.668,62.812,78.647,62.804L78.647,62.804z M79.854,63.157c-0.003,0.003-0.001,0.009,0.01,0.023l0,0
	C79.913,63.182,79.864,63.148,79.854,63.157L79.854,63.157z M73.448,63.196C73.407,63.184,73.457,63.234,73.448,63.196z
	 M73.482,63.224c-0.006,0.001-0.025,0.036,0.005,0.013C73.489,63.227,73.487,63.224,73.482,63.224z M73.252,63.521
	c-0.015,0.008-0.054,0.061,0,0.015C73.258,63.521,73.255,63.516,73.252,63.521z M73.111,63.684c-0.033,0.005-0.099,0.071-0.02,0.086
	C73.138,63.703,73.132,63.681,73.111,63.684z M74.129,64.013c-0.008-0.003-0.074,0.051-0.02,0.025
	C74.127,64.02,74.132,64.013,74.129,64.013z M75.575,64.321C75.535,64.346,75.601,64.38,75.575,64.321z M75.59,64.336
	c-0.004,0.003-0.018,0.033,0,0.01C75.591,64.336,75.59,64.336,75.59,64.336z M72.397,64.852c-0.013-0.001-0.025,0.013,0,0.059v0.002
	l-0.007,0.022C72.47,64.909,72.427,64.856,72.397,64.852L72.397,64.852z M72.457,64.98c-0.003,0-0.003,0-0.003,0.003
	C72.454,64.98,72.454,64.98,72.457,64.98L72.457,64.98L72.457,64.98z M72.454,64.983C72.375,65.055,72.416,65.061,72.454,64.983z
	 M71.406,67.514c-0.069,0.01-0.139,0.045-0.168,0.122c-0.189,0.138,0.143,0.061,0.146,0.114c0.022-0.058,0.124-0.005,0.181-0.091
	l0,0c-0.113-0.009-0.044-0.079,0.01-0.11C71.544,67.523,71.475,67.506,71.406,67.514z M68.757,69.454
	c-0.019-0.001-0.035,0.003,0,0.022C68.795,69.467,68.777,69.456,68.757,69.454z M68.801,69.834
	C68.751,69.854,68.848,69.854,68.801,69.834z M69.282,70.091c-0.033,0.006-0.06,0.021-0.079,0.054l0.046,0.01l0.053,0.012
	C69.479,70.166,69.376,70.081,69.282,70.091z M69.14,70.104c-0.006-0.004-0.016,0.005-0.025,0.019
	C69.162,70.154,69.156,70.104,69.14,70.104z M68.91,70.119c-0.021-0.002-0.042,0.006-0.049,0.047l0,0
	C68.96,70.166,68.943,70.124,68.91,70.119L68.91,70.119z M68.718,70.14C68.678,70.206,68.801,70.16,68.718,70.14z M69.27,70.252
	c-0.005,0.002-0.01,0.01-0.016,0.028C69.282,70.309,69.279,70.247,69.27,70.252z M69.243,70.594c-0.008,0-0.018,0.015-0.021,0.056
	C69.26,70.635,69.254,70.596,69.243,70.594z M67.649,71.963c-0.022,0.005-0.035,0.021,0.016,0.03
	C67.693,71.963,67.668,71.958,67.649,71.963z M67.535,72.126c-0.02,0-0.033,0.01,0.006,0.026
	C67.573,72.137,67.554,72.126,67.535,72.126z M67.263,73.11C67.257,73.144,67.301,73.105,67.263,73.11z M66.883,73.322
	c-0.014-0.006-0.031-0.003-0.003,0.023C66.908,73.335,66.896,73.325,66.883,73.322z M65.633,73.462
	c-0.01,0.003-0.013,0.031,0.006,0.013C65.636,73.465,65.633,73.462,65.633,73.462z M61.724,81.635
	c-0.043-0.003-0.066,0.051,0.044,0.028C61.754,81.641,61.737,81.635,61.724,81.635z M61.747,81.676
	c-0.033-0.006-0.056,0.079,0.016,0.011C61.758,81.683,61.752,81.678,61.747,81.676z M63.483,83.252
	c-0.03,0.003-0.057,0.021,0.011,0.038C63.547,83.255,63.515,83.246,63.483,83.252z M63.274,83.622
	c-0.049-0.001-0.127,0.188-0.06,0.229c0.09,0.006,0.215-0.073,0.098-0.149C63.305,83.645,63.292,83.624,63.274,83.622z
	 M63.448,83.892c-0.085-0.005-0.184,0.008-0.092,0.064l0.045-0.021l0.046-0.003C63.601,83.917,63.534,83.895,63.448,83.892
	L63.448,83.892z M63.407,84.012c-0.013-0.003-0.031,0.003-0.025,0.045C63.465,84.065,63.436,84.02,63.407,84.012z"/>
</svg>
