<?xml version="1.0" encoding="utf-8"?>
<!-- Generator: Adobe Illustrator 16.0.4, SVG Export Plug-In . SVG Version: 6.00 Build 0)  -->
<svg version="1.2" baseProfile="tiny" id="Layer_1" xmlns="http://www.w3.org/2000/svg" xmlns:xlink="http://www.w3.org/1999/xlink"
	 x="0px" y="0px" width="153px" height="64px" viewBox="0 0 153 64" xml:space="preserve">
<title>US-Mainland</title>
<desc>Created with Sketch.</desc>
<g>
	<path fill="#BDCCD4" d="M120.598,55.009l0.099-0.243l-0.119-0.296l-0.068,0.376l-0.093,0.137l0.076,0.048 M120.146,56.594
		l0.08,0.162l0.555-0.479l0.246-0.668l0.412-0.617l0.402-0.388l0.966-1.853l0.487-0.932l1.402-2.361l0.356-0.977l0.083-0.229
		l0.55-1.111l0.002-0.248l-0.132,0.004l-0.167,0.415l-0.07-0.021l0.002-0.626l-0.1-0.146l-0.105,0.013l0.023,0.45l-0.067,0.129
		l0.149,0.395l-0.02,0.236l-0.042,0.157l-0.096,0.085l-0.271,0.241l-0.041,0.14l0.075,0.276l-0.346,0.884l-0.44,0.624l-0.145,0.293
		l-0.43,0.378l-0.373,0.926l-0.212,0.246l-0.037,0.102l-0.114,0.324l-0.183,0.159l-0.102,0.331l-0.569,0.777l-0.111,0.348
		l-0.156,0.179l-0.218,0.571l-0.44,0.465l-0.199,0.557l-0.295,0.397l-0.267,0.239 M125.567,46.006l-0.111-0.271l-0.11-0.103
		l-0.139-0.032l-0.04,0.086l0.01,0.168l0.108,0.128l0.03,0.328l0.463,0.443l0.056-0.068l0.065-0.481l0.104-0.41l0.131-0.514
		l-0.049-0.664l0.273-1.776l-0.047-0.514l0.159-1.199l0.027-0.12l0.278-1.215l0.116-1.185l0.338-1.229l-0.133-1.224l-0.024-0.263
		l-0.132,0.149l-0.017,0.3l-0.244,0.772l-0.002,0.264h0.246l-0.206,0.543l-0.004,0.29l-0.087,0.155l-0.263,0.939l0.02,0.327
		l0.025,0.433l-0.104,0.189l0.023,0.256l-0.177,0.592l0.022,0.291l-0.093,0.305l0.057,0.689l-0.126,1.423l-0.099,0.577l-0.139,0.813
		l-0.13,0.338l0.098,0.374l-0.06,0.138 M119.543,55.068l0.081,0.135l0.268,0.091l0.088-0.014l0.049-0.104l-0.416-0.521
		 M122.739,14.707l0.181-0.312l0.003-0.103l-0.078-0.136l-0.131,0.431 M131.732,0.528l-0.119,0.263l-0.095,0.42 M115.791,60.709
		l0.029-0.051l-0.183-0.466l-0.111-0.049l-0.241,0.122l0.358,0.402 M112.866,64.327l0.058,0.1l0.904-0.8l0.82-0.397l0.674-0.475
		l1.307-0.554l0.057-0.095l-0.091-0.304l-0.018-0.014l-0.168-0.136l-0.185,0.23l-0.114,0.013l-0.06-0.038l0.024-0.378l-0.048-0.125
		l-0.197-0.089l-0.15,0.047l-0.29,0.278l-0.023,0.132l0.249,0.302l0.013,0.132l-0.082,0.076l-0.463-0.001l-0.822,0.469l-0.212,0.247
		l-0.277,0.173l-0.193,0.23l-0.095-0.03l0.052-0.403l-0.238,0.06l-0.26,0.166l-0.067,0.165l0.048,0.117l0.321,0.084l0.012,0.123
		l-0.327,0.533 M117.201,60.064l0.158-0.028l0.137-0.126l0.097,0.004l0.022-0.113l-0.08-0.198l0.05-0.112l-0.06-0.064l-0.149,0.021
		l-0.162,0.143l0.045,0.17l-0.077,0.19 M106.011,74.123l-0.331,0.692l-0.125,0.339l0.083,0.1l0.335-0.596l0.818-1.176l0.164-0.435
		l0.87-0.882l0.067-0.184l-0.078-0.205l-0.186-0.165l-0.131-0.015l-0.191,0.078l-0.229,0.223l-0.31,0.094l-0.234,0.221l-0.262,0.024
		l-0.039,0.113l0.065,0.329l-0.181,0.407l0.039,0.107l0.185,0.175l0.053,0.213l-0.114,0.252 M122.756,13.167l-0.072,0.251
		l0.151,0.309l0.016-0.139l-0.055-0.218l0.044-0.257l0.164-0.206l-0.126,0.084 M115.611,59.961l-0.072-0.161l-0.309,0.065
		l-0.014,0.114l0.324,0.129"/>
	<path fill="#BDCCD4" d="M116.495,61.03l-0.19-0.264l-0.147-0.042l-0.081,0.067l0.195,0.353l0.302,0.323l0.1,0.108l0.167-0.011
		l1.288-1.127l0.366-0.398l0.338-0.559l0.013-0.104l-0.065-0.101l-0.111-0.049l-0.347,0.108l-0.062,0.227l0.012,0.361l-0.095,0.163
		l-0.116,0.039l-0.119-0.062l-0.154-0.083l-0.169,0.046l-0.073,0.085l0.002,0.15l0.097,0.206l-0.104,0.154l-0.086-0.021
		l-0.023-0.283l-0.446-0.204l-0.219,0.017l-0.353,0.259l-0.004,0.104l0.28,0.409l-0.101,0.109 M116.003,59.93l-0.038-0.134
		l-0.12-0.05l-0.004,0.29l-0.059,0.148l0.103,0.048 M95.686,38.798L95.54,38.85l-0.145,0.123l-0.048,0.078l0.321-0.244
		 M94.408,41.973l0.025-0.004l0.045-0.016 M93.719,42.04l-0.081,0.017l0.026,0.01l0.207-0.027 M91.906,43.09l0.421-0.212
		l-0.349,0.117L91.43,43.13 M97.207,38.083l0.021-0.051l-0.209,0.19l-0.303,0.114l-0.206,0.114l0.406-0.125 M88.615,43.759
		l0.736-0.505l0.025-0.011l-0.226,0.059l-0.374,0.237l-0.383,0.333 M96.051,39.191l0.251-0.123l0.093-0.156l-0.023-0.088
		l-0.195,0.028l-0.314,0.183l-0.073,0.068l0.058,0.107 M119.146,57.802l-0.134-0.376l-0.077-0.021l-0.19,0.168l-0.22,0.025
		l-0.353-0.182l-0.161,0.301l0.149,0.199l0.592-0.142l0.155,0.032l0.109,0.138l0.163,0.465l-0.116,0.073l-0.112-0.022l-0.029,0.069
		l0.083,0.109l0.138,0.023l0.091-0.058l0.219-0.406l-0.064-0.161 M121.543,17.34l-0.029-0.18l-0.124,0.309 M118.583,58.737
		l-0.209,0.177l-0.229,0.033l-0.172,0.108l-0.039,0.113l0.057,0.117l0.167-0.028l0.225-0.149l0.48-0.183l0.029-0.087l-0.041-0.072"
		/>
	<path fill="#BDCCD4" d="M93.512,9.916l-0.281,0.866l0.089,0.231l0.118,0.162l0.188,0.074l0.296,0.001l0.088,0.063l0.023,0.077
		l-0.021,0.12l-0.156,0.255l-0.238,0.155l-0.285,0.49V12.5l0.242,0.234l0.108,0.623l-0.062,0.18l-0.212,0.024l-0.117,0.083
		l0.014,0.099l0.268,0.46l0.025,0.277l0.062,0.19l-0.012,0.111l-0.132,0.186l-0.04,0.162l0.042,0.099l0.245,0.279l0.419,0.177
		l0.372-0.023l0.312-0.276l0.244-0.129l0.152-0.011l0.576,0.108l0.463,0.21l0.645,0.751l0.271,0.21l0.053,0.153l0.059,0.463
		l0.007,0.881l0.066,0.363L97.4,18.907l-0.148,0.26l0.02,0.322l-0.107,0.328l0.14,0.444l0.122,0.814l0.096,0.228l0.111,0.082
		l0.274,0.092l0.329,0.293l0.17,0.081l0.166,0.011l0.461-0.15l0.1,0.003l0.121-0.086l0.121-0.023l0.221,0.073l0.156,0.149
		l0.489,0.248l0.317,0.698l0.204,0.576l0.091,0.383l0.039,0.387l0.143,0.271l0.928,0.811l0.352,0.07l0.143,0.081l0.324,0.284
		l0.367,0.4l0.228,0.408l0.538,1.312l0.177,0.165l0.366,0.182l0.13,0.115l0.716,0.35l0.727,0.558l0.299,0.616l0.187,0.526
		l0.505,0.292l0.441,0.65l0.021,0.257l-0.027,0.145l-0.055,0.149l-0.497,0.434l-0.384,0.007l-0.164,0.045l-0.723,0.513l-0.451-0.086
		l-0.475-0.191l-0.208,0.033l-0.089,0.076l-0.115,0.217l-0.189,0.605l-0.188,0.191l-0.366,0.2l-0.212,0.378l-0.466,0.135
		l-0.881,0.352l-0.495-0.016l-0.438,0.197l-1.036,0.674l-0.769,0.721v0.093l-0.229,0.122l-0.164,0.152l-0.296,0.094l-0.116,0.062
		L98.071,36.9l-0.21,0.112l-0.188,0.206l-0.051,0.102l-0.017,0.074l0.069,0.137l0.027,0.118l-0.108,0.304l-0.476,0.611l-0.038,0.086
		l0.105,0.232l-0.046,0.087l-0.298-0.047l-0.231,0.081l-0.184,0.164l-0.152,0.141l-0.162,0.074l-0.084,0.154l-0.166-0.05
		l-0.18-0.147l-0.193,0.012l-0.159,0.25l-0.037,0.554l0.179,0.42l0.041,0.61l-0.032,0.422l-0.095,0.199l0.024,0.318l-0.067,0.148
		l-0.152,0.107l-0.447-0.008l-0.634-0.012l-0.66,0.542l-0.393,0.189l-0.247,0.3l-0.328,0.095l-0.693-0.059l-0.443,0.145
		l-0.129,0.181l-0.793,0.012l-0.473,0.008l-0.304,0.131l-0.229,0.311l-1.186,0.533l-0.12,0.164l0.032,0.098l0.176,0.022
		l-0.592,0.378l-0.469,0.073l-0.571,0.289l-0.116,0.06l-0.242,0.194l-0.141,0.27l-0.49,0.522l-0.141,0.26l-0.398,1.103l0.008,0.126
		l0,0l0.016,0.15l-0.104,0.217l-0.248,0.071l-0.4,0.481l-0.188,0.382l0.006,0.08l-0.099,0.366l-0.06,0.228l-0.344,0.624l-0.218,0.25
		l-0.583,0.448l-0.191,0.259l-0.322,0.192l-0.031,0.138l0.045,0.186l-0.007,0.042l0.008,0.031l0.19,0.357l0.293,0.229l0.087,0.05
		l0.006,0.023l0.188,0.146l0.112,0.048l0.149-0.022l0.239-0.187l0.169,0.006l0.074,0.126l-0.096,0.278l0.047,0.169l0.535,0.518
		l0.275-0.414l0.123-0.014l0.215,0.121l0.103-0.199l-0.023-0.098l-0.331-0.063l-0.191-0.322l0.09-0.094l0.177-0.03l0.142,0.233
		l0.087-0.007l0.083-0.14l-0.104-0.329l0.136-0.128l0.164,0.085l0.136-0.154l-0.089-0.258l-0.277-0.062l-0.067-0.126l0.032-0.175
		l0.145-0.127l0.606,0.213l0.032,0.062l-0.086,0.254l0.083,0.117l0.135-0.11l0.306,0.08l0.303,0.08l0.213-0.082l0.122,0.022
		l0.277,0.361l0.005,0.15l-0.421-0.287l-0.429-0.04l-0.326,0.069l-0.205,0.116l-0.152,0.401l-0.396,0.375l-0.16,0.33l-0.312,0.211
		l-0.318,0.078l-0.451,0.136l-0.142,0.366l-0.31,0.396l0.082,0.18l0.467,0.164l0.032,0.089l-0.107,0.094l-0.211,0.011l-0.179,0.1
		l-0.089,0.351l-0.028,0.369l0.006,0.041l0.064,0.034l-0.035,0.077h-0.01l0.078,0.441l0.187,0.499l-0.059,0.193l-0.14,0.013
		l-0.119-0.109l-0.156-0.34l-0.1-0.462l-0.104-0.012l-0.067,0.192l0.043,0.31l-0.055,0.403l0.062,0.249l0.143,0.189l0.146,0.092
		l0.633,0.188l0.916,0.637l0.238,0.099l0.133,0.054l0.244,0.255l0.527,1.074l0.42,0.524l0.321,0.054l0.472,0.299l0.353,0.726
		l0.566,0.521l0.257,0.237l0.131-0.251l0.479,0.007l0.3,0.169l0.118,0.152l0.468,1.171l0.31,0.425l0.238,0.185l0.185-0.029
		l0.071-0.341l0.157-0.004l0.127-0.128l0.501,0.114l0.146,0.118l0.065,0.123l0.287,0.533l-0.039,0.14l0.091,0.153l0.238,0.185
		l0.534,0.194l0.421,0.446l0.522,0.283l0.176,0.219l0.146,0.349l0.106,0.965l0.072,0.175l0.419,0.513l0.213,0.166l0.252,0.009
		l0.314-0.307l0.229-0.583l0.161-0.118l0.185-0.038l0.197,0.087l0.227,0.007l0.675-0.108l0.572-0.163l0.229-0.276l0.062,0.066
		l0.105,0.116l0.109-0.138l-0.12-0.296l0.13-0.232l0.152-0.117l0.253-0.026L98.725,66.7l0.056-0.104l0.229-0.07l0.156-0.225
		l0.078-0.042v0.243l-0.188,0.183l-0.01,0.266l-0.093,0.146h-0.251l-0.178,0.081l-0.102,0.173l0.201,0.237l-0.12,0.198l-0.144,0.092
		l0.146,0.35l-0.097,0.243l0.05,0.081l0.691,0.176h0.093l0.743,0.003l0.51,0.107l0.359,0.189l0.888,0.28l0.4,0.262l0.113,0.14
		l0.087,0.105l0.14,0.482l-0.034,0.466l-0.132,0.507l-0.051,0.686l-0.205,0.619l-0.465,0.812l-0.205,0.636l-0.143,0.226
		l-0.393,0.627l-0.471,1.244l-0.143,1.317l-0.246,0.812l0.033,0.274l0.125,0.119l0.14,0.034l0.577,0.142l0.528,0.021l1.048-0.393
		l0.254-0.035l0.082-0.13l-0.021-0.098l-0.617,0.021l-0.111-0.057l-0.023-0.088l0.085-0.174l0.177-0.081l0.443-0.002l0.094,0.057
		l0.126,0.227l0.216,0.156l0.114-0.021l0.739-0.739l0.186-0.319l0.314-0.297l0.723-0.483l0.243-0.237l-0.042-0.285l-0.297-0.664
		l-0.097-0.171l-0.138-0.032l-0.117,0.119l0.097,0.198l-0.282,0.58l-0.124,0.065l-0.233-0.044l-0.115,0.075l-0.184,0.972
		l-0.119,0.154l-0.114,0.048l-0.116-0.162l-0.096-0.013l-0.063,0.086l-0.799,0.217l-0.077-0.038l-0.014-0.107l0.073-0.076
		l0.211-0.062l0.259-0.184l0.166-0.029l0.196,0.078l0.155,0.025l0.229-0.284l0.033-0.201l-0.102-0.312l-0.135-0.093l-0.049-0.117
		l0.114-0.261l0.167-0.09l0.096,0.013l0.227,0.238l0.152-0.348l0.185-0.062l0.155-0.441l0.168-0.091l-0.028-0.168l-0.19-0.246
		l-0.258-0.337l-0.02-0.159l0.48-0.528l0.242,0.026l0.189,0.29l0.062,0.452l0.132,0.19l0.129,0.021l0.213-0.31l0.306-0.288
		l0.075-0.155l-0.055-0.143l-0.152-0.138l-0.354-0.067l-0.106-0.154l0.028-0.232l0.009-0.074l-0.045-0.196l-0.112-0.03l-0.169,0.081
		l-0.047-0.107l0.029-0.113l0.287-0.227l0.637-0.708l0.131-0.004l0.076,0.083l0.072,0.355l0.113,0.021l0.389-0.187l0.368-0.277
		l0.225-0.634l0.134,0.146l-0.04,0.136l-0.04,0.135l0.057,0.1l0.123-0.004l0.26-0.661l0.396-0.777l1.135-1.639l-0.14,0.003
		l-0.377,0.285l-0.226-0.019l-0.634,0.407l0.055,0.144l0.402,0.2l-0.182,0.196l-0.543,0.084l-0.183-0.475l0.048-0.104l0.359-0.285
		l0.14-0.226l0.366-0.223l0.311,0.083l0.309-0.322l0.115-0.051l0.16-0.071l0.226-0.211l0.619-0.875l0.673-0.713l1.096-0.759
		l0.219-0.229l0.087-0.19l-0.022-0.107l-0.269-0.055l-0.312,0.19l-0.608,0.557l-0.272,0.077l-0.078-0.029l0.076-0.182l-0.066-0.065
		l-0.144,0.101l-0.177,0.258l-0.063,0.288l-0.291,0.315l-0.077-0.058l0.047-0.289l0.165-0.435l0.157-0.249l-0.047-0.134
		l-0.296-0.268l-0.116,0.009l-0.304,0.019l-0.257,0.087l-0.154-0.059l0.085-0.173l0.095,0.031l0.047-0.068l-0.021-0.151l-0.186-0.14
		l-0.062-0.426l-0.637-0.448l-0.381-0.104l-0.229-0.167l-0.057-0.355l-0.195-0.141l-0.133-0.189l-0.104-0.489l-0.188-0.334
		l0.039-0.104l0.08-0.031l0.155,0.289l0.162,0.553l0.146,0.287l0.179,0.141l0.127,0.321l0.127,0.12l0.418,0.025l0.281,0.188
		l0.653,0.696l0.37-0.064l0.263,0.187l0.252,0.02l0.202-0.062l0.368-0.241l0.253-0.008l0.146,0.077l0.276,0.276l0.104,0.021
		l0.16-0.522l0.16-0.072l0.02,0.167l-0.068,0.174l0.094,0.074l0.148-0.019l0.455-0.246l0.066-0.122l-0.082-0.281l-0.109-0.379
		l-0.01-0.424l0.082-0.049l0.272,0.17l0.297-0.226l0.15-0.046l0.021-0.097l-0.014-0.08l-0.272,0.033l0.12-0.375l-0.152-0.331
		l0.015-0.167l0.075-0.121l0.257-0.068l0.199,0.043l0.284,0.312l-0.071,0.456l-0.078,0.171l-0.075,0.166l0.163,0.06l0.123-0.232
		l0.55-0.197l0.055-0.06l-0.062-0.18l0.08-0.031l0.578,0.165l0.031-0.096l-0.185-0.219l-0.045-0.151l0.326-0.524l0.144-0.073
		l-0.1-0.137l-0.521-0.074l-0.379,0.081l-0.189-0.061l-0.122-0.252l0.069-0.394l0.228-0.22l0.219-0.025l0.177-0.248l0.121-0.595
		l0.222-0.308l0.229-0.229l0.115-0.039l0.218,0.036l0.199,0.254l0.36,0.606l0.038,0.354l0.142,0.182l0.086-0.02l0.039-0.486
		l0.205-0.291l0.031-0.148l-0.104-0.225l-0.276-0.312l0.066-0.121l0.241,0.107l0.059-0.155l-0.146-0.263l-0.259-0.106l-0.075-0.065
		l-0.021-0.115l0.283-0.279l0.06,0.038l0.009,0.211l0.101,0.093l0.28,0.021l0.166-0.215l-0.031-0.106l-0.185-0.185l-0.456-0.362
		l-0.14-0.465l-0.007-0.238l0.09-0.472l-0.026-0.212l-0.21-0.434l-0.144-0.13l-0.208-0.085l-0.097,0.055l-0.053,0.43l-0.107,0.049
		l-0.145-0.121l-0.165-0.447l-0.121-0.023l-0.118,0.278l-0.131,0.003l-0.149-0.219l-0.104-0.039l-0.222,0.088l-0.27-0.082
		l-0.254,0.016l-0.496-0.522l-0.173-0.086l-0.288,0.006l-0.266-0.153l-0.177-0.199l-0.312-0.517l-0.213-0.176l-0.154-0.068
		l-0.271-0.021l-0.222-0.132l-0.746-0.638l-0.29-0.17l-0.141-0.024l-0.178,0.09l-0.34-0.066l-0.301-0.153l0.135-0.109l0.329,0.119
		l0.396-0.055l0.148,0.032l0.422,0.26l0.236,0.146l0.378,0.43l0.224,0.105l0.464,0.019l0.187,0.157l0.23,0.362l0.375,0.279
		l0.167,0.193l0.193-0.045l0.286,0.081l0.529,0.569l0.146,0.058l0.098-0.021l0.003-0.274l-0.118-0.349l-0.126-0.746l-0.511-1.449
		l-0.269-0.312l0.029-0.077l0.105,0.014l0.312,0.295l0.133,0.596l0.238,0.551l0.187,0.234l0.052,0.205l-0.055,0.262l0.064,0.364
		l0.147,0.244l0.039,0.558l0.273-0.043l0.187,0.149l0.084-0.146l0.134-0.048l0.156,0.051l0.156,0.446l0.05-0.146l-0.019-0.195
		l0.074-0.103l0.227,0.036l0.153-0.117l0.176-0.01l0.201,0.22l0.177-0.028l0.169,0.158l0.195,0.36l0.13,0.041l0.875-0.108
		l0.273,0.088l0.385,0.024l0.144,0.104l0.084,0.303l-0.114,0.207l-0.028,0.281l-0.004,0.097l0.115,0.155l0.229,0.16l0.298-0.006
		l0.171-0.106l0.124-0.251l0.087-0.384l-0.003-0.353l-0.071-0.161l-0.178-0.141l-0.266-0.108l-0.138-0.271l-0.481-0.435
		l-0.076-0.242l0.041-0.174l0.094-0.119l0.167-0.02l0.085-0.138l0.243-0.175l0.009-0.211l0.085-0.137l0.893-0.57l0.28,0.021
		l0.162,0.147l0.123-0.003l0.127-0.101l-0.003-0.132l-0.132-0.2l0.079-0.199l0.185-0.117l0.112-0.072l0.173-0.565l0.276-0.12
		l0.412,0.019l0.125-0.057l0.111-0.735l0.143-0.268l0.489-0.154l0.074-0.103l-0.031-0.072l-0.185,0.001l-0.04-0.09l0.077-0.156
		l0.09-0.058l0.184,0.026l0.315-0.392l-0.028-0.16l0.187-0.062l0.288-0.34l-0.048-0.108l-0.194,0.045l-0.233-0.099l-0.165-0.219
		l0.091-0.085l0.24,0.126l0.177-0.027l0.058-0.095l-0.041-0.258l0.091-0.084l0.026-0.192l-0.646-0.295l-0.072,0.243l-0.131-0.015
		l-0.109-0.11l-0.031-0.08l0.19-0.326l-0.07-0.405l0.209-0.56l0.064-0.474l0.117-0.267l0.294-0.27l0.093-0.322l0.269-0.304
		l-0.036-0.188l0.099-0.207l0.315-0.382l0.37-0.803l-0.044-0.188l-0.321-0.05l0.04-0.147l0.146-0.117l0.09-0.64l0.255-0.606
		l0.515-0.479l0.116-0.25l-0.079-0.189l-0.185-0.008l-0.269,0.111l-0.291,0.005l-0.526-0.226l-0.516-0.322l-0.341,0.16l-0.192-0.018
		l-0.143-0.174l0.049-0.112l0.279,0.039l0.245-0.156l0.202,0.035l0.488,0.304l0.314,0.032l0.403-0.14l0.255-0.219l0.107-0.232
		l-0.056-0.32l0.114-0.383l-0.118-0.314l0.027-0.232l0.016-0.126l-0.054-0.17l-0.113-0.023l-0.117,0.048l-0.071,0.227l-0.386-0.053
		l-0.195-0.15l-0.023-0.08l0.083-0.084l0.564-0.204l0.48-0.102l0.066-0.103l-1.171-0.02l-0.052-0.098l0.13-0.166l0.177,0.155
		l0.193-0.012l0.17-0.101l0.27-0.061l0.035-0.144l-0.01-0.149l-0.317-0.139l-0.353-0.004l-0.129-0.063l0.233-0.094l-0.268-0.318
		l0.095-0.05l0.538,0.301l0.194-0.004l0.131,0.227l0.065,0.114l0.173,0.068l0.35-0.18l0.183-0.179l-0.157-0.131l0.317-0.135
		l0.112-0.174l0.217-0.059l0.038-0.09l0.049-0.347l-0.051-0.103l-0.564-0.035l-0.207,0.065l-0.341-0.084l-0.341,0.039l-0.207-0.134
		l-0.166,0.01l0.074-0.207l-0.019-0.175L125.216,35l0.2,0.234l1.149-0.08l0.156-0.035l-0.024-0.113l0.067-0.049l0.133,0.018
		l0.233-0.094l0.05,0.104l-0.156,0.309l0.065,0.357l0.083,0.074l0.221-0.577l-0.044-0.42l0.072-0.393l0.208-0.498l0.037-0.248
		l-0.488-0.05l-0.164,0.054l-0.426,0.38l-0.248-0.029l-0.139-0.089l-0.165-0.253l-0.192-0.12l-0.11-0.214l-0.131-0.678l0.075-0.076
		l0.279,0.529l-0.011,0.247l0.146,0.22l0.215,0.172l0.228-0.021l0.524-0.359l0.076-0.066l0.104-0.299l0.107,0.021l0.07,0.296
		l0.102,0.062l0.066-0.057l0.21-0.33l0.5-2.77l0.275-0.979l0.222-0.419l0.478-2.302l0.134-0.987l0.019-0.132l0.074-1.105
		l0.029-0.479l0.007-0.67l-0.011-0.748l-0.092-0.497l-0.117-0.626l-0.042-0.959l-0.181-0.482l-0.261-0.496l-0.075-0.048
		l-0.238,0.005l-0.305-0.202l-0.082,0.12l0.028,0.165l0.235,0.215l0.113,0.249l-0.02,0.257l0.076,0.092l0.203-0.003l0.087,0.118
		l-0.047,0.367l-0.043,0.326l0.089,0.127l0.109-0.228l0.09,0.004l0.179,0.456l0.043,0.359l0.108,1.217l0.036,0.819l-0.009,0.308
		l-0.076,0.267l-0.112,0.042l-0.11-0.062l-0.104,0.05l-0.12-0.073l-0.104,0.023l-0.04,0.065l0.033,0.112l0.279,0.211l-0.159,0.049
		l-0.025,0.147l0.04,0.2l-0.359,0.059l0.161-0.397l-0.031-0.078l-0.113,0.024l-0.203,0.173l-0.173-0.06l-0.122,0.307l-0.622-0.032
		l0.212-0.154l0.26-0.087l0.044-0.426l-0.163-0.077l0.169-0.116l0.336-0.012l0.122-0.227l0.044-0.084l0.211-0.029l0.128-0.221
		l0.296-0.097l0.131-0.157l0.004-0.521l-0.089-0.135l-0.259-0.037l-0.188,0.117l-0.728,0.133l-0.078,0.039l-0.12,0.201l-0.652,0.059
		l-0.426,0.555l-0.259-0.02l-0.268,0.396l-0.125-0.011l0.042-0.17l-0.018-0.123l-0.272,0.177l-0.214,0.025l-0.033-0.104l0.771-0.342
		l0.556-0.467l0.245-0.042l0.049-0.214l0.347,0.031l0.157-0.17l0.33-0.1l0.082-0.11l-0.052-0.262l0.23,0.153l0.8,0.039l0.093-0.085
		l0.033-0.161l-0.022-0.219l-0.133-0.292l-0.202-0.094l-0.338-0.023l-0.23-0.153l-0.393-0.021l-0.704-0.203l-0.331-0.182
		l-0.485-0.406l-0.103-0.087l-0.229-0.127l-0.745-0.139l-0.284-0.132l-0.343-0.252l-0.126-0.01l-0.272,0.184l-0.363,0.005
		l-0.271-0.088l-0.285-0.291l-0.32,0.681l-0.102,0.077l-0.229,0.015l-0.08,0.146l-0.177,0.003l0.097-0.289l-0.135-0.159
		l-0.563-0.343l-0.727-0.263l-0.123-0.098l-0.099-0.293l-0.255-0.089l-0.057-0.604l-0.393-0.151l-0.107-0.143l-0.053-0.174
		l-0.037-0.12l-0.24-0.002l-0.208,0.092l-0.272,0.573l-0.174,0.196l-0.225,0.085l-0.537,0.07l-0.162,0.249l-0.185,0.029l0.167-0.443
		l0.473-0.101l0.185-0.153l0.476-0.604l0.116-0.07l0.147-0.089l0.346-0.031l0.245,0.081l0.367,0.329l0.188,0.006l0.128-0.08
		l0.383-0.801v-0.282l-0.129-0.335l0.119-0.493l0.082-0.103l0.626-0.357l0.361,0.001l0.092-0.145l0.071-0.675l0.091-0.262
		l-0.089-0.277l-0.998,0.125l-0.57-0.157l-0.03-0.06l0.208-0.067l0.301,0.104l1.219-0.129l0.003-0.495l0.143-0.565l0.289-0.345
		l0.303-0.131l0.036-0.03l0.05-0.008l0.087-0.038l0.143-0.142l0.59-0.944l-0.102-0.196l0.264-0.043l0.128-0.087l0.044-0.144
		l-0.046-0.174l-0.232-0.162l-0.033-0.086l0.146,0.015l0.07,0.007l0.26,0.168l0.097-0.023l0.143-0.265l0.095-0.05l0.046-0.135
		l-0.064-0.596l0.139-0.608l0.073,0.172l-0.079,0.437l0.037,0.147l0.146,0.062l0.192-0.206l0.272-0.467l0.208-0.267l0.212-0.12
		l0.05-0.09l-0.036-0.063h-0.37l-0.047-0.096l0.133-0.431l0.001-0.274l0.195-0.576l0.248-0.456l0.341-0.259l0.137-0.22l0.684-0.05
		l0.095-0.059l0.07-0.171l-0.077-0.498l0.125-0.439l0.015-0.485l0.064-0.11l0.076,0.507l-0.125,0.421l0.034,0.686L127.72,6.31
		l-0.132,0.017l-0.556,0.121l-0.572,0.529l-0.272,0.493L126.1,7.775l0.045,0.297l-0.088,0.315l0.237,0.039l0.111,0.103l0.043,0.223
		l-0.063,0.127l-0.457,0.38l-0.13,0.334l-0.233,0.253l-0.042,0.33l0.148,0.247l-0.198,0.242l-0.033,0.328l-0.213,0.146l-0.784,1.323
		l0.073,0.09l0.842-0.037l0.205-0.068l0.144-0.002l0.283-0.14l0.086-0.174l-0.1-0.161l-0.32,0.011l-0.211-0.294l0.093-0.028
		l0.71,0.132l0.371,0.141l0.042-0.083l-0.076-0.111l-0.239-0.079l-0.516-0.017l-0.183-0.09l-0.041-0.104l0.058-0.065l0.594-0.045
		l0.12,0.072l0.132-0.018l0.09-0.12l-0.035-0.156l-0.299-0.22l0.094-0.217l0.088-0.023l0.149,0.114l0.144-0.133l0.253,0.223
		l0.104-0.201l0.095-0.042l0.248-0.306l0.394-0.112l-0.1-0.162l0.1-0.402l0.023-0.486l0.161-0.275l0.06-0.603l0.557-0.941
		l0.331-0.708l0.34-0.426l0.166-0.379l0.107-0.247l0.048-0.382l0.256-0.632l0.198-0.259l0.462-1.199l0.505-1.83l0.381-1.379
		l0.17-0.883v-0.02l-1.741-1.053l-5.249-3.035l-2.68-1.456l-2.04-1.169l-0.56-0.375l-1.712-1.023l-2.327-1.51l-7.016-4.201
		l-0.77,0.386l-0.279,0.054l-0.695-0.006l-0.189,0.223l-0.094,0.337l-0.239,0.25l-0.518,0.069l-0.177,0.111l-0.022,0.073l0.103,0.17
		l-0.006,0.133l-0.423,0.287l-0.153,0.192l-0.291,0.167l-0.242,0.255l-0.162,0.306l-0.084,0.076l-0.072,0.226l-0.162,0.322
		l0.037,0.193l-0.057,0.182l-0.061,0.083l-0.168,0.026l-0.073,0.059l-0.134,0.285l-0.011,0.152l-0.122,0.211l-0.037,0.168
		l0.194,0.21l0.036,0.125l-0.426,0.79l-0.24,0.681l-0.215,0.278l-0.305,0.285l-0.164,0.405l-0.438,0.507l-0.092,0.167l-0.236,0.184
		l-0.434,0.189l-0.057,0.084l-0.006,0.105l-0.484,0.359l-0.255,0.035L99.82-5.307l-0.314,0.64l-0.013,0.155l0.208,0.023l0.309-0.228
		l0.112-0.057l0.091,0.024l0.02,0.108l-0.068,0.22l-0.398,0.294l-0.363,0.101l-0.141,0.1l-0.199,0.246l-0.192,0.04l-0.13,0.424
		l-0.25,0.345l-0.023,0.081l0.021,0.178L98.23-2.496l-0.182,0.193l-0.883,0.505l-0.534,0.139l-0.206,0.237l-0.4,0.183l-0.043,0.075
		l-0.491,0.317l-0.122,0.153l-0.035,0.337L95.246-0.19l0.023,0.186l0.135,0.118l0.223-0.046l0.064,0.071l0.061,0.178l-0.022,0.212
		l0.04,0.197l0.18,0.188l0.164,0.325l0.04,0.17l0.274,0.427l0.48,0.395l0.095,0.264l0.022,0.495l0.643,0.79l0.064,0.132l0.014,0.175
		L97.68,4.31l-0.176,0.146l-0.037,0.119l-0.084,0.059L97.379,4.71l-0.074,0.072L97.162,4.79L96.99,4.694l-0.423,0.027l-0.143,0.081
		l-0.054,0.156L96.389,5.1l0.34,0.356l0.051,0.088l-0.004,0.129l-0.194,0.329l-0.183,0.154l-0.104,0.163l-0.018,0.303L96.05,6.958
		l-0.431,0.167L95.371,7.54l-0.086,0.084l-0.443-0.04L94.42,7.445L94.186,7.47l-0.12,0.186l-0.054,0.334l-0.047,0.09l-0.377,0.233
		l-0.141,0.162l-0.006,0.133l0.039,0.102l0.283,0.315l0.109,0.221l-0.117,0.224l0.009,0.159l-0.028,0.08"/>
	<path fill="#BDCCD4" d="M121.099,18.173l0.064,0.025l0.021-0.354l0.057-0.159l-0.063,0.077 M117.772,57.857l-0.147-0.024
		l-0.086,0.147l0.057,0.108l0.204,0.123l0.053,0.196l-0.085,0.35l0.038,0.125l0.089-0.014l0.087-0.226l0.245,0.011l0.524-0.206
		l0.135-0.268l-0.126-0.155l-0.226-0.053l-0.329,0.135l-0.218-0.035 M105.283,74.494l-0.158-0.65l-0.139-0.023l-0.082,0.333
		l-0.223-0.106l-0.014,0.141l0.138,0.279l0.171,0.06l0.178,0.387l0.155,0.023l0.214-0.134l0.047-0.096l-0.115-0.154"/>
</g>
</svg>
