<?xml version="1.0" encoding="utf-8"?>
<!-- Generator: Adobe Illustrator 16.0.4, SVG Export Plug-In . SVG Version: 6.00 Build 0)  -->
<svg version="1.2" baseProfile="tiny" id="Layer_1" xmlns="https://www.w3.org/2000/svg" xmlns:xlink="https://www.w3.org/1999/xlink"
	 x="0px" y="0px" width="153px" height="64px" viewBox="0 0 153 64" xml:space="preserve">
<title>US-Mainland</title>
<desc>Created with Sketch.</desc>
<g>
	<path fill="#BDCCD4" d="M139.494,11.329l0.641,0.097l0.354,0.244l0.1-0.023l0.12-0.183l-0.069-0.264l-0.025-0.048v-0.034
		l0.015-0.036l-0.083-0.183l-0.036-0.216l0.012-0.035v-0.054l0.055-0.193l-0.306-0.729l-0.218-0.291l-0.06-0.096l-0.07-0.059
		l-0.062-0.097l-0.068-0.049l-0.108,0.095l-0.197-0.047l-0.024-0.257l0.064-0.108h-0.035l-0.294-0.194l-0.03-0.051l-0.221-0.084
		l-0.158-0.07l-0.278-0.059l-0.29,0.012l-0.194,0.131v0.035l0.106,0.231l0.49,0.233l0.071,0.097l0.027,0.051l0.036,0.206
		l0.367,0.465l0.193,0.036l0.223,0.301l0.082,0.183l-0.011,0.247l0.05,0.01V10.7l0.024,0.099l-0.015,0.038l-0.01,0.036l0.024,0.086
		l-0.324,0.222 M144.524,17.563v-0.206l0.013-0.246l-0.207-0.744l-0.268-0.887l-0.137-0.533l-0.464-1.296l-0.148-0.317l-0.024-0.047
		l-0.034-0.051l-0.027-0.045l-0.424-0.722l-0.048-0.012l-0.108-0.023l-0.097,0.063l0.084,0.194l0.108,0.233l0.022,0.085l0.108,0.269
		l0.114,0.232l0.063,0.15l-0.016,0.206l0.061,0.293l0.146,0.498l0.06,0.29l0.116,0.194l0.088,0.184l0.024,0.05l0.064,0.149
		l0.182,0.278l0.192,0.669l0.112,0.608l0.059,1.251l-0.044,0.401l-0.069,0.366l-0.02,0.45l0.068,0.304l0.011,0.293l-0.097,0.85
		l-0.047,0.818l-0.064,1.023l-0.097,0.645l-0.072,0.73l-0.109,0.478l-0.053,0.826l-0.073,0.317l-0.024,0.119l-0.216,0.072
		l-0.328,0.137l-0.46,0.064l-0.074-0.051l-0.196-0.05l-0.049-0.013h-0.035l-0.009,0.074v0.155l0.009,0.138l-0.379,0.205v0.039
		l-0.043,0.021l-0.215,0.248l-0.147,0.057l-0.098,0.097l-0.496,0.179l-0.242-0.012l-0.146-0.107l-0.051,0.025l-0.079,0.022
		l-0.146,0.263l-0.083,0.024l-0.217,0.241l-0.196,0.121l-0.312,0.134l-0.267,0.074l-0.182,0.081v0.037l-0.704,0.183l-0.126,0.132
		l-0.196,0.171l-0.235,0.144l-0.136,0.062l-0.445,0.148l-1.146,0.671l-0.325,0.214l-0.308,0.219l0.289,0.404l1.531-0.948
		l1.095-0.642l0.377-0.243l0.099-0.026l0.169-0.051l0.183-0.086l0.453-0.145l1.205-0.567l0.79-0.399l0.545-0.217l0.659-0.148
		l0.428-0.076l0.351,0.076l0.207,0.047h0.034l0.168-0.205l0.036-0.195l-0.01-0.129l0.047-0.197l0.052-0.244l0.026-0.074l0.011-0.082
		l0.011-0.036l0.171-1.372l0.206-1.945l0.043-0.109l0.011-0.253l0.143-2.044l0.038-1.521v-0.341l0.027-0.11l-0.024-0.51"/>
	<path fill="#BDCCD4" d="M133.618,20.581l0.024-0.073l-0.084-0.182v-0.208l0.216-0.412l0.063-0.109l0.107-0.096l0.611-0.159
		l0.168-0.221l-0.02-0.255l0.057-0.108l0.209-0.365l0.557-0.294l0.195-0.132l0.207,0.218l0.343,0.145l0.862-0.139l0.438-0.16
		l0.012-0.038l-0.056-0.304l0.214-0.207l0.012-0.075l0.053-0.035l0.146-0.097l0.147-0.084l0.054-0.04l0.34-0.463l0.01-0.039
		l-0.197-0.256l0.031-0.074l-0.063-0.135l-0.075-0.234l-0.023-0.462l0.586-0.624l-0.011-0.125l-0.063-0.269l-0.062-0.099
		l-0.034-0.048l-0.121-0.595l-0.009-0.097l-0.025-0.086l-0.279-0.642l-0.074-0.052l-0.021-0.046l-0.012-0.171l0.123-0.351
		l0.083-0.561l-0.024-0.292l-0.195-0.463l-0.337-0.314l-0.146-0.487l0.054-0.206l-0.412-0.583l-0.281-0.439l-0.072-0.257
		l-0.033-0.218l-0.401-0.205l-0.122-0.245l-0.098-0.137l-0.905-0.405l-0.256-0.013l-0.071-0.01l-0.34,0.01l-0.423,0.074l-0.826,0.4
		l-0.156,0.133l0.016,0.119l0.073,0.059l0.118,0.026l0.269,0.304l-0.015,0.206l-0.045,0.074l-0.098,0.023l-0.257,0.228l-0.326,0.549
		l-0.047,0.069l-0.269,0.071l-0.462-0.144l-0.12-0.023l-0.154-0.245l-0.219-0.545l0.097-0.596l-0.024-0.095l-0.23-0.293
		l-0.874-0.526l-0.434,0.108l-0.245-0.051l-1.545,0.07l-0.255,0.036l-0.79,0.157l-1.264,0.508l-0.95,0.751l-0.145,0.047l-0.341,0.05
		l-0.354,0.047l-0.112,0.018l-0.073-0.047l-0.4-0.463l0.012-0.24l-0.205-0.219l-0.187-0.074l-1.345,0.452l-0.266,0.279l-0.498,0.184
		l-0.226,0.11l-0.185,0.085l-0.267,0.109l-0.56,0.086l-0.292,0.023l-0.428,0.025l-0.35,0.095l-0.097,0.059l-1.06,0.096l-0.217,0.075
		l-0.122-0.023l-0.4-0.245l-0.031-0.011l-0.133-0.196l-0.053-0.303l0.1-0.266l0.181-0.255l0.137-0.253l-0.123-0.195l-0.023-0.252
		l0.259-0.27l0.011-0.024l0.046-0.048l0.327-0.388l0.449-0.11h0.367l0.267,0.097l0.194,0.292l0.133,0.149l0.196,0.218l0.122,0.022
		l0.266-0.108l0.342-0.013l0.73,0.074l0.01-0.035l0.437-0.315l0.722-0.218l0.009-0.086l0.122-0.338l0.183-0.085l0.441-0.533
		l0.16-0.293l0.049-0.074l0.024-0.073l0.044-0.035l1.129-0.292h0.378l0.108,0.058l0.221-0.035l0.387-0.244l0.09-0.231l0.225-0.121
		l0.052,0.012l0.462-0.063l0.583,0.171l0.495,0.023l0.522-0.343l-0.037-0.183l0.05-0.072l0.118-0.134L127.887,4l1.352-0.328
		l0.52-0.095l0.449-0.162l0.147-0.137l0.075-0.146V3l-0.161-0.231l0.035-0.159l0.009-0.086l0.261-0.193l0.093-0.062l0.295-0.181
		l0.293-0.024l0.073,0.061l0.45,0.184l1.275,0.266l0.282,0.024l0.083-0.027l0.343-0.013l0.388,0.086l0.283,0.059l0.11,0.074
		l0.037,0.047l0.023,0.045l0.072,0.253l-0.038,0.361l0.486,0.642l0.282,0.229l0.799,0.5h0.174V4.65l0.011-0.075l-0.245-0.801
		l-0.316-0.606l-0.241-0.268l-0.047-0.292l-0.216-0.342l-0.074-0.064l-0.062-0.097l-0.046-0.376l-0.024-0.05l0.011-0.039
		l0.025-0.159l-0.025-0.05l-0.208-0.376l-0.214-0.137l-0.173-0.377l-0.072-0.424l0.084-0.388v-0.38l-0.109-0.11l-0.18,0.086
		l-0.197-0.038l-0.126-0.242l-0.106-0.269l-0.108-0.399l-0.487-0.854l-0.076-0.05l-0.118-0.194v-0.208l0.045-0.207l0.043-0.193
		l0.037-0.125v-0.033l-0.244-0.962l-0.112-0.069l-0.012,0.047l-0.071-0.024l-0.071,0.158l-0.076,0.111l-0.254,0.024l-0.048,0.023
		l-0.159,0.013l-0.441-0.475h-0.206l-0.312-0.11l-0.172-0.159l-0.186-0.291l-0.324-0.612l0.071-0.315l0.088-0.194l0.084-0.062
		l0.183-0.037l0.132-0.062l0.732,0.281l0.269-0.062l0.51,0.108l0.208,0.171l0.081,0.012l0.15-0.085l0.084-0.024l0.12,0.024
		l0.109,0.062l0.035,0.012l0.216,0.543l0.089,0.511l0.226,0.136l0.343,0.12l0.293,0.39l0.025,0.05v0.789l0.044,0.132l0.088,0.184
		l0.119,0.022l0.171,0.206l0.108,0.439v0.206l-0.196,0.293l-0.046,0.607l0.187,0.292l0.106,0.058l0.208,0.013l0.226,0.124
		l0.175,0.705l-0.063,0.315l0.021,0.085l0.197,0.218l0.097,0.143l0.11,0.059l0.038,0.05l0.193,0.256l0.208,0.376l0.52,1.235
		l0.122,0.35l0.021,0.252l0.039,0.048v0.206l0.191,0.79l0.121,0.448v0.156l0.039,0.05l-0.047,0.206l0.012,0.12l0.037,0.217
		l0.065,0.137l0.035,0.011l0.07,0.012l0.138-0.012l0.027,0.052l0.084,0.012v0.17l-0.063,0.28l-0.011,0.281l0.12,0.194l0.829,0.183
		l0.117,0.023l0.077,0.062l0.063,0.096l0.028,0.048h0.038l-0.015,0.046l0.097,0.133l0.291,0.193l0.135,0.108l0.456,0.636l0.24,0.39
		l0.098,0.314l0.034,0.218l-0.044,0.159l0.017,0.162l-0.024,0.119l0.428,0.513l0.02,0.087l0.295,0.559l0.072,0.059l0.29,0.355
		l0.041,0.01l0.172,0.367v0.035l0.158,0.206l0.134,0.147l0.036,0.047l0.146,0.241v0.034l0.073,0.195l0.145-0.059l0.071-0.143V12.06
		l-0.024-0.051l-0.117-0.193l-0.035-0.049l-0.258-0.512l-0.056-0.097l-0.271-0.682l-0.169-0.365v-0.048l-0.025-0.05l-0.081-0.039
		l-0.411-0.807l-0.92-1.651l-0.025-0.085l-0.027-0.052l-0.243-0.427l-0.148-0.281l-0.032-0.048l-0.319-0.606V5.981l-0.182-0.294
		l-0.313-0.435l-0.049-0.131l-0.045-0.014l-0.329-0.571l-0.362-0.617l-0.183-0.331l-0.227-0.464l-0.063-0.096l-0.157-0.411
		l-0.072-0.051l0.011-0.047l-0.031-0.036l-0.509-1.238l-0.319-0.642l-0.029-0.047l-0.015-0.133l-0.307-0.73l-0.081-0.184
		l-0.221-0.497l-0.169-0.538l-0.403-1.253l-0.459-1.544l-0.04-0.184l-0.595-2.031l-0.291-1.326l-0.291,0.027l-0.05-0.013
		l-0.085,0.024l-0.121,0.011l-0.05-0.011l-0.155,0.011l-0.048,0.024l-0.04-0.012h-0.047l-0.049,0.023h-0.076l-0.242-0.007
		l-0.641,0.058h-0.042l-0.045,0.03l-0.038-0.013l-1.47,0.098h-0.208l-1.9,0.137l-0.584,0.035l-0.926,0.047l-0.885,0.046
		l-1.729,0.137l-1.348,0.074l-0.244-0.011l-1.677,0.097l-0.553,0.052l-0.7,0.057l-0.393,0.035l-0.717,0.012l-1.251,0.047
		l-0.802,0.081l-0.964,0.041l-0.496,0.011l-0.258,0.024l-0.137,0.023h-0.539l-0.558,0.051l-1.998,0.062h-0.378l-0.01,0.049
		l0.01,0.159l0.025,0.051l-0.122,0.011h-0.048l-1.922,0.074l-1.219,0.07l-0.241-0.011l-0.343,0.011l-0.052,0.023l-0.123,0.024
		l-0.464,0.023l-0.598,0.036l-0.264-0.059l-0.123-0.023l-0.436,0.07l-0.344,0.049l-0.418,0.048h-0.58L102.98-5.9l-0.391,0.038
		l-1.249,0.061l-0.874,0.012l-1.303,0.097l-0.507,0.01l-0.031-0.01l-1.68,0.095l-0.157-0.039l-0.086,0.027h-0.205l-1.059,0.065
		l-0.582,0.038l-1.421,0.062l-0.242-0.011l-0.34,0.011h-0.043l-2.19,0.146l-0.133,0.01H90.33l-0.088-0.01l-0.29,0.01L86.934-5.14
		l-0.125,0.015l-1.291,0.05h-0.205l-0.294,0.013l-0.097,0.024l-1.407,0.022l-0.788,0.039H82.52l-0.053,0.024h-0.378l-1.058,0.061
		h-0.234l-1.284,0.048l-1.147,0.086l-0.083-0.023l-0.296,0.023l-0.08,0.025l-0.283-0.026L77.612-4.72l-0.124-0.023L77.406-4.72
		l-0.629,0.023L76.351-4.66l-0.083,0.024L76.146-4.66l-1.215,0.063H74.36l-0.086-0.013l-0.583,0.036l-0.046-0.012l-0.161,0.012
		h-0.171l-1.372,0.035l-0.498,0.013l-0.173,0.01l-0.048,0.023l-0.122-0.023l-0.252,0.023l-0.207-0.012h-0.036l-1.131,0.048
		l-0.499,0.012l-0.671,0.023l-0.254,0.036l-0.035-0.012l-0.087-0.024l-0.496,0.026l-0.465,0.023l-0.136,0.012l-0.034-0.012
		L66.63-4.359L65.002-4.3l-1.494,0.051l-0.057-0.01l-0.24-0.013l-1.079,0.051h-0.381l-0.083-0.011v0.035l-0.085-0.011l-0.12,0.011
		L60.796-4.17l-0.304,0.01l-1.698,0.049L58.34-4.122l-0.592,0.039H57.54l-0.874,0.012l-0.084,0.023L56.546-4.06h-0.413l-0.097,0.012
		l-0.535,0.011l-0.037-0.011l-0.295,0.024h-0.166l-0.087-0.012L53.13-4.011l-0.051,0.038l-0.486-0.024l-0.801,0.034L51.75-3.974
		l-0.996,0.034h-0.375l-0.086-0.023l-0.791,0.039l-0.083-0.012h-0.157l-0.548,0.012l-0.459,0.023l-0.207-0.011h-0.577l-0.462-0.013
		l-0.253,0.023l-0.12,0.027l-0.136,0.013l-0.208-0.013l-0.994,0.04l-0.036-0.012h-0.411l-0.134,0.012h-0.743l-0.549,0.011
		l-0.241-0.011l-0.705,0.011l-0.085,0.023l-0.459-0.026l-1.035,0.024h-0.047l-0.034-0.011h-0.207l-0.206-0.014L39.7-3.814h-0.037
		l-1.458,0.01h-0.604l-0.314-0.022l-0.254-0.011l-0.658-0.026l-0.073-0.011L35.22-3.898L35.183-3.91h-0.168l-0.851-0.062
		L33.51-3.983l-0.619-0.013l-0.46-0.013l-0.07-0.025h-0.413l-0.606-0.049L31.036-4.07L30.88-4.11l-0.452-0.012h-0.413l-0.485-0.024
		L29.445-4.17l-0.121,0.011l-0.542,0.013l-0.328,0.011L27.858-4.1l-0.034-0.013H27.41l-0.033-0.012l-0.133,0.012l-0.037-0.012
		h-0.033l-0.39,0.035l-0.291,0.024l-0.036-0.011l-1.323-0.035l-0.04-0.012h-0.036l-0.913-0.038L24.11-4.173l-0.704,0.011
		L23.27-4.135l-0.411-0.011l-0.161-0.04l-1.022-0.047l-0.072-0.023l-0.131,0.013l-0.328,0.01l-0.416-0.046l-0.157,0.012l-0.326-0.04
		h-0.207l-0.039-0.012l-0.132,0.024l-0.12-0.035l-0.047,0.039l-0.073-0.012l-0.364-0.046L19.14-4.372L18.602-4.36L18.54-4.392
		L18.209-4.38l-0.657-0.011l-0.206-0.014L17.26-4.418h-0.17l-0.815-0.049l-0.331,0.011l-0.668,0.025l-0.461-0.022l-1.446-0.024
		h-0.04l-0.034-0.011l-0.281-0.064l-0.4-0.045l-0.265,0.069l-0.159-0.035l-0.072-0.011l-0.464-0.023L11.372-4.61L9.953-4.758
		L8.296-4.782L8.234-4.707L8.222-4.634l0.024,0.086l0.049,0.132L8.286-4.369v0.04L8.234-4.294L8.222-4.256l-0.12,0.012L8.018-4.256
		L7.97-4.232L7.958-4.191L7.947-4.107L8.007-4.01l0.024,0.086l-0.024,0.12L7.91-3.741L7.852-3.633L7.818-3.477L7.794-3.403
		L7.638-3.392L7.603-3.268l0.023,0.12l0.022,0.051L7.712-3l0.051,0.012l-0.012,0.04l0.046,0.132v0.035l0.023,0.05l0.026,0.097
		l0.025,0.088L7.86-2.512L7.797-2.438L7.785-2.364l0.039,0.012L7.86-2.301l0.023,0.049v0.035L7.86-2.135L7.872-2.01L7.86-1.758
		h0.047l0.027,0.051L7.91-1.586L7.898-1.547L7.852-1.509v0.035l-0.046,0.04L7.757-1.447L7.626-1.396L7.481-1.264l0.024,0.086
		L7.481-1.092l0.024,0.086L7.494-0.921L7.481-0.885L7.472-0.85l0.022,0.085L7.482-0.719L7.42-0.61l0.026,0.084l-0.07,0.144
		L7.365-0.33L7.158-0.174L7.061-0.112L6.976-0.049L6.941,0.07l0.023,0.135l0.012,0.122l0.109,0.059l0.027,0.048L7.148,0.48
		L7.136,0.526h0.036v0.05l-0.04,0.16L7.108,0.81v0.036l-0.01,0.05l0.039,0.051l0.133,0.147L7.281,1.23l0.023,0.087L7.281,1.39
		l0.023,0.097l0.039,0.051l0.062,0.051l0.125,0.022L7.628,1.72l0.036,0.051l0.035,0.047L7.675,1.892L7.664,1.942L7.649,2.011
		l-0.12,0.013L7.456,1.972l-0.11-0.073L7.26,1.888L7.139,1.865L7.065,1.838L6.979,1.861L6.934,1.895L6.834,1.917L6.785,1.945
		L6.71,1.934L6.665,1.957H6.629L6.546,1.934L6.509,1.922H6.475L6.389,1.899l-0.07-0.047l-0.172-0.12L6.074,1.668L5.992,1.659
		L5.918,1.634L5.895,1.55L5.86,1.539L5.825,1.488L5.763,1.39h-0.04L5.638,1.366L5.626,1.401L5.494,1.498L5.397,1.562L5.163,1.634
		L4.958,1.668L4.761,1.802L4.665,1.865L4.569,1.922L4.519,1.945L4.471,1.986L4.42,2.008L4.273,2.107L4.101,2.325L4.04,2.434
		L3.981,2.496L3.924,2.57L3.779,2.703L3.596,2.754l-0.07-0.025L3.319,2.902L3.063,3.3L2.771,3.896L2.635,4.111L2.148,4.844
		L1.929,5.293L1.81,5.474L1.517,6.035L1.311,6.397l-0.387,0.67L0.86,7.175L0.717,7.467l-0.011,0.05L0.683,7.626L0.636,7.667
		L0.577,7.74L0.504,7.718H0.456L0.319,7.596l-0.085-0.01L0.113,7.561L0.062,7.635l0.013,0.123l-0.122,0.185l-0.131,0.012
		l-0.269,0.143h-0.012v0.038l-0.12-0.022l-0.258,0.035l-0.085-0.024L-0.98,8.063l-0.096,0.022l-0.047,0.039l-0.097,0.059
		l-0.039-0.011h-0.207L-1.54,8.111h-0.033l-0.052-0.183l-0.086-0.184l0.024-0.086L-1.7,7.504L-1.773,7.32l-0.023-0.096l-0.058-0.132
		L-1.9,6.959l-0.04-0.012l-0.148,0.063l-0.12,0.013H-2.38l-0.085,0.026l-0.012,0.035L-2.523,7.12l-0.074-0.013L-2.684,7.12V7.084
		l-0.036-0.01l-0.07-0.051l-0.07-0.064l-0.072-0.012l-0.111-0.073l-0.023-0.081l-0.07-0.058l-0.159-0.022L-3.33,6.7l-0.133,0.013
		l-0.051,0.032l-0.046,0.064l-0.024,0.119l-0.075,0.109l-0.097,0.109L-3.802,7.17l-0.051,0.035l-0.016,0.038l-0.085,0.024
		l-0.023,0.075l-0.047,0.073l-0.05-0.012v0.05l-0.121-0.035l-0.034-0.035l-0.04-0.013l-0.083,0.025l-0.062,0.06L-4.462,7.53
		l-0.097,0.025l-0.04-0.01l-0.022-0.05h-0.048l-0.085,0.022l-0.037-0.013l-0.135-0.157h-0.035l-0.047-0.013l-0.164,0.046
		l-0.097,0.057l-0.096,0.063L-5.43,7.577l-0.183,0.119L-5.709,7.72l-0.087,0.013l-0.058,0.072l-0.074-0.012l-0.097,0.062h-0.206
		l-0.036-0.011l-0.038-0.051l-0.133,0.051l-0.108,0.11v0.038L-6.683,8.04L-6.78,8.062l-0.046,0.038l-0.035-0.01l-0.062,0.073v0.04
		l-0.059,0.072L-7.12,8.328l-0.086,0.022l-0.303,0.234l-0.109,0.096v0.036l-0.147,0.269l-0.172,0.257l-0.758,1.414l-0.063,0.057
		l-0.084,0.023l-0.208,0.208l-0.182,0.052v0.039l-0.024,0.069h-0.039l-0.012,0.034l-0.035-0.013l-0.05,0.107h-0.05l-0.157,0.171
		l-0.113,0.096l-0.051,0.036l-0.132,0.044l-0.074-0.01l-0.035-0.011l-0.051,0.036l-0.051,0.023l-0.184,0.047l-0.096,0.057
		l-0.086,0.024l-0.034-0.01l-0.051,0.035l-0.148,0.084l-0.058,0.111l-0.136,0.183l-0.183-0.085l-0.193-0.077l-0.036-0.01
		l-0.012-0.136l-0.074-0.051l-0.246-0.012l-0.048,0.026l-0.136,0.014l-0.162-0.023l-0.037-0.011l-0.023-0.048l-0.024-0.086
		l0.012-0.086l0.097-0.268l0.062-0.074l-0.05-0.132l-0.121-0.024l0.014-0.038l-0.063-0.138l0.023-0.121l0.057-0.072l0.024-0.124
		l0.039,0.013l0.087-0.195l0.107-0.096l0.097-0.097l-0.024-0.098l0.012-0.035l0.011-0.036l-0.074-0.06l-0.062-0.097l-0.035-0.048
		l-0.062-0.047l-0.06-0.096l-0.12-0.023l-0.098-0.039l-0.012-0.121l0.027-0.086V9.372l-0.04-0.01l-0.17-0.161l-0.109-0.108
		l-0.109-0.024l-0.143,0.098l-0.063,0.073l-0.062,0.062l-0.133,0.061l-0.034-0.011l-0.121,0.011l-0.096,0.061l-0.098,0.06
		l-0.229,0.12l-0.05,0.036l-0.027,0.074l-0.061,0.11l-0.28,0.107l-0.048,0.022l-0.085,0.075l-0.046,0.026l-0.051-0.012l-0.087,0.025
		l-0.011,0.049l0.023,0.086v0.035l-0.246,0.109h-0.034l-0.086,0.026l-0.389,0.28l-0.097,0.061l-0.121-0.023l-0.13,0.063l-0.264,0.04
		l-0.046,0.024v0.047l-0.036,0.122l-0.048,0.059l-0.057,0.076l-0.013,0.244l0.062,0.097l0.039,0.013l0.052,0.012h0.038l0.038,0.046
		l-0.084,0.156l-0.083,0.024l-0.046,0.024v0.034l-0.024,0.086l-0.034,0.194l-0.014,0.036l-0.289,0.193l-0.109,0.132l-0.013,0.047
		l0.039,0.046l0.05,0.132l-0.011,0.035l-0.046,0.035l-0.085,0.013h-0.078l-0.109,0.095l-0.135,0.047l-0.023-0.039l-0.047-0.183
		l-0.061-0.096l-0.048-0.012l-0.062-0.047l-0.144-0.121l-0.035-0.051l-0.172-0.159l-0.058-0.062l-0.185,0.046l-0.193-0.085
		l-0.024-0.047l-0.086-0.011l-0.183,0.085l-0.193,0.12l-0.121,0.012h-0.034l-0.047,0.195l0.012,0.172l-0.047,0.022l-0.012,0.035
		l-0.049,0.035l-0.087-0.01l-0.047,0.023l-0.023,0.12l0.039,0.047l-0.012,0.035l-0.011,0.035v0.051l-0.013,0.036l0.036,0.01
		l0.084,0.183l0.074,0.253l0.012,0.132l0.036,0.046l-0.012,0.04l-0.051,0.036l-0.012,0.034l-0.011,0.035l0.074,0.097l0.038,0.01
		l-0.011,0.036l0.022,0.086l-0.011,0.081l-0.011,0.041l-0.035-0.012l-0.051,0.035l-0.097,0.061l-0.182,0.086l-0.047,0.037
		l-0.036,0.108l-0.011,0.257l0.051,0.17l-0.011,0.084l-0.047-0.01l-0.05,0.074l-0.049,0.022l-0.035-0.012l-0.097,0.07l-0.024,0.076
		l-0.106,0.143l-0.134,0.048l-0.051,0.035l-0.132,0.217l-0.07,0.15l-0.012,0.038v0.038l-0.062,0.064l-0.011,0.05l-0.062,0.062
		l-0.024,0.17l0.024,0.039l-0.048,0.038V16.3l-0.131,0.012l-0.097,0.074l-0.109,0.131l-0.11,0.111l-0.193,0.12l-0.086,0.023
		l-0.12-0.039l-0.086-0.133l-0.12-0.038l-0.113-0.062l-0.194-0.038l-0.123-0.076l-0.11-0.023l-0.086-0.011l-0.057,0.061h-0.041
		l-0.04-0.01l-0.034-0.051l-0.107-0.059l-0.121,0.012l-0.062,0.074l-0.074-0.023l-0.155-0.04l-0.039-0.046l-0.121,0.023
		l-0.143,0.085l-0.012,0.034l-0.253,0.207v0.039l-0.034-0.01l-0.047,0.035l-0.051-0.011v0.035l-0.146,0.063l-0.087,0.012
		l-0.145,0.095l-0.155-0.039l-0.424,0.075l-0.132,0.01l-0.11-0.023l-0.047,0.039l-0.073,0.108l-0.05,0.024l0.022,0.096l-0.132,0.219
		v0.041l-0.135,0.045l-0.073,0.11l-0.024,0.121l-0.109,0.146l-0.05-0.01l-0.229,0.12l-0.036-0.012l-0.073-0.012l-0.218,0.035
		l-0.086-0.023l-0.023-0.051l-0.086,0.024h-0.206l-0.156-0.041l-0.073,0.11l-0.183,0.086l-0.109,0.095v0.047l0.024,0.035
		l0.024,0.098l-0.062,0.073l-0.011,0.074l0.035,0.048v0.171l-0.035-0.01l-0.013,0.038l-0.011,0.086l-0.062,0.07l-0.04-0.01
		l-0.047,0.023l-0.097,0.074l-0.074,0.11l-0.097,0.061l-0.12,0.012l-0.148,0.097l-0.062,0.061l-0.026,0.121l-0.036,0.161
		l-0.097,0.109l-0.047,0.024l-0.05,0.038l-0.183,0.036h-0.037l-0.137-0.159l-0.062-0.098l-0.319-0.071l-0.06,0.069l-0.183,0.086
		l-0.062-0.046l-0.048,0.023l-0.062,0.073l-0.022,0.073l-0.012,0.086l-0.012,0.036l-0.047,0.073l-0.011,0.035l-0.173,0.219
		l-0.033-0.012l-0.052-0.01h-0.038l-0.04-0.013l-0.062,0.073l-0.052,0.064h-0.207l-0.011,0.04l-0.084,0.192l-0.098,0.063
		l-0.133,0.062l-0.086,0.011l-0.097,0.062l-0.195,0.137l-0.01,0.04l-0.035-0.011l-0.171,0.048l-0.047-0.014l-0.194-0.034
		l-0.119-0.023l-0.025,0.108l-0.108,0.148l-0.075,0.111l-0.16,0.168l-0.218,0.038v0.036l-0.022,0.087l-0.051,0.022l-0.085,0.025
		l-0.013,0.047l0.023,0.083l-0.046,0.07l-0.097,0.217l-0.12,0.022l-0.143,0.087l-0.464-0.01l-0.062-0.064l-0.304,0.024l-0.11-0.024
		l-0.05-0.012l-0.208,0.037l-0.169,0.011l-0.148-0.085l-0.134,0.026l-0.097,0.064l-0.12,0.009l-0.084-0.022h-0.035l0.01-0.083
		l-0.167-0.16l-0.132-0.157l-0.07-0.01l-0.086-0.029l-0.143,0.138l-0.33,0.183l-0.041-0.05l-0.083,0.023l-0.048,0.023l-0.046,0.039
		l-0.138,0.013l-0.147-0.073l-0.12-0.024l-0.052,0.024l-0.058-0.049l-0.085-0.022l-0.122,0.011l-0.085-0.011l-0.171,0.046
		l-0.291-0.024l-0.086,0.024l-0.038-0.013l-0.085-0.011l-0.316,0.136l-0.051,0.038l-0.194-0.051l-0.074-0.05l-0.314,0.095
		l-0.147-0.072l-0.051,0.021l-0.137,0.05l-0.158-0.022l-0.024,0.109l-0.167,0.183l-0.147,0.087l-0.315,0.144l-0.159,0.13
		l-0.011,0.074l-0.39,0.24h-0.034l-0.085-0.022l-0.184,0.082l-0.171,0.049l-0.119-0.022l-0.036-0.014l-0.085-0.011h-0.2
		l-0.133,0.011l-0.168,0.049l-0.048,0.035l-0.024,0.105l-0.183,0.258l-0.051,0.037l-0.051,0.022l-0.159,0.139l0.048,0.01
		l-0.012,0.036l-0.015,0.038v0.04l-0.098,0.071l-0.074,0.111l-0.023,0.108l-0.063,0.121l-0.097,0.059l-0.051,0.025l-0.035-0.013
		l-0.086-0.013l-0.073-0.012l-0.05,0.024l-0.148,0.061l-0.144,0.087v0.035l-0.147,0.098l-0.085,0.022l-0.039-0.05l-0.075-0.062
		l-0.051,0.033v0.041l-0.022,0.086l-0.063,0.107l-0.035-0.011l-0.085-0.011l-0.05,0.025l-0.013,0.035l-0.023,0.121l-0.12,0.01
		l-0.121,0.146l-0.183,0.12l-0.109,0.109l-0.012,0.073l-0.034,0.119v0.04l-0.06,0.072l-0.085,0.024l-0.109,0.136l-0.109,0.109
		l-0.05,0.024l-0.086,0.022l-0.023,0.087l0.023,0.083l0.059,0.1v0.031l0.074,0.014l0.121,0.194l0.035,0.047l-0.062,0.073
		l-0.012,0.035v0.051l0.024,0.049l0.023,0.082l0.011,0.174l-0.011,0.032l-0.16,0.169l-0.121,0.142l-0.013,0.036l-0.062,0.109
		l-0.037-0.012l-0.232,0.072l-0.051,0.041v0.035l0.098,0.316l0.035,0.009l0.027,0.086l-0.013,0.075l-0.049,0.037l-0.013,0.039
		l-0.012,0.034l-0.039,0.206l-0.037,0.154h0.037l0.108,0.076l0.087,0.01l0.072,0.234l-0.035,0.154l-0.097,0.062l-0.039-0.012
		l-0.161,0.134l-0.136,0.255l-0.258,0.19l-0.048,0.077l-0.184,0.047l-0.137,0.048l-0.12,0.009l-0.098,0.063h-0.048v0.039
		l-0.012,0.032l-0.012,0.051l-0.05,0.022l-0.149,0.137l-0.05,0.036l-0.051,0.023l-0.035-0.012l-0.085-0.017l-0.038-0.011
		l-0.121-0.024l-0.086,0.028l-0.051-0.014l-0.024-0.047l-0.132,0.014l-0.085,0.023l-0.012,0.084l-0.012,0.035l-0.051,0.035
		l-0.038-0.012l-0.086,0.022l-0.039-0.044l-0.074-0.062l-0.074-0.014h-0.169l-0.121,0.014l-0.05,0.033l-0.05,0.024h-0.04
		l-0.158-0.039l-0.038-0.011l-0.144,0.097l-0.011,0.038l-0.24-0.013l-0.075-0.063l-0.159-0.023l0.011-0.045l-0.074-0.053
		l0.012-0.253l-0.074-0.05l0.012-0.035l-0.133-0.157l-0.109-0.061l-0.16-0.033l-0.086,0.021l-0.096,0.064l-0.182,0.291l-0.051,0.023
		l-0.229,0.121l-0.098,0.062l-0.071,0.111l-0.331,0.167l-0.171,0.219l-0.035-0.013l-0.098,0.062h-0.04l-0.062,0.473l-0.078,0.676
		l-0.039,0.402l-0.234,1.24l-0.084,0.766l-0.036,0.368l-0.039,0.205l-0.145,1.015l-0.036,0.191l-0.023,0.124l0.027,0.05
		l-0.148,0.874l1.36,0.047l0.62,0.01l0.365-0.01l0.207,0.052l0.05-0.042l0.521,0.038l0.779,0.05l0.342-0.013l0.743,0.033l0.159-0.01
		l1.328,0.038l0.208,0.012l0.326,0.023h0.95l0.572,0.033h0.959l0.401,0.048h0.378l0.624,0.012l0.072,0.01h0.584l0.207,0.013
		l0.377-0.013l0.52,0.039h0.564l0.073,0.012l0.086,0.013l2.187,0.065l-0.024-0.123l0.464-0.02l1.117,0.02l1.447,0.03l2.239-0.013
		h0.342l0.281,0.013l0.085,0.021l0.331-0.01h0.035l0.253-0.023h0.751l1.12-0.012l0.876-0.012l0.038,0.012l0.136-0.012l1.814,0.012
		l1.166-0.367l0.453-0.156l0.387-0.073l0.184-0.087l0.047-0.031l0.17-0.05l2.296-0.649l1.957-0.574l0.486-0.182l0.085,0.012
		l0.036,0.012l0.086,0.017l0.023,0.096l-0.027,0.112l-0.024,0.084l-0.046,0.023l0.036,0.049l-0.012,0.05l-0.06,0.067l0.086,0.021
		l0.023,0.053l0.051-0.036l0.136-0.01l0.097-0.059h0.161l0.098-0.023l0.062-0.108l-0.024-0.098l0.047-0.026l0.051-0.035l0.121,0.023
		l0.086-0.014l0.074-0.118l0.096-0.099l0.012-0.038l0.01-0.036v-0.045l0.063-0.061l0.084-0.026l0.039,0.047l0.109,0.026l0.194-0.124
		l0.098-0.022h0.038l0.035,0.011l0.034,0.012l0.05-0.037l0.046,0.01l0.074-0.142l0.047-0.04v-0.034l-0.022-0.089l-0.024-0.046
		l-0.035-0.044l0.013-0.053l0.012-0.032l0.05-0.076l0.05-0.025l0.011-0.034l0.024-0.087l0.038-0.023l0.05-0.032l0.051,0.011
		l0.073,0.01l0.035,0.049l0.024,0.086l0.022,0.049l0.04,0.014h0.17l0.086-0.024l0.097-0.062l0.062-0.075l0.062-0.074l0.086-0.021
		l0.035,0.011l0.05-0.038l0.04,0.019l0.047,0.013l0.026,0.052h0.04l0.046,0.014l0.073,0.009l0.058-0.058l0.062-0.074l0.059-0.104
		l0.084-0.025l0.052-0.035l0.051-0.025l0.085-0.022l0.139-0.02l0.11,0.062l0.132-0.052l0.109-0.108l0.039,0.012l0.074,0.025h0.051
		l0.034,0.012l0.135-0.049l0.048-0.042l0.062-0.07l0.013-0.073l0.052-0.039l0.084,0.024h0.036l0.049-0.024l0.05-0.04l0.012-0.032
		l0.013-0.089l0.062-0.058l0.074,0.012l0.049-0.035l0.125,0.035l0.073,0.013l0.036,0.044l0.074,0.062h0.039l0.047-0.025l0.046-0.037
		l0.036,0.014l0.049-0.035l0.058-0.059l0.052-0.041l0.011-0.035h0.365l0.087-0.023l0.12-0.146l0.046-0.072l0.096-0.024l0.171-0.033
		l0.086,0.014l0.074,0.025l0.193-0.137l0.124,0.039l0.024,0.084h0.038l-0.012,0.047l-0.01,0.036L-8.86,33.19l0.062,0.098
		l0.034,0.017l0.099-0.023l0.125-0.012l0.096-0.062l0.013-0.037v-0.036l0.086-0.195l0.074-0.108v-0.037l0.061-0.244l0.11-0.143
		l0.062-0.059l0.137-0.062l0.168-0.033l0.167-0.221l0.013-0.04l0.05-0.034l0.034,0.013l0.04,0.013l0.109,0.097l0.024,0.096
		l0.045,0.133l0.059,0.098l-0.012,0.035v0.035l-0.062,0.072l-0.013,0.038l0.037,0.051l0.023,0.082l0.073,0.066l0.062,0.062h0.051
		l0.033,0.011l0.051-0.022l0.051-0.074l0.012-0.035l0.011-0.047l0.012-0.037l0.051-0.021l0.118-0.022l0.051-0.023l0.047,0.013h0.036
		l0.121-0.013l0.073,0.063l0.023,0.051h0.051l0.095-0.063l0.06,0.063v0.035l0.062,0.062l0.052,0.014h0.036l0.096-0.063l0.049-0.025
		l0.013-0.049v-0.036l0.05,0.013l0.17-0.047l0.27-0.062l0.05-0.036l0.097-0.057l0.124-0.013l0.171-0.013l0.365,0.053l0.12-0.025
		l0.328,0.034l0.156,0.04l0.084,0.011l0.122-0.011l0.121,0.024h0.171l0.28,0.008l0.195,0.049h0.412l0.619,0.012l0.744,0.039
		l0.159,0.034h0.207l0.911,0.033H0.3l0.692,0.025l0.121,0.021H1.49l0.244,0.016l0.073,0.021l0.985,0.037l0.133-0.008l0.984,0.048
		l0.365,0.034l0.207,0.012l0.119-0.021L5.5,32.97l0.62,0.012l0.035,0.008l0.084,0.016l0.121-0.016l0.463,0.016l0.074,0.021
		l0.342-0.013l0.11,0.024l0.05,0.013l0.292-0.024l0.121,0.024h0.364l0.121,0.021l0.657,0.065l0.453,0.01l0.244,0.014l0.133-0.014
		l0.606,0.051h0.383l0.366,0.04l0.039,0.014l0.171-0.014l0.451,0.024l0.533,0.021l0.524,0.041l0.047-0.034l0.121,0.023l0.206,0.013
		h0.035l0.121,0.035l0.051-0.035l0.034,0.011l0.086,0.011l1.568,0.051l0.853,0.064h0.204l0.085,0.024l0.157-0.012h0.377l0.452,0.024
		l0.084,0.011l0.533,0.035h0.035l0.658,0.022l0.659,0.014l0.246,0.06l0.705,0.021l0.156-0.012l0.12,0.023l0.257-0.023l0.085,0.023
		h0.037l0.328,0.035l0.365,0.034l0.449,0.013l0.257,0.022h0.022v0.039l-0.011,0.036l-0.051,0.034l-0.012,0.04v0.037l-0.098,0.233
		l-0.01,0.039l0.039,0.045l0.257,0.146l0.059,0.096l0.085,0.216l0.012,0.133l-0.012,0.038l-0.062,0.073v0.039l-0.012,0.038h-0.034
		l-0.051,0.023l-0.046-0.008l-0.086,0.02l-0.046,0.036l-0.047,0.021L22.07,35.23l-0.011,0.035l-0.084,0.194l-0.012,0.034
		l-0.011,0.243l-0.012,0.082l0.023,0.29l0.024,0.053l0.034,0.051l0.097,0.108l0.184,0.294l1.178-0.829l0.098-0.061l0.148-0.098
		l0.435-0.313l0.11-0.107l0.051-0.028l0.048-0.039v-0.036l0.292-0.182l0.108,0.099l0.217,0.302l0.292,0.39l0.195,0.258l0.292,0.389
		l0.314,0.45l0.193,0.206l0.258,0.391l0.206,0.28l0.051,0.063l0.412,0.583l0.316,0.447l0.423,0.551l0.136,0.141l-0.01,0.049
		l-0.051,0.401l-0.022,0.487l-0.159,1.712l-0.023,0.12l-0.024,0.108v0.173l-0.012,0.084l0.447,0.013l0.121-0.013h0.997l0.12-0.012
		l0.049,0.012l0.533-0.012l0.039,0.012h0.207l0.05,0.013l0.245,0.011l0.123-0.011h0.412l0.046,0.011h0.367l0.05,0.014l0.085-0.024
		l0.692,0.024l0.636-0.024h1.495l0.125,0.024l0.048-0.036l0.365,0.036l0.051-0.024l0.33-0.013l0.049,0.013l0.074,0.011l0.242,0.014
		h0.207l0.136-0.014l0.037,0.014l0.034,0.011l0.378-0.011l1.08-0.014l0.246,0.014l0.413,0.011h0.621l0.207,0.015l0.133-0.015h0.995
		l0.082-0.022l0.864,0.022h0.535l0.17,0.023l0.206-0.033l0.159,0.04l0.259-0.026l0.158,0.037l0.549-0.011l0.499-0.014l0.074,0.014
		l0.046,0.011l0.619,0.013l0.159-0.013h0.172l0.337-0.011l0.109,0.022h0.171l0.133-0.013h0.572l0.914,0.025l0.79,0.011l0.036-0.036
		l0.409,0.015l2.17-0.038l0.01-0.035h0.209l0.41,0.012l0.448,0.011l0.306-0.011l0.448,0.011l0.047-0.036l0.034,0.01l0.241,0.012
		l0.151,0.11l0.265,0.268l0.316,0.282l0.209,0.204l0.071,0.06l0.23,0.254l0.245,0.214l0.318,0.284l0.789,0.743l0.171,0.164
		l0.475,0.475l0.279,0.271l0.035,0.013l0.305,0.313l0.356,0.279l0.226,0.259l0.21,0.206l0.031,0.051l0.186,0.124l0.021,0.054
		l0.259,0.181l0.681,0.69l1.24,1.129l0.137,0.155l0.658,0.632l0.119,0.16l0.035,0.051l0.144,0.109l0.241,0.216l-0.012,0.052
		l0.208,0.207l0.278,0.229l0.219,0.292l0.353,0.325l0.233,0.259l0.144,0.108l0.099,0.111l0.097,0.109l0.377,0.365l0.072,0.06
		l0.339,0.313l0.034,0.047l0.172,0.171h0.037l0.901,0.863l0.207,0.206l0.789,0.758l0.828,0.753l0.024,0.052l0.083,0.085l0.573,0.56
		l0.06,0.097l0.754,0.702l0.246,0.219l0.182,0.156l0.338,0.33l0.132,0.145l0.109,0.075l0.064,0.097l0.17,0.157l0.072,0.061
		l0.448,0.427l0.343,0.318l0.15,0.12l0.401,0.412l0.203,0.217l0.141,0.111l0.038,0.045l0.038,0.013l0.412,0.417l0.655,0.594
		l0.377,0.377l0.318,0.28l0.055,0.087l0.172,0.165h0.034l0.379,0.381l0.692,0.64l0.095,0.11l0.548,0.534l0.039,0.046l0.166,0.116
		l0.929,0.906l0.208,0.207l0.084,0.021l-0.012,0.041l0.486,0.435l0.204,0.206l0.138,0.12l0.521,0.488l0.025,0.05l0.105,0.097
		l0.172,0.155l0.131,0.121v0.027l0.344,0.332l0.411,0.376l0.284-0.145l0.144-0.102l0.048-0.023l0.228-0.118l0.562-0.253l0.081,0.018
		l0.062-0.07l0.039,0.013l0.044-0.04l0.182-0.051l0.181-0.086l1.628-0.633l0.086-0.025l0.04,0.012l0.656-0.108l1.626-0.27
		l0.872-0.023l0.053-0.023l0.123-0.023l0.716-0.012h0.161l0.294-0.024l0.135-0.011l0.244,0.011l0.414,0.013h0.034l0.099-0.013
		l0.191,0.036l0.279,0.023l0.245,0.05l0.082,0.022l0.124-0.022l0.189,0.079l0.04,0.012l0.278,0.062l0.079,0.017l0.833,0.182
		l0.112,0.024l0.245,0.044l0.009,0.137l0.183,0.327l0.014,0.085l0.011,0.171l0.064,0.098l0.838,0.339l0.22-0.246l0.023-0.109v-0.583
		l0.19-0.911l0.235-0.446l0.182-0.467l0.23-0.726l0.013-0.038l0.12-0.356l0.062-0.28l0.024-0.116l0.171-0.626l0.049-0.194
		l0.224-0.823l0.083-0.192l0.034-0.196l0.116-0.097l0.251-0.819l0.315-0.886l0.254-0.605l0.343-0.597l0.054-0.022l0.343-0.634
		l0.121-0.184l0.452-0.729l0.073-0.108l0.486-0.765l0.499-0.562l0.055-0.073l0.27-0.27l0.294-0.439l0.435-0.487l0.107-0.097
		l0.211-0.159l0.35-0.344l0.911-0.925l0.217-0.243l0.449-0.353l0.113-0.108l0.397-0.366l0.051,0.011l0.219-0.192l0.132-0.112
		l0.053-0.026l0.147-0.136l0.098-0.059l0.306-0.229l0.009-0.035l0.618-0.4l2.406-1.521l0.283-0.184l0.098-0.062l0.095-0.059
		l0.133-0.058l1.035-0.886l0.547-0.465l0.111-0.107l0.049-0.026l0.191-0.117l0.054-0.034l0.242-0.193l0.156-0.134l0.051-0.024
		l0.086-0.023l0.206-0.171l0.415-0.192l0.011-0.037l0.128-0.095l0.247-0.12l0.447-0.186h0.033l0.412-0.158l0.045-0.023l0.049-0.035
		l0.305-0.096l0.152-0.099l1.122-0.412l0.088-0.023l0.136-0.051l0.67-0.194l0.085-0.023l0.134-0.051l0.18-0.047l1.011-0.227
		l0.557-0.132l0.089-0.024l0.182-0.033l0.089-0.026l0.044-0.033l0.034,0.011l0.304-0.062l0.22-0.037l0.087-0.02l0.996-0.194
		l0.477-0.065l0.303-0.058l0.118-0.015l0.171-0.011l0.054-0.025l0.033,0.013l0.8-0.033h0.037l0.12-0.011l0.484,0.073l0.171-0.013
		l0.378-0.034l0.108,0.097l0.146,0.075l0.036,0.008l0.45,0.22l0.559,0.085l0.349,0.121l0.236,0.088l0.314,0.067l0.148,0.108
		l0.449,0.216l0.074,0.025v0.411l-0.063,0.059l-0.039,0.327l0.257,0.392l0.217,0.338l0.048-0.035l0.086-0.39l0.108-0.316v-0.032
		l0.316-0.681l0.248-0.575l0.118-0.131l0.777-1.321l0.619-0.949l0.056-0.061l0.562-0.874l0.062-0.073l0.059-0.073l0.51-0.633
		l0.721-0.844l0.28-0.352l0.012-0.032l0.778-0.708l0.835-0.812l1.992-2.347l1.35-1.24l0.77-0.84l-0.062-0.137l-0.137-0.145
		l-0.465-0.145l-0.13,0.049l-0.453,0.741l-0.377,0.41l-1.022,1.226l-0.703,0.802l-0.814,1.07l-0.84,0.812l-0.216,0.235l-0.79,0.788
		l-0.062,0.074l-0.235,0.314l-0.072,0.149l-0.455,0.533l-0.152,0.132l-0.046,0.059l-0.219,0.246l-0.148,0.097l-0.292-0.022
		l-0.109-0.061l-0.182-0.12l-0.06-0.305l0.098-0.437l0.195-0.292l0.022-0.12l0.121-0.012l0.329-0.168l0.039-0.157l0.205-0.167
		l0.074,0.023l0.375-0.011l0.314-0.307l0.256-0.438l0.158-0.341l0.121-0.135l0.461-0.61l0.147-0.095l0.036-0.364l-0.034-0.22
		l-0.342-0.145l-0.169-0.203l0.02-0.283l0.042-0.167l0.049-0.063l0.063-0.077l-0.037-0.216l-0.099-0.099l-0.574-0.256l-0.766-0.292
		l-0.28-0.064l0.014,0.137l0.098,0.146l0.243,0.219l0.499,0.769l0.109,0.27l-0.125,0.145l-1.445-0.021l-0.034-0.014l-0.187-0.278
		l-0.044-0.013l-0.117-0.155l-0.089-0.014l-0.035-0.05l-0.17-0.121l-0.207-0.79l-0.015-0.497l-0.084-0.233l-0.644-0.46l-0.136,0.044
		l-0.108,0.145l-0.11,0.477l-0.186,0.494l0.024,0.462l-0.121,0.173l-0.113,0.108l-0.033-0.011l-0.802,0.244l-0.608,0.122
		l-0.448,0.181h-0.035l-0.877-0.021l-0.303-0.489l-0.046-0.17l-0.049-0.138l-0.014-0.172l-0.012-0.29l0.137-0.269l0.157-0.13
		l0.195-0.157l0.171-0.013l0.29-0.182l0.176-0.206v-0.201l0.093-0.271l0.258-0.035l0.147-0.086l0.159-0.346l0.048-0.192l0.243-0.206
		l0.194-0.537l-0.039-0.207l-0.073-0.439l0.034-0.12l0.024-0.112l0.268-0.486l0.373-0.412l0.063-0.071l0.147-0.086l0.045-0.247
		l0.024-0.324l0.133-0.224l0.097-0.057l0.229-0.485l-0.035-0.429l-0.133-0.485l-0.232-0.511l-0.408-0.173l-1.093-0.107l-0.115-0.109
		l-0.755,0.049l-0.312-0.074l-0.073-0.05l-0.329-0.206l-0.246-0.586h0.037l0.143-0.256l0.305-0.268l0.549-0.047l0.73-0.086
		l0.559-0.086l0.526,0.229l0.281,0.23l0.339-0.015l0.182-0.256l0.136-0.086l0.171-0.009l0.268,0.144l0.109,0.4l0.118,0.025
		l0.157,0.073l0.255,0.135l0.021,0.099h0.21l0.218-0.246l0.121,0.027h0.157l0.217,0.171l0.353,0.071l0.222-0.037l0.095-0.268
		l0.169-0.013l0.499-0.013l0.484,0.229l0.402,0.052l0.181-0.052l0.075-0.147l0.086-0.023l0.293-0.027l0.666,0.355l0.51-0.047
		l0.323,0.107l0.092,0.097l0.329,0.034l0.144-0.096l-0.037-0.258l0.237-0.312l0.218-0.04l0.644-0.315l0.485-0.315l0.196-0.325
		l-0.035-0.259l-0.086-0.144l-0.012-0.172l0.071-0.145l0.21-0.156l0.28,0.011l0.269,0.145l0.099-0.062l0.118-0.186l0.072-0.158
		l-0.025-0.24l0.012-0.29l0.242-0.317l0.064-0.281l-0.012-0.168l-0.014-0.124l0.146-0.267l0.507-0.305L133.618,20.581z
		 M45.149,6.387c-0.006,0.001-0.013,0.005-0.018,0.008l0.021-0.008H45.149z M45.094,6.425l-0.016,0.016L45.094,6.425z"/>
</g>
</svg>
