<?xml version="1.0" encoding="UTF-8"?>
<svg width="153px" height="64px" viewBox="0 0 153 64" version="1.1" xmlns="https://www.w3.org/2000/svg" xmlns:xlink="https://www.w3.org/1999/xlink">
    <!-- Generator: Sketch 47 (45396) - http://www.bohemiancoding.com/sketch -->
    <title>US-Mainland</title>
    <desc>Created with Sketch.</desc>
    <defs></defs>
    <g id="Page-1" stroke="none" stroke-width="1" fill="none" fill-rule="evenodd">
        <g id=".old" transform="translate(-211.000000, -495.000000)" fill-rule="nonzero" fill="#BAC9CF">
            <g id="sidebar-body" transform="translate(30.000000, 245.000000)">
                <g id="Group-Copy-3" transform="translate(0.000000, 249.000000)">
                    <g id="bg" transform="translate(169.000000, 1.000000)">
                        <path d="M147.826089,24.6897367 L147.860585,24.5772628 L148.596979,24.5667202 L149.12164,24.7324043 L149.48062,24.7876317 L149.646302,24.4286516 L149.397779,24.0696732 L149.397779,23.7659205 L148.983571,23.4069403 L148.624593,22.468072 L148.845503,21.5568156 L148.817889,21.1978372 L148.596979,20.9769257 C148.596979,20.9769257 148.845503,20.7007884 148.845503,20.5903335 C148.845503,20.4798769 148.928344,20.2313534 148.928344,20.2313534 L149.25971,20.0104436 L149.591075,19.7343046 L149.673916,19.8999887 L149.425393,20.176126 L149.204483,20.8112433 L149.25971,21.0045394 L149.563461,21.0597669 L149.646302,21.9986369 L149.287324,22.1643193 L149.342551,22.7718229 L149.425393,22.7442092 L149.618689,22.4128445 L149.894828,22.7165955 L149.618689,22.937507 L149.563461,23.5173969 L150.005282,24.0972869 L150.668014,24.1801281 L150.944153,24.0420594 L151.496999,24.7565607 L151.729024,24.8481681 L151.848175,24.9009734 L151.872757,25.2335526 L151.741765,25.7626664 L151.470684,26.4771917 L151.39452,27.4079737 L151.645674,28.2006871 L152.01536,27.8733844 L152.327603,27.023047 L152.248729,26.4439138 L152.320145,25.6605934 L152.818912,25.01507 L152.950508,24.4654192 L152.865561,24.370411 L153.208483,23.6830793 L153.247249,22.8522779 L153.208652,22.7303118 L152.821891,21.4739744 L152.656207,21.5568156 L152.048703,21.1426097 L151.744952,20.3418083 L151.413586,19.7343046 L151.026994,19.5686223 L150.668014,18.9611186 L150.753239,18.6021385 L150.840419,18.6882354 L151.026994,19.0715735 L151.57927,19.5686223 L152.407683,19.9552161 L153.098028,20.065671 L153.125642,20.3141946 L152.987573,20.4798769 L153.042801,20.949312 L153.180869,20.949312 L153.53985,20.5351061 L153.677918,19.7066909 L154.147353,19.0163461 L154.672016,17.9117937 L154.865312,16.9729253 L154.754857,16.7796275 L154.727243,15.1780263 L154.451104,14.5981381 L154.257808,14.7362067 L153.788373,14.7914342 L153.705532,14.708593 L153.89883,14.5429089 L154.257808,14.2115442 L154.26858,14.0247032 L154.360899,14.0100576 L154.561561,14.1010893 L155.251906,13.9077915 L156.246003,13.5764268 L156.687823,13.4107428 L157.90283,12.4994881 L158.565561,12.0024394 L159.145451,11.3949357 L158.427493,11.1187985 L158.206583,11.367322 L157.709534,11.836757 L156.356458,12.4994881 L155.969864,12.4718744 L155.693727,12.3614195 L155.500429,12.4718744 L155.113837,12.9136957 L154.865312,13.1346055 L154.644402,13.189833 L154.589174,12.9689232 L154.920539,12.6651705 L154.784478,12.3784735 L154.957741,12.4177282 L155.804182,11.836757 L156.411685,11.2844808 L156.74305,10.9255007 L156.881121,11.0359556 L157.350554,10.7874321 L158.234196,10.594136 L159.437525,9.99777962 L159.587278,9.95901518 L160.084321,9.79333454 L160.498529,9.46196984 L160.691825,9.15821715 L160.912735,9.18583088 L161.409964,8.92339287 L161.498647,8.85966916 L161.851605,8.68878211 L161.768764,8.30218996 L161.906832,8.05366473 L162.403881,7.8051412 L162.54195,8.32980369 L162.459108,8.63355466 L162.044901,8.8820799 L162.044901,9.04776225 L162.376267,8.79923872 L163.038998,8.026051 L163.701729,7.6946863 L164.419688,7.44616107 L164.364461,7.03195519 L164.198778,6.53490643 L163.867412,6.12069884 L163.563661,5.98263021 L163.204681,6.01024394 L163.121839,6.09308512 L163.287522,6.31399492 L163.536047,6.17592629 L163.895025,6.45206525 L164.033096,6.92149858 L163.729343,7.22525126 L163.342751,7.39093362 L162.735247,7.30809244 L162.072515,6.28638119 L161.685922,5.84456159 L161.38217,5.84456159 L161.188874,5.98263021 L160.857507,5.5408089 L160.912735,5.29228538 L161.326942,4.40864276 L160.833421,3.65486971 L160.736684,3.57081234 L160.885121,3.38693151 L161.071345,2.82478056 L161.135071,2.63360428 L161.326942,1.56442052 L161.354556,0.818848234 L161.603081,0.597938433 L161.437397,0.0456622209 L161.96206,-0.561841441 L162.238199,-0.313317915 L162.459108,-0.39615909 L163.370365,-0.920821577 L163.425592,-1.41787034 L163.922641,-1.50071151 L164.198778,-1.94253282 L164.171164,-2.21867008 L164.115937,-2.74333256 L164.254006,-2.96424236 L164.198778,-3.15754015 L163.977868,-3.40606367 L164.336847,-3.62697348 L164.640599,-3.07469726 L164.889123,-3.12992642 L164.94435,-2.90901491 L164.94435,-2.63287766 L165.275717,-2.60526394 L165.358558,-3.07469726 L165.441399,-3.18515387 L165.165262,-3.4336774 L165.330944,-3.68220178 L165.745152,-3.93072599 L165.910834,-4.17925037 L166.214585,-4.2068641 C166.214585,-4.2068641 166.269814,-3.84788464 166.380269,-3.84788464 C166.490724,-3.84788464 166.601179,-3.84788464 166.601179,-3.84788464 L167.429593,-4.78675403 L168.009482,-5.31141635 L168.340849,-5.42187159 L168.699829,-6.22267184 L168.699829,-6.55403757 L168.313235,-7.18915513 L167.981869,-7.54813458 L167.512435,-7.52052068 L167.595277,-7.32722409 L167.567663,-7.24438275 L167.429593,-7.24438275 L166.932546,-7.63097593 L166.904932,-8.45939007 L166.766861,-8.7907558 L165.745152,-8.7907558 L164.198778,-13.8993098 L163.867412,-14.0649925 L162.845702,-14.4791996 L162.597177,-14.5068135 L162.293426,-14.2030616 L161.603081,-13.7060131 L161.603081,-13.5403304 L161.465011,-13.4022612 L160.995578,-13.5127165 L160.774666,-13.8993098 L160.774666,-14.0926064 L160.553756,-14.1202201 L160.332845,-14.1202201 L159.973866,-13.4022612 L159.476818,-11.8835019 L159.173065,-11.0550878 L159.20068,-10.2266736 L159.228294,-9.9781494 L159.090224,-9.5087147 L158.952155,-9.34303184 L158.952155,-8.3213211 L159.283521,-7.90711403 L159.034996,-7.21676885 L158.593175,-6.4159686 L158.455106,-5.47709921 L158.455106,-5.03527824 L158.19653,-5.10529456 L157.953883,-5.08511038 L157.80754,-5.0068002 L157.654307,-5.00766452 L157.543852,-4.73152641 L157.433397,-4.81436776 L157.267713,-4.98005062 L157.019189,-4.64868507 L157.01091,-3.78914185 L156.853679,-3.73754965 L152.370253,-2.5849952 L152.264004,-2.51722661 L150.971766,-2.16344263 L150.198579,-1.9149191 L149.646302,-1.94253282 L148.707434,-1.72162131 L148.181096,-1.50879783 L147.768564,-1.19695883 L147.409585,-0.782752951 L146.94015,-0.147635563 L146.443102,0.625552158 L146.194576,1.12260092 L146.084122,1.26066954 L145.090026,2.19953791 L145.117639,2.64135922 L145.255708,2.834657 L145.559459,2.97272563 L145.863212,2.97272563 L145.863212,3.22124916 L145.669916,3.58022929 L145.725143,3.82875282 L145.973667,4.18773295 L145.946053,4.57432511 L145.614686,4.76762289 L145.255708,4.76762289 L144.979569,5.09898759 L144.675818,5.6512638 L144.316838,5.95501649 L143.433197,6.03785767 L142.991376,6.23115374 L142.632396,6.45206525 L142.356258,6.42445153 L142.024892,6.20354002 L140.947955,6.23115374 L140.395679,6.31399492 L139.705332,6.53490643 L138.95976,6.78342995 L138.462711,7.08718264 L138.794078,8.13650761 L139.097829,8.16412134 L139.31874,8.68878211 L139.346354,8.85446617 L139.153056,9.02014852 L138.794078,9.48958356 L138.711236,9.76572081 L138.37987,10.0694735 L138.076119,10.2627696 L137.910435,10.5389085 L137.689525,10.7322046 L137.445586,10.9244348 L137.273794,11.0131195 L136.336449,11.9748257 L136.115538,12.0576668 L135.397729,12.5716261 L135.223431,12.5526932 L134.182572,13.2450604 L133.519841,13.6316543 L132.939951,14.2667717 L132.249606,14.9295028 L131.69733,15.0675714 L131.200281,15.1504126 L130.261411,15.5922339 L129.902432,15.6198476 L129.322543,15.0951851 L128.4389,15.2056418 L127.99708,14.9571165 L127.590361,14.7263764 L127.39361,14.6708842 L127.41719,14.5705227 L127.444804,14.3219991 L127.803782,13.6868817 L128.145505,13.3900333 L128.107535,12.5271019 L128.380323,12.2543143 L128.566615,12.1957355 L128.604584,11.5882318 L128.866914,11.0704753 L129.046404,11.1740259 L129.074017,11.2844808 L129.212088,11.3120945 L129.543452,11.1464122 L129.488225,9.51719729 L128.935949,8.10889218 L128.549355,6.56252015 L128.135149,6.01024394 L127.693328,5.70649126 L127.41719,5.89978904 L126.754458,6.20354002 L126.423093,7.05956891 L125.953658,7.6946863 L125.760362,7.8051412 L125.511836,7.6946863 C125.511836,7.6946863 125.070017,7.44616107 125.097631,7.33570616 C125.125244,7.22525126 125.180472,6.47967898 125.180472,6.47967898 L125.760362,6.25876747 L125.89843,5.67887753 L126.008885,5.23705793 L126.423093,4.96091897 L126.367865,3.24886288 L126.091726,2.86227073 L125.870817,2.7242004 L125.732748,2.36522197 L125.870817,2.22715334 L126.146954,2.28238079 L126.174568,2.00624183 L125.760362,1.61964797 L125.53945,1.17782837 L125.097631,1.17782837 L124.324443,0.929303135 L123.385575,0.349413198 L122.916139,0.349413198 L122.805685,0.459869807 L122.640001,0.377026923 L122.11534,-0.00956522945 L121.618291,0.294185747 L121.121242,0.680779608 L121.17647,1.28828327 L121.342152,1.34351072 L121.701132,1.4263519 L121.783973,1.56442052 L121.342152,1.70249086 L120.900332,1.75771831 L120.651807,2.06146928 L120.59658,2.42044942 L120.651807,2.69658667 L120.707035,3.63545674 L120.099531,3.99443688 L119.989076,3.96682144 L119.989076,3.24886288 L120.209986,2.834657 L120.320442,2.42044942 L120.182372,2.28238079 L119.851007,2.42044942 L119.685323,3.13840798 L119.21589,3.33170406 L118.912137,3.66307047 L118.884524,3.82875282 L118.994979,3.96682144 L118.884524,4.40864276 L118.49793,4.49148393 L118.49793,4.68478172 L118.636,5.09898759 L118.442702,6.14831257 L118.166565,6.8386574 L118.27702,7.63945885 L118.359861,7.83275493 L118.221793,8.24696251 L118.166565,8.38503114 L118.111338,8.85446617 L118.718841,9.87617571 L119.21589,10.9807281 L119.464414,11.8091433 L119.326345,12.609943 L119.160663,13.6316543 L118.746455,14.5152952 L118.691228,14.9847302 L118.134568,15.5117158 L117.959549,15.6473964 L117.47622,15.9236003 L117.11724,16.254965 L116.923944,16.3101925 L116.675419,16.1445101 L116.15084,15.9925697 L116.004009,16.0257588 L115.95746,15.8683729 L115.819392,15.4265516 L115.598482,14.7914342 L115.322343,14.4876815 L115.073819,14.0458619 L115.033922,13.1082729 L114.982875,12.9239497 L115.046206,12.416647 L114.770067,11.6434592 L114.659612,10.594136 L114.466316,10.1799284 L114.631998,9.65526591 L114.770067,9.15821715 L115.018592,8.71639755 L114.908135,8.13650761 L114.79768,7.52900395 L114.880522,7.22525126 L115.211888,6.81104368 L115.239502,6.34160864 L115.101433,6.12069884 L115.211888,5.67887753 L115.294729,5.12660132 L115.764164,4.16011923 L116.261213,3.00033936 L116.288827,2.61374549 L116.233599,2.44806314 L116.095529,2.53090432 L115.37757,3.60784302 L114.908135,4.29818785 L114.576771,4.60194054 L114.438702,4.98853269 L114.190177,5.12660132 L113.996881,5.45796773 L113.748355,5.40274028 L113.720742,5.09898759 L113.941653,4.68478172 L114.300632,3.88398027 L114.604384,3.60784302 L114.792505,3.21641342 L114.889419,3.064005 L115.432798,1.86817321 L115.598482,1.17782837 L115.929847,0.432254373 L116.067915,0.404640648 L116.261213,0.680779608 L116.371668,0.680779608 L117.144854,0.266572022 L117.393379,0.542710982 L117.47622,0.570324707 L117.69713,0.377026923 L117.890426,-0.147635563 L118.304634,-0.285704189 L119.492027,-0.39615909 L119.823394,-0.837980401 L120.707035,-0.865594126 L121.701132,-0.644682617 L122.004883,-0.644682617 L122.557159,-0.893207851 L122.943753,-0.865594126 L123.302733,-0.976049027 L123.937851,-0.893207851 L124.075919,-0.837980401 L124.296829,-0.893207851 L124.075919,-1.0588902 L123.85501,-1.1693451 L123.302733,-1.69400759 L123.302733,-2.88140119 L123.054208,-2.96424236 L122.860912,-2.77094629 L121.811587,-2.49480904 L121.480221,-2.41196615 L120.983174,-2.55003649 L120.900332,-2.60526394 L120.900332,-3.57174603 L120.651807,-3.59935975 L120.209986,-3.37844995 L119.4368,-3.04708354 L118.304634,-2.99185609 L117.724744,-2.79856001 L117.034399,-2.19105635 L116.75826,-2.025374 L116.564964,-2.025374 L116.344054,-1.88730367 L116.067915,-1.97014655 L115.791778,-2.19105635 L115.543253,-2.025374 L114.880522,-1.99776027 L114.411086,-2.4671936 L114.162563,-2.99185609 L113.914039,-3.18515387 L113.361763,-3.35083622 L112.975169,-3.35083622 L112.75426,-3.57174603 L112.146756,-3.07469726 L111.981072,-2.88140119 L111.843003,-2.96424236 L111.898231,-3.40606367 L112.312438,-3.95833989 L112.395279,-4.37254696 L112.781873,-4.51061593 L113.030397,-5.03527824 L113.665514,-5.20096111 L113.720742,-5.36664397 L113.527446,-5.55994056 L112.726646,-5.47709921 L111.981072,-5.06289214 L111.59448,-4.67629879 L111.373568,-4.37254696 L111.069817,-4.23447799 L110.738451,-3.7374294 L110.710837,-3.51651858 L109.965265,-3.15754015 L109.551057,-2.82617374 L108.529348,-2.66049139 L108.418891,-2.55003649 L108.418891,-2.38435243 L107.811387,-1.99776027 L107.341952,-1.85968994 L107.219602,-1.76054973 L107.045794,-1.68851252 L106.95536,-1.47309779 L106.762064,-1.50071151 L106.651608,-1.69400759 L106.182174,-1.83207622 L105.988876,-1.80446249 L105.685125,-1.63878014 L105.519441,-1.74923504 L105.629898,-2.08060145 L105.961263,-2.60526394 L106.154559,-2.79856001 L105.823194,-3.04708354 L105.464214,-2.90901491 L104.967165,-2.57765021 L103.69693,-2.025374 L103.199882,-1.9149191 L102.702835,-1.99776027 L102.535142,-2.14777731 L102.460836,-2.24218257 L103.11704,-2.74333256 L103.337952,-2.77094629 L104.111138,-3.62697348 L104.414891,-3.7650433 L104.801483,-4.42777458 L105.21569,-5.03527824 L105.740353,-5.47709921 L106.555943,-5.8199045 L108.135248,-6.51360035 L108.808035,-6.82740627 L108.91259,-7.21676885 L108.154193,-7.15345423 L108.032299,-6.96824464 L107.921842,-6.96824464 L107.618091,-7.49290696 L106.099331,-7.43767934 L105.933649,-7.29961037 L105.767967,-7.29961037 L105.685125,-7.52052068 L105.547055,-7.82427251 L105.105235,-7.74143117 L104.552959,-7.18915513 L104.27682,-7.05108599 L103.752158,-7.05108599 L103.310338,-7.21676885 L103.310338,-7.5757483 L103.089427,-7.6033622 L103.006586,-7.52052068 L102.564764,-7.74143117 L102.481923,-8.23847976 L102.2334,-8.15563824 L102.150558,-7.98995538 L101.736351,-8.07279689 L100.825094,-8.48700397 L100.162363,-8.92882477 L99.6653145,-8.92882477 L99.4444047,-9.09450763 L99.0578109,-8.98405239 L98.8645148,-8.7907558 L98.8092874,-8.56984531 L97.9808739,-8.56984531 L97.9808739,-8.92882477 L96.9039352,-8.98405239 L96.8487077,-9.2325766 L96.0202926,-9.2325766 L95.7441553,-9.5087147 L95.4956301,-10.5580393 L95.3575615,-11.4969087 L95.0261968,-11.6349777 L94.6396029,-11.7178192 L94.529148,-11.6902053 L94.4739205,-10.2819012 L89.3268937,-10.287926 L89.1395453,-10.296013 L84.2844252,-10.3923565 L81.1088383,-10.5028117 L76.5801737,-10.7237222 L72.3189998,-11.0455126 L72.0997059,-11.1277479 L66.8601151,-11.607364 L61.8620155,-12.2148676 L56.8639175,-12.9052128 L51.3411554,-13.8164683 L48.1931822,-14.3963582 L42.603538,-15.5805638 L42.411658,-15.6079761 L40.1917407,-16.0398118 L40.068666,-16.1084478 L37.4790261,-16.6883041 L33.5578652,-17.6547872 L30.133753,-18.6212705 L28.6702221,-18.952636 L27.0133937,-19.4220708 L26.2678211,-19.670595 L26.0745243,-19.532526 L26.0192967,-19.394457 L26.4335037,-18.5660429 L26.6268005,-18.1242219 L26.3230487,-17.5167182 L26.3230487,-17.1301249 L26.4335037,-16.8816007 L26.2954348,-16.5778488 L26.3782763,-16.0255728 L26.543959,-15.8046623 L26.5163453,-15.5837518 L26.2678211,-15.5561381 L26.1573658,-15.8875037 L25.9640692,-16.3017107 L25.6603172,-16.5502351 L25.7155448,-16.9092146 L26.1021382,-16.9920559 L26.0469106,-17.2958077 L25.9916829,-17.4891045 L25.6327035,-17.268194 L25.411793,-17.0748974 L25.411793,-16.6606902 L25.0251998,-16.6330765 L24.4453094,-16.7987593 L23.9482608,-17.0472835 L23.4235981,-17.1577388 L22.6504116,-17.5167182 L22.0981356,-17.848084 L21.6287009,-18.2899048 L21.2144938,-18.7869534 L20.8555143,-18.8697947 L20.468921,-17.268194 L20.7726728,-16.7159178 L20.7726728,-15.3628414 L20.6622176,-14.8657929 L20.910742,-13.6507854 L21.3801767,-13.1813507 L20.6346039,-13.0708957 L20.60699,-12.4357781 L21.0488109,-12.2424814 L20.7726728,-11.5521363 L20.3032381,-11.4969087 L20.2480105,-10.9998601 L20.6346039,-10.5028117 L20.2756244,-10.0609907 L19.8890311,-8.95643866 L19.336755,-7.24438275 L18.7844788,-6.1398305 L17.9284509,-3.7374294 L16.8238987,-1.41787034 L15.4432085,0.736007058 L15.1118428,1.23305582 L14.9737738,2.69658667 L14.7528633,3.71829792 L15.2154593,4.3208309 L15.1332244,4.48530048 L14.8633186,5.29228538 L14.8357047,6.56252015 L13.9520629,8.57832721 L13.4274008,9.02014852 L13.3721731,9.2134446 L13.0684211,9.35151494 L12.8198969,10.0694735 L12.681828,10.6217497 L13.1512626,11.3397083 L13.4274008,12.0576668 L13.6206973,12.6651705 L13.5654697,13.7697229 L13.2617179,14.2943854 L13.1512626,15.2884829 L12.9855798,15.9236003 L13.2893316,16.5863314 L13.7587663,17.3595174 L14.1453597,18.1879326 L14.36627,18.8782775 L14.3110425,19.4305537 L14.2558149,19.5133948 L14.2558149,19.8723733 L15.222298,20.949312 L15.1394567,21.3635195 L15.0290014,21.7501134 L14.9185462,22.0814781 L14.9461599,23.4897832 L15.3051394,24.1249006 L15.6365051,24.5667202 L16.1059398,24.6495631 L16.2716226,25.1189964 L16.0783261,25.7265001 L15.7193464,26.002639 L15.5260498,26.002639 L15.3879809,26.6653702 L15.4708222,27.1624189 L16.0230984,27.9079912 L16.2992364,28.8192476 L16.5477606,29.6200473 L16.7686711,30.1447098 L17.348561,31.1388073 L17.5970852,31.5806269 L17.6799267,32.0776757 L17.9560647,32.243358 L17.9560647,32.6575656 L17.8179957,32.988932 L17.5142439,34.2039393 L17.4314023,34.535304 L17.8456096,35.0047391 L18.5635685,35.0875802 L19.336755,35.3913329 L19.9994863,35.7503114 L20.4965349,35.7503114 L20.9935833,36.2749738 L21.4354041,37.103389 L21.6287009,37.4899812 L22.2914322,37.8489613 L23.1198463,37.9870299 L23.3683705,38.3460101 L23.4788258,38.8982863 L23.2303015,39.0087412 L23.2855292,39.1744235 L23.8378056,39.3124922 L24.3072402,39.3401076 L24.8042888,40.1409073 L25.4670206,40.8588659 L25.6050896,41.2454598 L26.0469106,41.9634183 L26.1021382,42.5156945 L26.1021382,44.1172957 L26.1849795,44.4210467 L27.8970361,44.6695719 L31.2659191,45.1390053 L33.641516,45.3054973 L33.8132981,45.4330643 L33.3645691,45.8017364 L33.3093416,46.0502616 L33.3921828,46.2159439 L36.6229972,48.0384549 L38.6940334,49.3363034 L41.2068892,50.799836 L44.0787252,52.5118921 L46.1773752,52.9260997 L50.4695688,53.3881351 L50.7436854,53.5251942 L53.3845779,53.864968 L53.6054877,52.1529119 L56.44971,52.5947333 L58.5773845,52.8710721 L58.7416526,52.8708705 L59.0730156,52.9537083 L59.5148403,53.4507536 L59.7633655,54.1963327 L60.564167,54.5829266 L60.7850768,55.1352028 L62.0000858,56.4882805 L62.2209956,56.7644177 L63.0770228,57.1233978 L63.2703206,57.4823763 L63.5464578,57.6480603 L63.629299,58.1174937 L64.1815752,59.2220461 L64.1815752,60.6027375 L64.5681691,61.4035372 L65.8384038,62.7289994 L66.7220465,63.0879796 L67.0257974,63.4193443 L67.0257974,63.5298009 L67.6885286,63.916393 L68.019895,64.0268479 L68.3236459,64.2201457 L68.7654673,64.3858281 L69.1796748,63.9716205 L69.9252471,62.9222972 L70.0909295,62.2871781 L70.4775233,61.7349036 L71.085027,61.4863784 L71.858213,61.1826274 L72.3828755,61.5692196 L73.6531103,61.6796745 L74.8128901,61.8729722 L75.2547115,62.2319507 L75.2547115,62.4252485 L75.6965328,62.9499109 L76.718244,63.8611656 L76.7458577,64.1096908 L77.0496087,64.4410555 L77.1876773,65.1590141 L78.0989337,67.257664 L78.07132,67.5890287 L78.7892785,68.03085 L79.3967822,69.1630162 L79.9766721,69.9085885 L80.5289483,70.1295 L80.8050856,70.5160921 L80.5841758,71.2616661 L80.6946307,71.4273485 L80.9155422,71.5378034 L80.8603148,72.1176933 L80.7498581,72.2281482 L80.8603148,72.6147421 L81.4125893,72.9461085 L81.6335008,74.0506592 L81.9924792,74.713392 L83.2903294,75.293282 L84.1739703,75.486578 L84.8919289,76.0112405 L85.4442051,76.1216954 L85.6651166,76.0388543 L86.603985,76.2321503 L87.5704688,76.8948814 L88.0951312,76.5635167 L88.2608136,76.3149915 L87.9570626,75.8455565 L87.7913786,74.7962332 L87.4876276,73.6088396 L87.349559,73.194632 L87.4876276,72.421446 L87.6809237,71.7587149 L87.9018335,70.9855272 L88.1503587,70.0466588 L87.7637648,69.7152924 L87.9294489,69.3839277 L88.6197937,69.3286985 L89.2825248,68.3898302 L89.8624148,68.2793753 L90.8565123,67.6718716 L91.1602633,67.4233464 L92.237202,66.8434564 L93.2036841,66.4292489 L94.1149404,65.8769743 L94.5843755,65.5179942 L95.5508575,64.6067379 L95.771769,64.4686692 L96.1307475,64.2201457 L96.5725688,63.8887793 L96.7382511,63.5574146 L98.4226935,62.7842269 L99.390332,62.5134566 L99.4999192,62.491613 L100.300434,62.2319507 L101.681123,62.1767232 L103.448407,62.7842269 L104.552959,62.9775247 L105.188077,62.7289994 L105.740353,62.9222972 L106.292629,63.0879796 L106.430698,62.7289994 L105.878422,62.5357034 L105.4366,62.6185445 L104.967165,62.3424073 C104.967165,62.3424073 104.994781,62.1214958 105.105235,62.093882 C105.21569,62.0662683 105.629898,61.9281997 105.629898,61.9281997 L105.933649,62.1767232 L106.237402,62.0110409 L106.789678,62.1214958 L107.038201,62.5357034 L107.093429,62.9222972 L107.866615,62.9775247 L108.170368,63.2812756 L108.032299,63.5574146 L107.811387,63.6954832 L108.087526,63.9716205 L109.523443,64.5791241 L110.130947,64.3582143 L110.296631,63.9440068 L110.738451,63.8335519 L111.042203,63.5850283 L111.263113,63.7507107 L111.401182,64.2477594 L111.01459,64.3858281 L111.125045,64.496283 L111.704935,64.2753732 L112.091528,63.6954832 L112.229597,63.6126421 L111.870617,63.5574146 L112.008686,63.2812756 L111.981072,63.0327521 L112.340052,62.9499109 L112.533348,62.7289994 L112.643803,62.8670681 C112.643803,62.8670681 112.616189,63.3917305 112.75426,63.3917305 C112.892328,63.3917305 113.472218,63.5021872 113.472218,63.5021872 L114.162563,63.8335519 L114.328245,64.0820771 L114.825294,64.0820771 L115.018592,64.2477594 L115.405184,63.723097 L115.405184,63.4745717 L115.184274,63.4745717 L114.604384,63.0051384 L113.610287,62.8670681 L113.058011,62.4804759 L113.251308,62.0110409 L113.6379,62.0662683 L113.665514,61.9558134 L113.361763,61.7901311 L113.361763,61.7072882 L113.914039,61.7072882 L114.21779,61.1826274 L113.996881,60.851261 L113.941653,60.381826 L113.693128,60.4094397 L113.361763,60.7684198 L113.251308,61.2102411 L112.726646,61.0997845 L112.560962,60.7960335 L112.864714,60.4646671 L113.209886,60.1609179 L113.339117,60.072901 L113.527446,59.9400046 L113.969267,59.2220461 L114.273018,59.3601147 L115.432798,59.02875 L115.791778,59.0839775 L116.040301,59.2220461 L116.923944,59.2220461 L116.967375,59.0074786 L117.144854,58.9735226 L117.614289,58.9735226 L117.724744,59.0011363 L117.945654,58.5317012 L118.194179,57.786129 L118.580773,57.8965839 L119.105433,58.9182951 L119.105433,59.0839775 L118.636,59.4153439 L119.105433,59.4705713 L120.052093,59.031085 L120.167961,59.0506107 L120.762262,58.9459088 L121.783973,58.5869287 L122.805685,58.5040875 L123.551257,58.3936326 L124.849105,58.6973836 L126.229797,59.3601147 L126.505934,59.6086399 L127.002983,59.801936 L127.27912,60.1333024 L127.334347,60.6027375 L127.886624,60.381826 L128.549355,60.381826 L129.15686,60.0504613 L129.791978,59.4429576 L130.316638,59.4705713 L130.399481,59.2772735 L130.261411,59.1115912 L130.289025,58.7802265 L130.979371,58.6421561 L131.421191,58.6421561 L131.918239,58.8906814 L132.636198,59.1392049 L133.050406,59.7743223 L133.519841,59.9400046 L133.713137,60.5198946 L134.293027,60.7960335 L134.569166,61.2378549 L134.90053,61.3483098 L135.784173,61.5692196 L136.005083,62.093882 L136.529745,62.7289994 L136.529745,64.3582143 L136.281222,65.1590141 L136.336449,65.6284491 L136.557359,66.4568643 L136.861112,67.1472091 L136.99918,67.0643679 L137.247704,66.2911802 L136.805884,66.1254979 L136.750655,66.015043 L137.026794,65.9045881 L137.79998,66.0702704 L137.827594,66.3464077 L137.275318,67.2852777 L136.916339,67.6994853 L137.523843,68.3346027 L137.965662,68.8592652 L138.462711,69.7705198 L138.95976,70.433251 L139.31874,71.2892799 L139.622491,71.3445073 L139.89863,70.9855272 L140.202381,71.178825 L140.644202,71.8691698 L140.754657,72.4766735 L141.27932,73.2222457 L141.417388,73.0013359 L142.080119,73.0565634 L142.687623,73.4431555 L143.267513,74.3267982 L143.405583,74.9066881 L143.460811,75.4037369 L143.654107,75.5694192 L143.875018,75.6522604 L144.289224,75.486578 L144.537749,75.2104391 L145.200481,75.1828254 L145.725143,74.9343018 L146.194576,74.3820256 L146.111735,74.0506592 L146.056508,73.6364533 L146.166963,73.3050869 L146.111735,72.9737222 L146.525943,72.7528107 L146.58117,72.1729208 L146.470715,71.8691698 L146.387874,69.8257473 L146.166963,68.5278988 L145.393777,67.1195954 L144.786273,66.1254979 L144.344452,65.2142415 L143.847403,64.7171945 L143.350356,63.446958 L143.488425,63.2260482 L143.681721,63.0051384 L143.405583,62.5080896 L142.715238,61.8729722 L141.886823,60.9341022 L141.251706,59.8571635 L140.340451,58.255564 L139.703368,56.5914536 L139.316362,55.3413372 L139.313124,55.1894122 L139.180671,54.1134933 L139.567264,52.4014372 L139.815789,51.6834769 L139.732946,51.2416573 L140.302508,50.175046 L140.215342,49.9441607 L140.312836,49.7781247 L140.671816,49.5572149 L141.527845,48.6183449 L141.362161,48.0660687 L141.85921,48.0384549 L142.466713,47.458565 L142.742852,47.3204964 L143.129444,46.7406064 L143.598879,46.2711714 L143.95786,45.6636677 L144.372065,45.5532128 L144.565363,45.0837778 L144.8415,44.9457092 L144.924342,43.8687705 L145.366163,42.8194455 L146.292172,41.8870868 L146.340046,41.7499167 L147.271515,41.521597 L148.072317,41.4387558 L148.155158,41.0245482 L148.486522,39.9199958 L149.066412,39.1191961 L150.170965,38.2079414 L151.054607,37.7937339 L151.524041,37.683279 L151.717339,37.7661201 L151.938248,37.7661201 L152.462911,36.937705 L152.794277,36.3302013 L152.573366,36.4130442 L152.186774,36.7996363 L152.076317,36.5234991 L151.358358,36.5234991 L151.689725,35.4465604 L151.551656,35.2256506 L151.22029,35.2256506 L151.22029,35.0599665 L151.165062,34.8390567 L151.4412,35.0599665 L151.689725,35.0875802 L152.103931,35.1428077 L152.73905,34.8666704 L152.95996,34.3696217 L153.070414,34.0106416 L153.512236,33.7897317 L153.567463,33.0717732 L153.429395,32.9613183 L153.8436,32.9337046 L153.733146,32.5471107 L153.31894,32.1329031 L152.711436,31.0283507 L152.419345,30.225766 L152.262131,30.0678095 L151.645901,29.0408901 L150.655008,29.3288528 L150.386451,29.0736061 L150.822545,28.8376595 L150.738541,28.4065038 L150.435669,28.1015367 L150.414909,27.860365 L150.025285,27.5968218 L150.010089,27.320869 L150.470259,27.3370861 L150.508146,27.1005776 L150.298146,26.9656741 L150.379957,26.6359373 L150.145134,26.4476067 L150.220205,25.6464773 L150.071927,25.4414976 L149.526957,25.37274 L149.159313,25.0160027 L148.329762,24.8550775 L147.826089,24.6897367 Z M141.459289,77.9579245 L141.873498,77.8474696 L142.094408,77.806049 L142.342935,77.4056465 L142.743336,77.1295076 L142.964247,77.2123505 L143.254193,77.2675779 L143.323227,77.4470671 L142.72953,77.6541718 L142.011567,77.902697 L141.611166,78.1098017 L141.459289,77.9579245 Z M143.76505,77.1018938 L143.972155,77.2813848 L144.441592,76.9224046 L145.35285,76.2044427 L145.987969,75.5417081 L146.415985,74.4095386 L146.581669,74.1195927 L146.609283,73.5397011 L146.485019,73.6225423 L146.319337,74.1057859 L146.07081,74.8927805 L145.518532,75.7902351 L144.772958,76.5081953 L144.193066,76.8395618 L143.76505,77.1018938 Z M153.084742,35.860534 L153.526565,35.4325178 L154.065035,34.9906948 L154.327367,34.8802399 L154.354981,34.5350666 L154.244526,33.4857382 L153.996,33.0853375 L153.885544,32.7677779 L154.009807,32.7263556 L154.479244,33.6652291 L154.548278,34.42461 L154.520665,35.0045033 L153.940773,35.2668337 L153.457529,35.681043 L153.264233,35.8881477 L153.084742,35.860534 Z M164.01255,8.93887713 L164.383544,8.8217195 L164.46165,8.52883056 L164.637383,8.54835626 L164.813116,8.93887713 L164.598332,9.01697993 L163.934448,9.03650734 L164.01255,8.93887713 Z M162.411422,9.07555875 L162.80194,8.62646078 L163.075305,8.62646078 L163.387721,8.88029831 L162.977676,9.05603134 L162.606683,9.23176436 L162.411422,9.07555875 Z M164.406441,-2.39852654 L164.668773,-2.66085864 L164.903492,-2.48136771 L165.00014,-2.06715842 L164.710194,-1.91528293 L164.406441,-2.39852654 Z M165.552418,-3.40643263 L165.85617,-3.08887308 C165.85617,-3.08887308 166.077082,-3.07506793 166.077082,-3.13029538 C166.077082,-3.18552283 166.118503,-3.47546865 166.118503,-3.47546865 L166.27038,-3.61353728 L166.132309,-3.91729116 L165.787136,-3.7930282 L165.552418,-3.40643263 Z M150.406194,24.3869577 L150.59949,24.8149739 L150.627104,25.1187265 L150.820401,25.4362861 C150.820401,25.4362861 150.972279,25.2844089 150.972279,25.2291814 C150.972279,25.173954 150.848017,24.7045172 150.848017,24.7045172 L150.723753,24.3041148 L150.406194,24.3869577 Z M109.632723,-6.7404789 L109.94514,-7.09194562 L110.316133,-7.22862741 L111.233853,-7.89251101 L111.62437,-7.99014105 L111.702477,-7.91203585 L110.823808,-7.03336732 L110.257554,-6.70142715 L109.906086,-6.5452188 L109.632723,-6.7404789 Z M124.352479,-1.2525484 L124.462933,-0.824533955 L125.015211,-0.79692023 L125.236123,-1.00402488 C125.236123,-1.00402488 125.222316,-1.2525484 125.167089,-1.28016384 C125.111859,-1.30777756 124.89095,-1.59772338 124.89095,-1.59772338 L124.518163,-1.5563028 L124.242022,-1.52868907 L124.186794,-1.33539129 L124.352479,-1.2525484 Z M24.6524897,-18.6493066 L24.9976637,-18.6769204 L25.0805052,-18.4422022 L25.3428371,-18.718342 L25.7432382,-18.718342 L25.8813073,-18.45601 L25.6189752,-18.1660642 L25.7294322,-18.0279934 L25.6051692,-17.6828199 L25.370451,-17.6137863 C25.370451,-17.6137863 25.2185741,-17.5999784 25.2185741,-17.655206 C25.2185741,-17.7104337 25.4671002,-18.0970287 25.4671002,-18.0970287 L25.1771544,-18.1936779 L25.1219268,-17.945152 L24.9976637,-17.8346968 L24.7353312,-18.2212918 L24.6524897,-18.6493066 Z M88.3853726,76.1492135 L88.2887245,74.9342028 L87.8192878,73.7053834 L87.722638,72.5041796 L87.9849701,71.095871 L88.5510566,69.9222809 L89.1447534,68.9972143 L89.6832262,68.3897072 L89.7936811,68.4311295 L88.9790711,69.563299 L88.2334971,70.6816635 L87.8883221,71.8138313 L87.8330947,72.6974774 L87.9849701,73.7468057 L88.4267932,74.9756251 L88.5096343,75.8592677 L88.5372481,76.1077946 L88.3853726,76.1492135 Z M18.6188513,36.8132126 L18.8397625,37.0755447 L18.8121487,37.2964562 L18.2598706,37.2826493 L18.1632219,37.0755447 L18.0527663,36.8270195 L18.6188513,36.8132126 Z M18.950218,36.8132126 L19.1573223,36.7027577 L19.7648282,37.0617378 L20.2894924,37.2688408 L20.1376159,37.3792991 L19.3644267,37.3378768 L19.0882877,37.0617378 L18.950218,36.8132126 Z M22.4847978,40.1959161 L22.7885496,40.5963169 L22.9266204,40.7620009 L23.1889524,40.858649 L23.2855999,40.6101237 L23.119917,40.306371 L22.6642883,39.9611978 L22.4847978,39.9888115 L22.4847978,40.1959161 Z M22.2362717,41.673259 L22.5400254,42.21173 L22.7471297,42.5430982 L22.4986038,42.584517 L22.2776933,42.3774141 C22.2776933,42.3774141 22.1534303,42.1288889 22.1534303,42.0598528 C22.1534303,41.9908202 22.1534303,41.6870658 22.1534303,41.6870658 L22.2362717,41.673259 Z" id="US-Mainland"></path>
                    </g>
                </g>
            </g>
        </g>
    </g>
</svg>