<?xml version="1.0" encoding="utf-8"?>
<!-- Generator: Adobe Illustrator 21.1.0, SVG Export Plug-In . SVG Version: 6.00 Build 0)  -->
<svg version="1.1" id="Layer_1" xmlns="http://www.w3.org/2000/svg" xmlns:xlink="http://www.w3.org/1999/xlink" x="0px" y="0px"
	 viewBox="0 0 153 64" style="enable-background:new 0 0 153 64;" xml:space="preserve">
<style type="text/css">
	.st0{fill:#BAC9CF;}
</style>
<title>Group</title>
<desc>Created with Sketch.</desc>
<g>
	<path class="st0" d="M76.9-273.9c0.5-0.2,1.2-0.4,1.6-0.7c-0.1-0.3-1.2-1.2-1.6-1C76.3-275.5,76.2-274.1,76.9-273.9L76.9-273.9z"/>
	<path class="st0" d="M78.4-279.9c0.9-0.4,0.7-1.5-0.3-1.3c-1.2,0.2-0.2,1.2,0.6,1.1L78.4-279.9z"/>
	<path class="st0" d="M76.7-280.8c0.5-0.3,1.4-1,0.5-1.3c-0.8-0.3-1.2,0.6-0.5,1.1L76.7-280.8z"/>
	<path class="st0" d="M77.8-275.7c-0.1,0.6,0.4,1,0.7,0.4c0.3-0.6-0.4-0.9-0.8-0.5L77.8-275.7z"/>
	<path class="st0" d="M83.2-289.3c0.7,0,1.1-0.2,1.8-0.3c-0.2-0.6-1.9-0.6-2-0.1c0.1,0,0.2,0.1,0.3,0.1L83.2-289.3z"/>
	<path class="st0" d="M78.1-291.1c0.4,0,0.9,0,1.2-0.1c0-0.8-2-0.8-2-0.2c0.3,0,0.6,0,0.9,0.1L78.1-291.1z"/>
	<path class="st0" d="M38.8-205.3c0.5,0,1.4,0.2,1.6-0.4c1.5,0,0.9-0.5,1.7-1.6c0.8-1.1,1,0.1,2.2-0.2c0.7-2.1-3.1-1.2-4-1
		c-1.4,0.5-3.2,1.7-2.6,3.4c0.5-0.5,0.8-0.6,1.5-0.2H38.8z"/>
	<path class="st0" d="M40.8-201.1c0.3-0.2,0.6-0.5,0.8-0.9c1.1,0.4,0.4,1.8-0.5,1.1L40.8-201.1z"/>
	<path class="st0" d="M14.7-217.4c0.2-1.3-0.7-2.4-1.7-1.2c0.5,0.5,0.7,1.6,1.6,1.4L14.7-217.4z"/>
	<path class="st0" d="M8.6-218.9c0.4-0.4,1.4-1.6,0.4-1.7c-0.9-0.2-1.4,1.5-0.2,1.5L8.6-218.9z"/>
	<path class="st0" d="M6.4-235.7c1-0.3,1.3,0.1,2.3,0.3c0.8,0.2,1.5,0.1,2.1,0.1c0.5,0,0.7,0,1.1,0.1c0.5,0.1,0.7,0.5,1.2,0.2
		c0.5-0.3,0.9-1.8,0.1-2c-0.1,0.3-0.3,0.5-0.4,0.9c-0.1-0.1-0.5-0.5-0.6-0.5c-0.2,0-0.5,0.2-0.6,0.2c-0.4-0.1-1.1,0-1-0.6
		c0.1-0.6,1.2-0.2,1.3-0.8c0.1-0.5-1.2-0.4-0.6-1.3c0.4-0.6,2.7-0.3,1.9-1.7c-0.6-1.1-1.5,0.8-2.3,0.4c0-0.6-0.4-0.8,0.3-1.5
		c-0.5-0.3-1.5-0.3-2-0.1c1.6,2.4-1.5,0.6-2.1,1.8c0.7,0.6,0.1,1.8,0.1,2.6c0,0.6,0.3,0.4-0.2,1c-0.3,0.4-0.9,0.3-0.8,0.9L6.4-235.7
		z"/>
	<path class="st0" d="M5.2-240.5c0.4-0.5,0.7-0.1,0.8-0.8c0.1-0.5-0.1-0.8-0.5-1c-1.4-0.4-0.6,1.2-0.1,1.6L5.2-240.5z"/>
	<path class="st0" d="M-62.5-266.2c0.1-0.5-0.2-0.5-0.3-0.9c-0.2-0.3-0.3-0.4-0.3-0.9c0-0.5-0.2-0.7-0.3-1.1c-0.1-0.4-0.4-0.6,0-0.9
		c-0.5-0.4-1-1.4,0-1.7c0.8-0.2,0.4,0.9,1.2,1.1c0.6,0.2,1.2-0.5,1.1,0.4c0,0.3-0.7,0.5-0.3,0.9c0.4,0.3,0.9-0.3,1.2-0.5
		c0.2,0.9,0.2,0.8,1,0.3c0.3-0.2,0.7-0.1,1-0.2c0.3-0.1,0.5-0.5,0.9-0.5c0.4-0.1,0.5,0.2,0.8,0.2c0.7,0,0.2,0.1,0.8-0.4
		c0.1-0.1,0.8-0.5,1-0.5c0.3,0.1,0.4,0.5,0.7,0.7c-0.1-0.8,0.8-1,1.5-1.1c0.2,0.2,0.2,0.5,0.2,0.8c0.8-0.1,0.8,0.4,1.3,0.8
		c0.6,0.5,0.8,0.3,0.6,1.1c-0.1,0.3-0.3,0.4-0.2,0.8c0,0.3,0.3,0.5,0.2,0.8c-0.2,0.8-1.1,0.6-1.5,0.8c-0.5,0.3-0.9,1-1.5,1.4
		c-0.6,0.4-1.1,0.9-1.7,1.3c-0.6,0.3-0.8,0.7-1.4,0.5c-0.6-0.2-1.2-0.7-1.7-1c-0.8-0.3-1.3-0.6-1.9-1.1c-0.5-0.5-1.1-0.7-1.6-1.1
		L-62.5-266.2z"/>
	<path class="st0" d="M-62.6-265.9c0.2,0.4,2.5,1.2,1.4,1.8c-0.5,0.3-2-0.2-2.6-0.2c-1-0.2-2,0.2-2.9,0.3c-0.3,0-1.4,0.1-1.5-0.2
		c0,0,0.7-1.1,0.8-1.2c0.5-0.3,1.1,0.7,1.3-0.4c0-0.3-0.3-0.5-0.2-0.8c0-0.3,0.4-0.6,0.6-0.8c-0.3-0.2-0.7,0-0.9-0.4
		c-0.2-0.4,0.3-0.7,0.6-0.9c0.3-0.2,0.8-0.8,1.1-1c0.6-0.3,0.2-0.1,0.6,0.3c0.2,0.2,0.7,0.5,0.8,0.8c0.1,0.3-0.1,0.8,0,1.1
		c0.1,0.5,0.7,1.3,1,1.7L-62.6-265.9L-62.6-265.9z"/>
	<path class="st0" d="M105.3,102.3c-0.1,0.5-0.1,1.1-0.2,1.6c0,0.2,0.2,0.7,0.1,0.8c-0.2,0.3-0.5,0.2-0.7,0.5
		c-0.4,0.7-0.8,2.2-0.8,3c0,0.2,0.9,4-0.7,2.1c-0.5-0.6,0.1-1-0.8-1.4c-0.3-0.2-1.8-0.4-2.1-0.4c0,0.6,0.3,1.3-0.1,1.8
		c-0.4-0.2-0.6-0.7-0.7-1.1c-1.4,0.2-1.1,1.1-0.7,2c0.2,0.5,0.9,2.2-0.4,1.8c0-0.8-0.2-1.6-0.8-1.2c-0.4,0.3-0.1,2-1.3,1.2
		c-0.4,1.1-1.5,3.3-2.6,3.8c-0.9,0.4-1.4,0-2.1-0.5c-0.7-0.4-0.9-0.6-1.7-0.7c-1.2-0.2-3.1-0.1-3.6-1.1c-1.3-2.4,1.6-0.8,2.1-1.3
		c-0.6-0.9-2.2-0.7-2.8-1.5c-0.1,0.3-0.5,0.5-0.6,0.6c-0.7-0.5-0.2-1.1-0.4-1.8c-0.2-0.6-0.6-0.9-1-1.3c-0.2-0.2-0.1-0.5-0.3-0.7
		c-0.2-0.2-0.6,0-0.8-0.2c-0.3-0.4-0.2-1.1-0.3-1.6l-0.1,0.1c0.1-0.9-0.6-2-1-2.8c-0.6-1-0.5-1.4-0.7-2.6c-0.4-3.8,1.4,1.2,2.9-0.5
		c-1.4-0.8-1.1-1.4-1.5-2.6c-1.4,1.6-0.9-1.1-1-1.7c-0.1-1.2-1-2.6-2.1-3.1l-0.1,0.2c0.1-0.8,0-1.8-0.3-2.5
		c-0.2-0.6-1.9-2.1-0.9-2.5c-0.1-0.6-0.5-1.4-0.6-2.1c-0.1-0.7,0-1.5,0-2.2c0-0.4-0.3-0.5-0.2-1c0.1-0.4,0.6-0.4,0.7-0.7
		c0.2-0.6,0-1.7,0.1-2.4l0.1-0.4c0.8,1,1.1,0.4,1.8-0.1c0.5-0.3,1.7-1.1,1.5,0.2c-0.1,0.8-1.2,0.4-0.8,1.3c0.1,0.3,1.8,0.7,2,0.7
		c0-0.8,0.7-0.9,1.2-0.6c0.2,0.1-0.2,0.8,0,1c0.3,0.3,0.7,0,0.9,0.1c0.4,0.2,0.5,0.2,0.9,0.4c0.2,0.2,0.2,0.7,0.4,0.9
		c0.4,0.4,1.3,0.4,1.8,0.8c2,1.7,5.2,3.2,7.9,2.3H95c1.1,0.2,2.2-1.1,3.3-1.2c0.9-0.1,2-0.4,2.9-0.2c0.6,0.1,0.4,0.6,1.2,0.3
		c0.7-0.3,0.8-0.9,1.6-0.9c0.6,0,1,0.5,1.7,0.3c0.6-0.3,0.8-1.2,1.5-1.2c0.9-0.1,2.6,2,2.7,2.8c0.1,0.6-0.2,0.9-0.3,1.4
		c-0.1,0.4-0.4,0.6-0.3,1c0,0.3,0.4,0.7,0.4,0.7c0,1.1-0.9,1.8-0.8,3.1c0.1,0.7,0.3,0.8,0,1.5c-0.3,0.8-1,1-0.8,2
		c0.1,0.6,1,3.2,0.5,3.8c-0.7,0.7-1.1-0.6-1.7-0.5c-0.7,0.1-1.2,1.3-1.1,1.9L105.3,102.3z"/>
	<path class="st0" d="M97.6,115.8c0.2-0.5,0.6-0.7,0.7-1.2c0-0.2-0.2-1.1-0.4-1.1c-0.6-0.2-1.8,1.2-1.9,1.5
		C96.4,115.9,97.3,114.9,97.6,115.8L97.6,115.8z"/>
	<path class="st0" d="M102.2,113c0.2-0.4,0.3-0.7,0.6-0.9c0.1,0.3,0.3,0.6,0.5,0.9c0.8-0.4,0.8-1.3,0.2-1.8c-0.3-0.3-0.7-0.1-1-0.3
		c-0.3-0.2-0.4-0.7-0.6-0.9c-1-0.5-0.9,0.6-0.7,1.2c0,0.1,0.5,0,0.5,0.2c0.1,0.2-0.2,0.4-0.2,0.5c0.1,0.4-0.3,0.8,0.4,0.8L102.2,113
		z"/>
	<path class="st0" d="M-238.8-77.9c0-0.5-0.7-1.1-1-1.6c-0.3-0.6-0.5-1.2-0.8-1.8c-0.4-0.7-0.8-3.8-1.8-3.6c-2,0.4,2.3,6.6,3.2,7.2
		L-238.8-77.9z"/>
	<path class="st0" d="M-233.4-78.5c0-0.9,0.4-2.7,0.1-3.3c-0.1-0.3-0.7-0.5-0.9-0.8c-0.2-0.2-0.2-0.6-0.4-0.8
		c-0.2-0.2-0.6-0.1-0.7-0.3c-0.2-0.3-0.2-0.7-0.5-1c-0.1,0.1-0.3,0.4-0.3,0.5c-0.2-1-0.7-1.9-1.1-0.3c-0.1,0.2-0.1,1.1,0,1.3
		c0.2,0.6,0.5,0.4,0.7,0.8c0.5,0.8,0.7,1.6,1.2,2.4c0.4,0.7,0.5,2.3,1.6,2.1c0.1-0.2,0.1-0.4,0.2-0.5L-233.4-78.5z"/>
	<path class="st0" d="M180-85.3c0-2.1,1.6-3.8,2.8-5.4c0.5-0.7,1.6-1.6,1.7-2.5c0.1-0.6-0.4-0.8-0.6-1.2c-0.2-0.5-0.2-1-0.2-1.5
		c0-0.5,0.3-1.2-0.5-1.2c-0.3,0-1.3,0.7-1.5,1c0.6,0.9,1.5,1.5,0.8,2.6c-0.6,0.8-1.9,1.2-2.6,1.9c0.2,0.2,0.4,0.3,0.6,0.5
		c-0.3,0.4-0.1,0.7-0.2,1.1c-0.2,0.6-0.9,0.8-1.1,1.5c-0.2,1-0.1,1.8,0.6,2.6L180-85.3z"/>
	<path class="st0" d="M13.8,21.3c-0.2-0.9,0.3-0.8,0.8-1.3c0.5-0.5,0.6-1.1,1-1.7c-0.4-0.1-1.7,0.2-1.9-0.1
		c-0.5-0.5,0.4-1.1,0.7-1.2c-0.7,0-0.8-0.5-0.5-1c-0.7-0.2-1.2,0.2-1.8,0.3c-0.5,0.1-1.1,0-1.6,0.1c-0.9,0.1-1.8,0.5-2.7,0.7
		c-1.1,0.3-2.1,0.7-3.1,0.9c-1,0.2-1.1,1-1.5,2C4.2,20.6,5,20.7,5,22c1-0.5,1.2-0.7,2.5-0.7c0.6,0,1.3,0.2,1.9,0.1
		c0.9-0.1,1.1-0.5,2-0.1c0.9,0.4,1.2,0.6,2.1,0L13.8,21.3z"/>
	<path class="st0" d="M16,19c0.3-0.7,0.7-1.1,1.5-0.8c0.5,0.2,1.4,0.6,1.3,1.2c-0.3,1.3-3.5,0-2.5-0.6L16,19z"/>
	<path class="st0" d="M70.8,72.9c1.5-0.2,2-1.7,1.9-2.9c-0.1-1.2,0.3-2.9-1.5-3.1c0,0.1,0.1,0.7,0,0.8c-0.2,0.2-0.6,0.4-0.7,0.5
		c-0.2,0.4-0.3,1.2-0.5,1.7c-0.3,0.8,0,0.7,0.2,1.5c0.2,0.5-0.2,1.1,0.2,1.5L70.8,72.9z"/>
	<path class="st0" d="M107.9,79.5c0.5-0.1,0.8,0.3,1.3,0.2c0.4,0,0.8-0.4,1.2-0.4c0.7,0,2,1.6,1.1,2.1c-0.7,0.4-0.5-0.6-0.8-0.7
		c-0.6-0.2-0.5,0.3-0.7,0.7c-0.6,0.9-1.3,1.2-1.2-0.2c0.2-0.1,0.4-0.2,0.5-0.3c-0.5-0.4-1.8-0.2-1.5-1.3L107.9,79.5z"/>
	<path class="st0" d="M109.4,78.1c0.5,0,1.2,0.3,1.5-0.2c0.3-0.5-0.3-1.1-0.8-1c0-0.5,0.6-0.7,0.7-1.2c0-0.8-0.7-0.8-1.2-1.2
		c-0.6-0.6-1-2.4-1.9-2.4c-0.2,0.5-0.5,0.7-0.9,1.1c-0.4,0.4-0.9,0.2-0.3,0.7c0.4,0.3,0.8,0,1.1,0.6c0.2,0.4-0.2,1-0.4,1.2
		c0.4,0.4,0.6,1.1,0.8,1.7c0.3,0.8,0.1,0.8,1.1,0.9L109.4,78.1z"/>
	<path class="st0" d="M148.7-57.9c-0.2-0.3-0.4-0.4-0.5-0.4c-0.6-0.1-0.8-0.7-0.8-0.9c0-0.1-0.1-0.2-0.1-0.2
		c-0.1-0.1-0.1-0.1-0.2-0.2c-0.2,0.2-0.5,0.2-0.7,0.2c-0.2,0-0.3,0-0.4,0c-0.1,0-0.2,0.1-0.4,0.1c-0.2,0-0.3,0.1-0.5,0.1l-0.2,0.1
		c-0.3,0.2-0.8,0.4-1.3,0.2c-0.2-0.1-0.5-0.1-0.5-0.1c0,0-0.1,0.1-0.1,0.1c-0.2,0.2-0.5,0.7-1.2,0.6c-0.1,0-0.2,0-0.2-0.1h0l-0.2,0
		c-0.2,0.1-0.6,0.2-1-0.1c-0.2-0.1-0.3-0.2-0.4-0.4L140-59c-0.3-0.4-0.4-0.4-0.7-0.4l-0.2,0H139c0,0-0.1,0.1-0.1,0.1
		c-0.1,0.1-0.1,0.2-0.1,0.2c-0.1,0.2-0.4,1-1.1,0.8c-0.3,0-0.5-0.1-0.8-0.1h-0.2c-0.1,0.1-0.1,0.2-0.2,0.2c0,0.1-0.1,0.1-0.1,0.2
		c-0.2,0.3-0.5,0.7-0.9,0.9c-0.3,0.1-0.5,0.1-0.7,0.1c-0.1,0-0.2,0-0.2,0c0,0-0.1,0.1-0.1,0.2c0,0.1-0.1,0.2-0.1,0.2
		c-0.1,0.1-0.1,0.2-0.2,0.2c-0.1,0.1-0.1,0.2-0.2,0.2c-0.1,0.2-0.2,0.3-0.3,0.4c-0.2,0.2-0.2,0.2-0.2,0.2c-0.2,0.2-0.5,0.6-1,0.6
		h-0.1c-26.3-1.5-53-2.5-79.3-3.1L50.8,1.3c0.3-0.1,0.6-0.1,0.9,0c0.2,0.1,0.3,0.2,0.4,0.3c0,0,0.2,0,0.3,0l0.3,0
		c0.3,0,0.5,0,0.8,0.1c0.2,0.1,0.3,0.2,0.4,0.3C53.9,2,53.9,2,54,2c0.3,0.1,0.5,0.2,0.8,0.4l0.6,0.3l0,0c0.1-0.2,0.4-0.7,1-0.8
		c0.2,0,0.4,0,0.5,0c0.2,0.1,0.4,0.2,0.4,0.2c0,0,0.1,0,0.1,0c0.1,0,0.3,0,0.4,0c0.2,0,0.4,0,0.5,0c0.2,0,0.2,0,0.4,0
		c0.2,0,0.3,0,0.4,0c0,0,0.1-0.1,0.2-0.1C59.5,2.1,59.6,2,59.7,2c0.4-0.1,1.2-0.3,1.7,0c0.4,0.2,0.5,0.6,0.5,0.8
		C62,3,62.1,3.2,62.2,3.2c0,0,0.1,0.1,0.2,0.1c0.2,0.1,0.4,0.2,0.5,0.3c0.3,0.3,0.4,0.7,0.4,1V5c0,0.1,0,0.4,0,0.5
		c0.2,0.1,0.5,0.2,0.7,0.4c0.2,0.3,0.2,0.7,0.2,0.9v0.3c0,0.2,0,0.5,0,0.7l0,0.2c0,0.1,0.1,0.2,0.3,0.3c0.3,0.2,0.7,0.4,0.8,0.9
		c0,0.1,0,0.1,0.1,0.2c0,0,0,0,0,0c0-0.1,0.1-0.2,0.1-0.3c0-0.2,0-0.4,0.1-0.5c0.1-0.2,0.1-0.3,0.2-0.4l0.1-0.2c0-0.2,0-0.5,0.2-0.8
		c0.2-0.2,0.6-0.5,1-0.5c0.2,0,0.5,0.1,0.7,0.3C67.9,7.4,68,7.8,68,8v0l0.2,0c0.4,0,0.9-0.1,1.2,0.4l0.2,0.2c0-0.3,0,0,0,0
		c0-0.1,0.1,0,0,0c0.1,0,0.1,0.1,0.2,0.1c0.3,0,0.5,0,0.8,0.1c0.7,0.3,1.3,0.8,1.9,1.3c0.8,0.8,0.5,1.4,0.4,1.6
		c-0.2,0.3-0.5,0.4-0.8,0.5h0c0.1,0.2,0.2,0.4,0.3,0.5c0.1,0.1,0.1,0.2,0.2,0.3c0.2,0.4,0.2,0.8,0.2,1.1c0,0.3,0,0.4,0.3,0.5
		c0.2,0.1,0.5,0.2,0.7,0.2c0,0,0.1,0,0.2,0c0.3,0,1-0.1,1.3,0.5c0.1,0.3,0.1,0.6,0.1,1c0,0.2,0,0.4,0,0.5c0-0.1,0.2,0,0.3,0
		c0.2,0,0.5,0,0.8,0.3c0.2,0.2,0.3,0.5,0.3,0.7l0.1,0.2L77,18c0.1,0.2,0.4,0.5,0.8,0.7c0.3,0.2,0.7,0.5,0.9,0.8
		c0.1,0.2,0.2,0.3,0.3,0.5c0.1,0.2,0.2,0.3,0.3,0.4c0.1,0.1,0.2,0.2,0.3,0.3c0,0,0.1,0.1,0.1,0.1c0,0,0.1,0.1,0.2,0.1l0.2,0.1
		c0.1,0.1,0.3,0.1,0.4,0.2c0.2,0.1,0.3,0.1,0.5,0.2c0.4,0.2,0.7,0.5,1,0.8c0.3,0.3,0.4,0.6,0.4,0.9c0,0.1,0,0.1,0,0.2
		c0,0.2,0.1,0.3,0.2,0.4c0.1,0.1,0.1,0.2,0.2,0.3c0.1,0.3,0.2,0.4,0.4,0.6c0.3,0.2,0.5,0.5,0.7,0.8c0.2,0.2,0.3,0.4,0.5,0.5
		c0.1,0.1,0.2,0.2,0.4,0.4l0.2,0.1c0.1,0.1,0.2,0.1,0.3,0.2c0,0,0,0,0,0c0.1-0.3,0.3-0.6,0.8-0.6v0c0-0.5,0.1-1,0.6-1.4l0,0
		c0-0.3,0-0.5,0.2-0.7c0.4-0.6,1-0.6,1.4-0.5h0.4c0.6,0,1.4,0,2,0.4c0.2-0.2,0.5-0.3,0.9-0.3c0.4,0,0.8-0.1,1.1,0.1
		c0.3,0.1,0.5,0.4,0.6,0.5c0,0.1,0.1,0.1,0.1,0.2c0.3,0.1,0.4,0.1,0.7,0.3c0.1,0.1,0.2,0.2,0.4,0.4c0.1,0.2,0.2,0.3,0.3,0.4
		c0.2,0,0.4,0,0.6,0h0.4c0.6,0,0.8,0.2,1,0.6c0.1,0.2,0.2,0.3,0.2,0.4l0.4,0c0.3,0,0.8-0.1,1.1,0.2c0.1,0.1,0.2,0.2,0.3,0.2
		c0.2,0.1,0.3,0.2,0.4,0.3c0.1,0,0.2,0,0.4-0.1c0.1-0.1,0.3-0.1,0.4-0.2c0-0.1,0-0.2,0-0.2c0-0.7,0.4-1.2,1.1-1.2
		c0.6-0.1,0.9,0.2,1.1,0.5c0.1,0.1,0.1,0.1,0.2,0.2c0,0,0.1,0.1,0.2,0.1c0.1,0,0.2,0.1,0.3,0.1c0.3,0.2,0.4,0.3,0.5,0.5
		c0.1,0.2,0.2,0.3,0.2,0.3c0.2,0,0.3,0.1,0.5,0.2h0.6c0.1,0,0.2,0,0.3,0c0.2,0,0.5,0,0.8,0c0.4,0.1,0.6,0.3,0.8,0.5
		c0.1,0.1,0.1,0.1,0.2,0.1c0,0,0.1-0.1,0.1-0.1c0.8-0.8,1.6-0.6,2.3-0.5l0.3,0.1c0.1,0,0.2,0,0.2,0c-0.1-0.1-0.1-0.3,0-0.6
		c0.2-0.3,0.4-0.7,1.1-0.5c0.2,0,0.3,0.1,0.5,0.2l0.2,0.1c0.2,0.1,0.4,0.1,0.5,0.1l0.2-0.1c0.3-0.1,0.5-0.1,0.6-0.1
		c0.6,0,1.2,0.2,1.5,0.5c0.3,0.2,0.5,0.4,0.8,0.6c0.1,0.1,0.2,0.1,0.2,0.1c0.2,0.1,0.5,0.2,0.7,0.5c0.2,0.2,0.4,0.4,0.4,0.7
		c0,0.3-0.1,0.5-0.2,0.6c0,0,0.1,0.1,0.1,0.1c0.2,0.2,0.2,0.5,0.3,0.7c0.1,0.4-0.1,0.7-0.2,0.8c0,0.2,0,0.3,0.2,0.4
		c0.1,0.2,0.2,0.4,0.3,0.6c0.1,0.3,0.1,0.5,0.1,0.8c0,0.2,0,0.2,0,0.3c0,0,0,0.1,0,0.1c0.1,0.1,0.2,0.1,0.3,0.2
		c0.2,0.3,0.2,0.6,0.2,0.8V34c0.1,0,0.2,0.1,0.2,0.2l0.2,0.2l0.2,0.3V35c0,0.3-0.2,0.5-0.3,0.7c0,0.1-0.1,0.1-0.1,0.2
		c0,0.1-0.1,0.2-0.1,0.3c-0.1,0.2-0.1,0.4-0.2,0.6c0,0,0,0,0,0c0.1,0,0.2,0,0.3,0c0.5,0,0.7,0.2,1,0.3l0.2,0.1
		c0.2,0.2,0.5,0.3,0.7,0.5c0.3,0.2,0.6,0.5,1,0.7c0.2,0.1,0.3,0.2,0.4,0.2c0.1,0.1,0.2,0.1,0.3,0.2c0.2,0.2,0.4,0.3,0.6,0.4l0.2,0.2
		c0.2,0.2,0.4,0.3,0.6,0.5c0.1,0.1,0.2,0.2,0.4,0.3l0.3,0.2c0.2,0.2,0.4,0.3,0.6,0.5c0.2,0.2,0.5,0.4,0.7,0.5
		c0.1,0.1,0.2,0.1,0.3,0.2c0.2,0.1,0.4,0.2,0.6,0.3l0.3,0.2c0.1,0.1,0.3,0.2,0.4,0.2l0.2,0.1c0.3,0.2,0.6,0.3,0.8,0.5
		c0.1,0.1,0.2,0.2,0.3,0.2c0.1,0.1,0.1,0.1,0.2,0.1c0.2,0.1,0.3,0.2,0.3,0.3l0.2,0.2c0.1,0.1,0.2,0.1,0.4,0.2
		c0.1,0.1,0.1,0.1,0.2,0.1l0.2,0.1c0.1,0.1,0.2,0.2,0.4,0.2c0.2,0.1,0.4,0.2,0.6,0.3c0.1,0.1,0.2,0.2,0.2,0.2
		c0.1,0.1,0.2,0.2,0.2,0.2c0.1,0.1,0.3,0.2,0.4,0.3c0-0.3,0-0.7-0.1-1.1c-0.3-0.7-0.7-0.8-0.6-1.7c0.1-0.6,0.4-1.1,0.5-1.7
		c0.1-0.8,0-1.1,0.5-1.8c0.5-0.8,0.9-1,1.2-1.9c0.4-1.3,1.3-2.3,1.6-3.5c0-0.9-0.2-2,0.2-2.9c0.2-0.6,0.9-1,1.1-1.6
		c0.1-0.3-0.2-0.7-0.1-1c0.3-0.8,0.9-0.8,1.4-1.5c0.2-0.4,0.1-0.9,0.4-1.4c0.3-0.5,1-0.7,1.3-1.2c0.4-0.6,0.4-1.8,1.2-2.2
		c0.5-0.2,2.1,0.4,2.1-0.4c0.1-0.8-1.7-0.3-0.6-1.5c0.9-1.1,0.8,0.6,1.3,0.9c0.5-0.6,0-1,0-1.6c-0.1-1,0.1-0.8,0.5-1.6
		c0.5-1.2,0.6-2.6,1.2-3.9c0.3-0.6,0.5-1.3,0.9-1.9c0.5-0.7,1.2-0.9,1.8-1.5c0.4-0.5,0.5-1.1,0.9-1.7c0.5-0.5,1.1-0.7,1.1-1.6V6.8
		c0.5-0.7,0.5-1.4,0.8-2.1c0.4-1,0.7-0.7,1.3-1.3c1-0.9,1.5-2.6,2.1-3.7c0.8-1.3,1.3-2.6,2.8-2.9c1.6-0.3,2.8-0.3,3.8-1.8
		c0.4-0.6,0.5-1.1,1.1-1.5c0.5-0.3,1.2-0.2,1.8-0.4c1.5-0.7,1-1.7,1-3c0.1-2,2.5-3.9,3.8-5.3c0.9-1,0.6-1.7,1.1-2.7
		c0.5-1.1,1.4-1.5,1.3-2.9l0.1-0.4c0.2-0.6,0.8-0.8,1-1.2c0.3-0.5,0.4-0.9,0.5-1.5c0.1-0.6,0.5-0.6,0.3-1.3
		c-0.1-0.5-0.6-0.8-0.7-1.3c-0.3-2.2,2.1-4.1,2.9-5.9c0.4-0.9,0.3-1.9,0.7-2.8c0.4-0.9,1-1.9,1.4-2.9c0.5-1,1-2,1.2-3.2
		c0.2-1.3,0.2-1.5,0.9-2.6c0.3-0.5,0.4-0.7,0.6-1.3c0.2-0.6,0.1-0.8,0.6-1.4c1-1.1,1.4-1,1.4-2.6l0.2-0.6c0-1-0.2-2.1,0.1-3
		c0.5-1.8,1.1-1.5,0-3.1c-1-1.5-1-3.1-1.2-4.9v-0.1H179c-0.1,0-0.1,0.1-0.2,0.1c-0.2,0-0.5,0-0.5,0c0,0-0.1,0.1-0.2,0.2l-0.2,0.2
		c-0.2,0.2-0.4,0.3-0.8,0.3h-0.4c-0.3,0-0.6,0-0.8,0.1c-0.2,0.1-0.4,0.2-0.8,0.2c-0.2,0-0.4,0-0.7-0.2c-0.2-0.1-0.2-0.2-0.3-0.2
		c-0.2-0.1-0.4-0.1-0.4-0.1c-0.1,0.1-0.2,0.2-0.5,0.2c-0.2,0-0.3,0-0.4,0c-0.2,0-0.3,0-0.4,0c-0.4,0-0.9,0.1-1.2-0.2
		c-0.3-0.2-0.4-0.4-0.5-0.6c0,0,0,0,0,0.1c-0.1,0.1-0.1,0.2-0.2,0.2c-0.4,0.5-0.9,0.6-1.2,0.6l-0.2,0c-0.1,0-0.2,0-0.2,0.1
		c-0.2,0.2-0.3,0.4-0.7,0.4c-0.3,0.1-0.5,0-0.6-0.1c-0.2,0-0.2,0-0.3,0h-0.3c-0.1,0-0.2,0-0.4,0.1c-0.2,0-0.3,0.1-0.5,0.1
		c-0.2,0-0.4,0-0.4,0.1c0.1,0.2,0.2,0.4,0.2,0.5c0,0.1,0.1,0.1,0.2,0.2c0.2,0.2,0.5,0.6,0.5,1.1c0,0.5-0.2,0.7-0.4,0.8
		c0,0.2-0.1,0.3-0.2,0.5c-0.2,0.2-0.4,0.4-0.5,0.4c0,0.1,0.1,0.1,0.1,0.2l0.1,0.2c0.1,0.2,0.2,0.5,0.1,0.8c-0.1,0.2-0.2,0.3-0.5,0.5
		c-0.2,0.1-0.3,0.1-0.5,0.1c-0.1,0-0.2,0-0.2,0h-0.8v0c-0.1,0-0.2,0.1-0.3,0.1l-0.1,0l-0.1,0c-0.3,0.3-0.8,0.8-1.4,0.5
		c-0.4-0.2-0.5-0.5-0.5-0.6c0,0-0.1,0.1-0.2,0.2c-0.4,0.3-0.8,0.3-1,0.3c-0.1,0-0.2,0-0.2,0c0,0-0.1,0.1-0.1,0.1
		c-0.1,0.1-0.1,0.2-0.2,0.2c-0.1,0.1-0.2,0.3-0.3,0.5c0,0.1,0,0.3-0.1,0.5c-0.1,0.3-0.3,0.4-0.4,0.5c-0.5,0.4-0.8,0.4-1.1,0.4
		c-0.3,0-0.5,0-0.8-0.3c-0.2-0.2-0.3-0.4-0.4-0.6c-0.3-0.7-0.3-1.2-0.3-1.8v-0.3v-0.2c-0.2-0.2-0.3-0.4-0.4-0.5
		c-0.1-0.1-0.1-0.2-0.2-0.3l-0.2-0.2c0,0-0.1,0.1-0.1,0.1c-0.2,0.1-0.5,0.1-0.8,0l-0.4,0l-0.1-0.3c-0.1-0.2,0-0.4,0-0.5l0-0.1
		l-0.1-0.1c-0.3-0.4-0.4-0.6-0.6-0.8c-0.1-0.1-0.2-0.1-0.4-0.1c-0.1,0-0.2-0.1-0.4-0.1c-0.3-0.1-0.5-0.3-0.6-0.5
		c0,0-0.1-0.1-0.1-0.1c-0.1,0-0.1,0-0.2,0.1c-0.3,0.1-0.5,0.2-0.7,0.3c-0.3,0.1-0.6,0.2-0.9,0.3c-0.4,0.1-0.7,0.1-1.1,0.1h-0.2
		 M21.6-94.6l2.7-113.9c-1.7-1.7-2.2-3.2-4.4-4.1c-0.9-0.3-1.8-0.7-2.6-1.2c-0.6-0.4-1.8-0.9-2.3-1.5h-0.2c-0.4-0.3-0.7-0.7-1-1.1
		l-0.3,0c-0.8-0.4-1,0.3-1.7,0.3c-0.7,0-0.8-0.7-1.7,0.1c-0.3-2.3-3.7-3-5-4.9c-0.8-1.2-1.3-1.4-2.4-1.9c-1.1-0.5-1.7-1.5-2.7-2.2
		c-0.7-0.5-1.5-1.2-2.2-1.6c-0.9-0.4-1.8,0-2.4-1.4c-0.4-0.9,0.1-1.9,0.5-2.7c0.2-0.4,0.5-0.6,0.8-1c0.2-0.3,0.2-0.8,0.5-1.2
		c0.6-0.9,1.2-0.9,1.8-1.8c0.5-0.8,0.9-1.9,2-1.8c-0.1-1,0.7-1.7,0.6-2.7l0.1-0.5c0.4-0.1,1.2-2.1,1.3-2.5c0.5-2.2-0.7,0-1.2,0.4
		c-0.9,0.6-0.5,0-0.8-0.7c-0.1-0.2-0.4-0.9-0.5-1.1c0,0.1,0.3-1.4,0.1-1.2c0.2-0.4,0.3-0.6,1-0.5c0-0.5-0.6-1-0.5-1.5
		c0.2-0.7,0.8-0.8,1.2-0.3c0.1-0.2,0.3-0.4,0.3-0.7c0.3,0.2,0.5,0.7,0.6,1c0-0.8,0.3-1.6,0.9-2.1c0,0.4-0.1,1,0.3,1.2
		c0.5,0.3,1-0.3,1-0.8c1,0.7,1.1-1.1,1.4-1.6c0.4,0.5,0.2,1.5-0.1,2.1c-0.4,0.9-0.8,1.5,0.3,1c-0.1,0.1,0.7-0.8,0.6-0.7
		c0.3-0.3,0.5-0.6,0.8-1c0.7-1,0.8-1.2-0.2-1.9c0.6,0.1,2,0.1,1.4-0.8c-0.4-0.6-1.4-0.2-1.6-1.2c0.5,0.1,0.8-0.1,0.8-0.6
		c0.7,0.5,0.7,0.5,1.1,0c0.1-0.1-0.2-0.6,0-0.9c0.1-0.2,0.6,0.1,0.7,0c0.6-0.7,1-1.6,1.6-2.4c0.6-0.8,1.8-1.4,1.3-2.5
		c-0.5-0.9-1.5-1.3-2.5-1.2c0,0.1,0,0.2,0,0.3c0.2,0,0.4,0.2,0.5,0.2c-0.8,2.1-1.9-0.1-1.9-1.2v-0.1c-0.1-0.2-0.2-0.8-0.4-0.9
		C9.4-261.8,9-262,9-261.9c0.3,0.3-1.1-0.7-0.6-0.5c-0.5-0.2,0-0.3-0.7-0.2c-0.2,0.1-0.4,0.7-0.5,0.8c-0.3,0.2-0.6,0.1-0.8,0.2
		c-0.6,0.4-0.9,0.9-1.7,1c-0.1,1.8,1.9,0.4,2.4,1c0.2,0.3-0.1,1.7-0.4,2c-0.5,0.6-1.2,0.5-1.9,0.5c-1.3,0-0.7-0.2-1.7,0.8
		c0.1-0.8-0.6-0.8-0.6-1.3c0-0.6,1-1,0.9-1.6c-0.2-0.8-1,0.2-1.3-0.5c-0.2-0.4,0.8-1.2,1-1.5c-1,0-2.9,1.4-3.5,2.2
		c-2.1-0.8,0.2-2.1,0.8-2.8c0.4-0.5,0.2-0.9,0.7-1.6c0.2-0.4,1.5-1.1,1.1-1.7c-0.6-1-1.2,0.5-1.2,0.6c-0.6,0.7-0.8,0.6-1.6,0.9
		c-0.9,0.3-2.9,0.7-1.2,1.9v0.1c-0.2,0.5-0.5,0.3-0.8-0.2c-0.7,0.9-1.3,0-2,0.2c-0.6,0.1-1.5,0.8-1.5,1.3c0,0.4,1.4,0.8,0,1
		c-0.6,0.1-1.1-0.4-1.6-0.6c-0.3-0.1-0.6,0.1-0.9-0.1c-0.3-0.2-0.4-0.8-0.6-1c-0.2-0.2-0.6,0.1-0.8-0.1c-0.3-0.2-0.4-0.6-0.6-0.8
		c-0.2-0.2-0.8-1.2-1.1-1.3c-0.7-0.2-1,0.2-1.6,0.6c-1.2,0.8-2.3,0.8-3.4-0.2c-0.9-1-0.8,0.9-1.7-0.1c-0.2-0.2-0.2-0.8-0.5-1
		c-0.2-0.2-0.8-0.1-1-0.5c-0.6,0.5-1.2,1-2,0.5c-1.3-0.7-0.1-1,0.5-1.8c-0.9-0.6-1.7-0.2-2.5,0.2c-0.8,0.4-1.8,0.2-2.5,0.8
		c0.1-0.2,0.1-0.5,0.3-0.8c-0.4,0.2-0.9,0.2-1.1-0.2c-0.5,0-0.9,0-1.4,0c0.3-0.2,0.4-0.4,0.5-0.6c-0.7-0.1-1.4,0.4-2.1,0.2
		c-0.7-0.2-1-1.1-1.5-1.7v-0.2c-0.1-0.8-1.2-2.9-2.1-2.3c1.1,1.2-0.4,0.8-1,1.1c-0.7,0.3-0.8,1.1-1.6,0.6c-0.5-0.3-0.6-1.5-0.7-2
		c-0.1-0.7,0.1-1.3-0.3-1.8c0.4-0.4,0-1.7-0.5-2.1c-0.2,0.3-0.5,0.5-0.9,0.6c0.4,0.4,0.7,0.9,0,1.1c0.3,0.9,1.2,1.3,0.5,2.4
		c-0.5-0.1-0.8-0.6-1.2-1.1c-0.1,0.2-0.2,0.3-0.2,0.5c-0.3-0.4-0.3-1.3-0.7-1.9c-0.8,0.4-0.5,0.9-0.7,1.6c-0.4-0.5-1-1.5-1.6-1.7
		c-0.2,0.5,0.5,1.1,0.7,1.7c0.2,0.8,0.1,0.2,0,1c-0.1,0.3-0.1,0.7-0.1,1c-0.7-0.1-0.4-1-0.7-1.5c-0.1,0-0.2,0.1-0.2,0.2
		c-0.1-1.2-1-1.3-1.7-2c0,0.3-0.2,0.8-0.2,1.1c-0.4,0-0.6-0.1-0.9-0.5c-0.1,0-0.1,0.2-0.2,0.3c-0.1,0-0.3-0.1-0.4-0.1
		c-0.2,0.9,0.9,1.8,1.7,1.9c-0.8,0.8,0.5,1.1,1.1,1.2c-0.1,0.3,0,0.7-0.1,1c1.1,0.1,1.8-0.6,2.8-0.9c1.2-0.4,1.8-0.1,2.8,0.6v0.1
		c0.1,0.5-0.4,1.2-0.4,1.4c0.1,0.7,0.6,0.6,1.2,1c0.7,0.5,1.1,1.2,0.9,2.3c-0.2,1.1-1.2,1.5-1.9,2.1c-0.3,0.2-1,0.9-1.3,1
		c-0.5,0.2-0.9-0.7-1.3,0.2c-1-0.9-1.8,0.8-2.9,0.8c-1.4,0-1.5-1.5-2.8-0.3l-0.3-0.1c-0.5,1-2.9,0.8-3.9,0.6c-2-0.4-0.7-2.1-1.7-2.9
		c-0.8,0.5-0.6,1.5-1.3,2.2c-0.5-0.3-1-1.2-1.6-0.6c-1.1-1.4-0.8,1.8-0.6,2.3c-0.7-0.2-2.5-0.1-2,1.2c0.4-0.1,0.6-0.3,0.8-0.6
		c0.4,0.2,0.4,0.3,0.1,0.7c0.7,0.5,0.3,0.9-0.4,0.8c0.3,0.2,0.6,0.5,0.8,0.8c-0.2,0.1-0.5,0.4-0.8,0.5c-0.3-0.3-0.4-0.6-0.5-1
		c-0.1,0-0.3,0-0.4,0.1c0.1-0.6-0.4-1.9-1.2-1.8c-0.4-0.2-0.9-0.3-1.4-0.2v0.1c0.1,0.4,0,0.8,0,1.3c0,0.2-0.2,0.4-0.1,0.6
		c0,0.2,0.3,0.3,0.3,0.6c-0.1,1.4-1.1,0.5-1.9,0.3c0.2,0.8-0.4,0.6-0.6,1c-0.1,0.3-0.2,0.9-0.2,1.2c-0.2,0.6-1.1,2.5-1.8,1.2
		c-0.8,0.2-0.6,1-0.6,1.6c0,0.9,0.1,1.1,0.5,1.6c0.2,0.3,1.6,1.2,1.5,1.5c-0.1,0.3-1.2,0.5-1.6,0.8c-0.1,0.1-0.4,0.6-0.5,0.8
		c-0.2,0.2-0.6,0.6-0.8,0.7c-1,0.5-0.7-0.2-1.6-0.3c-1.5-0.2-1.4,2.2-1.4,3.1l0.3,0.5c-0.3,0.2-0.8,0.7-0.9,1
		c-0.2,0.4,0.2,0.7,0.1,1.1c-0.3,1.2-1.4,0.6-1.7,1.5c-1.2-0.8-1.2,0.2-1.3,1.1c-0.1,0.6-0.3,0.6-0.5,1.1c-0.1,0.2-0.6,1.1-0.6,1.2
		c-0.1,0.9,0,0.5,0.6,1c0.4,0.3,0.7,0.8,1.2,1c0.9,0.5,1.8-0.3,2.7,0.1c-0.5,0.7-1.3,0.5-1.8,1.1c0.9,1.4,1.5,1.8,3.1,1.9
		c0.2,0.9-0.7,0.6-1.3,0.6c-0.9,0-0.9-0.1-1.2,0.7c-0.3,1,1.5,3.1-0.1,2.8c0,0.1-0.1,0.3-0.1,0.4c-0.2-0.2-0.6-1-0.7-1.2
		c-0.2-0.4-0.5-1.2-0.9-1.5c-0.2-0.2-0.6-0.1-0.8-0.2c-0.2-0.1-0.4-0.4-0.5-0.4c-0.5-0.2-0.9-0.5-1.4-0.4c0.2,0.5,0.4,2.1,0.3,2.7
		c-0.2,1.8-0.7,0.1-0.9-0.5c-0.2-0.5-0.7-0.9-1.3-1.2l5.6,133.5C-41.1-94.2-9.7-94.5,21.6-94.6L21.6-94.6z M53.9-94.7v0.6l0.6,0
		l-1.4,34.9c26.3,0.6,52.9,1.7,79.3,3.1c0,0,0.1-0.1,0.1-0.1c0.1-0.1,0.2-0.2,0.2-0.3l0.2-0.1l0.1-0.1c0.1-0.1,0.2-0.2,0.2-0.3
		l0.2-0.3c0.1-0.2,0.3-0.6,0.8-0.7c0.3-0.1,0.5-0.1,0.8-0.1c0.1,0,0.2,0,0.2,0c0.1,0,0.2-0.3,0.3-0.4c0.1-0.1,0.1-0.2,0.2-0.3
		c0.1-0.2,0.2-0.3,0.3-0.5c0.3-0.3,0.6-0.2,0.8-0.2c0.3,0,0.5,0,0.8,0.1v0c0.1-0.2,0.1-0.3,0.2-0.5c0.2-0.3,0.3-0.5,0.6-0.6
		c0.2-0.1,0.5-0.1,0.7-0.1c0.8,0,1.2,0.4,1.6,0.8c0.1,0.1,0.2,0.2,0.2,0.2c0,0,0.1,0.1,0.1,0.1c0.1-0.1,0.2-0.1,0.4-0.1
		c0.2,0,0.4,0,0.5,0.1v0c0,0,0.1-0.1,0.1-0.1c0.1-0.2,0.3-0.4,0.6-0.5c0.5-0.2,1.2,0,1.5,0.1c0,0,0.1-0.1,0.2-0.1
		c0.1,0,0.2-0.1,0.2-0.1c0.3-0.1,0.5-0.2,0.7-0.2c0.1,0,0.2,0,0.3-0.1c0.2-0.1,0.5,0,0.6,0h0.2c0.8-0.6,1.5,0.1,1.7,0.4
		c0.2,0.2,0.3,0.5,0.4,0.7c0,0.1,0.1,0.2,0.1,0.2c0.4,0.1,0.7,0.3,0.9,0.6c0.2,0,0.5,0,0.6,0c0.2-0.1,0.5-0.1,0.7-0.2
		c0.2-0.1,0.5-0.2,0.7-0.3c0.4-0.2,0.9-0.3,1.4-0.1c0.2,0.2,0.3,0.4,0.4,0.6c0.1,0.1,0.2,0.1,0.3,0.1c0.2,0.1,0.5,0.2,0.8,0.4
		c0.4,0.3,0.6,0.7,0.9,1.1c0.1,0.2,0.2,0.3,0.3,0.5c0.1,0,0.2,0,0.2,0c0.6,0,0.8,0.4,1,0.6c0.2,0.2,0.2,0.3,0.3,0.5
		c0.1,0.1,0.2,0.3,0.3,0.4c0.3,0.4,0.3,0.7,0.3,1v0.4c0,0.5,0,0.8,0.1,1.2c0,0.1,0.1,0.2,0.1,0.2c0.2,0,0.2,0,0.3-0.1l0.1-0.1
		c0-0.1,0-0.2,0.1-0.4c0.1-0.3,0.3-0.7,0.5-0.9c0,0,0.1-0.1,0.1-0.1c0.2-0.2,0.4-0.5,0.7-0.6c0.2-0.1,0.4-0.1,0.6,0
		c0.1,0,0.2,0,0.2,0c0.2-0.2,0.5-0.5,1-0.5h0.1c0.4,0,0.7,0.2,0.9,0.5l0.1-0.1c0.2-0.2,0.4-0.2,0.6-0.3l0.2,0l0.3-0.1l0.3-0.1h0.6
		c-0.1-0.2-0.1-0.3-0.1-0.5c0-0.6,0.4-0.9,0.6-1l0.1-0.1c0-0.1,0-0.3,0.2-0.5c0-0.1,0.1-0.1,0.1-0.1c-0.1-0.1-0.2-0.2-0.2-0.3
		c-0.1-0.1-0.2-0.2-0.3-0.3c0,0-0.7-1.1-0.4-1.7c0.3-0.6,1.1-0.6,1.5-0.7c0.1,0,0.2,0,0.3-0.1c0.2-0.1,0.4-0.1,0.7-0.1h0.2
		c0.1,0,0.3,0,0.4,0c0.1,0,0.2,0.1,0.3,0.1c0.3-0.3,0.6-0.5,1-0.5c0.2,0,0.4,0,0.5,0c0.1-0.1,0.1-0.1,0.1-0.2
		c0.2-0.3,0.6-1.1,1.4-0.8c0.5,0.1,0.7,0.5,0.8,0.8c0.1,0.1,0.4,0.1,0.6,0.1c0.1,0,0.3,0,0.4,0h0.2c0.1,0,0.1,0,0.2,0
		c0.1-0.1,0.2-0.1,0.3-0.2c0.3-0.1,0.8,0,0.8,0c0.3,0,0.5,0.2,0.7,0.3c0.1,0,0.1,0.1,0.1,0.1c0.1,0,0.1,0,0.3,0
		c0.1-0.1,0.2-0.1,0.3-0.2c0.4-0.1,0.8-0.1,1.2-0.1h0.3l0.2-0.2c0.1-0.1,0.3-0.2,0.5-0.3c0.4-0.2,0.8-0.2,1.1-0.1h0.2
		c0-0.6,0-1.2-0.2-1.7c-0.3-0.9-0.7-1.8-0.9-2.8c-0.2-0.9-0.6-1.6-0.3-2.5c0.1-0.2,0.5-0.2,0.6-0.5c0.1-0.2-0.1-0.4,0-0.6
		c0.1-0.4-0.1-0.9,0.1-1.3c0.2-0.6,0.6-0.7,0.7-1.3c0-0.3-0.2-0.8-0.2-1.1c-0.1-0.9,0-1.8,0-2.6l0.1-0.5c0-2.2,0.4-3.8,1.8-5.5
		c-1.1-0.8-2.3-2.3-2.4-3.7c0-0.5-0.1-1.6,0.1-2.1c0.3-0.9,1.2-1.2,0.7-2.2c-0.8-1.5-3.2-0.8-3.7-2.9c-0.4-1.8,0.8-3.1-0.9-4.4
		l-0.2-0.1c-2.4-0.9-3-3.8-3.6-6c-0.3-1.1-3.2-5.6-3.4-2.7c-0.9-0.9-2.5-1.8-2.9-3.1c2.1,0.5,0.3-3.6-0.3-4.3
		c-0.1-0.2-1.2-0.6-1.4-0.6c-0.9-0.1-0.4,0.2-0.9,0.4c-0.6,0.2-1,0.5-1.8,0c1.2-0.2,0.4-1.8,0.1-2.4c0.5-0.3,0.4-0.8,0.2-1.2
		l-0.1-0.2c0-1.8,0.8-3.3,0.8-5c0-0.8-0.3-1.5-0.5-2.2c-0.2-0.6-0.4-0.5-0.3-1.2c0-0.3,0.6-0.3,0.5-0.8c-0.1-0.9-1.3-1.2-1.8-1.8
		c-0.2-0.3-0.5-2.4-1-1.3c-0.3,0.6,0.4,1.6,0.5,2.2c0.1,0.6,0,1.4,0,2c-0.9-0.2-2.1-1.4-2.8-2.1c-0.6-0.8-0.6-2.7-1.4-3.2
		c-0.9-0.5-1.9,0.9-2,1.9c0,1,0.9,1.8,0.8,3h-0.1c-1.6-0.3-1.2-2.3-2.3-3c-0.5,0.3-0.8,0.8-1.1,1.3c-0.2-1.8-0.6-3.3-1.2-5
		c-0.6-1.6-0.3-3.3-0.3-5c0-0.4,0.4-0.7,0.2-1.1c-0.1-0.3-1-0.3-1.2-0.6c-0.4-0.7,0.3-1.5,0-2.3c-0.2-0.4-0.8-0.7-0.9-1.2
		c-0.1-0.5,0.5-0.6,0.5-1c0-1.3-1.2-1.4-1.6-2.4l-0.2-0.4c-1-1-2.2-1.2-3.1-2.3c-0.5-0.7-1.4-2.7,0.1-2.9c0.8-0.1,2.7,1.6,2-0.4
		c-0.1-0.3-0.7-0.4-0.8-0.7c-0.1-0.2,0.1-0.7-0.1-0.9c-0.3-0.4-0.2-0.8-0.9-0.9c0.2-1.1-1-1-1.3-2.2c-1-0.1-1.8-1.2-1.7,0.7
		c-0.6,0.1-1.6-0.8-1.8-1.5c-0.2-0.6,0.6-0.9,0.2-1.5c-0.2-0.3-1.4-0.4-1.7-0.5c-0.4-0.1-0.5-0.5-0.9-0.6c-0.4-0.1-0.6,0.6-1,0.5
		c-0.7-0.3-0.1-3.9-1.8-2.5c-0.5,0.5,0.3,1.4-0.7,1.3c-0.6,0-1.3-1.3-1.5-1.7l0-0.3c0.1-0.9-0.3-5.1-1.5-4.5
		c0.2,0.4,0.4,0.9,0.3,1.4c-0.8,0-2-0.3-2.6-0.8c-0.8-0.6-0.8-2.3-1.7-2.4c-0.3,0-0.7,0.8-1.1,0.9c-0.6,0.1-0.8-0.5-1.3-0.8
		c-0.7-0.6-1.4-1.1-2.2-1.6c-1.5-1.1-3.8-3-2.8-5.2c0.2-0.4,0.8-0.5,0.9-0.9c0,0.1,0.1-1.3,0.1-1.2c-0.1-1-0.9-1.9-0.3-2.9
		c-0.8-0.4-1.3,0.4-2-0.1c0.2,0.9,1.1,1.4,0.5,2.4c-0.6-0.4-0.9-1.2-0.9-2l-0.1-0.1c-1.8-1.1,0.6-3.6,1-4.8c0.5-1.4,0.5-3,0.3-4.4
		c-0.3-1.7-0.9-3.3-1.4-4.9c-0.2-0.5-0.5-0.5-0.4-1.1c0.1-0.4,0.9-0.3,0.8-0.9c-0.1-0.8-1.6-0.5-2.2-0.4c-0.9-0.6-1.2-2-1.7-3
		c-0.5-1.1-1.8-2.1-1.6-3.5c0-0.4,0.7-0.2,0.7-0.8c0-0.4-0.5-0.9-0.6-1.3c-0.1-0.9,0.3-1.6,0.1-2.6c-0.1-0.5-0.5-0.8-0.5-1.2
		c0-0.6,0.4-0.8,0.4-1.3c0-0.7-0.6-1.8-0.8-2.6c-0.3-1-0.2-1.5,0.3-2.4c0.3-0.5,1.3-1.8-0.4-1.4c-0.1-1.6,1-1.9,1.2-3.1
		c-0.4,0.1-0.6-0.2-0.9-0.3h-0.1v-0.8l0.1-0.4c-0.6-0.4-1.6-0.3-2.3-0.6c-1.2-0.6-0.9-1.4-1.6-2.2c-0.4-0.4-1.6-0.7-2.1-1.2
		c-0.9-0.8-1.1-1-0.5-2.2c-0.2,0-0.5-0.2-0.8-0.2c0.3-1,0.1-2.3-1-2c-0.5,0.2-0.8,1.2-1.7,1.2c-0.5,0-1.1-0.3-1.6-0.4
		c-0.8,1.9-2.4,3.2-4.3,1.5c-1.5-1.4-0.9-3.5-1.6-5c-0.6-1.3-1.6-2.9-1.3-4.5c0.2-0.8,0.8-1.6,0.8-2.4c0-0.4-0.4-0.6-0.5-1
		c0-0.3,0.2-0.7,0.2-1c0-1.2,0.6-3.7,0.2-4.7c-0.5,0.2-1,0.2-1.5,0.3c0,0.2,0.1,0.2,0.1,0.4c-1.4,0.2-0.6-1.8-0.3-2.5
		c0.7-1.5,0.9-1.7-0.9-2v-0.4c0-1.7-0.3-1.1-1.4-1.9c-0.8-0.6-0.8-1.4-0.5-2.4c0.2-0.7,1.7-2,0.9-2.9c-0.7-0.7-2.1,0.3-2.9-0.4
		c-0.8-0.6-0.5-1.6-0.4-2.6c0-0.5-0.1-1.1,0-1.6c0.1-0.5,0.5-1.4,0.5-1.6c0-0.7-0.9-1.6-1.1-2.7c-0.2-0.9,0.1-2.2-0.9-2.7
		c-0.1,0.1-0.4,0.3-0.5,0.4c0-0.2-0.1-0.6-0.1-0.8c-0.1,0-0.2,0-0.3,0c0-0.3-0.1-0.4-0.2-0.6c-0.6,0.2-1.8,1-2.4,1.4
		c0.5-0.2,2.6-2.4,2.5-2.8c-0.3-1.9-2.7,0.5-3.1,0.8c-1.5,0.9-2.3,0.4-2.6,2.5c-0.2,1.4-0.9,2.5-1.1,3.9l0.3-0.3
		c-0.3,1.4-0.7,2.8-1.3,4.1c-0.9,1.8-0.5,1.9,0.1,3.5c-0.6,0-0.4-0.1-0.9,0.3c-0.6-0.6-0.4-1.4-0.8-1.9c-0.5,0.5-1.1,1.6-1.2,2.3
		c-0.5,0.9-2.6,4.5-2.3,5.3c1.1-0.1,1.2-0.5,2.1-0.3c0.2,0,1.6,0.4,1.8,0.6c-0.2,0-0.6,0.2-0.9,0.2c0.2,0.6,0.5,1.2,0.4,1.8
		c-0.4-0.2-0.7-0.5-0.9-0.9c-0.7,0.4-2.2,1.9-2.6,2.7c-0.5,1,0.2,1.7,0.1,3l0.1,0.1c0.3,0.6,0,1.2,0,1.8c0,0.5,0.3,1.1,0.3,1.8
		c-1.2-1.8-2.4,2.1-2.7,3c-0.4,1.2-0.3,1.6,0.2,2.7c0.4,0.8,1.1,1.5,0.9,2.5l0.1,0.1c0.2,1.7-1.2,3-1.1,4.8c0.1,1.6,0.7,3,0.7,4.4
		c0.1,3.1-3.2,5.5-3.2,8.8l0.3,0.1c-0.2,0.5-0.5,1.2-0.6,1.8c-0.1,0.6,0.3,1.1,0.3,1.6c-0.1,1.2-1.4,2.1-1.7,3.3
		c-0.3,1.1-0.1,2-0.5,3c-0.5,1.1-2.3,2.1-2.5,3.3l-0.1,0.1c-1.1,1.2-1.4,1.9-1.7,3.4c-0.2,1.5-0.8,2.7-2,3.6c-1.9,1.4-4,2.1-6.3,2.1
		c-2.2,0-4.1-1.6-6-2.4c-1-0.4-1.9-1.2-2.9-1.7c-0.9-0.5-1.7-1.1-2.2-2.2c-0.3-0.8,0-1.9-0.4-2.6c-0.3-0.5-1.8-1.7-2.3-1.5l-0.2-0.1
		c-1.1,0.1-1.8-0.7-2.8-1c-0.8-0.3-1.7-0.3-2.5-0.5c-1.7-0.5-3.2-1.5-4.5-2.6L22.8-94.6C33.2-94.6,43.6-94.7,53.9-94.7L53.9-94.7z
		 M-81.2-227.7h-0.1c-0.9-0.7-3.2-1-4.1-0.3c-1.1,0.7,0.2,0.7,0.5,1.3c0.4,0.6-0.2,1-0.8,0.4c0,0.1-0.1,0.2-0.1,0.4
		c-0.1-0.1-0.2-0.2-0.3-0.3c-0.2,0.2-0.2,0.7-0.1,1c-0.9-1-1.3,0.3-1.2,1.1c0,0.8,0.8,1.4,0.6,2.1c-0.6,0.1-1.1-0.9-1.5-0.6
		c-0.2,0.1-0.2,1.5-0.3,1.8c-1.3-0.9-0.2-7.3,1.2-7.6c-0.2-0.3-1.2-0.5-1.7-0.8c-0.6-0.3-1-0.7-1.6-1.2c-0.7-0.6-2.3-1.5-2.4-2.5
		l-0.1,0.4c-1.6,0.3-4.5-4.7-6.4-5.3c-0.6-0.2-1,0.5-1.8,0.2c-0.7-0.3-1.1-1.5-1.7-1.6c-2.1-0.4-1.8,1.4-0.8,2.4
		c-1.9-0.2-1.8,2.1-3,2.5c-2.1,0.8-1.2-1.2-1.1-2.3c-1.7,0.2-2.1,2.6-3.4,1.8c-0.1-0.1-1.9-4.5-2.9-1.4c-0.6,1.9,2.4,0.5,2.6,2.2
		c0.2,2-2.8,1.3-1,3.8c-0.8,0.1-1.5,0.7-2,1.3c-0.7-0.9-0.4-2.5-2.1-2.1c0.5-0.8,0.5-1.6-0.6-1.6c-1.4,0.1-0.8,1-1.1,1.8
		c-0.9,2.3-1.1,1.2-3.2,2.2l-0.4,0.2c-1.8,1.2-0.2,2.1,0.2,3.2c0.3,1-0.3,2.3,1.3,2.7c-1.6,0.4-4.9-1.7-5.2,1.2
		c-0.1,1.2,4.1,3.4,0.5,3.1c-1.3-0.1-1-1.9-2.6-0.8c-0.5,0.3,0,1.2-0.3,1.4c-0.4,0.4-0.9,0.3-1.2,0.6c-1.1,0.9-1.9,0.5-1.5,2.5
		c0.2,1.3,0.7,1.5,1.1,2.6c1-0.1,1.5-1.3,2.4-1.9c0.7,1-1.5,3-1.9,4.2c-2-0.7-0.5,3.5-2.6,3.8c0.1,0-2-1.1-2.1-1.2
		c-0.6-0.4-1.3-0.8-2-1c0,0.9,0.5,1.6,0.2,2.4c-1.4-0.6-1.1-2.9-2.6-3c-2.5-0.3-1.1,2.3,0,3.1c-0.6,0.5-2.3,0-2.7,0.8
		c-0.6,1.3,1.6,1.4,2.1,1.8c0.9,0.7,3.5,4,2.8,5c-0.9-0.2-1.5-0.9-2.4-1.2c-0.6,1.9,0.4,4.1-1,6c-1.9-1.1-2.8-4.8-3.8-6.6
		c-0.4-0.8-1.5-2.4-1.7-3.1c-0.3-1,0.3-1.8,0.1-2.9c-1.8,0-2.5,3.2-3.6,4.2c-1.1,1-2.4,1.2-2.2,3.7c-1.2-0.7-3.5,3.1-3.6,4.2
		c-0.2,1.2,0.2,2.1,0.4,3.2c0.2,0.8,0.1,2.5,0.4,3.2c0.5,1.1,2.2,0.8,2.5,1.8c0.3,1-1.8,2.7-2.4,3.2c-1.8,1.5-3.9,1.9-3,4.6
		c-2,0.8-2,1-2.2,3.1c-0.2,1.8-0.4,3-1.4,4.6c-1.4,2.3-5.3,7.1-8.3,6.5h-0.2c-2.8,0.9-5.5,2.9-8.3,4c-2.7,1.1-5.6-0.1-8.1,0.9
		c-2.9,1.2-3.3,4.5-6.7,5.2c-1.6,0.4-3,0.6-4.4,1.6c-1.1,0.7-2.1,2.5-3.5,2.4h-0.2c-0.9,0.5-2,1.1-3,1.3c-1.1,0.3-1.5-0.2-2.3-0.2
		c-1.3,0-2.8,1-4.1,0.6c-0.1-0.9-0.2-1.8-0.5-2.7c-1.1,0.6-2.1,3.2-3.1,4.3c-0.3,0.3-0.7,1.3-1,1.5c-0.4,0.2-1,0-1.3,0.2
		c-1.2,0.7-0.6,0.3-1.5,1.5c-1.3,1.7-2.9,2.8-4,4.7c-1,1.7-3.1,3-3.8,4.7l0.4-0.8c-2.8,1.9-6,3.4-7.5,6.5c-0.6,1.2-0.6,2.8-1.2,3.9
		c-0.7,1.3-1.3,1.3-2.8,1.7c0.9-1.6-0.5-2.4-0.8-3.8c-0.3-1.4,0.4-2.7,0.2-4.1c-2.2,1.7-3.2,4.8-3.2,7.4c-0.2,1.4-1.5,2.6-0.9,4.1
		c0.5,1.2,2,2,2.5,3.3c0.9,2.2,1.4,4.4,0.5,6.8c-1.1,2.9-2.9,4-2.5,7.4c0.3,2.7,2.4,4.4,3,6.8l-0.3,0.2c0.5,2.2,2.8,3.6,3.8,5.6
		c0.6,1.2,0.8,2.4,1.9,3.4c0.8,0.8,2.5,1.4,3,2.3c0.5,1,0.8,4.2,0.3,5.3c-0.8,1.8-0.5,1.2-1.4,0.3c-0.8-0.8-1.5-2.1-1.9-3.1
		c0,1.5,1.2,6.1-0.6,6.8c-1.7,0.7-4.7-4.4-4.7-5.8c-3.5,5,6.1,7.6,7.1,12.4v-0.4c1.2,1.4,2.8,3.9,3.5,5.5c0.8,2.1,0.2,3.9,2,5.8
		c2,2.1,3.6,3.3,4.7,6.1c0.7,1.8,2.9,3.4,2.8,5.5l0.6-0.2c2.3,2.9,1,6.3,2.2,9.6c1.1,3,2.3,6,4.1,8.7c1.1,1.5,2,3,3.1,4.5
		c1,1.3,2.4,2.5,3.3,3.9c1.6,2.3,1.2,5.3,1.2,8.1l0.2,0.2c1.5,1.8-0.2,2.7-0.2,4.7c0,1.8,1.4,3.3,1.6,5.1c0.2,2-0.8,3.7-1.8,5.4
		c-1.2,2-2,2-4.1,0.5c-1.3,1.7-0.3,3.9,0.1,5.7c0.6,2.4,0.8,3.9,4,3.5l0.2-0.2c1.3-0.1,3.5,1,4.4,1.8c0.8,0.6,1.1,1.7,1.8,2.3
		c1.1,0.9,0.9,0.4,2.1,0.6c3.3,0.5,6.5,1,9.9,1c3.2,0,6.2,0.1,9.2-0.8c2.5-0.7,1.9-1.2,2.6-3.3c0.6-1.8,2-1.7,3.6-2.5
		c-1.3-4.1,5.8-0.7,5.7-3.8c0.3,0.1,0.8-0.1,1.2,0c-0.2-2.4-0.1-4.1,2.3-5.3c1.9-1,4-0.4,5.9-1.3c2.4-1.1,3.9-1.9,6.7-1.6
		c2.1,0.2,4.1,0,6.2,0l0.3-0.3c2.2-2.9,2.1,1.2,3.9,1.1c1-0.1,0.9-1.1,2-1.2c0.7-0.1,2.3,1.3,2.3-0.2c1.2-0.1,2.7-1.3,3.9-1.1
		c1,0.2,0.9,1.4,1.6,1.7c1,0.3,1-0.7,1.6-1.1c1.1-0.8,2.1-0.2,3.1-1.2c1.1-1.1,0-2.4,1.1-3.5c0.7-0.6,1.2-0.4,1.6-1.2
		c0.2-0.5,0.2-1.2,0.4-1.7c0.3-1.3,1-2.9,1.8-4c1.7-2.4,4.7-2,7-3.4c2-1.2,4.8-3.9,7.1-4.1l0.7-0.1c1.6-1.6,2.2-2.9,4.7-2.8
		c1.6,0.1,3.2,0.3,4.9,0.3c3.5,0,6.9-1.3,10-2.8c1.6-0.8,3.4-1.2,5.1-1.9c1.8-0.8,3.5-1.9,5.3-2.8c0.8-0.4,1-0.7,1.8-1l-8.4-197.9
		C-80-227.5-80.4-227.7-81.2-227.7L-81.2-227.7z M68.5,9C68.5,9,68.5,9,68.5,9L68.5,9L68.5,9z M130.4,46.6l-0.6-0.4
		c0,0-0.1-0.1-0.2-0.1c-0.1-0.1-0.2-0.1-0.2-0.2c-0.1-0.1-0.2-0.2-0.3-0.2c-0.2-0.2-0.4-0.3-0.5-0.3c-0.2-0.1-0.4-0.2-0.5-0.3
		c-0.2-0.1-0.3-0.2-0.4-0.3c0,0-0.1,0-0.1-0.1c-0.1-0.1-0.2-0.1-0.3-0.2s-0.2-0.2-0.2-0.2c-0.3-0.2-0.4-0.3-0.5-0.4
		c0,0-0.1-0.1-0.1-0.1c-0.2-0.2-0.5-0.3-0.7-0.4l-0.2-0.1c-0.2-0.1-0.3-0.2-0.5-0.3l-0.3-0.2c-0.2-0.1-0.3-0.2-0.5-0.3
		c-0.1-0.1-0.3-0.1-0.4-0.2c-0.3-0.2-0.6-0.4-0.9-0.7c-0.2-0.2-0.4-0.3-0.5-0.4L122,41c-0.2-0.1-0.3-0.3-0.5-0.4
		c-0.1-0.1-0.2-0.2-0.4-0.3l-0.3-0.2c-0.1-0.1-0.2-0.2-0.4-0.2c-0.2-0.1-0.2-0.2-0.3-0.2l-0.2-0.1c-0.1-0.1-0.2-0.1-0.3-0.2
		c-0.4-0.2-0.7-0.5-1-0.8c-0.2-0.2-0.4-0.3-0.6-0.4l-0.2-0.1c-0.3-0.2-0.4-0.2-0.4-0.2c-0.1,0-0.2,0.1-0.4,0.1
		c-0.2,0.1-0.3,0.1-0.5,0.2c-0.5,0.1-0.8-0.2-0.9-0.3c-0.4-0.5,0.1-1.2,0.3-1.7c0.1-0.2,0.1-0.3,0.2-0.4c0-0.2,0.1-0.3,0.2-0.4
		c0-0.1,0.1-0.2,0.2-0.3c0,0,0,0,0-0.1l-0.2-0.2c-0.3-0.3-0.3-0.6-0.3-0.9v-0.1c-0.2-0.1-0.3-0.2-0.4-0.4c-0.2-0.3-0.1-0.6-0.1-0.8
		l0-0.3c0-0.2,0-0.3,0-0.3c0-0.1-0.1-0.2-0.2-0.3c-0.2-0.2-0.4-0.5-0.4-1c0-0.3,0.1-0.5,0.2-0.7c0-0.2,0-0.2-0.1-0.3
		c-0.2-0.2-0.5-0.5-0.4-1c0-0.1,0.1-0.2,0.2-0.3c-0.1-0.1-0.2-0.1-0.3-0.2c-0.1-0.1-0.2-0.1-0.3-0.2c-0.4-0.2-0.7-0.4-1-0.7
		c-0.3-0.2-0.9-0.2-0.9-0.2c-0.2,0.1-0.4,0.2-0.6,0.2c-0.4,0-0.8-0.1-0.9-0.1c-0.1,0-0.2-0.1-0.2-0.1c0,0.1,0,0.1,0,0.2
		c-0.1,0.3-0.2,0.5-0.5,0.7c-0.3,0.2-0.7,0.2-1.1,0.2l-0.4-0.1c-0.7-0.2-0.9-0.2-1.1,0.1c-0.2,0.2-0.4,0.5-0.9,0.5h0
		c-0.3,0-0.5-0.1-0.8-0.2l-0.2-0.2c-0.1-0.1-0.2-0.2-0.3-0.2c-0.1,0-0.3,0-0.5,0c-0.1,0-0.3,0-0.4,0h-0.8l-0.2-0.2l-0.3-0.1
		c-0.1,0.1-0.2,0-0.4-0.1c-0.3-0.2-0.5-0.4-0.6-0.6l-0.1-0.2c-0.2-0.1-0.4-0.2-0.5-0.2c-0.1-0.1-0.2-0.2-0.3-0.2
		c-0.2-0.2-0.2-0.2-0.2-0.2c0.1,0.3,0.1,0.4,0,0.6c-0.1,0.5-0.5,0.7-0.7,0.7c-0.2,0.1-0.2,0.1-0.3,0.2c-0.2,0.1-0.5,0.3-0.9,0.3
		c-0.1,0-0.2,0-0.3,0c-0.4-0.1-0.7-0.3-0.9-0.5c-0.1-0.1-0.2-0.1-0.2-0.2c-0.1,0-0.2,0-0.4,0c-0.2,0-0.5,0-0.6,0l0,0.1
		c-0.5,0-0.7-0.2-0.9-0.6c-0.1-0.2-0.1-0.3-0.2-0.4l0,0h-0.3h-0.7c-0.6,0-0.9-0.5-1.2-0.8c-0.1-0.2-0.2-0.2-0.3-0.3
		c-0.5-0.1-0.8-0.4-0.9-0.6c0-0.1-0.1-0.1-0.1-0.2c-0.1,0-0.3,0-0.5,0l-0.2,0c-0.2,0-0.3,0.1-0.5,0.3l-0.5-0.5l-0.5,0.4
		c-0.2-0.3-0.7-0.3-1.3-0.3l-0.4,0c-0.5,0-0.5,0-0.5,0.1c0,0.5-0.2,0.7-0.4,0.8c-0.2,0.1-0.2,0.2-0.2,0.4c0,0.4,0,1-0.6,1.3
		c-0.1,0.1-0.2,0.1-0.4,0.1c-0.1,0.3-0.3,0.5-0.6,0.6c-0.1,0-0.2,0-0.3,0c-0.2,0-0.3,0-0.3,0c-0.3-0.1-0.5-0.2-0.6-0.3l-0.2-0.1
		c-0.2-0.1-0.3-0.2-0.5-0.4c-0.1-0.1-0.2-0.2-0.3-0.3c-0.2-0.2-0.3-0.3-0.5-0.5c-0.2-0.3-0.4-0.5-0.6-0.7c-0.4-0.3-0.6-0.6-0.8-1.1
		c0-0.1-0.1-0.2-0.1-0.2c-0.1-0.2-0.2-0.4-0.3-0.7c0-0.1,0-0.2-0.1-0.3l0-0.2c-0.2-0.2-0.4-0.4-0.6-0.5c-0.1-0.1-0.2-0.1-0.3-0.1
		c-0.2-0.1-0.4-0.1-0.6-0.2c-0.3-0.1-0.5-0.2-0.7-0.4c-0.1-0.1-0.1-0.2-0.2-0.2c-0.1-0.1-0.1-0.1-0.2-0.2c-0.3-0.2-0.4-0.5-0.6-0.7
		c-0.1-0.1-0.1-0.2-0.2-0.3c-0.2-0.2-0.4-0.4-0.7-0.6c-0.4-0.2-0.7-0.5-1-0.9c-0.2-0.2-0.4-0.3-0.5-0.7l0.1-0.1h-0.3
		c-0.2,0-0.4,0-0.6-0.1c-0.7-0.3-0.7-1.1-0.7-1.6v-0.3c-0.2,0-0.2,0-0.4,0c-0.1,0-0.2,0-0.2,0c-0.3-0.1-0.7-0.2-1.1-0.4
		c-0.6-0.4-0.9-0.8-0.9-1.5c0-0.4,0-0.5-0.1-0.6c0-0.1-0.1-0.1-0.1-0.2c-0.3-0.4-1-1.5-0.2-2.1c0.2-0.1,0.4-0.2,0.5-0.2
		c0,0-0.1-0.1-0.1-0.1c-0.5-0.5-0.9-0.8-1.5-1.1h-0.3c-0.4,0-0.8,0-1.2-0.4c-0.1-0.1-0.1-0.2-0.2-0.3h-0.2c-0.4,0-0.7,0.1-1-0.2
		c-0.2-0.1-0.3-0.3-0.4-0.5v0c-0.1,0.2-0.1,0.3-0.2,0.4c-0.1,0.2-0.1,0.3-0.1,0.4c-0.1,0.5-0.3,1.3-0.9,1.6
		c-0.2,0.1-0.3,0.1-0.5,0.1c-0.1,0-0.2,0-0.4-0.1c-0.5-0.2-0.7-0.8-0.8-1.2l0-0.2c0-0.1-0.1-0.1-0.3-0.2c-0.2-0.1-0.5-0.3-0.8-0.6
		c-0.2-0.4-0.2-0.8-0.1-1c0.1-0.2,0-0.4,0-0.5V6.9l0-0.2c0,0,0-0.1,0-0.1c-0.2-0.1-0.4-0.1-0.5-0.2c-0.5-0.4-0.5-1-0.4-1.4
		c0-0.1,0-0.2,0-0.2c0-0.1,0-0.2-0.1-0.2c0,0-0.1,0-0.1-0.1c-0.1-0.1-0.3-0.1-0.4-0.2c-0.3-0.2-0.5-0.5-0.7-0.9c0-0.1,0-0.2-0.1-0.2
		c-0.1-0.1-0.3-0.1-0.7,0c-0.1,0-0.1,0.1-0.2,0.1c-0.1,0.1-0.3,0.2-0.5,0.2c-0.2,0.1-0.5,0-0.7,0l-0.2,0c-0.3,0-0.6,0-0.8-0.1
		c-0.1,0-0.5,0-0.8-0.1c-0.1-0.1-0.2-0.1-0.3-0.2c0,0,0,0-0.1,0c0,0,0,0-0.1,0.1C56.4,3.5,56.2,4,55.6,4c-0.2,0-0.5-0.1-0.7-0.2
		l-0.6-0.3c-0.3-0.1-0.6-0.2-0.9-0.4c-0.2-0.1-0.3-0.2-0.4-0.3c-0.1-0.1-0.2-0.1-0.2-0.1l-0.4,0c-0.2,0-0.5,0-0.7,0
		c-0.3-0.1-0.5-0.2-0.5-0.3c-0.1,0-0.1,0-0.2,0.1c-0.1,0-0.2,0.1-0.2,0.1l-1.9,48c0.4,0.2-0.1,0.6,0.4,0.7c1.2,0.3,1-0.8,1.6-1.3
		c0.6-0.5,1.8-0.3,2.4,0c1,0.4,1.3,1.3,2.4,1.4c0.7,0.1,1.5-0.3,2.2-0.1c1,0.3,1.5,1.3,2.4,1.9c0.8,0.5,1.8,0.7,2.5,1.2
		c0.7,0.5,1,1.4,1.7,1.9c0.6,0.5,1.6,0.9,2.4,1.1h0.1c1.4,2.1,7.5-4.5,9.1-4.9c0.9-0.2,4.2-0.3,4-2c-0.1-1-2.8-0.4-3.6-0.6
		c0.2-1.1,2.2-1.3,3.1-1.6c0.5-0.2,1.5-1.1,2-1c1,0.1,0.3,0.5,0.6,1.2c0.3,0.7,1.3,0.9,1.4,1.5c0.1,0.6-0.7,1.1-1.1,1.5
		c-1.4,1.5-1.5,0.5-3.2,0.7c0.8,1.1,1.6,1.9,2.9,1.7c0.5-0.1,1.6-0.3,1.9-0.6c0.4-0.4,0.2-0.9,0.9-1.2c1.5-0.7,2.7,0.7,1.9,2
		c0,0-1.5,1-1.5,1c-0.6,0.1-1.1-0.3-1.3-0.7c-1.6,0.8,0.2,1.4,0.9,1.6c1.2,0.3,1.8,1.1,2.9,1.6v-0.1c1-1.8,2.3,2.6,2.6,2.9
		c0.8-1.9,2.1,0.5,2.5,1.4c0.2,0.3,0.5,1.6,0.7,1.7c0.8,0.2,1-1,1.1-1.4c0.1-0.3,0.5-1.3,0.4-1.6c-0.4-1.1-0.5,0.1-1.2-0.1
		c-0.8-0.2-1.8-2-0.6-2.3c0.8-0.2,1,0.7,1.6,0.9c0.8,0.3,1.2-0.3,1.9-0.5c1.4-0.4,2.1-0.3,3.2-1.5c3.4-3.4,8.3-6.1,13.3-6.1l0.5-0.4
		c1.5-0.1,2.7-0.3,4.2-0.2c1.5,0.1,2.8,0.5,4.3,0.6c1.8,0.2,3.1,0,4.6-1.1c1.2-0.8,2.1-1,3.4-1.5C130,47.2,130.3,47.5,130.4,46.6
		L130.4,46.6z M-72.2-92.1l2.6,62.6c1.9-0.7,4-1.3,5.9-1.4c3.4-0.2,6.7,0.4,10,0.4h0.4c0.8-0.1,1.8-0.2,2.5-0.7
		c1-0.7,1.4-1.3,2.8-1.1c1.9,0.3,4.8,2.5,6.2,3.8c2.1,2,2.7,3,5.5,1.6c0.9-0.5,1.5-0.7,2.5-0.2c1.2,0.5,1.6,1.8,3.1,1.7
		c0.8,0.9,1.7,1.2,2.8,1.2c1,0,2.1-1,2.9-0.9c0.5,0,1,0.7,1.5,0.9c0.5,0.2,1.1,0.2,1.6,0.5c1.9,1,0.5,1.1-0.3,2.1
		c-0.9,1.1-0.7,2.2,0.7,1.7c1.3-0.4,1.4-1.6,2.5-0.4c0.5,0.5,1.1,1.7,0.9,2.4c-0.3,1.3-0.8-0.7-1.8-0.2c0.1,0.5,0,1.1,0.1,1.5
		c0.2,0.7,0.2,0.7,0.6,1.3c0.5,0.9,0.9,1.9,1.7,2.8l0.7,0.1c1.8,0.4,3.7,1.1,3.9,3.5c0.1,1.1-0.7,1.7,0.3,2.6c0.7,0.6,2,0.5,2.7,1.1
		c0.7,0.5,1.1,1.5,1.2,2.4c0.1,0.4-0.1,0.9,0,1.3C-8.6-1.1-8.1-0.9-8-0.4c0.2,0.7-0.2,1.5,0,2.2c0.2,0.8,1.5,1.6,1.2,2.4
		c-0.5-0.8-2-0.8-1.9-1.7c-0.7,0-1.2,0.7-1.5,1.4c0.9,0.4,2.3-0.4,2.4,1.4c0.7,0.6,3.2,4.7,3.8,2.4c0.8,0.1,1.8,1.7,2.5,1.2
		c0.3-0.2,0.5-2.3,0.3-2.7c-0.6,0.1-1.4,0.4-2,0.2c0.3-0.5,0.5-1.3,0.8-1.8c0.5-0.5,1.1-0.5,1.5-1c0.5-0.5,0.5-1,0.8-1.6
		c0.3-0.5,0.7-0.8,1-1.3c0.7-0.9,0.7-2.2,1.6-2.9c1.2-1,3-1.8,4.3-2.7C7.9-5.4,9-5.7,10-6.2c1.1-0.5,1.2-1.5,1.7-2.6
		c0.5-1.1,0.8-2.3,1.5-3.3c0.5-0.7,1.4-2.1,2-2.5c1.2-0.8,1.8,0.3,1.4-1.7c-0.2-1.1-0.5-2-0.4-3.1c1.1,0.3,1.3,2.7,1.6,3.6
		c0.4,1.3,0.1,2.3,0.2,3.6c-3.4,0.3,0.2,3.6-0.1,4.8c-0.1,0.5-1.9,1.6-2.4,2C15-4.7,14.3-4,14.4-2.9l-0.2,0.2
		c-0.1,0.5-0.5,0.8-0.6,1.3c-0.2,0.5,0,0.9-0.1,1.4c-0.1,0.5-0.7,1-0.8,1.6C12.6,2.2,13,2.7,13,3.3c0.2,1.2-0.4,2.3-0.6,3.4
		c-0.1,0.6,0.1,1-0.3,1.5c-0.7,0.8-0.6,0.2-1.4,0.1C9.4,8.1,9,8,8.3,9.1C8,9.5,8.1,9.9,7.8,10.4c-0.3,0.5-1.2,0.7-1.4,1.3
		c-0.7,1.9,0.9,0.7,1.7,0.6c0.6-0.1,0.8,0.4,1.4,0.1c0.3-0.1,0.6-0.7,1-0.9c0.6-0.3,1.7-0.5,2.4-0.5c0.7,0.1,1.6,0.8,2.3,0.3
		c0.6-0.5,0.5-2.1,0.7-2.8c0.2-0.8,0.7-1.6,0.9-2.4c0.2-0.8,0-1.6,0.2-2.4c0.3-0.9,1.1-1.5,1.4-2.4c0.2-0.8-0.1-1.8,1.2-1
		c0.8,0.5,0.6,1.4,0.9,2.1c0.6,1.9,2.4,3.1,2.9,5.2c0.5,2-0.9,3.6-0.9,5.7h-0.1c-0.5,0.2-1.2,0.3-1.6,0.8c-0.5,0.5-0.6,1-1.2,1.4
		c-0.7,0.5-2.1,1.2-0.4,1.9c0.6,0.3,2.1-0.1,2.9-0.1c0.9-0.1,0.9-0.1,1.6-0.5c0.6-0.3,0.5-0.8,1.4-0.7c1.8,0.1,4.4,2.7,5.5,4
		c1.5,1.9,2.9,4,3.7,6.3c0.6,1.9,0.3,3.6,0.2,5.5l-0.1,0.1c-1.1,1.3-1,0.6-0.5,2c0.5,1.3-0.1,1.5,0,2.8c0.2,1.4,1.4,1.8,2.3,2.5
		c0.7,0.5,1.1,1.3,1.5,2.1c0.9,1.7,1.4,3.5,3,4.6c1.7,1.1,3.8,0.4,5.3,1.8H46c1.3,0.2,0.8,1.5,1.4,2.2c0.2,0.3,0.3,0.3,0.4,0.4
		l5.6-143.8C11.7-93.7-30.5-93.2-72.2-92.1L-72.2-92.1z"/>
</g>
</svg>
