<?xml version="1.0" encoding="utf-8"?>
<!-- Generator: Adobe Illustrator 16.0.4, SVG Export Plug-In . SVG Version: 6.00 Build 0)  -->
<svg version="1.2" baseProfile="tiny" id="Layer_1" xmlns="http://www.w3.org/2000/svg" xmlns:xlink="http://www.w3.org/1999/xlink"
	 x="0px" y="0px" width="151px" height="64px" viewBox="0 0 151 64" xml:space="preserve">
<title>Group</title>
<desc>Created with Sketch.</desc>
<g>
	<path fill="#BAC9CF" d="M37.431,68.327c-0.107,0.214-0.419,0.188-0.5,0.432c-0.03,0.077-0.098,0.086-0.16,0.099
		c-0.062,0.013-0.107,0.034-0.103,0.142c-0.09,0.196,0.043,0.372,0.004,0.564c0,0.077-0.004,0.176-0.03,0.253
		c-0.026,0.081-0.073,0.137-0.188,0.106c-0.133,0-0.214,0.064-0.265,0.146c-0.004,0.009-0.004,0.018-0.004,0.026l0.475,0.029h0.603
		l0.039,0.009l0.231-0.004l0.501-0.022h0.77l0.089,0.022l0.873-0.03l0.09,0.017l0.411,0.014l1.104-0.018l0.039,0.009l0.873-0.034
		l0.544,0.029l0.064-0.025h1.964l0.089,0.021l0.184-0.013l0.316-0.009l0.052,0.013h0.556l0.103-0.034l0.45,0.021l0.039,0.013
		l0.103-0.034l0.958,0.004h0.231l0.639-0.029l0.5,0.021l1.883-0.013l0.321-0.021l0.731-0.009l0.142-0.009l0.09,0.021l0.012-0.051
		l0.093,0.021l0.411,0.013l1.194-0.055l0.27,0.021l0.051,0.008l1.656-0.029l1.792-0.039l0.185-0.013l0.039,0.009l0.141-0.009
		l0.509-0.018l0.552-0.008l0.09,0.021l0.039,0.009l0.283-0.03l0.727-0.009l0.552-0.009l1.241-0.025l0.274,0.009l0.278-0.018
		l0.133,0.03l0.064-0.043h0.18l0.551-0.009l1.515-0.021l0.18,0.005l0.192,0.004l0.039,0.009l0.655-0.038l0.077,0.017l0.411,0.013
		h0.235l1.339-0.047l0.132,0.03l0.09-0.034l0.475-0.026l0.688-0.017l0.089-0.021l0.132,0.029l0.013-0.051l0.321,0.034l0.419-0.038
		l0.082,0.017l1.253-0.081l1.433-0.025l0.274,0.008l1.151-0.047h0.411l0.047-0.03l0.231,0.009l0.873-0.029l1.566-0.005l0.09-0.021
		l0.333-0.021l0.215,0.009l1.434-0.039l0.141-0.008l3.316-0.094l0.32-0.021l0.09,0.021h0.176l0.141-0.021l2.307-0.123l-0.02,0.037
		h0.335l0.265,0.013l1.579-0.056l0.642-0.025l1.164-0.056h0.214l0.106-0.013l0.163,0.038l1.856-0.081l0.039,0.013l0.547-0.013
		l1.434-0.081h0.963l1.391-0.039l0.415-0.042l1.069-0.039l0.643,0.013l0.453-0.025l0.389-0.052l0.467-0.063l0.133,0.038l0.295,0.068
		l0.654-0.038l0.506-0.026h0.145l0.039-0.038h0.372l0.265,0.013l1.336-0.052l2.164-0.055h0.133l-0.025-0.064l-0.013-0.188
		l0.013-0.025l0.415-0.013l2.208-0.025l0.615-0.039h0.592l0.132-0.025l0.282-0.014l0.548-0.013l1.069-0.029l0.882-0.068l1.378-0.052
		h0.791l1.202-0.081l0.599-0.043l1.883-0.06l0.283,0.03l1.484-0.082l1.883-0.106l0.979-0.043l1.02-0.039l0.641-0.038h0.008
		l0.006,0.1h0.039l2.019-0.107l0.228,0.013l1.63-0.094l0.038,0.013l0.052-0.038l0.052,0.012l0.697-0.067l0.266,0.025h0.042
		l0.052-0.025l0.055,0.013l0.039,0.013l0.038-0.051l0.202,0.012h0.174l0.107-0.038l0.039,0.013l0.309-0.013l-0.228-0.963
		l-0.471-1.352l-0.792-1.698l-0.038-0.044l-0.762-2.019l-0.47-1.523v-0.176l-0.107-0.308l-0.052-0.376l-0.042-0.052l-0.082-0.253
		l-0.039-0.188l-0.158-0.51l-0.106-0.334l-0.171-0.629l-0.014-0.149l-0.08-0.214l-0.278-0.201l-0.176-0.038h-0.449l-0.214,0.119
		l-0.363,0.334l-0.309,0.158l-0.201,0.095L125.9,57.02l-0.094,0.014l-0.055,0.043h-0.057l-0.09,0.012l-0.59-0.226l-0.295-0.082
		l-0.12-0.068l-0.052-0.013l-0.938-0.12l-0.295-0.068l-0.227-0.051l-0.137-0.03l-0.256-0.052l-0.133-0.038l-0.159-0.095
		l-0.163-0.068l-0.2-0.149l-0.39-0.266l-0.201-0.145l-0.213-0.057l-0.215-0.038l0.067-0.034l-0.28,0.025l-0.014,0.043l-0.054,0.043
		l-0.36,0.333l-0.188-0.106l-0.094-0.013l-0.054,0.629l0.077,0.604l-0.094,0.042l-0.252-0.063l-0.057-0.013l-0.013-0.133
		l-0.062,0.01l-0.015-0.07l-0.042,0.013l-0.749,0.051l-0.026,0.681l-0.471,0.081l-0.547-0.176l-0.27-0.025l-0.12,0.068l-0.171,0.334
		l0.068,0.163l-0.051,0.068l-0.014,0.055h-0.334l-0.227-0.226l-0.106-0.12v-0.171l-0.026-0.458l-0.051-0.347l-0.12-0.654
		l-0.278-0.39l-0.308-0.077h-0.043l-0.158-0.12l-0.095-0.158l0.014-0.095l-0.03-0.055l-0.629-0.415l-0.304-0.133l-0.051-0.094
		l-0.309-0.441l-0.227-0.188l-0.616-0.188l-0.788,0.038l-0.2-0.081l-0.163-0.133l-0.025-0.056l-0.039-0.013l-0.132-0.252
		l-0.013-0.283l0.025-0.363l0.176-0.505l0.025-0.081l-0.03-0.146l0.013-0.266l-0.171-0.586l-0.095-0.196l-0.025-0.039l-0.077,0.047
		c-0.04,0.026-0.073,0.061-0.106,0.091c-0.028,0.021-0.07,0.021-0.094,0.051c-0.016,0.021-0.016,0.051-0.014,0.076
		c0.002,0.022,0.004,0.044,0.014,0.064c0.012,0.022,0.049,0.026,0.066,0.039c0.021,0.017,0.009,0.038-0.014,0.051
		c-0.027,0.025-0.064,0.043-0.093,0.069c-0.026,0.025-0.04,0.072-0.054,0.106c-0.012,0.029-0.02,0.06-0.014,0.094
		c0.008,0.048,0.025,0.091,0.043,0.133c0.018,0.034,0.029,0.069,0.043,0.107c0.012,0.043,0.034,0.085,0.043,0.133
		c0.004,0.025,0.004,0.047-0.014,0.063c-0.025,0.034-0.072,0.056-0.107,0.081c-0.017,0.009-0.025,0.03-0.025,0.052
		c-0.008,0.056,0,0.107,0,0.162c0.005,0.044,0.018,0.078,0.025,0.12c0.01,0.043,0,0.09,0,0.133
		c-0.004,0.021-0.033,0.039-0.051,0.052c-0.021,0.013-0.034,0.017-0.051,0.038c-0.034,0.043-0.064,0.095-0.107,0.133
		c-0.025,0.025-0.061,0.056-0.076,0.09c-0.01,0.029,0,0.063,0,0.094c0.004,0.034,0,0.061,0,0.095s-0.005,0.077-0.014,0.106
		c-0.008,0.021-0.034,0.026-0.051,0.039l-0.078,0.051c-0.017,0.018-0.004,0.043,0,0.064c0.01,0.021,0.014,0.034,0.031,0.052
		c0.017,0.017,0.047,0.029,0.055,0.051c0.009,0.021,0,0.06-0.012,0.081c-0.012,0.015-0.027,0.014-0.045,0.013
		c0.012-0.021,0.02-0.053,0.012-0.076c-0.009-0.025-0.039-0.034-0.052-0.052c-0.013-0.021-0.021-0.03-0.025-0.056
		c-0.005-0.021-0.017-0.051,0-0.068l0.081-0.052c0.021-0.013,0.043-0.017,0.057-0.042c0.008-0.03,0.014-0.073,0.014-0.107
		s0.004-0.056,0-0.094c-0.005-0.026-0.014-0.064,0-0.09c0.018-0.038,0.051-0.064,0.076-0.095c0.043-0.038,0.073-0.094,0.107-0.137
		c0.018-0.021,0.032-0.025,0.056-0.038c0.017-0.013,0.047-0.03,0.052-0.052c0-0.043,0.004-0.09,0-0.133
		c-0.01-0.042-0.025-0.076-0.025-0.119c0-0.056-0.01-0.107,0-0.163c0-0.021,0.008-0.043,0.025-0.051
		c0.033-0.026,0.081-0.048,0.106-0.082c0.017-0.021,0.017-0.043,0.013-0.068c-0.008-0.047-0.027-0.09-0.041-0.132
		c-0.009-0.039-0.025-0.073-0.043-0.107c-0.018-0.047-0.03-0.086-0.039-0.133c-0.004-0.03,0.005-0.064,0.014-0.094
		c0.012-0.034,0.025-0.082,0.056-0.107c0.03-0.021,0.068-0.043,0.094-0.068c0.021-0.009,0.034-0.034,0.013-0.052
		c-0.018-0.012-0.056-0.017-0.064-0.038c-0.008-0.021-0.012-0.047-0.012-0.068c-0.005-0.03-0.005-0.056,0.012-0.081
		c0.021-0.03,0.064-0.03,0.095-0.056c0.034-0.034,0.063-0.069,0.106-0.095l-0.013-0.025l-0.03-0.056h-0.043l-0.012-0.522l0.043-0.2
		l0.119-0.172l-0.013-0.081l-0.176-0.265l-0.363-0.402l-0.159,0.094l-0.012,0.266l-0.082,0.347l-0.359,0.787l-0.402,0.094h-0.128
		l-0.239-0.133l-0.24-0.334l-0.735-0.572l-0.228-0.201l-0.08-0.064l-0.095-0.201l-0.013-0.094l0.068-0.12l0.176-0.056l0.013,0.013
		l0.038-0.013l-0.227-0.282l-0.039-0.047v-0.001c0.043-0.072,0.123-0.106,0.188-0.162c0.043-0.038,0.095-0.068,0.12-0.124
		c0.017-0.034,0.06-0.052,0.095-0.038c0.055,0.017,0.09,0.072,0.133,0.106c0.051,0.038,0.115,0.034,0.175,0.056
		c0.038,0.013,0.077,0.034,0.12,0.026c0.037-0.005,0.085-0.009,0.106-0.044c0.038-0.047,0.077-0.094,0.106-0.145
		c0.035-0.073,0.047-0.159,0.107-0.214c0.039-0.035,0.072-0.069,0.082-0.12c0.012-0.034-0.006-0.068-0.025-0.095
		c-0.039-0.055-0.091-0.11-0.121-0.171c-0.039-0.081-0.039-0.167-0.025-0.257c0.004-0.081-0.014-0.175,0.014-0.252
		c0.012-0.056,0.06-0.09,0.051-0.15c0-0.056-0.025-0.106-0.014-0.162c0.014-0.034,0.053-0.043,0.082-0.056
		c0.047-0.013,0.094-0.03,0.12-0.068c0.038-0.043,0.085-0.068,0.119-0.107c0.03-0.029,0.061-0.047,0.095-0.068
		c0.025-0.017,0.055-0.051,0.025-0.081c-0.029-0.025-0.043-0.068-0.051-0.106c-0.014-0.052-0.018-0.104-0.026-0.159
		c0.001-0.013-0.003-0.025-0.007-0.038c0.01,0.015,0.021,0.028,0.037,0.035c0.043,0.013,0.057,0.056,0.053,0.094
		c0.008,0.057,0.012,0.107,0.025,0.163c0.008,0.038,0.025,0.081,0.055,0.107c0.031,0.025-0.004,0.063-0.029,0.081
		c-0.035,0.021-0.068,0.038-0.094,0.068c-0.035,0.038-0.082,0.064-0.121,0.106c-0.029,0.039-0.076,0.056-0.119,0.069
		c-0.029,0.012-0.068,0.021-0.081,0.051c-0.013,0.056,0.013,0.106,0.013,0.163c0.008,0.056-0.038,0.094-0.051,0.146
		c-0.025,0.076-0.01,0.171-0.014,0.252c-0.008,0.086-0.008,0.176,0.03,0.257c0.03,0.063,0.081,0.119,0.12,0.175
		c0.021,0.026,0.038,0.061,0.025,0.095c-0.008,0.051-0.043,0.085-0.081,0.119c-0.06,0.057-0.068,0.142-0.106,0.214
		c-0.031,0.052-0.068,0.099-0.107,0.146c-0.021,0.034-0.068,0.039-0.107,0.043c-0.043,0.005-0.081-0.017-0.119-0.025
		c-0.061-0.018-0.125-0.013-0.172-0.056c-0.043-0.034-0.076-0.094-0.133-0.107c-0.033-0.012-0.076,0.005-0.094,0.039
		c-0.025,0.051-0.077,0.086-0.119,0.12c-0.064,0.051-0.142,0.085-0.189,0.158c-0.004,0.004-0.012,0.008-0.012,0.013l0.23,0.282
		l0.252-0.068l0.176,0.081l0.359,0.402l0.176,0.038l0.201-0.025l0.055-0.094l0.107-0.278l0.068-0.27l0.057-0.039l0.666-0.157
		l0.164-0.095l0.106-0.025l0.911,0.025l0.201,0.095l0.309,0.295l0.175,0.244l0.095,0.2l0.094,0.385l0.012,0.078l0.039,0.106
		l0.057,0.107l0.08,0.017l-0.021,0.018l0.051,0.175l-0.282,0.483l-0.12,0.069l-0.055,0.44l0.171,0.214l0.949,0.642l0.321,0.445
		l0.064,0.106l0.201,0.056l0.308-0.188l0.013-0.013l0.119-0.068l0.096,0.013l0.106,0.12l0.077,0.025v0.214l-0.082,0.082l0.064,0.149
		l0.227,0.201l0.137,0.025l0.321,0.214l0.239,0.149l0.24,0.133l0.359,0.227l0.158,0.271l0.197,0.282l0.051,0.055l-0.081,0.082
		l-0.043-0.013v0.188l0.386,0.496l0.094,0.201l0.106,0.119l0.239,0.15l0.176,0.043l0.094-0.159l0.014-0.038l0.039-0.043l0.213-0.321
		l0.188-0.226l0.077-0.121l0.162-0.094l0.107-0.081l0.346-0.133l0.228-0.133l0.132-0.252l0.053,0.013l0.227-0.025
		c0.017-0.021,0.029-0.039,0.055-0.056c0.021-0.013,0.052-0.034,0.068-0.052c0.021-0.017,0.025-0.034,0.043-0.051
		c0.026-0.03,0.061-0.043,0.094-0.064c0.021-0.013,0.039-0.039,0.039-0.064c0-0.043-0.004-0.081,0.013-0.12
		c0.017-0.038,0.064-0.047,0.095-0.076c0.033-0.039,0.029-0.095,0.055-0.133c0.026-0.039,0.057-0.086,0.082-0.12
		c0.021-0.025,0.034-0.042,0.051-0.068c0.018-0.03,0.057-0.047,0.068-0.081c0.009-0.043,0-0.09,0-0.133
		c-0.008-0.056-0.012-0.106-0.012-0.162c-0.005-0.03,0-0.064,0-0.095c-0.002-0.01-0.01-0.015-0.017-0.02
		c0.019-0.008,0.036-0.015,0.052-0.023c0.021-0.013,0.051,0.005,0.051,0.025c0.004,0.03,0,0.064,0,0.095
		c0.004,0.056,0.004,0.107,0.013,0.162c0,0.044,0.009,0.09,0,0.133c-0.013,0.034-0.052,0.052-0.068,0.082
		c-0.017,0.025-0.03,0.043-0.052,0.063c-0.025,0.039-0.051,0.086-0.076,0.12c-0.021,0.043-0.021,0.094-0.052,0.133
		c-0.025,0.029-0.073,0.042-0.09,0.081s-0.013,0.081-0.013,0.12c-0.004,0.025-0.021,0.051-0.043,0.068
		c-0.034,0.021-0.068,0.034-0.094,0.064c-0.018,0.021-0.021,0.038-0.039,0.055c-0.018,0.018-0.047,0.039-0.068,0.056
		c-0.021,0.018-0.038,0.03-0.056,0.056l0.188,0.043l0.082-0.025l-0.014,0.056l0.039,0.025l0.081,0.077v0.227l0.081,0.026
		l0.146-0.064l0.106-0.201l0.12-0.787l0.013-0.052l0.039-0.176l0.201-0.59l0.162-0.561l0.025-0.081l-0.064-0.295l-0.307-0.578
		l-0.057-0.094l-0.119-0.266l-0.025-0.056l-0.121-0.064l-0.119-0.077l-0.162-0.119l-0.039-0.014l-0.214-0.094l-0.025-0.013
		l-0.043-0.013l-0.106,0.043l-0.053,0.025l-0.08-0.068l-0.176-0.227l-0.082-0.239l-0.051-0.146l0.057-0.039l-0.082-0.068
		l-0.068-0.052l-0.064,0.03l-0.184,0.056l-0.158,0.094l-0.176,0.146l-0.119,0.107l-0.057,0.025h-0.266l-0.037-0.013l-0.125-0.081
		l0.068-0.12l0.043-0.176l0.081-0.295l0.039-0.402l-0.176-0.239l-0.013-0.133l0.039-0.133l0.012-0.081l0.068-0.308l-0.076-0.026
		l-1.768,0.334l-0.051-0.013l-0.295-0.12l-0.253-0.094l-0.257-0.24l0.094-0.252l0.039-0.052l-0.428-0.175l-0.074-0.118l0.377,0.151
		l0.119-0.188l0.215-0.188l0.025,0.052l0.119,0.081l0.762-0.056l0.359-0.056l0.158-0.106l0.121-0.24l0.56-0.052l0.278-0.067
		l0.158-0.068l0.277-0.069l0.309-0.106l-0.107-0.12l-0.371,0.013l-0.321-0.214l-0.081-0.252l-0.094-0.39l-0.202-0.32l-0.282-0.386
		l-0.685-0.603l-0.282-0.348l0.068-0.08l0.12-0.348l0.347-0.055l0.106-0.107l-0.051-0.377l0.081-0.119l0.27,0.068h0.27l-0.025,0.094
		l0.107,0.158l0.051,0.107l0.038,0.056l0.483,0.29l0.334,0.134l0.171,0.038l0.202,0.081l0.32,0.402l0.107,0.12l0.184,0.214
		l0.081,0.256l0.132,0.026l0.279,0.107l0.239,0.162l0.081,0.107l0.094,0.158l0.057-0.402l-0.014-0.373l0.025-0.081l0.133-0.561
		l0.025-0.137l0.095-0.013l0.063-0.094l0.068-0.12l0.107-0.201l0.026-0.347l-0.03-0.479l-0.119-0.482l-0.039-0.039l-0.039-0.428
		l0.014-0.056l-0.014-0.282l-0.201-0.535l-0.055-0.149l-0.12-0.309l0.013-0.055l-0.428-0.686l-0.146-0.175l-0.12-0.068l-0.051-0.014
		l-0.043,0.026l-0.025,0.094l0.025,0.052l-0.025,0.12l-0.201,0.265l-0.227,0.052l-0.296,0.063l-0.534-0.265l-0.158-0.266
		l-0.068-0.149l0.158-0.239l0.106-0.296l0.188-0.056l0.227,0.013l0.056-0.025l0.39-0.278l0.094-0.029l0.119-0.107l0.095-0.214
		l-0.056-0.107l-0.736-0.214h-0.038l-0.27-0.025l-0.333-0.013h-0.535l-0.055,0.025l-0.121-0.064l-0.466-0.157l-0.038-0.014
		l-0.172-0.252l0.014-0.052L116.99,37l-0.069-0.052l-0.296-0.351h-0.59l-0.561,0.056l-0.509,0.013l-0.052,0.038l-0.479,0.026
		l-0.121-0.026l-0.184-0.137l-0.051-0.013l-0.586-0.642l-0.188-0.188l-0.095-0.201l-0.106-0.252l0.026-0.133l0.025-0.137
		l-0.467-0.92v-0.188l0.051-0.081l-0.055-0.149l-0.227-0.188l-0.309-0.214l-0.051-0.189l0.119-0.119l-0.082-0.051l-0.482-0.163
		L111.08,32.7l-0.295-0.064l-0.119-0.12l-0.039-0.201l-0.013-0.137l-0.025-0.146l0.081-0.081l-0.081-0.095l-0.12-0.076l-0.642-0.013
		l-0.158-0.082l-0.239-0.295l-0.385-0.535l-0.053-0.162l-0.385-0.492l-0.387-0.642l-0.057-0.188l0.201-0.146l0.24-0.162l0.387,0.081
		l0.027,0.051l0.227,0.228l0.133,0.401l0.107,0.309l0.148,0.158l0.51,0.402l0.188-0.052l0.296-0.068l0.561,0.535l0.174,0.282
		l0.189,0.133l0.667,0.295l0.308,0.214l0.133,0.026l0.068-0.039l0.146,0.094l0.094,0.014l0.201,0.363l0.387,0.83l0.492,0.654
		l0.107,0.163l0.051,0.347l-0.043,0.534l0.014,0.188l0.629,0.599l0.252-0.076l0.055-0.068l0.121-0.522l0.064-0.081l0.281,0.012
		l0.082-0.025l0.736,0.398l1.043,0.654l0.014-0.038l0.188-0.052l0.051,0.013l0.202,0.081l0.295,0.309l0.138,0.176l0.158-0.068
		l0.493-0.158l0.309-0.107l0.295-0.068l0.038,0.013l0.643,0.188l0.025-0.138h-0.043l-0.188-0.363l-0.121-0.119l-0.295-0.163h-0.01
		l-0.039-0.013l-0.055-0.013l-0.535-0.082l-0.215-0.282l0.176-0.32l0.159-0.296l0.013-0.038l0.107-0.106l0.119-0.107h0.039
		l0.24-0.176l0.037-0.175l-0.08-0.239l-0.27-0.484l0.2-0.265l-0.228-0.6l0.078-1.125l-0.014-0.094l-0.08-0.12l0.076-0.471
		l0.188-0.239l0.106-0.107l0.185-0.013l0.063,0.107l0.014,0.146l0.038,0.056l0.134-0.014l0.213-0.137l0.295-0.483l0.12-0.706v-0.175
		l0.176-0.787l-0.026-0.041l-0.051-0.014l-0.377-0.321l-0.266-0.243l-0.162-0.094l-0.855-0.479l-0.081-0.013l-0.081-0.056
		l-0.163-0.08l-0.492-0.254l-0.056-0.013l-0.081-0.013l-0.163-0.094l-0.037-0.013l-0.096-0.026l-0.175-0.038l-0.253-0.056
		l-0.042-0.013l-0.27-0.056l-0.604-0.188l-0.239-0.295l-0.201-0.119l-0.681-0.497l-0.056-0.321l-0.119-0.064l-0.266-0.068
		l-0.064-0.013l-0.188-0.039l-0.078-0.03l-0.492-0.214l-0.08-0.24l-0.095-0.201l-0.132-0.415l-0.189-0.385l-0.188-0.188
		l-0.146-0.133l-0.698-0.39l-0.038-0.012l-0.038-0.014l-0.107-0.107l-0.158-0.132l-0.081-0.056l-0.106-0.081l-0.107-0.573
		l-0.244-0.548l-0.171-0.043l-0.12-0.081l-0.081-0.026l-0.201,0.052l-0.12,0.107l-0.227,0.056l-0.282,0.013l-0.458-0.244h-0.385
		l-0.051,0.214l-0.402,0.359l-0.201-0.137l-0.215-0.094l-0.037-0.188l-0.053-0.163l-0.145-0.12l-0.258-0.107l-0.133-0.03
		l-0.363-0.043H107.7l-0.052-0.012l-0.295,0.068l-0.44,0.132l-0.038-0.012l-0.051,0.026l-0.229,0.012l-0.051,0.026l-0.051-0.013
		l-0.321-0.12l-0.44-0.107h-0.039l-0.303-0.265l-0.121-0.107l-0.238-0.15l-0.172-0.188l-0.171-0.081l-0.265-0.026l-0.078-0.012
		l-0.094-0.013l-0.483-0.252l-0.12-0.064l-0.162-0.373l0.025-0.068h0.051l0.043-0.042l0.137-0.146l0.014-0.042l-0.052-0.201
		l-0.095-0.338v-0.034l-0.27-0.248l-0.025-0.056l-0.081-0.056l-0.026-0.068l-0.08-0.068h-0.18l-0.201-0.12l-0.107-0.124
		l-0.561-0.548l-0.026-0.042l-0.095-0.214l0.121-0.339l0.106-0.214l0.043-0.4l0.056-0.402v-0.175l0.025-0.359l-0.227-0.227
		l-0.052-0.12l-0.081-0.051l-0.377-0.321l-0.213,0.055l-0.095,0.052l-0.095,0.175l-0.08,0.163l-0.096,0.252l-0.119,0.064
		l-0.213,0.159l-0.014,0.055l-0.056-0.012l-0.188,0.041h-0.023l-0.172-0.039l-0.081-0.025l-0.71,0.068l-0.266,0.346l-0.119,0.159
		l-0.15,0.201l-0.385,0.082l-0.467,0.082l-0.748,0.239l-0.093,0.026l-0.094,0.013h-0.599l-0.031-0.039l-0.291-0.12l-0.175-0.227
		l-0.013-0.15l-0.043-0.227l0.014-0.055l-0.172-0.253l-0.201-0.107l-0.043-0.042l-0.266-0.201l0.051-0.227l0.04-0.03v-0.025
		l-0.013-0.107l-0.163-0.495l-0.025-0.094l-0.095-0.4l-0.076-0.428l0.068-0.535l0.094-0.387l0.025-0.081l0.043-0.041l0.053-0.201
		l0.026-0.093l0.146-0.334l0.064-0.028l0.025-0.094l0.051-0.067l0.12-0.107l0.077-0.171l0.013-0.039l0.052-0.077l0.025-0.12
		l-0.025,0.013c-0.001,0-0.001,0-0.002,0l0.108-0.253v-0.235l0.359-0.548l-0.026-0.06l-0.102-0.381l0.021-0.09l0.381-0.227
		l0.008-0.274l0.013-0.231l-0.009-0.137V7.873l-0.08-0.24l0.042-0.184l0.12-0.111l0.008-0.039l0.27,0.021l0.18-0.012l0.014,0.004
		c0.014-0.027,0.022-0.053,0.031-0.082l0.055,0.012l0.102,0.163l0.176,0.231l0.039,0.188l0.051,0.014l0.15-0.061L98,7.696
		l0.253-0.077l0.36-0.368l0.641,0.013l-0.051-0.188l0.021-0.089l-0.098-0.163l0.021-0.68l0.224-0.359l0.119-0.111l0.106-0.115
		l0.133-0.146l0.038,0.008l0.064-0.042l0.086-0.021l0.072-0.081l0.061-0.069l0.102-0.03l0.061-0.069l0.111-0.068l0.15-0.064
		l0.038,0.009l0.132,0.03l0.099-0.017h0.18l0.21-0.146l0.029-0.133l0.018-0.077l0.021-0.09l-0.008-0.142l0.008-0.038l0.014-0.231
		l-0.031-0.103l-0.029-0.047l0.008-0.039l0.014-0.052l0.008-0.039l-0.017-0.098l-0.005-0.223l-0.025-0.239l0.009-0.039l0.013-0.051
		l0.021-0.081l-0.021-0.334l0.018-0.077l-0.018-0.098l0.009-0.039l0.009-0.055l0.029-0.133l-0.033-0.09l0.012-0.051l0.018-0.081
		l-0.008-0.141l0.021-0.09l0.008-0.039l-0.029-0.06l-0.035-0.09l-0.025-0.06l0.008-0.218l-0.029-0.103l-0.029-0.047l-0.039-0.008
		l-0.051-0.013l-0.018-0.098l0.008-0.039l0.104-0.029l0.188-0.039l0.021-0.27l-0.158-0.312l-0.025-0.06l0.009-0.039l-0.03-0.107
		l-0.021-0.086l-0.076-0.072l-0.031-0.047l-0.047,0.03l0.026,0.06l-0.009,0.038l-0.051,0.03l-0.082-0.06l0.021-0.09l-0.072-0.099
		l-0.039-0.008l-0.09-0.021l-0.115-0.261l0.014-0.038l-0.082-0.252l-0.039-0.008l-0.055-0.013l-0.129-0.03l-0.039-0.009
		l-0.089-0.021l-0.206-0.047l-0.08-0.06l-0.15-0.133l-0.082-0.06L99.55-1.049l-0.043-0.052l-0.025-0.064L99.327-1.28l-0.073-0.111
		l0.01-0.039l-0.026-0.06L99.19-1.528l-0.106,0.111c-0.018,0-0.014-0.008-0.021-0.017c-0.043-0.043-0.107-0.056-0.168-0.064
		c-0.051-0.004-0.102-0.022-0.137-0.06c-0.014-0.023-0.043-0.053-0.068-0.055c0.042,0.001,0.088,0.025,0.129,0.029
		c0.048-0.004,0.026-0.068,0.039-0.098c0.029-0.047,0.082,0.008,0.103,0.039c0.034,0.039,0.086,0.055,0.138,0.06
		c0.055,0.009,0.119,0.021,0.162,0.064c0.009,0.009,0.009,0.018,0.021,0.018l0.106-0.111l-0.034-0.021l-0.141-0.171l-0.142-0.209
		l-0.128-0.222l-0.214-0.27L98.69-2.517l-0.052-0.013l-0.346-0.039l-0.052-0.013L98.156-2.56l-0.185-0.042l-0.077-0.017
		l-0.111,0.068l-0.239,0.039l-0.077-0.017l-0.043-0.064l-0.128-0.03l-0.052,0.043l-0.038-0.009l-0.18-0.043l-0.12-0.081l-0.047-0.15
		l-0.051-0.013l-0.043-0.008l-0.068,0.119l-0.343-0.299l0.042-0.184L96.354-3.3l-0.077-0.017l-0.09-0.202l0.099-0.248l0.068-0.124
		l0.081-0.12l0.014-0.051l-0.061-0.154l-0.029-0.048l-0.176-0.081l-0.077-0.017l-0.052-0.013l-0.133-0.03l-0.205-0.047l-0.201-0.141
		l-0.23-0.188l-0.158-0.082l-0.09-0.021L94.87-4.921l-0.09-0.022l-0.116-0.081l-0.086-0.06l-0.037-0.008l-0.09-0.021l-0.078-0.017
		L94.33-5.182l-0.038-0.009l-0.077-0.073l-0.051,0.043h-0.201l-0.244,0.039h-0.184l-0.142,0.009l-0.095-0.022l-0.038-0.008
		l-0.052-0.013l-0.094,0.034l-0.261-0.06l-0.052-0.013l-0.088,0.021l-0.262-0.06l-0.141,0.009h-0.062l-0.038-0.009l-0.131-0.03
		l-0.128-0.03l-0.039-0.009l-0.184-0.043l-0.171-0.039l-0.089-0.021l-0.038-0.008l-0.039-0.009l-0.051-0.013l0.008-0.039
		l-0.068-0.056l-0.088-0.214l-0.09-0.201l-0.043-0.051l-0.018-0.099L91.016-6.2l-0.051-0.013l0.012-0.051l-0.113-0.107l-0.107-0.124
		l-0.13-0.03l-0.068-0.06l-0.09-0.021l-0.09-0.021l-0.286-0.124l-0.09-0.021l0.012-0.039l-0.037-0.009l-0.1-0.163l-0.008-0.141
		l-0.061-0.15l0.014-0.231l0.008-0.039l0.061-0.081l0.038-0.347l0.01-0.051l0.099-0.252l0.098-0.252l0.16-0.103l0.39-0.085
		l0.21-0.133L90.906-8.9l0.031-0.132v-0.18l0.051-0.223l0.056-0.071l0.244-0.218l0.013-0.051l0.008-0.039l0.021-0.091l-0.042-0.051
		l-0.03-0.047l-0.039-0.008l-0.191-0.18l-0.231-0.192l-0.038-0.009l-0.073-0.111l-0.03-0.047l-0.209-0.103l-0.039-0.008
		l-0.051-0.013l-0.223,0.004l-0.24-0.154l-0.051-0.008l-0.039-0.008l-0.038-0.009l-0.042-0.051l-0.211-0.047l-0.119-0.082
		l-0.082-0.061l-0.029-0.047l-0.038-0.064l0.009-0.039l-0.121-0.068l-0.055-0.111l-0.072-0.111l-0.111-0.111l-0.043-0.24
		l0.012-0.231l-0.029-0.047l-0.094-0.021l0.008-0.039l-0.098,0.017l-0.193,0.051l-0.098,0.017l-0.104,0.073l-0.098,0.017
		l-0.133-0.03l-0.039-0.008l-0.051-0.013l-0.076-0.021l-0.244,0.039l-0.352-0.081l-0.119-0.086l-0.053,0.043l-0.037-0.009
		l-0.052-0.013l-0.081-0.017l-0.052-0.013l-0.077-0.017l-0.076-0.073l-0.164-0.077l-0.09-0.021l0.01-0.039l-0.111-0.12l-0.125-0.068
		l-0.038-0.009l-0.06,0.026l-0.039-0.013l-0.012,0.039l-0.111,0.068l-0.15,0.06l-0.086,0.021l-0.252-0.099l-0.15,0.047l-0.09-0.021
		l-0.012,0.056l-0.052,0.03l-0.214,0.086l-0.061,0.081l-0.299,0.518l-0.043,0.17l-0.043,0.185l-0.017,0.082l-0.022,0.089
		l-0.021,0.09l-0.09,0.158l-0.008,0.039l-0.029,0.128l-0.022,0.09l-0.021,0.09l-0.09,0.021l-0.052-0.013l-0.009,0.039l-0.051,0.043
		l0.008,0.141l0.095,0.021l-0.077,0.338l-0.154,0.235l-0.06,0.086l-0.06,0.081l-0.111,0.249L83.65-9.26l-0.008,0.039l-0.021,0.094
		l-0.077,0.158l-0.013,0.052l0.008,0.141l-0.008,0.039l-0.129,0.38l0.031,0.047l-0.031,0.128L83.395-8.13l-0.068,0.124L83.266-7.98
		l-0.061,0.081l-0.068,0.3l-0.111,0.068l-0.029,0.128l0.043,0.052l0.018,0.098l-0.018,0.077l-0.15,0.239l-0.719-0.62l-1.402-1.052
		L80.391-8.93l-1.283-0.984l-0.39-0.325l-0.582-0.449l-1.12-0.852l0.012-0.051l-0.672-0.475l-0.633-0.513l-0.051-0.013l-0.06-0.099
		l-0.209-0.103l-0.192-0.18l-0.039-0.008l-0.312-0.249l-0.338-0.312l-0.423-0.316l-0.052-0.013l-0.496-0.432l-0.804-0.681
		l-0.278-0.158l-0.312-0.248l-0.471-0.342l-0.954-0.603l-0.009,0.011l-0.069,0.121l0.117,0.083l-0.039,0.169l-0.021,0.091
		l0.021,0.086l0.042,0.063l-0.017,0.078l-0.064,0.039l-0.116,0.15l0.142,0.166l0.021,0.099l-0.018,0.077l-0.068,0.12l-0.12,0.107
		l-0.068,0.12l0.017,0.099l0.021,0.141l0.231,0.188l-0.03,0.128l0.149,0.128l-0.248,0.492l-0.158,0.278l-0.107,0.111l0.128,0.03
		l0.133,0.029l0.171,0.039l0.171,0.039l0.068,0.111l-0.008,0.039l-0.06,0.081l-0.051-0.013l-0.06,0.069l-0.013,0.051l0.034,0.047
		l-0.008,0.039l-0.27,0.582l-0.021,0.09l-0.039-0.009l-0.09-0.021l-0.047,0.206l-0.098,0.073l-0.073,0.077l-0.248,0.3l-0.021,0.09
		l-0.009,0.039l-0.021,0.09l-0.06,0.081l-0.008,0.039l-0.009,0.039l-0.15,0.06l-0.081,0.12l-0.009,0.039l-0.257,0.351l-0.013,0.051
		l-0.077,0.159l0.068,0.056l0.008-0.039l0.052,0.013l0.124,0.068l0.209,0.282L69.597-9.73l-0.021,0.077l-0.012,0.231l-0.27,0.39
		l-0.132,0.158L69.092-8.75l-0.047,0.03l-0.06,0.026l-0.013,0.051l-0.116,0.154l-0.008,0.039l0.03,0.06l0.141-0.021l0.159,0.09
		l-0.009,0.038l-0.082,0.159l0.073,0.111l0.286,0.3l0.133,0.029l0.073,0.099l-0.069,0.12l-0.119,0.111l-0.013,0.051L69.13-7.103
		l-0.205,0.308l-0.004,0.193l-0.056,0.068l-0.449,0.582l-0.142,0.021l-0.06,0.025l-0.008,0.038l-0.099,0.073l-0.06,0.025
		l-0.03-0.051l-0.03-0.048l-0.12,0.112L67.65-5.584l-0.021,0.09l-0.192,0.23l-0.115,0.068l-0.056,0.069l-0.012,0.051L67.145-5.02
		l0.026,0.064l-0.017,0.077l-0.128,0.206L66.914-4.6l-0.107,0.056l-0.184,0.188l-0.089,0.102l2.032,0.831
		c0.02-0.005,0.032-0.014,0.048-0.021c-0.021,0.045-0.059,0.079-0.13,0.094l-2.032-0.83l-0.017,0.013l-0.013,0.042l-0.064,0.039
		l-0.128,0.188l-0.073,0.081l-0.06,0.081l-0.3,0.287l0.149,0.176l0.039,0.008l0.039,0.009l0.09,0.025l0.017,0.103l0.209,0.09
		l-0.06,0.081l-0.064,0.03l-0.099,0.073l-0.081,0.115l-0.18,0.192l-0.009,0.039l-0.214,0.321l-0.009,0.039l-0.021,0.094
		l-0.128,0.193l-0.103,0.209l-0.098,0.073l-0.051-0.013L65.15-1.467l-0.158-0.09l-0.056-0.188l-0.09-0.021l-0.06,0.082l-0.073-0.111
		l0.021-0.094l-0.03-0.047l-0.103,0.017l-0.051,0.042l-0.038-0.008L64.5-1.848l-0.073,0.081l0.043,0.052l-0.15,0.239l-0.171-0.039
		L64-1.275l-0.051,0.222L63.867-0.89l-0.111,0.073l-0.068,0.119l-0.009,0.039L63.584-0.5l-0.133,0.205l-0.073,0.082L63.34-0.223
		l-0.137,0.009l-0.047,0.03l-0.013,0.051l-0.141,0.188l-0.188,0.051L62.63,0.295l-0.008,0.039L62.57,0.321l-0.021,0.094
		l-0.039-0.009l-0.026-0.064l-0.042-0.051l0.008-0.039l0.034-0.321l-0.03-0.047l0.009-0.038l0.021-0.094L62.48-0.484l-0.06,0.082
		l-0.047,0.03l-0.051-0.009l-0.304,0.125l-0.261,0.351l-0.099,0.252l0.03,0.051l-0.061,0.081l-0.073,0.068l-0.321,0.202l-0.154,0.06
		l-0.116,0.15l-0.064,0.039l-0.038,0.171l-0.022,0.094l-0.099,0.06L60.5,1.776l-0.009,0.042L60.479,1.87L60.47,1.908l-0.09,0.159
		l-0.06,0.261l-0.15,0.295L60.046,2.91l-0.129,0.205l-0.068,0.064L59.55,3.714l-0.33,0.65l-0.038,0.171l-0.086,0.12l-0.599-0.552
		l-2.254-1.938l-0.03-0.047l-0.047,0.03l-0.077,0.082l-0.047,0.029l0.06,0.15l-0.081,0.12l-0.094,0.214L55.909,2.82l0.025,0.06
		l-0.047,0.03l-0.008,0.038l-0.115,0.073l-0.086,0.021l-0.064,0.039l-0.098,0.252v0.18l-0.009,0.043l0.03,0.103l-0.103,0.209
		l-0.051,0.03l-0.095-0.021l-0.269-0.021l-0.052,0.042l-0.171,0.142l-0.021,0.09l0.03,0.047l0.081,0.061l-0.013,0.051l0.021,0.09
		l-0.012,0.051l-0.047,0.03l-0.051,0.03l-0.03,0.133l0.009,0.141l-0.013,0.051l-0.073,0.124l-0.111,0.056l-0.141,0.201l-0.009,0.038
		l-0.013,0.052l-0.017,0.077l-0.06,0.082l-0.068,0.12l-0.039,0.167l-0.081,0.12l-0.069,0.12l0.009,0.141L53.95,6.491l0.017,0.103
		l0.052,0.188l0.073,0.111l0.042,0.009l0.03,0.047l-0.09,0.394l-0.03,0.132L54,7.654l-0.008,0.039l-0.008,0.039l-0.013,0.055
		l-0.299,0.107L53.56,7.774l-0.218,0.004l-0.056-0.013l-0.167,0.141l-0.021,0.09l-0.009,0.039l-0.039,0.171L53,8.249l-0.008,0.038
		l-0.008,0.039l-0.022,0.09l-0.051,0.03l-0.073,0.077l-0.06,0.261l-0.038-0.008l-0.077,0.163l-0.125,0.299l0.043,0.052l0.03,0.047
		l-0.132,0.162l0.004,0.223l0.039,0.009l-0.013,0.051l-0.111,0.291l-0.124,0.107l-0.069,0.121l-0.021,0.093l0.03,0.048l-0.009,0.039
		l-0.051,0.042l-0.009,0.039l-0.051-0.013l-0.095,0.214l-0.085,0.201l-0.094,0.171l-0.107,0.111l-0.09,0.159l-0.107,0.291
		l-0.06,0.081l-0.12,0.522l0.06,0.107l-0.017,0.077l0.051,0.013l-0.081,0.12l-0.013,0.051l-0.013,0.039l-0.107,0.111l-0.073,0.082
		l-0.056,0.068l0.025,0.064l-0.008,0.039l-0.073,0.125l-0.051,0.03l-0.116,0.068l-0.103,0.017l-0.111,0.111l-0.03,0.128
		l-0.013,0.231l-0.021,0.09l-0.098,0.017l-0.121-0.069l-0.042-0.008l-0.149,0.24l-0.069,0.12l-0.017,0.082l-0.06,0.085l-0.099,0.021
		l-0.051,0.043l-0.171,0.141l-0.009,0.039l-0.013,0.055l0.03,0.047l0.03,0.051l-0.013,0.051l-0.021,0.077l-0.06,0.082l-0.039-0.008
		l-0.042-0.052l-0.039-0.008l-0.038-0.008l-0.008,0.039l-0.112,0.068L49.329,15l-0.064,0.025l-0.252,0.133l-1.365-0.454
		l-2.452-0.842l-0.252-0.526l-0.299-0.659l-0.278-0.574l-0.133-0.252l-0.119-0.261l-0.261-0.24l0.013-0.055l-0.042-0.052
		l-0.047-0.145l-0.051-0.013l-0.068-0.056l-0.321-0.209l-0.261-0.06l-0.129-0.03l-1.78-0.787l-0.154,0.419l-0.068,0.12l-0.082,0.176
		l0.039,0.008l0.021,0.09l-0.06,0.082l-0.039-0.009l-0.132,0.338l0.013,0.18l0.047,0.149l-0.03,0.129l-0.077,0.163l0.026,0.06
		l0.081,0.06l0.099,0.158l0.017,0.099l-0.009,0.038l-0.039-0.008l-0.047,0.03l-0.064,0.039l-0.009,0.038l-0.021,0.09l-0.068-0.068
		l-0.128-0.03l-0.073,0.082l0.03,0.103l-0.03,0.132l-0.133,0.146l-0.081-0.06l-0.009,0.039l-0.06,0.085l-0.039,0.171l-0.021,0.09
		l0.021,0.089l0.09,0.022l-0.021,0.089l-0.039-0.008l-0.077,0.077l-0.009,0.039l-0.03,0.133l0.094,0.022l0.069,0.111l0.03,0.051
		l0.06,0.154l0.039,0.008l-0.009,0.043l-0.004,0.192l-0.009,0.039l-0.06,0.082l0.021,0.089l-0.021,0.09l-0.021,0.089l0.034,0.09
		l0.039,0.008l-0.013,0.051l-0.381,0.462l-0.068,0.12l0.021,0.089l-0.124,0.107l-0.013,0.052l-0.055,0.069l-0.069,0.119
		l-0.013,0.052l-0.039,0.171l-0.111,0.068l-0.047,0.206l-0.017,0.09l-0.021,0.09l-0.009,0.039l0.039,0.008l0.051,0.013l0.026,0.051
		l0.009,0.137l-0.013,0.051l-0.009,0.039l-0.047,0.03l-0.039-0.008l-0.013,0.051l-0.085,0.12l-0.15,0.051l-0.09,0.034l-0.248-0.111
		l-0.051-0.008l-0.141,0.021l-0.068,0.124l0.03,0.047l-0.099,0.253l-0.008,0.039l-0.043,0.18l-0.158,0.103l-0.137,0.009l-0.047,0.03
		l-0.184,0.188l-0.082,0.119l-0.021,0.09l-0.107,0.111l-0.081,0.115l-0.056,0.068l0.025,0.06l0.034,0.09l0.12,0.085l-0.017,0.077
		l0.017,0.099l0.039,0.009l0.09,0.021l0.03,0.047l0.132,0.265l0.077,0.249l-0.03,0.133l-0.06,0.025l-0.141,0.009l-0.008,0.051
		l-0.073,0.125l-0.146,0.047l-0.133-0.03l-0.021,0.09l-0.06,0.086l0.03,0.047l-0.009,0.039l-0.013,0.052l-0.111,0.055l-0.12-0.068
		l-0.141,0.009l-0.021,0.094l-0.008,0.038l-0.022,0.09l-0.047,0.03l-0.038-0.009l-0.103,0.03l-0.039-0.008l-0.064,0.026
		l-0.089,0.214l-0.146,0.047l-0.146,0.201l-0.372,0.419L35.8,21.23l-0.051-0.013l-0.013,0.051l-0.039-0.009l-0.056,0.069
		l-0.013,0.051l-0.013,0.039l-0.008,0.039l-0.154,0.239l-0.163,0.103l-0.145,0.022l-0.09-0.022l-0.022,0.077l-0.013,0.052
		l-0.008,0.038l-0.103,0.073l-0.008,0.043l0.132,0.03l-0.021,0.09l-0.017,0.082l-0.017,0.094l0.03,0.047l0.039,0.008l-0.09,0.39
		l-0.068,0.124l-0.039-0.013l-0.094,0.171l-0.03,0.128l-0.082,0.158l-0.244,0.043l-0.017,0.081l0.034,0.103l0.017,0.099
		l-0.009,0.039l0.039,0.008l0.06,0.33l0.09,0.021l0.128,0.03l0.082,0.073l-0.017,0.077l-0.111,0.068l-0.06,0.082l-0.009,0.039
		l-0.009,0.038l-0.064,0.039l-0.107,0.115l-0.15,0.239l-0.111,0.056l-0.009,0.051l-0.12,0.33l-0.03,0.128l-0.201,0.458l-0.073,0.125
		l-0.03,0.128l-0.008,0.039l0.025,0.06l-0.03,0.129l-0.017,0.077l-0.039-0.009l-0.051,0.043l-0.06,0.025l-0.098,0.253l0.03,0.051
		l-0.021,0.09l-0.085,0.021l-0.132,0.162l-0.017,0.077l-0.013,0.052l-0.021,0.077l-0.03,0.132l-0.124,0.107l-0.154,0.06l-0.06,0.081
		l-0.013,0.039l-0.021,0.09l-0.231,0.223l-0.291,0.248l-0.304,0.3l-0.047,0.029l-0.051,0.093l-0.009-0.003l-0.034,0.028
		l-0.026-0.007l-0.006,0.028l-0.094,0.048l-0.052,0.043l-0.208,0.128l-0.021,0.09L31.289,29.2l-0.14,0.184l-0.214,0.321
		l-0.171-0.038l-0.073,0.119l-0.252,0.257l-0.021,0.09l-0.009,0.038l0.039,0.064l-0.021,0.077l-0.064,0.038l-0.064-0.072
		l-0.124,0.106l-0.052,0.043l-0.021,0.077l-0.013,0.052l-0.231,0.167l-0.077-0.018l-0.042-0.051l-0.039-0.009l-0.06,0.081
		l-0.06,0.025l-0.184,0.193l-0.142,0.239l-0.09,0.154l-0.008,0.038l-0.082,0.176l-0.008,0.038l-0.141,0.009l-0.021,0.09
		l-0.021,0.094l0.09,0.197l-0.047,0.03l-0.103,0.029l-0.069,0.12l-0.111,0.056l-0.064,0.081l-0.073,0.077l-0.047,0.03l-0.009,0.038
		l-0.081,0.171l-0.021,0.081l-0.12,0.107l-0.111,0.072l-0.039-0.008l-0.214,0.32l-0.008,0.039l-0.021,0.089l-0.017,0.078
		l0.039,0.008l0.073,0.111l0.107,0.124l0.039,0.009l0.043,0.052l0.008,0.137l-0.038-0.009l-0.094-0.021l-0.129-0.03l-0.047,0.03
		l-0.073,0.081l-0.222,0.185l-0.103,0.017l-0.116,0.154l0.025,0.06l0.009,0.142l-0.047,0.03l-0.038-0.014L27.2,34.445l-0.038-0.008
		l-0.12,0.521l0.06,0.149l0.188,0.138l-0.013,0.038l-0.008,0.038l-0.12,0.163l-0.149,0.047l-0.193,0.227l-0.085,0.12l-0.252,0.312
		l-0.163,0.099l-0.047,0.029l0.077,0.253l0.309,0.796l0.18,0.235l0.038,0.009l0.043,0.051l0.077,0.018l0.042,0.051l0.21,0.047
		l0.338,0.133l0.389,0.27l0.043,0.051l-0.082,0.12l-0.06,0.082l-0.321,0.38l-0.218,0.18l-0.223,0.185l-0.111,0.056l-0.103,0.029
		l-0.047,0.03l-0.047,0.03l-0.115,0.068l-0.111,0.068l-0.321,0.201l-0.368,0.231l-0.359,0.188l0.329,0.531l-0.06,0.085l-0.154,0.061
		l-0.06,0.025l-0.085,0.017l-0.03,0.129l0.488,0.248l0.376-0.27l0.21,0.09l-0.402,0.728l-0.209,0.128l-0.013,0.052L25.81,41.92
		l-0.15,0.06l-0.163,0.099l-0.111,0.061l-0.291,0.068l-0.543,0.2l0.098,0.159l-0.158,0.103l-0.068,0.064l-0.099,0.072l-0.103,0.018
		l-0.424,0.23l-0.06,0.068l-0.522,0.291l-0.458,0.364l-0.171,0.137l-0.154,0.06l-0.167,0.137l-0.261,0.12l-0.462-0.381l-0.069-0.291
		l0.009-0.038l0.133-0.338l-0.445-0.693l-0.06,0.081l-0.047,0.03l-0.205,0.047l-0.077-0.018l-0.094-0.021l-0.051,0.029l-0.15,0.064
		l-0.103,0.017h-0.18l-0.223,0.142l-0.098,0.061l-0.479,0.299l-0.082,0.12l-0.051,0.043l-0.21,0.128l-0.381,0.227L18.57,43.85
		l-0.013,0.052l-0.098,0.018l-0.141,0.008l-0.051,0.043l-0.069,0.068l-0.013,0.052l-0.205,0.132l-0.163,0.099l-0.047,0.03
		l-0.214,0.09l-0.013,0.052l-0.471,0.248l-0.158,0.103l-0.21,0.141l-0.042-0.009l-0.069,0.064l-0.09,0.034l-0.06,0.03l-0.047,0.03
		l-0.051,0.042l-0.051-0.013l-0.047,0.03L16.2,45.223l-0.055-0.013l-0.163,0.099l-0.159,0.103l-0.188,0.052l-0.039-0.009
		l-0.274,0.171l-0.252,0.077l-0.137-0.359l-0.15-0.175l-0.039-0.009l0.017-0.077l-0.025-0.06l-0.133-0.03l-0.103,0.03l-0.09-0.021
		l-0.039-0.009l-0.039-0.009l-0.081-0.072l-0.039-0.009l0.009-0.043l0.009-0.038l0.013-0.052l-0.073-0.098l-0.094-0.022l-0.18-0.18
		l-0.282-0.2l-0.107-0.12l-0.03-0.047l-0.103,0.017l-0.047,0.03l-0.051,0.042l-0.077-0.072l-0.082-0.06l-0.085,0.021l-0.042-0.052
		l-0.03-0.052l-0.081,0.163l-0.03,0.129l-0.021,0.089l0.017,0.09l0.025,0.061l-0.008,0.043l-0.449,0.757l0.141,0.227l0.158,0.257
		l0.051,0.013l0.026,0.06l0.282,0.382l0.137,0.171l-0.411,0.18l-0.008,0.038l-0.051,0.043l-0.249,0.3l-0.505,0.39l-0.432,0.27
		l-0.188,0.038l-0.107,0.03L11.1,47.804l-0.261,0.115l-0.428,0.077l-0.154,0.06l-0.038-0.009l-0.125-0.072l-0.025-0.06l0.077-0.163
		l-0.03-0.052l-0.389,0.086l-0.116,0.068l-0.184,0.038l-0.282,0.03L8.738,48.06L8.37,48.111l-0.099,0.021l-0.611,0.09l-0.24,0.025
		l-0.44,0.133l-0.253,0.077l-0.449,0.167l-0.389,0.142l-0.051-0.014L5.688,48.8l-0.051,0.043l-0.158,0.103l-0.047,0.03l-0.159,0.098
		l-0.06,0.03l-0.38,0.282l-0.351,0.15l-0.163,0.099L4.126,49.45l-0.188-0.184l-0.064-0.068l-0.283-0.201l-0.03-0.047l-0.197-0.142
		l-0.175-0.18l-0.192-0.18l-0.082-0.06l-0.15-0.133L2.192,47.77l-0.042-0.009l-0.039-0.064l-0.321-0.39l-0.038-0.009l-0.612-0.731
		l-0.098,0.061l-0.013,0.051L1.02,46.716l-0.064,0.026l0.039,0.064l0.03,0.047l-0.12,0.106l-0.03,0.133l-0.052,0.03l-0.038-0.009
		L0.72,47.153l-0.133-0.03l-0.03-0.064L0.519,47.05l-0.158,0.099l-0.103,0.21L0.25,47.396l0.043,0.064l0.03,0.047l-0.064,0.086
		L0.16,47.61L0.1,47.692l0.03,0.047l-0.124,0.342l-0.009,0.043l-0.034,0.128l-0.141,0.201l-0.291,0.069l-0.081-0.073L-0.918,48.5
		l-0.013,0.052l-0.146,0.047l-0.107,0.03l-0.047,0.03l0.03,0.047l-0.009,0.051l-0.056,0.068l-0.051-0.013l-0.008,0.052l-0.09,0.021
		l-0.15,0.06l-0.12,0.107l-0.047,0.029l-0.231-0.013l-0.082-0.06l-0.068-0.056l0.013-0.052l-0.052-0.013l-0.06,0.082l-0.009,0.038
		l-0.021,0.09l-0.008,0.038l-0.021,0.09l-0.039,0.167l0.009,0.142l-0.051,0.043l-0.27,0.158l-0.188,0.051l-0.111,0.073l-0.291,0.068
		l-0.008,0.038l-0.077,0.163l-0.133,0.162l-0.047,0.03l-0.039-0.009l-0.064,0.026l-0.039-0.009l-0.552,0.009l-0.74,0.06
		l-0.475,0.025l-0.552,0.009h-0.411l-0.064-0.073l-0.043-0.051l-0.008-0.142l-0.082-0.06l-0.218-0.013l-0.064-0.149l-0.376-0.321
		l-0.013-0.18l-0.12-0.068l-0.056-0.111l-0.06,0.029l-0.039-0.009l-0.154,0.061l-0.09-0.017l-0.039-0.009l-0.107-0.124l0.008-0.038
		l0.008-0.044l0.013-0.051l0.047-0.21l-0.039-0.009l-0.072-0.115l0.021-0.09l-0.03-0.047l-0.051-0.009l-0.069-0.06l-0.051-0.013
		l-0.03-0.064l-0.081-0.06l0.008-0.039l0.021-0.09l-0.077-0.017l-0.055-0.013l-0.039-0.009l-0.008,0.038l-0.09-0.021l-0.141,0.021
		l-0.064-0.068l-0.051-0.009l0.017-0.077l-0.12-0.081l-0.12-0.068l-0.008,0.039l-0.09,0.034l0.013-0.052L-9,47.94l-0.231-0.014
		l-0.09-0.021l-0.021,0.09l-0.039-0.009l-0.039-0.009l-0.073,0.081l-0.085,0.021l-0.06,0.025l-0.039-0.008l-0.09-0.021l-0.209-0.047
		l0.008-0.039l0.009-0.042l0.013-0.052l-0.09-0.021l-0.039-0.009l-0.103,0.03l-0.098,0.021l-0.039-0.009l-0.082-0.06l-0.039-0.009
		l0.021-0.09l-0.017-0.104l-0.013-0.18v-0.171l-0.039-0.009l-0.068,0.064l-0.069-0.056l-0.042-0.051l-0.039-0.009l0.013-0.051
		l0.06-0.069l0.064-0.038l0.008-0.039l-0.154-0.171l-0.086,0.021l-0.034-0.09l-0.025-0.063l-0.111-0.107l-0.017-0.103l-0.06,0.025
		l-0.09,0.034l-0.051-0.013l-0.141,0.009l-0.03-0.048l-0.038-0.008l0.013-0.052l-0.094-0.196l-0.085-0.061l-0.039-0.008
		l-0.051-0.013l-0.103-0.163l-0.133-0.03l-0.06-0.111l-0.042-0.051l0.013-0.052l-0.077-0.017l-0.042-0.052l-0.03-0.051l0.03-0.129
		l-0.077-0.073l-0.099-0.162l0.06-0.029l-0.073-0.111l-0.03-0.052l0.008-0.039l0.06-0.261l0.107-0.11l0.021-0.091l0.008-0.038
		l-0.039-0.009l-0.017-0.099l0.03-0.132l0.047-0.03l0.039,0.009l0.013-0.052l0.017-0.081l-0.154-0.094l-0.03-0.048l-0.111-0.119
		l-0.068-0.291l0.056-0.068l0.068-0.125l-0.026-0.06l-0.081-0.06l-0.039-0.009l-0.039-0.009l-0.06,0.03l-0.103-0.158l0.009-0.043
		l-0.077-0.017l-0.052-0.013l-0.077-0.018l-0.141,0.009l-0.12-0.068l0.009-0.043l-0.154-0.172l-0.077-0.017l-0.111,0.056
		l-0.013,0.051l-0.038-0.008l-0.039-0.064l-0.103-0.162l-0.081-0.24l0.004-0.192l0.008-0.038l0.077-0.163l0.064-0.038l0.086-0.021
		l0.137-0.009l0.056,0.013l0.171-0.153l0.162-0.099l0.159,0.09l0.103-0.03l0.021-0.077l-0.051-0.013l0.013-0.051l-0.021-0.09
		l0.051-0.043l0.009-0.039l0.09,0.021l0.039,0.009l0.06-0.025l-0.021-0.142l0.064-0.038l0.047-0.03l0.188-0.052l0.098-0.017
		l0.047-0.03l-0.137-0.171l-0.128,0.146l-0.051,0.03l-0.052,0.042l-0.038-0.063l-0.039-0.009l0.021-0.081l0.021-0.095l0.009-0.038
		l-0.077-0.072l-0.03-0.048l0.022-0.09l0.06-0.068l-0.03-0.06l-0.171,0.149l-0.094-0.021l-0.025-0.064l0.017-0.076l0.013-0.052
		l-0.039-0.009l-0.205,0.048l-0.03-0.048l0.021-0.094l-1.985,1.639l-0.291,0.304l-0.342,0.291l-0.805,0.676l-0.047,0.03
		l-0.282,0.209l-0.133,0.163l-0.163,0.103l-0.107,0.111l-0.167,0.137l-0.163,0.099l-1.095,0.941l-0.039-0.009l-0.398,0.359
		l-0.804,0.681l-0.792,0.642l-0.107,0.111l-0.282,0.209l-0.06,0.082l-0.111,0.068l-0.12,0.107l-0.047,0.029l-0.008,0.038
		l-0.013,0.052l-0.03,0.133l-0.158,0.103l-0.15,0.047l-0.111,0.068l-0.132-0.029l0.013,0.18l-0.235,0.179l-0.103,0.073l-0.24,0.026
		l-0.265,0.132l-0.039-0.008l-0.039-0.009l-0.056-0.013l-0.039-0.009l-0.008,0.038l-0.039-0.008l-0.098,0.017l-0.052,0.043
		l-0.642,0.167l-0.248,0.119l-0.051-0.013l-0.09,0.035l-0.291,0.067l-0.056-0.013l-0.047,0.03l-0.125,0.111l-0.141,0.009
		l-0.235,0.081l-0.064,0.043l-0.085,0.021l-0.06,0.026l-0.09,0.034l-0.064,0.025l0.042,0.052l-0.111,0.068l-0.008,0.038
		l-0.039-0.009l-0.051-0.013l-0.034-0.047l-0.039-0.009l-0.223,0.129l-0.008,0.056l-0.06,0.068l-0.051,0.043l-0.171,0.137
		l-0.12-0.068l-0.099,0.017l-0.047,0.03l-0.013,0.051l-0.009,0.039l-0.06,0.03l-0.052,0.042l-0.038-0.008l-0.064,0.029l-0.107,0.111
		l-0.12-0.068l-0.073,0.064l-0.103,0.077l-0.209,0.09l-0.27,0.214l-0.06,0.025l-0.039-0.009l-0.111,0.073l-0.047,0.03l-0.111,0.072
		l-0.008,0.038l-0.068,0.124l-0.039-0.009l-0.154,0.064l-0.111,0.068l-0.21,0.129l-0.064,0.025l-0.111,0.111l-0.192,0.231
		l-0.013,0.051l-0.051-0.013h-0.185l-0.192,0.052l-0.064,0.025l-0.039-0.009l-0.077,0.163l-0.103,0.029l-0.107,0.056l-0.111,0.111
		l-0.064,0.039l-0.056,0.068l-0.03-0.047l-0.051-0.014l-0.085,0.021l-0.201,0.047l-0.099,0.073l-0.27,0.158l-0.111,0.069
		l-0.086,0.021l-0.051-0.013l-0.098,0.073l-0.082,0.119l-0.008,0.039l-0.013,0.051l-0.009,0.039l0.103,0.157l0.021,0.142
		l-0.013,0.231l-0.052,0.029l-0.06,0.03l0.051,0.205l0.073,0.099l0.039,0.009l0.025,0.06l0.043,0.052l-0.06,0.025l-0.09,0.034
		l-0.051-0.013l-0.008,0.039l-0.052,0.029l-0.004,0.192l0.073,0.099l0.008,0.137l0.009,0.197l-0.03,0.129l0.017,0.089l-0.051,0.043
		l-0.009,0.039l-0.051-0.014l-0.128-0.029l-0.03-0.047l-0.188,0.038l-0.064,0.043l-0.026,0.351l-0.082,0.12l-0.051,0.043
		l-0.025-0.061l-0.051-0.013l-0.128-0.029l-0.171,0.153l-0.008,0.038l-0.116,0.154l-0.051-0.013l-0.042-0.009l-0.052,0.043
		l-0.021,0.077l-0.073,0.077l-0.008,0.038l-0.077-0.017l-0.103,0.03l-0.051,0.029l-0.06,0.026l-0.039-0.009l0.009-0.039l-0.03-0.047
		l-0.098,0.017l-0.291,0.069l-0.081-0.061l-0.047,0.03l-0.039-0.009l-0.008,0.039l-0.064,0.038l-0.025-0.06l-0.094-0.021
		l-0.06,0.081l-0.021,0.09l0.072,0.099l-0.072,0.081l-0.06,0.081l-0.056,0.073l-0.064,0.038l-0.052,0.03l-0.111,0.068l-0.085,0.021
		l-0.042-0.052l-0.039-0.008l-0.039-0.009l-0.068,0.064l0.03,0.102l-0.06,0.026l-0.038-0.009l-0.093-0.021l-0.052,0.043l-0.051,0.03
		l-0.021,0.09l-0.008,0.038l-0.043,0.167l-0.013,0.052l0.068,0.056l0.06,0.149l0.039,0.009l0.081,0.06l0.026,0.06l0.094,0.021
		l-0.009,0.039l-0.116,0.068l-0.017,0.077l-0.013,0.051l-0.039,0.169l0.043,0.051l0.047,0.146l0.03,0.103l-0.06,0.026l-0.021,0.09
		l-0.047,0.029l-0.013,0.052l-0.047,0.029l-0.073,0.082l-0.12,0.153l-0.009,0.039l-0.064,0.038l-0.056,0.068l0.111,0.125l0.081,0.06
		l-0.013,0.051l-0.068,0.064l-0.09,0.034l-0.069,0.063l0.052,0.014l-0.013,0.056l-0.017,0.077l-0.141,0.021l-0.068,0.064
		L-35.15,59.1l-0.15,0.047l-0.051,0.048l-0.201,0.033l-0.051,0.044l-0.009,0.038l0.03,0.047l-0.051,0.043l-0.039-0.009l-0.278,0.018
		l-0.364,0.149l-0.282,0.03l-0.047,0.029l-0.201,0.094l-0.06,0.029l-0.051,0.043l-0.039-0.009l-0.111,0.06l-0.038-0.008l0.013-0.043
		l-0.137,0.009l-0.051-0.014l-0.18,0.014l-0.252,0.081l-0.111,0.11l-0.085,0.121l-0.09,0.021l-0.051-0.013l-0.252-0.103
		l-0.039-0.009l-0.008-0.141l-0.052-0.013l-0.368,0.051l-0.06,0.026l-0.047,0.029l-0.128-0.029l-0.171-0.043l-0.111,0.068
		l-0.039-0.009l-0.082-0.06l-0.09-0.021l-0.068,0.119l0.064,0.154l-0.03,0.131l-0.09-0.021l-0.201,0.09l-0.064,0.025l-0.06,0.081
		l-0.149,0.048l-0.06,0.081l-0.009,0.038l-0.013,0.052l0.03,0.051l0.03,0.048v0.234l-0.009,0.039l-0.103,0.21l-0.111,0.11
		l-0.073,0.082l-0.107,0.111l-0.092,0.158l-0.009,0.038l-0.099,0.073l-0.137,0.008l-0.081,0.116l0.039,0.064l0.021,0.09
		l-0.013,0.051l0.009,0.141l-0.009,0.039l-0.047,0.03l-0.021,0.09l0.03,0.047l0.077,0.072l-0.021,0.077l-0.013,0.052v0.18
		l-0.085,0.021l-0.073,0.078l-0.03,0.132l-0.039-0.008h-0.18l-0.273-0.009l-0.107,0.06l-0.141,0.021l-0.231-0.013l-0.308-0.03
		l-0.103,0.03l-0.09,0.021l-0.06,0.025l-0.488,0.163l-0.193,0.051l-0.206,0.049l-0.038-0.009l-0.188,0.039l-0.222,0.141h-0.18
		l-0.15,0.06l-0.05,0.03l-0.094-0.021l-0.253,0.077l-0.008,0.039l-0.039-0.014l-0.103,0.034l-0.227,0.03l-0.051-0.013l-0.09,0.034
		l-0.051-0.013l-0.047,0.029l-0.009,0.039l-0.039-0.009l-0.064,0.038l-0.582,0.142l-0.047,0.03l-0.15,0.06l-0.047,0.03l-0.06,0.025
		l-0.051,0.047l-0.008,0.039l-0.103,0.017l-0.03-0.047l-0.039-0.009l-0.111,0.068l-0.449,0.171l-0.047,0.03l-0.171,0.142
		l-0.013,0.051l-0.009,0.043l-0.372,0.188l-0.085,0.021l-0.103,0.034l-0.099,0.017l-0.192,0.052l-0.128-0.029l-0.09-0.022
		l-0.188,0.039l-0.141,0.021l-0.09-0.021l-0.047,0.03l-0.128-0.03l-0.402-0.051l-0.133-0.03l-0.124-0.068l-0.09-0.022l-0.038-0.008
		l-0.047,0.03l-0.141,0.021l-0.09-0.021l-0.039-0.014l-0.06,0.03l-0.291,0.068l-0.039-0.009l-0.039-0.008l-0.009,0.038l-0.053-0.013
		l-0.009,0.051l-0.008,0.039l-0.171,0.137l-0.15,0.062h-0.134l-0.2,0.09l-0.073,0.077l-0.099,0.073l-0.162,0.102l-0.192-0.004
		l-0.39,0.142l-0.054-0.013l-0.038-0.009l-0.039-0.009l-0.053-0.013l-0.01,0.038l-0.15,0.064l-0.017,0.077l-0.051,0.043l-0.047,0.03
		l-0.008,0.038l-0.111,0.068l-0.098,0.018l-0.141,0.021l-0.128-0.029l-0.137,0.009l-0.047,0.029l-0.043,0.18l-0.209,0.129
		l-0.128,0.149l-0.051,0.043l-0.192-0.005l-0.004,0.039l-0.021,0.09l0.098-0.018h0.236l0.261,0.061l0.09-0.021l0.09,0.021
		l0.133,0.029l0.364,0.043l0.351,0.026l0.27,0.021l0.231,0.012l0.685,0.021h0.231l0.077,0.017l1.053,0.025l0.273,0.009l0.364,0.043
		h0.411l1.168,0.052l0.732,0.029l0.685,0.021l0.911-0.021l0.543,0.03l0.231,0.013l0.342,0.12l0.27,0.019l0.039,0.009l0.539,0.03
		l0.317-0.009l0.864,0.063l0.051-0.042l1.724,0.085l1.724,0.026l0.052,0.012l0.992,0.052l0.552-0.008l0.77,0.043l0.993,0.051
		l1.365,0.042l0.051-0.042l1.143,0.047l1.403,0.052l0.505,0.017l0.085-0.021l0.184,0.043l0.184-0.013l0.642,0.009l0.09-0.021
		l0.398,0.052l0.552-0.014l0.373-0.009l0.141-0.008l0.402,0.043l0.24-0.026l0.039,0.009l0.133,0.034l0.145-0.025l0.039,0.009
		l0.688-0.018l0.595,0.043l0.137-0.009l0.09-0.021l0.09,0.021l0.274,0.009l0.039,0.009l0.051,0.013l1.13,0.043l0.18-0.014
		l0.411,0.014l0.103-0.03l1.634,0.064l0.509-0.018l0.077,0.018l0.5,0.021l0.231,0.014l0.462-0.03l0.223,0.051h0.18l0.103-0.029
		l0.27,0.021l0.039,0.008l0.269,0.022l0.142-0.022l0.038,0.009l0.052,0.009h0.175l0.042,0.009l0.051,0.013l0.082,0.018l0.137-0.009
		l0.192-0.009l0.038,0.009h0.18l0.051,0.013l0.039,0.009h0.411l0.642,0.013l0.137-0.009l0.309,0.03l0.685,0.017h0.826l2.045,0.064
		l0.291-0.659l0.042,0.009l1.224,0.052l1.006,0.056l1.36,0.042l0.274,0.021l0.082,0.018l0.103-0.03l0.308,0.03l2.144,0.043
		l-0.71,0.697l1.814,0.05l1.562,0.184l0.308,0.03l0.5,0.021l0.094,0.021l0.171,0.043l0.291-0.073l0.441,0.062l0.312,0.073
		l0.039,0.008l0.039,0.014l1.596,0.038l0.5,0.034l0.736-0.021L2.3,68.983l0.89,0.069l0.192-0.009l0.077,0.018l0.231,0.013
		l0.723,0.029l0.372-0.008l0.039,0.008l0.603,0.005l0.128,0.029l0.402,0.052l0.077,0.017l0.06-0.025l0.133,0.03l0.141-0.021
		l0.039,0.008l0.231,0.014l0.347,0.039l0.197-0.009l0.437,0.06l0.372-0.009l0.141-0.008l0.077,0.021l1.134,0.086l0.171,0.038
		l0.449,0.009l0.142-0.009l0.787-0.008l0.038,0.008l1.044,0.064l0.039,0.009l1.455,0.063l0.039,0.009l0.333-0.018l0.419-0.038
		l0.039,0.009l0.039,0.009l0.141-0.009l0.051,0.013l0.454,0.009l0.042,0.008l0.65-0.025l0.373-0.008h0.59l0.141-0.009l0.09,0.021
		l0.539,0.029l0.218,0.009l0.231,0.013l0.505,0.021l0.171,0.039l0.321-0.021l0.672,0.072l0.467,0.009l0.077,0.021l0.505,0.021
		l0.681,0.021l0.723,0.03l0.941,0.082l0.188,0.004l0.039,0.009l1.185,0.038l0.077,0.021l0.736,0.034l0.27,0.021l0.351,0.038
		l0.642,0.009h1.609l0.039,0.009l0.783,0.005l0.223-0.005l0.051,0.013h0.176l0.038,0.009l0.052,0.013l1.142-0.009l0.5,0.018
		l0.086-0.021l0.783,0.004l0.274,0.009h0.59l0.822,0.013l0.137-0.008l0.466,0.013l0.039,0.008l1.1-0.017l0.231,0.009l0.141-0.021
		l0.141-0.009l0.282-0.03l0.013,0.005c0.004-0.009,0.004-0.021,0.009-0.025c0.051-0.082,0.132-0.142,0.265-0.146
		c0.116,0.025,0.163-0.03,0.188-0.107c0.025-0.081,0.03-0.176,0.03-0.253c0.038-0.188-0.094-0.368-0.005-0.564
		c-0.004-0.103,0.039-0.124,0.103-0.141c0.064-0.014,0.133-0.022,0.158-0.099c0.082-0.244,0.394-0.219,0.5-0.433"/>
	<polygon fill="#BAC9CF" points="144.955,20.796 144.769,20.836 144.621,20.862 144.527,20.875 143.098,21.144 141.814,21.344 
		141.346,21.413 140.664,21.533 140.49,21.549 140.195,21.618 139.915,21.648 139.246,21.768 138.058,21.995 136.145,22.277 
		136.118,22.414 136.066,22.457 135.973,22.487 135.959,22.512 135.934,22.606 136.041,22.769 136.028,22.812 136.016,22.867 
		135.977,22.854 135.951,22.803 135.912,22.752 135.836,22.739 135.759,22.859 135.707,23.073 135.656,23.142 135.711,23.702 
		135.673,23.688 135.515,23.796 135.262,23.663 135.181,23.638 134.621,24.279 134.394,24.318 134.193,24.134 134.141,24.228 
		133.966,24.36 133.179,25.135 133.152,25.272 133.195,25.323 133.328,25.349 133.944,25.268 133.957,25.174 134.064,25.161 
		134.33,25.174 134.479,25.293 134.869,25.563 134.924,25.953 134.848,26.299 134.715,26.5 134.595,26.658 134.432,26.696 
		134.325,27.005 134.283,27.352 134.137,27.553 133.992,27.608 133.842,27.664 133.696,27.959 133.5,27.997 133.059,28.092 
		132.708,28.006 132.494,28.087 131.946,28.515 132.135,28.917 132.348,29.332 132.174,29.747 131.878,29.961 131.813,30.081 
		131.72,30.282 131.763,30.483 131.686,30.659 131.646,30.859 131.477,31.01 131.168,31.172 131.104,31.215 131.049,31.416 
		130.996,31.459 130.971,31.634 130.971,32.186 130.783,32.413 130.475,32.99 130.248,33.354 130.154,33.517 130.102,33.598 
		129.838,34.133 129.769,34.296 129.594,34.762 129.58,34.855 129.422,35.36 129.436,35.455 129.422,35.536 129.529,35.656 
		129.572,35.707 129.546,35.802 129.49,36.242 129.307,36.614 129.118,37.256 129.028,37.816 129.041,38.018 129.071,38.056 
		129.109,38.107 129.135,38.215 129.055,38.321 129.041,38.364 128.947,38.621 128.771,38.916 128.707,39.211 128.682,39.759 
		128.764,40.012 128.775,40.093 128.764,40.187 128.738,40.281 128.711,40.627 128.674,40.991 128.674,41.167 128.416,41.663 
		128.135,42.143 128.053,42.262 128.078,42.326 127.997,42.716 127.903,43.25 127.929,43.571 127.959,43.614 128.014,43.627 
		128.121,43.789 128.04,43.909 127.95,44.123 127.938,44.166 127.924,44.222 127.924,44.26 127.955,44.298 127.93,44.432 
		127.916,44.482 128.225,45.138 128.289,45.206 128.344,45.219 128.25,45.607 128.275,45.702 128.301,45.98 128.447,46.301 
		128.635,46.477 129.062,47.17 129.213,47.396 129.426,48.209 129.414,48.479 129.627,48.534 130.018,48.44 130.055,48.27 
		130.483,47.999 130.766,48.389 130.821,48.538 130.941,48.564 131.168,48.444 131.287,48.282 131.407,48.175 131.608,47.896 
		132.036,47.443 132.207,47.268 132.275,47.187 132.571,46.879 132.584,46.836 132.64,46.811 132.708,46.729 132.746,46.703 
		132.84,46.583 132.947,46.477 133.281,46.01 133.324,45.877 133.23,45.663 133.256,45.531 133.375,45.424 133.414,45.287 
		133.482,45.167 133.482,45.124 133.495,45.086 133.521,45.005 133.375,44.833 133.256,44.393 133.418,43.644 133.247,43.054 
		133.26,43.015 133.354,42.946 133.555,42.908 133.623,43.002 133.675,43.015 133.701,43.028 133.996,42.775 134.625,41.864 
		134.638,41.825 134.812,41.41 134.812,41.227 134.826,41.146 134.801,41.094 134.838,40.962 134.934,40.709 135.197,40.175 
		135.425,39.789 135.583,39.494 135.973,38.989 136.08,38.707 136.187,38.266 136.118,38.159 136.092,37.876 136.037,37.727 
		136.746,36.242 137.256,35.267 137.312,35.189 137.581,34.787 137.556,34.587 137.222,34.573 137.209,34.467 137.141,34.359 
		137.141,33.73 137.299,33.303 137.393,32.875 137.624,32.101 137.705,31.565 137.68,31.459 137.68,31.416 137.692,31.373 
		137.906,30.864 137.92,30.812 138.014,30.573 138.026,30.53 138.201,30.196 138.215,30.153 138.377,29.645 138.578,29.136 
		138.659,29.016 138.698,28.857 138.792,28.682 138.805,28.601 138.887,28.425 139.049,27.916 139.263,27.608 139.357,27.394 
		139.412,27.368 139.652,26.915 140.067,26.329 140.105,26.342 140.427,25.957 140.652,25.743 140.76,25.661 140.961,25.58 
		141.445,25.554 141.62,25.554 141.727,25.661 141.847,25.743 142.249,25.969 142.45,25.957 142.557,25.85 142.613,25.824 
		142.678,25.743 142.814,25.554 143.147,24.883 143.443,24.04 143.871,22.958 143.884,22.919 143.935,22.863 144.174,22.435 
		144.496,21.858 144.564,21.738 144.816,21.242 145.043,20.839 	"/>
</g>
</svg>
