<?xml version="1.0" encoding="utf-8"?>
<!-- Generator: Adobe Illustrator 16.0.4, SVG Export Plug-In . SVG Version: 6.00 Build 0)  -->
<svg version="1.2" baseProfile="tiny" id="Layer_1" xmlns="https://www.w3.org/2000/svg" xmlns:xlink="https://www.w3.org/1999/xlink"
	 x="0px" y="0px" width="153px" height="64px" viewBox="0 0 153 64" xml:space="preserve">
<title>US-Mainland</title>
<desc>Created with Sketch.</desc>
<g>
	<polygon fill-rule="evenodd" fill="#BAC9CF" points="134.857,52 132.312,51.632 132.217,51.116 133.427,50.237 134.53,50 
		135.776,50.28 136.217,51.125 	"/>
	<polygon fill-rule="evenodd" fill="#BAC9CF" points="105.846,68.693 102.34,71.84 101.236,71.93 99.826,71.283 97.466,71.095 
		92.836,71.872 89.621,72.877 86.816,74.568 86.304,74.659 85.712,74.764 84.203,73.594 83.262,73.319 78.592,73.104 75.643,73.957 
		72.837,75.806 71.629,76 71.217,75.157 71.23,74.11 72.875,72.823 73.583,70.529 74.591,69.652 75.25,67.306 75.165,65.682 
		74.767,64.614 73.436,61.055 73.52,58.492 73.792,57.605 76.4,54.812 77.301,54.247 78.562,54.054 81.699,55.35 85.158,55.969 
		89.48,54.768 91.188,52.592 92.416,52.586 94.182,52.578 96.67,51.146 97.564,51 101.438,51.992 102.531,52.792 102.768,54.941 
		103.445,55.316 103.777,53.96 104.773,54.13 104.854,51.933 107.045,52.702 108.061,55.796 110.154,56.348 112.044,58.22 
		113.739,59.326 116.991,59.632 119.064,59.049 120.41,59.261 120.627,58.792 120.365,58.684 117.994,58.558 117.643,58.019 
		117.855,57.864 119.328,57.675 122.234,56.406 123.174,56.786 124.227,56.695 126.179,56.042 130.264,56.989 132.838,56.867 
		133.248,56.733 134.368,56.365 136.144,57.124 141.455,56.623 144.812,56.933 146.217,57.947 144.355,59.7 138.312,59.876 
		135.808,62.404 133.332,63.051 132.798,63.318 129.684,64.883 126.889,65.1 125.578,65.507 122.879,67.144 119.975,68.412 
		117.604,69.009 114.714,69.126 113.021,70.098 112.021,70.241 110.197,69.17 107.466,69.291 	"/>
	<path fill-rule="evenodd" fill="#BAC9CF" d="M71.452-0.667v-0.134l-0.118-0.135l0.002-0.133l-0.118-0.133v-0.399L71.57-2
		c0.262,0.114,0.548,0.2,0.824,0.269l0.118,0.133L72.63-1.6l0.235,0.267h0.118l0.116,0.134v0.267h0.118v0.134l-0.118,0.133v0.267
		l-0.236,0.266h-0.116L72.628,0l-0.236-0.001l-0.116-0.133l-0.118-0.001l-0.117-0.133h-0.236v-0.134h-0.119L71.452-0.667z"/>
	<path fill-rule="evenodd" fill="#BAC9CF" d="M70.715,3.18V3.076l-0.101-0.103V2.666h-0.099l-0.1-0.102l-0.101-0.001l0.002-0.205
		h-0.101V2.256l-0.101-0.103v-0.41l0.101-0.103h0.101V1.128l-0.099-0.102h-0.201l-0.099-0.104c-0.176,0.062-0.52-0.307-0.6-0.41
		l-0.002-0.205l-0.099-0.103h0.099L69.517,0l0.701,0.001l0.101,0.103l0.4,0.102c0.2,0.052,0.311-0.045,0.6,0.104
		c0.107,0.055,0.235,0.261,0.398,0.205c0.19,0.193,0.875,1.112,0.9,1.129v0.103c0.097,0.066,0.264,0.374,0.4,0.513v0.103
		l0.099,0.103v0.103l0.101,0.104l-0.001,0.204c-0.219,0.157-0.536,0.103-0.8,0.103l-0.1,0.102h-0.101v0.103h-0.1l0.001,0.308h-0.101
		v0.103l-0.101,0.103v0.103L71.714,4h-0.3l-0.099-0.205h-0.101v-0.41l-0.099-0.103h-0.201L70.814,3.18H70.715L70.715,3.18z"/>
	<path fill-rule="evenodd" fill="#BAC9CF" d="M56.807,2.81c-0.21-0.06-0.327-0.167-0.471-0.286V2.429l-0.118-0.096V2.238
		l0.234-0.001l0.119-0.095V1.951c-0.071-0.098-0.233-0.309-0.353-0.38V1h0.236l0.471,0.381l-0.002,0.096
		c0.177,0.095,0.178,0.284,0.354,0.381l-0.002,0.095c0.287,0.081,0.502,0.311,0.708,0.477v0.095h0.116l0.118,0.096v0.096
		l-0.118,0.096L57.865,2.81l-0.118,0.096C57.61,2.869,57.442,3,57.275,3c-0.167,0-0.334-0.133-0.471-0.096L56.807,2.81z"/>
	<path fill-rule="evenodd" fill="#BAC9CF" d="M57.582,4.454l0.364,0.001c0.033,0.151-0.128,0.305-0.091,0.454h-0.092v0.182
		l0.092,0.091h0.09v0.091h0.183c0,0.121-0.004,0.243,0,0.363l0.09,0.001V6h-0.272V5.909l-0.091-0.092l0.001-0.09h-0.092V5.546
		h-0.091l-0.091-0.092h-0.181v-0.09l-0.09-0.001l-0.092-0.091c-0.042,0.015-0.304-0.09-0.455-0.091V5.091h-0.09V5h0.09V4.909
		c-0.144-0.146-0.259-0.278-0.363-0.455v-0.09l-0.091-0.001V4.272h-0.09l-0.001-0.091L56.491,4h0.273l-0.001,0.091h0.091
		C56.903,4.255,57.532,4.291,57.582,4.454z"/>
	<path fill-rule="evenodd" fill="#BAC9CF" d="M67.01,10.522c0.183-0.125,0.713-0.587,0.813-0.758
		c0.018-0.03,0.125-0.555,0.136-0.612l0.067-0.361c0-0.982-1.962-1.901-2.639-2.491c-0.184-0.16-0.326-0.382-0.509-0.542
		c-0.256-0.224-0.612-0.364-0.812-0.649L64.168,5h0.202c1.061,0.835,2.42,1.332,3.555,2.059c0.707,0.453,1.224,0.955,2.033,1.301
		c0.584,0.25,1.304,0.418,1.929,0.544c0.224,0.045,0.497,0.043,0.711,0.108c0.239,0.073,0.476,0.236,0.712,0.326
		c0.445,0.17,0.925,0.249,1.319,0.543c0.323,0.241,0.52,0.635,0.71,0.976c0.186,0.331,1.144,0.163,1.524,0.326
		c0.38,0.163,0.713,0.507,1.116,0.65c0.371,0.132,0.765,0.034,1.117,0.11c0.078,0.017,0.852,0.377,0.914,0.434
		c0.228,0.208,0.35,0.552,0.607,0.759c0.238,0.19,0.607,0.321,0.814,0.543c0.081,0.086,0.127,0.23,0.203,0.324
		c0.241,0.302,0.545,0.584,0.811,0.868c0.4,0.156,0.752,0.048,1.116,0.326c0.53,0.404,0.514,0.766,1.319,0.977l0.203,0.541
		c-0.154,0.264-1.115,0.7-1.424,0.864c0.018,0.103,0.098,0.377,0.203,0.434c1.003,0.108,2.325-0.672,3.148-0.537l0.203,0.326
		c-0.053,0.433-0.312,0.774-0.408,1.19c0.105,0.167,0.172,0.46,0.203,0.649c-0.238,0.153-0.548,0.229-0.814,0.324l-0.406-0.109
		c-0.17,0.048-0.36,0.119-0.508,0.216c0,0.031-0.006,0.305,0,0.324c0.049,0.158,0.145,0.244,0.101,0.434l-0.204,0.216
		c-0.527-0.305-1.107-0.753-1.521-1.193c-0.116-0.125-0.144-0.303-0.306-0.433l-0.507-0.11c-0.607,0.215-1.447,0.692-2.03,0.214
		c-0.021-0.167-0.266-0.37-0.406-0.434c-0.031,0-0.291-0.006-0.307,0c-0.418,0.147-0.768,0.42-1.219,0.539
		c-0.317,0.084-0.689,0.166-1.015,0.215c-0.397,0.061-0.528-0.033-0.916,0.215c-0.03,0.156,0.039,0.402,0.102,0.542
		c0.265,0.233,0.665-0.021,0.914,0.217c0.099,0.216,0.191,0.442,0.303,0.65c0.22,0.41,0.588,0.793,0.508,1.301l-0.204,0.216
		c-0.781,0.138-1.076-0.688-1.522-1.085c-0.26-0.231-1.367-0.851-1.725-1.084c-0.331-0.041-1.1,0.112-1.421,0.215
		c-0.088,0.027-0.453,0.205-0.509,0.216l-0.71-0.001c-0.167-0.026-1.062-0.334-1.219-0.435c-0.179-0.115-0.335-0.305-0.507-0.434
		c-0.31-0.231-2.14-1.196-2.539-1.302c-0.171-0.483-0.013-0.937-0.101-1.407c-0.061-0.324-0.25-0.632-0.303-0.975
		c0.061-0.352,0.322-0.676,0.507-0.974c-0.036-0.218-0.165-0.479-0.303-0.65c-0.143-0.06-1.325-0.534-1.422-0.542L66.329,14.6
		c-0.299,0.045-0.661,0.062-0.949,0.143c-0.552,0.156-1.074,0.481-1.624,0.648c-0.637,0.193-1.37,0.088-2.033,0.215
		c-1.126,0.766-0.384,1.479-1.118,1.948c-0.208,0.134-0.489,0.207-0.71,0.325c-0.297,0.158-0.428,0.31-0.814,0.324l-0.305-0.217
		c-0.273-0.562,0.202-1.136,0.104-1.732c-0.153-0.142-0.401-0.284-0.609-0.325c-0.131,0.113-0.364,0.365-0.407,0.542l-0.407,0.108
		c-0.327-0.146-0.896-1.093-1.015-1.408c-0.156-0.415-0.006-0.909-0.203-1.299c-0.16-0.136-0.335-0.317-0.509-0.434
		c-0.112-0.074-0.558-0.242-0.712-0.324c-0.321-0.171-0.841-0.527-1.116-0.65l-0.711-0.216c-0.416-0.052-0.895,0.001-1.321-0.001
		c-0.298,0.255-0.674,0.576-1.017,0.759c-0.623,0.332-1.756,0.55-2.133,1.19h-0.405c-0.023-0.185-0.365-0.456-0.509-0.541
		c-0.39,0-0.735-0.005-1.117,0.108c-0.357,0.542-1.123,0.764-1.726,0.541l-0.611-0.864c-0.175-0.062-0.453-0.126-0.609-0.217
		c-0.075-0.044-0.104-0.088-0.169-0.145c-0.282-0.24-0.554-0.369-0.847-0.577l-0.203-0.145c-0.114-0.141-0.214-0.379-0.305-0.541
		c0.117-0.255,1-0.293,1.219-0.433c0.203-0.13,0.427-0.38,0.609-0.542v-0.325l0.203-0.324c0.309-0.154,0.892-0.396,1.221-0.433
		l0.812-0.001c0.88,0,1.68,0.022,2.54-0.182l0.608-0.144c0.53-0.218,0.433-0.793,0.916-0.974l0.712,0.107
		c0.399,0.233,0.581,0.601,0.813,0.975l0.305,0.107l0.305-0.107c0.125-0.397,0.368-1.465,0.609-1.732
		c0.276-0.23,1.469-0.433,1.83-0.433c0.64,0,1.796,0.107,2.438,0.217c0.461,0.079,0.961,0.284,1.422,0.325
		c0.312,0.028,0.698-0.107,1.018-0.107c0.575,0,1.157,0.21,1.726,0.001l0.205-0.216c-0.072-0.39,0.193-0.818,0.609-0.866
		c0.425,0.239,1.044,1.016,1.319,1.408c0.049,0.069,0.488,0.741,0.508,0.758C64.544,9.22,66.405,10.383,67.01,10.522z"/>
	<path fill-rule="evenodd" fill="#BAC9CF" d="M121.182,12.536c0.281,0.25,0.545,0.034,0.809-0.106
		c0.031-0.097,0.117-0.265,0.203-0.327c0.49,0,0.77,0.055,1.21,0.333l-0.002,0.546l0.201,0.219l0.201,0.001l0.102-0.108
		c0.261-0.056,0.505,0.165,0.808,0.112c0.082,0.121,0.259,0.283,0.402,0.329c0.126,0.202,0.1,0.324,0.1,0.548l-0.102,0.108V14.3
		c-0.088,0.078-0.287,0.14-0.404,0.107l-0.203,0.219l0.1,0.219l-0.1,0.109c-0.15-0.055-0.732,0.432-0.811,0.543
		c-0.113,0.163-0.133,0.423-0.305,0.546v0.219l-0.405,0.436c-0.487,0.087-0.622-0.129-0.907-0.44
		c-0.082,0.022-0.329-0.077-0.402-0.11v-0.11l-0.102,0.001v-0.11c0.315-0.228,0.664-1.148,0.712-1.528
		c-0.46-0.511-0.394-0.508-1.108-0.77c-0.109-0.041-0.189-0.45-0.199-0.547l-0.402-0.221c-0.424,0.25-0.926-0.091-1.617,0.65
		c-0.277,0.032-0.652,0.001-0.909-0.112l-0.202-0.437c0.09-0.549,0.344-1.104,0.51-1.64l-0.1-0.219
		c-0.295-0.081-0.773,0.207-1.076,0.288c-0.254,0.067-0.496-0.01-0.74,0.033c-0.992,0.175-0.492,1.368-0.311,1.967
		c-0.208,0.358-0.48,0.875-0.912,0.981l-0.402-0.111c-0.094-0.309-0.25-0.657-0.199-0.984c-0.213-0.233-0.566-0.511-0.907-0.439
		l-0.405,0.436c0.01,0.396,0.244,0.563,0.402,0.876c0.086,0.168,0.113,0.379,0.199,0.547c0.219,0.432,1.131,1.307,1.51,1.536
		c0.272,0.166,0.487,0.061,0.807,0.44h0.201c0.225,0.228,0.269,0.623,0.334,0.913c0.092,0.398,0.338,1.108,0.266,1.495
		c-0.041,0.215-0.254,0.438-0.305,0.654c-0.051,0.218-0.01,0.633-0.104,0.984c-0.037,0.141-0.183,0.299-0.205,0.437
		c-0.041,0.265-0.027,0.72-0.001,0.984c0.015,0.146,0.083,0.293,0.1,0.438c0.03,0.274-0.001,0.597-0.003,0.875
		c-0.076,0.2-0.312,0.457-0.506,0.546l-0.301-0.438c0.095-0.612-0.149-1.36-0.5-1.861c-0.031-0.012-0.287-0.11-0.303-0.11
		c-0.145,0-0.226,0.021-0.37,0.035l-0.739,0.07c-0.193,0.015-0.42-0.034-0.606-0.002c-0.092,0.017-0.213,0.076-0.303,0.108
		c-0.326-0.065-0.913-0.437-1.007-0.769c0-0.549,0.201-1.365-0.399-1.641c-0.286,0.054-0.641,0.106-0.91,0.215
		c-0.312,0.126-0.667,0.404-1.01,0.434c-0.119,0.011-0.678-0.137-0.806-0.184c-0.35-0.127-0.803-0.271-1.109-0.478
		c-0.331-0.222-1.141-1.238-1.41-1.316c-0.621,0.041-1.605,2.144-2.932,1.852c-0.12-0.131-0.308-0.294-0.402-0.439
		c-0.094-0.143-0.15-0.613-0.503-0.657c-0.284-0.034-0.62-0.001-0.909-0.002c-0.395-0.001-0.816,0.017-1.111,0.325l-0.102,0.437
		c-0.37,0.223-0.799,0.416-1.213,0.544v0.219l0.201,0.22l-0.201,0.327c-0.118,0.123-0.455,0.135-0.605,0.107
		c-0.162-0.229-0.299-0.505-0.402-0.766c-0.413-0.034-1.016-0.488-1.312-0.77c-0.138-0.132-0.257-0.318-0.403-0.438
		c-0.337-0.275-0.508-0.187-0.805-0.768c-0.026-0.052-0.021-0.089-0.033-0.146c-0.064-0.282-0.227-0.562-0.268-0.84
		c-0.041-0.269,0.07-0.341,0.103-0.546c0.011-0.071,0.022-0.666,0-0.765c-0.063-0.28-0.209-0.73,0.003-0.984
		c0.443-0.137,1.924-0.76,2.222-1.198c-0.034-0.274,0.067-0.501,0.104-0.765c0.005-0.036,0.007-0.631,0.001-0.656
		c-0.01-0.056-0.088-0.16-0.102-0.22c-0.006-0.027,0.002-0.377,0.002-0.437c0.1-0.16,0.438-0.278,0.607-0.326l0.201,0.219
		l-0.002,0.437l0.202,0.33h0.303c0.195-0.183,0.407-0.199,0.606-0.327c0.256-0.165,0.188-0.275,0.709-0.436
		c0.18-0.055,0.405-0.015,0.605-0.107c0.1-0.046,0.207-0.156,0.303-0.218c0.265-0.171,0.59-0.209,0.876-0.362
		c0.053-0.028,0.078-0.055,0.136-0.072c0.322-0.099,1.462,0.195,1.816,0.224c0.617,0.05,1.879-0.185,2.425-0.54
		c0.276-0.484,0.616-0.942,0.912-1.418c0.036-1.034-1.312-0.805-1.513-1.316l0.002-0.328c0.084-0.14,0.465-0.408,0.607-0.436
		c0.396-0.077,1.89,0.068,2.32,0.226c0.275,0.101,0.668,0.267,0.908,0.439c0.027,0.021,0.073,0.096,0.101,0.109
		c0.362,0.18,0.737,0.397,1.11,0.55c0.281,0.115,2.07,0.175,2.32,0.117c0.023-0.005,0.553-0.296,0.607-0.326l0.135,0.037
		l0.269,0.074c0.292,0.142,0.532,0.342,0.841,0.477c0.064,0.028,0.109,0.031,0.168,0.073c0.311,0.226,0.36,0.496,0.807,0.659
		c0.467,0.17,0.504,0.051,0.908,0.003c0.055-0.007,1.41,0.003,1.413,0.004c0.296,0.098,0.842,0.468,1.108,0.66
		c0.262,1.04,0.562,0.95,1.208,1.536C120.836,11.894,121.001,12.242,121.182,12.536z"/>
	<path fill-rule="evenodd" fill="#BAC9CF" d="M95.217,9.536L95.216,9.67C95.15,9.636,95,9.752,94.951,9.803v0.134h-0.088
		l-0.09,0.132l-0.086,0.001v0.133h-0.09v0.134H94.51v0.134l-0.176-0.001l-0.089-0.134c-0.265-0.006-0.529-0.002-0.794-0.002
		l-0.088,0.133h-0.088V10.6l-0.088-0.001v0.134h-0.09V11h-0.176l-0.088-0.135v-0.134h-0.089l0.001-0.134h-0.088l-0.088-0.134
		l-0.088-0.001l-0.176-0.268l-0.09-0.001v-0.133l0.09,0.001l0.086-0.134h0.267l0.087-0.133h0.089v0.135
		c0.147,0.028,0.542-0.098,0.705-0.133l0.177-0.267l0.442,0.002l0.087-0.134V9.266h0.089V9.132l0.089,0.001V9
		C94.818,9.002,94.907,9.142,95.217,9.536z"/>
	<path fill-rule="evenodd" fill="#BAC9CF" d="M39.275,9.728l-0.116-0.091h-0.118c-0.263-0.201-0.556-0.34-0.824-0.545L38.333,9
		h0.589l0.235,0.182l0.471,0.001V9h0.235v0.091h0.118l0.119,0.091v0.091l0.118,0.091l-0.002,0.091h-0.116v0.091H39.98v0.092
		l-0.118,0.091L39.865,10h-0.119l-0.118-0.091h-0.234V9.818h-0.118V9.728L39.275,9.728z"/>
	<path fill-rule="evenodd" fill="#BAC9CF" d="M78.217,10.396l0.098,0.001v-0.134c0.168,0.002,0.234-0.013,0.387,0.134
		c0.176-0.167,0.281-0.134,0.484-0.132l0.098-0.134l0.098,0.001L79.477,10c0.191-0.002,0.213,0.072,0.387,0.133
		c0.042,0.015,0.156-0.016,0.193,0.002c0.124,0.057,0.27,0.185,0.388,0.265c0.01,0.007,0.304,0.001,0.321,0.001
		c0.34,0.001,0.411,0.021,0.742,0.135c0.021,0.007,0.778,0,0.871,0.001l0.098-0.133l0.291,0.002v-0.134l0.098-0.133
		c0.263,0.003,0.655,0.167,0.773,0.135l0.29,0.399h0.097l-0.001,0.398l0.097,0.001v0.133h0.096l-0.192,0.265h-0.192l-0.098,0.133
		h-0.098v0.132h-0.193v0.133h-0.098L83.249,12l-0.096-0.134v-0.265h-0.097v-0.134h-0.193l-0.098-0.133l-0.291-0.001l-0.097,0.133
		c-0.088-0.043-0.238-0.159-0.289-0.267c-0.05,0-0.468-0.009-0.485-0.001c-0.045,0.021-0.155,0.123-0.192,0.133
		c-0.421,0.115-0.659-0.116-0.968-0.4c-0.1-0.091-0.223-0.121-0.289-0.267c-0.059,0-0.664-0.008-0.678-0.001
		c-0.221,0.1-0.115,0.132-0.389,0.132c-0.035,0-0.166,0.007-0.193,0c-0.189-0.053-0.288-0.132-0.484-0.135L78.217,10.396z"/>
	<path fill-rule="evenodd" fill="#BAC9CF" d="M41.217,10.5l-0.077,0.083v0.083l-0.077,0.084v0.166l0.077,0.083L40.91,11v-0.084
		h-0.077l-0.077-0.082l-0.076-0.001V10.75c-0.122-0.104-0.222-0.283-0.308-0.417h-0.154v-0.166h0.154l0.076-0.084V10h0.077
		l0.077,0.084c0.065-0.019,0.313,0.063,0.384,0.082l0.077,0.084h0.077v0.083l0.076,0.084L41.217,10.5z"/>
	<path fill-rule="evenodd" fill="#BAC9CF" d="M90.957,11c-0.17-0.053-0.357-0.087-0.522-0.164c-0.044-0.021-0.132-0.146-0.174-0.161
		c-0.358-0.134-0.575,0.136-0.956-0.165l-0.088-0.322c0.12,0.057,0.287-0.162,0.436-0.161c0.177,0.001,0.437-0.062,0.608,0.003
		c0.269,0.1,0.44,0.331,0.697,0.003l0.173,0.162v0.323h0.086v0.16l-0.086-0.001l-0.001,0.162h-0.086L90.957,11z"/>
	<path fill-rule="evenodd" fill="#BAC9CF" d="M86.217,10.999v-0.125l0.101-0.126l0.2,0.001l0.1-0.126l0.201,0.001l0.099-0.126h0.101
		l0.101-0.124h0.099l0.002-0.126l0.398,0.001v-0.126l0.201,0.001l0.098,0.125c0.109,0.046,0.209-0.096,0.302-0.125
		c0.076-0.023,0.216,0.001,0.302,0.001L88.618,10l0.599,0.001l-0.1,0.125v0.126l-0.398-0.001v0.125h-0.201l-0.101,0.125h-0.399
		l-0.102,0.125l-0.1-0.001l-0.102,0.126h-0.098l-0.101,0.125c-0.104,0.042-0.212-0.089-0.3-0.126
		c-0.058-0.024-0.334,0.125-0.499,0.124L86.617,11L86.217,10.999z"/>
	<path fill-rule="evenodd" fill="#BAC9CF" d="M32.68,15.999L32.448,16l-0.116-0.12v-0.121l-0.114,0.001v-0.24l0.23-0.24v-0.12
		l0.114,0.001l0.116-0.12l0.23-0.001l0.116-0.12V14.32c0.315-0.165,0.714-0.311,0.923-0.601h0.114l0.577-0.601l0.116,0.001
		L34.871,13v0.12h0.116v0.359l-0.116,0.12v0.239l0.116,0.12v0.12l0.23,0.238v0.121l-0.114,0.12v0.12h-0.116v0.359l-0.114,0.12
		l-0.116-0.12H34.41v0.12l-0.114,0.001l-0.001,0.238l0.116,0.12l-0.23,0.24h-0.116v0.119l-0.114-0.119h-0.116v-0.119
		c-0.249-0.003-0.338-0.012-0.425,0c-0.084,0.012-0.165,0.044-0.384,0.12c-0.119,0.041-0.218,0.028-0.345,0.12V15.999L32.68,15.999z
		"/>
	<path fill-rule="evenodd" fill="#BAC9CF" d="M64.817,17.967c0-0.151,0.034-0.376,0-0.516c-0.024-0.099-0.137-0.198-0.101-0.31
		l-0.101-0.104l0.002-0.104l-0.101-0.104l-0.199-0.001l-0.101-0.103v-0.207c0.103-0.055,0.184-0.314,0.201-0.412
		c0.055-0.04,0.225-0.13,0.3-0.104l0.099,0.103l0.101,0.001l0.3,0.311c-0.004,0.31-0.002,0.619-0.002,0.929l0.201,0.001l0.099-0.104
		h0.101l0.3,0.31v0.311l0.3,0.31v0.206c-0.115,0.119-0.599,0.512-0.602,0.516V19h-0.101c-0.208-0.309-0.404-0.529-0.565-0.86
		C64.921,18.08,64.875,18.008,64.817,17.967z"/>
	<path fill-rule="evenodd" fill="#BAC9CF" d="M63.662,19.455c0-0.171,0.009-0.248-0.11-0.407h-0.111
		c-0.042-0.141-0.204-0.319-0.334-0.408l-0.112,0.102l-0.109,0.001l-0.112,0.101c-0.277,0-0.608-0.033-0.779,0.204l-0.11-0.001
		v0.103h-0.221l-0.112,0.102H61.44c-0.02,0.053,0.164,0.475,0.111,0.713c-0.022,0.104-0.089,0.202-0.111,0.307
		c-0.014,0.062,0.016,0.144,0,0.203c-0.046,0.168-0.193,0.326-0.222,0.509c-0.08,0.511,0.044,0.328-0.224,0.815
		c-0.492,0.228-0.435,0.201-1,0.203l-0.333-0.307h-0.222V21.49h0.112l-0.112-0.102v-0.204l0.222-0.204h0.224v-0.203l-0.112-0.103
		c-0.179,0.041-0.459-0.071-0.555-0.203v-0.103l0.333-0.306c0.177,0.041,0.462-0.07,0.555-0.203v-0.204l-0.11-0.102V19.25
		c0.16-0.15,0.465-0.417,0.667-0.509c0.176-0.08,0.386-0.101,0.555-0.204c0.225-0.138,0.472-0.433,0.667-0.611v-0.102l0.779-0.713
		c0.251,0.058,0.416-0.159,0.667-0.102c0.239,0.146,0.097,0.357,0.555,0.51v0.204l-0.112,0.102v0.51
		c0.156,0.095,0.264,0.353,0.222,0.509l0.111,0.103c-0.049,0.178,0.108,0.396,0.11,0.611l-0.443-0.001L63.662,19.455z"/>
	<path fill-rule="evenodd" fill="#BAC9CF" d="M78.447,21.908v-0.091h-0.078v-0.091l0.154-0.182H78.6c0-0.191,0.01-0.416-0.152-0.545
		c0.027-0.089-0.114-0.362-0.152-0.454h-0.078l0.076-0.091l0.002-0.091l0.077-0.091c0.082,0.032,0.687-0.304,0.769-0.271v0.091
		h0.076c-0.094,0.113-0.172,0.215-0.308,0.272v0.091c-0.042,0.073-0.16,0.151-0.23,0.182l-0.001,0.454l0.077,0.091v0.091
		l0.076,0.091v0.091h-0.076v0.091l0.076,0.091v0.182l0.077,0.091h0.076V22h-0.153l-0.077-0.091L78.447,21.908z"/>
	<path fill-rule="evenodd" fill="#BAC9CF" d="M87.217,22.777l0.112-0.111l0.333,0.001v-0.112c0.095-0.033,0.619-0.373,0.666-0.442
		V22l0.111-0.11l0.002-0.78l-0.224-0.222l0.002-0.111h-0.224l-0.109-0.112l0.111,0.001v-0.111c0.272-0.19,0.31-0.05,0.555-0.11
		c0.125-0.031,0.561-0.257,0.666-0.221L89.443,20l0.109,0.111c0,0.176-0.135,0.485-0.111,0.557l0.111,0.11
		c0.25,0,0.514-0.004,0.664,0.225v0.223l-0.111,0.11h-0.111l-0.109,0.111l-0.224-0.001c-0.08,0.111-0.327,0.265-0.446,0.333
		c-0.033,0.098-0.127,0.271-0.222,0.333v0.223c0.058,0.091,0.231,0.188,0.333,0.224l-0.002,0.111
		c-0.229,0.188-1.033,0.109-1.332,0.109c-0.145,0.227-0.42,0.224-0.665,0.22l-0.11-0.11V22.777z"/>
	<path fill-rule="evenodd" fill="#BAC9CF" d="M80.217,22.2V22l0.375,0.002c0.24,0.588,1.186,0.401,1.625,0.401v0.2l-0.125,0.198
		l-0.625-0.001l-0.002,0.198L81.215,23l-0.123-0.2l-0.126-0.001L80.842,22.6h-0.377l0.002-0.201L80.342,22.4L80.217,22.2z"/>
	<path fill-rule="evenodd" fill="#BAC9CF" d="M91.217,24.867H91.1L90.982,25v-0.133h-0.117c-0.428-0.36-0.558-0.501-1.059-0.313
		c-0.078,0.029-0.197,0.085-0.236,0.177h-0.234v-0.134h-0.119l0.002-0.133l0.117,0.001l0.002-0.801l0.234-0.133l0.118,0.133
		l0.354,0.001l0.116-0.133l0.118,0.001v-0.268l0.118,0.001V23l0.234,0.134v0.134h0.118c0.054,0.241-0.168,0.553-0.119,0.8
		l0.117-0.001V24.2l0.234,0.001v0.132l0.119,0.001L91.1,24.601h0.117V24.867z"/>
	<polygon fill-rule="evenodd" fill="#BAC9CF" points="74.393,29.637 74.158,29.637 74.158,29.909 74.04,30 73.687,30 73.57,29.908 
		73.57,29.636 73.452,29.545 73.335,29.545 73.217,29.454 73.217,29.363 73.335,29.272 73.923,29.272 74.042,29.364 74.276,29.364 
		74.276,29.272 74.395,29.272 74.395,29 74.748,29.001 74.982,29.183 74.982,29.273 75.217,29.456 75.217,29.638 75.099,29.637 
		74.98,29.547 74.511,29.546 	"/>
</g>
<rect x="-208.783" y="-680" fill="none" width="1440" height="1024"/>
</svg>
