<?xml version="1.0" encoding="utf-8"?>
<!-- Generator: Adobe Illustrator 16.0.4, SVG Export Plug-In . SVG Version: 6.00 Build 0)  -->
<svg version="1.2" baseProfile="tiny" id="Layer_1" xmlns="https://www.w3.org/2000/svg" xmlns:xlink="https://www.w3.org/1999/xlink"
	 x="0px" y="0px" width="151px" height="64px" viewBox="0 0 151 64" xml:space="preserve">
<title>Group</title>
<desc>Created with Sketch.</desc>
<path fill="#BAC9CF" d="M95.981,74.321c-0.19-0.19-0.589-0.28-1.188-0.267c-0.496,0.011-0.9-0.047-0.9-0.129
	s-0.104-0.162-0.229-0.179c-1.094-0.147-1.595-0.277-1.595-0.415c0-0.089-0.316-0.162-0.704-0.162c-0.446,0-0.945-0.164-1.367-0.45
	c-0.365-0.248-0.663-0.409-0.663-0.358s-0.172,0-0.382-0.112c-0.25-0.134-0.351-0.324-0.29-0.554c0.052-0.193,0.017-0.35-0.073-0.35
	c-0.237,0-0.204-0.503,0.041-0.585c0.269-0.092,0.253-0.828-0.033-1.512c-0.315-0.755-0.395-1.92-0.147-2.217
	c0.154-0.188,0.138-0.247-0.073-0.247c-0.43,0-0.566-0.592-0.198-0.861c0.174-0.128,0.22-0.233,0.102-0.233
	c-0.119,0-0.217-0.129-0.217-0.287s-0.214-0.65-0.473-1.094c-0.259-0.444-0.418-0.807-0.352-0.807c0.065,0-0.008-0.13-0.163-0.287
	c-0.158-0.158-0.288-0.395-0.288-0.526c0-0.133-0.121-0.477-0.271-0.763c-0.149-0.287-0.273-0.457-0.273-0.375
	c0,0.08-0.248,0.002-0.55-0.177c-0.3-0.177-0.547-0.38-0.547-0.448c0-0.069-0.224-0.217-0.501-0.328
	c-0.274-0.111-0.78-0.406-1.119-0.656c-0.779-0.571-1.236-0.571-2.233,0c-0.818,0.466-2.16,0.624-2.16,0.253
	c0-0.151-0.063-0.151-0.243-0.003c-0.178,0.148-0.332,0.136-0.585-0.05c-0.29-0.214-0.305-0.296-0.099-0.544
	c0.206-0.247,0.201-0.293-0.041-0.293c-0.187,0-0.262-0.126-0.216-0.361c0.038-0.198-0.009-0.41-0.104-0.469
	s-0.133-0.173-0.084-0.253s-0.071-0.292-0.269-0.469c-0.31-0.281-0.484-0.299-1.315-0.135c-1.266,0.25-2.352,0.065-2.606-0.443
	c-0.191-0.385-0.202-0.385-0.642-0.053c-0.257,0.195-0.611,0.3-0.828,0.244c-0.248-0.062-0.585,0.076-0.966,0.399
	c-0.496,0.418-0.652,0.463-1.017,0.295c-0.593-0.269-1.189-0.801-1.189-1.059c0-0.206-0.394-0.436-0.744-0.436
	c-0.091,0-0.168,0.155-0.168,0.343c0,0.362-0.654,0.652-0.831,0.368c-0.093-0.151,0.005-1.199,0.221-2.352
	c0.124-0.66,0.096-6.185-0.031-6.391c-0.058-0.095-0.025-0.173,0.075-0.173c0.101,0,0.233-0.164,0.297-0.364
	c0.155-0.483,0.527-0.473,0.399,0.015c-0.055,0.207,0.016,0.82,0.158,1.363c0.143,0.543,0.217,1.254,0.168,1.58
	c-0.183,1.217-0.195,1.6-0.051,1.6c0.082,0,0.148-0.256,0.148-0.567c0-0.427,0.067-0.541,0.271-0.463
	c0.183,0.069,0.308-0.046,0.385-0.352c0.085-0.344,0.199-0.429,0.458-0.347c0.467,0.147,0.436,0.011-0.204-0.917
	c-0.625-0.91-0.68-1.271-0.228-1.535c0.285-0.166,0.275-0.187-0.091-0.191c-0.485-0.006-0.511-0.113-0.121-0.503
	c0.228-0.227,0.321-0.241,0.434-0.061c0.107,0.175,0.261,0.129,0.622-0.187c0.264-0.229,0.479-0.48,0.479-0.562
	c0-0.24-1.254-0.112-1.349,0.138c-0.055,0.142-0.279,0.198-0.571,0.145c-0.303-0.054-0.438-0.018-0.365,0.101
	c0.064,0.104-0.011,0.188-0.167,0.188c-0.165,0-0.285-0.157-0.285-0.368c0-0.218-0.171-0.435-0.417-0.527
	c-0.307-0.116-0.429-0.322-0.458-0.771c-0.022-0.338-0.095-0.899-0.159-1.252c-0.065-0.35-0.122-1.191-0.125-1.868
	c-0.004-0.676-0.042-1.23-0.086-1.23s-0.184,0.144-0.313,0.319c-0.128,0.175-0.27,0.276-0.315,0.228
	c-0.044-0.049-0.133-1.362-0.197-2.917c-0.131-3.264-0.733-6.128-1.274-6.082c-0.213,0.019-0.299-0.124-0.299-0.501
	c0-0.329-0.095-0.527-0.254-0.527c-0.313,0-0.448-0.512-0.581-2.224c-0.143-1.831-0.607-4.61-0.916-5.484
	c-0.14-0.399-0.257-0.94-0.259-1.203c-0.002-0.27-0.241-0.749-0.547-1.096c-0.299-0.339-0.543-0.738-0.543-0.888
	c0-0.301-1.437-1.686-1.749-1.686c-0.238,0-0.622-0.79-0.622-1.286c0-0.196-0.071-0.357-0.159-0.357
	c-0.215,0-0.598-2.028-0.609-3.226c-0.003-0.537-0.08-1.021-0.166-1.073c-0.085-0.055-0.159-0.257-0.159-0.452
	c0-0.195-0.122-0.354-0.273-0.354c-0.399,0-0.335-0.243,0.195-0.74c0.376-0.354,0.447-0.553,0.361-1.01
	c-0.072-0.38-0.021-0.642,0.151-0.784c0.142-0.119,0.216-0.376,0.166-0.573c-0.051-0.197-0.002-0.357,0.109-0.357
	c0.326,0,0.235-0.516-0.16-0.911c-0.201-0.201-0.365-0.439-0.365-0.533c0-0.092-0.103-0.202-0.228-0.244
	c-0.429-0.144,0.239-0.683,0.844-0.68c0.644,0.001,0.924,0.145,1.076,0.543c0.078,0.206,0.107,0.188,0.118-0.073
	c0.013-0.31,0.049-0.319,0.333-0.084c0.175,0.146,0.545,0.378,0.821,0.514c0.275,0.139,0.501,0.319,0.501,0.403
	c0,0.083,0.122,0.151,0.272,0.151c0.149,0,0.501,0.241,0.782,0.537c0.634,0.664,2.302,1.341,3.079,1.25
	c0.319-0.038,0.551-0.02,0.514,0.039c-0.035,0.058,0.359,0.39,0.877,0.737c0.52,0.346,1.102,0.771,1.294,0.944
	c0.768,0.689,3.065,1.059,5.102,0.822c1.054-0.122,1.309-0.096,1.591,0.157c0.25,0.226,0.52,0.274,1.05,0.189
	c0.541-0.086,0.74-0.049,0.818,0.158c0.122,0.316,0.663,0.373,0.663,0.067c0-0.143,0.083-0.138,0.269,0.019
	c0.421,0.349,1.526,0.534,2.14,0.357c0.325-0.093,0.683-0.093,0.849,0c0.326,0.182,1.302-0.237,1.302-0.56
	c0-0.109,0.115-0.152,0.255-0.099c0.159,0.06,0.296-0.055,0.359-0.295c0.103-0.392,0.105-0.392,0.448-0.032
	c0.189,0.196,0.552,0.534,0.805,0.747c0.302,0.256,0.499,0.66,0.578,1.185c0.064,0.439,0.2,0.921,0.297,1.07
	c0.124,0.193,0.143,0.099,0.063-0.318c-0.14-0.734,0.162-1.141,0.853-1.141c0.351,0,0.549,0.113,0.629,0.359
	c0.062,0.199,0.356,0.532,0.652,0.744c0.295,0.211,0.491,0.459,0.433,0.552c-0.057,0.092-0.016,0.168,0.09,0.168
	c0.317,0,0.221-0.321-0.235-0.775c-0.235-0.235-0.414-0.605-0.399-0.823c0.035-0.476,0.599-1.137,0.969-1.137
	c0.211,0,0.223-0.055,0.051-0.261c-0.172-0.208-0.148-0.298,0.116-0.438c0.445-0.239,1.154,0.33,1.138,0.91
	c-0.013,0.472-0.316,1.296-0.339,0.917c-0.005-0.131-0.085-0.194-0.177-0.137c-0.204,0.127-0.038,0.832,0.197,0.832
	c0.095,0,0.125,0.076,0.067,0.169c-0.059,0.092-0.021,0.221,0.081,0.284c0.106,0.066,0.187-0.098,0.19-0.397
	c0.007-0.653,0.436-1.231,0.806-1.089c0.185,0.071,0.282,0.346,0.284,0.798c0.002,0.379,0.054,0.873,0.113,1.1
	c0.09,0.33,0.035,0.411-0.275,0.411c-0.52,0-0.487,0.195,0.195,1.205c0.318,0.472,0.598,1.03,0.618,1.24
	c0.021,0.209,0.099,0.564,0.171,0.791c0.114,0.354,0.066,0.41-0.346,0.41c-0.291,0-0.477,0.101-0.477,0.261
	c0,0.142-0.203,0.419-0.449,0.613c-0.404,0.316-0.543,0.666-0.956,2.389c-0.077,0.316-0.044,0.399,0.116,0.301
	c0.12-0.075,0.179-0.246,0.125-0.381c-0.05-0.132,0.108-0.54,0.354-0.901c0.245-0.36,0.444-0.714,0.444-0.786
	c0-0.211,1.537-1.589,1.709-1.533c0.088,0.029,0.108-0.135,0.047-0.365c-0.062-0.229-0.113-0.57-0.115-0.756
	c-0.002-0.208-0.099-0.303-0.248-0.245c-0.175,0.068-0.222-0.028-0.162-0.344c0.046-0.241,0.143-0.439,0.216-0.439
	c0.071,0,0.46,0.308,0.863,0.684c0.521,0.485,0.773,0.896,0.868,1.413c0.072,0.401,0.223,0.784,0.332,0.852
	c0.142,0.087,0.13,0.209-0.038,0.411c-0.159,0.191-0.171,0.287-0.034,0.287c0.113,0,0.191,0.062,0.177,0.137
	c-0.018,0.074,0.035,0.288,0.116,0.474c0.181,0.414-0.148,0.658-0.892,0.664l-0.528,0.004l0.437,0.379
	c0.427,0.368,0.521,0.763,0.595,2.49c0.015,0.326,0.088,0.592,0.162,0.592c0.365,0,0.069,0.354-0.455,0.549
	c-0.326,0.12-0.49,0.259-0.363,0.306c0.125,0.05,0.188,0.155,0.138,0.235c-0.048,0.081,0.033,0.249,0.183,0.372
	c0.307,0.256,0.363,1.015,0.089,1.184c-0.101,0.062-0.183,0.206-0.183,0.319c0,0.337,0.534-0.473,0.54-0.82
	c0.005-0.175,0.077-0.32,0.164-0.32c0.181,0,0.762,1.436,0.803,1.981c0.015,0.2,0.093,0.324,0.171,0.275
	c0.08-0.049,0.152,0.018,0.158,0.149c0.009,0.131,0.132-0.083,0.276-0.478c0.236-0.644,0.229-0.802-0.056-1.549
	c-0.175-0.458-0.293-0.941-0.265-1.075c0.031-0.133-0.039-0.354-0.153-0.492c-0.298-0.359-0.029-0.682,0.486-0.583
	c0.242,0.046,0.487,0.005,0.545-0.087c0.116-0.19-0.401-0.737-0.864-0.914c-0.161-0.062-0.334-0.27-0.385-0.459
	c-0.107-0.416,0.652-1.918,0.875-1.73c0.086,0.072,0.06,0.003-0.058-0.151c-0.116-0.155-0.269-0.631-0.337-1.058
	c-0.104-0.652-0.062-0.833,0.266-1.138c0.214-0.199,0.388-0.483,0.388-0.628c0-0.146,0.085-0.266,0.188-0.266
	c0.105,0,0.138-0.19,0.076-0.436c-0.061-0.241-0.021-0.491,0.087-0.558c0.109-0.067,0.196-0.364,0.196-0.664
	c0-0.456,0.088-0.557,0.552-0.65c0.566-0.113,0.771-0.304,0.839-0.789c0.021-0.153,0.102-0.482,0.179-0.732
	c0.12-0.399,0.101-0.427-0.149-0.221c-0.241,0.197-0.344,0.161-0.661-0.244c-0.208-0.263-0.461-0.425-0.565-0.361
	c-0.105,0.065-0.189,0.009-0.189-0.123c0-0.133-0.205-0.461-0.455-0.733c-0.327-0.35-0.456-0.696-0.456-1.207
	c0-0.411-0.116-0.812-0.272-0.94c-0.148-0.124-0.233-0.29-0.183-0.367c0.047-0.079-0.038-0.243-0.187-0.367
	c-0.223-0.184-0.271-0.171-0.271,0.071c0,0.162-0.077,0.295-0.17,0.295c-0.389,0-0.406,0.765-0.029,1.167
	c0.21,0.224,0.381,0.467,0.381,0.54c0,0.073,0.205,0.354,0.456,0.625c0.252,0.271,0.456,0.594,0.456,0.72
	c0,0.125,0.067,0.229,0.15,0.229c0.085,0,0.153,0.111,0.153,0.249c0,0.444-0.589,0.109-0.935-0.534
	c-0.187-0.345-0.451-0.626-0.588-0.626c-0.138,0-0.295-0.117-0.353-0.261c-0.054-0.144-0.194-0.228-0.312-0.184
	c-0.335,0.123-0.576-0.138-0.79-0.86c-0.271-0.91-0.194-2.051,0.164-2.406c0.217-0.219,0.314-0.235,0.379-0.067
	c0.058,0.155,0.173,0.111,0.366-0.139c0.227-0.293,0.328-0.319,0.514-0.136c0.326,0.322,0.465,0.284,0.582-0.159
	c0.111-0.423-0.21-1.074-0.529-1.074c-0.11,0-0.35-0.164-0.532-0.365c-0.183-0.2-0.521-0.364-0.757-0.364s-0.417-0.062-0.406-0.137
	c0.069-0.444-0.059-0.775-0.303-0.775c-0.221,0-0.24,0.076-0.093,0.351c0.134,0.25,0.127,0.37-0.024,0.419
	c-0.116,0.038,0.09,0.248,0.458,0.465c0.716,0.422,0.81,0.69,0.425,1.214c-0.259,0.354-1.033,0.262-1.033-0.122
	c0-0.111-0.205-0.01-0.456,0.226c-0.25,0.235-0.456,0.571-0.456,0.746c0,0.175-0.095,0.351-0.213,0.389
	c-0.117,0.04,0.076,0.208,0.43,0.376c0.566,0.27,0.675,0.433,0.91,1.398c0.147,0.601,0.215,1.158,0.151,1.236
	c-0.063,0.077,0.032,0.427,0.216,0.779l0.33,0.638v-0.592c0-0.775,0.499-0.798,1.002-0.049c0.198,0.299,0.593,0.639,0.874,0.755
	c0.646,0.268,0.991,0.957,0.946,1.892c-0.051,1.052-0.234,1.367-0.801,1.367c-0.647,0-0.929-0.31-0.929-1.021
	c0-0.569-0.551-1.069-0.697-0.633c-0.083,0.253-0.761,0.251-0.761-0.002c0-0.253-0.465-0.716-0.718-0.716
	c-0.106,0-0.194-0.261-0.194-0.579s-0.136-0.728-0.302-0.911c-0.24-0.265-0.25-0.333-0.046-0.336
	c0.205-0.004,0.208-0.032,0.019-0.153c-0.193-0.122-0.193-0.246-0.007-0.656c0.203-0.445,0.188-0.536-0.126-0.764
	c-0.221-0.163-0.379-0.19-0.418-0.071c-0.111,0.332-0.579,0.2-0.579-0.164c0-0.193-0.247-0.527-0.547-0.742
	c-0.659-0.469-0.709-1.063-0.183-2.097c0.2-0.395,0.364-0.817,0.364-0.941c0-0.124,0.159-0.335,0.353-0.47
	c0.37-0.261,0.64-1.71,0.351-1.887c-0.086-0.053-0.158-0.261-0.158-0.461c0-0.201,0.081-0.316,0.181-0.254
	c0.104,0.065,0.165-0.083,0.143-0.354c-0.05-0.594-0.282-0.6-0.43-0.01c-0.183,0.727-0.502,0.547-0.38-0.213
	c0.115-0.708,0.415-1.027,0.826-0.877c0.168,0.062,0.211-0.001,0.137-0.198c-0.061-0.159-0.117-0.427-0.126-0.595
	c-0.01-0.19-0.049-0.219-0.105-0.077c-0.147,0.365-0.934,0.273-1.06-0.121c-0.133-0.421,0.061-1.292,0.288-1.292
	c0.089,0,0.161-0.111,0.161-0.248c0-0.369,0.806-0.266,0.879,0.113c0.037,0.195-0.052,0.319-0.227,0.319
	c-0.334,0-0.359,0.164-0.084,0.547c0.166,0.229,0.18,0.222,0.094-0.045C90.145,2.513,90.203,2.4,90.375,2.4
	c0.147,0,0.268,0.063,0.268,0.142c0,0.079,0.247,0.288,0.547,0.465c0.534,0.315,0.751,0.85,0.346,0.85
	c-0.11,0-0.156,0.117-0.103,0.26c0.058,0.145,0.005,0.303-0.115,0.354c-0.121,0.051-0.014,0.075,0.238,0.057
	c0.333-0.026,0.45,0.051,0.433,0.282c-0.015,0.174,0.042,0.275,0.123,0.224c0.083-0.051,0.199-0.012,0.26,0.085
	c0.06,0.097,0.214,0.137,0.344,0.088c0.279-0.108,0.186-0.996-0.175-1.693c-0.276-0.534-0.099-0.747,0.631-0.75
	c0.313-0.002,0.399-0.08,0.32-0.286c-0.062-0.163-0.03-0.235,0.071-0.171c0.401,0.248,0.146-0.271-0.328-0.671
	c-0.697-0.587-0.835-0.853-0.591-1.146c0.157-0.19,0.149-0.345-0.029-0.631c-0.18-0.288-0.186-0.458-0.029-0.711
	c0.17-0.27,0.144-0.373-0.135-0.547c-0.495-0.309-0.74-0.268-1.306,0.217c-0.532,0.458-0.751,1.098-0.228,0.662
	c0.228-0.19,0.273-0.163,0.273,0.161c0,0.464-0.305,0.497-0.761,0.085c-0.184-0.166-0.333-0.222-0.333-0.125
	c0,0.096,0.246,0.358,0.547,0.581c0.301,0.223,0.547,0.565,0.547,0.762c0,0.381-0.267,0.483-0.458,0.173
	c-0.062-0.102-0.203-0.129-0.312-0.062c-0.118,0.073-0.146,0.036-0.067-0.089c0.072-0.115,0.053-0.209-0.042-0.209
	c-0.094,0-0.31-0.287-0.476-0.639c-0.166-0.35-0.386-0.638-0.489-0.638c-0.261,0-0.12-0.775,0.158-0.866
	c0.127-0.042,0.229,0.07,0.229,0.249c0,0.44,0.287,0.108,0.427-0.493c0.091-0.379,0.021-0.522-0.341-0.715
	c-0.247-0.133-0.451-0.379-0.451-0.547c0-0.167-0.347-0.658-0.77-1.09c-0.746-0.76-0.757-0.79-0.365-0.936
	c0.573-0.212,0.532-0.682-0.049-0.571c-0.319,0.062-0.49-0.009-0.576-0.232c-0.191-0.497,0.187-0.915,0.768-0.85
	c0.431,0.05,0.475,0.017,0.284-0.211c-0.178-0.213-0.175-0.301,0.013-0.421c0.13-0.083,5.774-0.169,12.543-0.194
	c6.77-0.023,12.656,0.04,12.933-0.011c1.88-0.558-0.199,1.272,0.556,0.133c0.182-0.057,2.629-0.393,4.836-0.445
	c2.205-0.053,5.035-0.137,6.289-0.188c1.254-0.051,3.459-0.133,4.9-0.184c1.44-0.051,2.67-0.118,2.734-0.149
	c0.062-0.031,2.041-0.069,4.396-0.087c2.355-0.016,4.571-0.113,4.922-0.213c0.35-0.1,1.291-0.184,2.097-0.186
	c0.802-0.001,2.424-0.082,3.605-0.18c1.18-0.099,3.108-0.219,4.284-0.269c1.175-0.048,2.875-0.13,3.777-0.18
	c0.903-0.049,2.502-0.137,3.555-0.194c1.053-0.057,2.571-0.181,3.374-0.273c0.802-0.094,2.954-0.244,4.797-0.348
	c1.844-0.104,3.416-0.229,3.499-0.281c0.344-0.213,4.662-0.095,5.349,0.146c0.652,0.23,0.715,0.31,0.749,0.968
	c0.035,0.673,0.221,3.214,0.639,8.738c0.099,1.304,0.223,3.066,0.272,3.92c0.053,0.851,0.132,1.877,0.178,2.278
	c0.046,0.402,0.128,1.836,0.184,3.19c0.056,1.353,0.181,3.24,0.276,4.193c0.098,0.952,0.384,4.48,0.634,7.84
	c0.829,11.085,1.01,13.38,1.199,15.223c0.104,1.003,0.223,2.397,0.266,3.1c0.044,0.702,0.212,2.999,0.373,5.104
	c0.162,2.105,0.318,4.663,0.35,5.686c0.042,1.389,0.139,1.996,0.386,2.415c0.184,0.308,0.416,0.56,0.521,0.561
	c0.156,0,0.539,1.049,0.949,2.596c0.047,0.176,0.16,0.32,0.256,0.32c0.288,0,0.188,0.705-0.205,1.477l-0.374,0.734l0.541,0.553
	l0.54,0.553l-0.379,0.436c-0.401,0.461-0.763,0.554-2.729,0.695c-0.753,0.054-1.272,0.016-1.344-0.103
	c-0.073-0.117-0.162-0.124-0.233-0.018c-0.129,0.194-6.361,0.711-10.507,0.869c-1.504,0.059-3.637,0.183-4.74,0.275
	c-1.55,0.133-11.918,0.736-13.628,0.795c-0.174,0.006-0.318,0.071-0.318,0.146c0,0.075-0.382,0.427-0.848,0.782
	c-1.077,0.822-2.056,1.103-2.894,0.828c-0.428-0.143-0.723-0.146-0.967-0.017c-0.193,0.104-1.127,0.355-2.073,0.562
	c-1.566,0.339-1.77,0.349-2.273,0.097c-0.494-0.244-0.614-0.244-1.103,0c-0.303,0.151-0.931,0.608-1.394,1.015
	c-0.534,0.471-0.996,0.729-1.256,0.702c-0.229-0.021-0.7,0.088-1.053,0.245c-0.35,0.154-0.964,0.344-1.361,0.419
	c-0.397,0.074-1.251,0.41-1.894,0.745c-0.645,0.336-1.314,0.611-1.49,0.611s-0.602,0.291-0.947,0.647
	c-0.347,0.355-0.826,0.673-1.069,0.705c-0.241,0.031-0.645,0.141-0.895,0.243c-0.561,0.226-2.329,0.495-2.825,0.43
	c-0.201-0.025-0.554-0.246-0.783-0.488c-0.564-0.599-1.701-0.605-2.483-0.017c-0.31,0.233-1.056,0.617-1.656,0.857
	c-0.603,0.238-1.27,0.585-1.481,0.769c-0.414,0.361-0.545,0.378-2.04,0.254c-0.913-0.077-1.016-0.04-1.788,0.629
	c-0.453,0.393-0.892,0.711-0.977,0.711c-0.399,0-0.734-0.25-0.734-0.551c0-0.629-0.233-0.93-0.935-1.211
	c-0.389-0.154-0.706-0.335-0.706-0.402c0-0.191-1.439-0.198-1.559-0.009c-0.063,0.105-0.23,0.102-0.434-0.006
	c-0.181-0.097-0.382-0.124-0.443-0.062c-0.062,0.064-0.271-0.026-0.463-0.202c-0.41-0.37-0.908-0.479-1.295-0.283
	c-0.148,0.076-0.68,0.192-1.178,0.259c-0.499,0.067-1.002,0.2-1.119,0.298c-0.246,0.205-1.35,0.161-1.35-0.053
	c0-0.24-0.729-0.161-1.391,0.153c-0.471,0.222-0.599,0.379-0.519,0.63c0.079,0.251-0.045,0.406-0.497,0.622
	c-0.333,0.157-0.973,0.479-1.425,0.715c-0.451,0.235-0.885,0.389-0.964,0.341c-0.08-0.047-0.244-0.007-0.364,0.088
	c-0.121,0.097-0.466,0.233-0.767,0.306s-0.696,0.289-0.878,0.484c-0.181,0.194-0.406,0.307-0.5,0.248
	c-0.096-0.059-0.173-0.037-0.173,0.049c0,0.286-1.439,0.225-1.739-0.075L95.981,74.321z M67.64,42.711
	c0-0.365,0.531-0.729,1.521-1.042c0.542-0.172,1.017-0.386,1.055-0.475c0.037-0.089-0.384-0.275-0.935-0.415
	c-0.552-0.14-1.084-0.367-1.185-0.507c-0.101-0.139-0.282-0.403-0.404-0.588c-0.21-0.314-0.232-0.316-0.419-0.015
	c-0.108,0.178-0.316,0.319-0.461,0.319c-0.335,0-0.341,0.555-0.011,1.007c0.139,0.191,0.211,0.455,0.16,0.589
	c-0.051,0.133,0.048,0.399,0.22,0.589c0.172,0.191,0.26,0.434,0.194,0.54c-0.065,0.107-0.033,0.195,0.073,0.195
	s0.193-0.088,0.193-0.195V42.711z M67.766,41.33c-0.066-0.063-0.073-0.188-0.019-0.276c0.117-0.188,0.438-0.025,0.438,0.222
	c0,0.196-0.248,0.229-0.421,0.055H67.766z M90.343,37.14c0.243-0.263,0.399-0.55,0.344-0.638s-0.005-0.16,0.107-0.16
	c0.304,0,0.726-0.476,0.726-0.816c0-0.162,0.164-0.635,0.364-1.05c0.202-0.415,0.365-0.78,0.365-0.812
	c0-0.196-0.707,0.699-0.759,0.96c-0.116,0.603-0.507,0.473-0.83-0.273c-0.201-0.467-0.44-0.742-0.643-0.742
	c-0.378,0-0.383-0.047-0.122-0.986c0.109-0.392,0.376-0.87,0.591-1.061c0.391-0.344,0.389-0.344-0.177-0.035
	c-0.91,0.5-1.693,2.631-0.967,2.631c0.113,0,0.168,0.104,0.12,0.229c-0.055,0.141,0.08,0.238,0.349,0.255
	c0.517,0.03,0.976,0.374,0.976,0.726c0,0.139-0.125,0.251-0.274,0.251c-0.188,0-0.272,0.19-0.272,0.617
	c0,0.844-0.429,1.19-0.924,0.744c-0.201-0.183-0.321-0.449-0.268-0.594c0.066-0.169,0.012-0.224-0.158-0.16
	c-0.324,0.126-0.773-0.36-0.937-1.016c-0.07-0.274-0.199-0.501-0.288-0.501c-0.308,0-0.163-0.911,0.201-1.275
	c0.367-0.367,0.453-1.078,0.207-1.704c-0.12-0.303-0.155-0.29-0.345,0.127c-0.177,0.39-0.168,0.449,0.057,0.363
	c0.187-0.073,0.232-0.016,0.154,0.191c-0.062,0.163-0.194,0.293-0.295,0.293s-0.132,0.135-0.067,0.3
	c0.092,0.236,0.062,0.255-0.136,0.093c-0.208-0.172-0.236-0.044-0.17,0.749c0.042,0.527,0.091,1.266,0.106,1.643
	c0.022,0.5,0.1,0.66,0.281,0.589c0.315-0.121,0.753,0.229,0.753,0.602c0,0.439,0.558,0.95,1.039,0.95
	c0.241,0,0.637-0.215,0.881-0.478L90.343,37.14z M86.353,36.988c-0.06-0.154-0.192-0.281-0.298-0.281
	c-0.121,0-0.108,0.131,0.032,0.356C86.338,37.464,86.515,37.415,86.353,36.988L86.353,36.988z M85.503,36.342
	c0.332-0.215,0.046-0.215-0.456,0c-0.24,0.104-0.271,0.16-0.091,0.167C85.105,36.515,85.353,36.438,85.503,36.342L85.503,36.342z
	 M86.87,36.342c0.062-0.1-0.056-0.182-0.262-0.182c-0.208,0-0.376,0.082-0.376,0.182c0,0.101,0.119,0.183,0.263,0.183
	S86.809,36.442,86.87,36.342z M89.398,35.704c0.058-0.15,0.024-0.273-0.072-0.273c-0.096,0-0.177,0.123-0.177,0.273
	s0.033,0.273,0.071,0.273C89.26,35.978,89.34,35.854,89.398,35.704z M94.254,33.532c0-0.144-0.096-0.292-0.215-0.33
	c-0.136-0.046-0.162-0.202-0.071-0.427c0.079-0.194,0.164-0.632,0.188-0.973l0.044-0.619l-0.26,0.494
	c-0.224,0.427-0.3,0.461-0.555,0.254c-0.255-0.208-0.279-0.197-0.176,0.079c0.093,0.249,0.021,0.319-0.333,0.319
	c-0.327,0-0.449-0.099-0.449-0.365c0-0.2-0.073-0.364-0.16-0.364c-0.29,0-0.359,0.987-0.104,1.457
	c0.137,0.252,0.253,0.391,0.258,0.309c0.003-0.082-0.079-0.309-0.183-0.502c-0.148-0.274-0.13-0.354,0.078-0.354
	c0.28,0,0.839,0.474,0.839,0.715c0,0.135,0.675,0.523,0.957,0.549c0.075,0.005,0.137-0.104,0.137-0.246L94.254,33.532z
	 M95.488,31.759c-0.236-0.146-0.871,0.131-0.871,0.381c0,0.087,0.244,0.068,0.542-0.045C95.5,31.966,95.621,31.842,95.488,31.759
	L95.488,31.759z M82.996,31.214c-0.085-0.33,0.025-0.688,0.522-1.66c0.224-0.441,0.201-0.509-0.121-0.386
	c-0.155,0.06-0.244,0.147-0.197,0.194c0.046,0.047-0.073,0.453-0.266,0.904c-0.419,0.978-0.46,1.548-0.099,1.409
	c0.149-0.058,0.215-0.246,0.158-0.462L82.996,31.214z M83.952,31.602c-0.502-0.215-0.79-0.215-0.456,0
	c0.148,0.098,0.396,0.172,0.547,0.167C84.224,31.761,84.192,31.705,83.952,31.602L83.952,31.602z M86.821,30.958
	c-0.16-0.287-0.181-0.287-0.288-0.006c-0.069,0.177-0.042,0.257,0.063,0.191c0.1-0.062,0.181-0.01,0.181,0.111
	c0,0.123,0.05,0.175,0.107,0.115c0.059-0.06,0.032-0.246-0.063-0.416V30.958z M92.465,30.917c-0.053-0.276-0.132-0.396-0.176-0.269
	c-0.079,0.232,0.061,0.768,0.199,0.768c0.038,0,0.027-0.226-0.026-0.501L92.465,30.917z M95.515,31.068
	c-0.032-0.269-0.329-0.813-0.339-0.623c-0.008,0.117-0.059,0.328-0.114,0.47c-0.059,0.153,0.015,0.257,0.183,0.257
	c0.155,0,0.275-0.049,0.269-0.107L95.515,31.068z M85.897,30.285c-0.132-0.131-0.218-0.142-0.218-0.028
	c0,0.103,0.056,0.243,0.122,0.31c0.068,0.066,0.165,0.079,0.216,0.028c0.051-0.053-0.004-0.191-0.122-0.31H85.897z M92.676,29.867
	c0.057-0.151,0.025-0.273-0.072-0.273c-0.1,0-0.178,0.123-0.178,0.273c0,0.152,0.062,0.15,0.103,0.15
	c0.037,0-0.346,0.246,0.146-0.152L92.676,29.867z M84.13,28.682c0.062-0.101,0.029-0.183-0.071-0.183
	c-0.1,0-0.232,0.082-0.295,0.183c-0.062,0.101-0.031,0.183,0.069,0.183S84.067,28.783,84.13,28.682L84.13,28.682z M84.479,27.816
	c0.256-0.704,0.699-1.344,1.118-1.62c0.245-0.16,0.399-0.36,0.347-0.446c-0.136-0.221,1.314-1.1,1.949-1.18
	c0.691-0.087,0.886-0.221,0.882-0.596c-0.001-0.234-0.039-0.251-0.154-0.071c-0.188,0.295-1.12,0.098-1.12-0.237
	c0-0.127,0.122-0.528,0.274-0.886c0.149-0.361,0.265-0.965,0.251-1.345c-0.013-0.398-0.06-0.535-0.11-0.325
	c-0.052,0.2-0.205,0.43-0.346,0.51c-0.138,0.081-0.253,0.228-0.253,0.33c0,0.1,0.091,0.127,0.2,0.06
	c0.146-0.091,0.146-0.021,0.002,0.246c-0.109,0.205-0.28,0.399-0.379,0.433c-0.101,0.034-0.262,0.482-0.358,0.996
	c-0.145,0.759-0.353,1.114-1.099,1.88c-0.507,0.519-0.92,1.063-0.92,1.205c0,0.144-0.063,0.261-0.144,0.261
	c-0.077,0-0.234,0.246-0.35,0.547c-0.114,0.3-0.142,0.547-0.062,0.547s0.197-0.145,0.262-0.32L84.479,27.816z M90.058,25.389
	c0-0.206-0.082-5.113-0.183-0.262c-0.003,0.117-0.182,0.229-0.182,0.375c0,0.144,0.081,0.262,0.182,0.262
	S90.058,25.596,90.058,25.389z M91.368,24.012c-0.159-0.285-0.181-0.263-0.156,0.155c0.017,0.266,0.098,0.414,0.184,0.328
	c0.086-0.086,0.073-0.304-0.029-0.485L91.368,24.012z M91.883,6.611c0-0.084-0.082-0.203-0.182-0.265
	c-0.101-0.062-0.183-0.073-0.183-0.025s-0.05,0.218-0.111,0.377c-0.081,0.213-0.033,0.261,0.182,0.179
	C91.751,6.815,91.883,6.697,91.883,6.611L91.883,6.611z M92.901,27.611c-0.077-0.127-0.093-0.281-0.032-0.34
	c0.162-0.164,0.34,0.076,0.253,0.34C93.06,27.796,93.017,27.796,92.901,27.611L92.901,27.611z M95.348,16.1
	c0-0.101,0.124-0.183,0.273-0.183c0.15,0,0.273,0.082,0.273,0.183c0,0.1-0.122,0.183-0.273,0.183
	C95.471,16.283,95.348,16.2,95.348,16.1z M86.597,6.431c0-0.453-0.519-0.712-1.277-0.637c-0.601,0.061-0.931-0.027-1.521-0.404
	c-1.426-0.908-1.692-1.244-1.648-2.086c0.021-0.419-0.029-0.938-0.111-1.154c-0.137-0.359-0.087-0.396,0.564-0.421
	c0.524-0.021,0.714,0.044,0.714,0.244c0,0.149,0.082,0.272,0.183,0.272S84,2.572,84.389,2.974c0.39,0.401,0.8,0.729,0.912,0.729
	c0.346,0,0.223,0.576-0.145,0.672c-0.522,0.137-0.583,0.678-0.102,0.905c0.374,0.177,0.426,0.133,0.624-0.529
	c0.118-0.396,0.26-0.836,0.314-0.977C86.06,3.599,86,3.552,85.809,3.625c-0.173,0.066-0.375-0.04-0.521-0.272
	c-0.131-0.208-0.341-0.379-0.467-0.379c-0.278,0-0.286-0.101-0.042-0.56c0.147-0.279,0.13-0.354-0.091-0.354
	c-0.505,0-0.309-0.813,0.349-1.449c0.345-0.336,0.612-0.695,0.592-0.8c-0.021-0.106,0.271-0.244,0.647-0.31
	c0.376-0.065,0.685-0.051,0.685,0.034c0,0.084,0.06,0.137,0.136,0.119c0.075-0.02,0.562,0.235,1.079,0.565
	c1.002,0.636,1.1,1.022,0.312,1.221c-0.268,0.067-0.435,0.243-0.435,0.454c0,0.19-0.128,0.344-0.285,0.344
	c-0.156,0-0.244-0.066-0.195-0.145c0.05-0.081-0.076-0.25-0.279-0.376c-0.332-0.21-0.356-0.195-0.243,0.161
	c0.094,0.299-0.015,0.514-0.473,0.922c-0.328,0.292-0.505,0.533-0.393,0.533c0.114,0,0.26-0.089,0.329-0.201
	c0.074-0.122,0.251-0.005,0.455,0.307c0.248,0.377,0.285,0.592,0.147,0.85c-0.129,0.24-0.118,0.421,0.037,0.608
	c0.12,0.146,0.261,0.227,0.312,0.175c0.049-0.049-0.01-0.212-0.131-0.358c-0.181-0.218-0.155-0.311,0.123-0.485
	c0.304-0.19,0.323-0.307,0.161-0.917c-0.235-0.883-0.103-1.014,0.602-0.598c0.589,0.348,0.68,0.521,0.373,0.709
	c-0.102,0.062-0.138,0.189-0.079,0.284C88.57,3.8,88.47,3.876,88.287,3.878c-0.266,0.002-0.28,0.035-0.07,0.166
	c0.221,0.139,0.213,0.235-0.054,0.641c-0.186,0.284-0.29,0.74-0.258,1.132c0.05,0.634,0.03,0.658-0.632,0.729
	c-0.419,0.045-0.684-0.004-0.684-0.128L86.597,6.431z M85.647,2.356c-0.13-0.141-0.305-0.212-0.391-0.161
	c-0.086,0.053-0.046,0.166,0.091,0.251C85.732,2.691,85.908,2.636,85.647,2.356L85.647,2.356z M86.664,1.06
	c-0.059-0.15-0.137-0.273-0.178-0.273c-0.039,0-0.071,0.124-0.071,0.273c0,0.15,0.08,0.273,0.177,0.273
	C86.689,1.333,86.722,1.211,86.664,1.06L86.664,1.06z M91.702,2.792c0-0.101,0.083-0.183,0.183-0.183
	c0.101,0,0.183,0.082,0.183,0.183c0,0.1-0.082,0.182-0.183,0.182C91.785,2.974,91.702,2.892,91.702,2.792z M81.377,0.695
	c-0.057-0.15-0.057-0.398,0.002-0.551c0.089-0.231,0.169-0.239,0.476-0.047c0.487,0.303,0.485,0.871-0.002,0.871
	C81.649,0.969,81.436,0.846,81.377,0.695L81.377,0.695z M84.111,0.33c0.059-0.15,0.035-0.273-0.051-0.273s-0.198-0.105-0.248-0.235
	c-0.099-0.257,0.875-0.425,1.021-0.176c0.154,0.263-0.229,0.959-0.526,0.959C84.115,0.604,84.046,0.506,84.111,0.33L84.111,0.33z
	 M86.248-1.477c-0.007-0.193,0.036-0.3,0.098-0.239c0.06,0.06,0.066,0.217,0.015,0.349C86.302-1.221,86.258-1.265,86.248-1.477
	L86.248-1.477z M83.499-6.627c0-0.134-0.082-0.243-0.182-0.243c-0.101,0-0.183-0.083-0.183-0.183c0-0.101,0.379-0.183,0.84-0.183
	c0.691,0,0.821,0.051,0.73,0.289c-0.062,0.158-0.11,0.35-0.11,0.424c0,0.075-0.247,0.137-0.547,0.137
	c-0.335,0-0.547-0.095-0.547-0.243H83.499z"/>
</svg>
