<?xml version="1.0" encoding="utf-8"?>
<!-- Generator: Adobe Illustrator 21.1.0, SVG Export Plug-In . SVG Version: 6.00 Build 0)  -->
<svg version="1.1" id="Layer_1" xmlns="http://www.w3.org/2000/svg" xmlns:xlink="http://www.w3.org/1999/xlink" x="0px" y="0px"
	 viewBox="0 0 153 64" style="enable-background:new 0 0 153 64;" xml:space="preserve">
<style type="text/css">
	.st0{fill:#BAC9CF;}
</style>
<title>Group</title>
<desc>Created with Sketch.</desc>
<g>
	<path class="st0" d="M150.3-8.1c0.1,0,0.3-0.1,0.4-0.2c0-0.1-0.3-0.3-0.4-0.2C150.2-8.5,150.2-8.1,150.3-8.1L150.3-8.1z"/>
	<path class="st0" d="M150.7-9.5c0.2-0.1,0.2-0.4-0.1-0.3C150.3-9.8,150.6-9.5,150.7-9.5L150.7-9.5z"/>
	<path class="st0" d="M150.3-9.7c0.1-0.1,0.3-0.2,0.1-0.3C150.2-10.1,150.1-9.9,150.3-9.7L150.3-9.7z"/>
	<path class="st0" d="M150.6-8.5c0,0.1,0.1,0.2,0.2,0.1C150.8-8.5,150.6-8.6,150.6-8.5L150.6-8.5z"/>
	<path class="st0" d="M151.9-11.8c0.2,0,0.3,0,0.4-0.1C152.2-12,151.8-12,151.9-11.8C151.8-11.9,151.9-11.9,151.9-11.8L151.9-11.8z"
		/>
	<path class="st0" d="M150.6-12.2c0.1,0,0.2,0,0.3,0c0-0.2-0.5-0.2-0.5,0C150.5-12.3,150.6-12.3,150.6-12.2L150.6-12.2z"/>
	<path class="st0" d="M141.1,8.5c0.1,0,0.3,0,0.4-0.1c0.4,0,0.2-0.1,0.4-0.4c0.2-0.3,0.2,0,0.5,0c0.2-0.5-0.8-0.3-1-0.2
		c-0.3,0.1-0.8,0.4-0.6,0.8C141,8.5,141,8.5,141.1,8.5L141.1,8.5z"/>
	<path class="st0" d="M141.6,9.6c0.1,0,0.1-0.1,0.2-0.2C142.1,9.4,141.9,9.8,141.6,9.6L141.6,9.6z"/>
	<path class="st0" d="M135.3,5.6c0-0.3-0.2-0.6-0.4-0.3C135,5.4,135,5.7,135.3,5.6L135.3,5.6z"/>
	<path class="st0" d="M133.8,5.3c0.1-0.1,0.3-0.4,0.1-0.4C133.7,4.8,133.6,5.2,133.8,5.3L133.8,5.3z"/>
	<path class="st0" d="M133.3,1.2c0.2-0.1,0.3,0,0.6,0.1c0.2,0,0.4,0,0.5,0c0.1,0,0.2,0,0.3,0c0.1,0,0.2,0.1,0.3,0
		c0.1-0.1,0.2-0.4,0-0.5c0,0.1-0.1,0.1-0.1,0.2c0,0-0.1-0.1-0.1-0.1c0,0-0.1,0-0.1,0c-0.1,0-0.3,0-0.2-0.1c0-0.1,0.3,0,0.3-0.2
		c0-0.1-0.3-0.1-0.1-0.3c0.1-0.1,0.7-0.1,0.5-0.4c-0.1-0.3-0.4,0.2-0.6,0.1c0-0.1-0.1-0.2,0.1-0.4c-0.1-0.1-0.4-0.1-0.5,0
		c0.4,0.6-0.4,0.1-0.5,0.4c0.2,0.1,0,0.4,0,0.6c0,0.1,0.1,0.1,0,0.2C133.3,1.1,133.2,1,133.3,1.2L133.3,1.2z"/>
	<path class="st0" d="M133,0c0.1-0.1,0.2,0,0.2-0.2c0-0.1,0-0.2-0.1-0.2C132.7-0.5,132.9-0.1,133,0L133,0z"/>
	<path class="st0" d="M116.6-6.2c0-0.1,0-0.1-0.1-0.2c0-0.1-0.1-0.1-0.1-0.2c0-0.1,0-0.2-0.1-0.3s-0.1-0.1,0-0.2
		c-0.1-0.1-0.2-0.3,0-0.4c0.2,0,0.1,0.2,0.3,0.3c0.1,0,0.3-0.1,0.3,0.1c0,0.1-0.2,0.1-0.1,0.2c0.1,0.1,0.2-0.1,0.3-0.1
		c0,0.2,0,0.2,0.2,0.1c0.1,0,0.2,0,0.2,0c0.1,0,0.1-0.1,0.2-0.1c0.1,0,0.1,0,0.2,0c0.2,0,0,0,0.2-0.1c0,0,0.2-0.1,0.2-0.1
		c0.1,0,0.1,0.1,0.2,0.2c0-0.2,0.2-0.2,0.4-0.3c0,0,0,0.1,0,0.2c0.2,0,0.2,0.1,0.3,0.2c0.1,0.1,0.2,0.1,0.1,0.3c0,0.1-0.1,0.1,0,0.2
		c0,0.1,0.1,0.1,0,0.2c0,0.2-0.3,0.1-0.4,0.2c-0.1,0.1-0.2,0.2-0.4,0.3c-0.1,0.1-0.3,0.2-0.4,0.3c-0.1,0.1-0.2,0.2-0.3,0.1
		c-0.1,0-0.3-0.2-0.4-0.2c-0.2-0.1-0.3-0.1-0.5-0.3c-0.1-0.1-0.3-0.2-0.4-0.3L116.6-6.2z"/>
	<path class="st0" d="M116.6-6.1c0,0.1,0.6,0.3,0.3,0.4c-0.1,0.1-0.5,0-0.6,0c-0.2,0-0.5,0-0.7,0.1c-0.1,0-0.3,0-0.4,0
		c0,0,0.2-0.3,0.2-0.3c0.1-0.1,0.3,0.2,0.3-0.1c0-0.1-0.1-0.1,0-0.2c0-0.1,0.1-0.1,0.1-0.2c-0.1,0-0.2,0-0.2-0.1s0.1-0.2,0.1-0.2
		c0.1,0,0.2-0.2,0.3-0.2c0.1-0.1,0,0,0.1,0.1c0,0,0.2,0.1,0.2,0.2s0,0.2,0,0.3C116.4-6.4,116.5-6.2,116.6-6.1L116.6-6.1L116.6-6.1z"
		/>
	<path class="st0" d="M157.2,83c0,0.1,0,0.3,0,0.4c0,0,0,0.2,0,0.2c0,0.1-0.1,0-0.2,0.1c-0.1,0.2-0.2,0.5-0.2,0.7c0,0,0.2,1-0.2,0.5
		c-0.1-0.1,0-0.2-0.2-0.3c-0.1,0-0.4-0.1-0.5-0.1c0,0.1,0.1,0.3,0,0.4c-0.1,0-0.1-0.2-0.2-0.3c-0.3,0-0.3,0.3-0.2,0.5
		c0,0.1,0.2,0.5-0.1,0.4c0-0.2,0-0.4-0.2-0.3c-0.1,0.1,0,0.5-0.3,0.3c-0.1,0.3-0.4,0.8-0.6,0.9c-0.2,0.1-0.3,0-0.5-0.1
		c-0.2-0.1-0.2-0.1-0.4-0.2c-0.3,0-0.8,0-0.9-0.3c-0.3-0.6,0.4-0.2,0.5-0.3c-0.1-0.2-0.5-0.2-0.7-0.4c0,0.1-0.1,0.1-0.1,0.1
		c-0.2-0.1,0-0.3-0.1-0.4c0-0.1-0.1-0.2-0.2-0.3c0,0,0-0.1-0.1-0.2c0,0-0.1,0-0.2,0c-0.1-0.1,0-0.3-0.1-0.4l0,0
		c0-0.2-0.1-0.5-0.2-0.7c-0.1-0.2-0.1-0.3-0.2-0.6c-0.1-0.9,0.3,0.3,0.7-0.1c-0.3-0.2-0.3-0.3-0.4-0.6c-0.3,0.4-0.2-0.3-0.2-0.4
		c0-0.3-0.2-0.6-0.5-0.8l0,0c0-0.2,0-0.4-0.1-0.6c0-0.1-0.5-0.5-0.2-0.6c0-0.1-0.1-0.3-0.1-0.5c0-0.2,0-0.4,0-0.5
		c0-0.1-0.1-0.1,0-0.2c0-0.1,0.1-0.1,0.2-0.2c0-0.1,0-0.4,0-0.6l0-0.1c0.2,0.2,0.3,0.1,0.4,0c0.1-0.1,0.4-0.3,0.4,0
		c0,0.2-0.3,0.1-0.2,0.3c0,0.1,0.4,0.2,0.5,0.2c0-0.2,0.2-0.2,0.3-0.1c0,0,0,0.2,0,0.2c0.1,0.1,0.2,0,0.2,0c0.1,0,0.1,0,0.2,0.1
		c0,0,0,0.2,0.1,0.2c0.1,0.1,0.3,0.1,0.4,0.2c0.5,0.4,1.3,0.8,1.9,0.6h0c0.3,0,0.5-0.3,0.8-0.3c0.2,0,0.5-0.1,0.7,0
		c0.1,0,0.1,0.1,0.3,0.1c0.2-0.1,0.2-0.2,0.4-0.2c0.1,0,0.2,0.1,0.4,0.1c0.1-0.1,0.2-0.3,0.4-0.3c0.2,0,0.6,0.5,0.7,0.7
		c0,0.1,0,0.2-0.1,0.3c0,0.1-0.1,0.1-0.1,0.2c0,0.1,0.1,0.2,0.1,0.2c0,0.3-0.2,0.4-0.2,0.8c0,0.2,0.1,0.2,0,0.4
		c-0.1,0.2-0.2,0.2-0.2,0.5c0,0.1,0.2,0.8,0.1,0.9c-0.2,0.2-0.3-0.1-0.4-0.1c-0.2,0-0.3,0.3-0.3,0.5L157.2,83z"/>
	<path class="st0" d="M155.3,86.3c0-0.1,0.1-0.2,0.2-0.3c0,0,0-0.3-0.1-0.3c-0.1,0-0.4,0.3-0.5,0.4
		C155.1,86.3,155.3,86.1,155.3,86.3L155.3,86.3z"/>
	<path class="st0" d="M156.5,85.6c0-0.1,0.1-0.2,0.1-0.2c0,0.1,0.1,0.1,0.1,0.2c0.2-0.1,0.2-0.3,0-0.4c-0.1-0.1-0.2,0-0.2-0.1
		c-0.1,0-0.1-0.2-0.1-0.2c-0.2-0.1-0.2,0.1-0.2,0.3c0,0,0.1,0,0.1,0c0,0,0,0.1,0,0.1C156.3,85.5,156.2,85.6,156.5,85.6L156.5,85.6z"
		/>
	<path class="st0" d="M73.9,39.4c0-0.1-0.2-0.3-0.2-0.4c-0.1-0.1-0.1-0.3-0.2-0.4c-0.1-0.2-0.2-0.9-0.4-0.9
		C72.5,37.8,73.6,39.3,73.9,39.4L73.9,39.4z"/>
	<path class="st0" d="M75.2,39.3c0-0.2,0.1-0.7,0-0.8c0-0.1-0.2-0.1-0.2-0.2c0,0,0-0.1-0.1-0.2s-0.1,0-0.2-0.1c0-0.1,0-0.2-0.1-0.2
		c0,0-0.1,0.1-0.1,0.1c0-0.2-0.2-0.5-0.3-0.1c0,0,0,0.3,0,0.3c0,0.1,0.1,0.1,0.2,0.2c0.1,0.2,0.2,0.4,0.3,0.6
		c0.1,0.2,0.1,0.6,0.4,0.5C75.1,39.4,75.1,39.3,75.2,39.3L75.2,39.3z"/>
	<path class="st0" d="M175.3,37.6c0-0.5,0.4-0.9,0.7-1.3c0.1-0.2,0.4-0.4,0.4-0.6c0-0.1-0.1-0.2-0.1-0.3c0-0.1,0-0.2,0-0.4
		c0-0.1,0.1-0.3-0.1-0.3c-0.1,0-0.3,0.2-0.4,0.2c0.1,0.2,0.4,0.4,0.2,0.6c-0.1,0.2-0.5,0.3-0.6,0.5c0,0,0.1,0.1,0.1,0.1
		c-0.1,0.1,0,0.2,0,0.3c0,0.1-0.2,0.2-0.3,0.4c0,0.2,0,0.4,0.1,0.6L175.3,37.6z"/>
	<path class="st0" d="M135.1,63.4c0-0.2,0.1-0.2,0.2-0.3c0.1-0.1,0.1-0.3,0.2-0.4c-0.1,0-0.4,0-0.5,0c-0.1-0.1,0.1-0.3,0.2-0.3
		c-0.2,0-0.2-0.1-0.1-0.2c-0.2,0-0.3,0-0.4,0.1c-0.1,0-0.3,0-0.4,0c-0.2,0-0.4,0.1-0.7,0.2c-0.3,0.1-0.5,0.2-0.8,0.2
		c-0.2,0-0.3,0.2-0.4,0.5c0.2,0.1,0.4,0.2,0.4,0.5c0.2-0.1,0.3-0.2,0.6-0.2c0.1,0,0.3,0,0.5,0c0.2,0,0.3-0.1,0.5,0
		C134.7,63.5,134.8,63.6,135.1,63.4L135.1,63.4z"/>
	<path class="st0" d="M135.6,62.9c0.1-0.2,0.2-0.3,0.4-0.2c0.1,0,0.3,0.1,0.3,0.3C136.2,63.3,135.4,63,135.6,62.9L135.6,62.9z"/>
	<path class="st0" d="M148.9,75.9c0.4,0,0.5-0.4,0.5-0.7s0.1-0.7-0.4-0.8c0,0,0,0.2,0,0.2c0,0-0.1,0.1-0.2,0.1
		c0,0.1-0.1,0.3-0.1,0.4c-0.1,0.2,0,0.2,0,0.4C148.8,75.7,148.7,75.8,148.9,75.9L148.9,75.9z"/>
	<path class="st0" d="M157.8,77.5c0.1,0,0.2,0.1,0.3,0c0.1,0,0.2-0.1,0.3-0.1c0.2,0,0.5,0.4,0.3,0.5c-0.2,0.1-0.1-0.1-0.2-0.2
		c-0.1,0-0.1,0.1-0.2,0.2c-0.1,0.2-0.3,0.3-0.3,0c0,0,0.1,0,0.1-0.1C158.1,77.8,157.7,77.8,157.8,77.5L157.8,77.5z"/>
	<path class="st0" d="M158.2,77.2c0.1,0,0.3,0.1,0.4,0c0.1-0.1-0.1-0.3-0.2-0.2c0-0.1,0.1-0.2,0.2-0.3c0-0.2-0.2-0.2-0.3-0.3
		c-0.1-0.1-0.2-0.6-0.5-0.6c0,0.1-0.1,0.2-0.2,0.3c-0.1,0.1-0.2,0-0.1,0.2c0.1,0.1,0.2,0,0.3,0.1c0,0.1,0,0.2-0.1,0.3
		c0.1,0.1,0.1,0.3,0.2,0.4C157.9,77.2,157.9,77.2,158.2,77.2L158.2,77.2z"/>
	<path class="st0" d="M167.7,44.2c0-0.1-0.1-0.1-0.1-0.1c-0.1,0-0.2-0.2-0.2-0.2c0,0,0,0,0,0c0,0,0,0,0,0c0,0-0.1,0-0.2,0
		s-0.1,0-0.1,0s0,0-0.1,0s-0.1,0-0.1,0l0,0c-0.1,0-0.2,0.1-0.3,0c0,0-0.1,0-0.1,0l0,0c0,0-0.1,0.2-0.3,0.1c0,0,0,0,0,0l0,0h0
		c0,0-0.1,0-0.2,0c0,0-0.1,0-0.1-0.1v0c-0.1-0.1-0.1-0.1-0.2-0.1h0h0l0,0c0,0,0,0,0,0c0,0-0.1,0.2-0.3,0.2c-0.1,0-0.1,0-0.2,0h0
		c0,0,0,0,0,0c0,0,0,0,0,0c0,0.1-0.1,0.2-0.2,0.2c-0.1,0-0.1,0-0.2,0c0,0,0,0,0,0s0,0,0,0s0,0,0,0c0,0,0,0,0,0c0,0,0,0,0,0
		c0,0,0,0.1-0.1,0.1c0,0,0,0,0,0c0,0-0.1,0.1-0.2,0.1h0c-6.4-0.4-12.8-0.6-19.2-0.8L144,58.6c0.1,0,0.1,0,0.2,0c0,0,0.1,0,0.1,0.1
		c0,0,0,0,0.1,0h0.1c0.1,0,0.1,0,0.2,0c0,0,0.1,0,0.1,0.1c0,0,0,0,0,0c0.1,0,0.1,0,0.2,0.1l0.1,0.1l0,0c0,0,0.1-0.2,0.2-0.2
		c0,0,0.1,0,0.1,0c0,0,0.1,0,0.1,0h0c0,0,0.1,0,0.1,0c0,0,0.1,0,0.1,0c0,0,0,0,0.1,0s0.1,0,0.1,0c0,0,0,0,0,0c0,0,0.1,0,0.1,0
		c0.1,0,0.3-0.1,0.4,0c0.1,0,0.1,0.1,0.1,0.2c0,0,0,0.1,0.1,0.1c0,0,0,0,0,0c0,0,0.1,0,0.1,0.1c0.1,0.1,0.1,0.2,0.1,0.2v0.1
		c0,0,0,0.1,0,0.1c0,0,0.1,0,0.2,0.1c0,0.1,0,0.2,0,0.2V60c0,0,0,0.1,0,0.2v0c0,0,0,0,0.1,0.1c0.1,0,0.2,0.1,0.2,0.2c0,0,0,0,0,0
		l0,0c0,0,0,0,0-0.1c0,0,0-0.1,0-0.1c0,0,0-0.1,0-0.1l0,0c0,0,0-0.1,0-0.2c0,0,0.1-0.1,0.2-0.1c0,0,0.1,0,0.2,0.1c0,0.1,0,0.2,0,0.2
		l0,0h0c0.1,0,0.2,0,0.3,0.1l0,0c0-0.1,0,0,0,0c0,0,0,0,0,0c0,0,0,0,0,0c0.1,0,0.1,0,0.2,0c0.2,0.1,0.3,0.2,0.5,0.3
		c0.2,0.2,0.1,0.3,0.1,0.4c0,0.1-0.1,0.1-0.2,0.1l0,0c0,0,0,0.1,0.1,0.1c0,0,0,0,0,0.1c0,0.1,0,0.2,0,0.3c0,0.1,0,0.1,0.1,0.1
		c0,0,0.1,0,0.2,0c0,0,0,0,0,0c0.1,0,0.2,0,0.3,0.1c0,0.1,0,0.1,0,0.2c0,0,0,0.1,0,0.1c0,0,0,0,0.1,0c0,0,0.1,0,0.2,0.1
		c0,0,0.1,0.1,0.1,0.2l0,0h0c0,0,0.1,0.1,0.2,0.2c0.1,0,0.2,0.1,0.2,0.2c0,0,0,0.1,0.1,0.1c0,0,0,0.1,0.1,0.1s0,0,0.1,0.1l0,0
		c0,0,0,0,0,0l0,0c0,0,0.1,0,0.1,0c0,0,0.1,0,0.1,0c0.1,0,0.2,0.1,0.2,0.2c0.1,0.1,0.1,0.1,0.1,0.2c0,0,0,0,0,0c0,0,0,0.1,0,0.1
		s0,0,0,0.1c0,0.1,0,0.1,0.1,0.1c0.1,0,0.1,0.1,0.2,0.2c0,0,0.1,0.1,0.1,0.1c0,0,0,0,0.1,0.1l0,0c0,0,0,0,0.1,0l0,0
		c0-0.1,0.1-0.1,0.2-0.1l0,0c0-0.1,0-0.2,0.1-0.3l0,0c0-0.1,0-0.1,0-0.2c0.1-0.1,0.2-0.1,0.3-0.1h0.1c0.1,0,0.3,0,0.5,0.1
		c0,0,0.1-0.1,0.2-0.1s0.2,0,0.3,0c0.1,0,0.1,0.1,0.1,0.1c0,0,0,0,0,0c0.1,0,0.1,0,0.2,0.1c0,0,0,0,0.1,0.1c0,0,0,0.1,0.1,0.1
		c0,0,0.1,0,0.1,0h0.1c0.1,0,0.2,0,0.2,0.1c0,0,0,0.1,0,0.1h0.1c0.1,0,0.2,0,0.3,0c0,0,0,0,0.1,0c0,0,0.1,0,0.1,0.1c0,0,0,0,0.1,0
		c0,0,0.1,0,0.1,0c0,0,0,0,0,0c0-0.2,0.1-0.3,0.3-0.3c0.1,0,0.2,0,0.3,0.1c0,0,0,0,0,0c0,0,0,0,0,0s0,0,0.1,0c0.1,0,0.1,0.1,0.1,0.1
		c0,0,0,0.1,0,0.1c0,0,0.1,0,0.1,0h0.1c0,0,0,0,0.1,0c0,0,0.1,0,0.2,0c0.1,0,0.1,0.1,0.2,0.1c0,0,0,0,0,0l0,0
		c0.2-0.2,0.4-0.1,0.6-0.1l0.1,0c0,0,0,0,0,0c0,0,0-0.1,0-0.1c0-0.1,0.1-0.2,0.3-0.1c0,0,0.1,0,0.1,0l0,0c0,0,0.1,0,0.1,0l0,0
		c0.1,0,0.1,0,0.1,0c0.1,0,0.3,0,0.4,0.1c0.1,0,0.1,0.1,0.2,0.1c0,0,0,0,0,0c0,0,0.1,0,0.2,0.1c0,0,0.1,0.1,0.1,0.2s0,0.1,0,0.1l0,0
		c0,0,0,0.1,0.1,0.2c0,0.1,0,0.2,0,0.2c0,0,0,0.1,0,0.1c0,0,0,0.1,0.1,0.1c0,0.1,0,0.1,0,0.2c0,0,0,0,0,0.1v0c0,0,0,0,0.1,0
		c0,0.1,0,0.1,0,0.2v-0.1c0,0,0,0,0,0l0,0l0,0.1v0.1c0,0.1,0,0.1-0.1,0.2c0,0,0,0,0,0s0,0,0,0.1c0,0,0,0.1,0,0.1l0,0c0,0,0,0,0.1,0
		c0.1,0,0.2,0,0.2,0.1l0,0c0,0,0.1,0.1,0.2,0.1c0.1,0,0.1,0.1,0.2,0.2c0,0,0.1,0,0.1,0c0,0,0,0,0.1,0c0,0,0.1,0.1,0.1,0.1l0,0
		c0,0,0.1,0.1,0.1,0.1c0,0,0,0,0.1,0.1l0.1,0c0,0,0.1,0.1,0.1,0.1s0.1,0.1,0.2,0.1c0,0,0,0,0.1,0c0,0,0.1,0,0.1,0.1l0.1,0
		c0,0,0.1,0,0.1,0l0,0c0.1,0,0.1,0.1,0.2,0.1c0,0,0,0,0.1,0c0,0,0,0,0,0c0,0,0.1,0,0.1,0.1l0,0c0,0,0,0,0.1,0c0,0,0,0,0,0l0,0
		c0,0,0,0,0.1,0c0,0,0.1,0,0.1,0.1c0,0,0,0,0,0c0,0,0,0,0,0c0,0,0.1,0,0.1,0.1c0-0.1,0-0.2,0-0.3c-0.1-0.2-0.2-0.2-0.1-0.4
		c0-0.1,0.1-0.3,0.1-0.4c0-0.2,0-0.3,0.1-0.4c0.1-0.2,0.2-0.2,0.3-0.5c0.1-0.3,0.3-0.6,0.4-0.8c0-0.2,0-0.5,0-0.7
		c0-0.1,0.2-0.2,0.3-0.4c0-0.1,0-0.2,0-0.2c0.1-0.2,0.2-0.2,0.3-0.4c0-0.1,0-0.2,0.1-0.3s0.2-0.2,0.3-0.3c0.1-0.1,0.1-0.4,0.3-0.5
		c0.1,0,0.5,0.1,0.5-0.1c0-0.2-0.4-0.1-0.1-0.4c0.2-0.3,0.2,0.1,0.3,0.2c0.1-0.1,0-0.2,0-0.4c0-0.2,0-0.2,0.1-0.4
		c0.1-0.3,0.1-0.6,0.3-0.9c0.1-0.1,0.1-0.3,0.2-0.5c0.1-0.2,0.3-0.2,0.4-0.4c0.1-0.1,0.1-0.3,0.2-0.4c0.1-0.1,0.3-0.2,0.3-0.4v0
		c0.1-0.2,0.1-0.3,0.2-0.5c0.1-0.2,0.2-0.2,0.3-0.3c0.2-0.2,0.4-0.6,0.5-0.9c0.2-0.3,0.3-0.6,0.7-0.7c0.4-0.1,0.7-0.1,0.9-0.4
		c0.1-0.1,0.1-0.3,0.3-0.4c0.1-0.1,0.3,0,0.4-0.1c0.4-0.2,0.2-0.4,0.2-0.7c0-0.5,0.6-0.9,0.9-1.3c0.2-0.2,0.1-0.4,0.3-0.7
		c0.1-0.3,0.3-0.4,0.3-0.7l0-0.1c0-0.1,0.2-0.2,0.2-0.3c0.1-0.1,0.1-0.2,0.1-0.4c0-0.1,0.1-0.1,0.1-0.3c0-0.1-0.1-0.2-0.2-0.3
		c-0.1-0.5,0.5-1,0.7-1.4c0.1-0.2,0.1-0.5,0.2-0.7c0.1-0.2,0.2-0.5,0.3-0.7c0.1-0.2,0.2-0.5,0.3-0.8c0-0.3,0-0.4,0.2-0.6
		c0.1-0.1,0.1-0.2,0.1-0.3s0-0.2,0.1-0.3c0.2-0.3,0.3-0.2,0.3-0.6l0-0.1c0-0.2,0-0.5,0-0.7c0.1-0.4,0.3-0.4,0-0.8
		c-0.2-0.4-0.2-0.8-0.3-1.2v0h-0.1c0,0,0,0,0,0c0,0-0.1,0-0.1,0s0,0,0,0l0,0c0,0-0.1,0.1-0.2,0.1h-0.1c-0.1,0-0.1,0-0.2,0
		s-0.1,0-0.2,0c0,0-0.1,0-0.2,0c0,0,0,0-0.1,0c0,0-0.1,0-0.1,0c0,0,0,0-0.1,0c0,0-0.1,0-0.1,0c0,0-0.1,0-0.1,0c-0.1,0-0.2,0-0.3,0
		c-0.1,0-0.1-0.1-0.1-0.1c0,0,0,0,0,0c0,0,0,0,0,0c-0.1,0.1-0.2,0.1-0.3,0.1h0c0,0,0,0,0,0c0,0-0.1,0.1-0.2,0.1c-0.1,0-0.1,0-0.1,0
		c0,0,0,0-0.1,0h-0.1c0,0,0,0-0.1,0c0,0-0.1,0-0.1,0s-0.1,0-0.1,0c0,0,0,0.1,0,0.1s0,0,0,0c0,0,0.1,0.1,0.1,0.3s0,0.2-0.1,0.2
		c0,0,0,0.1,0,0.1c0,0-0.1,0.1-0.1,0.1c0,0,0,0,0,0l0,0c0,0,0,0.1,0,0.2c0,0,0,0.1-0.1,0.1c0,0-0.1,0-0.1,0c0,0,0,0,0,0h-0.2l0,0
		c0,0,0,0-0.1,0h0h0c-0.1,0.1-0.2,0.2-0.3,0.1c-0.1,0-0.1-0.1-0.1-0.1c0,0,0,0,0,0c-0.1,0.1-0.2,0.1-0.2,0.1c0,0,0,0,0,0l0,0
		c0,0,0,0,0,0c0,0,0,0.1-0.1,0.1c0,0,0,0.1,0,0.1c0,0.1-0.1,0.1-0.1,0.1c-0.1,0.1-0.2,0.1-0.3,0.1s-0.1,0-0.2-0.1
		c0,0-0.1-0.1-0.1-0.1c-0.1-0.2-0.1-0.3-0.1-0.4v-0.1v0c0,0-0.1-0.1-0.1-0.1s0,0,0-0.1l0,0l0,0c0,0-0.1,0-0.2,0h-0.1l0-0.1
		c0,0,0-0.1,0-0.1v0l0,0c-0.1-0.1-0.1-0.1-0.1-0.2c0,0,0,0-0.1,0c0,0,0,0-0.1,0c-0.1,0-0.1-0.1-0.1-0.1l0,0c0,0,0,0,0,0
		c-0.1,0-0.1,0-0.2,0.1c-0.1,0-0.1,0-0.2,0.1c-0.1,0-0.2,0-0.3,0h0 M136.9,35.4l0.7-27.6c-0.4-0.4-0.5-0.8-1.1-1
		c-0.2-0.1-0.4-0.2-0.6-0.3c-0.1-0.1-0.4-0.2-0.6-0.4h0c-0.1-0.1-0.2-0.2-0.2-0.3H135c-0.2-0.1-0.2,0.1-0.4,0.1s-0.2-0.2-0.4,0
		c-0.1-0.6-0.9-0.7-1.2-1.2c-0.2-0.3-0.3-0.3-0.6-0.5c-0.3-0.1-0.4-0.4-0.7-0.5c-0.2-0.1-0.4-0.3-0.5-0.4c-0.2-0.1-0.4,0-0.6-0.3
		c-0.1-0.2,0-0.5,0.1-0.7c0-0.1,0.1-0.1,0.2-0.2c0-0.1,0-0.2,0.1-0.3c0.1-0.2,0.3-0.2,0.4-0.4c0.1-0.2,0.2-0.5,0.5-0.4
		c0-0.2,0.2-0.4,0.1-0.7l0-0.1c0.1,0,0.3-0.5,0.3-0.6c0.1-0.5-0.2,0-0.3,0.1c-0.2,0.1-0.1,0-0.2-0.2c0,0-0.1-0.2-0.1-0.3
		c0,0,0.1-0.3,0-0.3c0-0.1,0.1-0.1,0.2-0.1c0-0.1-0.1-0.2-0.1-0.4c0-0.2,0.2-0.2,0.3-0.1c0,0,0.1-0.1,0.1-0.2c0.1,0,0.1,0.2,0.1,0.2
		c0-0.2,0.1-0.4,0.2-0.5c0,0.1,0,0.2,0.1,0.3c0.1,0.1,0.2-0.1,0.2-0.2c0.2,0.2,0.3-0.3,0.3-0.4c0.1,0.1,0,0.4,0,0.5
		c-0.1,0.2-0.2,0.4,0.1,0.2c0,0,0.2-0.2,0.1-0.2c0.1-0.1,0.1-0.1,0.2-0.2c0.2-0.2,0.2-0.3,0-0.5c0.1,0,0.5,0,0.3-0.2
		c-0.1-0.1-0.3,0-0.4-0.3c0.1,0,0.2,0,0.2-0.1c0.2,0.1,0.2,0.1,0.3,0c0,0,0-0.1,0-0.2c0,0,0.1,0,0.2,0c0.1-0.2,0.2-0.4,0.4-0.6
		c0.1-0.2,0.4-0.3,0.3-0.6c-0.1-0.2-0.4-0.3-0.6-0.3c0,0,0,0,0,0.1c0,0,0.1,0,0.1,0c-0.2,0.5-0.5,0-0.5-0.3v0c0,0,0-0.2-0.1-0.2
		c0,0,0,0,0,0c0.1,0.1-0.3-0.2-0.1-0.1c-0.1,0,0-0.1-0.2,0c0,0-0.1,0.2-0.1,0.2c-0.1,0-0.1,0-0.2,0c-0.1,0.1-0.2,0.2-0.4,0.2
		c0,0.4,0.5,0.1,0.6,0.2c0,0.1,0,0.4-0.1,0.5C133.2-4,133-4,132.9-4c-0.3,0-0.2,0-0.4,0.2c0-0.2-0.1-0.2-0.1-0.3
		c0-0.1,0.2-0.2,0.2-0.4c0-0.2-0.2,0-0.3-0.1c0-0.1,0.2-0.3,0.2-0.4c-0.2,0-0.7,0.3-0.8,0.5c-0.5-0.2,0-0.5,0.2-0.7
		c0.1-0.1,0-0.2,0.2-0.4c0-0.1,0.4-0.3,0.3-0.4c-0.1-0.2-0.3,0.1-0.3,0.1c-0.1,0.2-0.2,0.1-0.4,0.2c-0.2,0.1-0.7,0.2-0.3,0.5v0
		c0,0.1-0.1,0.1-0.2,0c-0.2,0.2-0.3,0-0.5,0c-0.1,0-0.4,0.2-0.4,0.3c0,0.1,0.3,0.2,0,0.2c-0.1,0-0.3-0.1-0.4-0.1c-0.1,0-0.1,0-0.2,0
		c-0.1,0-0.1-0.2-0.1-0.2s-0.1,0-0.2,0c-0.1,0-0.1-0.1-0.1-0.2c0,0-0.2-0.3-0.3-0.3c-0.2,0-0.2,0-0.4,0.1c-0.3,0.2-0.6,0.2-0.8,0
		c-0.2-0.2-0.2,0.2-0.4,0c0,0,0-0.2-0.1-0.2c0,0-0.2,0-0.2-0.1c-0.1,0.1-0.3,0.2-0.5,0.1c-0.3-0.2,0-0.2,0.1-0.4
		c-0.2-0.1-0.4,0-0.6,0c-0.2,0.1-0.4,0-0.6,0.2c0,0,0-0.1,0.1-0.2c-0.1,0-0.2,0-0.3,0c-0.1,0-0.2,0-0.3,0c0.1,0,0.1-0.1,0.1-0.1
		c-0.2,0-0.3,0.1-0.5,0c-0.2,0-0.2-0.3-0.4-0.4v0c0-0.2-0.3-0.7-0.5-0.6c0.3,0.3-0.1,0.2-0.2,0.3c-0.2,0.1-0.2,0.3-0.4,0.1
		c-0.1-0.1-0.1-0.4-0.2-0.5c0-0.2,0-0.3-0.1-0.4c0.1-0.1,0-0.4-0.1-0.5c0,0.1-0.1,0.1-0.2,0.1c0.1,0.1,0.2,0.2,0,0.3
		c0.1,0.2,0.3,0.3,0.1,0.6c-0.1,0-0.2-0.1-0.3-0.3c0,0,0,0.1,0,0.1c-0.1-0.1-0.1-0.3-0.2-0.5c-0.2,0.1-0.1,0.2-0.2,0.4
		c-0.1-0.1-0.2-0.4-0.4-0.4c0,0.1,0.1,0.3,0.2,0.4c0,0.2,0,0,0,0.2c0,0.1,0,0.2,0,0.2c-0.2,0-0.1-0.2-0.2-0.4c0,0,0,0,0,0
		c0-0.3-0.2-0.3-0.4-0.5c0,0.1,0,0.2,0,0.3c-0.1,0-0.1,0-0.2-0.1c0,0,0,0,0,0.1c0,0-0.1,0-0.1,0c0,0.2,0.2,0.4,0.4,0.5
		c-0.2,0.2,0.1,0.3,0.3,0.3c0,0.1,0,0.2,0,0.2c0.3,0,0.4-0.1,0.7-0.2c0.3-0.1,0.4,0,0.7,0.1v0c0,0.1-0.1,0.3-0.1,0.3
		c0,0.2,0.1,0.1,0.3,0.2c0.2,0.1,0.3,0.3,0.2,0.6c0,0.3-0.3,0.4-0.5,0.5c-0.1,0-0.2,0.2-0.3,0.2c-0.1,0-0.2-0.2-0.3,0
		c-0.2-0.2-0.4,0.2-0.7,0.2c-0.3,0-0.4-0.4-0.7-0.1l-0.1,0c-0.1,0.2-0.7,0.2-0.9,0.1c-0.5-0.1-0.2-0.5-0.4-0.7
		c-0.2,0.1-0.1,0.4-0.3,0.5c-0.1-0.1-0.2-0.3-0.4-0.1c-0.3-0.3-0.2,0.4-0.1,0.6c-0.2,0-0.6,0-0.5,0.3c0.1,0,0.1-0.1,0.2-0.1
		c0.1,0,0.1,0.1,0,0.2c0.2,0.1,0.1,0.2-0.1,0.2c0.1,0,0.1,0.1,0.2,0.2c0,0-0.1,0.1-0.2,0.1c-0.1-0.1-0.1-0.1-0.1-0.2
		c0,0-0.1,0-0.1,0c0-0.1-0.1-0.5-0.3-0.4c-0.1,0-0.2-0.1-0.3,0v0c0,0.1,0,0.2,0,0.3c0,0,0,0.1,0,0.1c0,0,0.1,0.1,0.1,0.1
		c0,0.3-0.3,0.1-0.5,0.1c0,0.2-0.1,0.1-0.1,0.2c0,0.1,0,0.2,0,0.3c0,0.1-0.3,0.6-0.4,0.3c-0.2,0-0.1,0.2-0.1,0.4
		c0,0.2,0,0.3,0.1,0.4c0,0.1,0.4,0.3,0.4,0.4c0,0.1-0.3,0.1-0.4,0.2c0,0-0.1,0.1-0.1,0.2c0,0-0.1,0.1-0.2,0.2
		c-0.2,0.1-0.2,0-0.4-0.1c-0.4,0-0.3,0.5-0.3,0.8l0.1,0.1c-0.1,0-0.2,0.2-0.2,0.2c0,0.1,0,0.2,0,0.3c-0.1,0.3-0.3,0.1-0.4,0.4
		c-0.3-0.2-0.3,0-0.3,0.3c0,0.1-0.1,0.1-0.1,0.3c0,0-0.1,0.3-0.1,0.3c0,0.2,0,0.1,0.1,0.2c0.1,0.1,0.2,0.2,0.3,0.2
		c0.2,0.1,0.4-0.1,0.7,0c-0.1,0.2-0.3,0.1-0.4,0.3c0.2,0.3,0.4,0.4,0.8,0.5c0,0.2-0.2,0.1-0.3,0.1c-0.2,0-0.2,0-0.3,0.2
		c-0.1,0.2,0.4,0.8,0,0.7c0,0,0,0.1,0,0.1c0,0-0.1-0.2-0.2-0.3c0-0.1-0.1-0.3-0.2-0.4c0,0-0.1,0-0.2,0c0,0-0.1-0.1-0.1-0.1
		c-0.1,0-0.2-0.1-0.3-0.1c0,0.1,0.1,0.5,0.1,0.7c0,0.4-0.2,0-0.2-0.1c0-0.1-0.2-0.2-0.3-0.3l1.4,32.3
		C121.8,35.5,129.4,35.4,136.9,35.4L136.9,35.4z M144.8,35.3v0.1h0.1l-0.3,8.5c6.4,0.1,12.8,0.4,19.2,0.8l0,0c0,0,0,0,0-0.1l0,0l0,0
		c0,0,0,0,0-0.1l0-0.1c0,0,0.1-0.1,0.2-0.2c0.1,0,0.1,0,0.2,0c0,0,0,0,0,0c0,0,0-0.1,0.1-0.1s0,0,0-0.1c0,0,0-0.1,0.1-0.1
		c0.1-0.1,0.1,0,0.2,0c0.1,0,0.1,0,0.2,0l0,0c0,0,0-0.1,0-0.1c0-0.1,0.1-0.1,0.1-0.1c0,0,0.1,0,0.2,0c0.2,0,0.3,0.1,0.4,0.2
		c0,0,0,0,0,0l0,0c0,0,0,0,0.1,0s0.1,0,0.1,0l0,0l0,0c0,0,0.1-0.1,0.1-0.1c0.1,0,0.3,0,0.4,0c0,0,0,0,0,0s0,0,0,0c0.1,0,0.1,0,0.2,0
		c0,0,0,0,0.1,0c0,0,0.1,0,0.1,0h0c0.2-0.1,0.4,0,0.4,0.1c0,0,0.1,0.1,0.1,0.2c0,0,0,0,0,0c0.1,0,0.2,0.1,0.2,0.1c0,0,0.1,0,0.1,0
		c0,0,0.1,0,0.2,0c0,0,0.1,0,0.2-0.1c0.1,0,0.2-0.1,0.3,0c0,0,0.1,0.1,0.1,0.1c0,0,0,0,0.1,0c0,0,0.1,0,0.2,0.1
		c0.1,0.1,0.1,0.2,0.2,0.3c0,0,0,0.1,0.1,0.1c0,0,0,0,0,0c0.1,0,0.2,0.1,0.2,0.1c0,0,0,0.1,0.1,0.1c0,0,0,0.1,0.1,0.1
		c0.1,0.1,0.1,0.2,0.1,0.2v0.1c0,0.1,0,0.2,0,0.3c0,0,0,0,0,0c0,0,0,0,0.1,0l0,0c0,0,0,0,0-0.1c0-0.1,0.1-0.2,0.1-0.2l0,0
		c0,0,0.1-0.1,0.2-0.1c0,0,0.1,0,0.1,0c0,0,0,0,0,0c0,0,0.1-0.1,0.2-0.1h0c0.1,0,0.2,0,0.2,0.1l0,0c0,0,0.1,0,0.1-0.1h0l0.1,0l0.1,0
		h0.1c0,0,0-0.1,0-0.1c0-0.1,0.1-0.2,0.1-0.2l0,0c0,0,0-0.1,0-0.1c0,0,0,0,0,0c0,0,0,0,0-0.1c0,0,0,0-0.1-0.1c0,0-0.2-0.3-0.1-0.4
		s0.3-0.1,0.4-0.2c0,0,0,0,0.1,0c0,0,0.1,0,0.2,0h0c0,0,0.1,0,0.1,0s0,0,0.1,0c0.1-0.1,0.1-0.1,0.2-0.1c0,0,0.1,0,0.1,0c0,0,0,0,0,0
		c0-0.1,0.1-0.3,0.3-0.2c0.1,0,0.2,0.1,0.2,0.2c0,0,0.1,0,0.1,0c0,0,0.1,0,0.1,0h0c0,0,0,0,0,0c0,0,0,0,0.1,0c0.1,0,0.2,0,0.2,0
		c0.1,0,0.1,0,0.2,0.1c0,0,0,0,0,0c0,0,0,0,0.1,0c0,0,0,0,0.1,0c0.1,0,0.2,0,0.3,0h0.1l0,0c0,0,0.1,0,0.1-0.1c0.1,0,0.2,0,0.3,0h0
		c0-0.1,0-0.3,0-0.4c-0.1-0.2-0.2-0.4-0.2-0.7c0-0.2-0.1-0.4-0.1-0.6c0,0,0.1,0,0.1-0.1c0,0,0-0.1,0-0.1c0-0.1,0-0.2,0-0.3
		c0-0.1,0.1-0.2,0.2-0.3c0-0.1,0-0.2,0-0.3c0-0.2,0-0.4,0-0.6l0-0.1c0-0.5,0.1-0.9,0.4-1.3c-0.3-0.2-0.6-0.6-0.6-0.9
		c0-0.1,0-0.4,0-0.5c0.1-0.2,0.3-0.3,0.2-0.5c-0.2-0.4-0.8-0.2-0.9-0.7c-0.1-0.4,0.2-0.8-0.2-1.1l0,0c-0.6-0.2-0.7-0.9-0.9-1.5
		c-0.1-0.3-0.8-1.4-0.8-0.7c-0.2-0.2-0.6-0.4-0.7-0.8c0.5,0.1,0.1-0.9-0.1-1c0,0-0.3-0.1-0.3-0.1c-0.2,0-0.1,0-0.2,0.1
		c-0.1,0-0.2,0.1-0.4,0c0.3,0,0.1-0.4,0-0.6c0.1-0.1,0.1-0.2,0-0.3l0,0c0-0.4,0.2-0.8,0.2-1.2c0-0.2-0.1-0.4-0.1-0.5
		c0-0.1-0.1-0.1-0.1-0.3c0-0.1,0.1-0.1,0.1-0.2c0-0.2-0.3-0.3-0.4-0.4c0-0.1-0.1-0.6-0.2-0.3c-0.1,0.1,0.1,0.4,0.1,0.5
		c0,0.1,0,0.3,0,0.5c-0.2,0-0.5-0.3-0.7-0.5c-0.1-0.2-0.1-0.7-0.3-0.8c-0.2-0.1-0.5,0.2-0.5,0.5c0,0.2,0.2,0.4,0.2,0.7h0
		c-0.4-0.1-0.3-0.6-0.6-0.7c-0.1,0.1-0.2,0.2-0.3,0.3c0-0.4-0.1-0.8-0.3-1.2c-0.1-0.4-0.1-0.8-0.1-1.2c0-0.1,0.1-0.2,0-0.3
		c0-0.1-0.2-0.1-0.3-0.1c-0.1-0.2,0.1-0.4,0-0.6c0-0.1-0.2-0.2-0.2-0.3c0-0.1,0.1-0.1,0.1-0.2c0-0.3-0.3-0.3-0.4-0.6l0-0.1
		c-0.2-0.2-0.5-0.3-0.8-0.6c-0.1-0.2-0.3-0.7,0-0.7c0.2,0,0.7,0.4,0.5-0.1c0-0.1-0.2-0.1-0.2-0.2c0,0,0-0.2,0-0.2
		c-0.1-0.1,0-0.2-0.2-0.2c0-0.3-0.2-0.2-0.3-0.5c-0.2,0-0.4-0.3-0.4,0.2c-0.1,0-0.4-0.2-0.4-0.4c0-0.1,0.1-0.2,0-0.4
		c0-0.1-0.3-0.1-0.4-0.1c-0.1,0-0.1-0.1-0.2-0.1s-0.1,0.1-0.2,0.1c-0.2-0.1,0-0.9-0.4-0.6c-0.1,0.1,0.1,0.3-0.2,0.3
		c-0.1,0-0.3-0.3-0.4-0.4v-0.1c0-0.2-0.1-1.2-0.4-1.1c0,0.1,0.1,0.2,0.1,0.3c-0.2,0-0.5-0.1-0.6-0.2c-0.2-0.1-0.2-0.6-0.4-0.6
		c-0.1,0-0.2,0.2-0.3,0.2c-0.1,0-0.2-0.1-0.3-0.2c-0.2-0.1-0.3-0.3-0.5-0.4c-0.4-0.3-0.9-0.7-0.7-1.3c0-0.1,0.2-0.1,0.2-0.2
		c0,0,0-0.3,0-0.3c0-0.2-0.2-0.5-0.1-0.7c-0.2-0.1-0.3,0.1-0.5,0c0,0.2,0.3,0.3,0.1,0.6c-0.1-0.1-0.2-0.3-0.2-0.5l0,0
		c-0.4-0.3,0.1-0.9,0.2-1.2c0.1-0.3,0.1-0.7,0.1-1.1c-0.1-0.4-0.2-0.8-0.3-1.2c0-0.1-0.1-0.1-0.1-0.3c0-0.1,0.2-0.1,0.2-0.2
		c0-0.2-0.4-0.1-0.5-0.1c-0.2-0.1-0.3-0.5-0.4-0.7c-0.1-0.3-0.4-0.5-0.4-0.8c0-0.1,0.2,0,0.2-0.2c0-0.1-0.1-0.2-0.1-0.3
		c0-0.2,0.1-0.4,0-0.6c0-0.1-0.1-0.2-0.1-0.3c0-0.1,0.1-0.2,0.1-0.3c0-0.2-0.1-0.4-0.2-0.6c-0.1-0.2,0-0.4,0.1-0.6
		c0.1-0.1,0.3-0.4-0.1-0.3c0-0.4,0.2-0.5,0.3-0.8c-0.1,0-0.1,0-0.2-0.1h0V4.6l0-0.1c-0.1-0.1-0.4-0.1-0.6-0.1
		c-0.3-0.1-0.2-0.3-0.4-0.5c-0.1-0.1-0.4-0.2-0.5-0.3c-0.2-0.2-0.3-0.2-0.1-0.5c0,0-0.1,0-0.2,0c0.1-0.2,0-0.6-0.2-0.5
		c-0.1,0-0.2,0.3-0.4,0.3c-0.1,0-0.3-0.1-0.4-0.1c-0.2,0.5-0.6,0.8-1,0.4c-0.4-0.3-0.2-0.8-0.4-1.2c-0.1-0.3-0.4-0.7-0.3-1.1
		c0-0.2,0.2-0.4,0.2-0.6c0-0.1-0.1-0.1-0.1-0.2c0-0.1,0-0.2,0-0.2c0-0.3,0.1-0.9,0-1.1c-0.1,0-0.2,0-0.4,0.1c0,0,0,0,0,0.1
		c-0.3,0-0.1-0.4-0.1-0.6c0.2-0.4,0.2-0.4-0.2-0.5v-0.1c0-0.4-0.1-0.3-0.3-0.5c-0.2-0.1-0.2-0.3-0.1-0.6c0-0.2,0.4-0.5,0.2-0.7
		c-0.2-0.2-0.5,0.1-0.7-0.1c-0.2-0.1-0.1-0.4-0.1-0.6c0-0.1,0-0.3,0-0.4c0-0.1,0.1-0.3,0.1-0.4c0-0.2-0.2-0.4-0.3-0.7
		c0-0.2,0-0.5-0.2-0.7c0,0-0.1,0.1-0.1,0.1c0,0,0-0.1,0-0.2c0,0,0,0-0.1,0c0-0.1,0-0.1,0-0.1c-0.1,0-0.4,0.2-0.6,0.3
		c0.1,0,0.6-0.6,0.6-0.7c-0.1-0.5-0.7,0.1-0.8,0.2c-0.4,0.2-0.6,0.1-0.6,0.6c0,0.3-0.2,0.6-0.3,0.9L150-6c-0.1,0.3-0.2,0.7-0.3,1
		c-0.2,0.4-0.1,0.5,0,0.8c-0.1,0-0.1,0-0.2,0.1c-0.1-0.1-0.1-0.3-0.2-0.5C149.2-4.4,149-4.1,149-4c-0.1,0.2-0.6,1.1-0.6,1.3
		c0.3,0,0.3-0.1,0.5-0.1c0,0,0.4,0.1,0.4,0.1c0,0-0.1,0-0.2,0c0,0.1,0.1,0.3,0.1,0.4c-0.1,0-0.2-0.1-0.2-0.2
		c-0.2,0.1-0.5,0.5-0.6,0.7c-0.1,0.2,0,0.4,0,0.7l0,0c0.1,0.1,0,0.3,0,0.4c0,0.1,0.1,0.3,0.1,0.4c-0.3-0.4-0.6,0.5-0.7,0.7
		c-0.1,0.3-0.1,0.4,0,0.7c0.1,0.2,0.3,0.4,0.2,0.6l0,0c0,0.4-0.3,0.7-0.3,1.2c0,0.4,0.2,0.7,0.2,1.1c0,0.8-0.8,1.3-0.8,2.1l0.1,0
		c0,0.1-0.1,0.3-0.1,0.4s0.1,0.3,0.1,0.4c0,0.3-0.3,0.5-0.4,0.8c-0.1,0.3,0,0.5-0.1,0.7c-0.1,0.3-0.6,0.5-0.6,0.8l0,0
		c-0.3,0.3-0.3,0.5-0.4,0.8c0,0.4-0.2,0.7-0.5,0.9c-0.5,0.3-1,0.5-1.5,0.5c-0.5,0-1-0.4-1.5-0.6c-0.2-0.1-0.5-0.3-0.7-0.4
		c-0.2-0.1-0.4-0.3-0.5-0.5c-0.1-0.2,0-0.5-0.1-0.6c-0.1-0.1-0.4-0.4-0.6-0.4l0,0c-0.3,0-0.4-0.2-0.7-0.2c-0.2-0.1-0.4-0.1-0.6-0.1
		c-0.4-0.1-0.8-0.4-1.1-0.6l-0.7,27.2C139.8,35.4,142.3,35.3,144.8,35.3L144.8,35.3z M112,3.1L112,3.1c-0.2-0.2-0.8-0.2-1-0.1
		c-0.3,0.2,0,0.2,0.1,0.3c0.1,0.1,0,0.2-0.2,0.1c0,0,0,0,0,0.1c0,0,0,0-0.1-0.1c0,0,0,0.2,0,0.2c-0.2-0.2-0.3,0.1-0.3,0.3
		c0,0.2,0.2,0.3,0.1,0.5c-0.1,0-0.3-0.2-0.4-0.1c0,0,0,0.4-0.1,0.4c-0.3-0.2,0-1.8,0.3-1.8c0-0.1-0.3-0.1-0.4-0.2
		c-0.1-0.1-0.2-0.2-0.4-0.3c-0.2-0.1-0.6-0.4-0.6-0.6l0,0.1c-0.4,0.1-1.1-1.1-1.5-1.3c-0.1,0-0.2,0.1-0.4,0
		c-0.2-0.1-0.3-0.4-0.4-0.4c-0.5-0.1-0.4,0.3-0.2,0.6c-0.5,0-0.4,0.5-0.7,0.6c-0.5,0.2-0.3-0.3-0.3-0.6c-0.4,0-0.5,0.6-0.8,0.4
		c0,0-0.5-1.1-0.7-0.3c-0.1,0.5,0.6,0.1,0.6,0.5c0,0.5-0.7,0.3-0.2,0.9c-0.2,0-0.4,0.2-0.5,0.3c-0.2-0.2-0.1-0.6-0.5-0.5
		c0.1-0.2,0.1-0.4-0.1-0.4c-0.3,0-0.2,0.2-0.3,0.4c-0.2,0.6-0.3,0.3-0.8,0.5l-0.1,0c-0.4,0.3,0,0.5,0,0.8c0.1,0.2-0.1,0.6,0.3,0.7
		c-0.4,0.1-1.2-0.4-1.3,0.3c0,0.3,1,0.8,0.1,0.8c-0.3,0-0.2-0.5-0.6-0.2c-0.1,0.1,0,0.3-0.1,0.3c-0.1,0.1-0.2,0.1-0.3,0.1
		c-0.3,0.2-0.5,0.1-0.4,0.6c0,0.3,0.2,0.4,0.3,0.6c0.2,0,0.4-0.3,0.6-0.5c0.2,0.2-0.4,0.7-0.5,1c-0.5-0.2-0.1,0.8-0.6,0.9
		c0,0-0.5-0.3-0.5-0.3c-0.1-0.1-0.3-0.2-0.5-0.2c0,0.2,0.1,0.4,0,0.6c-0.3-0.1-0.3-0.7-0.6-0.7c-0.6-0.1-0.3,0.6,0,0.8
		c-0.1,0.1-0.6,0-0.7,0.2C97.4,9,97.9,9,98.1,9.1c0.2,0.2,0.8,1,0.7,1.2c-0.2,0-0.4-0.2-0.6-0.3c-0.1,0.5,0.1,1-0.2,1.5
		c-0.5-0.3-0.7-1.2-0.9-1.6c-0.1-0.2-0.4-0.6-0.4-0.8c-0.1-0.2,0.1-0.4,0-0.7c-0.4,0-0.6,0.8-0.9,1c-0.3,0.2-0.6,0.3-0.5,0.9
		c-0.3-0.2-0.8,0.8-0.9,1c0,0.3,0,0.5,0.1,0.8c0,0.2,0,0.6,0.1,0.8c0.1,0.3,0.5,0.2,0.6,0.4c0.1,0.2-0.4,0.7-0.6,0.8
		c-0.4,0.4-0.9,0.5-0.7,1.1c-0.5,0.2-0.5,0.2-0.5,0.8c0,0.4-0.1,0.7-0.3,1.1c-0.3,0.6-1.3,1.7-2,1.6h0c-0.7,0.2-1.3,0.7-2,1
		c-0.7,0.3-1.4,0-2,0.2c-0.7,0.3-0.8,1.1-1.6,1.3c-0.4,0.1-0.7,0.1-1.1,0.4c-0.3,0.2-0.5,0.6-0.8,0.6h0c-0.2,0.1-0.5,0.3-0.7,0.3
		c-0.3,0.1-0.4,0-0.6,0c-0.3,0-0.7,0.2-1,0.1c0-0.2,0-0.4-0.1-0.7c-0.3,0.1-0.5,0.8-0.8,1c-0.1,0.1-0.2,0.3-0.2,0.4
		c-0.1,0-0.2,0-0.3,0c-0.3,0.2-0.1,0.1-0.4,0.4c-0.3,0.4-0.7,0.7-1,1.1c-0.2,0.4-0.8,0.7-0.9,1.1l0.1-0.2c-0.7,0.5-1.5,0.8-1.8,1.6
		c-0.1,0.3-0.1,0.7-0.3,0.9c-0.2,0.3-0.3,0.3-0.7,0.4c0.2-0.4-0.1-0.6-0.2-0.9s0.1-0.7,0-1c-0.5,0.4-0.8,1.2-0.8,1.8
		c0,0.3-0.4,0.6-0.2,1c0.1,0.3,0.5,0.5,0.6,0.8c0.2,0.5,0.3,1.1,0.1,1.6c-0.3,0.7-0.7,1-0.6,1.8c0.1,0.7,0.6,1.1,0.7,1.6l-0.1,0
		c0.1,0.5,0.7,0.9,0.9,1.4c0.1,0.3,0.2,0.6,0.5,0.8c0.2,0.2,0.6,0.3,0.7,0.6c0.1,0.2,0.2,1,0.1,1.3c-0.2,0.4-0.1,0.3-0.3,0.1
		c-0.2-0.2-0.4-0.5-0.5-0.8c0,0.4,0.3,1.5-0.1,1.6c-0.4,0.2-1.1-1.1-1.1-1.4c-0.8,1.2,1.5,1.8,1.7,3V42c0.3,0.3,0.7,0.9,0.8,1.3
		c0.2,0.5,0,0.9,0.5,1.4c0.5,0.5,0.9,0.8,1.1,1.5c0.2,0.4,0.7,0.8,0.7,1.3l0.1,0c0.6,0.7,0.2,1.5,0.5,2.3c0.3,0.7,0.6,1.5,1,2.1
		c0.3,0.4,0.5,0.7,0.8,1.1c0.2,0.3,0.6,0.6,0.8,0.9c0.4,0.6,0.3,1.3,0.3,2l0,0c0.4,0.4,0,0.7,0,1.1c0,0.4,0.3,0.8,0.4,1.2
		c0,0.5-0.2,0.9-0.4,1.3c-0.3,0.5-0.5,0.5-1,0.1c-0.3,0.4-0.1,0.9,0,1.4c0.1,0.6,0.2,0.9,1,0.8l0,0c0.3,0,0.8,0.2,1.1,0.4
		c0.2,0.1,0.3,0.4,0.4,0.6c0.3,0.2,0.2,0.1,0.5,0.1c0.8,0.1,1.6,0.2,2.4,0.2c0.8,0,1.5,0,2.2-0.2c0.6-0.2,0.5-0.3,0.6-0.8
		c0.1-0.4,0.5-0.4,0.9-0.6c-0.3-1,1.4-0.2,1.4-0.9c0.1,0,0.2,0,0.3,0c0-0.6,0-1,0.6-1.3c0.5-0.2,1-0.1,1.4-0.3
		c0.6-0.3,0.9-0.5,1.6-0.4c0.5,0,1,0,1.5,0l0.1-0.1c0.5-0.7,0.5,0.3,0.9,0.3c0.2,0,0.2-0.3,0.5-0.3c0.2,0,0.6,0.3,0.6,0
		c0.3,0,0.7-0.3,0.9-0.3c0.2,0,0.2,0.3,0.4,0.4c0.2,0.1,0.2-0.2,0.4-0.3c0.3-0.2,0.5,0,0.8-0.3c0.3-0.3,0-0.6,0.3-0.8
		c0.2-0.1,0.3-0.1,0.4-0.3c0-0.1,0-0.3,0.1-0.4c0.1-0.3,0.2-0.7,0.4-1c0.4-0.6,1.1-0.5,1.7-0.8c0.5-0.3,1.2-0.9,1.7-1l0.2,0
		c0.4-0.4,0.5-0.7,1.1-0.7c0.4,0,0.8,0.1,1.2,0.1c0.8,0,1.7-0.3,2.4-0.7c0.4-0.2,0.8-0.3,1.2-0.5c0.4-0.2,0.8-0.5,1.3-0.7
		c0.2-0.1,0.2-0.2,0.4-0.2l-2-47.9C112.3,3.2,112.2,3.1,112,3.1L112,3.1z M148.3,60.4L148.3,60.4L148.3,60.4L148.3,60.4z
		 M163.3,69.5l-0.1-0.1c0,0,0,0,0,0c0,0,0,0,0,0c0,0,0,0-0.1,0c0,0-0.1-0.1-0.1-0.1c0,0-0.1,0-0.1-0.1c0,0-0.1,0-0.1-0.1
		c0,0,0,0,0,0c0,0,0,0-0.1,0c0,0,0,0,0,0c-0.1,0-0.1-0.1-0.1-0.1l0,0c0,0-0.1-0.1-0.2-0.1l0,0c0,0-0.1,0-0.1-0.1l-0.1,0
		c0,0-0.1,0-0.1-0.1c0,0-0.1,0-0.1,0c-0.1,0-0.1-0.1-0.2-0.2c0,0-0.1-0.1-0.1-0.1l-0.1,0c0,0-0.1-0.1-0.1-0.1c0,0,0,0-0.1-0.1
		l-0.1,0c0,0,0,0-0.1,0c0,0,0,0-0.1,0l0,0c0,0,0,0-0.1,0c-0.1,0-0.2-0.1-0.2-0.2c0,0-0.1-0.1-0.1-0.1l0,0c-0.1,0-0.1,0-0.1,0
		c0,0,0,0-0.1,0c0,0-0.1,0-0.1,0c-0.1,0-0.2,0-0.2-0.1c-0.1-0.1,0-0.3,0.1-0.4c0,0,0-0.1,0-0.1c0,0,0-0.1,0-0.1c0,0,0,0,0-0.1
		c0,0,0,0,0,0l0,0c-0.1-0.1-0.1-0.1-0.1-0.2v0c0,0-0.1,0-0.1-0.1c0-0.1,0-0.1,0-0.2v-0.1c0,0,0-0.1,0-0.1c0,0,0,0,0-0.1
		c0,0-0.1-0.1-0.1-0.2c0-0.1,0-0.1,0-0.2c0,0,0,0,0-0.1c0,0-0.1-0.1-0.1-0.2c0,0,0,0,0-0.1c0,0,0,0-0.1,0c0,0,0,0-0.1,0
		c-0.1,0-0.2-0.1-0.2-0.2c-0.1,0-0.2,0-0.2,0c0,0-0.1,0-0.1,0c-0.1,0-0.2,0-0.2,0s0,0,0,0c0,0,0,0,0,0c0,0.1,0,0.1-0.1,0.2
		s-0.2,0-0.3,0l-0.1,0c-0.2,0-0.2,0-0.3,0c0,0-0.1,0.1-0.2,0.1l0,0c-0.1,0-0.1,0-0.2,0l0,0c0,0,0,0-0.1,0s-0.1,0-0.1,0
		c0,0-0.1,0-0.1,0h-0.2l0,0l-0.1,0c0,0,0,0-0.1,0c-0.1,0-0.1-0.1-0.1-0.1l0,0c0,0-0.1,0-0.1,0c0,0,0,0-0.1,0c0,0,0,0,0,0
		c0,0.1,0,0.1,0,0.1c0,0.1-0.1,0.2-0.2,0.2c0,0,0,0-0.1,0c0,0-0.1,0.1-0.2,0.1c0,0,0,0-0.1,0c-0.1,0-0.2-0.1-0.2-0.1c0,0,0,0,0,0
		c0,0,0,0-0.1,0s-0.1,0-0.1,0v0c-0.1,0-0.2,0-0.2-0.1c0,0,0-0.1,0-0.1l0,0h-0.1h-0.2c-0.1,0-0.2-0.1-0.3-0.2c0,0,0,0-0.1-0.1
		c-0.1,0-0.2-0.1-0.2-0.1c0,0,0,0,0,0c0,0-0.1,0-0.1,0h0c0,0-0.1,0-0.1,0.1l-0.1-0.1l-0.1,0.1c0-0.1-0.2-0.1-0.3-0.1h-0.1
		c-0.1,0-0.1,0-0.1,0c0,0.1,0,0.2-0.1,0.2s0,0,0,0.1c0,0.1,0,0.2-0.1,0.3c0,0,0,0-0.1,0c0,0.1-0.1,0.1-0.1,0.1c0,0,0,0-0.1,0
		c0,0-0.1,0-0.1,0c-0.1,0-0.1,0-0.1-0.1l0,0c0,0-0.1,0-0.1-0.1c0,0,0,0-0.1-0.1c0,0-0.1-0.1-0.1-0.1c0-0.1-0.1-0.1-0.1-0.2
		c-0.1-0.1-0.1-0.1-0.2-0.3c0,0,0,0,0,0c0,0,0-0.1-0.1-0.2c0,0,0,0,0-0.1v0c0,0-0.1-0.1-0.1-0.1c0,0,0,0-0.1,0c0,0-0.1,0-0.1,0
		c-0.1,0-0.1,0-0.2-0.1c0,0,0,0,0,0c0,0,0,0,0,0c-0.1,0-0.1-0.1-0.1-0.2c0,0,0,0,0-0.1c0,0-0.1-0.1-0.2-0.1c-0.1,0-0.2-0.1-0.2-0.2
		c0,0-0.1-0.1-0.1-0.2l0,0h-0.1c0,0-0.1,0-0.1,0c-0.2-0.1-0.2-0.3-0.2-0.4v-0.1c0,0,0,0-0.1,0c0,0,0,0,0,0c-0.1,0-0.2,0-0.3-0.1
		c-0.1-0.1-0.2-0.2-0.2-0.4c0-0.1,0-0.1,0-0.1c0,0,0,0,0,0c-0.1-0.1-0.2-0.4,0-0.5c0,0,0.1,0,0.1,0l0,0c-0.1-0.1-0.2-0.2-0.4-0.3
		h-0.1c-0.1,0-0.2,0-0.3-0.1c0,0,0,0,0-0.1h0c-0.1,0-0.2,0-0.2,0c0,0-0.1-0.1-0.1-0.1l0,0c0,0,0,0.1,0,0.1c0,0,0,0.1,0,0.1
		c0,0.1-0.1,0.3-0.2,0.4c0,0-0.1,0-0.1,0c0,0,0,0-0.1,0c-0.1,0-0.2-0.2-0.2-0.3v0c0,0,0,0-0.1,0s-0.1-0.1-0.2-0.1c0-0.1,0-0.2,0-0.2
		c0,0,0-0.1,0-0.1v-0.1v0v0c0,0-0.1,0-0.1,0c-0.1-0.1-0.1-0.2-0.1-0.3c0,0,0,0,0,0c0,0,0,0,0,0c0,0,0,0,0,0c0,0-0.1,0-0.1,0
		c-0.1,0-0.1-0.1-0.2-0.2c0,0,0,0,0,0c0,0-0.1,0-0.2,0c0,0,0,0,0,0c0,0-0.1,0-0.1,0c0,0-0.1,0-0.2,0h0c-0.1,0-0.1,0-0.2,0
		c0,0-0.1,0-0.2,0c0,0,0,0-0.1,0c0,0,0,0,0,0c0,0,0,0,0,0c0.2,0.1,0.1,0.2,0,0.2c0,0-0.1,0-0.2,0l-0.1-0.1c-0.1,0-0.1,0-0.2-0.1
		c0,0-0.1,0-0.1-0.1s0,0,0,0h-0.1c0,0-0.1,0-0.2,0c-0.1,0-0.1,0-0.1-0.1c0,0,0,0,0,0c0,0,0,0,0,0l-0.5,11.6c0.1,0,0,0.1,0.1,0.2
		c0.3,0.1,0.2-0.2,0.4-0.3c0.1-0.1,0.4-0.1,0.6,0c0.2,0.1,0.3,0.3,0.6,0.3c0.2,0,0.4-0.1,0.5,0c0.2,0.1,0.4,0.3,0.6,0.5
		c0.2,0.1,0.4,0.2,0.6,0.3c0.2,0.1,0.2,0.3,0.4,0.5c0.1,0.1,0.4,0.2,0.6,0.3h0c0.3,0.5,1.8-1.1,2.2-1.2c0.2,0,1-0.1,1-0.5
		c0-0.2-0.7-0.1-0.9-0.1c0-0.3,0.5-0.3,0.8-0.4c0.1,0,0.4-0.3,0.5-0.2c0.2,0,0.1,0.1,0.1,0.3c0.1,0.2,0.3,0.2,0.3,0.4
		c0,0.1-0.2,0.3-0.3,0.4c-0.3,0.4-0.4,0.1-0.8,0.2c0.2,0.3,0.4,0.5,0.7,0.4c0.1,0,0.4-0.1,0.5-0.1c0.1-0.1,0-0.2,0.2-0.3
		c0.4-0.2,0.7,0.2,0.5,0.5l-0.4,0.2c-0.1,0-0.3-0.1-0.3-0.2c-0.4,0.2,0,0.3,0.2,0.4c0.3,0.1,0.4,0.3,0.7,0.4v0
		c0.2-0.4,0.6,0.6,0.6,0.7c0.2-0.5,0.5,0.1,0.6,0.3c0,0.1,0.1,0.4,0.2,0.4c0.2,0,0.2-0.2,0.3-0.3c0-0.1,0.1-0.3,0.1-0.4
		c-0.1-0.3-0.1,0-0.3,0c-0.2,0-0.4-0.5-0.1-0.6c0.2,0,0.2,0.2,0.4,0.2c0.2,0.1,0.3-0.1,0.5-0.1c0.3-0.1,0.5-0.1,0.8-0.4
		c0.8-0.8,2-1.5,3.2-1.5l0.1-0.1c0.4,0,0.7-0.1,1,0c0.4,0,0.7,0.1,1,0.1c0.4,0,0.8,0,1.1-0.3c0.3-0.2,0.5-0.2,0.8-0.4
		C163.2,69.7,163.3,69.8,163.3,69.5L163.3,69.5z M114.2,36l0.6,15.2c0.5-0.2,1-0.3,1.4-0.3c0.8,0,1.6,0.1,2.4,0.1h0.1
		c0.2,0,0.4,0,0.6-0.2c0.2-0.2,0.3-0.3,0.7-0.3c0.5,0.1,1.2,0.6,1.5,0.9c0.5,0.5,0.7,0.7,1.3,0.4c0.2-0.1,0.4-0.2,0.6,0
		c0.3,0.1,0.4,0.4,0.8,0.4c0.2,0.2,0.4,0.3,0.7,0.3c0.2,0,0.5-0.2,0.7-0.2c0.1,0,0.2,0.2,0.4,0.2s0.3,0,0.4,0.1
		c0.5,0.2,0.1,0.3-0.1,0.5c-0.2,0.3-0.2,0.5,0.2,0.4c0.3-0.1,0.3-0.4,0.6-0.1c0.1,0.1,0.3,0.4,0.2,0.6c-0.1,0.3-0.2-0.2-0.4,0
		c0,0.1,0,0.3,0,0.4c0,0.2,0,0.2,0.1,0.3c0.1,0.2,0.2,0.5,0.4,0.7l0.2,0c0.4,0.1,0.9,0.3,0.9,0.8c0,0.3-0.2,0.4,0.1,0.6
		c0.2,0.1,0.5,0.1,0.7,0.3c0.2,0.1,0.3,0.4,0.3,0.6c0,0.1,0,0.2,0,0.3c0,0.1,0.1,0.1,0.2,0.3c0,0.2,0,0.4,0,0.5
		c0,0.2,0.4,0.4,0.3,0.6c-0.1-0.2-0.5-0.2-0.5-0.4c-0.2,0-0.3,0.2-0.4,0.3c0.2,0.1,0.6-0.1,0.6,0.3c0.2,0.1,0.8,1.1,0.9,0.6
		c0.2,0,0.4,0.4,0.6,0.3c0.1,0,0.1-0.6,0.1-0.7c-0.1,0-0.3,0.1-0.5,0c0.1-0.1,0.1-0.3,0.2-0.4c0.1-0.1,0.3-0.1,0.4-0.2
		c0.1-0.1,0.1-0.2,0.2-0.4c0.1-0.1,0.2-0.2,0.2-0.3c0.2-0.2,0.2-0.5,0.4-0.7c0.3-0.2,0.7-0.4,1-0.7c0.3-0.1,0.5-0.2,0.8-0.3
		c0.3-0.1,0.3-0.4,0.4-0.6s0.2-0.6,0.4-0.8c0.1-0.2,0.3-0.5,0.5-0.6c0.3-0.2,0.4,0.1,0.3-0.4c0-0.3-0.1-0.5-0.1-0.8
		c0.3,0.1,0.3,0.7,0.4,0.9c0.1,0.3,0,0.6,0,0.9c-0.8,0.1,0,0.9,0,1.2c0,0.1-0.5,0.4-0.6,0.5c-0.1,0.2-0.3,0.3-0.3,0.6l0,0
		c0,0.1-0.1,0.2-0.1,0.3c0,0.1,0,0.2,0,0.3s-0.2,0.2-0.2,0.4s0.1,0.3,0.1,0.4c0,0.3-0.1,0.6-0.1,0.8c0,0.1,0,0.2-0.1,0.4
		c-0.2,0.2-0.1,0-0.3,0c-0.3,0-0.4-0.1-0.6,0.2c-0.1,0.1,0,0.2-0.1,0.3c-0.1,0.1-0.3,0.2-0.3,0.3c-0.2,0.5,0.2,0.2,0.4,0.1
		c0.1,0,0.2,0.1,0.3,0c0.1,0,0.1-0.2,0.2-0.2c0.1-0.1,0.4-0.1,0.6-0.1c0.2,0,0.4,0.2,0.6,0.1c0.1-0.1,0.1-0.5,0.2-0.7
		c0-0.2,0.2-0.4,0.2-0.6c0-0.2,0-0.4,0-0.6c0.1-0.2,0.3-0.4,0.3-0.6c0-0.2,0-0.4,0.3-0.2c0.2,0.1,0.1,0.3,0.2,0.5
		c0.1,0.5,0.6,0.8,0.7,1.3c0.1,0.5-0.2,0.9-0.2,1.4h0c-0.1,0-0.3,0.1-0.4,0.2c-0.1,0.1-0.1,0.2-0.3,0.3c-0.2,0.1-0.5,0.3-0.1,0.5
		c0.1,0.1,0.5,0,0.7,0c0.2,0,0.2,0,0.4-0.1c0.1-0.1,0.1-0.2,0.3-0.2c0.4,0,1.1,0.7,1.3,1c0.4,0.5,0.7,1,0.9,1.5
		c0.1,0.5,0.1,0.9,0,1.3l0,0c-0.3,0.3-0.2,0.1-0.1,0.5c0.1,0.3,0,0.4,0,0.7c0,0.3,0.3,0.4,0.6,0.6c0.2,0.1,0.3,0.3,0.4,0.5
		c0.2,0.4,0.3,0.8,0.7,1.1c0.4,0.3,0.9,0.1,1.3,0.4l0,0c0.3,0,0.2,0.4,0.3,0.5c0,0.1,0.1,0.1,0.1,0.1l1.4-34.8
		C134.5,35.6,124.3,35.7,114.2,36L114.2,36z"/>
</g>
</svg>
