<?xml version="1.0" standalone="no"?>
<!DOCTYPE svg PUBLIC "-//W3C//DTD SVG 20010904//EN"
 "http://www.w3.org/TR/2001/REC-SVG-20010904/DTD/svg10.dtd">
<svg version="1.0" xmlns="http://www.w3.org/2000/svg"
 width="500.000000pt" height="500.000000pt" viewBox="0 0 500.000000 500.000000"
 preserveAspectRatio="xMidYMid meet">
<metadata>
Created by potrace 1.11, written by Peter Selinger 2001-2013
</metadata>
<g transform="translate(0.000000,500.000000) scale(0.100000,-0.100000)"
fill="#000000" stroke="none">
<path d="M2245 4861 c3 -12 8 -38 10 -59 2 -20 13 -98 23 -172 11 -74 20 -142
20 -150 0 -8 3 -27 6 -41 6 -27 14 -171 20 -336 1 -54 -2 -93 -7 -93 -5 0 -4
-6 2 -13 6 -8 8 -16 5 -19 -2 -3 -7 -34 -9 -69 -2 -35 -6 -89 -9 -119 -5 -61
-53 -286 -67 -311 -4 -9 -5 -19 -2 -23 3 -3 2 -6 -4 -6 -5 0 -10 -6 -10 -13 0
-16 -44 -125 -84 -207 -41 -84 -150 -260 -161 -260 -4 0 -7 -4 -6 -9 2 -5 -21
-39 -49 -75 -29 -37 -53 -71 -53 -76 0 -6 -4 -10 -8 -10 -5 0 -23 -19 -40 -42
-17 -24 -45 -59 -63 -78 -42 -46 -138 -188 -205 -308 -30 -52 -54 -96 -54 -98
0 -1 -17 -40 -38 -86 -32 -69 -63 -146 -67 -168 -1 -3 -9 -32 -19 -65 -10 -33
-18 -61 -18 -62 1 -2 -5 -24 -13 -50 -15 -50 -28 -143 -29 -205 -1 -20 -4 -39
-7 -42 -5 -5 -3 -60 5 -176 5 -63 8 -83 20 -161 6 -34 40 -156 53 -189 4 -8 7
-17 8 -20 13 -36 36 -92 48 -115 44 -85 76 -140 116 -199 72 -109 352 -401
476 -496 39 -30 72 -57 75 -60 3 -3 28 -20 57 -38 39 -26 60 -32 92 -31 23 2
41 5 41 8 0 4 26 20 58 36 31 17 59 33 62 36 3 3 21 14 39 25 19 10 42 24 50
31 9 7 59 43 112 80 223 159 390 320 536 519 49 67 98 132 109 146 10 14 26
36 34 48 8 12 34 48 57 80 36 48 147 248 152 272 1 5 12 32 25 61 13 29 29 71
35 92 7 22 15 47 18 55 4 8 7 18 8 23 2 4 3 8 5 10 1 1 3 9 5 17 2 8 18 66 35
128 17 62 28 117 25 122 -3 5 -1 11 4 15 5 3 10 13 10 23 0 9 2 31 5 47 11 54
15 89 21 170 3 44 8 87 11 95 3 8 5 98 4 198 -1 161 -5 221 -25 382 -10 74
-38 196 -62 270 -8 25 -16 50 -17 55 -8 39 -34 111 -65 176 -11 25 -21 49 -21
53 0 16 -120 247 -164 316 -62 97 -122 186 -133 198 -7 7 -13 16 -13 20 0 4
-14 22 -30 41 -17 18 -30 36 -30 40 0 3 -13 20 -28 38 -15 17 -40 48 -57 69
-64 79 -105 124 -260 279 -88 89 -194 190 -235 226 -41 35 -77 67 -80 70 -3 4
-45 39 -95 78 -49 39 -98 78 -107 85 -9 8 -26 20 -38 26 -20 11 -21 10 -15 -9z
m659 -1091 c36 -55 75 -114 85 -132 10 -18 37 -65 60 -105 22 -40 41 -79 41
-87 0 -8 3 -16 8 -18 4 -1 18 -25 31 -53 13 -27 32 -67 43 -87 10 -21 19 -40
19 -43 0 -2 9 -26 20 -52 11 -27 38 -104 60 -173 22 -69 44 -140 50 -158 6
-18 12 -45 14 -60 2 -15 4 -27 5 -27 2 0 9 -32 15 -70 2 -16 7 -40 9 -53 37
-175 43 -558 10 -737 -11 -63 -13 -70 -14 -70 -1 0 -3 -13 -5 -30 -14 -107
-26 -169 -36 -181 -5 -6 -7 -13 -4 -16 3 -3 -9 -52 -26 -109 -17 -57 -32 -111
-34 -119 -5 -25 -97 -255 -104 -260 -3 -3 -7 -12 -9 -20 -6 -27 -84 -180 -92
-180 -4 0 -11 -12 -14 -26 -7 -26 -45 -86 -58 -92 -5 -2 -8 -8 -8 -14 0 -8
-55 -93 -70 -108 -3 -3 -27 -34 -55 -70 -67 -88 -119 -144 -216 -235 -176
-164 -262 -222 -130 -87 92 93 224 266 258 337 9 19 21 35 25 35 5 0 7 4 3 9
-3 5 -1 12 4 15 12 8 115 228 125 271 2 6 6 17 9 25 11 26 68 204 73 225 6 29
10 48 33 155 35 168 46 271 52 495 2 87 -20 278 -46 385 -3 14 -10 45 -16 70
-11 53 -17 75 -19 75 -1 0 -3 9 -5 20 -2 11 -18 64 -37 118 -28 83 -35 95 -45
81 -7 -9 -10 -21 -7 -25 5 -8 -10 -68 -44 -179 -9 -30 -17 -57 -17 -60 -9 -35
-90 -207 -135 -285 -33 -60 -114 -180 -122 -183 -5 -2 -8 -8 -8 -14 0 -5 -6
-15 -12 -23 -7 -7 -38 -46 -68 -85 -30 -40 -70 -91 -88 -114 -17 -22 -36 -45
-40 -51 -56 -74 -108 -141 -112 -145 -3 -3 -9 -12 -15 -21 -27 -43 -69 -105
-74 -109 -3 -3 -7 -12 -9 -20 -2 -8 -9 -22 -16 -30 -14 -17 -80 -142 -79 -150
1 -7 -7 -30 -18 -55 -42 -99 -61 -262 -45 -407 7 -64 52 -226 68 -245 6 -7 8
-13 5 -13 -9 0 69 -154 111 -220 19 -30 27 -48 18 -41 -29 24 -133 189 -180
285 -55 112 -113 273 -108 299 1 4 -1 7 -5 7 -5 0 -9 10 -9 23 -2 21 -6 48
-21 127 -20 109 -4 386 31 528 3 12 8 30 10 41 2 10 16 51 31 92 14 41 28 81
30 90 4 21 127 269 162 329 14 25 30 47 34 48 5 2 9 8 9 14 0 8 55 93 70 108
3 3 23 31 44 62 21 32 46 65 55 75 19 21 151 224 174 268 102 193 189 419 216
557 6 29 13 64 16 78 11 55 45 300 50 365 8 101 17 254 18 298 0 20 2 37 3 37
1 0 31 -45 68 -100z"/>
</g>
</svg>
