<?xml version="1.0" encoding="UTF-8"?>
<svg width="151px" height="64px" viewBox="0 0 151 64" version="1.1" xmlns="http://www.w3.org/2000/svg" xmlns:xlink="http://www.w3.org/1999/xlink">
    <!-- Generator: Sketch 47 (45396) - http://www.bohemiancoding.com/sketch -->
    <title>Group</title>
    <desc>Created with Sketch.</desc>
    <defs></defs>
    <g id="Page-1" stroke="none" stroke-width="1" fill="none" fill-rule="evenodd">
        <g id=".old" transform="translate(-217.000000, -412.000000)" fill="#BAC9CF">
            <g id="sidebar-body" transform="translate(30.000000, 245.000000)">
                <g id="Group-Copy-2" transform="translate(0.000000, 166.000000)">
                    <g id="bg" transform="translate(169.000000, 1.000000)">
                        <g id="Group" transform="translate(4.000000, -25.000000)">
                            <path d="M25.499907,25.3436009 C25.5901679,25.5770065 25.7568036,25.7956616 25.9998139,26 C26.0102286,25.6073753 25.5823569,25.2494577 25,25 C25.1666357,25.1140998 25.3332713,25.2290672 25.499907,25.3436009" id="path2614"></path>
                            <path d="M14.016708,26.2380952 C13.9446627,26.4262566 14.111131,26.5049603 14.4096824,26.4761905 C14.2344813,26.6656746 14.3327249,26.8693783 14.6056238,27 C13.8393237,26.4107143 15.0466285,25.6005291 14.9985983,25 C14.9631214,25.4546958 14.4473425,25.8869048 14.016708,26.2380952" id="path2600"></path>
                            <path d="M14,28.0083125 C14.2937243,28.4225434 14.5478395,28.9419642 15,29 C14.8605967,28.3978781 14.4670782,27.9314151 14,28.0083125" id="path2604"></path>
                            <path d="M18.0254143,25 C17.9524143,25.35 18.0404143,25.7 18.2414143,26 C18.7154143,25.6921296 18.4129143,25.2115741 18.0254143,25" id="path2610"></path>
                            <path d="M20.28812,29 C20.34962,28.6157407 20.23062,28.2387566 20.00012,28 C19.99612,28.3835979 20.09212,28.7169312 20.28812,29" id="path2612"></path>
                            <path d="M25.072477,26 C24.933977,26.4 24.993977,26.7333333 25.252477,27 C25.325477,26.6208333 25.265477,26.2875 25.072477,26" id="path2616"></path>
                            <path d="M28.0040897,37 C27.9690897,37.3063917 28.1615897,37.5081739 28.4720897,37.4997457 C28.4760897,37.2136809 28.2985897,37.0069409 28.0040897,37" id="path2618"></path>
                            <path d="M8,0.60504262 C10.2890704,0.377913056 12.573956,0.073292229 14.8752003,0 C14.7024833,0.231710328 14.4590057,0.406542833 14.3547668,0.687496378 L23.3489189,4.4867594 L31.0417362,4.52846726 L31.0662742,3.0675928 L35.9934478,3.05881301 C36.6671961,3.06721107 36.7470872,3.36076172 36.9034455,3.89823807 C37.0343148,4.34867989 37.5988786,4.44907498 37.8199107,4.89989853 C38.0116493,5.29117215 38.363931,5.95500124 38.7226802,6.20694328 C39.0612663,6.44476129 39.5550694,6.62913706 39.6471344,7.08645003 C39.7802862,7.74798874 39.7696341,8.31676698 39.6851778,8.96914416 C39.4976239,10.4151388 40.7694142,11.0541554 41.7745204,11.7359258 C42.1252804,11.9737438 42.6689203,12.4791548 43.1090823,12.2077445 C43.4263641,12.0119169 43.8041349,11.6756124 43.9738084,11.3351089 C44.1921774,10.8965007 44.6308176,10.1994611 45.0222841,9.89636721 C45.2688052,9.70550203 45.7949452,9.63450018 46.0844553,9.49860417 C46.8647175,9.48104457 47.6644807,9.66602347 48.4507538,9.76161639 C48.6748293,9.80666057 48.9544482,10.3979609 49.1712955,10.600278 C49.5266207,10.9312382 49.9864853,11.6921795 50.0796916,12.1575088 C50.2056152,12.7877456 50.3631947,13.4308086 50.3989555,14.0751695 C50.4366184,14.7523591 50.8684108,15.1596654 51.0879212,15.7757782 C51.1887361,16.0574952 51.2857467,16.3407391 51.4287899,16.6045148 C51.5410179,16.8114127 51.7426478,16.8041598 51.8465062,16.9801375 C52.1017773,17.4114928 51.7407456,18.1070055 51.7380826,18.5658454 C51.7350391,19.1430217 52.2579797,19.5530001 52.1860777,20.1813283 C52.4149467,21.1441973 53.1241933,20.941048 52.8299277,20.9722736 C53.2147365,21.0102176 53.4609343,21.308078 53.8814582,21.5667804 C54.1543092,21.7346349 54.2511562,21.9325659 54.5464452,21.9418687 C55.2280723,21.9633219 55.7531585,21.8549296 56.2241584,22.4423172 C56.6129884,22.9272293 56.9009502,22.1795417 57.3875251,22.1745792 C56.0106741,24.3975821 55.2080729,26.8421986 54.2851518,29.2567233 C53.9494684,30.9966312 54.515398,27.2790584 55.8619283,24.9507819 C56.1155826,24.512189 56.2069856,23.9400477 55.9038103,24.0108396 C55.9384297,24.0146569 55.7090129,24.7234539 55.3490616,24.2345832 C55.3395888,24.4686488 55.0568809,24.781725 55.0635194,24.8194247 C55.2768058,26.0309032 55.0344923,25.8518908 55.0280249,26.2105952 C55.0276445,26.2383851 54.6431134,27.1901611 54.6280825,27.2310902 C54.6130553,27.2720155 54.363407,27.0253834 54.3350875,27.0552881 C54.3578755,27.5928332 54.5127083,27.5371234 54.5006676,27.7669327 C54.4886078,27.9969864 54.2489231,28.4105034 54.2038341,29.2298685 C54.193258,29.4222339 54.1936004,29.3138301 54.018384,29.4909683 C54.4201221,30.1158609 53.8776235,31.0121638 53.8129497,31.6622506 C53.7326782,32.4711372 53.2198534,33.125423 53.1787665,33.9560683 C53.1365383,34.807327 53.2305055,35.5772771 53.7338195,36.2846235 C54.2751768,37.0454121 54.0278948,37.0133468 53.7170804,37.7913132 C53.6828413,37.484402 54.064036,37.0519015 53.8757213,36.7976691 C53.5192548,36.3166889 53.440505,35.7555452 53.1692557,35.2352467 C53.2921358,35.7139366 53.0954515,36.2231649 53.2788206,36.6919298 C53.4443093,37.1141236 53.6550697,37.1576408 53.6874065,37.6703047 C53.7547433,38.7406766 54.182351,39.8507485 54.7183822,40.7481966 C55.3350655,41.7800138 55.5507715,42.6118042 55.8216404,43.7600491 C55.9350096,44.2410294 56.2884327,44.598329 56.4466932,45.0575506 C56.5832689,45.4545502 56.6312036,45.8179575 57.0588112,46.0088227 C56.82979,45.9912631 56.6684861,45.7137451 56.5109865,45.8717815 C57.0032679,46.0038602 56.5071821,46.6333335 56.3466391,46.833742 C56.8088662,46.8119834 56.3960955,46.3168791 56.795551,46.2409147 C56.939355,46.2496945 57.0272352,46.1817465 57.0588112,46.036689 C57.3152236,46.1813648 57.6161468,46.1996879 57.902233,46.2115215 C58.8297307,46.2496945 59.6031527,46.7310565 60.0303799,47.5281095 C60.3936942,48.2052992 60.7737476,48.15033 61.5346153,47.9594648 C62.0128206,47.8392198 62.8353186,47.6769844 63.1948286,47.3009799 C62.9030358,47.3716001 62.6123844,47.4632153 62.3457002,47.6036921 C62.7280362,47.3738904 65.7045506,46.6871575 65.796996,47.1085878 C65.6246595,46.3390194 67.8829147,45.9236968 68.180414,46.5314115 C67.5789481,46.4230001 68.183077,46.9478794 68.0982403,47.2185262 C68.301392,47.0448389 68.4649785,47.1280561 68.7008475,47.1085878 C68.8454123,47.139508 68.9914989,47.1578311 69.1391073,47.1639387 C69.1760093,47.0559091 69.2269875,46.9547505 69.2920417,46.8604631 C69.6268234,46.7264758 70.3941585,45.9859189 69.5499758,45.9271324 C69.7356275,45.7725316 69.9273662,45.6259471 70.1251918,45.487379 C69.8554642,45.6499961 69.5899214,45.8217748 69.3034547,45.9549987 C69.6382365,45.389656 70.3903541,45.1755053 70.9248637,44.8613412 C71.6697531,44.4238782 71.6606227,43.7867703 71.9995893,43.0859133 C72.1757301,42.7209791 72.4949141,42.5499639 72.7338266,42.2430527 C72.9746412,41.9334694 72.9133914,41.5097487 72.9533369,41.1455779 C73.0488258,40.2744692 73.5064877,39.6434689 73.7138241,38.8368727 C73.6529547,38.946811 73.5799114,39.0475878 73.4946943,39.1392031 C73.9344758,37.9081227 75.6768627,37.6729768 76.7827839,37.5458606 C77.5805537,37.4542453 78.2181608,37.2397129 78.9702785,36.9618132 C79.9525586,36.5987876 80.7898935,37.0125833 81.767228,37.1053438 C81.600598,37.0366323 81.4267398,37.0003679 81.2467946,36.9954054 C81.6903804,36.8812681 82.1236945,37.1557322 82.5341827,37.270633 C81.8395105,37.1274841 83.0382575,36.678951 83.5153215,36.896919 C84.2274937,37.222535 84.006842,38.1405965 83.7801035,38.7200632 C83.4795607,39.4888681 82.8446167,39.9110619 82.293368,40.482894 C82.0046188,40.7829341 81.6614674,41.1593202 81.5207069,41.5582284 C81.4415767,41.7819224 81.5910872,42.6896772 81.3563595,42.1903739 C81.4674462,42.6366167 80.6978285,43.0320893 80.6441874,43.4821494 C82.0076622,43.3130429 80.2557644,44.1738448 80.5620136,44.6090175 C80.6460895,44.4028831 80.824513,44.2498092 81.0550559,44.2517178 C80.678046,44.7872855 80.568481,45.4480608 80.2797317,46.026764 C80.0438628,46.4997279 79.5142989,47.4307683 79.493375,47.9617552 C78.8534853,47.2486829 79.3392993,46.7066258 79.1920714,45.9278958 C78.7675072,46.2245003 78.7929963,46.2355705 78.5742468,46.638296 C78.3977255,46.9631486 78.1215306,46.9513149 77.8354443,47.11126 C77.2278915,47.4506182 76.7938165,48.4156326 76.480339,49.0061695 C76.2920243,48.7996533 75.8913894,48.5288996 75.7327485,49.0259049 C75.6106292,49.4087805 75.3976243,49.1985539 74.8612126,49.1985539 C73.683009,49.1985539 72.5051858,49.1985539 71.3269823,49.1985539 C71.0595373,49.1985539 70.3066587,49.0860122 70.2511154,49.4963723 C70.2058437,49.8303864 70.2222024,50.1131799 70.1913873,50.449866 C70.1092135,51.3465507 69.4575304,51.0675058 68.7560104,51.0675058 C69.2531157,51.5732985 69.6174572,52.2042988 70.2145937,52.5241888 C70.7757869,52.8248244 70.7143278,53.4716321 71.2687416,53.7413208 C71.3834082,53.7970992 71.1306822,55.0398262 71.0976491,54.9563304 C70.1686145,55.3127062 68.6880915,54.89236 67.381366,54.929342 C65.6233736,58.2152541 65.8699975,57.7324682 65.9695266,58.126078 C66.1030588,58.3432826 65.5078663,59.7576012 65.3050951,60 C65.0399327,59.6671311 64.7409117,59.3632738 64.4749884,59.0307866 C64.3209127,58.8380128 63.6159688,57.4847787 64.0998807,58.2131202 C63.9986853,57.812685 63.5094473,57.6546487 63.2439045,57.3897278 C62.8543403,57.0007446 62.5815692,56.521673 62.1642333,56.1399426 C61.3272789,55.3741915 60.8779865,54.659974 59.7450545,54.2832061 C59.6712504,54.7168518 60.7417912,54.9126795 60.9502689,55.2176821 C60.2894553,54.8725978 59.6061962,54.534003 58.8411437,54.558052 C59.0416324,54.4809425 59.2029363,54.3194705 59.2794035,54.1182986 C59.0549475,54.0854698 58.8723393,54.158762 58.7315788,54.3381753 C58.7856004,53.6674751 58.1620693,53.878572 58.0741891,54.3652782 C58.2769603,54.3446647 58.468699,54.3813108 58.6494051,54.4755982 C57.6298424,54.5443097 57.1364197,55.161186 56.2108242,55.4402309 C55.375011,55.6921729 54.6807193,56.0727581 53.8308301,56.239956 C53.1894186,56.3663087 52.9155063,56.2869088 52.2851274,55.9456419 C51.5847487,55.5662019 51.1438259,55.5146683 50.3658387,55.3913694 C49.9595354,55.3272387 49.7126338,55.1161418 49.4139932,54.8512209 C49.0335594,54.5137713 48.6614951,54.442006 48.201931,54.2732811 C47.8294863,54.1366217 47.7473126,53.8197855 47.4676937,53.5808223 C47.126825,53.289562 46.5276417,53.2319207 46.1084036,53.1246545 C45.6944916,53.0185335 45.2193298,52.9769248 44.8324286,52.7875866 C44.4272665,52.5887051 44.1259629,52.2539275 43.7036814,52.0664979 C42.728249,51.6336157 41.7459688,51.3889265 40.8846666,50.7239523 C40.1740162,50.175024 39.7878759,49.4058373 39.1571166,48.8259889 C38.910215,48.5988594 38.5902702,48.6897112 38.2996187,48.746589 C37.8617394,48.8328601 37.1210347,48.5206046 36.7094053,48.3740202 C36.0253852,48.1304762 35.0853332,47.799516 34.6432691,47.1876022 C34.4241392,46.8845083 34.273107,46.5466769 34.0882161,46.2241148 C33.7735973,45.6751865 33.3212615,45.6549548 32.847241,45.3236129 C32.7460456,44.8140028 31.4738748,44.553281 31.0280063,44.1509372 C30.7940395,43.9398403 30.8636589,43.6031541 30.6346378,43.3752611 C30.377084,43.11912 30.1381716,42.5266745 29.9898024,42.1896066 C29.8155637,41.7945157 29.4788798,40.7088746 29.9707807,40.4042537 C30.3127907,40.1923934 30.7099637,40.3069125 31.0025173,39.9809148 C31.2760492,39.6759122 30.662029,39.4216798 30.4364317,39.4697778 C30.5631162,39.0586542 32.0201778,37.6802259 31.6119723,37.1721428 C31.2364841,36.7010875 31.0964844,36.4270051 30.8990393,35.8498288 C30.6863768,35.2291352 30.9484957,34.7519723 30.8815393,34.1316605 C30.7373549,32.800185 29.4712711,31.6878227 28.8789356,30.5246903 C28.195296,29.1821446 27.4583957,28.1904091 26.2729638,27.2391371 C26.5959521,27.3796139 26.8595928,27.780049 27.0125272,27.2666217 C26.495898,27.3254081 25.6094872,26.8352664 25.8160628,26.2653429 C25.9648124,25.8549828 26.0039971,24.6716187 25.2594881,24.9850193 C25.2594881,24.4986948 25.1872056,24.8666829 24.8463369,24.6861244 C24.6138919,24.5624438 24.417588,24.3547825 24.1642191,24.2708018 C24.4986204,24.3379864 24.5271529,24.3147008 24.2490558,24.2009452 C24.0999257,24.02993 24.1375887,23.7829504 23.9724804,23.61079 C23.8043286,23.762337 23.61259,23.872657 23.3972644,23.940605 C23.3181342,23.5928487 23.7343288,23.5630737 23.7807418,23.2531087 C23.3656884,23.6363659 23.1534064,23.4042739 22.6303098,23.2805933 C22.7322661,23.2187529 22.8327006,23.1546222 22.9316134,23.0882012 C22.6888966,22.8847389 22.5702013,22.939708 22.5755274,23.2531087 C22.5618317,22.8553456 22.6204185,22.4617816 22.8072116,22.1067724 C22.876831,21.9746937 23.3866123,21.0715197 23.3150907,21.5769307 C23.4216122,21.3650703 23.6677529,20.9653986 23.8355242,21.3020848 C23.8910676,21.0146418 23.8499807,20.7699527 23.5068294,20.9997544 C23.6506334,20.6455086 23.5988944,20.1908677 23.2439496,19.9751901 C22.962809,19.8045566 22.6645489,20.1099409 22.3605822,19.8354768 C22.0311265,19.5377271 22.4229734,18.6246281 22.0174309,18.5150714 C21.7359099,18.4391071 20.8274339,18.3402389 20.8042274,17.9386586 C20.7791188,17.5126475 20.7464015,16.0727606 21.2881393,16.0800135 C21.0283029,16.0494751 20.4066741,15.9551877 20.4937934,15.7223321 C20.3758589,15.8269263 20.2936852,15.9551877 20.2476527,16.1071163 C20.2324354,15.7009552 19.6754802,15.6776697 19.466622,15.4119854 C19.2881986,15.1837106 19.2311335,14.7954908 19.1253729,14.5294248 C19.0161884,14.2561058 18.7042326,14.2427453 18.5490156,14.0182878 C18.3097227,13.6716766 18.3808639,13.0399129 18.1198863,12.7486526 C17.6675504,12.2440051 18.0148865,11.7649335 17.8642347,11.1873755 C17.3814642,11.5618529 17.5404855,10.5159118 17.4807574,10.2803841 C17.2829318,9.49936381 17.2810296,9.05121237 17.3339099,8.26828341 C17.3772794,7.62850332 16.9268457,7.04789145 17.077878,6.40887482 C17.1482582,6.11265206 17.6542352,5.36713267 17.5579855,5.14076657 C17.4001054,4.76934293 16.7914113,4.77392369 16.471086,4.66054978 C15.9514134,4.47693747 16.626303,3.77951611 15.8064681,3.72111136 C15.5272297,3.70126138 15.4142408,4.02687738 15.1007633,4.0032101 C14.8009815,3.97992455 14.5556016,3.74096134 14.3718521,3.52757407 C13.9849509,3.07675052 13.4728869,2.93932759 13.0711488,2.47514347 C13.1042466,2.82328156 13.498376,3.14584371 13.3553329,3.50543371 C13.1780507,3.94976785 12.8592472,4.43838271 12.6412586,4.87775435 C12.4202265,5.32170676 12.7515844,5.75878802 12.6606607,6.21304715 C12.560987,6.71196873 12.5225632,7.23188548 12.3331072,7.7086667 C11.8701192,8.87027218 12.3825636,9.32643996 13.1088118,10.1822794 C13.768484,10.9598642 13.9446249,11.5087924 13.8936468,12.5070173 C14.3619608,12.1500994 14.5826124,12.9963956 14.6484275,13.3006347 C14.683047,13.4605798 14.6651666,13.7831419 14.7960358,13.9045322 C14.901416,14.0026369 15.3263606,14.0992146 15.2274478,14.316801 C15.0003288,14.8183946 14.8629922,16.1918605 15.3077193,16.6117639 C15.9080439,17.1790152 15.8350006,18.1940362 16.5505967,18.6082137 C16.1389673,18.9162701 16.4920099,19.9060969 16.5232054,20.3397426 C16.8013026,20.0977255 16.6358139,19.5121511 16.5779879,19.2128745 C17.9707562,19.4495474 16.905161,23.936406 17.8379848,23.7207284 C17.7664632,24.1757509 17.7291807,24.7029206 17.865376,25.1499268 C18.00918,25.6221273 18.3820052,25.8771232 18.0346691,26.3752813 C17.5834745,27.022696 17.8935281,28.2427062 18.8240693,28.1457467 C18.2051034,28.2087322 18.7514064,28.2289639 18.8366236,28.1060467 C18.9401016,27.9564084 18.9515146,27.7655432 19.0705904,27.6231578 C19.2147748,27.9804574 19.7899908,28.4820511 20.0814031,28.7210143 C20.2415658,28.8527113 20.2023811,29.6749585 20.303196,29.9043785 C20.5322172,30.4250587 21.2778675,30.7919015 20.6025975,31.4221384 C20.3347721,31.67179 19.3589593,32.4562459 18.9956449,32.2936288 C18.5185809,32.079478 18.765102,31.0136869 18.5691786,30.607144 C18.4257551,30.3090126 18.1659188,30.0883725 17.9201585,29.8772756 C17.523366,29.5367721 17.3118448,29.0405226 16.9690739,28.6534481 C16.4691838,28.0892506 15.6843488,27.8434162 15.2681542,27.1879852 C14.9192964,26.6382935 14.0713094,26.3180217 14.2771241,25.534711 C14.2269068,25.7225224 14.1629939,25.9057529 14.0853854,26.084021 C14.1664178,24.4979314 15.4694037,23.4867276 14.688373,21.8437602 C14.3870694,21.2097061 13.7034298,21.1287792 13.3013113,20.5405327 C13.1179422,20.2721763 12.8368016,19.8537998 12.8253885,19.5155867 C12.8173994,19.2724245 13.1027248,19.2155467 13.0171272,18.9380287 C12.8474537,19.1483621 12.8261494,19.5621578 12.5514762,19.6801125 C12.2718573,19.8003576 12.040934,19.5507059 11.753326,19.7602759 C11.5205005,19.9301459 11.3774574,19.5652117 11.313164,19.4113743 C11.1590883,19.0422411 10.8669152,18.9773469 10.5793072,18.7452549 C10.5237638,18.6322627 10.4545249,18.5291955 10.3712099,18.4349081 C10.2110472,18.3971168 10.0520259,18.3539812 9.89452627,18.3055015 C9.60463569,18.0913507 9.7419723,17.9741595 9.68718983,17.6893887 C9.55708146,17.0118173 8.51659491,16.8957713 8.47018198,16.1342192 C9.12452818,16.1998768 9.95121091,16.5533591 10.5241443,16.0517654 C10.5013182,16.7656012 11.7628368,16.5774081 11.4006638,17.3160564 C11.7335434,17.0549528 11.9024561,16.1555961 11.53762,15.8597551 C11.5410439,16.0288616 11.393816,16.7144493 11.0628386,16.5514505 C10.8680565,16.4552544 11.1370232,15.8948743 11.1541427,15.7498167 C11.051806,15.8112753 10.9517519,15.875406 10.8528391,15.9422088 C11.1758274,15.2379163 12.1893032,14.5637805 11.7841411,13.6884728 C11.3633813,12.7784276 10.8817521,11.5965904 10.0569715,10.9846766 C9.37865799,10.481556 8.832355,10.0788305 8.67029018,9.20085067 C8.60942077,8.87141737 8.83615933,8.63474455 8.90653959,8.32172566 C8.99898502,7.91098379 8.6086599,7.7338609 8.79849638,7.50482269 C8.71251834,7.58460433 8.62121422,7.65789656 8.52458402,7.72469937 C8.34692142,6.98643286 9.10246302,6.66119859 8.48806237,5.97713779 C8.20654133,5.66373716 8.55197526,5.42248357 8.55197526,5.08617913 C8.55197526,4.63421038 8.19094355,4.33722416 8.12398719,3.9215198 C8.07415036,3.61117302 8.24534559,3.35770406 8.45268203,3.16302158 C8.63414897,2.99238811 8.38914958,2.72135955 8.31344324,2.55339819 C8.22632389,2.44307812 8.15061756,2.32512344 8.08632424,2.20029761 C8.12626979,2.01744877 8.16279144,1.83459993 8.19588919,1.65060589 C8.12626979,1.25398805 8.06956613,1.38772346 8.28755472,0.960948921" id="path2630"></path>
                            <path d="M68,46.9721651 C68.3915895,47.172712 68.6554784,46.2312062 69,46.0137991 C68.6361883,45.8922286 68.2935957,46.6039041 68,46.9721651" id="path2634"></path>
                            <path d="M83.0539679,42 C83.4366012,41.7365498 83.8025118,41.3936133 84,41 C83.6392655,41.286706 82.7768474,41.3103089 83.0539679,42" id="path2772"></path>
                            <path d="M79,51 C79.2845,50.8595918 79.473,50.5020408 79.36,50 C79.2365,50.3306122 79.1165,50.6636735 79,51" id="path2808"></path>
                            <path d="M75,56 C75.2129289,54.5077208 75.5769446,53.0986572 75.709516,51.590375 C75.7632111,50.9818611 75.8765263,47.9160875 76.8930301,49.1155119 C77.1744665,48.544205 77.8969434,46.8362855 78.6794106,47.0127185 C78.5161034,47.175549 78.4357459,47.3771867 78.439449,47.6176317 C79.6188897,46.9719109 78.5886844,49.4591762 78.4746286,49.880055 C78.3361323,50.3909506 78.2520717,51.0302702 78.1698626,51.5683708 C78.1106128,51.9556433 78.2483685,52.2436972 78.1257956,52.6393712 C78.0047039,53.0306444 77.8180671,53.3931123 77.692902,53.7815849 C77.8984246,52.9846358 77.5084871,54.001226 77.4240561,54.1152474 C77.1870571,54.4353072 76.8808098,54.5541295 76.5960406,54.8049764 C76.3545978,55.0174162 76.1364846,55.2894671 75.9913227,55.588323 C75.9224448,55.7155468 75.8854137,55.8527725 75.8798591,55.9995999 C75.5887946,55.9219854 75.2921754,55.9675939 75,56" id="path2810"></path>
                            <path d="M125.462218,47.6832296 C125.591302,47.4505275 125.733615,47.0051597 125.564042,46.7615607 C125.41772,46.551707 125.191622,46.1256724 125,45.9622185 C125.388054,45.9804972 126.282824,45.4335419 125.84506,45.0549616 C125.422931,44.6897388 126.670478,44.4707458 126.16296,43.9779236 C125.996995,43.8169303 126.213071,43.4495984 126.265185,43.2847385 C126.364604,42.9711883 126.039488,42.6397108 126.211868,42.3433848 C126.611548,41.656527 127.413313,42.3117486 127.897178,42.1419674 C128.295655,42.0024165 128.695335,41.9229744 129.093812,42.1096282 C129.490285,42.2952274 129.887961,42.3219425 130.266394,42.4878569 C130.61436,42.6400624 130.798766,42.7908617 131.206864,42.7989466 C131.622179,42.8073829 131.684716,42.7367286 131.732421,43.1494057 C131.81821,43.8886391 132.187824,43.977572 132.950303,43.8053303 C133.225709,43.7431124 133.586102,43.65664 133.833046,43.836615 C133.716389,44.1744197 133.374436,44.1765288 133.041303,44.1276684 C132.711777,44.079511 131.984977,44.2858496 132.61316,44.4419217 C132.876941,44.5076547 133.941685,44.8658472 134.179809,44.7691809 C134.868525,44.4890245 135.289452,45.2560274 135.719599,45.5998078 C136.572276,46.2813929 135.223707,46.6128704 135.059746,46.8912692 C134.778327,47.3693279 134.66608,46.9039237 134.422744,46.6902034 C134.190232,46.4859739 133.93046,46.6184946 133.643428,46.566119 C133.442185,46.5049557 133.23533,46.4641801 133.023664,46.4434408 C132.774315,46.4434408 132.542204,46.6343127 132.300472,46.5021435 C131.274213,45.9407761 131.00482,46.9903961 130.220693,47.1158865 C130.031878,47.1461167 129.409307,47.2547344 129.243342,47.1369773 C129.012433,46.9731719 129.267395,46.6097067 128.926644,46.4691013 C128.780723,46.7555849 128.403493,46.7221911 128.18421,46.9348569 C128.000606,47.1130744 127.730411,46.8318634 127.639411,47.0673776 C127.340753,47.8421138 126.961919,48.3598935 126.356587,49 C126.237124,48.7644858 125.899981,48.6548135 125.837444,48.3922328 C125.776109,48.1359793 125.750853,47.8350836 125.462218,47.6832296" id="path3372"></path>
                            <path d="M136,49.2841332 C135.640972,49.2531332 135.307639,49.1696332 135,49.0321332 C135.335417,48.9736332 135.890278,48.9631332 136,49.2841332" id="path3374"></path>
                            <path d="M90.1088944,36.3006016 C90.6366135,36.1112027 91.1951733,35.6205047 91.781147,35.9195356 C91.9734256,35.4900803 91.4361878,35.1271604 91.817699,34.706022 C92.1272485,34.3642724 92.6207001,33.8501357 93.001069,33.59836 C93.4514959,33.3004632 94.0344237,33.1885629 94.541963,33.0233587 C94.9786829,32.881215 95.373901,32.5957936 95.8456499,32.6060007 C96.8264611,32.6275491 97.6446922,32.1311804 98.6148424,32.0597306 C99.0648885,32.0264629 99.6074568,31.9943294 100.033516,32.1735211 C100.131368,32.2143496 100.249782,32.2865556 100.252066,32.4079069 C100.606544,32.2415686 101.002143,32.1859965 101.348625,32 C100.779785,32.1485704 101.400788,32.4657473 101.709195,32.354603 C101.993615,32.2521538 102.850683,32.2427027 102.950439,32.4037485 C103.106927,32.6559022 103.526513,33.0309195 103.859669,32.9314946 C104.248795,32.8154358 104.767377,33.262659 105.104721,32.9798839 C105.025525,33.0751504 104.952421,33.1749534 104.885409,33.2792929 C105.513646,33.4426069 105.391425,33.7355891 105.825861,34.1605079 C106.395081,34.7173632 106.65361,34.579378 107.403687,34.6474255 C108.119877,34.7124487 108.397825,35.0322719 108.970472,35.3755337 C109.1875,35.50558 109.496288,35.4745806 109.643638,35.7180394 C109.779565,35.9429742 109.957375,36.3467227 110.258929,36.0284116 C110.146227,36.3618443 110.419225,36.5920717 110.729155,36.6200468 C111.091248,36.6529364 111.204331,36.9701133 111.519972,37.0895745 C111.388614,36.8291038 111.297995,36.4915126 110.971693,36.4090995 C111.266774,36.4737447 112.222836,36.8427133 112.068252,37.2804855 C111.871785,37.2540226 111.679887,37.2086576 111.492558,37.1443905 C111.626963,37.3163994 111.679126,37.5076885 111.794112,37.6883924 C112.213698,36.9742718 112.34163,37.7904637 112.835843,37.7976464 C112.76807,37.8925349 112.694966,37.9832649 112.616531,38.0698364 C112.797387,37.9643628 112.989285,37.9371438 113.192225,37.9881794 C113.154531,38.0876044 113.117979,38.1870293 113.082569,38.2872104 C113.290458,38.3276608 113.473218,38.4187688 113.630848,38.5597784 C113.591631,37.8203289 114.645546,38.6777274 114.859908,38.828566 C115.140521,39.0259037 115.397146,38.7892496 115.697177,38.7616526 C116.184537,38.7166656 116.358158,39.3873115 115.823967,39.4580053 C115.924485,39.5124433 116.025002,39.5665032 116.12552,39.6213193 C115.896309,39.6923911 115.69375,39.8398273 115.549827,40.0296042 C116.332267,40.1951865 117.657657,39.9143015 118.280183,40.4473402 C118.80676,40.8987219 118.948779,41.3720301 119.682103,41.4737233 C120.549832,41.5935625 119.404537,42.1946486 119.048155,42.2358552 C118.940022,42.2483306 117.078537,42.7412968 117.040462,42.6804321 C117.053407,42.5840315 117.104428,42.5076671 117.194665,42.452095 C116.850087,42.452095 116.869124,42.887977 116.281628,42.8312707 C115.654152,42.770406 115.067417,42.5481176 114.430803,42.5205205 C112.835843,42.451717 111.228318,43.0482666 109.628408,42.996853 C109.651633,42.1568445 110.70098,41.9557263 111.252305,41.5478194 C111.577085,41.3073849 111.775836,41.08056 111.458291,40.8212234 C111.220703,40.62691 111.55462,40.0072998 110.980831,40.1471752 C109.905974,40.4099141 108.822361,40.2133325 108.207831,39.228156 C107.987377,38.874687 108.026594,38.4062935 107.964151,38.0104839 C107.935214,37.8294019 107.890285,37.6335764 107.768826,37.4884084 C107.624522,37.3156434 107.306977,37.3859591 107.627187,37.2260475 C107.136401,36.9931739 106.649422,37.3564719 106.174247,37.402971 C105.680414,37.4513603 105.260447,36.9939299 104.807355,36.912651 C104.364163,36.8328842 104.091927,36.9047121 103.851674,36.6162663 C103.469401,36.1577018 102.962242,36.1834087 102.884569,35.4568127 C102.800043,36.0647036 100.942746,35.8839997 100.910763,35.0757467 C100.802249,35.251158 100.747421,35.441691 100.745898,35.6473456 C100.580272,35.641675 100.451198,35.5728714 100.358676,35.4401788 C100.123373,35.2046589 99.7502379,35.2938767 99.4578222,35.2938767 C98.9761738,35.2938767 98.5596337,35.0107235 98.2241932,34.6943027 C98.4792955,34.415686 98.9704626,34.560476 99.298288,34.506038 C99.7860284,34.424759 99.7540454,33.934061 99.3295095,33.7926734 C98.4930025,33.5136787 96.9174603,33.4868377 96.1631951,33.979426 C95.6960153,34.2848836 95.164108,34.6232309 94.7886888,35.0375645 C94.4376376,35.4243011 94.1886273,35.1347212 93.7736101,35.3059741 C93.5360223,35.4038868 93.2820623,35.2549384 93.054374,35.3902773 C92.8137402,35.5335551 92.8956013,35.7660507 92.7139838,35.9467546 C92.3328533,36.3263084 91.7141351,36.2907725 91.3158709,36.6544486 C91.4327611,35.5513231 90.1302164,36.9394919 90,36.2189446 C90.0357905,36.2461636 90.0723424,36.2730045 90.1088944,36.3006016" id="path3580"></path>
                            <path d="M95.7791471,38 C95.4454124,37.9168421 95.0761833,37.7751485 95,37.3644693 C95.6692008,38.1337959 95.3878421,36.768427 95.3934693,36.5510086 C95.4051565,36.0813291 96.0730587,35.892714 96.4024648,36.0599589 C96.747021,36.2355661 97.0080352,36.909656 96.9998109,37.2947839 C96.9889894,37.8178889 96.118509,37.8950074 95.7791471,38" id="path3582"></path>
                            <path d="M103.396,32.2525 C103.264,32.2285 103.132,32.204 103,32.18 C103.1225,32.0985 103.2545,32.0385 103.396,32 C103.396,32.0845 103.396,32.1685 103.396,32.2525" id="path3586"></path>
                            <path d="M108.396,41.3609314 C108.258,41.2474314 108.1255,41.1274314 108,41.0004314 C108.327,40.9919314 108.3105,41.1089314 108.396,41.3609314" id="path3588"></path>
                            <path d="M108.555556,35 C108.364198,34.8354966 108.179012,34.6400921 108,34.4110598 C108.314815,34.0756911 108.883873,33.5476444 109,34.7382488 C108.850309,34.813684 108.70216,34.9009344 108.555556,35" id="path3590"></path>
                            <path d="M110,35 C109.641667,34.7439993 109.105,34.7292171 109,34.1291946 C109.631667,33.6870727 109.777778,34.4799357 110,35" id="path3592"></path>
                            <path d="M110.945197,36 C110.167346,35.9271255 109.712042,35.4164257 110.204743,35 C110.426318,35.2463852 111.212583,35.6622325 110.945197,36" id="path3594"></path>
                            <path d="M110.705437,37 C110.470291,36.746916 110.235146,36.4938319 110,36.2414069 C110.502134,35.6258327 111.495135,36.3007235 110.705437,37" id="path3596"></path>
                            <path d="M119,77.9685644 C119.747363,77.0858281 120.121424,76.1385199 120.357015,75.0256037 C120.583121,73.9586474 120.831196,73.1304022 121.386597,72.1975277 C121.839188,71.4378579 122.865181,70.9971811 123.299183,70.2002875 C123.793885,69.2924821 124.637749,69.526977 125.446191,69.0274941 C125.116896,69.8319844 124.254063,69.517652 123.77833,70.0912027 C123.373161,70.5796704 123.805493,71.6348175 124.326007,71.8425872 C123.855206,71.8190375 124.309315,72.8647229 124.35484,73.0622371 C124.494449,73.6695931 123.911353,74.2845458 123.507322,74.6674194 C122.981133,75.1657627 122.724677,75.7715994 123.050558,76.4256751 C123.176889,76.6786451 123.218999,76.9984661 123.461418,77.178128 C123.730014,77.3771615 123.773262,77.2894196 123.727358,77.6510225 C123.630618,78.4110721 124.212954,78.5823776 124.822985,78.2352085 C125.452743,77.8766444 125.701991,77.3463949 125.783176,76.6463592 C125.887504,75.7484295 125.48461,75.2459079 125.034295,74.5132064 C124.855232,74.2222529 124.697792,73.8948352 124.591568,73.5693167 C124.495966,73.2760841 124.745214,72.8757381 124.517211,72.6360623 C124.859405,72.6763248 125.156074,72.15823 125.4186,72.0070557 C125.898885,71.7301561 126.348441,71.3666541 126.908015,71.2682769 C127.392094,71.182814 127.779054,71.1167227 128.203951,70.8603342 C128.364046,70.7638561 128.840537,70.3783237 129.05033,70.4759413 C129.022257,70.3232476 128.950176,70.1956231 128.834088,70.0926879 C129.042743,70.1777709 129.67933,70.7110591 129.896331,70.4592285 C130.043527,70.2883028 129.891019,69.8682054 129.701333,69.7891998 C129.37697,69.6543584 128.942209,69.961265 128.614052,69.9832954 C128.678166,69.6064992 128.36177,67.6089475 129.477124,68.0681679 C129.984724,68.277077 129.880397,69.3801176 129.958927,69.8119899 C130.133059,70.7703133 131.161916,70.1340899 131.843269,70.3718665 C132.605807,70.6381308 133.556135,70.8440013 133.889603,71.7305359 C134.093705,72.27332 133.563343,73.4910707 134.466249,73.6828873 C135.540252,73.9111681 136.900302,73.4132045 137.964441,73.2715261 C138.876831,73.1499789 139.825641,72.9551236 140.384456,73.7713888 C140.615874,74.1094419 140.939858,74.3855819 141.326817,74.5219426 C141.642076,74.6332342 141.969094,74.7069222 142.291561,74.792385 C142.257417,74.783269 143.35001,75.015728 142.843927,75.015728 C143.702826,75.4817854 144.11141,74.4737036 144.790486,74.410651 C145.203243,74.3722876 145.297707,73.9419347 145.64028,73.7816444 C146.112599,73.5613401 146.651307,73.9821972 147.134248,73.7033984 C146.718456,73.2639294 145.741193,73.7345448 145.46501,73.1837842 C145.703635,73.1837842 145.94264,73.1837842 146.181644,73.1837842 C146.517768,73.1837842 146.616405,72.9763944 146.8611,72.9649993 C146.98174,73.0067812 147.098587,73.0569194 147.212019,73.1157938 C147.546626,73.1765674 147.894131,73.1351654 148.225702,73.0789498 C149.642278,72.8396538 151.093377,73.1070576 152.487191,72.8278789 C152.269431,73.2700068 151.571766,73.1868229 151.170769,73.3980111 C150.54177,73.729607 149.800856,73.2031558 149.209414,73.7030185 C149.399859,73.5127213 149.597512,73.5381702 149.672249,73.8120312 C149.438555,73.7926596 149.270493,73.9396557 149.23597,74.1679365 C149.753814,73.8621694 150.151016,74.1728743 150.139635,74.78099 C150.13053,75.2626206 149.323985,74.9401408 149.07284,74.9336836 C149.253801,75.6094099 150.364603,75.1338566 150.248894,74.5234619 C150.548219,74.5660034 150.675688,74.909754 150.699968,75.1684216 C150.732215,75.512552 151.050887,75.8999836 151.011433,76.2190449 C151.224261,75.9919036 151.331244,75.6770205 151.231469,75.3716332 C151.506134,75.6405564 151.547486,76.1601705 151.311137,76.4655578 C151.601357,76.2581679 151.481475,75.8513647 151.447711,75.56307 C151.596425,75.5980148 151.741724,75.643595 151.883989,75.6998106 C151.855915,75.669044 150.954147,75.1874133 151.484889,75.2542643 C151.988696,75.3176967 152.64501,75.8471865 152.377173,76.4108615 C152.497055,76.1928363 152.66929,76.2122079 152.540303,76.0006398 C152.743267,75.8992239 152.95306,75.8813717 153.170061,75.9455638 C152.707606,75.432027 153.456108,75.8950457 153.624928,76.1685269 C153.934875,76.6706686 154.481551,76.4647981 154.882927,76.7766425 C155.954653,77.6088608 154.697034,77.6126591 154.425783,78.3799256 C154.51228,78.2842072 154.603329,78.1930469 154.698931,78.1064445 C154.774426,78.4995736 154.348391,79.1813773 154.162878,79.5084151 C154.048308,79.7104873 154.081313,79.883692 153.820684,79.883692 C153.590026,79.883692 152.884014,79.6770618 152.733783,79.883692 C153.068769,80.0736094 153.609753,80.129825 153.799819,80.5126986 C154.016441,80.2301014 154.321835,80.0295486 154.372671,80.4853505 C154.686412,80.1397007 154.921623,79.9763717 155.381801,79.883692 C155.81163,79.7970896 155.978554,80.2551705 156.378792,79.8688784 C157.070387,79.2011287 158.315487,80.8587282 157.926251,81.0554826 C157.538912,81.2514775 157.316221,81.5344545 157.000962,81.8349039 C156.70619,82.1163615 156.195555,82.2515827 155.962241,82.4988553 C155.794938,82.6762382 155.658743,82.920472 155.508132,83.1149475 C155.203117,83.5092161 155.647741,83.7580079 155.614736,84.1860819 C155.59387,84.4523461 155.693266,84.7482375 156.001696,84.579211 C156.370445,84.3775187 156.628419,84.8633275 156.34958,85.1322506 C156.042668,85.428142 155.586283,85.5325966 155.289235,85.8296275 C155.14697,85.9720656 154.899619,85.7654354 154.753181,85.7510016 C154.622677,85.7380873 154.54832,85.9933363 154.421989,86.0427148 C153.272491,86.4924394 154.441337,87.2057693 153.832824,87.8807359 C153.67804,88.0524213 153.060802,88.4409924 153.2797,88.7406821 C153.651864,89.2500407 154.033892,89.7654767 154.434129,90.252425 C154.908724,90.8301539 155.876503,91.7447963 154.969424,92.4072284 C154.662891,92.6309511 154.446042,93.045879 154.137991,93.2680824 C153.967274,93.3915287 153.378336,93.2489387 153.340399,93.3116153 C153.174234,93.5847166 152.677636,93.5231833 152.668531,93.8065401 C152.657908,94.1430739 152.063811,94.1468722 151.830118,94.2589235 C151.383597,94.4731504 150.834645,94.7542282 150.340703,94.5069557 C150.005717,94.3394485 149.696528,94.7591661 149.347885,94.8275363 C148.923368,94.9114799 148.91616,95.357406 149.015555,95.7060945 C149.158958,96.2097555 148.738993,96.597567 148.316751,96.2143135 C148.031084,95.9545065 147.889958,95.6088567 147.628191,95.3342361 C147.280686,94.9692148 147.057615,95.4603413 146.717318,95.3365151 C146.249931,95.1659692 146.07542,95.3042291 145.604619,95.2537111 C145.238145,95.2142083 145.32009,95.3566464 145.177446,94.9054025 C145.042769,94.4792277 144.494196,94.4423838 144.128861,94.5153121 C143.645161,94.6117901 143.659198,94.1878944 143.282861,94.023046 C142.968361,94.3394485 143.549559,95.0523986 143.741142,95.2863769 C144.29237,95.9594443 144.747238,96.0802318 144.763171,97.0396948 C144.768483,97.3511594 144.778726,97.6599652 144.859532,97.9630734 C144.961962,98.345947 145.364097,98.7398358 145.310226,99.1428406 C145.218797,99.8276829 145.216521,100.128892 146.048105,100.149783 C146.289007,100.15586 147.182292,99.969707 147.10542,100.406475 C146.963155,101.214764 146.547981,101.150306 146.15403,101.427012 C145.857281,101.635443 145.333895,101.682337 145.214393,101.961516 C145.078957,102.278298 145.109918,102.508178 144.892158,102.815084 C144.697919,103.088566 144.440326,103.304692 144.265435,103.594506 C144.274843,102.856912 143.134765,103.9895 142.921698,104.031316 C142.409132,104.131907 142.079112,104.426344 141.7722,104.853658 C141.566581,105.140054 141.13789,105.887569 140.794179,106 C140.568073,105.726139 140.859431,105.382009 140.786591,105.084598 C140.663674,104.581696 139.925795,105.069784 139.731557,105.209943 C138.619237,106.011395 137.7715,105.138314 137.04576,104.183789 C136.706602,103.737863 136.740586,103.21733 136.584284,102.695057 C136.405221,102.095297 135.967046,101.26156 135.994361,100.633693 C136.015605,100.139527 134.699256,98.5241921 134.1044,98.9720175 C134.085431,98.4174585 134.978781,97.8270925 135.363844,97.5236044 C136.035712,96.9937348 135.587673,96.4300598 135.113837,95.8872757 C134.067149,94.6896563 134.370063,92.6476259 134.373477,91.209571 C134.374615,90.6952745 134.539851,90.4492972 134.852313,90.1003163 C135.051947,89.8773532 134.955772,89.4186646 135.114976,89.127354 C135.288341,88.8101311 135.566633,88.5839319 135.654064,88.3050115 C135.810376,87.8063301 135.127256,87.3074891 134.846486,87.4365038 C134.172034,87.7464149 133.625222,87.8164602 133.039392,87.7768359 C132.772291,87.7587557 132.199264,88.0437686 131.587675,87.8780049 C131.154849,87.7606929 131.179921,87.9304069 130.633208,88.0071867 C130.534101,88.0211267 129.741513,87.7679629 129.817008,87.8165818 C129.515027,87.6232458 129.376211,87.1939944 129.185766,86.9034207 C128.916791,86.4924394 128.662233,86.0875354 128.416399,85.6632598 C128.290448,85.4456144 128.11366,85.1807973 127.802196,85.2749963 C127.221377,85.4508599 126.850696,84.8884991 126.302123,84.8311441 C125.948928,84.7939203 125.793419,85.0802132 125.471332,85.1622576 C124.995979,85.2838047 124.549837,84.9514492 124.074484,85.0388112 C123.769848,85.0942671 123.588887,84.8975126 123.270973,85.0581828 C122.957612,85.2165739 122.539164,85.0281758 122.363135,84.7410207 C122.22732,84.5195769 122.158931,84.3580749 122.097852,84.1130814 C122.013252,83.7731292 121.539139,83.8081461 121.36918,83.5650518 C121.04292,83.0982347 121.298757,82.1076253 121.577596,81.7228526 C122.106441,80.9931897 121.201877,80.2760614 120.96439,79.7473313 C120.714004,79.1901135 120.986773,77.896016 120.17226,78.1068243 C120.187056,77.9093102 120.159741,77.7178734 120.090316,77.5321341 C119.771264,77.8113128 119.43514,77.981099 119,77.9685644" id="path3410"></path>
                            <path d="M154,80.4274449 C153.661574,80.3544449 153.315278,80.3014449 153,80.1394449 C153.303241,79.9524449 153.981481,79.8739449 154,80.4274449" id="path3412"></path>
                            <path d="M154,81 C154.214745,80.4470009 154.55616,79.7498511 155,80.0895746 C154.853043,80.9081145 154.377536,80.7622778 154,81" id="path3414"></path>
                            <path d="M154.381579,80.4675 C154.254605,80.3595 154.126974,80.2515 154,80.144 C154.342105,80.13 154.675,80.082 155,80 C154.976974,80.282 154.752632,80.4515 154.381579,80.4675" id="path3416"></path>
                            <path d="M154.5,80.2722701 C154.333333,80.2242701 154.166667,80.1762701 154,80.1282701 C154.317361,79.9862701 154.650694,79.9622701 155,80.0557701 C154.833333,80.1282701 154.666667,80.2002701 154.5,80.2722701" id="path3418"></path>
                            <path d="M155.013955,80.2387952 C154.953955,79.9792952 155.087455,79.9312952 155.413955,80.0947952 C155.280455,80.1427952 155.146955,80.1907952 155.013955,80.2387952" id="path3420"></path>
                            <path d="M154.590164,79.3781596 C154.393443,79.3781596 154.196721,79.3781596 154,79.3781596 C154.159836,79.1121596 154.522131,78.9431596 155,79.0176596 C154.863115,79.1381596 154.72623,79.2581596 154.590164,79.3781596" id="path3422"></path>
                            <path d="M155.252692,78.36 C154.882192,78.2435 154.919192,78.1235 155.363192,78 C155.326192,78.1205 155.289692,78.24 155.252692,78.36" id="path3424"></path>
                            <path d="M155,79 C154.613904,79.237665 154.333155,79.6685198 154,80 C154.137433,79.4350243 154.547059,79.0361362 155,79" id="path3426"></path>
                            <path d="M155,78.288 C155.06,78.1225 155.1795,78.0265 155.36,78 C155.24,78.096 155.1205,78.1915 155,78.288" id="path3428"></path>
                            <path d="M142.36,72.396 C142.24,72.36 142.12,72.324 142,72.288 C142.102,72.1695 142.222,72.0735 142.36,72 C142.5215,72.1575 142.5215,72.289 142.36,72.396" id="path3598"></path>
                            <path d="M147.126593,72 C147.036547,71.8027037 145.391023,71.5290464 146.245011,71.3240775 C146.698631,71.2151991 146.720417,71.5801973 146.986199,71.552795 C147.427232,71.50749 147.501302,71.1139934 147.891503,71 C148.128238,71.7051516 148.021731,71.633175 147.126593,72" id="path3600"></path>
                            <path d="M150,74 C150.194,74.3029101 150.3505,74.6362434 150.47,75 C150.2395,74.7837302 150.0035,74.3955026 150,74" id="path3602"></path>
                            <path d="M102.306046,102.766429 C102.204031,102.738956 102.102015,102.711483 102,102.684009 C102.108584,102.027703 102.821919,101.820509 103.363295,102.134544 C103.656589,101.574394 102.927025,101.046297 103.216069,100.475082 C103.58626,99.7420796 104.418226,99.7794738 105.116103,99.6623308 C105.248646,99.6401995 105.202275,99.3231121 105.382734,99.4303342 C105.515277,99.5089383 105.816299,99.5780031 105.818231,99.3471512 C105.822095,98.8865923 106.432255,98.3138508 106.062063,98.0139342 C106.725549,97.9963819 106.848045,97.153105 107.043574,96.7059011 C107.198143,96.3525642 107.499938,96.1079758 107.814871,95.898492 C107.42304,95.5825494 107.887905,95.5348527 108.009628,95.2116602 C107.736428,95.2223442 107.387489,95.4448014 107.286247,95.0468205 C107.500324,94.991874 107.657211,94.8365736 107.647937,94.6072481 C107.437337,94.5343676 107.009955,95.0907014 106.96629,94.6621947 C106.920692,94.2127013 107.180367,94.1234132 107.536648,93.9475079 C106.977496,93.95285 107.23292,93.2179398 107.309432,92.9157338 C107.458977,92.3223874 107.327594,91.5271887 107.269631,90.9227766 C107.225578,90.4652703 107.020002,90.0287505 106.987929,89.5727704 C106.97054,89.3232215 107.778934,89.2251572 107.641754,88.6424948 C107.559833,88.2937368 106.747189,87.4928145 107.286633,87.2909623 C107.771592,87.109715 107.355416,86.0935853 107.144816,85.8615888 C106.720139,85.3933984 106.667972,84.6932115 106.20929,84.2986647 C105.907495,84.0391949 106.208903,83.7121866 106.384339,83.474848 C106.596098,83.1890496 106.392454,82.8162526 106.645946,82.573572 C106.785444,82.7365037 106.88746,82.9196589 106.951992,83.1230375 C107.545535,82.7128462 108.389867,81.9115423 108.115507,81.1155805 C107.834192,80.3001584 107.309432,80.1273057 107.814485,79.3588172 C108.101596,79.7255091 108.413825,80.2261332 108.661521,80.6336535 C108.916946,81.0541472 109.544108,81.1823558 108.983024,81.6940456 C109.736546,82.5480065 109.36674,80.0990693 109.260088,79.8369285 C109.107065,79.4591709 110.870306,78.5884207 111.09559,78.2831621 C111.378837,77.8989178 111.581322,77.254059 112.054688,77.0514436 C112.322865,76.9369716 112.958142,77.0022207 113.108846,76.7049751 C113.32331,76.2825735 112.907907,76.1299442 112.995238,75.8697112 C113.150193,75.4068628 113.214726,74.8253452 113.490244,74.4140092 C113.081024,74.3727993 113.191927,74.2388671 113.469764,74.0984481 C113.723643,73.9702395 113.625492,73.6252972 113.618536,73.4100899 C113.602307,72.9048869 114.464027,72.7633232 114.464027,72.5866548 C114.464027,72.3222245 115.513548,71.3003713 115.758152,71.3068581 C116.242725,71.3190684 116.651945,71.7437595 117.134972,71.7491015 C116.726911,71.6956812 116.784874,72.1325826 116.411591,72.1337273 C116.695225,73.1719882 117.315818,71.7903114 117.458021,71.415988 C117.812369,70.4815151 118.230477,70.548672 119.227059,70.7127485 C120.586876,70.936732 121.019668,70.0636924 122.091988,69.429136 C122.681667,69.0799965 124.396992,68.6644632 123.867981,67.655965 C124.093265,67.5895713 124.730474,67.3888637 124.368784,67.848278 C124.786119,67.7853184 124.523352,67.3758903 124.980875,67.1706038 C125.531912,66.9237259 126.016099,66.9233444 126.48676,67.3117859 C128.092342,68.6369899 124.635801,69.1738635 124.117996,69.8263538 C123.841318,70.1747302 123.736598,70.6833673 123.408913,70.9859549 C123.18131,71.1962018 122.811118,71.1557551 122.608247,71.3835543 C122.226076,71.8124426 121.825357,72.4672224 121.579593,72.9815831 C121.212879,73.7481638 121.197422,74.5349679 120.989527,75.3427585 C120.784724,76.1360493 120.200841,77.0896009 119.666806,77.7115654 C120.110032,77.7241573 120.452401,77.553594 120.7797,77.271993 C120.850415,77.4582007 120.878238,77.6508952 120.863167,77.8493133 C121.705566,77.6344876 121.423092,79.1100314 121.850474,79.6465234 C122.460634,80.4127225 122.628341,80.862979 122.271287,81.8043202 C122.091988,82.2774711 121.804104,83.289785 122.452133,83.5297946 C123.187493,83.8018563 122.79798,84.6665013 123.554593,84.8427882 C123.860639,84.9141424 124.153547,84.7218295 124.452637,84.6901589 C124.940687,84.6382649 125.385459,84.9614575 125.875441,84.917195 C126.311711,84.8778929 126.677266,84.5718712 127.122423,84.5802658 C127.518119,84.5878972 127.812572,84.9652732 128.186628,85.0522719 C128.461374,85.1159946 128.717572,84.8881954 128.968359,85.1053106 C129.298363,85.3907274 129.521715,85.9127196 129.76516,86.266438 C129.990831,86.5945911 130.197953,86.9277045 130.40121,87.268831 C130.663977,87.7091666 130.772561,87.5859184 131.169416,87.6992457 C131.747116,87.8644669 132.278446,87.3854894 133.031582,87.6838683 C133.261889,87.7750643 133.76926,87.5527101 134.018116,87.5473681 C134.563357,87.5351577 135.027062,87.5778939 135.505452,87.2913324 C136.047215,86.9669951 136.942168,87.6049856 136.657761,88.1678062 C136.495078,88.4894725 136.098996,88.7363504 136.027894,89.0961739 C135.940177,89.5391805 136.121022,89.7715586 135.694799,90.0581202 C135.127146,90.440075 135.352043,91.9755258 135.296012,92.5982534 C135.229161,93.338124 135.539457,94.124928 135.680115,94.9060085 C135.785994,95.4943945 136.928256,96.2716593 136.743161,96.871874 C136.515172,97.6102183 135.105892,97.8983061 135.136806,98.7835561 C135.647655,98.4046538 136.895797,99.7912911 137.057321,100.212166 C137.02177,100.326257 137.030967,100.441492 137.006232,100.558253 C137.072311,100.772316 137.239712,100.984089 137.240099,101.213415 C137.240871,101.69 137.521414,102.193676 137.640818,102.665683 C137.687961,102.852463 137.93849,103.575403 137.990124,103.864685 C138.041761,104.153963 137.885276,103.967065 137.65241,104.038583 C137.263454,104.158042 137.143714,103.976356 137.239334,103.751232 C137.396047,103.382254 137.17283,100.966876 136.199079,101.003549 C135.8185,101.017897 134.785935,102.96102 134.496119,101.889562 C134.387921,101.490818 133.868571,101.30919 133.925761,101.888036 C133.990293,102.538619 133.153304,102.300517 132.705055,102.300517 C132.033455,102.300517 131.361468,102.300517 130.689867,102.300517 C130.245482,102.300517 129.765547,102.042192 129.328504,102.232597 C128.675452,102.516487 129.195189,103.964176 129.128338,104.498379 C129.657349,104.145424 130.898148,104.451445 131.136184,105.028003 C131.224288,105.241302 131.274136,105.959423 130.862211,105.92241 C130.607559,105.899516 130.453377,105.565258 130.179018,105.613718 C129.573495,105.720558 128.5147,105.885016 128.470262,106.582914 C128.416163,107.433059 128.340424,108.622804 129.083899,109.178757 C129.459115,109.459213 129.89693,109.701512 129.877609,110.231899 C129.859061,110.740918 130.121441,110.935902 130.322767,111.365553 C130.779903,112.340473 130.187906,113.674071 130.048407,114.671122 C129.712993,117.0716 129.767479,119.682706 129.016662,122 C128.836203,121.55852 128.481854,121.239452 128.162284,120.889549 C127.798275,120.491187 127.337556,120.888786 126.916356,120.652211 C126.525684,120.432806 127.509796,118.808418 127.645816,118.579474 C127.911288,118.133797 128.707386,117.258189 128.302802,116.830445 C128.127753,116.645764 127.948971,116.158995 127.666119,116.256941 C127.162727,116.431251 126.590707,115.637789 126.464348,115.534623 C125.981321,115.140255 125.572873,115.536912 125.062905,115.78247 C124.576895,116.016557 124.255384,115.385721 123.809002,115.311784 C123.536698,115.266682 122.76399,116.450375 121.857894,116.179203 C121.540684,116.084271 121.323395,116.086759 120.929632,116.137127 C120.386323,116.207336 120.099494,116.152199 119.672112,115.824443 C119.33863,115.568407 119.68923,114.887474 119.569428,114.49827 C119.405972,113.96712 118.553526,114.255207 118.45808,113.72215 C118.39007,113.342484 118.19837,112.909501 118.043801,112.555401 C117.881504,112.183368 117.391838,112.342797 117.159599,112.015025 C116.908039,111.65978 116.746619,111.559392 116.410046,111.447591 C115.981891,111.305646 115.730295,110.73474 115.697836,110.353167 C115.636395,109.625888 114.288591,108.46178 113.602693,108.263362 C113.470537,108.224823 113.332198,108.073648 113.215112,108.257562 C113.088366,108.456362 113.091457,108.459106 112.821349,108.337765 C112.419084,108.1569 111.800423,107.942837 111.461531,107.681078 C111.198378,107.477699 109.978867,105.95848 109.834345,107.040241 C109.759379,107.602298 107.613159,106.885879 107.167615,106.807275 C106.445007,106.679829 106.976723,106.076181 106.444234,105.851434 C105.97705,105.654161 106.183786,105.26114 105.582128,105.25389 C105.109148,105.248548 104.174467,104.730406 103.824756,104.444989 C103.236236,103.965733 102.758932,103.377313 102.306046,102.766414" id="co"></path>
                            <path d="M65,61.247144 C65.3083139,60.8651424 65.2560444,60.4618527 65.3666435,60.0037661 C65.420428,59.7806362 65.7211666,59.6261009 65.6567767,59.3797118 C65.5370873,58.9220195 65.5415226,58.8458163 65.7987034,58.3999506 C66.1850426,57.7305607 66.5123174,56.8696023 66.7790809,56.3015277 C67.0509387,55.7226119 68.0918503,56.0528678 68.6429518,56.0528678 C68.9592197,56.0528678 70.619721,56.2590462 70.7829682,55.9819078 C70.8371315,55.8904482 70.9795467,54.8240762 70.9352314,54.7842597 C70.7447131,54.6115902 70.4856385,54.6896463 70.4265514,54.3703261 C70.3583738,54.005276 70.2792122,53.8073763 69.9523389,53.6011979 C69.3258633,53.2065811 68.9361151,52.5596619 68.4369042,52.0223366 C68.8156682,52.0223366 69.4913831,52.207227 69.719399,51.7680631 C69.9546115,51.3158898 69.6675084,50.6260004 69.9913516,50.2321721 C70.3382993,49.8103539 71.8927467,50.0922231 72.3900638,50.0922231 C73.3449277,50.0922231 74.2997917,50.0922231 75.2546556,50.0922231 C75.0130042,51.165691 74.9887633,52.2750333 74.7910485,53.3559915 C74.5887886,54.4625741 74.3562275,55.5636377 74.1910864,56.6773163 C74.6974938,56.6229136 75.7743198,56.5984718 75.8546178,57.3297546 C75.9371883,57.1401336 76.0216527,56.9134556 76.2364118,56.8472263 C76.1689919,56.7482764 76.0962692,56.653663 76.0182438,56.563386 C76.3977653,56.7064888 76.6557036,57.041578 77,57.2446026 C76.0796036,57.6451327 75.5099426,58.609401 74.66189,59.130169 C74.267218,59.3726158 73.7539928,59.6619752 73.8672432,60.2288672 C73.9471624,60.6301857 74.0335206,60.9041704 73.7168739,61.2077218 C73.4172716,61.4947158 72.5680828,61.6701448 72.6502746,62.1262603 C72.6991352,62.3959085 72.5067231,62.3399289 72.3226438,62.5078677 C72.2862824,62.5409824 71.9696358,62.9805405 72.015845,62.9588583 C71.6427625,63.1342873 70.701534,63.1953918 70.8912947,64 C70.4466258,63.7985523 70.0466511,63.461492 69.5580456,63.3739746 C69.059971,63.2848803 68.5300802,63.4512422 68.0210214,63.3881666 C66.7612524,63.2320545 65.8431286,62.1246834 65,61.247144" id="gt"></path>
                            <path d="M163.788466,96.2525459 C163.494617,96.0616895 162.996096,94.8808583 163.000023,94.498365 C163.005379,93.9382854 163.061824,92.5439019 163.062535,92.0356853 C163.063963,91.0811223 164.193292,91.3448867 164.7669,91.3433255 C165.037545,91.3425449 165.539255,90.5366313 164.973858,90.3581747 C165.553701,89.5982619 165.32412,87.9274606 166.584135,88.1179267 C166.980813,88.1780328 169.105237,88.3802078 168.904934,89.1424625 C169.182358,88.5437433 168.75069,88.1269036 169.633664,88.1308066 C169.960361,88.1323678 170.990796,88.0839706 171.011505,88.6370248 C171.181815,88.4016743 171.51244,88.5335955 171.732737,88.5242283 C171.678466,88.4832469 170.967588,88.1963769 171.072916,88.1175364 C171.542789,87.7658767 172.771027,88.3064413 173.278389,88.3997228 C174.165648,88.5624776 174.126016,89.2400373 173.739335,89.9577979 C173.31695,90.7407384 172.735679,91.1860699 172.769599,92.1805527 C172.799233,93.0501397 172.713185,94.0856039 173.099152,94.8779116 C173.405497,95.5070741 174.163506,96.037491 173.755045,96.8477524 C173.615083,97.1252553 173.468548,97.4378773 173.397139,97.7559712 C173.327515,98.0666495 173.378537,98.4986836 173.296584,98.8226984 C173.097356,99.6105372 172.540904,100.487684 172.303432,100.500603 C172.100948,100.51161 171.393187,99.9479003 171.293928,99.8116858 C170.948664,99.3366915 170.20708,99.9127733 169.710429,100.011909 C169.309824,100.091921 169.240557,100.188715 168.881726,99.9744406 C168.504328,99.7492379 168.533185,99.9311408 168.365437,100.214865 C167.99507,100.841295 168.498116,100.808901 168.6093,101.49895 C168.749655,102.370047 167.364056,101.885737 167.053069,101.670291 C166.826345,101.513391 166.431298,101.291619 166.241307,101.094034 C165.989586,100.832248 165.976233,100.624765 165.979496,100.391495 C165.987958,99.7857035 165.096325,98.9928377 165.095611,98.39607 C165.095611,98.1708673 165.006771,97.0035521 164.741486,96.9656931 C164.551894,96.9387624 164.234017,97.1571545 164.075174,96.939465 C163.915357,96.7204485 163.913629,96.4047119 163.788466,96.2525381" id="sr"></path>
                            <path d="M90.0621781,80.418699 C89.794751,80.161501 90.4735746,79.841835 90.5219514,79.5992899 C90.6136738,79.1442768 90.1419031,78.6472329 90.7750589,78.3746107 C91.2913364,78.152117 90.3408286,77.8328366 90.3408286,77.6423481 C90.3408286,77.2478749 90.6509821,76.3171804 90.5619687,76.1625531 C90.9311806,75.7963485 91.2847571,76.6412191 91.5386387,76.1153551 C91.7313719,76.2857922 92.0127315,76.4998026 92.0959397,76.7539158 C92.0955526,76.9393915 92.0862643,77.1244815 92.0680746,77.3088004 C92.1017449,77.4541732 92.3591096,77.2949186 92.3378238,77.5066154 C92.2468753,78.4143279 93.1428141,78.0869499 93.7121125,78.1976183 C93.6029744,78.0048161 93.4822259,77.8201117 93.3494799,77.6423481 C93.831313,77.4958185 94.3011487,78.6638139 94.8588367,78.7405491 C96.0330389,78.9017317 96.6921247,77.9909344 97.682882,77.6222967 C98.3620926,77.3697259 99.1554725,77.1684404 99.6702018,76.6501883 C99.9515614,76.3667691 100.109463,76.0039155 100.562657,76.0000594 C101.070034,75.9958178 101.562316,76.2202395 102.070853,76.1708821 C101.979518,76.2857922 101.895923,76.4061007 101.820068,76.5321933 C102.811212,76.4219105 104.161119,76.6525019 104.888319,77.4102143 C105.23431,77.7707543 106.010662,79.2765391 106.640721,79.0864362 C106.172821,79.8044314 106.705508,80.1250228 106.950101,80.8673111 C107.213658,81.6662832 106.376003,82.4720419 105.776905,82.890037 C105.712273,82.6845099 105.610101,82.4990342 105.470389,82.3347668 C105.266433,82.630853 105.382765,82.6786178 105.362799,82.9089316 C105.34221,83.1466296 105.072426,83.3590744 104.896365,83.8877495 C104.140913,83.3448187 103.445529,82.0316818 103.408376,81.1131724 C104.041918,81.3480054 103.823255,80.5883649 104.093391,80.3014753 C104.392941,79.9825806 105.18245,80.7719126 105.442524,80.9188278 C105.268368,80.7067454 105.024161,80.5848945 104.813238,80.416771 C104.513302,80.1776963 104.567871,79.7789815 104.383652,79.4751253 C104.461442,79.7091871 104.33334,79.9150998 104.132867,80.0303955 C104.257873,79.4712693 103.783393,80.0531462 103.575566,79.5302667 C103.640584,79.7558452 103.631296,79.9779533 103.547701,80.1969766 C103.225318,79.6058452 103.205967,79.0081585 102.680401,78.7054591 C102.443161,78.5689552 102.218306,78.4081582 102.005448,78.2365643 C101.62656,77.9307801 101.815037,77.9458187 101.378097,77.9712686 C100.775515,78.005973 99.7518619,78.1343792 99.5796404,78.8971045 C99.4484425,79.4789814 98.6086209,80.4761541 97.8903218,80.3600872 C96.7579172,80.1773107 97.9766261,81.8465917 98.2308946,82.1242268 C98.42595,82.3370804 98.8423777,82.7735845 98.6047507,83.08978 C98.3949888,83.3693431 97.9100596,83.1846386 97.6495988,83.4156156 C97.3090259,83.7175438 96.5237734,84.1872098 96.0407792,83.9215284 C95.9262229,83.8586749 95.9672464,83.08978 95.8925526,82.9035331 C95.7458741,82.5375946 95.8561732,81.9773116 95.6344139,81.6688282 C95.4838652,81.8435069 95.3259633,81.8527614 95.160708,81.6962061 C95.6390581,82.6170291 94.5925707,82.8472349 94.1575663,82.0725558 C93.7883544,81.4154861 93.8011259,80.9330952 93.0189694,80.6550745 C92.7635398,80.5644575 92.5011439,80.7888792 92.3269874,80.5120153 C92.1094852,80.167285 91.8199983,80.4402929 91.6497119,80.169213 C91.3745445,80.5602158 90.9697273,80.1483904 90.618705,80.3357941 C90.2285944,80.5436348 90.5064708,80.9982623 90.2285944,81.2523755 C90.2614906,80.9111196 90.1905508,80.6147171 90.0621781,80.418699" id="path2682"></path>
                            <path d="M93,81.0760555 C93.0005,81.3390555 93.0845,81.3275555 93.252,81.0400555 C93.155,80.9765555 93.071,80.9885555 93,81.0760555" id="path4792"></path>
                            <path d="M94.6729798,83 C94.379051,83.1902071 93.8729484,83.3330682 94.0293211,83.664078 C94.1584421,83.9374492 94.5912248,84.1103647 95,83.9189225 C94.6943919,83.6434928 94.7923681,83.3075426 94.6729798,83" id="path4794"></path>
                            <path d="M95,84.432 C95.3847222,84.3495 95.7180556,84.2055 96,84 C95.6159722,84.0825 95.2826389,84.2265 95,84.432" id="path4796"></path>
                            <path d="M102.3564,80 C101.9964,80.0766597 101.9559,80.6290029 102.0324,80.9906796 C102.5369,81.0883061 102.4469,80.3957477 102.3564,80" id="path4802"></path>
                            <path d="M83.0240204,73.878464 C83.1975942,73.7391918 83.6658779,73.0917969 83.6979911,72.8766675 C83.7500226,72.5286876 82.9602004,72.1040479 83.2593817,71.929456 C83.6150659,71.7223538 83.706934,71.4249454 83.9483928,71.0275982 C84.0435129,70.8706661 85.210157,71.4305645 85.3784464,71.5128434 C86.1971298,71.9138029 86.0885669,71.6522722 86.8479668,71.4445037 C87.1818628,71.35315 87.3282706,71.8652101 87.8814632,71.7680327 C88.1306453,72.0887199 88.2143592,72.3952793 88.6454565,72.4753067 C89.1865965,72.5757633 89.9705854,72.5960039 89.9461713,72.0281145 C90.185191,72.4290739 89.950724,72.4977829 90.1836382,72.8477695 C90.3783499,73.1411642 90.4974533,73.4847291 90.6275321,73.8090286 C90.9023235,74.4941515 91.176302,74.7337639 91.6380817,75.1889071 C92.0563663,75.6007033 92.2734353,76.2605404 92.8071648,76.5326631 C93.1006551,76.6819693 93.0567535,76.999847 92.6917199,76.8914796 C92.41327,76.8087993 92.345064,76.4775924 91.9971032,76.7228238 C92.1536042,76.9929396 91.8136515,77.6463149 91.7997818,78.0912233 C91.7855138,78.5492282 92.906545,78.7002001 92.14295,79.0925423 C91.5265635,79.4092441 92.3535394,80.0905902 91.818566,80.5546997 C91.2279717,81.0670649 91.7815748,81.3698635 91.6575935,82 C91.6933652,81.6817209 91.553124,81.4360881 91.3449979,81.2077138 C91.2128866,81.119013 91.0925638,81.0170674 90.9840293,80.9014755 C91.0202074,80.7814686 91.0519141,80.6602576 91.0783364,80.5378426 C90.962485,80.1549444 90.5177781,79.3104812 89.9889265,79.6299644 C90.0901441,80.095543 90.6994819,80.2677268 90.5157456,80.8147815 C90.0799817,80.6803257 89.397881,80.5290126 89.291379,79.9948014 C89.2218682,79.6472229 89.6938103,79.3795153 89.7259235,79.0231069 C89.8051902,78.1429226 88.8324448,77.8081877 88.2576591,77.3658881 C87.9076659,77.096575 87.8210822,76.90633 87.3361322,76.8938878 C86.8584992,76.881847 86.5776103,76.6514659 86.5979351,76.1585948 C86.6463081,74.9894308 85.2361728,74.9922403 84.7796775,74.1682465 C84.8703262,74.3918045 84.889838,74.6310156 84.9735762,74.8557776 C85.106094,75.2117846 85.428852,75.1680363 85.6784406,75.3815603 C86.0259949,75.6789686 85.6129948,76.283418 85.2890173,76.4086426 C84.8963419,76.560357 84.5626085,75.7423836 84.1374135,75.6488666 C83.4219801,75.4899277 82.8772752,74.6097434 83.0240204,73.878464" id="cr"></path>
                            <path d="M120.059736,46.1031088 C120.685064,46.3639542 120.89654,46.2688353 121.501121,46.2874932 C120.779337,46.3763928 121.826525,46.5585822 121.99869,46.579801 C122.405263,46.6295556 122.799824,46.6412625 123.207124,46.7093091 C123.762931,46.8015013 123.656283,46.5765085 124.101802,46.4265132 C124.384983,46.3313943 124.837782,46.5410218 124.881824,46.1824965 C124.959717,45.5459313 123.767663,45.3436206 123.931457,44.5193784 C124.093066,43.7064773 124.216458,43.1811281 123.178369,42.9689397 C122.771069,42.8858935 121.797042,42.9283312 122.614191,42.3506665 C123.559099,41.6830047 124.278335,42.1245761 125.218148,42.4004211 C125.83838,42.5826104 126.948727,42.3156299 126.999277,43.2067407 C127.015802,43.4981632 126.741462,43.9095672 126.946426,44.2411189 C127.168815,44.6008661 126.58517,44.8453876 126.524774,45.0590687 C126.482344,45.209181 126.732472,45.2363557 126.696801,45.5367121 C126.648755,45.9438943 126.226025,46.230056 125.824912,46.2088372 C126.288114,46.6160633 126.642007,47.401497 126.244588,48 C125.687326,47.212342 124.706747,47.316607 123.885594,47.5258687 C123.0972,47.726716 121.26089,46.7707706 120.770237,47.6809857 C120.396423,48.3746223 119.943261,47.2211222 119.377262,47.1245399 C118.467297,46.969057 119.407109,45.6728785 120.059736,46.1031088" id="path5512"></path>
                            <path d="M120.396,49.1507031 C120.264,49.1147031 120.132,49.0787031 120,49.0427031 C120.278,48.9357031 120.215,49.0517031 120.396,49.1507031" id="path5514"></path>
                            <path d="M123.921441,46 C123.805066,45.9355596 121.306882,45.1444976 122.187751,45.0098393 C122.749335,44.9240669 124.373811,45.4111477 123.921441,46" id="path5516"></path>
                            <path d="M124.416667,42.2521254 C124.277778,42.2161254 124.138889,42.1801254 124,42.1441254 C124.320602,41.9006254 124.744792,41.9851254 125,42.2521254 C124.805556,42.2521254 124.611111,42.2521254 124.416667,42.2521254" id="path5518"></path>
                            <path d="M72.0277161,63.131059 C71.945245,62.8147886 72.0532705,62.6735442 72.2662279,62.4890228 C72.5875942,62.2102389 72.8727507,62.3230736 73.1496832,62.1569024 C73.1875502,62.1341557 73.4343711,61.711951 73.7499645,61.5803767 C73.8701593,61.5302648 73.7685495,61.3467224 73.8006861,61.2058747 C73.8711544,60.8939716 74.4244116,61.013976 74.6420115,61.0707518 C75.0051941,61.1653782 76.9659156,62.3180002 76.7669008,62.7383596 C77.1664792,62.7347201 78.0573994,62.0435837 78.1886563,62.7383596 C78.533641,62.5247224 79.1341701,62.6630225 78.9730998,63.1114059 C78.93864,63.207852 78.6559925,64.4958624 78.5510645,64.1009793 C78.2629964,64.4660187 78.8414557,64.7619081 78.0492685,64.9657188 C77.2981232,65.158611 76.7521877,64.4674745 76.0978395,64.6250638 C76.8249791,64.8124968 75.7211052,64.7233297 75.5364164,64.6432612 C75.0830189,64.4470935 74.7020256,64.1002514 74.2184275,63.964135 C73.7658043,63.8363894 73.2403898,64.0172714 72.8079005,63.8127329 C72.5531306,63.6919023 72.3099763,63.2930157 72.0277161,63.131059" id="sv"></path>
                            <path d="M153,88.4991711 C153.278522,87.9550617 153.745982,87.6904651 153.66583,86.851942 C153.611528,86.2838377 153.871404,86.113357 154.217372,85.9251706 C154.295408,85.8827222 154.494122,85.5414611 154.756672,85.7144429 C155.091065,85.9347617 155.070945,85.6967181 155.361091,85.4962799 C155.616307,85.3199809 156.112398,85.1944499 156.244727,84.9492784 C156.36013,84.735465 156.179095,84.4121413 155.902526,84.5104437 C155.21263,84.7552508 155.579661,84.056966 155.288575,83.6785588 C155.02423,83.3343106 155.354967,82.938524 155.576529,82.6671487 C155.855008,82.3255574 155.797941,82.34477 156.196751,82.142472 C156.731936,81.8707172 157.02421,81.3313407 157.511064,81.0972672 C158.172788,80.7791166 157.643356,80.5387616 157.342911,80 C157.792145,80.5218756 158.449262,80.8665033 158.966875,81.3117106 C158.716663,80.9306465 158.199432,80.8403146 158.004229,80.4099096 C158.640263,80.6957076 159.305711,81.1105513 159.776338,81.6286314 C160.155666,82.0465114 160.636989,82.8564624 161.107615,83.1289763 C161.632105,83.432613 161.768097,84.4103232 161.582444,84.9242284 C161.443395,85.3094675 161.242462,85.5728723 161.193566,85.9964455 C161.151164,86.3627073 161.141996,86.7619896 160.923108,87.0781513 C161.650441,86.9456898 161.101121,85.1781446 162.222298,85.5736314 C163.063849,85.8704363 164.097929,86.4670824 164.303446,87.4330267 C164.851619,86.9426534 165.239734,87.9552819 165.316516,88.3450755 C165.450599,89.0237035 165.189691,90.0473388 164.746569,90.5756667 C165.483069,90.7828987 164.85097,91.3059471 164.683367,91.5050721 C164.522238,91.6965037 162.598631,91.0948779 162.707758,92.3511824 C162.77407,93.1145744 162.76473,93.6120338 162.645545,94.3612574 C162.565325,94.8652943 163.021065,95.8642591 163.391989,96.2054709 C163.770935,96.553894 163.517668,96.9725331 164.085323,97.0522378 C164.204126,97.0689378 164.512401,96.9228126 164.584982,97.0355377 C164.818767,97.3995223 164.848945,97.8511819 164.913504,98.2652664 C165.033452,99.0380219 165.842533,99.6676885 165.842533,100.427539 C165.842533,101.199536 166.72152,101.176004 167,101.643604 C166.059128,102.242148 165.144997,101.036331 164.244236,101.771891 C164.093345,101.894864 164.003574,102.061864 163.868728,102.198121 C163.620808,102.449001 163.307184,102.340451 163.006931,102.444067 C162.456083,102.634219 162.431635,102.906354 161.782231,102.914704 C161.580534,102.91736 161.46517,103.073354 161.334525,103.201261 C161.234822,103.217961 161.143142,103.254397 161.059483,103.31057 C161.083931,103.424054 161.098829,103.538677 161.104177,103.654818 C160.961309,103.939098 160.165216,104.065487 159.875276,103.966805 C159.673579,103.898107 159.803842,103.666204 159.51734,103.663927 C159.289285,103.662029 158.83241,103.493132 158.746078,103.26047 C158.607411,102.88434 158.06535,102.300978 157.647821,102.245185 C157.685257,102.154473 157.722312,102.063382 157.758602,101.971912 C157.372398,101.996582 157.417092,101.652334 157.464078,101.390068 C157.545445,100.933854 157.425496,100.758124 157.148544,100.426021 C156.689378,99.8756796 156.71077,98.8266148 156.853257,98.1741754 C156.962891,97.6712771 157.338017,97.2097493 157.340309,96.6787646 C157.342219,96.2191345 157.470954,96.2532937 157.738356,95.8653978 C157.906055,95.6224884 158.263609,95.1958788 158.105842,94.9062853 C157.979017,94.6743828 157.647439,94.3506301 157.647439,94.0739412 C157.647439,93.8074999 157.78878,93.5528247 157.47974,93.4192245 C157.265819,93.3269949 156.721848,93.3186448 156.590821,93.0996469 C156.467434,92.893933 156.898333,92.2752732 156.940735,92.0361593 C157.011405,91.6376361 156.958689,91.1768674 156.639717,90.8906898 C156.163361,90.4637007 155.381482,91.1358764 154.804277,90.8523556 C154.117819,90.5156984 153.311332,89.167931 153,88.4991711" id="gy"></path>
                            <path d="M74,60.2201272 C74.2049838,59.7058178 74.8709921,59.5894495 74.5525486,58.9450366 C74.3740387,58.5844859 74.8717485,58.0324044 75.1489684,57.9057348 C75.7896373,57.6134788 76.29212,57.0548159 76.8113871,56.5801861 C77.0152364,56.3936154 77.2895743,56.2292692 77.528596,56.0846673 C77.8054377,55.9171734 77.962012,56.1476206 78.186284,55.8809275 C78.4952725,55.5135092 79.1994789,55.1865335 79.5655755,55.5631087 C79.8318275,55.8374325 81.1509854,55.8683369 81.5469597,55.8317095 C82.0995083,55.7809653 82.9417574,55.9164103 83.4171534,55.609656 C83.5873429,55.4997739 84.8509056,55.2174378 84.1569105,55.0007259 C84.777535,54.980886 85.3111737,55.3742488 85.9272597,55.3853133 C86.5626339,55.3963778 87.3020129,54.9270896 87.8704459,55.4349129 C88.3537841,55.8668107 88.6294911,55.4391098 89.1132075,55.6874892 C89.6763458,55.9770744 89.9686935,56.6462871 90.3930327,57.0884864 C90.1967475,56.9877611 90.0118082,56.6764284 89.7708955,56.6764284 C89.536034,56.6764284 89.3306719,56.7176342 89.1404379,56.5390757 C89.3227298,56.6424718 89.3318065,56.8530792 89.378325,57.030493 C89.4127411,57.1609781 89.7712737,57.4364465 89.8756566,57.5554855 C89.9501618,57.3353397 89.8506955,57.1892117 89.6309619,57.143809 C89.8953229,56.8557499 90.3124764,57.6821551 90.8290961,57.4185143 C90.8627558,57.5989805 90.9213766,57.6684199 90.8018658,57.8305723 C91.3510106,57.6909305 90.8495188,57.3193152 90.5840232,57.2262206 C91.4671177,57.3517457 91.3010884,58.1052777 92,58.3796015 C91.5026684,58.4654469 91.0401311,58.3765492 90.6002858,58.6871188 C90.2160356,58.9587719 89.4286255,59.2178343 88.9611716,59.2052436 C88.5901584,59.1957052 88.2501576,59.5963172 87.9317141,59.4997888 C87.7063075,59.431494 87.4948943,59.3475562 87.2891541,59.231188 C87.193848,59.17701 87.1851494,58.9835717 87.0905997,58.9641134 C86.5724671,58.8580466 86.5195193,59.5222993 86.3360928,59.8080692 C86.2177165,59.9923507 86.0089507,60.0801038 85.9004076,60.2750683 C85.8410304,60.3815166 85.9791184,60.5680033 85.8773375,60.6424866 C85.4998685,60.9187181 84.3120666,61.5940354 84.1304366,62.2254761 C83.3058117,61.6947111 83.1414653,61.2304514 82.6096987,62.1339077 C82.2402626,62.761575 81.1167925,62.1843085 81.1755683,62.733681 C81.2338791,63.2787155 81.4709417,63.9133878 80.8344329,64.0209807 C80.4993487,64.0774479 80.5530529,64.4425771 80.4641762,64.685615 C80.309871,65.1072114 79.7255536,64.9549788 79.3919822,65 C79.6385679,64.5955727 78.410556,64.0362421 79.2830609,63.7085034 C79.0137832,63.7985457 78.6522251,63.7943488 78.6023028,63.4337981 C78.522881,63.7386447 78.2751607,63.8252532 78.030466,63.6260918 C78.3538261,63.5196435 78.2955835,63.1789326 78.3126024,62.9110949 C78.3405891,62.4769078 78.7327814,61.9912135 77.9741144,61.985109 C77.7252595,62.1835073 77.5909989,62.1464983 77.5705761,61.8744638 C77.4934235,61.7771723 77.393579,61.7394003 77.2710426,61.7603847 C76.9178048,61.8008275 76.6190276,62.0843081 76.260495,62.0877419 C76.5297727,61.4769041 74.2749506,60.5024632 74,60.2201272" id="path5978"></path>
                            <path d="M82,55 C82.3101852,54.5782164 82.6531339,54.2704678 83,54 C82.6406695,54.0073099 82.1791311,54.2989766 82,55" id="path6082"></path>
                            <path d="M78.1468136,64.3700287 C78.5015121,64.5148377 78.512462,64.8781902 78.9633632,64.8356217 C79.0261374,64.7331077 78.8304002,64.6281915 79.0125048,64.6007956 C79.1978201,64.5780671 79.7046323,64.5507548 79.8757244,64.5007749 C80.2468478,64.3928333 80.0122071,63.8975944 80.2750047,63.7181985 C80.4713207,63.5844118 80.778309,63.6889327 80.8260192,63.4164183 C80.8866347,63.0716894 80.5722162,62.3727298 80.7935606,62.0986951 C80.9980891,61.8451845 81.4681526,62.0492852 81.724302,62.0819717 C82.0484972,62.1226399 82.1791139,61.8448044 82.3625247,61.6334822 C83.0500219,60.8421641 83.1419229,61.4054366 83.8626608,61.8524059 C83.9820265,61.1881206 84.9050326,60.7417519 85.4750335,60.2773713 C85.8631644,60.2491697 85.4532901,59.9826186 85.8985599,59.61984 C86.2346436,59.3460219 86.2264155,58.901048 86.5873711,58.6368953 C86.9964281,58.3373955 87.151944,58.8369672 87.4859042,59.0153141 C87.9704216,59.2740659 88.1959582,58.9936117 88.6536366,58.839681 C89.1505899,58.6725426 90.0172862,58.6225208 90.4795283,58.3773718 C90.6895317,58.2660096 90.8572998,58.0752115 91.0989797,58.0212407 C91.400102,57.9543473 91.6977046,58.0714107 92,58.0212407 C91.7434595,58.1402045 91.6030662,58.6696502 91.267921,58.3773718 C90.9511561,58.9128988 91.7661414,59.7988557 91.4931761,60.4845127 C91.2292053,61.1485053 90.6817104,61.5282011 90.4576285,62.2518657 C90.1787972,63.1530257 90.2918158,64.0541857 90.1385172,64.9644675 C90.0642143,65.4064957 90.2597482,66.5740889 89.7192925,66.6417425 C89.7364995,66.1244591 90.0384038,65.7466637 89.9445475,65.1913728 C89.5859384,65.2784102 89.9332066,65.9119967 89.2687824,66.1217986 C89.7196836,66.6869715 89.3888402,67.2764692 89.4095668,67.9005539 C89.3055427,67.7291396 89.2773859,67.5467032 89.3250961,67.3532446 C89.2601789,67.7276193 89.0138061,68.0605658 89.0153704,68.4482433 C89.7411923,68.1951127 89.1698422,69.1388412 89.0259292,69.3691672 C88.6833538,69.9176167 88.4369811,70.5584247 88.8757592,71.1673063 C89.0712931,71.4383005 89.4400701,71.6872502 88.846038,71.9171961 C88.4983788,72.051743 87.9016093,72.0293185 87.6020513,71.7982324 C87.5121057,71.7229773 87.4358475,71.63632 87.3732766,71.5378804 C87.1202558,71.175668 87.2066818,71.305654 86.8660617,71.2482625 C86.6044373,71.2041737 86.4417531,70.8974524 86.1558825,70.955224 C85.9243704,71.0015932 85.7135496,71.0774374 85.5129318,71.1838586 C85.3867147,71.250657 85.0587222,71.1428713 84.8921391,71.0709571 C84.0386922,70.7025229 83.6535882,70.5274523 83.536917,70.5166164 C83.4785814,70.5111813 83.2529275,70.4938878 83.6260062,70.4321939 C83.863791,70.4691373 86.3918294,71.7652076 85.7308309,70.0624257 C85.5955293,69.9183275 84.991615,68.8478513 84.8577681,68.7162044 C84.7292593,68.5898063 83.9503852,68.0761566 83.8728677,67.8714553 C83.7897541,67.6519804 83.1541985,67.5098244 83.0273283,67.5311353 C82.5029415,67.6192141 82.8427442,69.0661821 82.7396079,68.9036426 C82.8646792,69.0289803 83.1577415,70.2176259 83.6229597,70.4331023 C83.5603498,70.4280093 83.6382114,70.5539512 83.511306,70.5141269 C83.173482,70.4081123 83.2574013,71.5211038 82.7934814,70.5440009 C82.5329716,69.9953081 81.9855353,69.6169957 81.5537964,69.2141152 C80.6981401,68.4155757 80.3414862,67.325518 79.4256054,66.5520636 C78.8374394,66.0553043 77.5703797,65.0766089 78.1468136,64.3700477" id="ni"></path>
                            <path d="M134.664443,68 C134.554105,67.8317681 134.719273,67.399755 134.363213,67.3135974 C134.063337,67.2405063 133.931338,67.2609228 134.034906,67 C134.669181,67.2890976 135.461855,67.5063291 134.664443,68" id="path6514"></path>
                            <path d="M117.36,31.144 C117.24,31.096 117.12,31.048 117,31 C117.1335,31.016 117.253,31.0645 117.36,31.144" id="path6100"></path>
                            <path d="M120,35 C120.620546,34.5920912 121.088618,34.0315833 121.775871,33.6970394 C120.945674,33.2749467 121.63629,32.7516104 121.889666,33.1311515 C122.474335,34.0090848 120.572337,34.6742598 120,35" id="path6108"></path>
                            <path d="M120.266667,28.1111111 C120.511111,28.0740741 120.755556,28.037037 121,28 C120.887037,28.4506173 120.498148,28.8140432 120,29 C120.152778,28.716821 120.242593,28.4205247 120.266667,28.1111111" id="path6110"></path>
                            <path d="M120.988956,34 C120.476581,33.9267677 119.884758,33.5650253 120.019417,33 C120.425411,33.2140152 121.09399,33.4381313 120.988956,34" id="path6112"></path>
                            <path d="M122.057208,40 C121.8129,39.3577098 122.410177,38.7596372 122.735799,38.6213152 C122.960052,38.5260771 123.021676,38.755102 123.214205,38.8163265 C123.536909,38.9189342 123.78377,38.2465986 124,38 C123.93947,38.5243764 123.837007,39.1836735 123.571185,39.5555556 C123.199984,40.074263 122.50316,39.7261905 122.057208,40" id="path6122"></path>
                            <path d="M124.023376,37.4135468 C123.945376,37.1115468 124.061876,36.9430468 124.383376,37.0175468 C124.273876,37.1595468 124.154376,37.2915468 124.023376,37.4135468" id="path6124"></path>
                            <path d="M124.973576,35 C124.765578,34.3061742 124.018294,34.8489683 124,34.0056441 C124.209589,33.954278 125.170439,34.2509748 124.973576,35" id="path6126"></path>
                            <path d="M107,47.6082423 C107.87282,46.8353774 109.48854,46.9580404 110.735426,47.1234452 C111.50274,47.2253229 112.096973,47.5359326 112.824178,47.6840651 C113.577541,47.8374671 113.622446,48.062886 114,48.4938168 C113.666044,48.6000857 113.308981,48.6202856 112.944943,48.6202856 C112.608371,48.6202856 112.443137,48.3872551 112.085202,48.4308751 C112.548642,48.3781798 111.97272,48.3167019 111.843236,48.3939884 C111.706776,48.4753734 111.586883,48.6369724 111.380668,48.6428275 C110.976956,48.6539521 110.449863,48.6041842 110.798206,48.9999848 C110.380979,49.0026196 110.326046,48.6621491 109.93149,48.6864475 C109.550448,48.7098677 108.88864,48.68352 108.681116,48.4276549 C108.55294,48.2695688 108.337569,48.1205581 108.160127,47.987356 C107.854509,47.7578385 107.23935,47.8936754 107,47.6082423" id="jm-"></path>
                            <path d="M144,49.3188718 C144.225,49.0773718 144.594444,48.9338718 145,49.0303718 C144.724306,49.2308718 144.390972,49.3268718 144,49.3188718" id="path4052"></path>
                            <path d="M146.000438,50.4128409 C145.980194,49.6523409 146.666813,50.2058409 147,50.0528409 C146.70941,50.3183409 146.345013,50.3403409 146.000438,50.4128409" id="path5520"></path>
                            <path d="M133,68 C132.580678,67.8917764 132.009831,67.51157 132,67 C132.225424,67.0355999 132.938305,67.7650409 133,68" id="cw-"></path>
                            <path d="M126.238411,37.3605 C126.15894,37.2405 126.07947,37.1205 126,37 C126.324503,37.153 126.658278,37.165 127,37.036 C126.754305,37.156 126.500662,37.264 126.238411,37.3605" id="path5528"></path>
                            <path d="M128.36,37.3870228 C128.24,37.3145228 128.12,37.2430228 128,37.1705228 C128.4215,36.8215228 128.4785,37.0660228 128.36,37.3870228" id="path5532"></path>
                            <path d="M128.36,37.3634141 C128.2325,37.2509141 128.1125,37.1309141 128,37.0034141 C128.3305,36.9769141 128.3025,37.1054141 128.36,37.3634141" id="path5534"></path>
                            <path d="M153.309334,69 C152.621799,68.6370848 153.198326,68.1730293 153.891232,68 C154.150848,68.3763014 153.941365,68.7868121 153.309334,69" id="gd-"></path>
                            <path d="M98.0322581,45.108 C98.359319,45.1305 98.6760753,45.025 99,45 C98.7087814,45.224 98.3673835,45.419 98,45.36 C98.0103047,45.276 98.0215054,45.192 98.0322581,45.108" id="ky-"></path>
                            <path d="M129.292921,67.5440206 C129.195281,67.3751394 129.09764,67.2069618 129,67.0373769 C129.646867,66.8171276 129.918633,67.6263503 130,68 C129.743694,67.8719317 129.50773,67.7199386 129.292921,67.5440206" id="aw-"></path>
                            <path d="M146.36,48.2359527 C146.24,48.1879527 146.12,48.1399527 146,48.0919527 C146.349,47.9324527 146.4695,47.9804527 146.36,48.2359527" id="path5522"></path>
                        </g>
                    </g>
                </g>
            </g>
        </g>
    </g>
</svg>